<?xml version="1.0" encoding="utf-8"?>
<!-- Generator: Adobe Illustrator 22.1.0, SVG Export Plug-In . SVG Version: 6.00 Build 0)  -->
<svg version="1.1" id="Ebene_1" xmlns="http://www.w3.org/2000/svg" xmlns:xlink="http://www.w3.org/1999/xlink" x="0px" y="0px"
	 viewBox="0 0 880.3 348" style="enable-background:new 0 0 880.3 348;" xml:space="preserve">
<style type="text/css">
	.st0{fill:#FFFFFF;}
</style>
<path class="st0" d="M657.2,93.2h-7.4c-1.7,0-3,1.3-3,3v19.2c0,1.7,1.3,3,3,3h7.4c1.7,0,3-1.3,3-3V96.2
	C660.2,94.5,658.9,93.2,657.2,93.2z"/>
<path class="st0" d="M654.4,62.9h-1.7c-1.7,0-3,1.3-3,3v19.2c0,1.7,1.3,3,3,3h1.7c1.7,0,3-1.3,3-3V65.9
	C657.4,64.2,656,62.9,654.4,62.9z"/>
<path class="st0" d="M654.4,32.6h-1.7c-1.7,0-3,1.3-3,3v19.2c0,1.7,1.3,3,3,3h1.7c1.7,0,3-1.3,3-3V35.6
	C657.4,33.9,656,32.6,654.4,32.6z"/>
<path class="st0" d="M653.5,2.3L653.5,2.3c-2.1,0-3.8,1.7-3.8,3.8v18.4c0,1.7,1.3,3,3,3h1.7c1.7,0,3-1.3,3-3V6.1
	C657.4,4,655.6,2.3,653.5,2.3z"/>
<g>
	<g>
		<path class="st0" d="M60.4,166.4c0,2.8-2.3,5.4-5.4,5.4c-4.1,0-7.3-4.1-15.5-4.1c-13.7,0-22.2,12.4-22.2,28.6
			c0,15.6,7.9,28.6,22.2,28.6c4.8,0,7.7-1,12-3.4c1.2-0.7,2.3-1,3.5-1c2.9,0,5,1.9,5,5.4c0,5.4-8.3,10.1-20.4,10.1
			c-21.7,0-35-16.8-35-39.7c0-22.8,13.3-39.7,35-39.7C52.2,156.6,60.4,161,60.4,166.4z"/>
		<path class="st0" d="M124.6,167h0.3v-4.2c0-3.6,2.6-6.1,6-6.1c3.4,0,6,2.5,6,6V230c0,3.4-2.5,6-6,6c-3.5,0-6-2.3-6-6.4v-5.3h-0.3
			c-5.7,8-12.8,11.7-21.2,11.7c-21.5,0-34.1-19-34.1-39c0-23.8,14-40.4,34.1-40.4C112.4,156.6,118.6,160.4,124.6,167z M103.5,224.9
			c13.7,0,21.3-12.4,21.3-28.6c0-16.6-7.9-28.6-21.5-28.6c-13,0-21.2,11.7-21.2,28.6C82.2,212.7,89.7,224.9,103.5,224.9z"/>
		<path class="st0" d="M166.7,164.2v1.6l0.3,0.3c5.1-6.7,10.9-9.5,19.6-9.5c9.2,0,16.2,4.5,21.3,13.1c6.4-9.3,13.7-13.1,23.6-13.1
			c15.6,0,27.1,11.2,27.1,28.9v43.9c0,3.6-2.3,6.6-6.4,6.6c-4.1,0-6.4-2.9-6.4-6.6v-44.2c0-10.5-6-17.5-16.6-17.5
			c-10.4,0-16.5,7-16.5,17.5v44.2c0,3.6-2.3,6.6-6.4,6.6c-4.1,0-6.4-2.9-6.4-6.6v-44.2c0-10.5-6-17.5-16.6-17.5
			c-10.4,0-16.5,7-16.5,17.5v44.2c0,3.6-2.3,6.6-6.4,6.6s-6.4-2.9-6.4-6.6v-66.3c0-3.6,2.3-6.6,6.4-6.6
			C163.7,156.6,166.7,158.2,166.7,164.2z"/>
		<path class="st0" d="M288.4,163.2v42c0,12.3,5.7,19.7,17.9,19.7c12.4,0,17.9-7.4,17.9-19.7v-42c0-3.6,2.3-6.6,6.4-6.6
			c4.1,0,6.4,2.9,6.4,6.6v42.5c0,18.8-11.7,30.4-30.8,30.4c-19.1,0-30.8-11.5-30.8-30.4v-42.5c0-3.6,2.3-6.6,6.4-6.6
			S288.4,159.6,288.4,163.2z"/>
		<path class="st0" d="M366.9,164.5v2l0.3,0.3c5.8-7.3,13.7-10.2,21.5-10.2c15.2,0,27,11.1,27,28.9v43.9c0,3.6-2.3,6.6-6.4,6.6
			c-4.1,0-6.4-2.9-6.4-6.6v-43.1c0-11.1-7.4-18.7-17.9-18.7c-10.4,0-17.9,7.6-17.9,18.7v43.1c0,3.6-2.3,6.6-6.4,6.6
			c-4.1,0-6.4-2.9-6.4-6.6v-66.3c0-3.6,2.3-6.6,6.4-6.6C363.5,156.6,366.9,158,366.9,164.5z"/>
		<path class="st0" d="M496.2,129.1v100.4c0,3.6-2.3,6.6-6.4,6.6c-3.9,0-6.4-2.6-6.4-6.7v-3.9h-0.3c-3.9,7.3-10.7,10.7-20.7,10.7
			c-20.6,0-33.1-18.8-33.1-39c0-22.5,13-40.4,32.7-40.4c8.6,0,16.1,3.5,21.2,10.5h0.3v-38.1c0-3.6,2.3-6.6,6.4-6.6
			C493.9,122.5,496.2,125.4,496.2,129.1z M463.4,224.9c13.7,0,21.3-12.4,21.3-28.6c0-16.9-8-28.6-21.5-28.6
			c-13,0-21.2,11.7-21.2,28.6C442.1,212.7,449.6,224.9,463.4,224.9z"/>
		<path class="st0" d="M565.7,167h0.3v-4.2c0-3.6,2.6-6.1,6-6.1c3.4,0,6,2.5,6,6V230c0,3.4-2.5,6-6,6s-6-2.3-6-6.4v-5.3h-0.3
			c-5.7,8-12.8,11.7-21.2,11.7c-21.5,0-34.1-19-34.1-39c0-23.8,14-40.4,34.1-40.4C553.4,156.6,559.7,160.4,565.7,167z M544.5,224.9
			c13.7,0,21.3-12.4,21.3-28.6c0-16.6-7.9-28.6-21.5-28.6c-13,0-21.2,11.7-21.2,28.6C523.2,212.7,530.8,224.9,544.5,224.9z"/>
	</g>
</g>
<g>
	<path class="st0" d="M425.6,276.1c0,2.8-2.3,5.4-5.4,5.4c-4.1,0-7.3-4.1-15.5-4.1c-13.7,0-22.2,12.4-22.2,28.6
		c0,15.6,7.9,28.6,22.2,28.6c4.8,0,7.7-1,12-3.4c1.2-0.7,2.3-1,3.5-1c2.9,0,5,1.9,5,5.4c0,5.4-8.3,10.1-20.4,10.1
		c-21.7,0-35-16.8-35-39.7c0-22.8,13.3-39.7,35-39.7C417.4,266.4,425.6,270.7,425.6,276.1z"/>
	<path class="st0" d="M502.8,305.8c0,21.4-12.4,40-34,40c-22.9,0-34.3-20.4-34.3-38.7c0-23.8,13.7-40.7,34.1-40.7
		C489.6,266.4,502.8,284.5,502.8,305.8z M468.6,334.7c13.6,0,21.3-12.1,21.3-28.6c0-16.9-8-28.6-21.5-28.6
		c-13,0-21.2,11.7-21.2,28.6C447.3,322.4,454.9,334.7,468.6,334.7z"/>
	<path class="st0" d="M529.2,274.2v2l0.3,0.3c5.8-7.3,13.7-10.2,21.5-10.2c15.2,0,27,11.1,27,28.9v43.9c0,3.6-2.3,6.6-6.4,6.6
		s-6.4-2.9-6.4-6.6v-43.1c0-11.1-7.4-18.7-17.9-18.7c-10.4,0-17.9,7.6-17.9,18.7v43.1c0,3.6-2.3,6.6-6.4,6.6c-4.1,0-6.4-2.9-6.4-6.6
		v-66.3c0-3.6,2.3-6.6,6.4-6.6C525.8,266.4,529.2,267.7,529.2,274.2z"/>
</g>
<g>
	<path class="st0" d="M744.6,172c4.8,0.6,7.6,4.4,7.6,8.7c0,6-4.7,10.2-11.3,10.2h-8.6c-1.4,0-2.2-1-2.2-2.3v-30.5
		c0-1.2,0.8-2.3,2.2-2.3h7.6c5.8,0,9.6,3.8,9.6,8.4C749.4,168,747.5,171.1,744.6,172L744.6,172z M739.4,170.7c3.2,0,5.7-2.2,5.7-5.7
		c0-3.5-2.3-5.4-5.5-5.4h-5.2v11.1H739.4z M740.6,187.2c4.1,0,7.2-2.7,7.2-6.5c0-3.8-2.9-6.5-7-6.5h-6.5v13H740.6z"/>
	<path class="st0" d="M761.7,190.9c-1.4,0-2.2-1-2.2-2.3v-30.5c0-1.2,0.8-2.3,2.2-2.3h12.7c1.1,0,2,0.6,2,2c0,1.4-0.9,2-2,2h-10.5
		v11.5h9.6c1,0,2,0.6,2,2c0,1.4-1,2-2,2h-9.6v11.5h10.3c1.3,0,2.2,0.6,2.2,2c0,1.4-0.9,2-2,2H761.7z"/>
	<path class="st0" d="M802.2,173.2c-1.6,1.3-3.5,2.1-8.2,2.1l11.1,12.2c0.8,0.9,0.9,1.4,0.9,2.1c0,0.9-0.8,1.7-2,1.7
		c-1.5,0-2.2-1.2-3.6-2.8l-11.8-12.9V189c0,1.2-0.8,2.2-2.2,2.2s-2.2-1-2.2-2.2v-30.9c0-1.2,0.8-2.3,2.2-2.3h7.7
		c5.8,0,11.1,3.1,11.1,9.6C805.4,168.6,804.4,171.4,802.2,173.2z M794.7,172c4.1,0,6.4-1.8,6.4-6.5c0-3.4-2.8-6-6.6-6h-5.9V172
		H794.7z"/>
	<path class="st0" d="M817.1,157.8v29.1h9.4c1,0,2,0.6,2,2c0,1.4-1,2-2,2H815c-1.4,0-2.2-1-2.2-2.3v-30.9c0-1.2,0.8-2.2,2.2-2.2
		S817.1,156.5,817.1,157.8z"/>
	<path class="st0" d="M839.2,157.8V189c0,1.2-0.8,2.2-2.2,2.2s-2.2-1-2.2-2.2v-31.2c0-1.2,0.8-2.2,2.2-2.2S839.2,156.5,839.2,157.8z
		"/>
	<path class="st0" d="M852.6,157.4l18,25.9h0.1v-25.5c0-1.2,0.8-2.2,2.2-2.2s2.2,1,2.2,2.2v31c0,1.4-0.5,2.4-2,2.4
		c-1.2,0-1.9-0.6-2.6-1.6l-18.2-26.2h-0.1V189c0,1.2-0.8,2.2-2.2,2.2s-2.2-1-2.2-2.2v-31c0-1.4,0.5-2.4,2-2.4
		C851.2,155.5,851.8,156.2,852.6,157.4z"/>
</g>
<g>
	<path class="st0" d="M750.7,210c0,3.2-0.8,5.1-2.3,6.9l-11.9,15.9h13.4c0.8,0,1.8,0.8,1.8,1.9s-0.9,1.9-1.8,1.9h-17.2
		c-1.3,0-2.2-0.7-2.2-1.8c0-0.8,0.8-1.8,2.5-4l10.6-14.2c1.6-2.1,2.5-4.1,2.5-6.2c0-3.2-2.4-5.5-5.6-5.5c-3.9,0-6.4,3.3-6.4,7.9
		c0,1.4-0.8,2-1.9,2c-1.4,0-2.1-0.8-2.1-2.7c0-6.1,4.3-10.9,11.2-10.9C746.6,201.2,750.7,205,750.7,210z"/>
	<path class="st0" d="M781.7,218.8c0,11.7-5.2,18.1-11.4,18.1c-6.7,0-11.8-6.7-11.8-17.8c0-10.9,5-17.8,11.6-17.8
		C776.5,201.2,781.7,208,781.7,218.8z M770.1,233.1c4.1,0,6.9-5,6.9-14.1c0-9.1-2.7-14.1-6.9-14.1c-4.1,0-6.9,4.9-6.9,14.1
		C763.1,228.1,766,233.1,770.1,233.1z"/>
	<path class="st0" d="M798.7,234.6c0,1.2-0.8,2.2-2.2,2.2s-2.2-1-2.2-2.2v-29.4h-4.6c-0.8,0-1.8-0.8-1.8-1.9c0-1.1,0.9-1.9,1.8-1.9
		h7.8c0.8,0,1.2,0.4,1.2,1.2V234.6z"/>
	<path class="st0" d="M828.7,209.2c0,3.5-1.2,5.7-4.6,7.8c3.9,0.9,6.4,4.5,6.4,8.8c0,6.1-4.2,11.1-10.7,11.1s-10.7-5.1-10.7-11.1
		c0-4.3,2.4-7.8,6.4-8.8c-3.3-2.1-4.6-4.2-4.6-7.8c0-4.9,4-8,9-8S828.7,204.2,828.7,209.2z M819.7,233.1c3.4,0,6.1-2.8,6.1-7.1
		c0-4-2.4-7-6.2-7c-3.5,0-6.1,3-6.1,7C813.6,230.3,816.3,233.1,819.7,233.1z M819.7,215.2c3,0,4.9-2.1,4.9-5.2c0-3-1.9-5.1-4.9-5.1
		c-3.1,0-4.9,2.1-4.9,5.1C814.8,213.2,816.8,215.2,819.7,215.2z"/>
</g>
<path class="st0" d="M642,233.3v9.3h-3.8V255h4.8l-2.6,90.7h26.3l-2.6-90.7h4.8v-12.5H665v-9c16.8-4.8,29.2-20.3,29.2-38.6
	c0-16.9-10.5-31.4-25.3-37.3v-25.4h0.8c1.7,0,3-1.3,3-3v-2.6c0-1.7-1.3-3-3-3h-32.4c-1.7,0-3,1.3-3,3v2.6c0,1.7,1.3,3,3,3h0.8V158
	c-14.3,6.1-24.3,20.4-24.3,36.9C613.8,212.9,625.7,228.2,642,233.3z"/>
</svg>
