<?xml version="1.0" encoding="utf-8"?>
<!-- Generator: Adobe Illustrator 22.1.0, SVG Export Plug-In . SVG Version: 6.00 Build 0)  -->
<svg version="1.1" id="Ebene_1" xmlns="http://www.w3.org/2000/svg" xmlns:xlink="http://www.w3.org/1999/xlink" x="0px" y="0px"
	 viewBox="0 0 1140 100" style="enable-background:new 0 0 1140 100;" xml:space="preserve">
<style type="text/css">
	.st0{fill:#ECECEC;}
	.st1{fill:#F31951;}
	.st2{fill:#007BA5;}
	.st3{fill:none;stroke:#007BA5;stroke-width:2;stroke-linecap:round;stroke-miterlimit:10;}
	.st4{fill:#FFFFFF;}
</style>
<rect class="st0" width="1140" height="100"/>
<g>
	<path class="st1" d="M327.5,27.2h-1.7c-0.4,0-0.7,0.3-0.7,0.7v4.5c0,0.4,0.3,0.7,0.7,0.7h1.7c0.4,0,0.7-0.3,0.7-0.7v-4.5
		C328.2,27.5,327.9,27.2,327.5,27.2z"/>
	<path class="st2" d="M326.9,20.2h-0.4c-0.4,0-0.7,0.3-0.7,0.7v4.5c0,0.4,0.3,0.7,0.7,0.7h0.4c0.4,0,0.7-0.3,0.7-0.7v-4.5
		C327.6,20.5,327.2,20.2,326.9,20.2z"/>
	<path class="st1" d="M326.9,13.1h-0.4c-0.4,0-0.7,0.3-0.7,0.7v4.5c0,0.4,0.3,0.7,0.7,0.7h0.4c0.4,0,0.7-0.3,0.7-0.7v-4.5
		C327.6,13.5,327.2,13.1,326.9,13.1z"/>
	<path class="st2" d="M326.6,6.1L326.6,6.1c-0.5,0-0.9,0.4-0.9,0.9v4.3c0,0.4,0.3,0.7,0.7,0.7h0.4c0.4,0,0.7-0.3,0.7-0.7V7
		C327.6,6.5,327.1,6.1,326.6,6.1z"/>
	<g>
		<g>
			<path class="st1" d="M188.8,44.3c0,0.7-0.5,1.3-1.3,1.3c-1,0-1.7-1-3.6-1c-3.2,0-5.2,2.9-5.2,6.7c0,3.6,1.8,6.7,5.2,6.7
				c1.1,0,1.8-0.2,2.8-0.8c0.3-0.2,0.5-0.2,0.8-0.2c0.7,0,1.2,0.4,1.2,1.3c0,1.3-1.9,2.3-4.7,2.3c-5,0-8.1-3.9-8.1-9.2
				s3.1-9.2,8.1-9.2C186.9,42,188.8,43,188.8,44.3z"/>
			<path class="st1" d="M203.6,44.4L203.6,44.4l0.1-1c0-0.8,0.6-1.4,1.4-1.4s1.4,0.6,1.4,1.4v15.7c0,0.8-0.6,1.4-1.4,1.4
				s-1.4-0.5-1.4-1.5v-1.2h-0.1c-1.3,1.9-3,2.7-4.9,2.7c-5,0-7.9-4.4-7.9-9.1c0-5.5,3.3-9.4,7.9-9.4C200.9,42,202.2,42.9,203.6,44.4
				z M198.8,57.9c3.2,0,5-2.9,5-6.7c0-3.9-1.8-6.7-5-6.7c-3,0-4.9,2.7-4.9,6.7C193.9,55,195.5,57.9,198.8,57.9z"/>
			<path class="st1" d="M213.5,43.8v0.4l0.1,0.1c1.2-1.6,2.5-2.2,4.6-2.2s3.8,1,5,3c1.5-2.2,3.2-3,5.5-3c3.6,0,6.3,2.6,6.3,6.7V59
				c0,0.8-0.5,1.5-1.5,1.5S232,59.8,232,59V48.6c0-2.4-1.4-4.1-3.9-4.1c-2.4,0-3.8,1.6-3.8,4.1v10.3c0,0.8-0.5,1.5-1.5,1.5
				s-1.5-0.7-1.5-1.5V48.6c0-2.4-1.4-4.1-3.9-4.1c-2.4,0-3.8,1.6-3.8,4.1v10.3c0,0.8-0.5,1.5-1.5,1.5s-1.5-0.7-1.5-1.5V43.5
				c0-0.8,0.5-1.5,1.5-1.5C212.8,42,213.5,42.4,213.5,43.8z"/>
			<path class="st1" d="M241.8,43.5v9.8c0,2.9,1.3,4.6,4.2,4.6s4.2-1.7,4.2-4.6v-9.8c0-0.8,0.5-1.5,1.5-1.5s1.5,0.7,1.5,1.5v9.9
				c0,4.4-2.7,7.1-7.2,7.1s-7.2-2.7-7.2-7.1v-9.9c0-0.8,0.5-1.5,1.5-1.5C241.1,42,241.8,42.7,241.8,43.5z"/>
			<path class="st1" d="M260,43.8v0.5l0.1,0.1c1.3-1.7,3.2-2.4,5-2.4c3.5,0,6.3,2.6,6.3,6.7v10.2c0,0.8-0.5,1.5-1.5,1.5
				s-1.5-0.7-1.5-1.5v-10c0-2.6-1.7-4.3-4.2-4.3c-2.4,0-4.2,1.8-4.2,4.3v10c0,0.8-0.5,1.5-1.5,1.5s-1.5-0.7-1.5-1.5V43.5
				c0-0.8,0.5-1.5,1.5-1.5C259.2,42,260,42.3,260,43.8z"/>
			<path class="st1" d="M290.1,35.6V59c0,0.8-0.5,1.5-1.5,1.5c-0.9,0-1.5-0.6-1.5-1.6V58H287c-0.9,1.7-2.5,2.5-4.8,2.5
				c-4.8,0-7.7-4.4-7.7-9.1c0-5.2,3-9.4,7.6-9.4c2,0,3.7,0.8,4.9,2.4h0.1v-8.9c0-0.8,0.5-1.5,1.5-1.5
				C289.5,34.1,290.1,34.7,290.1,35.6z M282.4,57.9c3.2,0,5-2.9,5-6.7c0-3.9-1.9-6.7-5-6.7c-3,0-4.9,2.7-4.9,6.7
				C277.5,55,279.2,57.9,282.4,57.9z"/>
			<path class="st1" d="M306.2,44.4L306.2,44.4l0.1-1c0-0.8,0.6-1.4,1.4-1.4s1.4,0.6,1.4,1.4v15.7c0,0.8-0.6,1.4-1.4,1.4
				s-1.4-0.5-1.4-1.5v-1.2h-0.1c-1.3,1.9-3,2.7-4.9,2.7c-5,0-7.9-4.4-7.9-9.1c0-5.5,3.3-9.4,7.9-9.4C303.4,42,304.9,42.9,306.2,44.4
				z M301.4,57.9c3.2,0,5-2.9,5-6.7c0-3.9-1.8-6.7-5-6.7c-3,0-4.9,2.7-4.9,6.7C296.4,55,298.1,57.9,301.4,57.9z"/>
		</g>
	</g>
	<g>
		<path class="st1" d="M273.6,69.8c0,0.7-0.5,1.3-1.3,1.3c-1,0-1.7-1-3.6-1c-3.2,0-5.2,2.9-5.2,6.7c0,3.6,1.8,6.7,5.2,6.7
			c1.1,0,1.8-0.2,2.8-0.8c0.3-0.2,0.5-0.2,0.8-0.2c0.7,0,1.2,0.4,1.2,1.3c0,1.3-1.9,2.3-4.7,2.3c-5,0-8.1-3.9-8.1-9.2
			c0-5.3,3.1-9.2,8.1-9.2C271.8,67.5,273.6,68.5,273.6,69.8z"/>
		<path class="st1" d="M291.6,76.7c0,5-2.9,9.3-7.9,9.3c-5.3,0-8-4.7-8-9c0-5.5,3.2-9.5,7.9-9.5C288.5,67.5,291.6,71.7,291.6,76.7z
			 M283.6,83.4c3.2,0,5-2.8,5-6.7c0-3.9-1.9-6.7-5-6.7c-3,0-4.9,2.7-4.9,6.7C278.8,80.6,280.5,83.4,283.6,83.4z"/>
		<path class="st1" d="M297.8,69.3v0.5l0.1,0.1c1.3-1.7,3.2-2.4,5-2.4c3.5,0,6.3,2.6,6.3,6.7v10.2c0,0.8-0.5,1.5-1.5,1.5
			s-1.5-0.7-1.5-1.5v-10c0-2.6-1.7-4.3-4.2-4.3c-2.4,0-4.2,1.8-4.2,4.3v10c0,0.8-0.5,1.5-1.5,1.5s-1.5-0.7-1.5-1.5V69
			c0-0.8,0.5-1.5,1.5-1.5C296.9,67.5,297.8,67.8,297.8,69.3z"/>
	</g>
	<g>
		<path class="st2" d="M347.9,45.6c1.1,0.1,1.8,1,1.8,2c0,1.4-1.1,2.4-2.6,2.4h-2c-0.3,0-0.5-0.2-0.5-0.5v-7.1
			c0-0.3,0.2-0.5,0.5-0.5h1.8c1.3,0,2.2,0.9,2.2,2C349,44.6,348.5,45.4,347.9,45.6L347.9,45.6z M346.6,45.3c0.7,0,1.3-0.5,1.3-1.3
			s-0.5-1.3-1.3-1.3h-1.2v2.6H346.6L346.6,45.3z M346.9,49.1c1,0,1.7-0.6,1.7-1.5s-0.7-1.5-1.6-1.5h-1.5v3H346.9z"/>
		<path class="st2" d="M351.9,50c-0.3,0-0.5-0.2-0.5-0.5v-7.1c0-0.3,0.2-0.5,0.5-0.5h3c0.3,0,0.5,0.1,0.5,0.5s-0.2,0.5-0.5,0.5h-2.4
			v2.7h2.2c0.2,0,0.5,0.1,0.5,0.5c0,0.3-0.2,0.5-0.5,0.5h-2.2V49h2.4c0.3,0,0.5,0.1,0.5,0.5s-0.2,0.5-0.5,0.5H351.9L351.9,50z"/>
		<path class="st2" d="M361.2,45.9c-0.4,0.3-0.8,0.5-1.9,0.5l2.6,2.8c0.2,0.2,0.2,0.3,0.2,0.5s-0.2,0.4-0.5,0.4s-0.5-0.3-0.8-0.7
			l-2.7-3v3.1c0,0.3-0.2,0.5-0.5,0.5s-0.5-0.2-0.5-0.5v-7.2c0-0.3,0.2-0.5,0.5-0.5h1.8c1.3,0,2.6,0.7,2.6,2.2
			C362,44.8,361.8,45.4,361.2,45.9z M359.5,45.6c1,0,1.5-0.4,1.5-1.5c0-0.8-0.7-1.4-1.5-1.4h-1.4v2.9H359.5z"/>
		<path class="st2" d="M364.8,42.3V49h2.2c0.2,0,0.5,0.1,0.5,0.5S367.2,50,367,50h-2.7c-0.3,0-0.5-0.2-0.5-0.5v-7.2
			c0-0.3,0.2-0.5,0.5-0.5S364.8,42,364.8,42.3z"/>
		<path class="st2" d="M369.9,42.3v7.3c0,0.3-0.2,0.5-0.5,0.5s-0.5-0.2-0.5-0.5v-7.3c0-0.3,0.2-0.5,0.5-0.5S369.9,42,369.9,42.3z"/>
		<path class="st2" d="M373,42.2l4.2,6l0,0v-5.9c0-0.3,0.2-0.5,0.5-0.5s0.5,0.2,0.5,0.5v7.2c0,0.3-0.1,0.6-0.5,0.6
			c-0.3,0-0.4-0.1-0.6-0.4l-4.2-6.1l0,0v6c0,0.3-0.2,0.5-0.5,0.5s-0.5-0.2-0.5-0.5v-7.2c0-0.3,0.1-0.6,0.5-0.6
			C372.6,41.7,372.9,41.9,373,42.2z"/>
	</g>
	<g>
		<path class="st2" d="M349.4,54.4c0,0.7-0.2,1.2-0.5,1.6l-2.8,3.7h3.1c0.2,0,0.4,0.2,0.4,0.4s-0.2,0.4-0.4,0.4h-4
			c-0.3,0-0.5-0.2-0.5-0.4s0.2-0.4,0.6-0.9l2.5-3.3c0.4-0.5,0.6-1,0.6-1.4c0-0.7-0.6-1.3-1.3-1.3c-0.9,0-1.5,0.8-1.5,1.8
			c0,0.3-0.2,0.5-0.4,0.5c-0.3,0-0.5-0.2-0.5-0.6c0-1.4,1-2.5,2.6-2.5C348.4,52.4,349.4,53.2,349.4,54.4z"/>
		<path class="st2" d="M356.5,56.5c0,2.7-1.2,4.2-2.7,4.2c-1.6,0-2.7-1.6-2.7-4.1s1.2-4.1,2.7-4.1C355.4,52.4,356.5,53.9,356.5,56.5
			z M353.9,59.8c1,0,1.6-1.2,1.6-3.3s-0.6-3.3-1.6-3.3s-1.6,1.1-1.6,3.3C352.1,58.6,352.9,59.8,353.9,59.8z"/>
		<path class="st2" d="M360.4,60.1c0,0.3-0.2,0.5-0.5,0.5s-0.5-0.2-0.5-0.5v-6.8h-1.1c-0.2,0-0.4-0.2-0.4-0.4c0-0.3,0.2-0.4,0.4-0.4
			h1.8c0.2,0,0.3,0.1,0.3,0.3L360.4,60.1L360.4,60.1z"/>
		<path class="st2" d="M367.4,54.2c0,0.8-0.3,1.3-1.1,1.8c0.9,0.2,1.5,1,1.5,2c0,1.4-1,2.6-2.5,2.6s-2.5-1.2-2.5-2.6
			c0-1,0.6-1.8,1.5-2c-0.8-0.5-1.1-1-1.1-1.8c0-1.1,0.9-1.9,2.1-1.9S367.4,53.1,367.4,54.2z M365.4,59.8c0.8,0,1.4-0.7,1.4-1.7
			c0-0.9-0.6-1.6-1.4-1.6s-1.4,0.7-1.4,1.6C363.9,59.1,364.5,59.8,365.4,59.8z M365.4,55.6c0.7,0,1.1-0.5,1.1-1.2s-0.4-1.2-1.1-1.2
			s-1.1,0.5-1.1,1.2C364.2,55.2,364.6,55.6,365.4,55.6z"/>
	</g>
	<path class="st2" d="M324,59.8V62h-0.9v2.9h1.1L323.6,86h6.1l-0.6-21.1h1.1V62h-0.9v-2.1c3.9-1.1,6.8-4.7,6.8-9
		c0-3.9-2.4-7.3-5.9-8.7v-5.9h0.2c0.4,0,0.7-0.3,0.7-0.7V35c0-0.4-0.3-0.7-0.7-0.7H323c-0.4,0-0.7,0.3-0.7,0.7v0.6
		c0,0.4,0.3,0.7,0.7,0.7h0.2v6c-3.3,1.4-5.7,4.7-5.7,8.6C317.4,55.1,320.2,58.6,324,59.8z"/>
	<line class="st3" x1="400.1" y1="25" x2="400.1" y2="80"/>
	<g>
		<g>
			<path class="st1" d="M981.2,72.9h-167c-1.7,0-3-1.3-3-3V35c0-1.7,1.3-3,3-3h167c1.7,0,3,1.3,3,3v34.9
				C984.2,71.6,982.9,72.9,981.2,72.9z"/>
		</g>
		<g>
			<path class="st4" d="M828.2,53.8v6.5h-2.7V44.1h4.6c2.1,0,3.6,0.4,4.6,1.2s1.5,2,1.5,3.5c0,2-1,3.5-3.1,4.3l4.6,7.2h-3l-3.9-6.5
				H828.2z M828.2,51.6h1.8c1.2,0,2.1-0.2,2.7-0.7c0.6-0.5,0.8-1.1,0.8-2s-0.3-1.6-0.9-2c-0.6-0.4-1.5-0.6-2.7-0.6h-1.8v5.3H828.2z"
				/>
			<path class="st4" d="M845.2,60.5c-1.9,0-3.4-0.6-4.5-1.7c-1.1-1.1-1.6-2.6-1.6-4.6s0.5-3.6,1.5-4.7c1-1.1,2.4-1.7,4.1-1.7
				c1.6,0,2.9,0.5,3.8,1.5s1.4,2.3,1.4,4.1v1.4h-8.2c0,1.2,0.4,2.1,1,2.7c0.6,0.6,1.5,1,2.6,1c0.7,0,1.4-0.1,2-0.2s1.3-0.4,2-0.7
				v2.1c-0.6,0.3-1.3,0.5-1.9,0.6S846.1,60.5,845.2,60.5z M844.8,49.8c-0.8,0-1.5,0.3-2,0.8s-0.8,1.3-0.9,2.3h5.6
				c0-1-0.3-1.8-0.7-2.3C846.2,50,845.6,49.8,844.8,49.8z"/>
			<path class="st4" d="M863.2,48v1.4l-2.1,0.4c0.2,0.3,0.4,0.6,0.5,1s0.2,0.8,0.2,1.2c0,1.3-0.4,2.3-1.3,3s-2.1,1.1-3.6,1.1
				c-0.4,0-0.7,0-1.1-0.1c-0.6,0.3-0.8,0.8-0.8,1.2c0,0.3,0.1,0.5,0.4,0.6c0.3,0.1,0.7,0.2,1.4,0.2h2.1c1.4,0,2.4,0.3,3.1,0.9
				c0.7,0.6,1.1,1.4,1.1,2.5c0,1.4-0.6,2.5-1.7,3.2c-1.1,0.8-2.8,1.1-5,1.1c-1.7,0-2.9-0.3-3.8-0.9c-0.9-0.6-1.3-1.4-1.3-2.5
				c0-0.8,0.2-1.4,0.7-1.9s1.1-0.9,2-1.1c-0.3-0.1-0.6-0.4-0.9-0.7s-0.3-0.7-0.3-1c0-0.5,0.1-0.8,0.4-1.2c0.3-0.3,0.6-0.6,1.2-0.9
				c-0.6-0.3-1.2-0.7-1.5-1.3s-0.6-1.3-0.6-2.2c0-1.3,0.4-2.4,1.3-3.1c0.8-0.7,2-1.1,3.6-1.1c0.3,0,0.7,0,1.1,0.1
				c0.4,0,0.7,0.1,0.9,0.1H863.2z M853.7,62.2c0,0.6,0.3,1,0.8,1.3s1.2,0.5,2.1,0.5c1.4,0,2.5-0.2,3.2-0.6c0.7-0.4,1-0.9,1-1.6
				c0-0.5-0.2-0.9-0.6-1.1s-1.1-0.3-2.1-0.3h-2c-0.7,0-1.3,0.2-1.8,0.5C853.9,61.1,853.7,61.6,853.7,62.2z M854.8,52
				c0,0.8,0.2,1.4,0.6,1.8c0.4,0.4,1,0.6,1.7,0.6c1.5,0,2.3-0.8,2.3-2.4c0-0.8-0.2-1.4-0.6-1.8c-0.4-0.4-0.9-0.6-1.7-0.6
				s-1.3,0.2-1.7,0.6C855,50.6,854.8,51.2,854.8,52z"/>
			<path class="st4" d="M865.5,44.8c0-0.5,0.1-0.8,0.4-1.1c0.3-0.3,0.6-0.4,1.1-0.4s0.8,0.1,1.1,0.4c0.3,0.3,0.4,0.6,0.4,1.1
				c0,0.4-0.1,0.8-0.4,1c-0.3,0.3-0.6,0.4-1.1,0.4s-0.8-0.1-1.1-0.4C865.6,45.6,865.5,45.2,865.5,44.8z M868.2,60.3h-2.6V48h2.6
				V60.3z"/>
			<path class="st4" d="M880.2,56.8c0,1.2-0.4,2.1-1.3,2.8s-2.1,1-3.7,1c-1.6,0-2.9-0.2-3.9-0.7v-2.2c1.4,0.7,2.8,1,4,1
				c1.6,0,2.4-0.5,2.4-1.5c0-0.3-0.1-0.6-0.3-0.8s-0.5-0.4-0.9-0.6s-1-0.5-1.7-0.8c-1.4-0.5-2.4-1.1-2.9-1.6s-0.7-1.3-0.7-2.1
				c0-1,0.4-1.9,1.3-2.4c0.8-0.6,2-0.9,3.5-0.9c1.4,0,2.8,0.3,4.1,0.9l-0.8,2c-1.3-0.5-2.4-0.8-3.3-0.8c-1.4,0-2.1,0.4-2.1,1.2
				c0,0.4,0.2,0.7,0.5,1c0.4,0.3,1.1,0.6,2.3,1.1c1,0.4,1.7,0.8,2.2,1.1s0.8,0.7,1,1.1C880.1,55.7,880.2,56.2,880.2,56.8z"/>
			<path class="st4" d="M887.6,58.4c0.6,0,1.3-0.1,1.9-0.3v2c-0.3,0.1-0.7,0.2-1.1,0.3c-0.5,0.1-0.9,0.1-1.4,0.1
				c-2.5,0-3.7-1.3-3.7-3.9V50h-1.7v-1.2l1.8-1l0.9-2.6h1.6V48h3.5v2h-3.5v6.6c0,0.6,0.2,1.1,0.5,1.4
				C886.6,58.3,887.1,58.4,887.6,58.4z"/>
			<path class="st4" d="M897.2,60.5c-1.9,0-3.4-0.6-4.5-1.7c-1.1-1.1-1.6-2.6-1.6-4.6s0.5-3.6,1.5-4.7c1-1.1,2.4-1.7,4.1-1.7
				c1.6,0,2.9,0.5,3.8,1.5s1.4,2.3,1.4,4.1v1.4h-8.2c0,1.2,0.4,2.1,1,2.7c0.6,0.6,1.5,1,2.6,1c0.7,0,1.4-0.1,2-0.2s1.3-0.4,2-0.7
				v2.1c-0.6,0.3-1.3,0.5-1.9,0.6S898.1,60.5,897.2,60.5z M896.8,49.8c-0.8,0-1.5,0.3-2,0.8s-0.8,1.3-0.9,2.3h5.6
				c0-1-0.3-1.8-0.7-2.3C898.2,50,897.6,49.8,896.8,49.8z"/>
			<path class="st4" d="M911.2,47.8c0.5,0,1,0,1.3,0.1l-0.3,2.4c-0.4-0.1-0.8-0.1-1.2-0.1c-1,0-1.9,0.3-2.5,1s-1,1.6-1,2.7v6.4h-2.6
				V48h2l0.3,2.2h0.1c0.4-0.7,0.9-1.3,1.6-1.7S910.5,47.8,911.2,47.8z"/>
			<path class="st4" d="M934.5,60.3h-3.3l-8-12.9l0,0l0.1,0.7c0.1,1.4,0.2,2.6,0.2,3.8v8.4H921V44.1h3.2l7.9,12.9h0.1
				c0-0.2,0-0.8-0.1-1.9c0-1.1-0.1-1.9-0.1-2.5v-8.5h2.4L934.5,60.3L934.5,60.3z"/>
			<path class="st4" d="M949.4,54.1c0,2-0.5,3.6-1.5,4.7c-1,1.1-2.5,1.7-4.3,1.7c-1.1,0-2.2-0.3-3-0.8c-0.9-0.5-1.6-1.3-2-2.2
				c-0.5-1-0.7-2.1-0.7-3.4c0-2,0.5-3.5,1.5-4.7c1-1.1,2.5-1.7,4.3-1.7s3.2,0.6,4.2,1.7C948.8,50.7,949.4,52.2,949.4,54.1z
				 M940.4,54.1c0,2.8,1,4.2,3.1,4.2s3.1-1.4,3.1-4.2s-1-4.2-3.1-4.2c-1.1,0-1.9,0.4-2.4,1.1C940.7,51.8,940.4,52.8,940.4,54.1z"/>
			<path class="st4" d="M962.4,60.3l-1.6-5.7c-0.2-0.6-0.5-2-1-4.2h-0.1c-0.4,2-0.8,3.4-1,4.2l-1.6,5.7h-2.9L950.7,48h2.7l1.6,6
				c0.4,1.5,0.6,2.8,0.8,3.8h0.1c0.1-0.5,0.2-1.2,0.3-1.9c0.2-0.7,0.3-1.2,0.4-1.6l1.9-6.5h2.9l1.8,6.5c0.1,0.4,0.2,0.9,0.4,1.7
				c0.2,0.7,0.3,1.3,0.3,1.7h0.1c0.1-0.9,0.4-2.2,0.8-3.8l1.6-6h2.6l-3.5,12.3L962.4,60.3L962.4,60.3z"/>
		</g>
	</g>
</g>
<g>
	<path class="st2" d="M427.8,51.6c-0.7,0-1.3-0.1-1.7-0.3v-2.1c0.6,0.1,1.1,0.2,1.5,0.2c1.4,0,2.1-0.9,2.1-2.6v-15h2.5v14.9
		c0,1.6-0.4,2.8-1.1,3.6C430.4,51.2,429.3,51.6,427.8,51.6z"/>
	<path class="st2" d="M446.4,41.4c0,1.9-0.5,3.4-1.5,4.5c-1,1.1-2.3,1.6-4.1,1.6c-1.1,0-2.1-0.2-2.9-0.7c-0.8-0.5-1.5-1.2-1.9-2.1
		c-0.5-0.9-0.7-2-0.7-3.2c0-1.9,0.5-3.4,1.5-4.4c1-1.1,2.3-1.6,4.1-1.6c1.7,0,3,0.5,4,1.6C445.9,38.1,446.4,39.6,446.4,41.4z
		 M437.9,41.4c0,2.7,1,4.1,3,4.1c2,0,3-1.4,3-4.1c0-2.7-1-4-3-4c-1,0-1.8,0.3-2.3,1C438.1,39.1,437.9,40.1,437.9,41.4z"/>
	<path class="st2" d="M449.1,32.5c0-0.4,0.1-0.8,0.4-1c0.2-0.2,0.6-0.4,1-0.4c0.4,0,0.8,0.1,1,0.4c0.2,0.2,0.4,0.6,0.4,1
		c0,0.4-0.1,0.8-0.4,1c-0.2,0.2-0.6,0.4-1,0.4c-0.5,0-0.8-0.1-1-0.4C449.2,33.2,449.1,32.9,449.1,32.5z M451.7,47.3h-2.5V35.6h2.5
		V47.3z"/>
	<path class="st2" d="M465.6,47.3h-2.5v-7.2c0-0.9-0.2-1.6-0.5-2c-0.4-0.4-0.9-0.7-1.7-0.7c-1.1,0-1.8,0.3-2.3,0.9
		c-0.5,0.6-0.7,1.7-0.7,3.1v5.8h-2.5V35.6h1.9l0.3,1.5h0.1c0.4-0.6,0.9-1,1.5-1.3c0.6-0.3,1.4-0.5,2.2-0.5c2.8,0,4.2,1.4,4.2,4.3
		V47.3z"/>
	<path class="st2" d="M482.9,47.3l-0.3-1.5h-0.1c-0.3,0.5-0.8,1-1.5,1.3s-1.4,0.5-2.2,0.5c-1.4,0-2.5-0.4-3.2-1.1
		c-0.7-0.7-1-1.8-1-3.2v-7.7h2.5v7.2c0,0.9,0.2,1.6,0.6,2s0.9,0.7,1.7,0.7c1,0,1.8-0.3,2.3-0.9c0.5-0.6,0.7-1.7,0.7-3.1v-5.8h2.5
		v11.7H482.9z"/>
	<path class="st2" d="M496.3,44c0,1.1-0.4,2-1.2,2.6c-0.8,0.6-2,0.9-3.6,0.9c-1.6,0-2.8-0.2-3.8-0.7v-2.1c1.4,0.6,2.7,1,3.8,1
		c1.5,0,2.3-0.5,2.3-1.4c0-0.3-0.1-0.5-0.3-0.7s-0.4-0.4-0.8-0.6s-0.9-0.5-1.6-0.7c-1.3-0.5-2.3-1-2.7-1.6c-0.5-0.5-0.7-1.2-0.7-2
		c0-1,0.4-1.8,1.2-2.3c0.8-0.6,1.9-0.8,3.3-0.8c1.4,0,2.7,0.3,3.9,0.8l-0.8,1.9c-1.3-0.5-2.3-0.8-3.2-0.8c-1.3,0-2,0.4-2,1.1
		c0,0.4,0.2,0.7,0.5,0.9c0.3,0.3,1.1,0.6,2.2,1c1,0.4,1.7,0.7,2.1,1s0.8,0.7,1,1.1C496.2,42.9,496.3,43.4,496.3,44z"/>
	<path class="st2" d="M512,47.3l-0.5-1.6h-0.1c-0.6,0.7-1.1,1.2-1.7,1.5c-0.6,0.3-1.3,0.4-2.2,0.4c-1.2,0-2-0.3-2.7-0.9
		c-0.6-0.6-1-1.5-1-2.6c0-1.2,0.4-2.1,1.3-2.7c0.9-0.6,2.3-0.9,4.1-1l2-0.1v-0.6c0-0.7-0.2-1.3-0.5-1.7s-0.9-0.6-1.6-0.6
		c-0.6,0-1.2,0.1-1.7,0.3c-0.6,0.2-1.1,0.4-1.6,0.6l-0.8-1.8c0.6-0.3,1.3-0.6,2.1-0.8c0.8-0.2,1.5-0.3,2.1-0.3c1.5,0,2.6,0.3,3.4,1
		s1.1,1.7,1.1,3.1v7.9H512z M508.3,45.6c0.9,0,1.6-0.3,2.2-0.8c0.5-0.5,0.8-1.2,0.8-2.1v-1l-1.5,0.1c-1.2,0-2,0.2-2.6,0.6
		c-0.5,0.3-0.8,0.9-0.8,1.6c0,0.5,0.2,0.9,0.5,1.2C507.2,45.5,507.6,45.6,508.3,45.6z"/>
	<path class="st2" d="M521.6,45.5c0.6,0,1.2-0.1,1.8-0.3v1.9c-0.3,0.1-0.6,0.2-1.1,0.3c-0.4,0.1-0.9,0.1-1.4,0.1
		c-2.4,0-3.5-1.2-3.5-3.7v-6.3h-1.6v-1.1l1.7-0.9l0.8-2.5h1.5v2.6h3.3v1.9h-3.3v6.3c0,0.6,0.1,1,0.4,1.3
		C520.7,45.4,521.1,45.5,521.6,45.5z"/>
	<path class="st2" d="M541.8,41.4c0,1.9-0.5,3.4-1.5,4.5c-1,1.1-2.3,1.6-4.1,1.6c-1.1,0-2.1-0.2-2.9-0.7c-0.8-0.5-1.5-1.2-1.9-2.1
		c-0.5-0.9-0.7-2-0.7-3.2c0-1.9,0.5-3.4,1.5-4.4c1-1.1,2.3-1.6,4.1-1.6c1.7,0,3,0.5,4,1.6C541.3,38.1,541.8,39.6,541.8,41.4z
		 M533.2,41.4c0,2.7,1,4.1,3,4.1c2,0,3-1.4,3-4.1c0-2.7-1-4-3-4c-1,0-1.8,0.3-2.3,1C533.5,39.1,533.2,40.1,533.2,41.4z"/>
	<path class="st2" d="M552.9,47.3l-0.3-1.5h-0.1c-0.3,0.5-0.8,1-1.5,1.3s-1.4,0.5-2.2,0.5c-1.4,0-2.5-0.4-3.2-1.1
		c-0.7-0.7-1-1.8-1-3.2v-7.7h2.5v7.2c0,0.9,0.2,1.6,0.6,2s0.9,0.7,1.7,0.7c1,0,1.8-0.3,2.3-0.9c0.5-0.6,0.7-1.7,0.7-3.1v-5.8h2.5
		v11.7H552.9z"/>
	<path class="st2" d="M564.3,35.4c0.5,0,0.9,0,1.2,0.1l-0.2,2.3c-0.4-0.1-0.7-0.1-1.1-0.1c-1,0-1.8,0.3-2.4,1s-0.9,1.5-0.9,2.5v6.1
		h-2.5V35.6h1.9l0.3,2.1h0.1c0.4-0.7,0.9-1.3,1.5-1.7C562.9,35.6,563.6,35.4,564.3,35.4z"/>
	<path class="st2" d="M580.7,47.3l-0.5-1.6h-0.1c-0.6,0.7-1.1,1.2-1.7,1.5c-0.6,0.3-1.3,0.4-2.2,0.4c-1.2,0-2-0.3-2.7-0.9
		c-0.6-0.6-1-1.5-1-2.6c0-1.2,0.4-2.1,1.3-2.7c0.9-0.6,2.3-0.9,4.1-1l2-0.1v-0.6c0-0.7-0.2-1.3-0.5-1.7s-0.9-0.6-1.6-0.6
		c-0.6,0-1.2,0.1-1.7,0.3c-0.5,0.2-1.1,0.4-1.6,0.6l-0.8-1.8c0.6-0.3,1.3-0.6,2.1-0.8c0.8-0.2,1.5-0.3,2.1-0.3c1.5,0,2.6,0.3,3.4,1
		s1.1,1.7,1.1,3.1v7.9H580.7z M577,45.6c0.9,0,1.6-0.3,2.2-0.8c0.5-0.5,0.8-1.2,0.8-2.1v-1l-1.5,0.1c-1.2,0-2,0.2-2.6,0.6
		c-0.5,0.3-0.8,0.9-0.8,1.6c0,0.5,0.2,0.9,0.5,1.2C575.9,45.5,576.4,45.6,577,45.6z"/>
	<path class="st2" d="M596.2,47.3h-2.5v-7.2c0-0.9-0.2-1.6-0.5-2c-0.4-0.4-0.9-0.7-1.7-0.7c-1.1,0-1.8,0.3-2.3,0.9
		c-0.5,0.6-0.7,1.7-0.7,3.1v5.8h-2.5V35.6h1.9l0.3,1.5h0.1c0.4-0.6,0.9-1,1.5-1.3c0.6-0.3,1.4-0.5,2.2-0.5c2.8,0,4.2,1.4,4.2,4.3
		V47.3z"/>
	<path class="st2" d="M610,47.3h-2.5v-7.2c0-0.9-0.2-1.6-0.5-2c-0.4-0.4-0.9-0.7-1.7-0.7c-1.1,0-1.8,0.3-2.3,0.9
		c-0.5,0.6-0.7,1.7-0.7,3.1v5.8h-2.5V35.6h1.9l0.3,1.5h0.1c0.4-0.6,0.9-1,1.5-1.3c0.6-0.3,1.4-0.5,2.2-0.5c2.8,0,4.2,1.4,4.2,4.3
		V47.3z"/>
	<path class="st2" d="M621.7,47.3l-0.3-1.5h-0.1c-0.3,0.5-0.8,1-1.5,1.3s-1.4,0.5-2.2,0.5c-1.4,0-2.5-0.4-3.2-1.1
		c-0.7-0.7-1-1.8-1-3.2v-7.7h2.5v7.2c0,0.9,0.2,1.6,0.6,2c0.4,0.4,0.9,0.7,1.7,0.7c1,0,1.8-0.3,2.3-0.9c0.5-0.6,0.7-1.7,0.7-3.1
		v-5.8h2.5v11.7H621.7z"/>
	<path class="st2" d="M634.6,47.3l-0.5-1.6H634c-0.6,0.7-1.1,1.2-1.7,1.5c-0.6,0.3-1.3,0.4-2.2,0.4c-1.2,0-2-0.3-2.7-0.9
		c-0.6-0.6-1-1.5-1-2.6c0-1.2,0.4-2.1,1.3-2.7c0.9-0.6,2.3-0.9,4.1-1l2-0.1v-0.6c0-0.7-0.2-1.3-0.5-1.7s-0.9-0.6-1.6-0.6
		c-0.6,0-1.2,0.1-1.7,0.3c-0.5,0.2-1.1,0.4-1.6,0.6l-0.8-1.8c0.6-0.3,1.3-0.6,2.1-0.8c0.8-0.2,1.5-0.3,2.1-0.3c1.5,0,2.6,0.3,3.4,1
		s1.1,1.7,1.1,3.1v7.9H634.6z M630.9,45.6c0.9,0,1.6-0.3,2.2-0.8c0.5-0.5,0.8-1.2,0.8-2.1v-1l-1.5,0.1c-1.2,0-2,0.2-2.6,0.6
		c-0.5,0.3-0.8,0.9-0.8,1.6c0,0.5,0.2,0.9,0.5,1.2C629.8,45.5,630.2,45.6,630.9,45.6z"/>
	<path class="st2" d="M642.3,47.3h-2.5V30.8h2.5V47.3z"/>
	<path class="st2" d="M656.2,47.5c-1.8,0-3.1-0.5-4-1.6s-1.4-2.5-1.4-4.5c0-2,0.5-3.5,1.4-4.5c1-1.1,2.4-1.6,4.2-1.6
		c1.2,0,2.3,0.2,3.3,0.7l-0.8,2c-1.1-0.4-1.9-0.6-2.6-0.6c-2,0-3,1.3-3,4c0,1.3,0.3,2.3,0.8,3s1.2,1,2.2,1c1.1,0,2.2-0.3,3.1-0.8
		v2.2c-0.4,0.3-0.9,0.4-1.4,0.6S656.9,47.5,656.2,47.5z"/>
	<path class="st2" d="M672.6,41.4c0,1.9-0.5,3.4-1.5,4.5c-1,1.1-2.3,1.6-4.1,1.6c-1.1,0-2.1-0.2-2.9-0.7s-1.5-1.2-1.9-2.1
		c-0.5-0.9-0.7-2-0.7-3.2c0-1.9,0.5-3.4,1.5-4.4c1-1.1,2.3-1.6,4.1-1.6c1.7,0,3,0.5,4,1.6C672.1,38.1,672.6,39.6,672.6,41.4z
		 M664.1,41.4c0,2.7,1,4.1,3,4.1c2,0,3-1.4,3-4.1c0-2.7-1-4-3-4c-1,0-1.8,0.3-2.3,1C664.3,39.1,664.1,40.1,664.1,41.4z"/>
	<path class="st2" d="M685.8,47.3h-2.5v-7.2c0-0.9-0.2-1.6-0.5-2c-0.4-0.4-0.9-0.7-1.7-0.7c-1.1,0-1.8,0.3-2.3,0.9
		c-0.5,0.6-0.7,1.7-0.7,3.1v5.8h-2.5V35.6h1.9l0.3,1.5h0.1c0.4-0.6,0.9-1,1.5-1.3c0.6-0.3,1.4-0.5,2.2-0.5c2.8,0,4.2,1.4,4.2,4.3
		V47.3z"/>
	<path class="st2" d="M695.1,37.5h-2.9v9.8h-2.5v-9.8h-1.9v-1.2l1.9-0.8v-0.8c0-1.4,0.3-2.4,1-3.1s1.6-1,3-1c0.9,0,1.7,0.1,2.6,0.4
		l-0.7,1.9c-0.6-0.2-1.2-0.3-1.8-0.3c-0.6,0-1,0.2-1.2,0.5c-0.3,0.3-0.4,0.9-0.4,1.6v0.8h2.9V37.5z"/>
	<path class="st2" d="M702.2,47.5c-1.8,0-3.2-0.5-4.3-1.6c-1-1.1-1.5-2.5-1.5-4.4c0-1.9,0.5-3.4,1.4-4.5c1-1.1,2.3-1.6,3.9-1.6
		c1.5,0,2.8,0.5,3.7,1.4c0.9,0.9,1.3,2.2,1.3,3.9V42H699c0,1.1,0.3,2,0.9,2.6c0.6,0.6,1.4,0.9,2.4,0.9c0.7,0,1.3-0.1,1.9-0.2
		c0.6-0.1,1.2-0.3,1.9-0.7v2c-0.6,0.3-1.2,0.5-1.8,0.6S703,47.5,702.2,47.5z M701.8,37.3c-0.8,0-1.4,0.3-1.9,0.8
		c-0.5,0.5-0.8,1.2-0.9,2.2h5.3c0-1-0.2-1.7-0.7-2.2C703.2,37.5,702.6,37.3,701.8,37.3z"/>
	<path class="st2" d="M715.5,35.4c0.5,0,0.9,0,1.2,0.1l-0.2,2.3c-0.4-0.1-0.7-0.1-1.1-0.1c-1,0-1.8,0.3-2.4,1
		c-0.6,0.6-0.9,1.5-0.9,2.5v6.1h-2.5V35.6h1.9l0.3,2.1h0.1c0.4-0.7,0.9-1.3,1.5-1.7C714.2,35.6,714.8,35.4,715.5,35.4z"/>
	<path class="st2" d="M724.1,47.5c-1.8,0-3.2-0.5-4.3-1.6c-1-1.1-1.5-2.5-1.5-4.4c0-1.9,0.5-3.4,1.4-4.5c1-1.1,2.3-1.6,3.9-1.6
		c1.5,0,2.8,0.5,3.7,1.4c0.9,0.9,1.3,2.2,1.3,3.9V42h-7.8c0,1.1,0.3,2,0.9,2.6c0.6,0.6,1.4,0.9,2.4,0.9c0.7,0,1.3-0.1,1.9-0.2
		c0.6-0.1,1.2-0.3,1.9-0.7v2c-0.6,0.3-1.2,0.5-1.8,0.6S724.9,47.5,724.1,47.5z M723.6,37.3c-0.8,0-1.4,0.3-1.9,0.8
		c-0.5,0.5-0.8,1.2-0.9,2.2h5.3c0-1-0.2-1.7-0.7-2.2C725,37.5,724.4,37.3,723.6,37.3z"/>
	<path class="st2" d="M741.8,47.3h-2.5v-7.2c0-0.9-0.2-1.6-0.5-2c-0.4-0.4-0.9-0.7-1.7-0.7c-1.1,0-1.8,0.3-2.3,0.9
		c-0.5,0.6-0.7,1.7-0.7,3.1v5.8h-2.5V35.6h1.9l0.3,1.5h0.1c0.4-0.6,0.9-1,1.5-1.3c0.6-0.3,1.4-0.5,2.2-0.5c2.8,0,4.2,1.4,4.2,4.3
		V47.3z"/>
	<path class="st2" d="M749.9,47.5c-1.8,0-3.1-0.5-4-1.6s-1.4-2.5-1.4-4.5c0-2,0.5-3.5,1.4-4.5c1-1.1,2.4-1.6,4.2-1.6
		c1.2,0,2.3,0.2,3.3,0.7l-0.8,2c-1.1-0.4-1.9-0.6-2.6-0.6c-2,0-3,1.3-3,4c0,1.3,0.3,2.3,0.8,3s1.2,1,2.2,1c1.1,0,2.2-0.3,3.1-0.8
		v2.2c-0.4,0.3-0.9,0.4-1.4,0.6S750.7,47.5,749.9,47.5z"/>
	<path class="st2" d="M761.1,47.5c-1.8,0-3.2-0.5-4.3-1.6c-1-1.1-1.5-2.5-1.5-4.4c0-1.9,0.5-3.4,1.4-4.5c1-1.1,2.3-1.6,3.9-1.6
		c1.5,0,2.8,0.5,3.7,1.4c0.9,0.9,1.3,2.2,1.3,3.9V42h-7.8c0,1.1,0.3,2,0.9,2.6c0.6,0.6,1.4,0.9,2.4,0.9c0.7,0,1.3-0.1,1.9-0.2
		c0.6-0.1,1.2-0.3,1.9-0.7v2c-0.6,0.3-1.2,0.5-1.8,0.6S761.9,47.5,761.1,47.5z M760.6,37.3c-0.8,0-1.4,0.3-1.9,0.8
		c-0.5,0.5-0.8,1.2-0.9,2.2h5.3c0-1-0.2-1.7-0.7-2.2C762,37.5,761.4,37.3,760.6,37.3z"/>
	<path class="st2" d="M429.4,58.5c0-0.4,0.1-0.8,0.4-1c0.2-0.2,0.6-0.4,1-0.4c0.4,0,0.8,0.1,1,0.4s0.4,0.6,0.4,1
		c0,0.4-0.1,0.8-0.4,1c-0.2,0.2-0.6,0.4-1,0.4c-0.5,0-0.8-0.1-1-0.4C429.5,59.3,429.4,58.9,429.4,58.5z M432,73.3h-2.5V61.6h2.5
		V73.3z"/>
	<path class="st2" d="M445.9,73.3h-2.5v-7.2c0-0.9-0.2-1.6-0.5-2c-0.4-0.4-0.9-0.7-1.7-0.7c-1.1,0-1.8,0.3-2.3,0.9
		c-0.5,0.6-0.7,1.7-0.7,3.1v5.8h-2.5V61.6h1.9l0.3,1.5h0.1c0.4-0.6,0.9-1,1.5-1.3s1.4-0.5,2.2-0.5c2.8,0,4.2,1.4,4.2,4.3V73.3z"/>
	<path class="st2" d="M455.2,57.8h4.6c2.1,0,3.7,0.3,4.6,0.9c0.9,0.6,1.4,1.6,1.4,2.9c0,0.9-0.2,1.7-0.7,2.3c-0.5,0.6-1.1,1-2,1.1
		v0.1c1.1,0.2,1.9,0.6,2.4,1.2c0.5,0.6,0.8,1.4,0.8,2.5c0,1.4-0.5,2.5-1.5,3.3s-2.3,1.2-4,1.2h-5.6V57.8z M457.8,64.2h2.4
		c1.1,0,1.8-0.2,2.3-0.5c0.5-0.3,0.7-0.9,0.7-1.7c0-0.7-0.3-1.3-0.8-1.6c-0.5-0.3-1.4-0.5-2.5-0.5h-2.2V64.2z M457.8,66.3v4.9h2.7
		c1.1,0,1.9-0.2,2.4-0.6c0.5-0.4,0.8-1,0.8-1.9c0-0.8-0.3-1.4-0.8-1.8c-0.6-0.4-1.4-0.6-2.5-0.6H457.8z"/>
	<path class="st2" d="M474.4,73.5c-1.8,0-3.2-0.5-4.3-1.6s-1.5-2.5-1.5-4.4c0-1.9,0.5-3.4,1.4-4.5c1-1.1,2.3-1.6,3.9-1.6
		c1.5,0,2.8,0.5,3.7,1.4c0.9,0.9,1.3,2.2,1.3,3.9V68h-7.8c0,1.1,0.3,2,0.9,2.6c0.6,0.6,1.4,0.9,2.4,0.9c0.7,0,1.3-0.1,1.9-0.2
		c0.6-0.1,1.2-0.3,1.9-0.7v2c-0.6,0.3-1.2,0.5-1.8,0.6C475.9,73.5,475.2,73.5,474.4,73.5z M473.9,63.3c-0.8,0-1.4,0.3-1.9,0.8
		c-0.5,0.5-0.8,1.2-0.9,2.2h5.3c0-1-0.2-1.7-0.7-2.2C475.3,63.5,474.7,63.3,473.9,63.3z"/>
	<path class="st2" d="M487.7,61.4c0.5,0,0.9,0,1.2,0.1l-0.2,2.3c-0.4-0.1-0.7-0.1-1.1-0.1c-1,0-1.8,0.3-2.4,1s-0.9,1.5-0.9,2.5v6.1
		h-2.5V61.6h1.9l0.3,2.1h0.1c0.4-0.7,0.9-1.3,1.5-1.7C486.3,61.6,487,61.4,487.7,61.4z"/>
	<path class="st2" d="M493.6,73.3h-2.5V56.8h2.5V73.3z"/>
	<path class="st2" d="M497,58.5c0-0.4,0.1-0.8,0.4-1c0.2-0.2,0.6-0.4,1-0.4c0.4,0,0.8,0.1,1,0.4s0.4,0.6,0.4,1c0,0.4-0.1,0.8-0.4,1
		c-0.2,0.2-0.6,0.4-1,0.4c-0.5,0-0.8-0.1-1-0.4C497.1,59.3,497,58.9,497,58.5z M499.7,73.3h-2.5V61.6h2.5V73.3z"/>
	<path class="st2" d="M513.5,73.3H511v-7.2c0-0.9-0.2-1.6-0.5-2c-0.4-0.4-0.9-0.7-1.7-0.7c-1.1,0-1.8,0.3-2.3,0.9
		c-0.5,0.6-0.7,1.7-0.7,3.1v5.8h-2.5V61.6h1.9l0.3,1.5h0.1c0.4-0.6,0.9-1,1.5-1.3s1.4-0.5,2.2-0.5c2.8,0,4.2,1.4,4.2,4.3V73.3z"/>
	<path class="st2" d="M533,67.4c0,1.9-0.5,3.4-1.5,4.5c-1,1.1-2.3,1.6-4.1,1.6c-1.1,0-2.1-0.2-2.9-0.7c-0.8-0.5-1.5-1.2-1.9-2.1
		c-0.5-0.9-0.7-2-0.7-3.2c0-1.9,0.5-3.4,1.5-4.4c1-1.1,2.3-1.6,4.1-1.6c1.7,0,3,0.5,4,1.6C532.5,64.1,533,65.6,533,67.4z
		 M524.5,67.4c0,2.7,1,4.1,3,4.1c2,0,3-1.4,3-4.1c0-2.7-1-4-3-4c-1,0-1.8,0.3-2.3,1C524.7,65.2,524.5,66.2,524.5,67.4z"/>
	<path class="st2" d="M546.2,73.3h-2.5v-7.2c0-0.9-0.2-1.6-0.5-2c-0.4-0.4-0.9-0.7-1.7-0.7c-1.1,0-1.8,0.3-2.3,0.9
		c-0.5,0.6-0.7,1.7-0.7,3.1v5.8h-2.5V61.6h1.9l0.3,1.5h0.1c0.4-0.6,0.9-1,1.5-1.3s1.4-0.5,2.2-0.5c2.8,0,4.2,1.4,4.2,4.3V73.3z"/>
	<path class="st2" d="M564.4,69.1c0,1.4-0.5,2.5-1.5,3.2c-1,0.8-2.4,1.2-4.1,1.2c-1.8,0-3.2-0.3-4.3-0.8v-2.4
		c0.7,0.3,1.5,0.6,2.2,0.8c0.8,0.2,1.5,0.3,2.2,0.3c1,0,1.7-0.2,2.2-0.6c0.5-0.4,0.7-0.9,0.7-1.5c0-0.6-0.2-1.1-0.7-1.5
		c-0.4-0.4-1.3-0.9-2.7-1.4c-1.4-0.6-2.4-1.2-3-2c-0.6-0.7-0.9-1.6-0.9-2.6c0-1.3,0.5-2.3,1.4-3s2.1-1.1,3.7-1.1c1.5,0,3,0.3,4.4,1
		l-0.8,2.1c-1.4-0.6-2.6-0.9-3.7-0.9c-0.8,0-1.4,0.2-1.9,0.5c-0.4,0.4-0.6,0.8-0.6,1.4c0,0.4,0.1,0.7,0.3,1c0.2,0.3,0.4,0.6,0.8,0.8
		s1.1,0.6,2.1,1c1.1,0.5,2,0.9,2.5,1.3c0.5,0.4,0.9,0.9,1.2,1.4C564.3,67.8,564.4,68.4,564.4,69.1z"/>
	<path class="st2" d="M572.3,73.5c-1.8,0-3.2-0.5-4.3-1.6c-1-1.1-1.5-2.5-1.5-4.4c0-1.9,0.5-3.4,1.4-4.5c1-1.1,2.3-1.6,3.9-1.6
		c1.5,0,2.8,0.5,3.7,1.4c0.9,0.9,1.3,2.2,1.3,3.9V68H569c0,1.1,0.3,2,0.9,2.6c0.6,0.6,1.4,0.9,2.4,0.9c0.7,0,1.3-0.1,1.9-0.2
		c0.6-0.1,1.2-0.3,1.9-0.7v2c-0.6,0.3-1.2,0.5-1.8,0.6C573.8,73.5,573.1,73.5,572.3,73.5z M571.8,63.3c-0.8,0-1.4,0.3-1.9,0.8
		c-0.5,0.5-0.8,1.2-0.9,2.2h5.3c0-1-0.2-1.7-0.7-2.2C573.2,63.5,572.6,63.3,571.8,63.3z"/>
	<path class="st2" d="M585.6,73.5c-1.5,0-2.6-0.5-3.5-1.6H582c0.1,1,0.1,1.6,0.1,1.8v4.8h-2.5V61.6h2c0.1,0.2,0.2,0.7,0.3,1.6h0.1
		c0.8-1.2,1.9-1.8,3.5-1.8c1.5,0,2.6,0.5,3.4,1.6s1.2,2.5,1.2,4.5c0,1.9-0.4,3.4-1.2,4.5C588.2,73,587.1,73.5,585.6,73.5z M585,63.4
		c-1,0-1.7,0.3-2.2,0.9c-0.5,0.6-0.7,1.5-0.7,2.8v0.4c0,1.4,0.2,2.5,0.7,3.1c0.5,0.6,1.2,1,2.2,1c0.9,0,1.5-0.4,2-1.1s0.7-1.7,0.7-3
		c0-1.3-0.2-2.3-0.7-3C586.6,63.8,585.9,63.4,585,63.4z"/>
	<path class="st2" d="M597.5,71.5c0.6,0,1.2-0.1,1.8-0.3v1.9c-0.3,0.1-0.6,0.2-1.1,0.3c-0.4,0.1-0.9,0.1-1.4,0.1
		c-2.4,0-3.5-1.2-3.5-3.7v-6.3h-1.6v-1.1l1.7-0.9l0.8-2.5h1.5v2.6h3.3v1.9h-3.3v6.3c0,0.6,0.1,1,0.5,1.3
		C596.7,71.4,597.1,71.5,597.5,71.5z"/>
	<path class="st2" d="M606.8,73.5c-1.8,0-3.2-0.5-4.3-1.6c-1-1.1-1.5-2.5-1.5-4.4c0-1.9,0.5-3.4,1.4-4.5c1-1.1,2.3-1.6,3.9-1.6
		c1.5,0,2.8,0.5,3.7,1.4c0.9,0.9,1.3,2.2,1.3,3.9V68h-7.8c0,1.1,0.3,2,0.9,2.6c0.6,0.6,1.4,0.9,2.4,0.9c0.7,0,1.3-0.1,1.9-0.2
		c0.6-0.1,1.2-0.3,1.9-0.7v2c-0.6,0.3-1.2,0.5-1.8,0.6C608.3,73.5,607.6,73.5,606.8,73.5z M606.4,63.3c-0.8,0-1.4,0.3-1.9,0.8
		c-0.5,0.5-0.8,1.2-0.9,2.2h5.3c0-1-0.2-1.7-0.7-2.2C607.8,63.5,607.2,63.3,606.4,63.3z"/>
	<path class="st2" d="M624.1,73.3h-2.5v-7.2c0-0.9-0.2-1.6-0.5-2s-0.9-0.7-1.6-0.7c-1,0-1.7,0.3-2.1,0.9c-0.4,0.6-0.7,1.7-0.7,3.1
		v5.8h-2.5V61.6h1.9l0.3,1.5h0.1c0.3-0.6,0.8-1,1.4-1.3c0.6-0.3,1.3-0.5,2-0.5c1.8,0,3,0.6,3.6,1.8h0.2c0.3-0.6,0.8-1,1.5-1.4
		c0.6-0.3,1.3-0.5,2.2-0.5c1.4,0,2.4,0.4,3.1,1.1s1,1.8,1,3.2v7.6H629v-7.2c0-0.9-0.2-1.6-0.5-2c-0.3-0.4-0.9-0.7-1.6-0.7
		c-1,0-1.7,0.3-2.1,0.9s-0.7,1.5-0.7,2.8V73.3z"/>
	<path class="st2" d="M640.9,61.4c1.5,0,2.6,0.5,3.4,1.6s1.2,2.5,1.2,4.5c0,1.9-0.4,3.4-1.2,4.5s-2,1.6-3.4,1.6
		c-1.5,0-2.6-0.5-3.5-1.6h-0.2l-0.5,1.4h-1.9V56.8h2.5v3.9c0,0.3,0,0.7,0,1.3c0,0.6,0,0.9-0.1,1.1h0.1
		C638.2,62,639.4,61.4,640.9,61.4z M640.3,63.4c-1,0-1.7,0.3-2.2,0.9c-0.4,0.6-0.7,1.6-0.7,3v0.2c0,1.4,0.2,2.5,0.7,3.1
		c0.5,0.6,1.2,1,2.2,1c0.9,0,1.6-0.3,2-1c0.5-0.7,0.7-1.7,0.7-3C643,64.8,642.1,63.4,640.3,63.4z"/>
	<path class="st2" d="M653.6,73.5c-1.8,0-3.2-0.5-4.3-1.6c-1-1.1-1.5-2.5-1.5-4.4c0-1.9,0.5-3.4,1.4-4.5c1-1.1,2.3-1.6,3.9-1.6
		c1.5,0,2.8,0.5,3.7,1.4c0.9,0.9,1.3,2.2,1.3,3.9V68h-7.8c0,1.1,0.3,2,0.9,2.6c0.6,0.6,1.4,0.9,2.4,0.9c0.7,0,1.3-0.1,1.9-0.2
		c0.6-0.1,1.2-0.3,1.9-0.7v2c-0.6,0.3-1.2,0.5-1.8,0.6C655.1,73.5,654.3,73.5,653.6,73.5z M653.1,63.3c-0.8,0-1.4,0.3-1.9,0.8
		c-0.5,0.5-0.8,1.2-0.9,2.2h5.3c0-1-0.2-1.7-0.7-2.2C654.5,63.5,653.9,63.3,653.1,63.3z"/>
	<path class="st2" d="M666.9,61.4c0.5,0,0.9,0,1.2,0.1l-0.2,2.3c-0.4-0.1-0.7-0.1-1.1-0.1c-1,0-1.8,0.3-2.4,1
		c-0.6,0.6-0.9,1.5-0.9,2.5v6.1h-2.5V61.6h1.9l0.3,2.1h0.1c0.4-0.7,0.9-1.3,1.5-1.7C665.5,61.6,666.2,61.4,666.9,61.4z"/>
	<path class="st2" d="M685.6,73.3h-10.5v-1.9l4-4c1.2-1.2,2-2.1,2.3-2.6c0.4-0.5,0.7-1,0.8-1.4c0.2-0.4,0.3-0.9,0.3-1.4
		c0-0.7-0.2-1.2-0.6-1.7s-1-0.6-1.7-0.6c-0.6,0-1.2,0.1-1.7,0.3c-0.6,0.2-1.2,0.6-1.9,1.2l-1.3-1.6c0.9-0.7,1.7-1.2,2.5-1.5
		s1.7-0.5,2.6-0.5c1.4,0,2.6,0.4,3.5,1.1c0.9,0.8,1.3,1.8,1.3,3c0,0.7-0.1,1.4-0.4,2c-0.3,0.6-0.6,1.3-1.2,1.9s-1.4,1.6-2.6,2.7
		l-2.7,2.6v0.1h7.3V73.3z"/>
	<path class="st2" d="M698,65.6c0,2.7-0.4,4.7-1.3,6c-0.9,1.3-2.2,2-4,2c-1.7,0-3-0.7-3.9-2c-0.9-1.3-1.3-3.3-1.3-5.9
		c0-2.7,0.4-4.7,1.3-6c0.9-1.3,2.2-1.9,4-1.9c1.7,0,3,0.7,3.9,2C697.5,61,698,63,698,65.6z M690,65.6c0,2.1,0.2,3.6,0.7,4.5
		c0.4,0.9,1.1,1.4,2.1,1.4s1.6-0.5,2.1-1.4c0.4-0.9,0.7-2.4,0.7-4.5c0-2.1-0.2-3.6-0.7-4.5c-0.4-0.9-1.1-1.4-2.1-1.4
		s-1.6,0.5-2.1,1.4C690.2,62,690,63.5,690,65.6z"/>
	<path class="st2" d="M699.7,68.6v-2.1h5.4v2.1H699.7z"/>
	<path class="st2" d="M717.3,73.3h-10.5v-1.9l4-4c1.2-1.2,2-2.1,2.3-2.6c0.4-0.5,0.7-1,0.8-1.4c0.2-0.4,0.3-0.9,0.3-1.4
		c0-0.7-0.2-1.2-0.6-1.7s-1-0.6-1.7-0.6c-0.6,0-1.2,0.1-1.7,0.3c-0.6,0.2-1.2,0.6-1.9,1.2l-1.3-1.6c0.9-0.7,1.7-1.2,2.5-1.5
		s1.7-0.5,2.6-0.5c1.4,0,2.6,0.4,3.5,1.1c0.9,0.8,1.3,1.8,1.3,3c0,0.7-0.1,1.4-0.4,2c-0.3,0.6-0.6,1.3-1.2,1.9s-1.4,1.6-2.6,2.7
		L710,71v0.1h7.3V73.3z"/>
	<path class="st2" d="M726.5,73.3H724v-10c0-1.2,0-2.1,0.1-2.8c-0.2,0.2-0.4,0.4-0.6,0.6c-0.2,0.2-1,0.9-2.4,1.9l-1.2-1.6l4.6-3.6
		h2.1V73.3z"/>
</g>
</svg>
