<?xml version="1.0" encoding="utf-8"?>
<!-- Generator: Adobe Illustrator 22.1.0, SVG Export Plug-In . SVG Version: 6.00 Build 0)  -->
<svg version="1.1" id="Ebene_1" xmlns="http://www.w3.org/2000/svg" xmlns:xlink="http://www.w3.org/1999/xlink" x="0px" y="0px"
	 viewBox="0 0 1140 100" style="enable-background:new 0 0 1140 100;" xml:space="preserve">
<style type="text/css">
	.st0{fill:#ECECEC;}
	.st1{fill:#F31951;}
	.st2{fill:#007BA5;}
	.st3{fill:none;stroke:#007BA5;stroke-width:2;stroke-linecap:round;stroke-miterlimit:10;}
	.st4{fill:#FFFFFF;}
</style>
<rect class="st0" width="1140" height="100"/>
<g>
	<path class="st1" d="M256,27.2h-1.7c-0.4,0-0.7,0.3-0.7,0.7v4.5c0,0.4,0.3,0.7,0.7,0.7h1.7c0.4,0,0.7-0.3,0.7-0.7v-4.5
		C256.8,27.5,256.5,27.2,256,27.2z"/>
	<path class="st2" d="M255.4,20.2h-0.4c-0.4,0-0.7,0.3-0.7,0.7v4.5c0,0.4,0.3,0.7,0.7,0.7h0.4c0.4,0,0.7-0.3,0.7-0.7v-4.5
		C256,20.5,255.7,20.2,255.4,20.2z"/>
	<path class="st1" d="M255.4,13.1h-0.4c-0.4,0-0.7,0.3-0.7,0.7v4.5c0,0.4,0.3,0.7,0.7,0.7h0.4c0.4,0,0.7-0.3,0.7-0.7v-4.5
		C256,13.5,255.7,13.1,255.4,13.1z"/>
	<path class="st2" d="M255.2,6.1L255.2,6.1c-0.5,0-0.9,0.4-0.9,0.9v4.3c0,0.4,0.3,0.7,0.7,0.7h0.4c0.4,0,0.7-0.3,0.7-0.7V7
		C256,6.5,255.7,6.1,255.2,6.1z"/>
	<g>
		<g>
			<path class="st1" d="M117.2,44.3c0,0.7-0.5,1.3-1.3,1.3c-1,0-1.7-1-3.6-1c-3.2,0-5.2,2.9-5.2,6.7c0,3.6,1.8,6.7,5.2,6.7
				c1.1,0,1.8-0.2,2.8-0.8c0.3-0.2,0.5-0.2,0.8-0.2c0.7,0,1.2,0.4,1.2,1.3c0,1.3-1.9,2.3-4.7,2.3c-5,0-8.1-3.9-8.1-9.2
				s3.1-9.2,8.1-9.2C115.3,42,117.2,43,117.2,44.3z"/>
			<path class="st1" d="M132.1,44.4L132.1,44.4l0.1-1c0-0.8,0.6-1.4,1.4-1.4c0.8,0,1.4,0.6,1.4,1.4v15.7c0,0.8-0.6,1.4-1.4,1.4
				s-1.4-0.5-1.4-1.5v-1.2h-0.1c-1.3,1.9-3,2.7-4.9,2.7c-5,0-7.9-4.4-7.9-9.1c0-5.5,3.3-9.4,7.9-9.4C129.3,42,130.8,42.9,132.1,44.4
				z M127.2,57.9c3.2,0,5-2.9,5-6.7c0-3.9-1.8-6.7-5-6.7c-3,0-4.9,2.7-4.9,6.7C122.3,55,124.1,57.9,127.2,57.9z"/>
			<path class="st1" d="M141.9,43.8v0.4l0.1,0.1c1.2-1.6,2.5-2.2,4.6-2.2s3.8,1,5,3c1.5-2.2,3.2-3,5.5-3c3.6,0,6.3,2.6,6.3,6.7V59
				c0,0.8-0.5,1.5-1.5,1.5s-1.5-0.7-1.5-1.5V48.6c0-2.4-1.4-4.1-3.9-4.1c-2.4,0-3.8,1.6-3.8,4.1v10.3c0,0.8-0.5,1.5-1.5,1.5
				s-1.5-0.7-1.5-1.5V48.6c0-2.4-1.4-4.1-3.9-4.1c-2.4,0-3.8,1.6-3.8,4.1v10.3c0,0.8-0.5,1.5-1.5,1.5s-1.5-0.7-1.5-1.5V43.5
				c0-0.8,0.5-1.5,1.5-1.5C141.2,42,141.9,42.4,141.9,43.8z"/>
			<path class="st1" d="M170.2,43.5v9.8c0,2.9,1.3,4.6,4.2,4.6s4.2-1.7,4.2-4.6v-9.8c0-0.8,0.5-1.5,1.5-1.5s1.5,0.7,1.5,1.5v9.9
				c0,4.4-2.7,7.1-7.2,7.1c-4.4,0-7.2-2.7-7.2-7.1v-9.9c0-0.8,0.5-1.5,1.5-1.5S170.2,42.7,170.2,43.5z"/>
			<path class="st1" d="M188.6,43.8v0.5l0.1,0.1c1.3-1.7,3.2-2.4,5-2.4c3.5,0,6.3,2.6,6.3,6.7v10.2c0,0.8-0.5,1.5-1.5,1.5
				s-1.5-0.7-1.5-1.5v-10c0-2.6-1.7-4.3-4.2-4.3c-2.4,0-4.2,1.8-4.2,4.3v10c0,0.8-0.5,1.5-1.5,1.5s-1.5-0.7-1.5-1.5V43.5
				c0-0.8,0.5-1.5,1.5-1.5C187.8,42,188.6,42.3,188.6,43.8z"/>
			<path class="st1" d="M218.7,35.6V59c0,0.8-0.5,1.5-1.5,1.5c-0.9,0-1.5-0.6-1.5-1.6V58h-0.1c-0.9,1.7-2.5,2.5-4.8,2.5
				c-4.8,0-7.7-4.4-7.7-9.1c0-5.2,3-9.4,7.6-9.4c2,0,3.7,0.8,4.9,2.4h0.1v-8.9c0-0.8,0.5-1.5,1.5-1.5
				C218.1,34.1,218.7,34.7,218.7,35.6z M210.9,57.9c3.2,0,5-2.9,5-6.7c0-3.9-1.9-6.7-5-6.7c-3,0-4.9,2.7-4.9,6.7
				C206.1,55,207.7,57.9,210.9,57.9z"/>
			<path class="st1" d="M234.7,44.4L234.7,44.4l0.1-1c0-0.8,0.6-1.4,1.4-1.4s1.4,0.6,1.4,1.4v15.7c0,0.8-0.6,1.4-1.4,1.4
				s-1.4-0.5-1.4-1.5v-1.2h-0.1c-1.3,1.9-3,2.7-4.9,2.7c-5,0-7.9-4.4-7.9-9.1c0-5.5,3.3-9.4,7.9-9.4C231.9,42,233.3,42.9,234.7,44.4
				z M229.8,57.9c3.2,0,5-2.9,5-6.7c0-3.9-1.8-6.7-5-6.7c-3,0-4.9,2.7-4.9,6.7C224.8,55,226.7,57.9,229.8,57.9z"/>
		</g>
	</g>
	<g>
		<path class="st1" d="M202.1,69.8c0,0.7-0.5,1.3-1.3,1.3c-1,0-1.7-1-3.6-1c-3.2,0-5.2,2.9-5.2,6.7c0,3.6,1.8,6.7,5.2,6.7
			c1.1,0,1.8-0.2,2.8-0.8c0.3-0.2,0.5-0.2,0.8-0.2c0.7,0,1.2,0.4,1.2,1.3c0,1.3-1.9,2.3-4.7,2.3c-5,0-8.1-3.9-8.1-9.2
			c0-5.3,3.1-9.2,8.1-9.2C200.2,67.5,202.1,68.5,202.1,69.8z"/>
		<path class="st1" d="M220.2,76.7c0,5-2.9,9.3-7.9,9.3c-5.3,0-8-4.7-8-9c0-5.5,3.2-9.5,7.9-9.5C217.1,67.5,220.2,71.7,220.2,76.7z
			 M212.2,83.4c3.2,0,5-2.8,5-6.7c0-3.9-1.9-6.7-5-6.7c-3,0-4.9,2.7-4.9,6.7C207.2,80.6,208.9,83.4,212.2,83.4z"/>
		<path class="st1" d="M226.2,69.3v0.5l0.1,0.1c1.3-1.7,3.2-2.4,5-2.4c3.5,0,6.3,2.6,6.3,6.7v10.2c0,0.8-0.5,1.5-1.5,1.5
			s-1.5-0.7-1.5-1.5v-10c0-2.6-1.7-4.3-4.2-4.3c-2.4,0-4.2,1.8-4.2,4.3v10c0,0.8-0.5,1.5-1.5,1.5s-1.5-0.7-1.5-1.5V69
			c0-0.8,0.5-1.5,1.5-1.5C225.4,67.5,226.2,67.8,226.2,69.3z"/>
	</g>
	<g>
		<path class="st2" d="M276.3,45.6c1.1,0.1,1.8,1,1.8,2c0,1.4-1.1,2.4-2.6,2.4h-2c-0.3,0-0.5-0.2-0.5-0.5v-7.1
			c0-0.3,0.2-0.5,0.5-0.5h1.8c1.3,0,2.2,0.9,2.2,2C277.5,44.6,277,45.4,276.3,45.6L276.3,45.6z M275.2,45.3c0.7,0,1.3-0.5,1.3-1.3
			s-0.5-1.3-1.3-1.3H274v2.6H275.2L275.2,45.3z M275.5,49.1c1,0,1.7-0.6,1.7-1.5s-0.7-1.5-1.6-1.5H274v3H275.5z"/>
		<path class="st2" d="M280.3,50c-0.3,0-0.5-0.2-0.5-0.5v-7.1c0-0.3,0.2-0.5,0.5-0.5h3c0.3,0,0.5,0.1,0.5,0.5s-0.2,0.5-0.5,0.5H281
			v2.7h2.2c0.2,0,0.5,0.1,0.5,0.5c0,0.3-0.2,0.5-0.5,0.5H281V49h2.4c0.3,0,0.5,0.1,0.5,0.5s-0.2,0.5-0.5,0.5H280.3L280.3,50z"/>
		<path class="st2" d="M289.8,45.9c-0.4,0.3-0.8,0.5-1.9,0.5l2.6,2.8c0.2,0.2,0.2,0.3,0.2,0.5s-0.2,0.4-0.5,0.4s-0.5-0.3-0.8-0.7
			l-2.7-3v3.1c0,0.3-0.2,0.5-0.5,0.5s-0.5-0.2-0.5-0.5v-7.2c0-0.3,0.2-0.5,0.5-0.5h1.8c1.3,0,2.6,0.7,2.6,2.2
			C290.5,44.8,290.2,45.4,289.8,45.9z M288,45.6c1,0,1.5-0.4,1.5-1.5c0-0.8-0.7-1.4-1.5-1.4h-1.4v2.9H288z"/>
		<path class="st2" d="M293.2,42.3V49h2.2c0.2,0,0.5,0.1,0.5,0.5s-0.2,0.5-0.5,0.5h-2.7c-0.3,0-0.5-0.2-0.5-0.5v-7.2
			c0-0.3,0.2-0.5,0.5-0.5S293.2,42,293.2,42.3z"/>
		<path class="st2" d="M298.3,42.3v7.3c0,0.3-0.2,0.5-0.5,0.5s-0.5-0.2-0.5-0.5v-7.3c0-0.3,0.2-0.5,0.5-0.5S298.3,42,298.3,42.3z"/>
		<path class="st2" d="M301.5,42.2l4.2,6l0,0v-5.9c0-0.3,0.2-0.5,0.5-0.5s0.5,0.2,0.5,0.5v7.2c0,0.3-0.1,0.6-0.5,0.6
			c-0.3,0-0.4-0.1-0.6-0.4l-4.2-6.1l0,0v6c0,0.3-0.2,0.5-0.5,0.5s-0.5-0.2-0.5-0.5v-7.2c0-0.3,0.1-0.6,0.5-0.6
			C301.2,41.7,301.3,41.9,301.5,42.2z"/>
	</g>
	<g>
		<path class="st2" d="M277.8,54.4c0,0.7-0.2,1.2-0.5,1.6l-2.8,3.7h3.1c0.2,0,0.4,0.2,0.4,0.4s-0.2,0.4-0.4,0.4h-4
			c-0.3,0-0.5-0.2-0.5-0.4s0.2-0.4,0.6-0.9l2.5-3.3c0.4-0.5,0.6-1,0.6-1.4c0-0.7-0.6-1.3-1.3-1.3c-0.9,0-1.5,0.8-1.5,1.8
			c0,0.3-0.2,0.5-0.4,0.5c-0.3,0-0.5-0.2-0.5-0.6c0-1.4,1-2.5,2.6-2.5C276.8,52.4,277.8,53.2,277.8,54.4z"/>
		<path class="st2" d="M285,56.5c0,2.7-1.2,4.2-2.7,4.2c-1.6,0-2.7-1.6-2.7-4.1s1.2-4.1,2.7-4.1C283.8,52.4,285,53.9,285,56.5z
			 M282.3,59.8c1,0,1.6-1.2,1.6-3.3s-0.6-3.3-1.6-3.3s-1.6,1.1-1.6,3.3C280.7,58.6,281.3,59.8,282.3,59.8z"/>
		<path class="st2" d="M289,60.1c0,0.3-0.2,0.5-0.5,0.5s-0.5-0.2-0.5-0.5v-6.8h-1.1c-0.2,0-0.4-0.2-0.4-0.4c0-0.3,0.2-0.4,0.4-0.4
			h1.8c0.2,0,0.3,0.1,0.3,0.3L289,60.1L289,60.1z"/>
		<path class="st2" d="M296,54.2c0,0.8-0.3,1.3-1.1,1.8c0.9,0.2,1.5,1,1.5,2c0,1.4-1,2.6-2.5,2.6s-2.5-1.2-2.5-2.6
			c0-1,0.6-1.8,1.5-2c-0.8-0.5-1.1-1-1.1-1.8c0-1.1,0.9-1.9,2.1-1.9C295,52.4,296,53.1,296,54.2z M293.8,59.8c0.8,0,1.4-0.7,1.4-1.7
			c0-0.9-0.6-1.6-1.4-1.6s-1.4,0.7-1.4,1.6C292.5,59.1,293,59.8,293.8,59.8z M293.8,55.6c0.7,0,1.1-0.5,1.1-1.2s-0.4-1.2-1.1-1.2
			s-1.1,0.5-1.1,1.2C292.8,55.2,293.2,55.6,293.8,55.6z"/>
	</g>
	<path class="st2" d="M252.6,59.8V62h-0.9v2.9h1.1L252.2,86h6.1l-0.6-21.1h1.1V62h-0.9v-2.1c3.9-1.1,6.8-4.7,6.8-9
		c0-3.9-2.4-7.3-5.9-8.7v-5.9h0.2c0.4,0,0.7-0.3,0.7-0.7V35c0-0.4-0.3-0.7-0.7-0.7h-7.5c-0.4,0-0.7,0.3-0.7,0.7v0.6
		c0,0.4,0.3,0.7,0.7,0.7h0.2v6c-3.3,1.4-5.7,4.7-5.7,8.6C245.9,55.1,248.7,58.6,252.6,59.8z"/>
	<line class="st3" x1="328.7" y1="25" x2="328.7" y2="80"/>
	<path class="st1" d="M1032.7,71.9h-200c-1.7,0-3-1.3-3-3V34c0-1.7,1.3-3,3-3h200c1.7,0,3,1.3,3,3v34.9
		C1035.7,70.6,1034.3,71.9,1032.7,71.9z"/>
	<g>
		<path class="st4" d="M842,63.8c-0.7,0-1.3-0.1-1.8-0.3v-2.2c0.6,0.2,1.2,0.2,1.6,0.2c1.4,0,2.2-0.9,2.2-2.8V43.1h2.7v15.6
			c0,1.7-0.4,2.9-1.2,3.8C844.8,63.4,843.5,63.8,842,63.8z"/>
		<path class="st4" d="M856,59.5c-1.9,0-3.4-0.6-4.5-1.7c-1.1-1.1-1.6-2.6-1.6-4.6s0.5-3.6,1.5-4.7c1-1.1,2.4-1.7,4.1-1.7
			c1.6,0,2.9,0.5,3.8,1.5s1.4,2.3,1.4,4.1v1.4h-8.2c0,1.2,0.4,2.1,1,2.7c0.6,0.6,1.5,1,2.6,1c0.7,0,1.4-0.1,2-0.2s1.3-0.4,2-0.7v2.1
			c-0.6,0.3-1.3,0.5-1.9,0.6S856.9,59.5,856,59.5z M855.5,48.8c-0.8,0-1.5,0.3-2,0.8s-0.8,1.3-0.9,2.3h5.6c0-1-0.3-1.8-0.7-2.3
			C857,49,856.4,48.8,855.5,48.8z"/>
		<path class="st4" d="M868.2,57.4c0.6,0,1.3-0.1,1.9-0.3v2c-0.3,0.1-0.7,0.2-1.1,0.3c-0.5,0.1-0.9,0.1-1.4,0.1
			c-2.5,0-3.7-1.3-3.7-3.9V49h-1.7v-1.2l1.8-1l0.9-2.6h1.6V47h3.5v2h-3.5v6.6c0,0.6,0.2,1.1,0.5,1.4
			C867.4,57.3,867.8,57.4,868.2,57.4z"/>
		<path class="st4" d="M880.9,59.3h-9.3v-1.6l6.2-8.7H872v-2h8.7v1.8l-6.1,8.4h6.2L880.9,59.3L880.9,59.3z"/>
		<path class="st4" d="M888,57.4c0.6,0,1.3-0.1,1.9-0.3v2c-0.3,0.1-0.7,0.2-1.1,0.3c-0.5,0.1-0.9,0.1-1.4,0.1
			c-2.5,0-3.7-1.3-3.7-3.9V49H882v-1.2l1.8-1l0.9-2.6h1.6V47h3.5v2h-3.5v6.6c0,0.6,0.2,1.1,0.5,1.4C887.2,57.3,887.5,57.4,888,57.4z
			"/>
		<path class="st4" d="M904.5,46.8c0.5,0,1,0,1.3,0.1l-0.3,2.4c-0.4-0.1-0.8-0.1-1.2-0.1c-1,0-1.9,0.3-2.5,1s-1,1.6-1,2.7v6.4h-2.6
			V47h2l0.3,2.2h0.1c0.4-0.7,0.9-1.3,1.6-1.7S903.8,46.8,904.5,46.8z"/>
		<path class="st4" d="M913.5,59.5c-1.9,0-3.4-0.6-4.5-1.7c-1.1-1.1-1.6-2.6-1.6-4.6s0.5-3.6,1.5-4.7c1-1.1,2.4-1.7,4.1-1.7
			c1.6,0,2.9,0.5,3.8,1.5s1.4,2.3,1.4,4.1v1.4H910c0,1.2,0.4,2.1,1,2.7c0.6,0.6,1.5,1,2.6,1c0.7,0,1.4-0.1,2-0.2s1.3-0.4,2-0.7v2.1
			c-0.6,0.3-1.3,0.5-1.9,0.6S914.2,59.5,913.5,59.5z M913,48.8c-0.8,0-1.5,0.3-2,0.8s-0.8,1.3-0.9,2.3h5.6c0-1-0.3-1.8-0.7-2.3
			C914.5,49,913.8,48.8,913,48.8z"/>
		<path class="st4" d="M931.5,47v1.4l-2.1,0.4c0.2,0.3,0.4,0.6,0.5,1s0.2,0.8,0.2,1.2c0,1.3-0.4,2.3-1.3,3s-2.1,1.1-3.6,1.1
			c-0.4,0-0.7,0-1.1-0.1c-0.6,0.3-0.8,0.8-0.8,1.2c0,0.3,0.1,0.5,0.4,0.6c0.3,0.1,0.7,0.2,1.4,0.2h2.1c1.4,0,2.4,0.3,3.1,0.9
			c0.7,0.6,1.1,1.4,1.1,2.5c0,1.4-0.6,2.5-1.7,3.2c-1.1,0.8-2.8,1.1-5,1.1c-1.7,0-2.9-0.3-3.8-0.9c-0.9-0.6-1.3-1.4-1.3-2.5
			c0-0.8,0.2-1.4,0.7-1.9s1.1-0.9,2-1.1c-0.3-0.1-0.6-0.4-0.9-0.7s-0.3-0.7-0.3-1c0-0.5,0.1-0.8,0.4-1.2c0.3-0.3,0.6-0.6,1.2-0.9
			c-0.6-0.3-1.2-0.7-1.5-1.3s-0.6-1.3-0.6-2.2c0-1.3,0.4-2.4,1.3-3.1c0.8-0.7,2-1.1,3.6-1.1c0.3,0,0.7,0,1.1,0.1
			c0.4,0,0.7,0.1,0.9,0.1H931.5z M921.9,61.2c0,0.6,0.3,1,0.8,1.3s1.2,0.5,2.1,0.5c1.4,0,2.5-0.2,3.2-0.6c0.7-0.4,1-0.9,1-1.6
			c0-0.5-0.2-0.9-0.6-1.1s-1.1-0.3-2.1-0.3h-2c-0.7,0-1.3,0.2-1.8,0.5C922.2,60.1,921.9,60.6,921.9,61.2z M923,51
			c0,0.8,0.2,1.4,0.6,1.8c0.4,0.4,1,0.6,1.7,0.6c1.5,0,2.3-0.8,2.3-2.4c0-0.8-0.2-1.4-0.6-1.8c-0.4-0.4-0.9-0.6-1.7-0.6
			s-1.3,0.2-1.7,0.6C923.2,49.6,923,50.2,923,51z"/>
		<path class="st4" d="M933.7,43.8c0-0.5,0.1-0.8,0.4-1.1c0.3-0.3,0.6-0.4,1.1-0.4s0.8,0.1,1.1,0.4c0.3,0.3,0.4,0.6,0.4,1.1
			c0,0.4-0.1,0.8-0.4,1c-0.3,0.3-0.6,0.4-1.1,0.4s-0.8-0.1-1.1-0.4C933.8,44.6,933.7,44.2,933.7,43.8z M936.5,59.3h-2.6V47h2.6V59.3
			z"/>
		<path class="st4" d="M948.4,55.8c0,1.2-0.4,2.1-1.3,2.8s-2.1,1-3.7,1c-1.6,0-2.9-0.2-3.9-0.7v-2.2c1.4,0.7,2.8,1,4,1
			c1.6,0,2.4-0.5,2.4-1.5c0-0.3-0.1-0.6-0.3-0.8s-0.5-0.4-0.9-0.6s-1-0.5-1.7-0.8c-1.4-0.5-2.4-1.1-2.9-1.6s-0.7-1.3-0.7-2.1
			c0-1,0.4-1.9,1.3-2.4c0.8-0.6,2-0.9,3.5-0.9c1.4,0,2.8,0.3,4.1,0.9l-0.8,2c-1.3-0.5-2.4-0.8-3.3-0.8c-1.4,0-2.1,0.4-2.1,1.2
			c0,0.4,0.2,0.7,0.5,1c0.4,0.3,1.1,0.6,2.3,1.1c1,0.4,1.7,0.8,2.2,1.1s0.8,0.7,1,1.1C948.2,54.7,948.4,55.2,948.4,55.8z"/>
		<path class="st4" d="M955.8,57.4c0.6,0,1.3-0.1,1.9-0.3v2c-0.3,0.1-0.7,0.2-1.1,0.3c-0.5,0.1-0.9,0.1-1.4,0.1
			c-2.5,0-3.7-1.3-3.7-3.9V49h-1.7v-1.2l1.8-1l0.9-2.6h1.6V47h3.5v2H954v6.6c0,0.6,0.2,1.1,0.5,1.4
			C954.9,57.3,955.2,57.4,955.8,57.4z"/>
		<path class="st4" d="M966.4,46.8c0.5,0,1,0,1.3,0.1l-0.3,2.4c-0.4-0.1-0.8-0.1-1.2-0.1c-1,0-1.9,0.3-2.5,1s-1,1.6-1,2.7v6.4h-2.6
			V47h2l0.3,2.2h0.1c0.4-0.7,0.9-1.3,1.6-1.7S965.5,46.8,966.4,46.8z"/>
		<path class="st4" d="M969.8,43.8c0-0.5,0.1-0.8,0.4-1.1c0.3-0.3,0.6-0.4,1.1-0.4s0.8,0.1,1.1,0.4c0.3,0.3,0.4,0.6,0.4,1.1
			c0,0.4-0.1,0.8-0.4,1c-0.3,0.3-0.6,0.4-1.1,0.4s-0.8-0.1-1.1-0.4C969.9,44.6,969.8,44.2,969.8,43.8z M972.5,59.3H970V47h2.6V59.3z
			"/>
		<path class="st4" d="M981.5,59.5c-1.9,0-3.4-0.6-4.5-1.7c-1.1-1.1-1.6-2.6-1.6-4.6s0.5-3.6,1.5-4.7c1-1.1,2.4-1.7,4.1-1.7
			c1.6,0,2.9,0.5,3.8,1.5s1.4,2.3,1.4,4.1v1.4H978c0,1.2,0.4,2.1,1,2.7c0.6,0.6,1.5,1,2.6,1c0.7,0,1.4-0.1,2-0.2s1.3-0.4,2-0.7v2.1
			c-0.6,0.3-1.3,0.5-1.9,0.6S982.5,59.5,981.5,59.5z M981.2,48.8c-0.8,0-1.5,0.3-2,0.8s-0.8,1.3-0.9,2.3h5.6c0-1-0.3-1.8-0.7-2.3
			C982.5,49,982,48.8,981.2,48.8z"/>
		<path class="st4" d="M995.5,46.8c0.5,0,1,0,1.3,0.1l-0.3,2.4c-0.4-0.1-0.8-0.1-1.2-0.1c-1,0-1.9,0.3-2.5,1s-1,1.6-1,2.7v6.4h-2.6
			V47h2l0.3,2.2h0.1c0.4-0.7,0.9-1.3,1.6-1.7S994.8,46.8,995.5,46.8z"/>
		<path class="st4" d="M1004.5,59.5c-1.9,0-3.4-0.6-4.5-1.7c-1.1-1.1-1.6-2.6-1.6-4.6s0.5-3.6,1.5-4.7c1-1.1,2.4-1.7,4.1-1.7
			c1.6,0,2.9,0.5,3.8,1.5s1.4,2.3,1.4,4.1v1.4h-8.2c0,1.2,0.4,2.1,1,2.7c0.6,0.6,1.5,1,2.6,1c0.7,0,1.4-0.1,2-0.2s1.3-0.4,2-0.7v2.1
			c-0.6,0.3-1.3,0.5-1.9,0.6S1005.2,59.5,1004.5,59.5z M1004,48.8c-0.8,0-1.5,0.3-2,0.8s-0.8,1.3-0.9,2.3h5.6c0-1-0.3-1.8-0.7-2.3
			C1005.5,49,1004.9,48.8,1004,48.8z"/>
		<path class="st4" d="M1023,59.3h-2.6v-7.5c0-0.9-0.2-1.7-0.6-2.1s-1-0.7-1.8-0.7c-1.1,0-1.9,0.3-2.4,1s-0.8,1.7-0.8,3.3v6.1h-2.6
			V47h2l0.4,1.6h0.1c0.4-0.6,0.9-1,1.6-1.4c0.7-0.3,1.4-0.5,2.3-0.5c2.9,0,4.4,1.5,4.4,4.5L1023,59.3L1023,59.3z"/>
	</g>
	<g>
		<path class="st2" d="M359.9,33.3h4.4c2,0,3.5,0.3,4.4,0.9c0.9,0.6,1.4,1.5,1.4,2.8c0,0.9-0.2,1.6-0.7,2.2
			c-0.4,0.6-1.1,0.9-1.9,1.1v0.1c1,0.2,1.8,0.6,2.3,1.2c0.5,0.6,0.7,1.4,0.7,2.3c0,1.3-0.5,2.4-1.4,3.1s-2.2,1.1-3.9,1.1h-5.4V33.3z
			 M362.3,39.4h2.3c1,0,1.8-0.2,2.2-0.5s0.7-0.9,0.7-1.6c0-0.7-0.3-1.2-0.8-1.5c-0.5-0.3-1.3-0.5-2.4-0.5h-2.1V39.4z M362.3,41.4
			v4.7h2.6c1,0,1.8-0.2,2.3-0.6s0.8-1,0.8-1.8c0-0.8-0.3-1.3-0.8-1.7c-0.5-0.4-1.3-0.6-2.4-0.6H362.3z"/>
		<path class="st2" d="M378.3,48.3c-1.7,0-3.1-0.5-4.1-1.5c-1-1-1.5-2.4-1.5-4.2c0-1.8,0.5-3.3,1.4-4.3c0.9-1,2.2-1.6,3.8-1.6
			c1.5,0,2.7,0.5,3.5,1.3c0.9,0.9,1.3,2.1,1.3,3.7V43h-7.5c0,1.1,0.3,1.9,0.9,2.5c0.6,0.6,1.3,0.9,2.3,0.9c0.7,0,1.3-0.1,1.9-0.2
			c0.6-0.1,1.2-0.3,1.8-0.6v1.9c-0.6,0.3-1.2,0.5-1.8,0.6C379.7,48.2,379,48.3,378.3,48.3z M377.8,38.5c-0.8,0-1.4,0.2-1.8,0.7
			c-0.5,0.5-0.7,1.2-0.8,2.1h5.1c0-0.9-0.2-1.6-0.7-2.1C379.2,38.7,378.6,38.5,377.8,38.5z"/>
		<path class="st2" d="M392.9,44.9c0,1.1-0.4,1.9-1.2,2.5c-0.8,0.6-1.9,0.9-3.4,0.9c-1.5,0-2.7-0.2-3.6-0.7v-2.1
			c1.3,0.6,2.5,0.9,3.7,0.9c1.5,0,2.2-0.4,2.2-1.3c0-0.3-0.1-0.5-0.2-0.7c-0.2-0.2-0.4-0.4-0.8-0.6c-0.4-0.2-0.9-0.4-1.6-0.7
			c-1.3-0.5-2.2-1-2.6-1.5c-0.5-0.5-0.7-1.1-0.7-1.9c0-1,0.4-1.7,1.2-2.2s1.8-0.8,3.2-0.8c1.3,0,2.6,0.3,3.7,0.8l-0.8,1.8
			c-1.2-0.5-2.2-0.8-3.1-0.8c-1.3,0-1.9,0.4-1.9,1.1c0,0.4,0.2,0.6,0.5,0.9c0.3,0.2,1,0.6,2.1,1c0.9,0.4,1.6,0.7,2,1s0.7,0.6,0.9,1
			C392.8,43.9,392.9,44.4,392.9,44.9z"/>
		<path class="st2" d="M403.4,48.1l-0.3-1.5h-0.1c-0.3,0.5-0.8,0.9-1.4,1.2c-0.6,0.3-1.3,0.4-2.1,0.4c-1.4,0-2.4-0.3-3-1
			c-0.7-0.7-1-1.7-1-3.1v-7.3h2.4v6.9c0,0.9,0.2,1.5,0.5,1.9c0.4,0.4,0.9,0.6,1.7,0.6c1,0,1.7-0.3,2.2-0.9s0.7-1.6,0.7-3v-5.6h2.4
			v11.2H403.4z"/>
		<path class="st2" d="M413.2,48.3c-1.7,0-3-0.5-3.9-1.5c-0.9-1-1.3-2.4-1.3-4.3c0-1.9,0.5-3.3,1.4-4.4c0.9-1,2.3-1.5,4-1.5
			c1.2,0,2.2,0.2,3.2,0.7l-0.7,1.9c-1-0.4-1.8-0.6-2.5-0.6c-1.9,0-2.9,1.3-2.9,3.9c0,1.3,0.2,2.2,0.7,2.8c0.5,0.6,1.2,0.9,2.1,0.9
			c1.1,0,2.1-0.3,3-0.8v2.1c-0.4,0.2-0.9,0.4-1.4,0.5C414.5,48.2,413.9,48.3,413.2,48.3z"/>
		<path class="st2" d="M428.8,48.1h-2.4v-6.9c0-0.9-0.2-1.5-0.5-1.9c-0.3-0.4-0.9-0.6-1.7-0.6c-1,0-1.7,0.3-2.2,0.9
			c-0.5,0.6-0.7,1.6-0.7,3v5.6h-2.4V32.3h2.4v4c0,0.6,0,1.3-0.1,2.1h0.2c0.3-0.5,0.8-1,1.4-1.3s1.3-0.4,2-0.4c2.7,0,4.1,1.4,4.1,4.1
			V48.1z"/>
		<path class="st2" d="M437,48.3c-1.7,0-3.1-0.5-4.1-1.5c-1-1-1.5-2.4-1.5-4.2c0-1.8,0.5-3.3,1.4-4.3c0.9-1,2.2-1.6,3.8-1.6
			c1.5,0,2.7,0.5,3.5,1.3c0.9,0.9,1.3,2.1,1.3,3.7V43h-7.5c0,1.1,0.3,1.9,0.9,2.5c0.6,0.6,1.3,0.9,2.3,0.9c0.7,0,1.3-0.1,1.9-0.2
			c0.6-0.1,1.2-0.3,1.8-0.6v1.9c-0.6,0.3-1.2,0.5-1.8,0.6C438.5,48.2,437.8,48.3,437,48.3z M436.6,38.5c-0.8,0-1.4,0.2-1.8,0.7
			c-0.5,0.5-0.7,1.2-0.8,2.1h5.1c0-0.9-0.2-1.6-0.7-2.1C438,38.7,437.4,38.5,436.6,38.5z"/>
		<path class="st2" d="M454,48.1h-2.4v-6.9c0-0.9-0.2-1.5-0.5-1.9c-0.3-0.4-0.9-0.6-1.7-0.6c-1,0-1.7,0.3-2.2,0.9
			c-0.5,0.6-0.7,1.6-0.7,3v5.6h-2.4V36.9h1.9l0.3,1.5h0.1c0.3-0.5,0.8-0.9,1.4-1.2c0.6-0.3,1.3-0.4,2.1-0.4c2.7,0,4,1.4,4,4.1V48.1z
			"/>
		<path class="st2" d="M471.5,44.1c0,1.3-0.5,2.4-1.4,3.1c-1,0.8-2.3,1.1-3.9,1.1s-3.1-0.3-4.1-0.8v-2.3c0.7,0.3,1.4,0.6,2.2,0.8
			c0.8,0.2,1.5,0.3,2.1,0.3c1,0,1.7-0.2,2.1-0.5c0.5-0.4,0.7-0.9,0.7-1.5c0-0.6-0.2-1-0.6-1.4c-0.4-0.4-1.3-0.8-2.6-1.4
			c-1.4-0.5-2.3-1.2-2.9-1.9c-0.6-0.7-0.8-1.5-0.8-2.5c0-1.2,0.4-2.2,1.3-2.9c0.9-0.7,2.1-1.1,3.5-1.1c1.4,0,2.8,0.3,4.2,0.9l-0.8,2
			c-1.3-0.6-2.5-0.8-3.5-0.8c-0.8,0-1.4,0.2-1.8,0.5c-0.4,0.3-0.6,0.8-0.6,1.4c0,0.4,0.1,0.7,0.2,1c0.2,0.3,0.4,0.5,0.8,0.8
			c0.4,0.2,1,0.6,2,1c1.1,0.5,1.9,0.9,2.4,1.3c0.5,0.4,0.9,0.8,1.1,1.3S471.5,43.4,471.5,44.1z"/>
		<path class="st2" d="M474,33.9c0-0.4,0.1-0.8,0.4-1s0.6-0.3,1-0.3c0.4,0,0.7,0.1,1,0.3s0.4,0.6,0.4,1c0,0.4-0.1,0.7-0.4,1
			s-0.6,0.4-1,0.4c-0.4,0-0.8-0.1-1-0.4S474,34.3,474,33.9z M476.5,48.1h-2.4V36.9h2.4V48.1z"/>
		<path class="st2" d="M484.8,48.3c-1.7,0-3.1-0.5-4.1-1.5c-1-1-1.5-2.4-1.5-4.2c0-1.8,0.5-3.3,1.4-4.3c0.9-1,2.2-1.6,3.8-1.6
			c1.5,0,2.7,0.5,3.5,1.3c0.9,0.9,1.3,2.1,1.3,3.7V43h-7.5c0,1.1,0.3,1.9,0.9,2.5c0.6,0.6,1.3,0.9,2.3,0.9c0.7,0,1.3-0.1,1.9-0.2
			c0.6-0.1,1.2-0.3,1.8-0.6v1.9c-0.6,0.3-1.2,0.5-1.8,0.6C486.3,48.2,485.6,48.3,484.8,48.3z M484.4,38.5c-0.8,0-1.4,0.2-1.8,0.7
			c-0.5,0.5-0.7,1.2-0.8,2.1h5.1c0-0.9-0.2-1.6-0.7-2.1C485.7,38.7,485.1,38.5,484.4,38.5z"/>
		<path class="st2" d="M505.2,48.1l-0.3-1.5h-0.1c-0.3,0.5-0.8,0.9-1.4,1.2c-0.6,0.3-1.3,0.4-2.1,0.4c-1.4,0-2.4-0.3-3-1
			c-0.7-0.7-1-1.7-1-3.1v-7.3h2.4v6.9c0,0.9,0.2,1.5,0.5,1.9c0.4,0.4,0.9,0.6,1.7,0.6c1,0,1.7-0.3,2.2-0.9s0.7-1.6,0.7-3v-5.6h2.4
			v11.2H505.2z"/>
		<path class="st2" d="M520.4,48.1H518v-6.9c0-0.9-0.2-1.5-0.5-1.9c-0.3-0.4-0.9-0.6-1.7-0.6c-1,0-1.7,0.3-2.2,0.9
			c-0.5,0.6-0.7,1.6-0.7,3v5.6h-2.4V36.9h1.9l0.3,1.5h0.1c0.3-0.5,0.8-0.9,1.4-1.2c0.6-0.3,1.3-0.4,2.1-0.4c2.7,0,4,1.4,4,4.1V48.1z
			"/>
		<path class="st2" d="M531.2,44.9c0,1.1-0.4,1.9-1.2,2.5c-0.8,0.6-1.9,0.9-3.4,0.9c-1.5,0-2.7-0.2-3.6-0.7v-2.1
			c1.3,0.6,2.5,0.9,3.7,0.9c1.5,0,2.2-0.4,2.2-1.3c0-0.3-0.1-0.5-0.2-0.7c-0.2-0.2-0.4-0.4-0.8-0.6c-0.4-0.2-0.9-0.4-1.6-0.7
			c-1.3-0.5-2.2-1-2.6-1.5c-0.5-0.5-0.7-1.1-0.7-1.9c0-1,0.4-1.7,1.2-2.2s1.8-0.8,3.2-0.8c1.3,0,2.6,0.3,3.7,0.8l-0.8,1.8
			c-1.2-0.5-2.2-0.8-3.1-0.8c-1.3,0-1.9,0.4-1.9,1.1c0,0.4,0.2,0.6,0.5,0.9c0.3,0.2,1,0.6,2.1,1c0.9,0.4,1.6,0.7,2,1
			c0.4,0.3,0.7,0.6,0.9,1C531.1,43.9,531.2,44.4,531.2,44.9z"/>
		<path class="st2" d="M546.2,48.1l-0.5-1.6h-0.1c-0.5,0.7-1.1,1.1-1.6,1.4c-0.5,0.2-1.3,0.4-2.1,0.4c-1.1,0-2-0.3-2.6-0.9
			s-0.9-1.4-0.9-2.5c0-1.2,0.4-2,1.3-2.6c0.9-0.6,2.2-0.9,3.9-1l1.9-0.1v-0.6c0-0.7-0.2-1.3-0.5-1.6c-0.3-0.4-0.9-0.5-1.6-0.5
			c-0.6,0-1.1,0.1-1.7,0.3c-0.5,0.2-1,0.4-1.5,0.6l-0.8-1.7c0.6-0.3,1.3-0.6,2-0.7c0.7-0.2,1.4-0.2,2-0.2c1.4,0,2.5,0.3,3.2,0.9
			c0.7,0.6,1.1,1.6,1.1,2.9v7.6H546.2z M542.7,46.5c0.9,0,1.6-0.2,2.1-0.7c0.5-0.5,0.8-1.2,0.8-2v-1l-1.4,0.1
			c-1.1,0-1.9,0.2-2.5,0.6s-0.8,0.8-0.8,1.5c0,0.5,0.1,0.9,0.4,1.2S542.1,46.5,542.7,46.5z"/>
		<path class="st2" d="M559.2,48.1l-0.3-1.5h-0.1c-0.3,0.5-0.8,0.9-1.4,1.2c-0.6,0.3-1.3,0.4-2.1,0.4c-1.4,0-2.4-0.3-3-1
			c-0.7-0.7-1-1.7-1-3.1v-7.3h2.4v6.9c0,0.9,0.2,1.5,0.5,1.9c0.4,0.4,0.9,0.6,1.7,0.6c1,0,1.7-0.3,2.2-0.9c0.5-0.6,0.7-1.6,0.7-3
			v-5.6h2.4v11.2H559.2z"/>
		<path class="st2" d="M570.1,38.7h-2.7v9.4h-2.4v-9.4h-1.8v-1.1l1.8-0.7v-0.7c0-1.3,0.3-2.3,0.9-2.9c0.6-0.6,1.6-1,2.9-1
			c0.8,0,1.7,0.1,2.5,0.4l-0.6,1.8c-0.6-0.2-1.2-0.3-1.7-0.3c-0.5,0-0.9,0.2-1.2,0.5c-0.2,0.3-0.4,0.8-0.4,1.5v0.7h2.7V38.7z"/>
		<path class="st2" d="M585.3,48.1l-0.3-1.5h-0.1c-0.3,0.5-0.8,0.9-1.4,1.2c-0.6,0.3-1.3,0.4-2.1,0.4c-1.4,0-2.4-0.3-3-1
			c-0.7-0.7-1-1.7-1-3.1v-7.3h2.4v6.9c0,0.9,0.2,1.5,0.5,1.9c0.4,0.4,0.9,0.6,1.7,0.6c1,0,1.7-0.3,2.2-0.9c0.5-0.6,0.7-1.6,0.7-3
			v-5.6h2.4v11.2H585.3z"/>
		<path class="st2" d="M600.4,48.1H598v-6.9c0-0.9-0.2-1.5-0.5-1.9c-0.3-0.4-0.9-0.6-1.7-0.6c-1,0-1.7,0.3-2.2,0.9
			c-0.5,0.6-0.7,1.6-0.7,3v5.6h-2.4V36.9h1.9l0.3,1.5h0.1c0.3-0.5,0.8-0.9,1.4-1.2c0.6-0.3,1.3-0.4,2.1-0.4c2.7,0,4,1.4,4,4.1V48.1z
			"/>
		<path class="st2" d="M611.3,44.9c0,1.1-0.4,1.9-1.2,2.5c-0.8,0.6-1.9,0.9-3.4,0.9c-1.5,0-2.7-0.2-3.6-0.7v-2.1
			c1.3,0.6,2.5,0.9,3.7,0.9c1.5,0,2.2-0.4,2.2-1.3c0-0.3-0.1-0.5-0.2-0.7c-0.2-0.2-0.4-0.4-0.8-0.6c-0.4-0.2-0.9-0.4-1.6-0.7
			c-1.3-0.5-2.2-1-2.6-1.5c-0.5-0.5-0.7-1.1-0.7-1.9c0-1,0.4-1.7,1.2-2.2s1.8-0.8,3.2-0.8c1.3,0,2.6,0.3,3.7,0.8l-0.8,1.8
			c-1.2-0.5-2.2-0.8-3.1-0.8c-1.3,0-1.9,0.4-1.9,1.1c0,0.4,0.2,0.6,0.5,0.9c0.3,0.2,1,0.6,2.1,1c0.9,0.4,1.6,0.7,2,1
			c0.4,0.3,0.7,0.6,0.9,1C611.2,43.9,611.3,44.4,611.3,44.9z"/>
		<path class="st2" d="M618.8,48.3c-1.7,0-3.1-0.5-4.1-1.5s-1.5-2.4-1.5-4.2c0-1.8,0.5-3.3,1.4-4.3c0.9-1,2.2-1.6,3.8-1.6
			c1.5,0,2.7,0.5,3.5,1.3c0.9,0.9,1.3,2.1,1.3,3.7V43h-7.5c0,1.1,0.3,1.9,0.9,2.5c0.6,0.6,1.3,0.9,2.3,0.9c0.7,0,1.3-0.1,1.9-0.2
			c0.6-0.1,1.2-0.3,1.8-0.6v1.9c-0.6,0.3-1.2,0.5-1.8,0.6C620.2,48.2,619.5,48.3,618.8,48.3z M618.3,38.5c-0.8,0-1.4,0.2-1.8,0.7
			c-0.5,0.5-0.7,1.2-0.8,2.1h5.1c0-0.9-0.2-1.6-0.7-2.1C619.7,38.7,619.1,38.5,618.3,38.5z"/>
		<path class="st2" d="M631.5,36.7c0.5,0,0.9,0,1.2,0.1l-0.2,2.2c-0.3-0.1-0.7-0.1-1.1-0.1c-1,0-1.7,0.3-2.3,0.9
			c-0.6,0.6-0.9,1.4-0.9,2.4v5.9h-2.4V36.9h1.9l0.3,2h0.1c0.4-0.7,0.9-1.2,1.5-1.6C630.2,36.9,630.9,36.7,631.5,36.7z"/>
		<path class="st2" d="M639.7,48.3c-1.7,0-3.1-0.5-4.1-1.5s-1.5-2.4-1.5-4.2c0-1.8,0.5-3.3,1.4-4.3c0.9-1,2.2-1.6,3.8-1.6
			c1.5,0,2.7,0.5,3.5,1.3c0.9,0.9,1.3,2.1,1.3,3.7V43h-7.5c0,1.1,0.3,1.9,0.9,2.5c0.6,0.6,1.3,0.9,2.3,0.9c0.7,0,1.3-0.1,1.9-0.2
			c0.6-0.1,1.2-0.3,1.8-0.6v1.9c-0.6,0.3-1.2,0.5-1.8,0.6C641.2,48.2,640.5,48.3,639.7,48.3z M639.3,38.5c-0.8,0-1.4,0.2-1.8,0.7
			c-0.5,0.5-0.7,1.2-0.8,2.1h5.1c0-0.9-0.2-1.6-0.7-2.1C640.6,38.7,640,38.5,639.3,38.5z"/>
		<path class="st2" d="M652.5,36.7c0.5,0,0.9,0,1.2,0.1l-0.2,2.2c-0.3-0.1-0.7-0.1-1.1-0.1c-1,0-1.7,0.3-2.3,0.9
			c-0.6,0.6-0.9,1.4-0.9,2.4v5.9h-2.4V36.9h1.9l0.3,2h0.1c0.4-0.7,0.9-1.2,1.5-1.6C651.1,36.9,651.8,36.7,652.5,36.7z"/>
		<path class="st2" d="M668.2,48.1l-0.5-1.6h-0.1c-0.5,0.7-1.1,1.1-1.6,1.4c-0.5,0.2-1.3,0.4-2.1,0.4c-1.1,0-2-0.3-2.6-0.9
			s-0.9-1.4-0.9-2.5c0-1.2,0.4-2,1.3-2.6c0.9-0.6,2.2-0.9,3.9-1l1.9-0.1v-0.6c0-0.7-0.2-1.3-0.5-1.6c-0.3-0.4-0.9-0.5-1.6-0.5
			c-0.6,0-1.1,0.1-1.7,0.3c-0.5,0.2-1,0.4-1.5,0.6l-0.8-1.7c0.6-0.3,1.3-0.6,2-0.7c0.7-0.2,1.4-0.2,2-0.2c1.4,0,2.5,0.3,3.2,0.9
			c0.7,0.6,1.1,1.6,1.1,2.9v7.6H668.2z M664.6,46.5c0.9,0,1.6-0.2,2.1-0.7c0.5-0.5,0.8-1.2,0.8-2v-1l-1.4,0.1
			c-1.1,0-1.9,0.2-2.5,0.6s-0.8,0.8-0.8,1.5c0,0.5,0.1,0.9,0.4,1.2S664,46.5,664.6,46.5z"/>
		<path class="st2" d="M675.6,48.1h-2.4V32.3h2.4V48.1z"/>
		<path class="st2" d="M681.4,48.1H679V32.3h2.4V48.1z"/>
		<path class="st2" d="M683.6,53.1c-0.7,0-1.3-0.1-1.8-0.3v-1.9c0.5,0.1,0.9,0.2,1.4,0.2c1,0,1.5-0.6,1.5-1.7V36.9h2.4v12.7
			c0,1.2-0.3,2-0.9,2.6C685.7,52.8,684.8,53.1,683.6,53.1z M684.6,33.9c0-0.4,0.1-0.8,0.4-1s0.6-0.3,1-0.3c0.4,0,0.7,0.1,1,0.3
			s0.3,0.6,0.3,1c0,0.4-0.1,0.7-0.3,1s-0.6,0.4-1,0.4c-0.4,0-0.8-0.1-1-0.4S684.6,34.3,684.6,33.9z"/>
		<path class="st2" d="M697.6,48.1l-0.5-1.6H697c-0.5,0.7-1.1,1.1-1.6,1.4c-0.5,0.2-1.3,0.4-2.1,0.4c-1.1,0-2-0.3-2.6-0.9
			s-0.9-1.4-0.9-2.5c0-1.2,0.4-2,1.3-2.6c0.9-0.6,2.2-0.9,3.9-1l1.9-0.1v-0.6c0-0.7-0.2-1.3-0.5-1.6c-0.3-0.4-0.9-0.5-1.6-0.5
			c-0.6,0-1.1,0.1-1.7,0.3c-0.5,0.2-1,0.4-1.5,0.6l-0.8-1.7c0.6-0.3,1.3-0.6,2-0.7c0.7-0.2,1.4-0.2,2-0.2c1.4,0,2.5,0.3,3.2,0.9
			c0.7,0.6,1.1,1.6,1.1,2.9v7.6H697.6z M691.7,33.9c0-0.4,0.1-0.7,0.3-0.9s0.5-0.3,0.8-0.3c0.4,0,0.6,0.1,0.9,0.3
			c0.2,0.2,0.3,0.5,0.3,0.9c0,0.4-0.1,0.6-0.3,0.9c-0.2,0.2-0.5,0.3-0.9,0.3c-0.3,0-0.6-0.1-0.8-0.3S691.7,34.3,691.7,33.9z
			 M694.1,46.5c0.9,0,1.6-0.2,2.1-0.7c0.5-0.5,0.8-1.2,0.8-2v-1l-1.4,0.1c-1.1,0-1.9,0.2-2.5,0.6s-0.8,0.8-0.8,1.5
			c0,0.5,0.1,0.9,0.4,1.2S693.5,46.5,694.1,46.5z M695.7,33.9c0-0.4,0.1-0.7,0.3-0.9s0.5-0.3,0.8-0.3c0.4,0,0.6,0.1,0.9,0.3
			c0.2,0.2,0.3,0.5,0.3,0.9c0,0.4-0.1,0.7-0.3,0.9c-0.2,0.2-0.5,0.3-0.9,0.3c-0.3,0-0.6-0.1-0.8-0.3S695.7,34.3,695.7,33.9z"/>
		<path class="st2" d="M712.5,48.1h-2.4v-6.9c0-0.9-0.2-1.5-0.5-1.9c-0.3-0.4-0.9-0.6-1.7-0.6c-1,0-1.7,0.3-2.2,0.9
			c-0.5,0.6-0.7,1.6-0.7,3v5.6h-2.4V32.3h2.4v4c0,0.6,0,1.3-0.1,2.1h0.2c0.3-0.5,0.8-1,1.4-1.3s1.3-0.4,2-0.4c2.7,0,4.1,1.4,4.1,4.1
			V48.1z"/>
		<path class="st2" d="M721.5,36.7c0.5,0,0.9,0,1.2,0.1l-0.2,2.2c-0.3-0.1-0.7-0.1-1.1-0.1c-1,0-1.7,0.3-2.3,0.9
			c-0.6,0.6-0.9,1.4-0.9,2.4v5.9h-2.4V36.9h1.9l0.3,2h0.1c0.4-0.7,0.9-1.2,1.5-1.6C720.2,36.9,720.8,36.7,721.5,36.7z"/>
		<path class="st2" d="M727.2,48.1h-2.4V32.3h2.4V48.1z"/>
		<path class="st2" d="M730.4,33.9c0-0.4,0.1-0.8,0.4-1s0.6-0.3,1-0.3c0.4,0,0.7,0.1,1,0.3s0.3,0.6,0.3,1c0,0.4-0.1,0.7-0.3,1
			s-0.6,0.4-1,0.4c-0.4,0-0.8-0.1-1-0.4S730.4,34.3,730.4,33.9z M733,48.1h-2.4V36.9h2.4V48.1z"/>
		<path class="st2" d="M740.9,48.3c-1.7,0-3-0.5-3.9-1.5c-0.9-1-1.3-2.4-1.3-4.3c0-1.9,0.5-3.3,1.4-4.4c0.9-1,2.3-1.5,4-1.5
			c1.2,0,2.2,0.2,3.2,0.7l-0.7,1.9c-1-0.4-1.8-0.6-2.5-0.6c-1.9,0-2.9,1.3-2.9,3.9c0,1.3,0.2,2.2,0.7,2.8c0.5,0.6,1.2,0.9,2.1,0.9
			c1.1,0,2.1-0.3,3-0.8v2.1c-0.4,0.2-0.9,0.4-1.4,0.5C742.2,48.2,741.6,48.3,740.9,48.3z"/>
		<path class="st2" d="M756.5,48.1h-2.4v-6.9c0-0.9-0.2-1.5-0.5-1.9c-0.3-0.4-0.9-0.6-1.7-0.6c-1,0-1.7,0.3-2.2,0.9
			c-0.5,0.6-0.7,1.6-0.7,3v5.6h-2.4V32.3h2.4v4c0,0.6,0,1.3-0.1,2.1h0.2c0.3-0.5,0.8-1,1.4-1.3s1.3-0.4,2-0.4c2.7,0,4.1,1.4,4.1,4.1
			V48.1z"/>
		<path class="st2" d="M764.8,48.3c-1.7,0-3.1-0.5-4.1-1.5s-1.5-2.4-1.5-4.2c0-1.8,0.5-3.3,1.4-4.3c0.9-1,2.2-1.6,3.8-1.6
			c1.5,0,2.7,0.5,3.5,1.3c0.9,0.9,1.3,2.1,1.3,3.7V43h-7.5c0,1.1,0.3,1.9,0.9,2.5c0.6,0.6,1.3,0.9,2.3,0.9c0.7,0,1.3-0.1,1.9-0.2
			c0.6-0.1,1.2-0.3,1.8-0.6v1.9c-0.6,0.3-1.2,0.5-1.8,0.6C766.2,48.2,765.5,48.3,764.8,48.3z M764.3,38.5c-0.8,0-1.4,0.2-1.8,0.7
			c-0.5,0.5-0.7,1.2-0.8,2.1h5.1c0-0.9-0.2-1.6-0.7-2.1C765.7,38.7,765.1,38.5,764.3,38.5z"/>
		<path class="st2" d="M781.7,48.1h-2.4v-6.9c0-0.9-0.2-1.5-0.5-1.9c-0.3-0.4-0.9-0.6-1.7-0.6c-1,0-1.7,0.3-2.2,0.9
			c-0.5,0.6-0.7,1.6-0.7,3v5.6h-2.4V36.9h1.9l0.3,1.5h0.1c0.3-0.5,0.8-0.9,1.4-1.2c0.6-0.3,1.3-0.4,2.1-0.4c2.7,0,4,1.4,4,4.1V48.1z
			"/>
		<path class="st2" d="M371.2,73h-2.8l-4.7-6.7l-1.4,1.2V73h-2.4V58.2h2.4v7.1c0.7-0.8,1.3-1.6,2-2.3l4-4.7h2.8
			c-2.6,3-4.4,5.2-5.6,6.5L371.2,73z"/>
		<path class="st2" d="M382.9,67.4c0,1.8-0.5,3.3-1.4,4.3c-0.9,1-2.2,1.5-3.9,1.5c-1,0-2-0.2-2.8-0.7c-0.8-0.5-1.4-1.2-1.9-2
			c-0.4-0.9-0.6-1.9-0.6-3.1c0-1.8,0.5-3.2,1.4-4.3s2.2-1.5,3.9-1.5c1.6,0,2.9,0.5,3.9,1.6S382.9,65.6,382.9,67.4z M374.7,67.4
			c0,2.6,1,3.9,2.9,3.9c1.9,0,2.8-1.3,2.8-3.9c0-2.6-1-3.8-2.9-3.8c-1,0-1.7,0.3-2.2,1C374.9,65.2,374.7,66.2,374.7,67.4z"/>
		<path class="st2" d="M395.5,73h-2.4v-6.9c0-0.9-0.2-1.5-0.5-1.9c-0.3-0.4-0.9-0.6-1.7-0.6c-1,0-1.7,0.3-2.2,0.9s-0.7,1.6-0.7,3V73
			h-2.4V61.8h1.9l0.3,1.5h0.1c0.3-0.5,0.8-0.9,1.4-1.2c0.6-0.3,1.3-0.4,2.1-0.4c2.7,0,4,1.4,4,4.1V73z"/>
		<path class="st2" d="M404.5,63.6h-2.7V73h-2.4v-9.4h-1.8v-1.1l1.8-0.7V61c0-1.3,0.3-2.3,0.9-2.9c0.6-0.6,1.6-1,2.9-1
			c0.8,0,1.7,0.1,2.5,0.4l-0.6,1.8c-0.6-0.2-1.2-0.3-1.7-0.3c-0.5,0-0.9,0.2-1.2,0.5c-0.2,0.3-0.4,0.8-0.4,1.5v0.7h2.7V63.6z"/>
		<path class="st2" d="M411.3,73.2c-1.7,0-3.1-0.5-4.1-1.5c-1-1-1.5-2.4-1.5-4.2c0-1.8,0.5-3.3,1.4-4.3c0.9-1,2.2-1.6,3.8-1.6
			c1.5,0,2.7,0.5,3.5,1.3c0.9,0.9,1.3,2.1,1.3,3.7V68h-7.5c0,1.1,0.3,1.9,0.9,2.5c0.6,0.6,1.3,0.9,2.3,0.9c0.7,0,1.3-0.1,1.9-0.2
			c0.6-0.1,1.2-0.3,1.8-0.6v1.9c-0.6,0.3-1.2,0.5-1.8,0.6S412,73.2,411.3,73.2z M410.8,63.4c-0.8,0-1.4,0.2-1.8,0.7
			s-0.7,1.2-0.8,2.1h5.1c0-0.9-0.2-1.6-0.7-2.1C412.2,63.7,411.6,63.4,410.8,63.4z"/>
		<path class="st2" d="M424,61.6c0.5,0,0.9,0,1.2,0.1l-0.2,2.2c-0.3-0.1-0.7-0.1-1.1-0.1c-1,0-1.7,0.3-2.3,0.9
			c-0.6,0.6-0.9,1.4-0.9,2.4V73h-2.4V61.8h1.9l0.3,2h0.1c0.4-0.7,0.9-1.2,1.5-1.6C422.7,61.8,423.3,61.6,424,61.6z"/>
		<path class="st2" d="M432.2,73.2c-1.7,0-3.1-0.5-4.1-1.5c-1-1-1.5-2.4-1.5-4.2c0-1.8,0.5-3.3,1.4-4.3c0.9-1,2.2-1.6,3.8-1.6
			c1.5,0,2.7,0.5,3.5,1.3c0.9,0.9,1.3,2.1,1.3,3.7V68h-7.5c0,1.1,0.3,1.9,0.9,2.5c0.6,0.6,1.3,0.9,2.3,0.9c0.7,0,1.3-0.1,1.9-0.2
			c0.6-0.1,1.2-0.3,1.8-0.6v1.9c-0.6,0.3-1.2,0.5-1.8,0.6S433,73.2,432.2,73.2z M431.8,63.4c-0.8,0-1.4,0.2-1.8,0.7
			s-0.7,1.2-0.8,2.1h5.1c0-0.9-0.2-1.6-0.7-2.1C433.1,63.7,432.5,63.4,431.8,63.4z"/>
		<path class="st2" d="M449.1,73h-2.4v-6.9c0-0.9-0.2-1.5-0.5-1.9c-0.3-0.4-0.9-0.6-1.7-0.6c-1,0-1.7,0.3-2.2,0.9s-0.7,1.6-0.7,3V73
			h-2.4V61.8h1.9l0.3,1.5h0.1c0.3-0.5,0.8-0.9,1.4-1.2c0.6-0.3,1.3-0.4,2.1-0.4c2.7,0,4,1.4,4,4.1V73z"/>
		<path class="st2" d="M460,73h-8.5v-1.5l5.7-7.9h-5.3v-1.8h8v1.7l-5.6,7.7h5.7V73z"/>
		<path class="st2" d="M467.7,58.8c0-0.4,0.1-0.8,0.4-1s0.6-0.3,1-0.3c0.4,0,0.7,0.1,1,0.3s0.4,0.6,0.4,1c0,0.4-0.1,0.7-0.4,1
			s-0.6,0.3-1,0.3c-0.4,0-0.8-0.1-1-0.3S467.7,59.2,467.7,58.8z M470.2,73h-2.4V61.8h2.4V73z"/>
		<path class="st2" d="M483.5,73h-2.4v-6.9c0-0.9-0.2-1.5-0.5-1.9c-0.3-0.4-0.9-0.6-1.7-0.6c-1,0-1.7,0.3-2.2,0.9s-0.7,1.6-0.7,3V73
			h-2.4V61.8h1.9l0.3,1.5h0.1c0.3-0.5,0.8-0.9,1.4-1.2c0.6-0.3,1.3-0.4,2.1-0.4c2.7,0,4,1.4,4,4.1V73z"/>
		<path class="st2" d="M492.4,58.2h4.4c2,0,3.5,0.3,4.4,0.9c0.9,0.6,1.4,1.5,1.4,2.8c0,0.9-0.2,1.6-0.7,2.2
			c-0.4,0.6-1.1,0.9-1.9,1.1v0.1c1,0.2,1.8,0.6,2.3,1.2c0.5,0.6,0.7,1.4,0.7,2.3c0,1.3-0.5,2.4-1.4,3.1c-0.9,0.8-2.2,1.1-3.9,1.1
			h-5.4V58.2z M494.9,64.3h2.3c1,0,1.8-0.2,2.2-0.5s0.7-0.9,0.7-1.6c0-0.7-0.3-1.2-0.8-1.5c-0.5-0.3-1.3-0.5-2.4-0.5h-2.1V64.3z
			 M494.9,66.3V71h2.6c1,0,1.8-0.2,2.3-0.6s0.8-1,0.8-1.8c0-0.8-0.3-1.3-0.8-1.7c-0.5-0.4-1.3-0.6-2.4-0.6H494.9z"/>
		<path class="st2" d="M510.8,73.2c-1.7,0-3.1-0.5-4.1-1.5c-1-1-1.5-2.4-1.5-4.2c0-1.8,0.5-3.3,1.4-4.3c0.9-1,2.2-1.6,3.8-1.6
			c1.5,0,2.7,0.5,3.5,1.3c0.9,0.9,1.3,2.1,1.3,3.7V68h-7.5c0,1.1,0.3,1.9,0.9,2.5c0.6,0.6,1.3,0.9,2.3,0.9c0.7,0,1.3-0.1,1.9-0.2
			c0.6-0.1,1.2-0.3,1.8-0.6v1.9c-0.6,0.3-1.2,0.5-1.8,0.6S511.6,73.2,510.8,73.2z M510.4,63.4c-0.8,0-1.4,0.2-1.8,0.7
			s-0.7,1.2-0.8,2.1h5.1c0-0.9-0.2-1.6-0.7-2.1C511.7,63.7,511.1,63.4,510.4,63.4z"/>
		<path class="st2" d="M523.6,61.6c0.5,0,0.9,0,1.2,0.1l-0.2,2.2c-0.3-0.1-0.7-0.1-1.1-0.1c-1,0-1.7,0.3-2.3,0.9
			c-0.6,0.6-0.9,1.4-0.9,2.4V73h-2.4V61.8h1.9l0.3,2h0.1c0.4-0.7,0.9-1.2,1.5-1.6C522.2,61.8,522.9,61.6,523.6,61.6z"/>
		<path class="st2" d="M529.2,73h-2.4V57.2h2.4V73z"/>
		<path class="st2" d="M532.5,58.8c0-0.4,0.1-0.8,0.4-1s0.6-0.3,1-0.3c0.4,0,0.7,0.1,1,0.3s0.3,0.6,0.3,1c0,0.4-0.1,0.7-0.3,1
			s-0.6,0.3-1,0.3c-0.4,0-0.8-0.1-1-0.3S532.5,59.2,532.5,58.8z M535,73h-2.4V61.8h2.4V73z"/>
		<path class="st2" d="M548.3,73h-2.4v-6.9c0-0.9-0.2-1.5-0.5-1.9c-0.3-0.4-0.9-0.6-1.7-0.6c-1,0-1.7,0.3-2.2,0.9s-0.7,1.6-0.7,3V73
			h-2.4V61.8h1.9l0.3,1.5h0.1c0.3-0.5,0.8-0.9,1.4-1.2c0.6-0.3,1.3-0.4,2.1-0.4c2.7,0,4,1.4,4,4.1V73z"/>
		<path class="st2" d="M564,73l-0.5-1.6h-0.1c-0.5,0.7-1.1,1.1-1.6,1.4c-0.5,0.2-1.3,0.4-2.1,0.4c-1.1,0-2-0.3-2.6-0.9
			c-0.6-0.6-0.9-1.4-0.9-2.5c0-1.2,0.4-2,1.3-2.6c0.9-0.6,2.2-0.9,3.9-1l1.9-0.1v-0.6c0-0.7-0.2-1.3-0.5-1.6
			c-0.3-0.4-0.9-0.5-1.6-0.5c-0.6,0-1.1,0.1-1.7,0.3c-0.5,0.2-1,0.4-1.5,0.6l-0.8-1.7c0.6-0.3,1.3-0.6,2-0.7c0.7-0.2,1.4-0.2,2-0.2
			c1.4,0,2.5,0.3,3.2,0.9c0.7,0.6,1.1,1.6,1.1,2.9V73H564z M560.5,71.4c0.9,0,1.6-0.2,2.1-0.7c0.5-0.5,0.8-1.2,0.8-2v-1l-1.4,0.1
			c-1.1,0-1.9,0.2-2.5,0.6c-0.5,0.3-0.8,0.8-0.8,1.5c0,0.5,0.1,0.9,0.4,1.2C559.4,71.3,559.9,71.4,560.5,71.4z"/>
		<path class="st2" d="M578.5,73h-2.4v-6.9c0-0.9-0.2-1.5-0.5-1.9c-0.3-0.4-0.8-0.6-1.5-0.6c-0.9,0-1.6,0.3-2,0.9
			c-0.4,0.6-0.6,1.6-0.6,3V73h-2.4V61.8h1.9l0.3,1.5h0.1c0.3-0.5,0.8-0.9,1.4-1.2c0.6-0.3,1.2-0.4,2-0.4c1.7,0,2.9,0.6,3.4,1.8h0.2
			c0.3-0.6,0.8-1,1.4-1.3c0.6-0.3,1.3-0.5,2.1-0.5c1.3,0,2.3,0.3,2.9,1c0.6,0.7,0.9,1.7,0.9,3.1V73h-2.4v-6.9c0-0.9-0.2-1.5-0.5-1.9
			s-0.8-0.6-1.5-0.6c-0.9,0-1.6,0.3-2,0.9s-0.6,1.5-0.6,2.7V73z"/>
		<path class="st2" d="M603.6,73h-10.1v-1.8l3.8-3.8c1.1-1.2,1.9-2,2.2-2.5c0.4-0.5,0.6-0.9,0.8-1.4s0.3-0.9,0.3-1.4
			c0-0.7-0.2-1.2-0.6-1.6s-1-0.6-1.7-0.6c-0.6,0-1.1,0.1-1.6,0.3c-0.5,0.2-1.1,0.6-1.8,1.1l-1.3-1.6c0.8-0.7,1.6-1.2,2.4-1.5
			s1.6-0.4,2.5-0.4c1.4,0,2.5,0.4,3.3,1.1s1.2,1.7,1.2,2.9c0,0.7-0.1,1.3-0.4,1.9c-0.2,0.6-0.6,1.2-1.1,1.9s-1.3,1.5-2.5,2.6
			l-2.6,2.5v0.1h7V73z"/>
		<path class="st2" d="M615.5,65.6c0,2.6-0.4,4.5-1.2,5.7c-0.8,1.3-2.1,1.9-3.8,1.9c-1.7,0-2.9-0.6-3.8-1.9s-1.3-3.2-1.3-5.7
			c0-2.6,0.4-4.5,1.2-5.8c0.8-1.2,2.1-1.9,3.8-1.9c1.7,0,2.9,0.7,3.8,1.9C615,61.2,615.5,63.1,615.5,65.6z M607.8,65.6
			c0,2,0.2,3.5,0.6,4.3c0.4,0.9,1.1,1.3,2,1.3c0.9,0,1.6-0.4,2-1.3c0.4-0.9,0.6-2.3,0.6-4.3c0-2-0.2-3.4-0.6-4.3
			c-0.4-0.9-1.1-1.3-2-1.3c-0.9,0-1.6,0.4-2,1.3C608,62.1,607.8,63.6,607.8,65.6z"/>
		<path class="st2" d="M617.7,71.8c0-0.5,0.1-0.9,0.4-1.1s0.6-0.4,1.1-0.4c0.5,0,0.9,0.1,1.1,0.4s0.4,0.6,0.4,1.1
			c0,0.5-0.1,0.9-0.4,1.1s-0.6,0.4-1.1,0.4s-0.9-0.1-1.1-0.4S617.7,72.3,617.7,71.8z"/>
		<path class="st2" d="M628.4,69.1c0-0.9,0.2-1.7,0.6-2.3c0.4-0.7,1.2-1.3,2.3-2c-0.6-0.8-1.1-1.4-1.3-1.9s-0.3-1.1-0.3-1.6
			c0-1,0.4-1.8,1.1-2.4c0.7-0.6,1.7-0.9,3-0.9c1.2,0,2.1,0.3,2.8,0.9c0.7,0.6,1,1.4,1,2.3c0,0.8-0.2,1.5-0.7,2.1s-1.2,1.3-2.3,1.9
			l3.5,3.4c0.5-0.7,1-1.8,1.4-3.2h2.5c-0.5,1.9-1.2,3.5-2.3,4.7l3.1,3h-3.1l-1.5-1.5c-0.7,0.6-1.4,1-2.2,1.3
			c-0.8,0.3-1.6,0.4-2.6,0.4c-1.6,0-2.8-0.4-3.7-1.1C628.9,71.4,628.4,70.4,628.4,69.1z M633.6,71.2c1.2,0,2.3-0.4,3.2-1.1l-3.9-3.8
			c-0.7,0.5-1.2,0.9-1.5,1.3s-0.4,0.9-0.4,1.4c0,0.7,0.2,1.2,0.7,1.6C632.1,71,632.8,71.2,633.6,71.2z M632,61.4
			c0,0.4,0.1,0.8,0.3,1.2s0.5,0.8,0.9,1.2c0.8-0.4,1.3-0.8,1.6-1.2s0.5-0.8,0.5-1.3c0-0.4-0.1-0.8-0.4-1.1c-0.3-0.3-0.7-0.4-1.2-0.4
			c-0.5,0-1,0.1-1.3,0.4C632.2,60.6,632,60.9,632,61.4z"/>
		<path class="st2" d="M659.2,73h-10.1v-1.8l3.8-3.8c1.1-1.2,1.9-2,2.2-2.5c0.4-0.5,0.6-0.9,0.8-1.4s0.3-0.9,0.3-1.4
			c0-0.7-0.2-1.2-0.6-1.6s-1-0.6-1.7-0.6c-0.6,0-1.1,0.1-1.6,0.3c-0.5,0.2-1.1,0.6-1.8,1.1l-1.3-1.6c0.8-0.7,1.6-1.2,2.4-1.5
			s1.6-0.4,2.5-0.4c1.4,0,2.5,0.4,3.3,1.1s1.2,1.7,1.2,2.9c0,0.7-0.1,1.3-0.4,1.9c-0.2,0.6-0.6,1.2-1.1,1.9s-1.3,1.5-2.5,2.6
			l-2.6,2.5v0.1h7V73z"/>
		<path class="st2" d="M668,73h-2.4v-9.6c0-1.1,0-2,0.1-2.7c-0.2,0.2-0.3,0.3-0.6,0.5s-1,0.8-2.3,1.9l-1.2-1.5l4.4-3.4h2V73z"/>
		<path class="st2" d="M673.3,71.8c0-0.5,0.1-0.9,0.4-1.1s0.6-0.4,1.1-0.4c0.5,0,0.9,0.1,1.1,0.4s0.4,0.6,0.4,1.1
			c0,0.5-0.1,0.9-0.4,1.1s-0.6,0.4-1.1,0.4s-0.9-0.1-1.1-0.4S673.3,72.3,673.3,71.8z"/>
		<path class="st2" d="M693.6,69c0,1.3-0.5,2.4-1.4,3.1s-2.3,1.1-3.9,1.1s-3.1-0.3-4.1-0.8v-2.3c0.7,0.3,1.4,0.6,2.2,0.8
			c0.8,0.2,1.5,0.3,2.1,0.3c1,0,1.7-0.2,2.1-0.5c0.5-0.4,0.7-0.9,0.7-1.5c0-0.6-0.2-1-0.6-1.4c-0.4-0.4-1.3-0.8-2.6-1.4
			c-1.4-0.5-2.3-1.2-2.9-1.9c-0.6-0.7-0.8-1.5-0.8-2.5c0-1.2,0.4-2.2,1.3-2.9c0.9-0.7,2.1-1.1,3.5-1.1c1.4,0,2.8,0.3,4.2,0.9l-0.8,2
			c-1.3-0.6-2.5-0.8-3.5-0.8c-0.8,0-1.4,0.2-1.8,0.5s-0.6,0.8-0.6,1.4c0,0.4,0.1,0.7,0.2,1c0.2,0.3,0.4,0.5,0.8,0.8s1,0.6,2,1
			c1.1,0.5,1.9,0.9,2.4,1.3c0.5,0.4,0.9,0.8,1.1,1.3C693.5,67.8,693.6,68.3,693.6,69z"/>
		<path class="st2" d="M701.1,73.2c-1.7,0-3.1-0.5-4.1-1.5s-1.5-2.4-1.5-4.2c0-1.8,0.5-3.3,1.4-4.3c0.9-1,2.2-1.6,3.8-1.6
			c1.5,0,2.7,0.5,3.5,1.3c0.9,0.9,1.3,2.1,1.3,3.7V68H698c0,1.1,0.3,1.9,0.9,2.5c0.6,0.6,1.3,0.9,2.3,0.9c0.7,0,1.3-0.1,1.9-0.2
			c0.6-0.1,1.2-0.3,1.8-0.6v1.9c-0.6,0.3-1.2,0.5-1.8,0.6C702.6,73.2,701.9,73.2,701.1,73.2z M700.7,63.4c-0.8,0-1.4,0.2-1.8,0.7
			c-0.5,0.5-0.7,1.2-0.8,2.1h5.1c0-0.9-0.2-1.6-0.7-2.1C702,63.7,701.4,63.4,700.7,63.4z"/>
		<path class="st2" d="M713.9,73.2c-1.4,0-2.5-0.5-3.3-1.5h-0.1c0.1,0.9,0.1,1.5,0.1,1.7V78h-2.4V61.8h1.9c0.1,0.2,0.2,0.7,0.3,1.5
			h0.1c0.7-1.1,1.9-1.7,3.3-1.7c1.4,0,2.5,0.5,3.3,1.5c0.8,1,1.2,2.4,1.2,4.3c0,1.8-0.4,3.3-1.2,4.3S715.3,73.2,713.9,73.2z
			 M713.3,63.6c-0.9,0-1.6,0.3-2.1,0.8s-0.7,1.4-0.7,2.7v0.4c0,1.4,0.2,2.4,0.6,3c0.4,0.6,1.1,0.9,2.1,0.9c0.8,0,1.5-0.3,1.9-1
			c0.4-0.7,0.7-1.6,0.7-2.9c0-1.3-0.2-2.2-0.7-2.9S714.2,63.6,713.3,63.6z"/>
		<path class="st2" d="M725.3,71.3c0.6,0,1.2-0.1,1.7-0.3v1.8c-0.3,0.1-0.6,0.2-1,0.3c-0.4,0.1-0.8,0.1-1.3,0.1
			c-2.3,0-3.4-1.2-3.4-3.6v-6h-1.5v-1.1l1.6-0.9l0.8-2.4h1.5v2.5h3.2v1.8h-3.2v6c0,0.6,0.1,1,0.4,1.3
			C724.5,71.2,724.9,71.3,725.3,71.3z"/>
		<path class="st2" d="M734.2,73.2c-1.7,0-3.1-0.5-4.1-1.5s-1.5-2.4-1.5-4.2c0-1.8,0.5-3.3,1.4-4.3c0.9-1,2.2-1.6,3.8-1.6
			c1.5,0,2.7,0.5,3.5,1.3c0.9,0.9,1.3,2.1,1.3,3.7V68h-7.5c0,1.1,0.3,1.9,0.9,2.5c0.6,0.6,1.3,0.9,2.3,0.9c0.7,0,1.3-0.1,1.9-0.2
			c0.6-0.1,1.2-0.3,1.8-0.6v1.9c-0.6,0.3-1.2,0.5-1.8,0.6C735.7,73.2,735,73.2,734.2,73.2z M733.8,63.4c-0.8,0-1.4,0.2-1.8,0.7
			c-0.5,0.5-0.7,1.2-0.8,2.1h5.1c0-0.9-0.2-1.6-0.7-2.1C735.1,63.7,734.5,63.4,733.8,63.4z"/>
		<path class="st2" d="M750.7,73h-2.4v-6.9c0-0.9-0.2-1.5-0.5-1.9c-0.3-0.4-0.8-0.6-1.5-0.6c-0.9,0-1.6,0.3-2,0.9
			c-0.4,0.6-0.6,1.6-0.6,3V73h-2.4V61.8h1.9l0.3,1.5h0.1c0.3-0.5,0.8-0.9,1.4-1.2c0.6-0.3,1.2-0.4,2-0.4c1.7,0,2.9,0.6,3.4,1.8h0.2
			c0.3-0.6,0.8-1,1.4-1.3c0.6-0.3,1.3-0.5,2.1-0.5c1.3,0,2.3,0.3,2.9,1c0.6,0.7,0.9,1.7,0.9,3.1V73h-2.4v-6.9c0-0.9-0.2-1.5-0.5-1.9
			s-0.8-0.6-1.5-0.6c-0.9,0-1.6,0.3-2,0.9s-0.6,1.5-0.6,2.7V73z"/>
		<path class="st2" d="M766.9,61.6c1.4,0,2.5,0.5,3.3,1.5c0.8,1,1.2,2.4,1.2,4.3c0,1.8-0.4,3.3-1.2,4.3c-0.8,1-1.9,1.5-3.3,1.5
			c-1.4,0-2.5-0.5-3.3-1.5h-0.2l-0.4,1.3h-1.8V57.2h2.4V61c0,0.3,0,0.7,0,1.2s0,0.9-0.1,1h0.1C764.3,62.2,765.4,61.6,766.9,61.6z
			 M766.3,63.6c-1,0-1.7,0.3-2.1,0.8c-0.4,0.6-0.6,1.5-0.7,2.8v0.2c0,1.4,0.2,2.4,0.6,3c0.4,0.6,1.1,0.9,2.1,0.9
			c0.8,0,1.5-0.3,1.9-1c0.4-0.7,0.7-1.6,0.7-2.9C768.9,64.8,768,63.6,766.3,63.6z"/>
		<path class="st2" d="M779,73.2c-1.7,0-3.1-0.5-4.1-1.5s-1.5-2.4-1.5-4.2c0-1.8,0.5-3.3,1.4-4.3c0.9-1,2.2-1.6,3.8-1.6
			c1.5,0,2.7,0.5,3.5,1.3c0.9,0.9,1.3,2.1,1.3,3.7V68h-7.5c0,1.1,0.3,1.9,0.9,2.5c0.6,0.6,1.3,0.9,2.3,0.9c0.7,0,1.3-0.1,1.9-0.2
			c0.6-0.1,1.2-0.3,1.8-0.6v1.9c-0.6,0.3-1.2,0.5-1.8,0.6C780.4,73.2,779.8,73.2,779,73.2z M778.6,63.4c-0.8,0-1.4,0.2-1.8,0.7
			c-0.5,0.5-0.7,1.2-0.8,2.1h5.1c0-0.9-0.2-1.6-0.7-2.1C779.9,63.7,779.3,63.4,778.6,63.4z"/>
		<path class="st2" d="M791.8,61.6c0.5,0,0.9,0,1.2,0.1l-0.2,2.2c-0.3-0.1-0.7-0.1-1.1-0.1c-1,0-1.7,0.3-2.3,0.9
			c-0.6,0.6-0.9,1.4-0.9,2.4V73h-2.4V61.8h1.9l0.3,2h0.1c0.4-0.7,0.9-1.2,1.5-1.6C790.4,61.8,791.1,61.6,791.8,61.6z"/>
	</g>
</g>
</svg>
