<?xml version="1.0" encoding="utf-8"?>
<!-- Generator: Adobe Illustrator 22.1.0, SVG Export Plug-In . SVG Version: 6.00 Build 0)  -->
<svg version="1.1" id="Ebene_1" xmlns="http://www.w3.org/2000/svg" xmlns:xlink="http://www.w3.org/1999/xlink" x="0px" y="0px"
	 viewBox="0 0 767 331" style="enable-background:new 0 0 767 331;" xml:space="preserve">
<style type="text/css">
	.st0{fill:#ECECEC;}
	.st1{fill:#F31951;}
	.st2{fill:#007BA5;}
	.st3{fill:#FFFFFF;}
</style>
<rect class="st0" width="767" height="331"/>
<g>
	<path class="st1" d="M457,51.4h-2.5c-0.6,0-1,0.4-1,1V59c0,0.6,0.4,1,1,1h2.5c0.6,0,1-0.4,1-1v-6.6C458.1,51.8,457.6,51.4,457,51.4
		z"/>
	<path class="st2" d="M456.2,41.2h-0.6c-0.6,0-1,0.4-1,1v6.6c0,0.6,0.4,1,1,1h0.6c0.6,0,1-0.4,1-1v-6.6
		C457,41.7,456.6,41.2,456.2,41.2z"/>
	<path class="st1" d="M456.2,30.9h-0.6c-0.6,0-1,0.4-1,1v6.6c0,0.6,0.4,1,1,1h0.6c0.6,0,1-0.4,1-1v-6.6
		C457,31.5,456.6,30.9,456.2,30.9z"/>
	<path class="st2" d="M455.7,20.7L455.7,20.7c-0.7,0-1.3,0.6-1.3,1.3v6.3c0,0.6,0.4,1,1,1h0.6c0.6,0,1-0.4,1-1V22
		C457,21.3,456.5,20.7,455.7,20.7z"/>
	<g>
		<g>
			<path class="st1" d="M255,76.3c0,1-0.7,1.9-1.9,1.9c-1.5,0-2.5-1.5-5.2-1.5c-4.7,0-7.6,4.2-7.6,9.8c0,5.2,2.6,9.8,7.6,9.8
				c1.6,0,2.6-0.3,4.1-1.2c0.4-0.3,0.7-0.3,1.2-0.3c1,0,1.7,0.6,1.7,1.9c0,1.9-2.8,3.3-6.8,3.3c-7.3,0-11.8-5.7-11.8-13.4
				s4.5-13.4,11.8-13.4C252.2,73,255,74.4,255,76.3z"/>
			<path class="st1" d="M276.7,76.4L276.7,76.4l0.1-1.5c0-1.2,0.9-2,2-2s2,0.9,2,2v22.9c0,1.2-0.9,2-2,2c-1.2,0-2-0.7-2-2.2V96h-0.1
				c-1.9,2.8-4.4,3.9-7.1,3.9c-7.3,0-11.5-6.4-11.5-13.2c0-8,4.8-13.7,11.5-13.7C272.6,73,274.7,74.3,276.7,76.4z M269.6,96.1
				c4.7,0,7.3-4.2,7.3-9.8c0-5.7-2.6-9.8-7.3-9.8c-4.4,0-7.1,3.9-7.1,9.8C262.4,91.9,264.9,96.1,269.6,96.1z"/>
			<path class="st1" d="M291,75.6v0.6l0.1,0.1c1.7-2.3,3.6-3.2,6.7-3.2s5.5,1.5,7.3,4.4c2.2-3.2,4.7-4.4,8-4.4
				c5.2,0,9.2,3.8,9.2,9.8v14.8c0,1.2-0.7,2.2-2.2,2.2s-2.2-1-2.2-2.2V82.6c0-3.5-2-6-5.7-6c-3.5,0-5.5,2.3-5.5,6v15
				c0,1.2-0.7,2.2-2.2,2.2s-2.2-1-2.2-2.2v-15c0-3.5-2-6-5.7-6c-3.5,0-5.5,2.3-5.5,6v15c0,1.2-0.7,2.2-2.2,2.2s-2.2-1-2.2-2.2V75.1
				c0-1.2,0.7-2.2,2.2-2.2C289.9,73,291,73.5,291,75.6z"/>
			<path class="st1" d="M332.1,75.1v14.3c0,4.2,1.9,6.7,6.1,6.7s6.1-2.5,6.1-6.7V75.1c0-1.2,0.7-2.2,2.2-2.2s2.2,1,2.2,2.2v14.4
				c0,6.4-3.9,10.3-10.5,10.3c-6.4,0-10.5-3.9-10.5-10.3V75.1c0-1.2,0.7-2.2,2.2-2.2S332.1,74,332.1,75.1z"/>
			<path class="st1" d="M358.8,75.6v0.7l0.1,0.1c1.9-2.5,4.7-3.5,7.3-3.5c5.1,0,9.2,3.8,9.2,9.8v14.8c0,1.2-0.7,2.2-2.2,2.2
				s-2.2-1-2.2-2.2V83c0-3.8-2.5-6.3-6.1-6.3c-3.5,0-6.1,2.6-6.1,6.3v14.6c0,1.2-0.7,2.2-2.2,2.2s-2.2-1-2.2-2.2V75.1
				c0-1.2,0.7-2.2,2.2-2.2C357.6,73,358.8,73.4,358.8,75.6z"/>
			<path class="st1" d="M402.6,63.6v34.1c0,1.2-0.7,2.2-2.2,2.2c-1.3,0-2.2-0.9-2.2-2.3v-1.3h-0.1c-1.3,2.5-3.6,3.6-7,3.6
				c-7,0-11.2-6.4-11.2-13.2c0-7.6,4.4-13.7,11.1-13.7c2.9,0,5.4,1.2,7.1,3.5h0.1v-13c0-1.2,0.7-2.2,2.2-2.2
				C401.7,61.5,402.6,62.3,402.6,63.6z M391.4,96.1c4.7,0,7.3-4.2,7.3-9.8c0-5.7-2.8-9.8-7.3-9.8c-4.4,0-7.1,3.9-7.1,9.8
				C384.3,91.9,386.7,96.1,391.4,96.1z"/>
			<path class="st1" d="M426,76.4L426,76.4l0.1-1.5c0-1.2,0.9-2,2-2s2,0.9,2,2v22.9c0,1.2-0.9,2-2,2s-2-0.7-2-2.2V96H426
				c-1.9,2.8-4.4,3.9-7.1,3.9c-7.3,0-11.5-6.4-11.5-13.2c0-8,4.8-13.7,11.5-13.7C422,73,424,74.3,426,76.4z M418.9,96.1
				c4.7,0,7.3-4.2,7.3-9.8c0-5.7-2.6-9.8-7.3-9.8c-4.4,0-7.1,3.9-7.1,9.8C411.6,91.9,414.2,96.1,418.9,96.1z"/>
		</g>
	</g>
	<g>
		<path class="st1" d="M378.6,113.4c0,1-0.7,1.9-1.9,1.9c-1.5,0-2.5-1.5-5.2-1.5c-4.7,0-7.6,4.2-7.6,9.8c0,5.2,2.6,9.8,7.6,9.8
			c1.6,0,2.6-0.3,4.1-1.2c0.4-0.3,0.7-0.3,1.2-0.3c1,0,1.7,0.6,1.7,1.9c0,1.9-2.8,3.3-6.8,3.3c-7.3,0-11.8-5.7-11.8-13.4
			s4.5-13.4,11.8-13.4C375.8,110.1,378.6,111.5,378.6,113.4z"/>
		<path class="st1" d="M404.8,123.5c0,7.3-4.2,13.5-11.5,13.5c-7.7,0-11.6-6.8-11.6-13.1c0-8,4.7-13.8,11.5-13.8
			C400.3,110.1,404.8,116.2,404.8,123.5z M393.1,133.2c4.7,0,7.3-4.1,7.3-9.8s-2.8-9.8-7.3-9.8c-4.4,0-7.1,3.9-7.1,9.8
			C386,129.1,388.5,133.2,393.1,133.2z"/>
		<path class="st1" d="M413.7,112.7v0.7l0.1,0.1c1.9-2.5,4.7-3.5,7.3-3.5c5.1,0,9.2,3.8,9.2,9.8v14.8c0,1.2-0.7,2.2-2.2,2.2
			s-2.2-1-2.2-2.2V120c0-3.8-2.5-6.3-6.1-6.3c-3.5,0-6.1,2.6-6.1,6.3v14.6c0,1.2-0.7,2.2-2.2,2.2s-2.2-1-2.2-2.2v-22.4
			c0-1.2,0.7-2.2,2.2-2.2C412.5,110.1,413.7,110.5,413.7,112.7z"/>
	</g>
	<g>
		<path class="st2" d="M486.6,78.2c1.6,0.1,2.6,1.5,2.6,2.9c0,2-1.6,3.5-3.8,3.5h-2.9c-0.4,0-0.7-0.3-0.7-0.7V73.5
			c0-0.4,0.3-0.7,0.7-0.7h2.6c1.9,0,3.2,1.3,3.2,2.9C488.2,76.7,487.6,77.9,486.6,78.2L486.6,78.2z M484.8,77.8c1,0,1.9-0.7,1.9-1.9
			S486,74,484.8,74h-1.7v3.8H484.8L484.8,77.8z M485.3,83.3c1.5,0,2.5-0.9,2.5-2.2s-1-2.2-2.3-2.2h-2.3v4.4
			C483.2,83.3,485.3,83.3,485.3,83.3z"/>
		<path class="st2" d="M492.4,84.6c-0.4,0-0.7-0.3-0.7-0.7V73.5c0-0.4,0.3-0.7,0.7-0.7h4.4c0.4,0,0.7,0.1,0.7,0.7s-0.3,0.7-0.7,0.7
			h-3.5v3.9h3.2c0.3,0,0.7,0.1,0.7,0.7c0,0.4-0.3,0.7-0.7,0.7h-3.2V83h3.5c0.4,0,0.7,0.1,0.7,0.7s-0.3,0.7-0.7,0.7h-4.4V84.6z"/>
		<path class="st2" d="M506.1,78.6c-0.6,0.4-1.2,0.7-2.8,0.7l3.8,4.1c0.3,0.3,0.3,0.4,0.3,0.7s-0.3,0.6-0.7,0.6
			c-0.4,0-0.7-0.4-1.2-1l-3.9-4.4v4.5c0,0.4-0.3,0.7-0.7,0.7c-0.4,0-0.7-0.3-0.7-0.7V73.4c0-0.4,0.3-0.7,0.7-0.7h2.6
			c1.9,0,3.8,1,3.8,3.2C507.3,77,506.8,77.9,506.1,78.6z M503.6,78.2c1.5,0,2.2-0.6,2.2-2.2c0-1.2-1-2-2.2-2h-2v4.2H503.6z"/>
		<path class="st2" d="M511.2,73.4v9.8h3.2c0.3,0,0.7,0.1,0.7,0.7s-0.3,0.7-0.7,0.7h-3.9c-0.4,0-0.7-0.3-0.7-0.7V73.4
			c0-0.4,0.3-0.7,0.7-0.7S511.2,73,511.2,73.4z"/>
		<path class="st2" d="M518.6,73.4V84c0,0.4-0.3,0.7-0.7,0.7s-0.7-0.3-0.7-0.7V73.4c0-0.4,0.3-0.7,0.7-0.7S518.6,73,518.6,73.4z"/>
		<path class="st2" d="M523.3,73.2l6.1,8.7l0,0v-8.6c0-0.4,0.3-0.7,0.7-0.7s0.7,0.3,0.7,0.7v10.5c0,0.4-0.1,0.9-0.7,0.9
			c-0.4,0-0.6-0.1-0.9-0.6l-6.1-8.9l0,0V84c0,0.4-0.3,0.7-0.7,0.7s-0.7-0.3-0.7-0.7V73.5c0-0.4,0.1-0.9,0.7-0.9
			C522.7,72.5,523,72.8,523.3,73.2z"/>
	</g>
	<g>
		<path class="st2" d="M488.8,91c0,1-0.3,1.7-0.7,2.3l-4.1,5.4h4.5c0.3,0,0.6,0.3,0.6,0.6s-0.3,0.6-0.6,0.6h-5.8
			c-0.4,0-0.7-0.3-0.7-0.6s0.3-0.6,0.9-1.3l3.6-4.8c0.6-0.7,0.9-1.5,0.9-2c0-1-0.9-1.9-1.9-1.9c-1.3,0-2.2,1.2-2.2,2.6
			c0,0.4-0.3,0.7-0.6,0.7c-0.4,0-0.7-0.3-0.7-0.9c0-2,1.5-3.6,3.8-3.6C487.3,88.1,488.8,89.3,488.8,91z"/>
		<path class="st2" d="M499.2,94.1c0,3.9-1.7,6.1-3.9,6.1c-2.3,0-3.9-2.3-3.9-6s1.7-6,3.9-6C497.5,88.1,499.2,90.3,499.2,94.1z
			 M495.3,98.9c1.5,0,2.3-1.7,2.3-4.8s-0.9-4.8-2.3-4.8s-2.3,1.6-2.3,4.8C492.8,97.1,493.9,98.9,495.3,98.9z"/>
		<path class="st2" d="M504.9,99.3c0,0.4-0.3,0.7-0.7,0.7c-0.4,0-0.7-0.3-0.7-0.7v-9.9h-1.6c-0.3,0-0.6-0.3-0.6-0.6
			c0-0.4,0.3-0.6,0.6-0.6h2.6c0.3,0,0.4,0.1,0.4,0.4L504.9,99.3L504.9,99.3z"/>
		<path class="st2" d="M515.1,90.7c0,1.2-0.4,1.9-1.6,2.6c1.3,0.3,2.2,1.5,2.2,2.9c0,2-1.5,3.8-3.6,3.8s-3.6-1.7-3.6-3.8
			c0-1.5,0.9-2.6,2.2-2.9c-1.2-0.7-1.6-1.5-1.6-2.6c0-1.6,1.3-2.8,3.1-2.8C513.8,88.1,515.1,89.1,515.1,90.7z M512.1,98.9
			c1.2,0,2-1,2-2.5c0-1.3-0.9-2.3-2-2.3c-1.2,0-2,1-2,2.3C510,97.8,510.9,98.9,512.1,98.9z M512.1,92.8c1,0,1.6-0.7,1.6-1.7
			s-0.6-1.7-1.6-1.7s-1.6,0.7-1.6,1.7C510.5,92.2,511,92.8,512.1,92.8z"/>
	</g>
	<path class="st2" d="M451.9,98.9v3.2h-1.3v4.2h1.6l-0.9,30.7h8.9l-0.9-30.7h1.6v-4.2h-1.3V99c5.7-1.6,9.9-6.8,9.9-13.1
		c0-5.7-3.5-10.6-8.6-12.7v-8.6h0.3c0.6,0,1-0.4,1-1v-0.9c0-0.6-0.4-1-1-1h-10.9c-0.6,0-1,0.4-1,1v0.9c0,0.6,0.4,1,1,1h0.3v8.7
		c-4.8,2-8.3,6.8-8.3,12.5C442.3,92,446.4,97.1,451.9,98.9z"/>
</g>
<g>
	<g>
		<path class="st1" d="M489.6,306H277.5c-1.7,0-3-1.3-3-3v-45.6c0-1.7,1.3-3,3-3h212.1c1.7,0,3,1.3,3,3V303
			C492.6,304.7,491.3,306,489.6,306z"/>
	</g>
	<g>
		<path class="st3" d="M296,281.9v8.2h-3.3v-20.4h5.8c2.6,0,4.6,0.5,5.9,1.5s1.9,2.5,1.9,4.5c0,2.5-1.3,4.4-4,5.4l5.8,9h-3.8
			l-4.9-8.2H296z M296,279.2h2.3c1.6,0,2.7-0.3,3.4-0.9c0.7-0.6,1-1.4,1-2.6s-0.4-2-1.1-2.5c-0.8-0.5-1.9-0.8-3.4-0.8H296V279.2z"/>
		<path class="st3" d="M317.4,290.4c-2.4,0-4.3-0.7-5.6-2.1c-1.4-1.4-2-3.3-2-5.8s0.6-4.5,1.9-6c1.3-1.4,3-2.2,5.2-2.2
			c2,0,3.7,0.6,4.8,1.9c1.2,1.2,1.8,2.9,1.8,5.1v1.8h-10.3c0,1.5,0.5,2.7,1.2,3.5c0.8,0.8,1.8,1.2,3.2,1.2c0.9,0,1.8-0.1,2.6-0.3
			s1.6-0.5,2.5-0.9v2.7c-0.8,0.4-1.6,0.7-2.4,0.8S318.4,290.4,317.4,290.4z M316.8,276.9c-1,0-1.9,0.3-2.5,1s-1,1.6-1.1,2.9h7
			c0-1.3-0.3-2.2-0.9-2.9C318.7,277.2,317.8,276.9,316.8,276.9z"/>
		<path class="st3" d="M340.2,274.7v1.8l-2.6,0.5c0.2,0.3,0.4,0.7,0.6,1.2s0.2,1,0.2,1.5c0,1.6-0.6,2.8-1.7,3.8
			c-1.1,0.9-2.6,1.4-4.5,1.4c-0.5,0-0.9,0-1.3-0.1c-0.7,0.4-1.1,1-1.1,1.5c0,0.4,0.2,0.6,0.5,0.8c0.3,0.2,0.9,0.3,1.8,0.3h2.7
			c1.7,0,3,0.4,3.9,1.1s1.3,1.8,1.3,3.1c0,1.8-0.7,3.1-2.2,4.1c-1.4,1-3.5,1.4-6.3,1.4c-2.1,0-3.7-0.4-4.8-1.1
			c-1.1-0.7-1.7-1.8-1.7-3.2c0-1,0.3-1.7,0.9-2.4c0.6-0.6,1.4-1.1,2.5-1.3c-0.4-0.2-0.8-0.5-1.1-0.9s-0.4-0.9-0.4-1.3
			c0-0.6,0.2-1.1,0.5-1.5s0.8-0.8,1.5-1.2c-0.8-0.3-1.5-0.9-2-1.7c-0.5-0.8-0.7-1.7-0.7-2.7c0-1.7,0.5-3,1.6-3.9s2.6-1.4,4.5-1.4
			c0.4,0,0.9,0,1.4,0.1s0.8,0.1,1.1,0.2L340.2,274.7L340.2,274.7z M328,292.5c0,0.7,0.3,1.3,1,1.6s1.5,0.6,2.7,0.6
			c1.8,0,3.1-0.3,4-0.8s1.3-1.2,1.3-2c0-0.7-0.2-1.1-0.7-1.4s-1.4-0.4-2.7-0.4h-2.5c-0.9,0-1.7,0.2-2.2,0.7
			C328.3,291.2,328,291.8,328,292.5z M329.5,279.7c0,1,0.2,1.7,0.7,2.2s1.2,0.8,2.1,0.8c1.9,0,2.9-1,2.9-3c0-1-0.2-1.8-0.7-2.3
			s-1.2-0.8-2.1-0.8c-1,0-1.7,0.3-2.2,0.8C329.7,277.8,329.5,278.6,329.5,279.7z"/>
		<path class="st3" d="M342.9,270.6c0-0.6,0.2-1,0.5-1.4c0.3-0.3,0.8-0.5,1.4-0.5s1,0.2,1.3,0.5s0.5,0.8,0.5,1.4s-0.2,1-0.5,1.3
			s-0.8,0.5-1.3,0.5c-0.6,0-1.1-0.2-1.4-0.5C343,271.6,342.9,271.1,342.9,270.6z M346.3,290.1H343v-15.5h3.3V290.1z"/>
		<path class="st3" d="M361.4,285.7c0,1.5-0.6,2.7-1.7,3.5s-2.7,1.2-4.7,1.2c-2.1,0-3.7-0.3-5-0.9v-2.8c1.8,0.8,3.5,1.3,5.1,1.3
			c2,0,3-0.6,3-1.8c0-0.4-0.1-0.7-0.3-1c-0.2-0.3-0.6-0.5-1.1-0.8s-1.2-0.6-2.1-1c-1.8-0.7-3-1.4-3.6-2.1s-0.9-1.6-0.9-2.7
			c0-1.3,0.5-2.4,1.6-3.1s2.5-1.1,4.4-1.1c1.8,0,3.5,0.4,5.2,1.1l-1.1,2.5c-1.7-0.7-3.1-1-4.2-1c-1.7,0-2.6,0.5-2.6,1.5
			c0,0.5,0.2,0.9,0.7,1.2c0.5,0.3,1.4,0.8,3,1.4c1.3,0.5,2.2,0.9,2.8,1.4c0.6,0.4,1,0.9,1.3,1.4C361.3,284.3,361.4,285,361.4,285.7z
			"/>
		<path class="st3" d="M370.7,287.7c0.8,0,1.6-0.1,2.4-0.4v2.5c-0.4,0.2-0.8,0.3-1.4,0.4s-1.2,0.2-1.8,0.2c-3.1,0-4.7-1.6-4.7-4.9
			v-8.3h-2.1v-1.5l2.3-1.2l1.1-3.3h2v3.4h4.4v2.5h-4.4v8.3c0,0.8,0.2,1.4,0.6,1.8C369.6,287.5,370.1,287.7,370.7,287.7z"/>
		<path class="st3" d="M383,290.4c-2.4,0-4.3-0.7-5.6-2.1c-1.4-1.4-2-3.3-2-5.8s0.6-4.5,1.9-6c1.3-1.4,3-2.2,5.2-2.2
			c2,0,3.7,0.6,4.8,1.9c1.2,1.2,1.8,2.9,1.8,5.1v1.8h-10.3c0,1.5,0.5,2.7,1.2,3.5c0.8,0.8,1.8,1.2,3.2,1.2c0.9,0,1.8-0.1,2.6-0.3
			s1.6-0.5,2.5-0.9v2.7c-0.8,0.4-1.6,0.7-2.4,0.8S384,290.4,383,290.4z M382.4,276.9c-1,0-1.9,0.3-2.5,1s-1,1.6-1.1,2.9h7
			c0-1.3-0.3-2.2-0.9-2.9S383.4,276.9,382.4,276.9z"/>
		<path class="st3" d="M400.6,274.4c0.7,0,1.2,0,1.6,0.1l-0.3,3.1c-0.5-0.1-1-0.2-1.5-0.2c-1.3,0-2.4,0.4-3.2,1.3
			c-0.8,0.9-1.2,2-1.2,3.3v8.1h-3.3v-15.5h2.6l0.4,2.7h0.2c0.5-0.9,1.2-1.7,2-2.2C398.7,274.6,399.6,274.4,400.6,274.4z"/>
		<path class="st3" d="M429.9,290.1h-4.1l-10.1-16.3h-0.1l0.1,0.9c0.1,1.7,0.2,3.3,0.2,4.8v10.6h-3v-20.4h4.1l10,16.2h0.1
			c0-0.2-0.1-1-0.1-2.3c-0.1-1.3-0.1-2.4-0.1-3.2v-10.7h3.1v20.4H429.9z"/>
		<path class="st3" d="M448.7,282.4c0,2.5-0.6,4.5-1.9,5.9s-3.1,2.1-5.4,2.1c-1.4,0-2.7-0.3-3.8-1c-1.1-0.7-2-1.6-2.6-2.8
			c-0.6-1.2-0.9-2.6-0.9-4.2c0-2.5,0.6-4.5,1.9-5.9s3.1-2.1,5.4-2.1c2.2,0,4,0.7,5.3,2.2C448,278,448.7,279.9,448.7,282.4z
			 M437.4,282.4c0,3.6,1.3,5.4,4,5.4c2.6,0,3.9-1.8,3.9-5.4c0-3.5-1.3-5.3-3.9-5.3c-1.4,0-2.4,0.5-3,1.4
			C437.7,279.3,437.4,280.6,437.4,282.4z"/>
		<path class="st3" d="M465.1,290.1l-2-7.2c-0.2-0.8-0.7-2.5-1.3-5.3h-0.1c-0.5,2.5-1,4.3-1.3,5.4l-2.1,7.2h-3.6l-4.3-15.5h3.4
			l2,7.6c0.4,1.9,0.8,3.5,1,4.8h0.1c0.1-0.7,0.2-1.5,0.4-2.3c0.2-0.9,0.4-1.5,0.5-2l2.3-8.1h3.6l2.3,8.1c0.1,0.5,0.3,1.2,0.5,2.1
			s0.3,1.7,0.4,2.2h0.1c0.1-1.1,0.5-2.7,1-4.8l2-7.6h3.3l-4.4,15.5h-3.8V290.1z"/>
	</g>
</g>
<g>
	<path class="st2" d="M153.5,196.2c-0.9,0-1.7-0.1-2.4-0.4v-2.9c0.8,0.2,1.5,0.3,2.1,0.3c1.9,0,2.8-1.2,2.8-3.6v-20.5h3.5v20.4
		c0,2.2-0.5,3.8-1.5,5C157,195.6,155.5,196.2,153.5,196.2z"/>
	<path class="st2" d="M178.9,182.3c0,2.6-0.7,4.7-2,6.1c-1.3,1.5-3.2,2.2-5.6,2.2c-1.5,0-2.8-0.3-4-1c-1.1-0.7-2-1.6-2.7-2.9
		c-0.6-1.3-0.9-2.7-0.9-4.4c0-2.6,0.7-4.6,2-6.1c1.3-1.5,3.2-2.2,5.6-2.2c2.3,0,4.2,0.7,5.5,2.2
		C178.2,177.7,178.9,179.7,178.9,182.3z M167.2,182.3c0,3.7,1.4,5.6,4.1,5.6c2.7,0,4.1-1.9,4.1-5.6c0-3.7-1.4-5.5-4.1-5.5
		c-1.4,0-2.5,0.5-3.1,1.4C167.5,179.1,167.2,180.5,167.2,182.3z"/>
	<path class="st2" d="M182.6,170c0-0.6,0.2-1.1,0.5-1.4c0.3-0.3,0.8-0.5,1.4-0.5c0.6,0,1.1,0.2,1.4,0.5s0.5,0.8,0.5,1.4
		c0,0.6-0.2,1-0.5,1.4s-0.8,0.5-1.4,0.5c-0.6,0-1.1-0.2-1.4-0.5C182.8,171.1,182.6,170.6,182.6,170z M186.2,190.3h-3.4v-16h3.4
		V190.3z"/>
	<path class="st2" d="M205.2,190.3h-3.4v-9.9c0-1.2-0.2-2.2-0.7-2.8c-0.5-0.6-1.3-0.9-2.4-0.9c-1.4,0-2.5,0.4-3.2,1.3
		c-0.7,0.9-1,2.3-1,4.3v8h-3.4v-16h2.7l0.5,2.1h0.2c0.5-0.8,1.2-1.4,2.1-1.8c0.9-0.4,1.9-0.6,3-0.6c3.8,0,5.8,2,5.8,5.9V190.3z"/>
	<path class="st2" d="M228.9,190.3l-0.5-2.1h-0.2c-0.5,0.7-1.1,1.3-2,1.8c-0.9,0.4-1.9,0.6-3,0.6c-1.9,0-3.4-0.5-4.3-1.5
		c-1-1-1.4-2.4-1.4-4.4v-10.5h3.4v9.9c0,1.2,0.3,2.1,0.8,2.8c0.5,0.6,1.3,0.9,2.4,0.9c1.4,0,2.5-0.4,3.2-1.3c0.7-0.9,1-2.3,1-4.3v-8
		h3.4v16H228.9z"/>
	<path class="st2" d="M247.2,185.7c0,1.6-0.6,2.8-1.7,3.6s-2.8,1.3-4.9,1.3c-2.1,0-3.9-0.3-5.1-1v-2.9c1.9,0.9,3.6,1.3,5.3,1.3
		c2.1,0,3.1-0.6,3.1-1.9c0-0.4-0.1-0.7-0.3-1s-0.6-0.6-1.1-0.8c-0.5-0.3-1.3-0.6-2.2-1c-1.8-0.7-3.1-1.4-3.7-2.1s-1-1.6-1-2.8
		c0-1.4,0.6-2.4,1.7-3.2c1.1-0.8,2.6-1.1,4.5-1.1c1.9,0,3.7,0.4,5.3,1.1l-1.1,2.6c-1.7-0.7-3.2-1.1-4.4-1.1c-1.8,0-2.7,0.5-2.7,1.5
		c0,0.5,0.2,0.9,0.7,1.3c0.5,0.3,1.5,0.8,3.1,1.4c1.3,0.5,2.3,1,2.9,1.4c0.6,0.4,1,0.9,1.3,1.5C247.1,184.3,247.2,185,247.2,185.7z"
		/>
	<path class="st2" d="M268.7,190.3l-0.7-2.2h-0.1c-0.8,1-1.6,1.6-2.3,2s-1.8,0.5-3,0.5c-1.6,0-2.8-0.4-3.7-1.3
		c-0.9-0.8-1.3-2.1-1.3-3.6c0-1.7,0.6-2.9,1.8-3.7c1.2-0.8,3.1-1.3,5.6-1.4l2.8-0.1v-0.9c0-1-0.2-1.8-0.7-2.3
		c-0.5-0.5-1.2-0.8-2.2-0.8c-0.8,0-1.6,0.1-2.4,0.4c-0.8,0.2-1.5,0.5-2.2,0.9l-1.1-2.4c0.9-0.5,1.8-0.8,2.9-1c1-0.2,2-0.4,2.9-0.4
		c2,0,3.6,0.4,4.6,1.3c1,0.9,1.6,2.3,1.6,4.2v10.8H268.7z M263.6,188c1.2,0,2.2-0.3,3-1c0.7-0.7,1.1-1.7,1.1-2.9v-1.4l-2.1,0.1
		c-1.6,0.1-2.8,0.3-3.5,0.8c-0.7,0.5-1.1,1.2-1.1,2.2c0,0.7,0.2,1.3,0.6,1.7C262.1,187.8,262.7,188,263.6,188z"/>
	<path class="st2" d="M281.8,187.8c0.8,0,1.7-0.1,2.5-0.4v2.6c-0.4,0.2-0.9,0.3-1.5,0.4c-0.6,0.1-1.2,0.2-1.8,0.2
		c-3.2,0-4.8-1.7-4.8-5.1v-8.6H274v-1.5l2.3-1.2l1.2-3.4h2.1v3.6h4.6v2.6h-4.6v8.6c0,0.8,0.2,1.4,0.6,1.8
		C280.6,187.6,281.2,187.8,281.8,187.8z"/>
	<path class="st2" d="M309.5,182.3c0,2.6-0.7,4.7-2,6.1c-1.3,1.5-3.2,2.2-5.6,2.2c-1.5,0-2.8-0.3-4-1c-1.1-0.7-2-1.6-2.7-2.9
		c-0.6-1.3-0.9-2.7-0.9-4.4c0-2.6,0.7-4.6,2-6.1c1.3-1.5,3.2-2.2,5.6-2.2c2.3,0,4.2,0.7,5.5,2.2
		C308.8,177.7,309.5,179.7,309.5,182.3z M297.8,182.3c0,3.7,1.4,5.6,4.1,5.6c2.7,0,4.1-1.9,4.1-5.6c0-3.7-1.4-5.5-4.1-5.5
		c-1.4,0-2.5,0.5-3.1,1.4C298.1,179.1,297.8,180.5,297.8,182.3z"/>
	<path class="st2" d="M324.7,190.3l-0.5-2.1H324c-0.5,0.7-1.1,1.3-2,1.8c-0.9,0.4-1.9,0.6-3,0.6c-1.9,0-3.4-0.5-4.3-1.5
		c-1-1-1.4-2.4-1.4-4.4v-10.5h3.4v9.9c0,1.2,0.3,2.1,0.8,2.8c0.5,0.6,1.3,0.9,2.4,0.9c1.4,0,2.5-0.4,3.2-1.3c0.7-0.9,1-2.3,1-4.3v-8
		h3.4v16H324.7z"/>
	<path class="st2" d="M340.3,174c0.7,0,1.3,0,1.7,0.1l-0.3,3.2c-0.5-0.1-1-0.2-1.5-0.2c-1.4,0-2.5,0.4-3.3,1.3
		c-0.8,0.9-1.3,2-1.3,3.5v8.4h-3.4v-16h2.7l0.4,2.8h0.2c0.5-1,1.2-1.7,2.1-2.3C338.4,174.3,339.4,174,340.3,174z"/>
	<path class="st2" d="M362.8,190.3l-0.7-2.2H362c-0.8,1-1.6,1.6-2.3,2s-1.8,0.5-3,0.5c-1.6,0-2.8-0.4-3.7-1.3
		c-0.9-0.8-1.3-2.1-1.3-3.6c0-1.7,0.6-2.9,1.8-3.7c1.2-0.8,3.1-1.3,5.6-1.4l2.8-0.1v-0.9c0-1-0.2-1.8-0.7-2.3
		c-0.5-0.5-1.2-0.8-2.2-0.8c-0.8,0-1.6,0.1-2.4,0.4c-0.8,0.2-1.5,0.5-2.2,0.9l-1.1-2.4c0.9-0.5,1.8-0.8,2.9-1c1-0.2,2-0.4,2.9-0.4
		c2,0,3.6,0.4,4.6,1.3c1,0.9,1.6,2.3,1.6,4.2v10.8H362.8z M357.7,188c1.2,0,2.2-0.3,3-1c0.7-0.7,1.1-1.7,1.1-2.9v-1.4l-2.1,0.1
		c-1.6,0.1-2.8,0.3-3.5,0.8c-0.7,0.5-1.1,1.2-1.1,2.2c0,0.7,0.2,1.3,0.6,1.7C356.2,187.8,356.8,188,357.7,188z"/>
	<path class="st2" d="M384,190.3h-3.4v-9.9c0-1.2-0.2-2.2-0.7-2.8c-0.5-0.6-1.3-0.9-2.4-0.9c-1.4,0-2.5,0.4-3.2,1.3
		c-0.7,0.9-1,2.3-1,4.3v8h-3.4v-16h2.7l0.5,2.1h0.2c0.5-0.8,1.2-1.4,2.1-1.8c0.9-0.4,1.9-0.6,3-0.6c3.8,0,5.8,2,5.8,5.9V190.3z"/>
	<path class="st2" d="M402.9,190.3h-3.4v-9.9c0-1.2-0.2-2.2-0.7-2.8s-1.3-0.9-2.4-0.9c-1.4,0-2.5,0.4-3.2,1.3c-0.7,0.9-1,2.3-1,4.3
		v8h-3.4v-16h2.7l0.5,2.1h0.2c0.5-0.8,1.2-1.4,2.1-1.8c0.9-0.4,1.9-0.6,3-0.6c3.8,0,5.8,2,5.8,5.9V190.3z"/>
	<path class="st2" d="M418.9,190.3l-0.5-2.1h-0.2c-0.5,0.7-1.1,1.3-2,1.8c-0.9,0.4-1.9,0.6-3,0.6c-1.9,0-3.4-0.5-4.3-1.5
		c-1-1-1.4-2.4-1.4-4.4v-10.5h3.4v9.9c0,1.2,0.3,2.1,0.8,2.8c0.5,0.6,1.3,0.9,2.4,0.9c1.4,0,2.5-0.4,3.2-1.3s1-2.3,1-4.3v-8h3.4v16
		H418.9z"/>
	<path class="st2" d="M436.5,190.3l-0.7-2.2h-0.1c-0.8,1-1.6,1.6-2.3,2c-0.8,0.4-1.8,0.5-3,0.5c-1.6,0-2.8-0.4-3.7-1.3
		c-0.9-0.8-1.3-2.1-1.3-3.6c0-1.7,0.6-2.9,1.8-3.7c1.2-0.8,3.1-1.3,5.6-1.4l2.8-0.1v-0.9c0-1-0.2-1.8-0.7-2.3
		c-0.5-0.5-1.2-0.8-2.2-0.8c-0.8,0-1.6,0.1-2.4,0.4c-0.8,0.2-1.5,0.5-2.2,0.9l-1.1-2.4c0.9-0.5,1.8-0.8,2.9-1s2-0.4,2.9-0.4
		c2,0,3.6,0.4,4.6,1.3c1,0.9,1.6,2.3,1.6,4.2v10.8H436.5z M431.4,188c1.2,0,2.2-0.3,3-1c0.7-0.7,1.1-1.7,1.1-2.9v-1.4l-2.1,0.1
		c-1.6,0.1-2.8,0.3-3.5,0.8s-1.1,1.2-1.1,2.2c0,0.7,0.2,1.3,0.6,1.7C429.9,187.8,430.6,188,431.4,188z"/>
	<path class="st2" d="M447.1,190.3h-3.4v-22.6h3.4V190.3z"/>
	<path class="st2" d="M466.1,190.6c-2.4,0-4.3-0.7-5.5-2.1c-1.3-1.4-1.9-3.4-1.9-6.1c0-2.7,0.7-4.8,2-6.2c1.3-1.5,3.2-2.2,5.7-2.2
		c1.7,0,3.2,0.3,4.6,0.9l-1,2.7c-1.4-0.6-2.6-0.8-3.6-0.8c-2.8,0-4.2,1.8-4.2,5.5c0,1.8,0.3,3.1,1,4.1c0.7,0.9,1.7,1.4,3,1.4
		c1.5,0,3-0.4,4.3-1.1v3c-0.6,0.4-1.3,0.6-1.9,0.8C468,190.5,467.1,190.6,466.1,190.6z"/>
	<path class="st2" d="M488.6,182.3c0,2.6-0.7,4.7-2,6.1s-3.2,2.2-5.6,2.2c-1.5,0-2.8-0.3-4-1c-1.1-0.7-2-1.6-2.7-2.9
		c-0.6-1.3-0.9-2.7-0.9-4.4c0-2.6,0.7-4.6,2-6.1c1.3-1.5,3.2-2.2,5.6-2.2c2.3,0,4.2,0.7,5.5,2.2
		C487.9,177.7,488.6,179.7,488.6,182.3z M476.9,182.3c0,3.7,1.4,5.6,4.1,5.6c2.7,0,4.1-1.9,4.1-5.6c0-3.7-1.4-5.5-4.1-5.5
		c-1.4,0-2.5,0.5-3.1,1.4C477.2,179.1,476.9,180.5,476.9,182.3z"/>
	<path class="st2" d="M506.6,190.3h-3.4v-9.9c0-1.2-0.2-2.2-0.7-2.8s-1.3-0.9-2.4-0.9c-1.4,0-2.5,0.4-3.2,1.3c-0.7,0.9-1,2.3-1,4.3
		v8h-3.4v-16h2.7l0.5,2.1h0.2c0.5-0.8,1.2-1.4,2.1-1.8c0.9-0.4,1.9-0.6,3-0.6c3.8,0,5.8,2,5.8,5.9V190.3z"/>
	<path class="st2" d="M519.4,176.8h-3.9v13.5h-3.4v-13.5h-2.6v-1.6l2.6-1v-1c0-1.9,0.4-3.3,1.3-4.2c0.9-0.9,2.2-1.4,4.1-1.4
		c1.2,0,2.4,0.2,3.5,0.6l-0.9,2.6c-0.8-0.3-1.6-0.4-2.4-0.4c-0.8,0-1.3,0.2-1.7,0.7c-0.4,0.5-0.5,1.2-0.5,2.2v1h3.9V176.8z"/>
	<path class="st2" d="M529.1,190.6c-2.5,0-4.4-0.7-5.8-2.2c-1.4-1.5-2.1-3.5-2.1-6c0-2.6,0.7-4.7,2-6.2c1.3-1.5,3.1-2.2,5.4-2.2
		c2.1,0,3.8,0.6,5,1.9c1.2,1.3,1.8,3.1,1.8,5.3v1.8h-10.7c0,1.6,0.5,2.8,1.3,3.6c0.8,0.8,1.9,1.3,3.3,1.3c0.9,0,1.8-0.1,2.6-0.3
		c0.8-0.2,1.7-0.5,2.6-0.9v2.8c-0.8,0.4-1.7,0.7-2.5,0.8C531.2,190.5,530.2,190.6,529.1,190.6z M528.5,176.6c-1.1,0-1.9,0.3-2.6,1
		c-0.7,0.7-1,1.7-1.2,3h7.3c0-1.3-0.3-2.3-1-3C530.4,176.9,529.6,176.6,528.5,176.6z"/>
	<path class="st2" d="M547.4,174c0.7,0,1.3,0,1.7,0.1l-0.3,3.2c-0.5-0.1-1-0.2-1.5-0.2c-1.4,0-2.5,0.4-3.3,1.3
		c-0.8,0.9-1.3,2-1.3,3.5v8.4h-3.4v-16h2.7l0.4,2.8h0.2c0.5-1,1.2-1.7,2.1-2.3C545.4,174.3,546.4,174,547.4,174z"/>
	<path class="st2" d="M559,190.6c-2.5,0-4.4-0.7-5.8-2.2c-1.4-1.5-2.1-3.5-2.1-6c0-2.6,0.7-4.7,2-6.2c1.3-1.5,3.1-2.2,5.4-2.2
		c2.1,0,3.8,0.6,5,1.9c1.2,1.3,1.8,3.1,1.8,5.3v1.8h-10.7c0,1.6,0.5,2.8,1.3,3.6s1.9,1.3,3.3,1.3c0.9,0,1.8-0.1,2.6-0.3
		c0.8-0.2,1.7-0.5,2.6-0.9v2.8c-0.8,0.4-1.7,0.7-2.5,0.8C561.1,190.5,560.1,190.6,559,190.6z M558.4,176.6c-1.1,0-1.9,0.3-2.6,1
		c-0.7,0.7-1,1.7-1.2,3h7.3c0-1.3-0.3-2.3-1-3C560.3,176.9,559.5,176.6,558.4,176.6z"/>
	<path class="st2" d="M583.2,190.3h-3.4v-9.9c0-1.2-0.2-2.2-0.7-2.8c-0.5-0.6-1.3-0.9-2.4-0.9c-1.4,0-2.5,0.4-3.2,1.3
		c-0.7,0.9-1,2.3-1,4.3v8h-3.4v-16h2.7l0.5,2.1h0.2c0.5-0.8,1.2-1.4,2.1-1.8c0.9-0.4,1.9-0.6,3-0.6c3.8,0,5.8,2,5.8,5.9V190.3z"/>
	<path class="st2" d="M594.4,190.6c-2.4,0-4.3-0.7-5.5-2.1c-1.3-1.4-1.9-3.4-1.9-6.1c0-2.7,0.7-4.8,2-6.2c1.3-1.5,3.2-2.2,5.7-2.2
		c1.7,0,3.2,0.3,4.6,0.9l-1,2.7c-1.4-0.6-2.6-0.8-3.6-0.8c-2.8,0-4.2,1.8-4.2,5.5c0,1.8,0.3,3.1,1,4.1c0.7,0.9,1.7,1.4,3,1.4
		c1.5,0,3-0.4,4.3-1.1v3c-0.6,0.4-1.3,0.6-2,0.8C596.3,190.5,595.4,190.6,594.4,190.6z"/>
	<path class="st2" d="M609.7,190.6c-2.5,0-4.4-0.7-5.8-2.2c-1.4-1.5-2.1-3.5-2.1-6c0-2.6,0.7-4.7,2-6.2c1.3-1.5,3.1-2.2,5.4-2.2
		c2.1,0,3.8,0.6,5,1.9c1.2,1.3,1.8,3.1,1.8,5.3v1.8h-10.7c0,1.6,0.5,2.8,1.3,3.6s1.9,1.3,3.3,1.3c0.9,0,1.8-0.1,2.6-0.3
		c0.8-0.2,1.7-0.5,2.6-0.9v2.8c-0.8,0.4-1.7,0.7-2.5,0.8C611.7,190.5,610.8,190.6,609.7,190.6z M609,176.6c-1.1,0-1.9,0.3-2.6,1
		c-0.7,0.7-1,1.7-1.2,3h7.3c0-1.3-0.3-2.3-1-3C611,176.9,610.1,176.6,609,176.6z"/>
	<path class="st2" d="M180.3,205.6c0-0.6,0.2-1.1,0.5-1.4c0.3-0.3,0.8-0.5,1.4-0.5c0.6,0,1.1,0.2,1.4,0.5s0.5,0.8,0.5,1.4
		c0,0.6-0.2,1-0.5,1.4c-0.3,0.3-0.8,0.5-1.4,0.5c-0.6,0-1.1-0.2-1.4-0.5C180.4,206.7,180.3,206.2,180.3,205.6z M183.9,225.9h-3.4
		v-16h3.4V225.9z"/>
	<path class="st2" d="M202.8,225.9h-3.4v-9.9c0-1.2-0.2-2.2-0.7-2.8c-0.5-0.6-1.3-0.9-2.4-0.9c-1.4,0-2.5,0.4-3.2,1.3
		c-0.7,0.9-1,2.3-1,4.3v8h-3.4v-16h2.7l0.5,2.1h0.2c0.5-0.8,1.2-1.4,2.1-1.8c0.9-0.4,1.9-0.6,3-0.6c3.8,0,5.8,2,5.8,5.9V225.9z"/>
	<path class="st2" d="M215.7,204.7h6.3c2.9,0,5,0.4,6.3,1.3c1.3,0.8,1.9,2.2,1.9,4c0,1.2-0.3,2.3-1,3.1s-1.6,1.3-2.8,1.6v0.1
		c1.5,0.3,2.6,0.8,3.3,1.7c0.7,0.8,1.1,1.9,1.1,3.4c0,1.9-0.7,3.4-2,4.5c-1.3,1.1-3.2,1.6-5.5,1.6h-7.7V204.7z M219.1,213.5h3.3
		c1.4,0,2.5-0.2,3.2-0.7c0.7-0.5,1-1.2,1-2.3c0-1-0.4-1.7-1.1-2.2c-0.7-0.4-1.9-0.7-3.4-0.7h-3V213.5z M219.1,216.3v6.7h3.7
		c1.4,0,2.5-0.3,3.3-0.8s1.1-1.4,1.1-2.6c0-1.1-0.4-1.9-1.1-2.4c-0.8-0.5-1.9-0.8-3.4-0.8H219.1z"/>
	<path class="st2" d="M241.9,226.2c-2.5,0-4.4-0.7-5.8-2.2s-2.1-3.5-2.1-6c0-2.6,0.7-4.7,2-6.2c1.3-1.5,3.1-2.2,5.4-2.2
		c2.1,0,3.8,0.6,5,1.9s1.8,3.1,1.8,5.3v1.8h-10.7c0,1.6,0.5,2.8,1.3,3.6c0.8,0.8,1.9,1.3,3.3,1.3c0.9,0,1.8-0.1,2.6-0.3
		c0.8-0.2,1.7-0.5,2.6-0.9v2.8c-0.8,0.4-1.7,0.7-2.5,0.8C244,226.1,243,226.2,241.9,226.2z M241.3,212.2c-1.1,0-1.9,0.3-2.6,1
		c-0.7,0.7-1,1.7-1.2,3h7.3c0-1.3-0.3-2.3-1-3C243.2,212.5,242.4,212.2,241.3,212.2z"/>
	<path class="st2" d="M260.1,209.6c0.7,0,1.3,0,1.7,0.1l-0.3,3.2c-0.5-0.1-1-0.2-1.5-0.2c-1.4,0-2.5,0.4-3.3,1.3s-1.3,2-1.3,3.5v8.4
		H252v-16h2.7l0.4,2.8h0.2c0.5-1,1.2-1.7,2.1-2.3C258.2,209.9,259.1,209.6,260.1,209.6z"/>
	<path class="st2" d="M268.2,225.9h-3.4v-22.6h3.4V225.9z"/>
	<path class="st2" d="M272.9,205.6c0-0.6,0.2-1.1,0.5-1.4c0.3-0.3,0.8-0.5,1.4-0.5c0.6,0,1.1,0.2,1.4,0.5s0.5,0.8,0.5,1.4
		c0,0.6-0.2,1-0.5,1.4c-0.3,0.3-0.8,0.5-1.4,0.5c-0.6,0-1.1-0.2-1.4-0.5C273,206.7,272.9,206.2,272.9,205.6z M276.5,225.9h-3.4v-16
		h3.4V225.9z"/>
	<path class="st2" d="M295.5,225.9H292v-9.9c0-1.2-0.2-2.2-0.7-2.8c-0.5-0.6-1.3-0.9-2.4-0.9c-1.4,0-2.5,0.4-3.2,1.3
		c-0.7,0.9-1,2.3-1,4.3v8h-3.4v-16h2.7l0.5,2.1h0.2c0.5-0.8,1.2-1.4,2.1-1.8c0.9-0.4,1.9-0.6,3-0.6c3.8,0,5.8,2,5.8,5.9V225.9z"/>
	<path class="st2" d="M322.1,217.9c0,2.6-0.7,4.7-2,6.1c-1.3,1.5-3.2,2.2-5.6,2.2c-1.5,0-2.8-0.3-4-1s-2-1.6-2.7-2.9
		c-0.6-1.3-0.9-2.7-0.9-4.4c0-2.6,0.7-4.6,2-6.1s3.2-2.2,5.6-2.2c2.3,0,4.2,0.7,5.5,2.2C321.4,213.3,322.1,215.3,322.1,217.9z
		 M310.5,217.9c0,3.7,1.4,5.6,4.1,5.6c2.7,0,4.1-1.9,4.1-5.6c0-3.7-1.4-5.5-4.1-5.5c-1.4,0-2.5,0.5-3.1,1.4
		C310.8,214.8,310.5,216.1,310.5,217.9z"/>
	<path class="st2" d="M340.1,225.9h-3.4v-9.9c0-1.2-0.2-2.2-0.7-2.8c-0.5-0.6-1.3-0.9-2.4-0.9c-1.4,0-2.5,0.4-3.2,1.3
		c-0.7,0.9-1,2.3-1,4.3v8H326v-16h2.7l0.5,2.1h0.2c0.5-0.8,1.2-1.4,2.1-1.8c0.9-0.4,1.9-0.6,3-0.6c3.8,0,5.8,2,5.8,5.9V225.9z"/>
	<path class="st2" d="M365.2,220.2c0,1.9-0.7,3.4-2,4.4c-1.4,1.1-3.2,1.6-5.6,1.6s-4.4-0.4-5.9-1.1v-3.3c1,0.5,2,0.8,3.1,1.1
		c1.1,0.3,2.1,0.4,3,0.4c1.4,0,2.4-0.3,3-0.8c0.7-0.5,1-1.2,1-2.1c0-0.8-0.3-1.5-0.9-2c-0.6-0.6-1.8-1.2-3.7-2
		c-1.9-0.8-3.3-1.7-4.1-2.7c-0.8-1-1.2-2.2-1.2-3.6c0-1.8,0.6-3.2,1.9-4.2c1.3-1,2.9-1.5,5.1-1.5c2,0,4,0.4,6.1,1.3l-1.1,2.8
		c-1.9-0.8-3.6-1.2-5-1.2c-1.1,0-2,0.2-2.6,0.7c-0.6,0.5-0.9,1.1-0.9,1.9c0,0.6,0.1,1,0.3,1.4c0.2,0.4,0.6,0.8,1.1,1.1
		c0.5,0.3,1.5,0.8,2.9,1.4c1.6,0.6,2.7,1.3,3.4,1.8c0.7,0.6,1.3,1.2,1.6,1.9S365.2,219.2,365.2,220.2z"/>
	<path class="st2" d="M375.9,226.2c-2.5,0-4.4-0.7-5.8-2.2s-2.1-3.5-2.1-6c0-2.6,0.7-4.7,2-6.2c1.3-1.5,3.1-2.2,5.4-2.2
		c2.1,0,3.8,0.6,5,1.9s1.8,3.1,1.8,5.3v1.8h-10.7c0,1.6,0.5,2.8,1.3,3.6c0.8,0.8,1.9,1.3,3.3,1.3c0.9,0,1.8-0.1,2.6-0.3
		c0.8-0.2,1.7-0.5,2.6-0.9v2.8c-0.8,0.4-1.7,0.7-2.5,0.8C378,226.1,377,226.2,375.9,226.2z M375.3,212.2c-1.1,0-1.9,0.3-2.6,1
		c-0.7,0.7-1,1.7-1.2,3h7.3c0-1.3-0.3-2.3-1-3C377.2,212.5,376.4,212.2,375.3,212.2z"/>
	<path class="st2" d="M394.1,226.2c-2,0-3.6-0.7-4.7-2.2h-0.2c0.1,1.4,0.2,2.2,0.2,2.5v6.6H386v-23.2h2.8c0.1,0.3,0.2,1,0.5,2.1h0.2
		c1.1-1.6,2.7-2.4,4.8-2.4c2,0,3.6,0.7,4.7,2.2s1.7,3.5,1.7,6.1c0,2.6-0.6,4.7-1.7,6.1C397.7,225.5,396.1,226.2,394.1,226.2z
		 M393.3,212.4c-1.4,0-2.3,0.4-3,1.2c-0.6,0.8-0.9,2.1-0.9,3.8v0.5c0,2,0.3,3.4,0.9,4.2c0.6,0.9,1.6,1.3,3,1.3
		c1.2,0,2.1-0.5,2.7-1.4s1-2.3,1-4.1c0-1.8-0.3-3.2-1-4.1S394.5,212.4,393.3,212.4z"/>
	<path class="st2" d="M410.5,223.5c0.8,0,1.7-0.1,2.5-0.4v2.6c-0.4,0.2-0.9,0.3-1.5,0.4s-1.2,0.2-1.8,0.2c-3.2,0-4.8-1.7-4.8-5.1
		v-8.6h-2.2V211l2.3-1.2l1.2-3.4h2.1v3.6h4.6v2.6h-4.6v8.6c0,0.8,0.2,1.4,0.6,1.8C409.3,223.3,409.8,223.5,410.5,223.5z"/>
	<path class="st2" d="M423.2,226.2c-2.5,0-4.4-0.7-5.8-2.2c-1.4-1.5-2.1-3.5-2.1-6c0-2.6,0.7-4.7,2-6.2s3.1-2.2,5.4-2.2
		c2.1,0,3.8,0.6,5,1.9c1.2,1.3,1.8,3.1,1.8,5.3v1.8h-10.7c0,1.6,0.5,2.8,1.3,3.6c0.8,0.8,1.9,1.3,3.3,1.3c0.9,0,1.8-0.1,2.6-0.3
		c0.8-0.2,1.7-0.5,2.6-0.9v2.8c-0.8,0.4-1.7,0.7-2.5,0.8C425.2,226.1,424.3,226.2,423.2,226.2z M422.6,212.2c-1.1,0-1.9,0.3-2.6,1
		c-0.7,0.7-1,1.7-1.2,3h7.3c0-1.3-0.3-2.3-1-3C424.5,212.5,423.6,212.2,422.6,212.2z"/>
	<path class="st2" d="M446.8,225.9h-3.4V216c0-1.2-0.2-2.1-0.7-2.7s-1.2-0.9-2.2-0.9c-1.3,0-2.3,0.4-2.9,1.3
		c-0.6,0.9-0.9,2.3-0.9,4.3v8h-3.4v-16h2.7l0.5,2.1h0.2c0.4-0.8,1.1-1.4,1.9-1.8c0.8-0.4,1.8-0.6,2.8-0.6c2.5,0,4.1,0.8,4.9,2.5h0.2
		c0.5-0.8,1.1-1.4,2-1.9c0.9-0.4,1.8-0.7,3-0.7c1.9,0,3.3,0.5,4.2,1.4c0.9,1,1.3,2.4,1.3,4.4v10.5h-3.4V216c0-1.2-0.2-2.1-0.7-2.7
		s-1.2-0.9-2.2-0.9c-1.3,0-2.3,0.4-2.9,1.2c-0.6,0.8-0.9,2.1-0.9,3.8V225.9z"/>
	<path class="st2" d="M469.9,209.6c2,0,3.6,0.7,4.7,2.2s1.7,3.5,1.7,6.1c0,2.6-0.6,4.7-1.7,6.1s-2.7,2.2-4.7,2.2
		c-2,0-3.6-0.7-4.7-2.2h-0.2l-0.6,1.9h-2.6v-22.6h3.4v5.4c0,0.4,0,1-0.1,1.8c0,0.8-0.1,1.3-0.1,1.5h0.1
		C466.1,210.4,467.7,209.6,469.9,209.6z M469,212.4c-1.4,0-2.4,0.4-3,1.2s-0.9,2.2-0.9,4.1v0.2c0,2,0.3,3.4,0.9,4.2
		c0.6,0.9,1.6,1.3,3,1.3c1.2,0,2.1-0.5,2.7-1.4c0.6-1,0.9-2.3,0.9-4.1C472.7,214.2,471.5,212.4,469,212.4z"/>
	<path class="st2" d="M487.2,226.2c-2.5,0-4.4-0.7-5.8-2.2c-1.4-1.5-2.1-3.5-2.1-6c0-2.6,0.7-4.7,2-6.2s3.1-2.2,5.4-2.2
		c2.1,0,3.8,0.6,5,1.9c1.2,1.3,1.8,3.1,1.8,5.3v1.8h-10.7c0,1.6,0.5,2.8,1.3,3.6c0.8,0.8,1.9,1.3,3.3,1.3c0.9,0,1.8-0.1,2.6-0.3
		c0.8-0.2,1.7-0.5,2.6-0.9v2.8c-0.8,0.4-1.7,0.7-2.5,0.8C489.2,226.1,488.2,226.2,487.2,226.2z M486.5,212.2c-1.1,0-1.9,0.3-2.6,1
		c-0.7,0.7-1,1.7-1.2,3h7.3c0-1.3-0.3-2.3-1-3C488.5,212.5,487.6,212.2,486.5,212.2z"/>
	<path class="st2" d="M505.4,209.6c0.7,0,1.3,0,1.7,0.1l-0.3,3.2c-0.5-0.1-1-0.2-1.5-0.2c-1.4,0-2.5,0.4-3.3,1.3s-1.3,2-1.3,3.5v8.4
		h-3.4v-16h2.7l0.4,2.8h0.2c0.5-1,1.2-1.7,2.1-2.3C503.5,209.9,504.4,209.6,505.4,209.6z"/>
	<path class="st2" d="M531,225.9h-14.4v-2.6l5.5-5.5c1.6-1.7,2.7-2.8,3.2-3.5c0.5-0.7,0.9-1.3,1.2-2c0.2-0.6,0.4-1.3,0.4-2
		c0-1-0.3-1.7-0.9-2.3c-0.6-0.6-1.4-0.8-2.4-0.8c-0.8,0-1.6,0.2-2.4,0.4c-0.8,0.3-1.6,0.8-2.6,1.6l-1.8-2.2c1.2-1,2.3-1.7,3.4-2.1
		c1.1-0.4,2.3-0.6,3.6-0.6c2,0,3.6,0.5,4.7,1.5c1.2,1,1.8,2.4,1.8,4.2c0,1-0.2,1.9-0.5,2.7c-0.3,0.9-0.9,1.7-1.6,2.7
		s-1.9,2.1-3.5,3.7l-3.7,3.6v0.1H531V225.9z"/>
	<path class="st2" d="M547.9,215.3c0,3.7-0.6,6.4-1.8,8.2c-1.2,1.8-3,2.7-5.4,2.7c-2.4,0-4.1-0.9-5.4-2.8c-1.2-1.8-1.8-4.6-1.8-8.1
		c0-3.7,0.6-6.5,1.8-8.3s3-2.7,5.4-2.7c2.4,0,4.2,0.9,5.4,2.8C547.3,209,547.9,211.7,547.9,215.3z M537,215.3c0,2.9,0.3,5,0.9,6.2
		c0.6,1.2,1.5,1.9,2.8,1.9s2.3-0.6,2.9-1.9c0.6-1.3,0.9-3.3,0.9-6.2c0-2.8-0.3-4.9-0.9-6.2c-0.6-1.3-1.6-1.9-2.9-1.9
		s-2.3,0.6-2.8,1.9C537.3,210.4,537,212.4,537,215.3z"/>
	<path class="st2" d="M550.3,219.4v-2.9h7.5v2.9H550.3z"/>
	<path class="st2" d="M574.4,225.9h-14.4v-2.6l5.5-5.5c1.6-1.7,2.7-2.8,3.2-3.5c0.5-0.7,0.9-1.3,1.2-2c0.2-0.6,0.4-1.3,0.4-2
		c0-1-0.3-1.7-0.9-2.3c-0.6-0.6-1.4-0.8-2.4-0.8c-0.8,0-1.6,0.2-2.4,0.4c-0.8,0.3-1.6,0.8-2.6,1.6l-1.8-2.2c1.2-1,2.3-1.7,3.4-2.1
		c1.1-0.4,2.3-0.6,3.6-0.6c2,0,3.6,0.5,4.7,1.5c1.2,1,1.8,2.4,1.8,4.2c0,1-0.2,1.9-0.5,2.7c-0.3,0.9-0.9,1.7-1.6,2.7
		s-1.9,2.1-3.5,3.7l-3.7,3.6v0.1h10.1V225.9z"/>
	<path class="st2" d="M587,225.9h-3.4v-13.7c0-1.6,0-2.9,0.1-3.9c-0.2,0.2-0.5,0.5-0.8,0.8c-0.3,0.3-1.4,1.2-3.3,2.7l-1.7-2.2
		l6.2-4.9h2.8V225.9z"/>
</g>
</svg>
