<?xml version="1.0" encoding="utf-8"?>
<!-- Generator: Adobe Illustrator 22.1.0, SVG Export Plug-In . SVG Version: 6.00 Build 0)  -->
<svg version="1.1" id="Ebene_1" xmlns="http://www.w3.org/2000/svg" xmlns:xlink="http://www.w3.org/1999/xlink" x="0px" y="0px"
	 viewBox="0 0 767 331" style="enable-background:new 0 0 767 331;" xml:space="preserve">
<style type="text/css">
	.st0{fill:#ECECEC;}
	.st1{fill:#F31951;}
	.st2{fill:#007BA5;}
	.st3{fill:#FFFFFF;}
</style>
<rect class="st0" width="767" height="331"/>
<g>
	<path class="st1" d="M457,51.4h-2.5c-0.6,0-1,0.4-1,1V59c0,0.6,0.4,1,1,1h2.5c0.6,0,1-0.4,1-1v-6.6C458.1,51.8,457.6,51.4,457,51.4
		z"/>
	<path class="st2" d="M456.2,41.2h-0.6c-0.6,0-1,0.4-1,1v6.6c0,0.6,0.4,1,1,1h0.6c0.6,0,1-0.4,1-1v-6.6
		C457,41.7,456.6,41.2,456.2,41.2z"/>
	<path class="st1" d="M456.2,30.9h-0.6c-0.6,0-1,0.4-1,1v6.6c0,0.6,0.4,1,1,1h0.6c0.6,0,1-0.4,1-1v-6.6
		C457,31.5,456.6,30.9,456.2,30.9z"/>
	<path class="st2" d="M455.7,20.7L455.7,20.7c-0.7,0-1.3,0.6-1.3,1.3v6.3c0,0.6,0.4,1,1,1h0.6c0.6,0,1-0.4,1-1V22
		C457,21.3,456.5,20.7,455.7,20.7z"/>
	<g>
		<g>
			<path class="st1" d="M255,76.3c0,1-0.7,1.9-1.9,1.9c-1.5,0-2.5-1.5-5.2-1.5c-4.7,0-7.6,4.2-7.6,9.8c0,5.2,2.6,9.8,7.6,9.8
				c1.6,0,2.6-0.3,4.1-1.2c0.4-0.3,0.7-0.3,1.2-0.3c1,0,1.7,0.6,1.7,1.9c0,1.9-2.8,3.3-6.8,3.3c-7.3,0-11.8-5.7-11.8-13.4
				s4.5-13.4,11.8-13.4C252.2,73,255,74.4,255,76.3z"/>
			<path class="st1" d="M276.7,76.4L276.7,76.4l0.1-1.5c0-1.2,0.9-2,2-2s2,0.9,2,2v22.9c0,1.2-0.9,2-2,2c-1.2,0-2-0.7-2-2.2V96h-0.1
				c-1.9,2.8-4.4,3.9-7.1,3.9c-7.3,0-11.5-6.4-11.5-13.2c0-8,4.8-13.7,11.5-13.7C272.6,73,274.7,74.3,276.7,76.4z M269.6,96.1
				c4.7,0,7.3-4.2,7.3-9.8c0-5.7-2.6-9.8-7.3-9.8c-4.4,0-7.1,3.9-7.1,9.8C262.4,91.9,264.9,96.1,269.6,96.1z"/>
			<path class="st1" d="M291,75.6v0.6l0.1,0.1c1.7-2.3,3.6-3.2,6.7-3.2s5.5,1.5,7.3,4.4c2.2-3.2,4.7-4.4,8-4.4
				c5.2,0,9.2,3.8,9.2,9.8v14.8c0,1.2-0.7,2.2-2.2,2.2s-2.2-1-2.2-2.2V82.6c0-3.5-2-6-5.7-6c-3.5,0-5.5,2.3-5.5,6v15
				c0,1.2-0.7,2.2-2.2,2.2s-2.2-1-2.2-2.2v-15c0-3.5-2-6-5.7-6c-3.5,0-5.5,2.3-5.5,6v15c0,1.2-0.7,2.2-2.2,2.2s-2.2-1-2.2-2.2V75.1
				c0-1.2,0.7-2.2,2.2-2.2C289.9,73,291,73.5,291,75.6z"/>
			<path class="st1" d="M332.1,75.1v14.3c0,4.2,1.9,6.7,6.1,6.7s6.1-2.5,6.1-6.7V75.1c0-1.2,0.7-2.2,2.2-2.2s2.2,1,2.2,2.2v14.4
				c0,6.4-3.9,10.3-10.5,10.3c-6.4,0-10.5-3.9-10.5-10.3V75.1c0-1.2,0.7-2.2,2.2-2.2S332.1,74,332.1,75.1z"/>
			<path class="st1" d="M358.8,75.6v0.7l0.1,0.1c1.9-2.5,4.7-3.5,7.3-3.5c5.1,0,9.2,3.8,9.2,9.8v14.8c0,1.2-0.7,2.2-2.2,2.2
				s-2.2-1-2.2-2.2V83c0-3.8-2.5-6.3-6.1-6.3c-3.5,0-6.1,2.6-6.1,6.3v14.6c0,1.2-0.7,2.2-2.2,2.2s-2.2-1-2.2-2.2V75.1
				c0-1.2,0.7-2.2,2.2-2.2C357.6,73,358.8,73.4,358.8,75.6z"/>
			<path class="st1" d="M402.6,63.6v34.1c0,1.2-0.7,2.2-2.2,2.2c-1.3,0-2.2-0.9-2.2-2.3v-1.3h-0.1c-1.3,2.5-3.6,3.6-7,3.6
				c-7,0-11.2-6.4-11.2-13.2c0-7.6,4.4-13.7,11.1-13.7c2.9,0,5.4,1.2,7.1,3.5h0.1v-13c0-1.2,0.7-2.2,2.2-2.2
				C401.7,61.5,402.6,62.3,402.6,63.6z M391.4,96.1c4.7,0,7.3-4.2,7.3-9.8c0-5.7-2.8-9.8-7.3-9.8c-4.4,0-7.1,3.9-7.1,9.8
				C384.3,91.9,386.7,96.1,391.4,96.1z"/>
			<path class="st1" d="M426,76.4L426,76.4l0.1-1.5c0-1.2,0.9-2,2-2s2,0.9,2,2v22.9c0,1.2-0.9,2-2,2s-2-0.7-2-2.2V96H426
				c-1.9,2.8-4.4,3.9-7.1,3.9c-7.3,0-11.5-6.4-11.5-13.2c0-8,4.8-13.7,11.5-13.7C422,73,424,74.3,426,76.4z M418.9,96.1
				c4.7,0,7.3-4.2,7.3-9.8c0-5.7-2.6-9.8-7.3-9.8c-4.4,0-7.1,3.9-7.1,9.8C411.6,91.9,414.2,96.1,418.9,96.1z"/>
		</g>
	</g>
	<g>
		<path class="st1" d="M378.6,113.4c0,1-0.7,1.9-1.9,1.9c-1.5,0-2.5-1.5-5.2-1.5c-4.7,0-7.6,4.2-7.6,9.8c0,5.2,2.6,9.8,7.6,9.8
			c1.6,0,2.6-0.3,4.1-1.2c0.4-0.3,0.7-0.3,1.2-0.3c1,0,1.7,0.6,1.7,1.9c0,1.9-2.8,3.3-6.8,3.3c-7.3,0-11.8-5.7-11.8-13.4
			s4.5-13.4,11.8-13.4C375.8,110.1,378.6,111.5,378.6,113.4z"/>
		<path class="st1" d="M404.8,123.5c0,7.3-4.2,13.5-11.5,13.5c-7.7,0-11.6-6.8-11.6-13.1c0-8,4.7-13.8,11.5-13.8
			C400.3,110.1,404.8,116.2,404.8,123.5z M393.1,133.2c4.7,0,7.3-4.1,7.3-9.8s-2.8-9.8-7.3-9.8c-4.4,0-7.1,3.9-7.1,9.8
			C386,129.1,388.5,133.2,393.1,133.2z"/>
		<path class="st1" d="M413.7,112.7v0.7l0.1,0.1c1.9-2.5,4.7-3.5,7.3-3.5c5.1,0,9.2,3.8,9.2,9.8v14.8c0,1.2-0.7,2.2-2.2,2.2
			s-2.2-1-2.2-2.2V120c0-3.8-2.5-6.3-6.1-6.3c-3.5,0-6.1,2.6-6.1,6.3v14.6c0,1.2-0.7,2.2-2.2,2.2s-2.2-1-2.2-2.2v-22.4
			c0-1.2,0.7-2.2,2.2-2.2C412.5,110.1,413.7,110.5,413.7,112.7z"/>
	</g>
	<g>
		<path class="st2" d="M486.6,78.2c1.6,0.1,2.6,1.5,2.6,2.9c0,2-1.6,3.5-3.8,3.5h-2.9c-0.4,0-0.7-0.3-0.7-0.7V73.5
			c0-0.4,0.3-0.7,0.7-0.7h2.6c1.9,0,3.2,1.3,3.2,2.9C488.2,76.7,487.6,77.9,486.6,78.2L486.6,78.2z M484.8,77.8c1,0,1.9-0.7,1.9-1.9
			S486,74,484.8,74h-1.7v3.8H484.8L484.8,77.8z M485.3,83.3c1.5,0,2.5-0.9,2.5-2.2s-1-2.2-2.3-2.2h-2.3v4.4
			C483.2,83.3,485.3,83.3,485.3,83.3z"/>
		<path class="st2" d="M492.4,84.6c-0.4,0-0.7-0.3-0.7-0.7V73.5c0-0.4,0.3-0.7,0.7-0.7h4.4c0.4,0,0.7,0.1,0.7,0.7s-0.3,0.7-0.7,0.7
			h-3.5v3.9h3.2c0.3,0,0.7,0.1,0.7,0.7c0,0.4-0.3,0.7-0.7,0.7h-3.2V83h3.5c0.4,0,0.7,0.1,0.7,0.7s-0.3,0.7-0.7,0.7h-4.4V84.6z"/>
		<path class="st2" d="M506.1,78.6c-0.6,0.4-1.2,0.7-2.8,0.7l3.8,4.1c0.3,0.3,0.3,0.4,0.3,0.7s-0.3,0.6-0.7,0.6
			c-0.4,0-0.7-0.4-1.2-1l-3.9-4.4v4.5c0,0.4-0.3,0.7-0.7,0.7c-0.4,0-0.7-0.3-0.7-0.7V73.4c0-0.4,0.3-0.7,0.7-0.7h2.6
			c1.9,0,3.8,1,3.8,3.2C507.3,77,506.8,77.9,506.1,78.6z M503.6,78.2c1.5,0,2.2-0.6,2.2-2.2c0-1.2-1-2-2.2-2h-2v4.2H503.6z"/>
		<path class="st2" d="M511.2,73.4v9.8h3.2c0.3,0,0.7,0.1,0.7,0.7s-0.3,0.7-0.7,0.7h-3.9c-0.4,0-0.7-0.3-0.7-0.7V73.4
			c0-0.4,0.3-0.7,0.7-0.7S511.2,73,511.2,73.4z"/>
		<path class="st2" d="M518.6,73.4V84c0,0.4-0.3,0.7-0.7,0.7s-0.7-0.3-0.7-0.7V73.4c0-0.4,0.3-0.7,0.7-0.7S518.6,73,518.6,73.4z"/>
		<path class="st2" d="M523.3,73.2l6.1,8.7l0,0v-8.6c0-0.4,0.3-0.7,0.7-0.7s0.7,0.3,0.7,0.7v10.5c0,0.4-0.1,0.9-0.7,0.9
			c-0.4,0-0.6-0.1-0.9-0.6l-6.1-8.9l0,0V84c0,0.4-0.3,0.7-0.7,0.7s-0.7-0.3-0.7-0.7V73.5c0-0.4,0.1-0.9,0.7-0.9
			C522.7,72.5,523,72.8,523.3,73.2z"/>
	</g>
	<g>
		<path class="st2" d="M488.8,91c0,1-0.3,1.7-0.7,2.3l-4.1,5.4h4.5c0.3,0,0.6,0.3,0.6,0.6s-0.3,0.6-0.6,0.6h-5.8
			c-0.4,0-0.7-0.3-0.7-0.6s0.3-0.6,0.9-1.3l3.6-4.8c0.6-0.7,0.9-1.5,0.9-2c0-1-0.9-1.9-1.9-1.9c-1.3,0-2.2,1.2-2.2,2.6
			c0,0.4-0.3,0.7-0.6,0.7c-0.4,0-0.7-0.3-0.7-0.9c0-2,1.5-3.6,3.8-3.6C487.3,88.1,488.8,89.3,488.8,91z"/>
		<path class="st2" d="M499.2,94.1c0,3.9-1.7,6.1-3.9,6.1c-2.3,0-3.9-2.3-3.9-6s1.7-6,3.9-6C497.5,88.1,499.2,90.3,499.2,94.1z
			 M495.3,98.9c1.5,0,2.3-1.7,2.3-4.8s-0.9-4.8-2.3-4.8s-2.3,1.6-2.3,4.8C492.8,97.1,493.9,98.9,495.3,98.9z"/>
		<path class="st2" d="M504.9,99.3c0,0.4-0.3,0.7-0.7,0.7c-0.4,0-0.7-0.3-0.7-0.7v-9.9h-1.6c-0.3,0-0.6-0.3-0.6-0.6
			c0-0.4,0.3-0.6,0.6-0.6h2.6c0.3,0,0.4,0.1,0.4,0.4L504.9,99.3L504.9,99.3z"/>
		<path class="st2" d="M515.1,90.7c0,1.2-0.4,1.9-1.6,2.6c1.3,0.3,2.2,1.5,2.2,2.9c0,2-1.5,3.8-3.6,3.8s-3.6-1.7-3.6-3.8
			c0-1.5,0.9-2.6,2.2-2.9c-1.2-0.7-1.6-1.5-1.6-2.6c0-1.6,1.3-2.8,3.1-2.8C513.8,88.1,515.1,89.1,515.1,90.7z M512.1,98.9
			c1.2,0,2-1,2-2.5c0-1.3-0.9-2.3-2-2.3c-1.2,0-2,1-2,2.3C510,97.8,510.9,98.9,512.1,98.9z M512.1,92.8c1,0,1.6-0.7,1.6-1.7
			s-0.6-1.7-1.6-1.7s-1.6,0.7-1.6,1.7C510.5,92.2,511,92.8,512.1,92.8z"/>
	</g>
	<path class="st2" d="M451.9,98.9v3.2h-1.3v4.2h1.6l-0.9,30.7h8.9l-0.9-30.7h1.6v-4.2h-1.3V99c5.7-1.6,9.9-6.8,9.9-13.1
		c0-5.7-3.5-10.6-8.6-12.7v-8.6h0.3c0.6,0,1-0.4,1-1v-0.9c0-0.6-0.4-1-1-1h-10.9c-0.6,0-1,0.4-1,1v0.9c0,0.6,0.4,1,1,1h0.3v8.7
		c-4.8,2-8.3,6.8-8.3,12.5C442.3,92,446.4,97.1,451.9,98.9z"/>
</g>
<g>
	<path class="st1" d="M508.3,306H258.7c-2.1,0-3.7-1.6-3.7-3.7v-43.6c0-2.1,1.6-3.7,3.7-3.7h249.6c2.1,0,3.7,1.6,3.7,3.7v43.6
		C512.1,304.4,510.5,306,508.3,306z"/>
	<g>
		<path class="st3" d="M270.4,295.9c-0.9,0-1.6-0.1-2.2-0.4v-2.7c0.7,0.2,1.5,0.2,2,0.2c1.7,0,2.7-1.1,2.7-3.5V270h3.4v19.5
			c0,2.1-0.5,3.6-1.5,4.7C273.8,295.4,272.3,295.9,270.4,295.9z"/>
		<path class="st3" d="M287.8,290.5c-2.4,0-4.2-0.7-5.6-2.1s-2-3.2-2-5.7s0.6-4.5,1.9-5.9c1.2-1.4,3-2.1,5.1-2.1
			c2,0,3.6,0.6,4.7,1.9c1.1,1.2,1.7,2.9,1.7,5.1v1.7h-10.2c0,1.5,0.5,2.6,1.2,3.4s1.9,1.2,3.2,1.2c0.9,0,1.7-0.1,2.5-0.2
			c0.7-0.1,1.6-0.5,2.5-0.9v2.6c-0.7,0.4-1.6,0.6-2.4,0.7C289.8,290.4,288.9,290.5,287.8,290.5z M287.2,277.2c-1,0-1.9,0.4-2.5,1
			s-1,1.6-1.1,2.9h7c0-1.2-0.4-2.2-0.9-2.9C289,277.4,288.3,277.2,287.2,277.2z"/>
		<path class="st3" d="M303.1,287.9c0.7,0,1.6-0.1,2.4-0.4v2.5c-0.4,0.1-0.9,0.2-1.4,0.4c-0.6,0.1-1.1,0.1-1.7,0.1
			c-3.1,0-4.6-1.6-4.6-4.9v-8.2h-2.1v-1.5l2.2-1.2l1.1-3.2h2v3.5h4.4v2.5H301v8.2c0,0.7,0.2,1.4,0.6,1.7
			C302,287.8,302.5,287.9,303.1,287.9z"/>
		<path class="st3" d="M318.9,290.3h-11.6v-2l7.7-10.9h-7.2v-2.5h10.9v2.2l-7.6,10.5h7.7v2.6L318.9,290.3L318.9,290.3z"/>
		<path class="st3" d="M327.9,287.9c0.7,0,1.6-0.1,2.4-0.4v2.5c-0.4,0.1-0.9,0.2-1.4,0.4c-0.6,0.1-1.1,0.1-1.7,0.1
			c-3.1,0-4.6-1.6-4.6-4.9v-8.2h-2.1v-1.5l2.2-1.2l1.1-3.2h2v3.5h4.4v2.5h-4.4v8.2c0,0.7,0.2,1.4,0.6,1.7
			C326.7,287.8,327.2,287.9,327.9,287.9z"/>
		<path class="st3" d="M348.5,274.7c0.6,0,1.2,0,1.6,0.1l-0.4,3c-0.5-0.1-1-0.1-1.5-0.1c-1.2,0-2.4,0.4-3.1,1.2s-1.2,2-1.2,3.4v8
			h-3.2v-15.4h2.5l0.4,2.7h0.1c0.5-0.9,1.1-1.6,2-2.1S347.5,274.7,348.5,274.7z"/>
		<path class="st3" d="M359.6,290.5c-2.4,0-4.2-0.7-5.6-2.1s-2-3.2-2-5.7s0.6-4.5,1.9-5.9s3-2.1,5.1-2.1c2,0,3.6,0.6,4.7,1.9
			s1.7,2.9,1.7,5.1v1.7h-10.2c0,1.5,0.5,2.6,1.2,3.4s1.9,1.2,3.2,1.2c0.9,0,1.7-0.1,2.5-0.2c0.7-0.1,1.6-0.5,2.5-0.9v2.6
			c-0.7,0.4-1.6,0.6-2.4,0.7C361.6,290.4,360.6,290.5,359.6,290.5z M358.9,277.2c-1,0-1.9,0.4-2.5,1s-1,1.6-1.1,2.9h7
			c0-1.2-0.4-2.2-0.9-2.9C360.8,277.4,359.9,277.2,358.9,277.2z"/>
		<path class="st3" d="M382.2,274.9v1.7l-2.6,0.5c0.2,0.4,0.5,0.7,0.6,1.2s0.2,1,0.2,1.5c0,1.6-0.5,2.9-1.6,3.7
			c-1.1,0.9-2.6,1.4-4.5,1.4c-0.5,0-0.9,0-1.4-0.1c-0.7,0.4-1,1-1,1.5c0,0.4,0.1,0.6,0.5,0.7s0.9,0.2,1.7,0.2h2.6
			c1.7,0,3,0.4,3.9,1.1s1.4,1.7,1.4,3.1c0,1.7-0.7,3.1-2.1,4c-1.4,1-3.5,1.4-6.2,1.4c-2.1,0-3.6-0.4-4.7-1.1s-1.6-1.7-1.6-3.1
			c0-1,0.2-1.7,0.9-2.4s1.4-1.1,2.5-1.4c-0.4-0.1-0.7-0.5-1.1-0.9s-0.4-0.9-0.4-1.2c0-0.6,0.1-1,0.5-1.5c0.4-0.4,0.7-0.7,1.5-1.1
			c-0.7-0.4-1.5-0.9-1.9-1.6s-0.7-1.6-0.7-2.7c0-1.6,0.5-3,1.6-3.9c1-0.9,2.5-1.4,4.5-1.4c0.4,0,0.9,0,1.4,0.1
			c0.5,0,0.9,0.1,1.1,0.1h4.9V274.9z M370.1,292.7c0,0.7,0.4,1.2,1,1.6s1.5,0.6,2.6,0.6c1.7,0,3.1-0.2,4-0.7s1.2-1.1,1.2-2
			c0-0.6-0.2-1.1-0.7-1.4c-0.5-0.2-1.4-0.4-2.6-0.4H373c-0.9,0-1.6,0.2-2.2,0.6C370.4,291.3,370.1,291.9,370.1,292.7z M371.5,279.9
			c0,1,0.2,1.7,0.7,2.2s1.2,0.7,2.1,0.7c1.9,0,2.9-1,2.9-3c0-1-0.2-1.7-0.7-2.2s-1.1-0.7-2.1-0.7s-1.6,0.2-2.1,0.7
			C371.8,278.2,371.5,278.9,371.5,279.9z"/>
		<path class="st3" d="M384.8,270.9c0-0.6,0.1-1,0.5-1.4s0.7-0.5,1.4-0.5s1,0.1,1.4,0.5s0.5,0.7,0.5,1.4c0,0.5-0.1,1-0.5,1.2
			c-0.4,0.4-0.7,0.5-1.4,0.5s-1-0.1-1.4-0.5C384.9,271.9,384.8,271.4,384.8,270.9z M388.3,290.3H385v-15.4h3.2L388.3,290.3
			L388.3,290.3z"/>
		<path class="st3" d="M403.1,285.9c0,1.5-0.5,2.6-1.6,3.5s-2.6,1.2-4.6,1.2s-3.6-0.2-4.9-0.9V287c1.7,0.9,3.5,1.2,5,1.2
			c2,0,3-0.6,3-1.9c0-0.4-0.1-0.7-0.4-1c-0.2-0.2-0.6-0.5-1.1-0.7s-1.2-0.6-2.1-1c-1.7-0.6-3-1.4-3.6-2s-0.9-1.6-0.9-2.6
			c0-1.2,0.5-2.4,1.6-3c1-0.7,2.5-1.1,4.4-1.1c1.7,0,3.5,0.4,5.1,1.1l-1,2.5c-1.6-0.6-3-1-4.1-1c-1.7,0-2.6,0.5-2.6,1.5
			c0,0.5,0.2,0.9,0.6,1.2c0.5,0.4,1.4,0.7,2.9,1.4c1.2,0.5,2.1,1,2.7,1.4s1,0.9,1.2,1.4C403,284.5,403.1,285.2,403.1,285.9z"/>
		<path class="st3" d="M412.4,287.9c0.7,0,1.6-0.1,2.4-0.4v2.5c-0.4,0.1-0.9,0.2-1.4,0.4c-0.6,0.1-1.1,0.1-1.7,0.1
			c-3.1,0-4.6-1.6-4.6-4.9v-8.2H405v-1.5l2.2-1.2l1.1-3.2h2v3.5h4.4v2.5h-4.4v8.2c0,0.7,0.2,1.4,0.6,1.7
			C411.2,287.8,411.7,287.9,412.4,287.9z"/>
		<path class="st3" d="M425.6,274.7c0.6,0,1.2,0,1.6,0.1l-0.4,3c-0.5-0.1-1-0.1-1.5-0.1c-1.2,0-2.4,0.4-3.1,1.2s-1.2,2-1.2,3.4v8
			h-3.2v-15.4h2.5l0.4,2.7h0.1c0.5-0.9,1.1-1.6,2-2.1S424.6,274.7,425.6,274.7z"/>
		<path class="st3" d="M429.8,270.9c0-0.6,0.1-1,0.5-1.4s0.7-0.5,1.4-0.5s1,0.1,1.4,0.5s0.5,0.7,0.5,1.4c0,0.5-0.1,1-0.5,1.2
			c-0.4,0.4-0.7,0.5-1.4,0.5s-1-0.1-1.4-0.5C430,271.9,429.8,271.4,429.8,270.9z M433.3,290.3h-3.2v-15.4h3.2V290.3z"/>
		<path class="st3" d="M444.6,290.5c-2.4,0-4.2-0.7-5.6-2.1s-2-3.2-2-5.7s0.6-4.5,1.9-5.9s3-2.1,5.1-2.1c2,0,3.6,0.6,4.7,1.9
			c1.1,1.2,1.7,2.9,1.7,5.1v1.7h-10.2c0,1.5,0.5,2.6,1.2,3.4s1.9,1.2,3.2,1.2c0.9,0,1.7-0.1,2.5-0.2c0.7-0.1,1.6-0.5,2.5-0.9v2.6
			c-0.7,0.4-1.6,0.6-2.4,0.7C446.6,290.4,445.7,290.5,444.6,290.5z M444.1,277.2c-1,0-1.9,0.4-2.5,1s-1,1.6-1.1,2.9h7
			c0-1.2-0.4-2.2-0.9-2.9C445.8,277.4,445.1,277.2,444.1,277.2z"/>
		<path class="st3" d="M462,274.7c0.6,0,1.2,0,1.6,0.1l-0.4,3c-0.5-0.1-1-0.1-1.5-0.1c-1.2,0-2.4,0.4-3.1,1.2s-1.2,2-1.2,3.4v8h-3.2
			v-15.4h2.5l0.4,2.7h0.1c0.5-0.9,1.1-1.6,2-2.1S461,274.7,462,274.7z"/>
		<path class="st3" d="M473.1,290.5c-2.4,0-4.2-0.7-5.6-2.1s-2-3.2-2-5.7s0.6-4.5,1.9-5.9s3-2.1,5.1-2.1c2,0,3.6,0.6,4.7,1.9
			c1.1,1.2,1.7,2.9,1.7,5.1v1.7h-10.2c0,1.5,0.5,2.6,1.2,3.4s1.9,1.2,3.2,1.2c0.9,0,1.7-0.1,2.5-0.2c0.7-0.1,1.6-0.5,2.5-0.9v2.6
			c-0.7,0.4-1.6,0.6-2.4,0.7S474.1,290.5,473.1,290.5z M472.5,277.2c-1,0-1.9,0.4-2.5,1s-1,1.6-1.1,2.9h7c0-1.2-0.4-2.2-0.9-2.9
			C474.4,277.4,473.6,277.2,472.5,277.2z"/>
		<path class="st3" d="M496.2,290.3H493v-9.4c0-1.1-0.2-2.1-0.7-2.6s-1.2-0.9-2.2-0.9c-1.4,0-2.4,0.4-3,1.2s-1,2.1-1,4.1v7.6h-3.2
			v-15.5h2.5l0.5,2h0.1c0.5-0.7,1.1-1.2,2-1.7c0.9-0.4,1.7-0.6,2.9-0.6c3.6,0,5.5,1.9,5.5,5.6L496.2,290.3L496.2,290.3z"/>
	</g>
</g>
<g>
	<path class="st2" d="M85.5,170.2h6.3c2.9,0,5,0.4,6.3,1.3c1.3,0.9,1.9,2.2,1.9,4c0,1.2-0.3,2.3-1,3.1s-1.6,1.3-2.8,1.5v0.1
		c1.5,0.3,2.6,0.8,3.3,1.7c0.7,0.8,1.1,1.9,1.1,3.4c0,1.9-0.7,3.4-2,4.5c-1.3,1.1-3.2,1.6-5.5,1.6h-7.7V170.2z M89,179h3.3
		c1.4,0,2.5-0.2,3.2-0.7s1-1.2,1-2.3c0-1-0.4-1.7-1.1-2.2s-1.9-0.7-3.4-0.7h-3V179z M89,181.8v6.7h3.7c1.4,0,2.5-0.3,3.3-0.8
		s1.1-1.4,1.1-2.6c0-1.1-0.4-1.9-1.1-2.4c-0.8-0.5-1.9-0.8-3.4-0.8H89z"/>
	<path class="st2" d="M111.7,191.7c-2.5,0-4.4-0.7-5.8-2.2s-2.1-3.5-2.1-6c0-2.6,0.7-4.7,2-6.2c1.3-1.5,3.1-2.2,5.4-2.2
		c2.1,0,3.8,0.6,5,1.9c1.2,1.3,1.8,3.1,1.8,5.3v1.8h-10.7c0,1.6,0.5,2.8,1.3,3.6c0.8,0.8,1.9,1.3,3.3,1.3c0.9,0,1.8-0.1,2.6-0.3
		c0.8-0.2,1.7-0.5,2.6-0.9v2.8c-0.8,0.4-1.7,0.7-2.5,0.8S112.8,191.7,111.7,191.7z M111.1,177.7c-1.1,0-1.9,0.3-2.6,1
		c-0.7,0.7-1,1.7-1.2,3h7.3c0-1.3-0.3-2.3-1-3C113,178,112.2,177.7,111.1,177.7z"/>
	<path class="st2" d="M132.6,186.9c0,1.6-0.6,2.8-1.7,3.6c-1.1,0.8-2.8,1.3-4.9,1.3c-2.1,0-3.9-0.3-5.1-1v-2.9
		c1.9,0.9,3.6,1.3,5.3,1.3c2.1,0,3.1-0.6,3.1-1.9c0-0.4-0.1-0.7-0.3-1s-0.6-0.6-1.1-0.8s-1.3-0.6-2.2-1c-1.8-0.7-3.1-1.4-3.7-2.1
		s-1-1.6-1-2.8c0-1.4,0.6-2.4,1.7-3.2c1.1-0.8,2.6-1.1,4.5-1.1c1.9,0,3.7,0.4,5.3,1.1l-1.1,2.6c-1.7-0.7-3.2-1.1-4.4-1.1
		c-1.8,0-2.7,0.5-2.7,1.5c0,0.5,0.2,0.9,0.7,1.3c0.5,0.3,1.5,0.8,3.1,1.4c1.3,0.5,2.3,1,2.9,1.4c0.6,0.4,1,0.9,1.3,1.5
		S132.6,186.1,132.6,186.9z"/>
	<path class="st2" d="M147.6,191.4l-0.5-2.1h-0.2c-0.5,0.7-1.1,1.3-2,1.8c-0.9,0.4-1.9,0.6-3,0.6c-1.9,0-3.4-0.5-4.3-1.4
		s-1.4-2.4-1.4-4.4v-10.5h3.4v9.9c0,1.2,0.3,2.1,0.8,2.8s1.3,0.9,2.4,0.9c1.4,0,2.5-0.4,3.2-1.3c0.7-0.9,1-2.3,1-4.3v-8h3.4v16
		H147.6z"/>
	<path class="st2" d="M161.6,191.7c-2.4,0-4.3-0.7-5.5-2.1c-1.3-1.4-1.9-3.4-1.9-6.1c0-2.7,0.7-4.8,2-6.2s3.2-2.2,5.7-2.2
		c1.7,0,3.2,0.3,4.6,0.9l-1,2.7c-1.4-0.6-2.6-0.8-3.6-0.8c-2.8,0-4.2,1.8-4.2,5.5c0,1.8,0.3,3.1,1,4.1c0.7,0.9,1.7,1.4,3,1.4
		c1.5,0,3-0.4,4.3-1.1v3c-0.6,0.4-1.3,0.6-1.9,0.8C163.4,191.6,162.6,191.7,161.6,191.7z"/>
	<path class="st2" d="M183.9,191.4h-3.4v-9.9c0-1.2-0.2-2.2-0.7-2.8c-0.5-0.6-1.3-0.9-2.4-0.9c-1.4,0-2.5,0.4-3.2,1.3
		c-0.7,0.9-1,2.3-1,4.3v8h-3.4v-22.5h3.4v5.7c0,0.9-0.1,1.9-0.2,2.9h0.2c0.5-0.8,1.1-1.4,1.9-1.8c0.8-0.4,1.8-0.6,2.9-0.6
		c3.9,0,5.8,2,5.8,5.9V191.4z"/>
	<path class="st2" d="M195.7,191.7c-2.5,0-4.4-0.7-5.8-2.2s-2.1-3.5-2.1-6c0-2.6,0.7-4.7,2-6.2c1.3-1.5,3.1-2.2,5.4-2.2
		c2.1,0,3.8,0.6,5,1.9c1.2,1.3,1.8,3.1,1.8,5.3v1.8h-10.7c0,1.6,0.5,2.8,1.3,3.6c0.8,0.8,1.9,1.3,3.3,1.3c0.9,0,1.8-0.1,2.6-0.3
		c0.8-0.2,1.7-0.5,2.6-0.9v2.8c-0.8,0.4-1.7,0.7-2.5,0.8S196.7,191.7,195.7,191.7z M195,177.7c-1.1,0-1.9,0.3-2.6,1
		c-0.7,0.7-1,1.7-1.2,3h7.3c0-1.3-0.3-2.3-1-3C197,178,196.1,177.7,195,177.7z"/>
	<path class="st2" d="M219.9,191.4h-3.4v-9.9c0-1.2-0.2-2.2-0.7-2.8c-0.5-0.6-1.3-0.9-2.4-0.9c-1.4,0-2.5,0.4-3.2,1.3
		c-0.7,0.8-1,2.3-1,4.3v8h-3.4v-16h2.7l0.5,2.1h0.2c0.5-0.8,1.2-1.4,2.1-1.8c0.9-0.4,1.9-0.6,3-0.6c3.8,0,5.8,2,5.8,5.9V191.4z"/>
	<path class="st2" d="M244.9,185.7c0,1.9-0.7,3.4-2,4.4s-3.2,1.6-5.6,1.6s-4.4-0.4-5.9-1.1v-3.3c1,0.5,2,0.8,3.1,1.1s2.1,0.4,3,0.4
		c1.4,0,2.4-0.3,3-0.8s1-1.2,1-2.1c0-0.8-0.3-1.5-0.9-2c-0.6-0.5-1.8-1.2-3.7-2c-1.9-0.8-3.3-1.7-4.1-2.7c-0.8-1-1.2-2.2-1.2-3.6
		c0-1.8,0.6-3.2,1.9-4.2s2.9-1.5,5.1-1.5c2,0,4,0.4,6.1,1.3l-1.1,2.8c-1.9-0.8-3.6-1.2-5-1.2c-1.1,0-2,0.2-2.6,0.7
		c-0.6,0.5-0.9,1.1-0.9,1.9c0,0.6,0.1,1,0.3,1.4c0.2,0.4,0.6,0.8,1.1,1.1c0.5,0.3,1.5,0.8,2.9,1.4c1.6,0.6,2.7,1.3,3.4,1.8
		c0.7,0.6,1.3,1.2,1.6,1.9C244.7,183.9,244.9,184.7,244.9,185.7z"/>
	<path class="st2" d="M248.4,171.2c0-0.6,0.2-1.1,0.5-1.4c0.3-0.3,0.8-0.5,1.4-0.5c0.6,0,1.1,0.2,1.4,0.5c0.3,0.3,0.5,0.8,0.5,1.4
		c0,0.6-0.2,1-0.5,1.4c-0.3,0.3-0.8,0.5-1.4,0.5c-0.6,0-1.1-0.2-1.4-0.5C248.6,172.2,248.4,171.7,248.4,171.2z M252,191.4h-3.4v-16
		h3.4V191.4z"/>
	<path class="st2" d="M263.9,191.7c-2.5,0-4.4-0.7-5.8-2.2s-2.1-3.5-2.1-6c0-2.6,0.7-4.7,2-6.2c1.3-1.5,3.1-2.2,5.4-2.2
		c2.1,0,3.8,0.6,5,1.9c1.2,1.3,1.8,3.1,1.8,5.3v1.8h-10.7c0,1.6,0.5,2.8,1.3,3.6c0.8,0.8,1.9,1.3,3.3,1.3c0.9,0,1.8-0.1,2.6-0.3
		c0.8-0.2,1.7-0.5,2.6-0.9v2.8c-0.8,0.4-1.7,0.7-2.5,0.8S265,191.7,263.9,191.7z M263.3,177.7c-1.1,0-1.9,0.3-2.6,1
		c-0.7,0.7-1,1.7-1.2,3h7.3c0-1.3-0.3-2.3-1-3C265.2,178,264.4,177.7,263.3,177.7z"/>
	<path class="st2" d="M293,191.4l-0.5-2.1h-0.2c-0.5,0.7-1.1,1.3-2,1.8c-0.9,0.4-1.9,0.6-3,0.6c-1.9,0-3.4-0.5-4.3-1.4
		s-1.4-2.4-1.4-4.4v-10.5h3.4v9.9c0,1.2,0.3,2.1,0.8,2.8s1.3,0.9,2.4,0.9c1.4,0,2.5-0.4,3.2-1.3c0.7-0.9,1-2.3,1-4.3v-8h3.4v16H293z
		"/>
	<path class="st2" d="M314.6,191.4h-3.4v-9.9c0-1.2-0.2-2.2-0.7-2.8c-0.5-0.6-1.3-0.9-2.4-0.9c-1.4,0-2.5,0.4-3.2,1.3
		c-0.7,0.8-1,2.3-1,4.3v8h-3.4v-16h2.7l0.5,2.1h0.2c0.5-0.8,1.2-1.4,2.1-1.8c0.9-0.4,1.9-0.6,3-0.6c3.8,0,5.8,2,5.8,5.9V191.4z"/>
	<path class="st2" d="M330.2,186.9c0,1.6-0.6,2.8-1.7,3.6c-1.1,0.8-2.8,1.3-4.9,1.3c-2.1,0-3.9-0.3-5.1-1v-2.9
		c1.9,0.9,3.6,1.3,5.3,1.3c2.1,0,3.1-0.6,3.1-1.9c0-0.4-0.1-0.7-0.3-1s-0.6-0.6-1.1-0.8s-1.3-0.6-2.2-1c-1.8-0.7-3.1-1.4-3.7-2.1
		s-1-1.6-1-2.8c0-1.4,0.6-2.4,1.7-3.2c1.1-0.8,2.6-1.1,4.5-1.1c1.9,0,3.7,0.4,5.3,1.1l-1.1,2.6c-1.7-0.7-3.2-1.1-4.4-1.1
		c-1.8,0-2.7,0.5-2.7,1.5c0,0.5,0.2,0.9,0.7,1.3c0.5,0.3,1.5,0.8,3.1,1.4c1.3,0.5,2.3,1,2.9,1.4c0.6,0.4,1,0.9,1.3,1.5
		S330.2,186.1,330.2,186.9z"/>
	<path class="st2" d="M351.6,191.4l-0.7-2.2h-0.1c-0.8,1-1.6,1.6-2.3,2s-1.8,0.5-3,0.5c-1.6,0-2.8-0.4-3.7-1.3
		c-0.9-0.8-1.3-2.1-1.3-3.6c0-1.7,0.6-2.9,1.8-3.7c1.2-0.8,3.1-1.3,5.6-1.4l2.8-0.1v-0.9c0-1-0.2-1.8-0.7-2.3
		c-0.5-0.5-1.2-0.8-2.2-0.8c-0.8,0-1.6,0.1-2.4,0.4c-0.8,0.2-1.5,0.5-2.2,0.9l-1.1-2.4c0.9-0.5,1.8-0.8,2.9-1c1-0.2,2-0.4,2.9-0.4
		c2,0,3.6,0.4,4.6,1.3s1.6,2.3,1.6,4.2v10.8H351.6z M346.5,189.1c1.2,0,2.2-0.3,3-1c0.7-0.7,1.1-1.7,1.1-2.9v-1.4l-2.1,0.1
		c-1.6,0.1-2.8,0.3-3.5,0.8c-0.7,0.5-1.1,1.2-1.1,2.2c0,0.7,0.2,1.3,0.6,1.7C345,188.9,345.7,189.1,346.5,189.1z"/>
	<path class="st2" d="M370.1,191.4l-0.5-2.1h-0.2c-0.5,0.7-1.1,1.3-2,1.8c-0.9,0.4-1.9,0.6-3,0.6c-1.9,0-3.4-0.5-4.3-1.4
		s-1.4-2.4-1.4-4.4v-10.5h3.4v9.9c0,1.2,0.3,2.1,0.8,2.8s1.3,0.9,2.4,0.9c1.4,0,2.5-0.4,3.2-1.3c0.7-0.9,1-2.3,1-4.3v-8h3.4v16
		H370.1z"/>
	<path class="st2" d="M385.6,178h-3.9v13.4h-3.4V178h-2.6v-1.6l2.6-1v-1c0-1.9,0.4-3.3,1.3-4.2c0.9-0.9,2.2-1.4,4.1-1.4
		c1.2,0,2.4,0.2,3.5,0.6l-0.9,2.6c-0.8-0.3-1.6-0.4-2.4-0.4c-0.8,0-1.3,0.2-1.7,0.7s-0.5,1.2-0.5,2.2v1h3.9V178z"/>
	<path class="st2" d="M407.4,191.4l-0.5-2.1h-0.2c-0.5,0.7-1.1,1.3-2,1.8c-0.9,0.4-1.9,0.6-3,0.6c-1.9,0-3.4-0.5-4.3-1.4
		c-1-1-1.4-2.4-1.4-4.4v-10.5h3.4v9.9c0,1.2,0.3,2.1,0.8,2.8c0.5,0.6,1.3,0.9,2.4,0.9c1.4,0,2.5-0.4,3.2-1.3c0.7-0.9,1-2.3,1-4.3v-8
		h3.4v16H407.4z"/>
	<path class="st2" d="M429,191.4h-3.4v-9.9c0-1.2-0.2-2.2-0.7-2.8c-0.5-0.6-1.3-0.9-2.4-0.9c-1.4,0-2.5,0.4-3.2,1.3
		c-0.7,0.8-1,2.3-1,4.3v8h-3.4v-16h2.7l0.5,2.1h0.2c0.5-0.8,1.2-1.4,2.1-1.8c0.9-0.4,1.9-0.6,3-0.6c3.8,0,5.8,2,5.8,5.9V191.4z"/>
	<path class="st2" d="M444.5,186.9c0,1.6-0.6,2.8-1.7,3.6c-1.1,0.8-2.8,1.3-4.9,1.3c-2.1,0-3.8-0.3-5.1-1v-2.9
		c1.9,0.9,3.6,1.3,5.3,1.3c2.1,0,3.1-0.6,3.1-1.9c0-0.4-0.1-0.7-0.3-1c-0.2-0.3-0.6-0.6-1.1-0.8s-1.3-0.6-2.2-1
		c-1.8-0.7-3.1-1.4-3.7-2.1s-1-1.6-1-2.8c0-1.4,0.6-2.4,1.7-3.2c1.1-0.8,2.6-1.1,4.5-1.1c1.9,0,3.7,0.4,5.3,1.1l-1.1,2.6
		c-1.7-0.7-3.2-1.1-4.4-1.1c-1.8,0-2.7,0.5-2.7,1.5c0,0.5,0.2,0.9,0.7,1.3s1.5,0.8,3.1,1.4c1.3,0.5,2.3,1,2.9,1.4
		c0.6,0.4,1,0.9,1.3,1.5S444.5,186.1,444.5,186.9z"/>
	<path class="st2" d="M455.2,191.7c-2.5,0-4.4-0.7-5.8-2.2c-1.4-1.5-2.1-3.5-2.1-6c0-2.6,0.7-4.7,2-6.2c1.3-1.5,3.1-2.2,5.4-2.2
		c2.1,0,3.8,0.6,5,1.9s1.8,3.1,1.8,5.3v1.8h-10.7c0,1.6,0.5,2.8,1.3,3.6c0.8,0.8,1.9,1.3,3.3,1.3c0.9,0,1.8-0.1,2.6-0.3
		s1.7-0.5,2.6-0.9v2.8c-0.8,0.4-1.7,0.7-2.5,0.8C457.3,191.6,456.3,191.7,455.2,191.7z M454.6,177.7c-1.1,0-1.9,0.3-2.6,1
		c-0.7,0.7-1,1.7-1.2,3h7.3c0-1.3-0.3-2.3-1-3C456.5,178,455.7,177.7,454.6,177.7z"/>
	<path class="st2" d="M473.4,175.1c0.7,0,1.3,0,1.7,0.1l-0.3,3.2c-0.5-0.1-1-0.2-1.5-0.2c-1.4,0-2.5,0.4-3.3,1.3s-1.3,2-1.3,3.5v8.4
		h-3.4v-16h2.7l0.4,2.8h0.2c0.5-1,1.2-1.7,2.1-2.3C471.5,175.4,472.5,175.1,473.4,175.1z"/>
	<path class="st2" d="M485.1,191.7c-2.5,0-4.4-0.7-5.8-2.2c-1.4-1.5-2.1-3.5-2.1-6c0-2.6,0.7-4.7,2-6.2c1.3-1.5,3.1-2.2,5.4-2.2
		c2.1,0,3.8,0.6,5,1.9s1.8,3.1,1.8,5.3v1.8h-10.7c0,1.6,0.5,2.8,1.3,3.6c0.8,0.8,1.9,1.3,3.3,1.3c0.9,0,1.8-0.1,2.6-0.3
		s1.7-0.5,2.6-0.9v2.8c-0.8,0.4-1.7,0.7-2.5,0.8C487.2,191.6,486.2,191.7,485.1,191.7z M484.5,177.7c-1.1,0-1.9,0.3-2.6,1
		c-0.7,0.7-1,1.7-1.2,3h7.3c0-1.3-0.3-2.3-1-3C486.4,178,485.6,177.7,484.5,177.7z"/>
	<path class="st2" d="M503.3,175.1c0.7,0,1.3,0,1.7,0.1l-0.3,3.2c-0.5-0.1-1-0.2-1.5-0.2c-1.4,0-2.5,0.4-3.3,1.3
		c-0.8,0.9-1.3,2-1.3,3.5v8.4h-3.4v-16h2.7l0.4,2.8h0.2c0.5-1,1.2-1.7,2.1-2.3C501.4,175.4,502.4,175.1,503.3,175.1z"/>
	<path class="st2" d="M525.7,191.4l-0.7-2.2h-0.1c-0.8,1-1.6,1.6-2.3,2c-0.8,0.4-1.8,0.5-3,0.5c-1.6,0-2.8-0.4-3.7-1.3
		c-0.9-0.8-1.3-2.1-1.3-3.6c0-1.7,0.6-2.9,1.8-3.7c1.2-0.8,3.1-1.3,5.6-1.4l2.8-0.1v-0.9c0-1-0.2-1.8-0.7-2.3
		c-0.5-0.5-1.2-0.8-2.2-0.8c-0.8,0-1.6,0.1-2.4,0.4c-0.8,0.2-1.5,0.5-2.2,0.9l-1.1-2.4c0.9-0.5,1.8-0.8,2.9-1c1-0.2,2-0.4,2.9-0.4
		c2,0,3.6,0.4,4.6,1.3c1,0.9,1.6,2.3,1.6,4.2v10.8H525.7z M520.7,189.1c1.2,0,2.2-0.3,3-1c0.7-0.7,1.1-1.7,1.1-2.9v-1.4l-2.1,0.1
		c-1.6,0.1-2.8,0.3-3.5,0.8c-0.7,0.5-1.1,1.2-1.1,2.2c0,0.7,0.2,1.3,0.6,1.7S519.8,189.1,520.7,189.1z"/>
	<path class="st2" d="M536.3,191.4h-3.4v-22.5h3.4V191.4z"/>
	<path class="st2" d="M544.6,191.4h-3.4v-22.5h3.4V191.4z"/>
	<path class="st2" d="M547.8,198.6c-1,0-1.9-0.1-2.6-0.4v-2.7c0.7,0.2,1.3,0.3,2,0.3c1.4,0,2.2-0.8,2.2-2.5v-17.9h3.4v18.1
		c0,1.7-0.4,2.9-1.3,3.8C550.7,198.1,549.5,198.6,547.8,198.6z M549.3,171.2c0-0.6,0.2-1.1,0.5-1.4c0.3-0.3,0.8-0.5,1.4-0.5
		c0.6,0,1.1,0.2,1.4,0.5c0.3,0.3,0.5,0.8,0.5,1.4c0,0.6-0.2,1-0.5,1.4c-0.3,0.3-0.8,0.5-1.4,0.5c-0.6,0-1.1-0.2-1.4-0.5
		C549.4,172.2,549.3,171.7,549.3,171.2z"/>
	<path class="st2" d="M567.8,191.4l-0.7-2.2H567c-0.8,1-1.6,1.6-2.3,2s-1.8,0.5-3,0.5c-1.6,0-2.8-0.4-3.7-1.3
		c-0.9-0.8-1.3-2.1-1.3-3.6c0-1.7,0.6-2.9,1.8-3.7c1.2-0.8,3.1-1.3,5.6-1.4l2.8-0.1v-0.9c0-1-0.2-1.8-0.7-2.3
		c-0.5-0.5-1.2-0.8-2.2-0.8c-0.8,0-1.6,0.1-2.4,0.4c-0.8,0.2-1.5,0.5-2.2,0.9l-1.1-2.4c0.9-0.5,1.8-0.8,2.9-1c1-0.2,2-0.4,2.9-0.4
		c2,0,3.6,0.4,4.6,1.3c1,0.9,1.6,2.3,1.6,4.2v10.8H567.8z M559.4,171.2c0-0.6,0.2-1,0.5-1.3c0.3-0.3,0.7-0.4,1.2-0.4
		c0.5,0,0.9,0.1,1.2,0.4c0.3,0.3,0.5,0.7,0.5,1.2c0,0.5-0.2,0.9-0.5,1.2c-0.3,0.3-0.7,0.5-1.2,0.5c-0.5,0-0.9-0.1-1.2-0.4
		C559.6,172.2,559.4,171.7,559.4,171.2z M562.7,189.1c1.2,0,2.2-0.3,3-1s1.1-1.7,1.1-2.9v-1.4l-2.1,0.1c-1.6,0.1-2.8,0.3-3.5,0.8
		c-0.7,0.5-1.1,1.2-1.1,2.2c0,0.7,0.2,1.3,0.6,1.7C561.2,188.9,561.9,189.1,562.7,189.1z M565.1,171.2c0-0.6,0.2-1,0.5-1.3
		s0.7-0.4,1.2-0.4c0.5,0,0.9,0.1,1.2,0.4s0.5,0.7,0.5,1.2c0,0.5-0.2,0.9-0.5,1.2c-0.3,0.3-0.7,0.5-1.2,0.5c-0.5,0-0.9-0.1-1.2-0.4
		S565.1,171.7,565.1,171.2z"/>
	<path class="st2" d="M589.1,191.4h-3.4v-9.9c0-1.2-0.2-2.2-0.7-2.8c-0.5-0.6-1.3-0.9-2.4-0.9c-1.4,0-2.5,0.4-3.2,1.3
		c-0.7,0.9-1,2.3-1,4.3v8H575v-22.5h3.4v5.7c0,0.9-0.1,1.9-0.2,2.9h0.2c0.5-0.8,1.1-1.4,1.9-1.8c0.8-0.4,1.8-0.6,2.9-0.6
		c3.9,0,5.8,2,5.8,5.9V191.4z"/>
	<path class="st2" d="M601.9,175.1c0.7,0,1.3,0,1.7,0.1l-0.3,3.2c-0.5-0.1-1-0.2-1.5-0.2c-1.4,0-2.5,0.4-3.3,1.3s-1.3,2-1.3,3.5v8.4
		h-3.4v-16h2.7l0.4,2.8h0.2c0.5-1,1.2-1.7,2.1-2.3C600,175.4,601,175.1,601.9,175.1z"/>
	<path class="st2" d="M610,191.4h-3.4v-22.5h3.4V191.4z"/>
	<path class="st2" d="M614.7,171.2c0-0.6,0.2-1.1,0.5-1.4c0.3-0.3,0.8-0.5,1.4-0.5c0.6,0,1.1,0.2,1.4,0.5c0.3,0.3,0.5,0.8,0.5,1.4
		c0,0.6-0.2,1-0.5,1.4c-0.3,0.3-0.8,0.5-1.4,0.5c-0.6,0-1.1-0.2-1.4-0.5C614.8,172.2,614.7,171.7,614.7,171.2z M618.3,191.4h-3.4
		v-16h3.4V191.4z"/>
	<path class="st2" d="M629.6,191.7c-2.4,0-4.3-0.7-5.5-2.1s-1.9-3.4-1.9-6.1c0-2.7,0.7-4.8,2-6.2c1.3-1.4,3.2-2.2,5.7-2.2
		c1.7,0,3.2,0.3,4.6,0.9l-1,2.7c-1.4-0.6-2.6-0.8-3.6-0.8c-2.8,0-4.2,1.8-4.2,5.5c0,1.8,0.3,3.1,1,4.1s1.7,1.4,3,1.4
		c1.5,0,3-0.4,4.3-1.1v3c-0.6,0.4-1.3,0.6-1.9,0.8C631.4,191.6,630.6,191.7,629.6,191.7z"/>
	<path class="st2" d="M652,191.4h-3.4v-9.9c0-1.2-0.2-2.2-0.7-2.8c-0.5-0.6-1.3-0.9-2.4-0.9c-1.4,0-2.5,0.4-3.2,1.3
		c-0.7,0.9-1,2.3-1,4.3v8h-3.4v-22.5h3.4v5.7c0,0.9-0.1,1.9-0.2,2.9h0.2c0.5-0.8,1.1-1.4,1.9-1.8c0.8-0.4,1.8-0.6,2.9-0.6
		c3.9,0,5.8,2,5.8,5.9V191.4z"/>
	<path class="st2" d="M663.7,191.7c-2.5,0-4.4-0.7-5.8-2.2c-1.4-1.5-2.1-3.5-2.1-6c0-2.6,0.7-4.7,2-6.2c1.3-1.5,3.1-2.2,5.4-2.2
		c2.1,0,3.8,0.6,5,1.9c1.2,1.3,1.8,3.1,1.8,5.3v1.8h-10.7c0,1.6,0.5,2.8,1.3,3.6c0.8,0.8,1.9,1.3,3.3,1.3c0.9,0,1.8-0.1,2.6-0.3
		s1.7-0.5,2.6-0.9v2.8c-0.8,0.4-1.7,0.7-2.5,0.8C665.8,191.6,664.8,191.7,663.7,191.7z M663.1,177.7c-1.1,0-1.9,0.3-2.6,1
		c-0.7,0.7-1,1.7-1.2,3h7.3c0-1.3-0.3-2.3-1-3C665,178,664.2,177.7,663.1,177.7z"/>
	<path class="st2" d="M687.9,191.4h-3.4v-9.9c0-1.2-0.2-2.2-0.7-2.8c-0.5-0.6-1.3-0.9-2.4-0.9c-1.4,0-2.5,0.4-3.2,1.3
		c-0.7,0.8-1,2.3-1,4.3v8h-3.4v-16h2.7l0.5,2.1h0.2c0.5-0.8,1.2-1.4,2.1-1.8c0.9-0.4,1.9-0.6,3-0.6c3.8,0,5.8,2,5.8,5.9V191.4z"/>
	<path class="st2" d="M90.4,227h-4l-6.7-9.6l-2,1.7v7.9h-3.5v-21.2h3.5V216c0.9-1.2,1.9-2.3,2.8-3.3l5.7-6.8h3.9
		c-3.7,4.3-6.4,7.4-8,9.3L90.4,227z"/>
	<path class="st2" d="M107.1,219c0,2.6-0.7,4.7-2,6.1c-1.3,1.5-3.2,2.2-5.6,2.2c-1.5,0-2.8-0.3-4-1c-1.1-0.7-2-1.6-2.7-2.9
		c-0.6-1.3-0.9-2.7-0.9-4.4c0-2.6,0.7-4.6,2-6.1c1.3-1.5,3.2-2.2,5.6-2.2c2.3,0,4.2,0.7,5.5,2.2S107.1,216.5,107.1,219z M95.4,219
		c0,3.7,1.4,5.6,4.1,5.6c2.7,0,4.1-1.9,4.1-5.6c0-3.7-1.4-5.5-4.1-5.5c-1.4,0-2.5,0.5-3.1,1.4C95.8,215.9,95.4,217.2,95.4,219z"/>
	<path class="st2" d="M125.1,227h-3.4v-9.9c0-1.2-0.2-2.2-0.7-2.8c-0.5-0.6-1.3-0.9-2.4-0.9c-1.4,0-2.5,0.4-3.2,1.3
		c-0.7,0.9-1,2.3-1,4.3v8H111v-16h2.7l0.5,2.1h0.2c0.5-0.8,1.2-1.4,2.1-1.8c0.9-0.4,1.9-0.6,3-0.6c3.8,0,5.8,2,5.8,5.9V227z"/>
	<path class="st2" d="M137.9,213.6H134V227h-3.4v-13.4h-2.6V212l2.6-1v-1c0-1.9,0.4-3.3,1.3-4.2c0.9-0.9,2.2-1.4,4.1-1.4
		c1.2,0,2.4,0.2,3.5,0.6l-0.9,2.6c-0.8-0.3-1.6-0.4-2.4-0.4c-0.8,0-1.3,0.2-1.7,0.7S134,209,134,210v1h3.9V213.6z"/>
	<path class="st2" d="M147.6,227.3c-2.5,0-4.4-0.7-5.8-2.2c-1.4-1.5-2.1-3.5-2.1-6c0-2.6,0.7-4.7,2-6.2c1.3-1.5,3.1-2.2,5.4-2.2
		c2.1,0,3.8,0.6,5,1.9c1.2,1.3,1.8,3.1,1.8,5.3v1.8h-10.7c0,1.6,0.5,2.8,1.3,3.6c0.8,0.8,1.9,1.3,3.3,1.3c0.9,0,1.8-0.1,2.6-0.3
		c0.8-0.2,1.7-0.5,2.6-0.9v2.8c-0.8,0.4-1.7,0.7-2.5,0.8C149.7,227.3,148.7,227.3,147.6,227.3z M147,213.3c-1.1,0-1.9,0.3-2.6,1
		c-0.7,0.7-1,1.7-1.2,3h7.3c0-1.3-0.3-2.3-1-3S148.1,213.3,147,213.3z"/>
	<path class="st2" d="M165.8,210.7c0.7,0,1.3,0,1.7,0.1l-0.3,3.2c-0.5-0.1-1-0.2-1.5-0.2c-1.4,0-2.5,0.4-3.3,1.3
		c-0.8,0.9-1.3,2-1.3,3.5v8.4h-3.4v-16h2.7l0.4,2.8h0.2c0.5-1,1.2-1.7,2.1-2.3S164.9,210.7,165.8,210.7z"/>
	<path class="st2" d="M177.5,227.3c-2.5,0-4.4-0.7-5.8-2.2c-1.4-1.5-2.1-3.5-2.1-6c0-2.6,0.7-4.7,2-6.2c1.3-1.5,3.1-2.2,5.4-2.2
		c2.1,0,3.8,0.6,5,1.9c1.2,1.3,1.8,3.1,1.8,5.3v1.8h-10.7c0,1.6,0.5,2.8,1.3,3.6c0.8,0.8,1.9,1.3,3.3,1.3c0.9,0,1.8-0.1,2.6-0.3
		c0.8-0.2,1.7-0.5,2.6-0.9v2.8c-0.8,0.4-1.7,0.7-2.5,0.8C179.6,227.3,178.6,227.3,177.5,227.3z M176.9,213.3c-1.1,0-1.9,0.3-2.6,1
		c-0.7,0.7-1,1.7-1.2,3h7.3c0-1.3-0.3-2.3-1-3S178,213.3,176.9,213.3z"/>
	<path class="st2" d="M201.7,227h-3.4v-9.9c0-1.2-0.2-2.2-0.7-2.8c-0.5-0.6-1.3-0.9-2.4-0.9c-1.4,0-2.5,0.4-3.2,1.3
		c-0.7,0.9-1,2.3-1,4.3v8h-3.4v-16h2.7l0.5,2.1h0.2c0.5-0.8,1.2-1.4,2.1-1.8c0.9-0.4,1.9-0.6,3-0.6c3.8,0,5.8,2,5.8,5.9V227z"/>
	<path class="st2" d="M217.2,227H205v-2.1l8.1-11.3h-7.6V211h11.4v2.4l-7.9,11h8.2V227z"/>
	<path class="st2" d="M228.2,206.8c0-0.6,0.2-1.1,0.5-1.4c0.3-0.3,0.8-0.5,1.4-0.5c0.6,0,1.1,0.2,1.4,0.5c0.3,0.3,0.5,0.8,0.5,1.4
		c0,0.6-0.2,1-0.5,1.4c-0.3,0.3-0.8,0.5-1.4,0.5c-0.6,0-1.1-0.2-1.4-0.5C228.3,207.8,228.2,207.4,228.2,206.8z M231.8,227h-3.4v-16
		h3.4V227z"/>
	<path class="st2" d="M250.7,227h-3.4v-9.9c0-1.2-0.2-2.2-0.7-2.8c-0.5-0.6-1.3-0.9-2.4-0.9c-1.4,0-2.5,0.4-3.2,1.3
		c-0.7,0.9-1,2.3-1,4.3v8h-3.4v-16h2.7l0.5,2.1h0.2c0.5-0.8,1.2-1.4,2.1-1.8c0.9-0.4,1.9-0.6,3-0.6c3.8,0,5.8,2,5.8,5.9V227z"/>
	<path class="st2" d="M263.5,205.9h6.3c2.9,0,5,0.4,6.3,1.3c1.3,0.9,1.9,2.2,1.9,4c0,1.2-0.3,2.3-1,3.1c-0.6,0.8-1.6,1.3-2.8,1.5
		v0.1c1.5,0.3,2.6,0.8,3.3,1.7c0.7,0.8,1.1,1.9,1.1,3.4c0,1.9-0.7,3.4-2,4.5c-1.3,1.1-3.2,1.6-5.5,1.6h-7.7V205.9z M267,214.6h3.3
		c1.4,0,2.5-0.2,3.2-0.7s1-1.2,1-2.3c0-1-0.4-1.7-1.1-2.2s-1.9-0.7-3.4-0.7h-3V214.6z M267,217.4v6.7h3.7c1.4,0,2.5-0.3,3.3-0.8
		s1.1-1.4,1.1-2.6c0-1.1-0.4-1.9-1.1-2.4c-0.8-0.5-1.9-0.8-3.4-0.8H267z"/>
	<path class="st2" d="M289.8,227.3c-2.5,0-4.4-0.7-5.8-2.2c-1.4-1.5-2.1-3.5-2.1-6c0-2.6,0.7-4.7,2-6.2c1.3-1.5,3.1-2.2,5.4-2.2
		c2.1,0,3.8,0.6,5,1.9c1.2,1.3,1.8,3.1,1.8,5.3v1.8h-10.7c0,1.6,0.5,2.8,1.3,3.6c0.8,0.8,1.9,1.3,3.3,1.3c0.9,0,1.8-0.1,2.6-0.3
		c0.8-0.2,1.7-0.5,2.6-0.9v2.8c-0.8,0.4-1.7,0.7-2.5,0.8C291.8,227.3,290.9,227.3,289.8,227.3z M289.1,213.3c-1.1,0-1.9,0.3-2.6,1
		c-0.7,0.7-1,1.7-1.2,3h7.3c0-1.3-0.3-2.3-1-3S290.2,213.3,289.1,213.3z"/>
	<path class="st2" d="M308,210.7c0.7,0,1.3,0,1.7,0.1l-0.3,3.2c-0.5-0.1-1-0.2-1.5-0.2c-1.4,0-2.5,0.4-3.3,1.3
		c-0.8,0.9-1.3,2-1.3,3.5v8.4h-3.4v-16h2.7l0.4,2.8h0.2c0.5-1,1.2-1.7,2.1-2.3S307,210.7,308,210.7z"/>
	<path class="st2" d="M316.1,227h-3.4v-22.5h3.4V227z"/>
	<path class="st2" d="M320.7,206.8c0-0.6,0.2-1.1,0.5-1.4c0.3-0.3,0.8-0.5,1.4-0.5c0.6,0,1.1,0.2,1.4,0.5c0.3,0.3,0.5,0.8,0.5,1.4
		c0,0.6-0.2,1-0.5,1.4c-0.3,0.3-0.8,0.5-1.4,0.5c-0.6,0-1.1-0.2-1.4-0.5C320.9,207.8,320.7,207.4,320.7,206.8z M324.3,227h-3.4v-16
		h3.4V227z"/>
	<path class="st2" d="M343.3,227h-3.4v-9.9c0-1.2-0.2-2.2-0.7-2.8c-0.5-0.6-1.3-0.9-2.4-0.9c-1.4,0-2.5,0.4-3.2,1.3
		c-0.7,0.9-1,2.3-1,4.3v8h-3.4v-16h2.7l0.5,2.1h0.2c0.5-0.8,1.2-1.4,2.1-1.8c0.9-0.4,1.9-0.6,3-0.6c3.8,0,5.8,2,5.8,5.9V227z"/>
	<path class="st2" d="M365.8,227l-0.7-2.2H365c-0.8,1-1.6,1.6-2.3,2s-1.8,0.5-3,0.5c-1.6,0-2.8-0.4-3.7-1.3
		c-0.9-0.9-1.3-2.1-1.3-3.6c0-1.7,0.6-2.9,1.8-3.7c1.2-0.8,3.1-1.3,5.6-1.4l2.8-0.1v-0.9c0-1-0.2-1.8-0.7-2.3
		c-0.5-0.5-1.2-0.8-2.2-0.8c-0.8,0-1.6,0.1-2.4,0.4c-0.8,0.2-1.5,0.5-2.2,0.9l-1.1-2.4c0.9-0.5,1.8-0.8,2.9-1c1-0.2,2-0.4,2.9-0.4
		c2,0,3.6,0.4,4.6,1.3s1.6,2.3,1.6,4.2V227H365.8z M360.7,224.7c1.2,0,2.2-0.3,3-1c0.7-0.7,1.1-1.7,1.1-2.9v-1.4l-2.1,0.1
		c-1.6,0.1-2.8,0.3-3.5,0.8s-1.1,1.2-1.1,2.2c0,0.7,0.2,1.3,0.6,1.7C359.2,224.5,359.9,224.7,360.7,224.7z"/>
	<path class="st2" d="M386.5,227h-3.4v-9.9c0-1.2-0.2-2.1-0.7-2.7s-1.2-0.9-2.2-0.9c-1.3,0-2.3,0.4-2.9,1.3
		c-0.6,0.9-0.9,2.3-0.9,4.3v8H373v-16h2.7l0.5,2.1h0.2c0.4-0.8,1.1-1.4,1.9-1.8c0.8-0.4,1.8-0.6,2.8-0.6c2.5,0,4.1,0.8,4.9,2.5h0.2
		c0.5-0.8,1.1-1.4,2-1.9c0.9-0.4,1.8-0.7,3-0.7c1.9,0,3.3,0.5,4.2,1.4c0.9,1,1.3,2.4,1.3,4.4V227h-3.4v-9.9c0-1.2-0.2-2.1-0.7-2.7
		s-1.2-0.9-2.2-0.9c-1.3,0-2.3,0.4-2.9,1.2c-0.6,0.8-0.9,2.1-0.9,3.8V227z"/>
	<path class="st2" d="M422.3,227h-14.4v-2.6l5.5-5.5c1.6-1.7,2.7-2.8,3.2-3.5c0.5-0.7,0.9-1.3,1.2-1.9c0.2-0.6,0.4-1.3,0.4-2
		c0-1-0.3-1.7-0.9-2.3c-0.6-0.6-1.4-0.8-2.4-0.8c-0.8,0-1.6,0.2-2.4,0.4c-0.8,0.3-1.6,0.8-2.6,1.6l-1.8-2.2c1.2-1,2.3-1.7,3.4-2.1
		c1.1-0.4,2.3-0.6,3.5-0.6c2,0,3.6,0.5,4.7,1.5s1.8,2.4,1.8,4.2c0,1-0.2,1.9-0.5,2.7c-0.3,0.9-0.9,1.7-1.6,2.7
		c-0.7,0.9-1.9,2.1-3.5,3.7l-3.7,3.6v0.1h10.1V227z"/>
	<path class="st2" d="M439.2,216.5c0,3.7-0.6,6.4-1.8,8.2c-1.2,1.8-3,2.7-5.4,2.7c-2.4,0-4.1-0.9-5.4-2.8c-1.2-1.8-1.8-4.5-1.8-8.1
		c0-3.7,0.6-6.5,1.8-8.3c1.2-1.8,3-2.7,5.4-2.7c2.4,0,4.2,0.9,5.4,2.8C438.6,210.2,439.2,212.9,439.2,216.5z M428.3,216.5
		c0,2.9,0.3,5,0.9,6.2c0.6,1.2,1.5,1.9,2.8,1.9c1.3,0,2.3-0.6,2.9-1.9c0.6-1.3,0.9-3.3,0.9-6.2c0-2.8-0.3-4.9-0.9-6.2
		c-0.6-1.3-1.6-1.9-2.9-1.9c-1.3,0-2.3,0.6-2.8,1.9C428.6,211.5,428.3,213.6,428.3,216.5z"/>
	<path class="st2" d="M442.4,225.2c0-0.7,0.2-1.2,0.6-1.6s0.9-0.6,1.6-0.6c0.7,0,1.2,0.2,1.6,0.6c0.4,0.4,0.5,0.9,0.5,1.6
		c0,0.7-0.2,1.2-0.6,1.6c-0.4,0.4-0.9,0.6-1.6,0.6c-0.7,0-1.2-0.2-1.6-0.6C442.6,226.5,442.4,225.9,442.4,225.2z"/>
	<path class="st2" d="M457.8,221.4c0-1.3,0.3-2.4,0.9-3.3c0.6-0.9,1.7-1.9,3.3-2.8c-0.9-1.1-1.5-2-1.9-2.7s-0.5-1.5-0.5-2.3
		c0-1.5,0.5-2.6,1.6-3.5c1-0.8,2.5-1.3,4.2-1.3c1.7,0,3.1,0.4,4,1.2c1,0.8,1.5,1.9,1.5,3.3c0,1.1-0.3,2.1-1,3
		c-0.7,0.9-1.7,1.8-3.3,2.7l5,4.8c0.8-1,1.4-2.5,2-4.5h3.5c-0.7,2.7-1.8,5-3.2,6.7l4.4,4.2h-4.4l-2.2-2.1c-1,0.8-2,1.4-3.2,1.8
		c-1.1,0.4-2.4,0.6-3.7,0.6c-2.2,0-4-0.5-5.2-1.6C458.4,224.7,457.8,223.3,457.8,221.4z M465.1,224.4c1.8,0,3.3-0.5,4.5-1.6
		l-5.6-5.5c-1,0.7-1.7,1.3-2.1,1.8c-0.4,0.6-0.6,1.2-0.6,2c0,0.9,0.3,1.7,1,2.3C463.1,224.1,464,224.4,465.1,224.4z M462.9,210.4
		c0,0.6,0.2,1.2,0.5,1.7c0.3,0.5,0.8,1.1,1.4,1.7c1.1-0.6,1.9-1.2,2.3-1.7s0.7-1.1,0.7-1.8c0-0.6-0.2-1.1-0.6-1.5
		c-0.4-0.4-1-0.6-1.7-0.6c-0.8,0-1.4,0.2-1.8,0.6C463.1,209.2,462.9,209.8,462.9,210.4z"/>
	<path class="st2" d="M501.7,227h-14.4v-2.6l5.5-5.5c1.6-1.7,2.7-2.8,3.2-3.5c0.5-0.7,0.9-1.3,1.2-1.9c0.2-0.6,0.4-1.3,0.4-2
		c0-1-0.3-1.7-0.9-2.3c-0.6-0.6-1.4-0.8-2.4-0.8c-0.8,0-1.6,0.2-2.4,0.4c-0.8,0.3-1.6,0.8-2.6,1.6l-1.8-2.2c1.2-1,2.3-1.7,3.4-2.1
		c1.1-0.4,2.3-0.6,3.5-0.6c2,0,3.6,0.5,4.7,1.5s1.8,2.4,1.8,4.2c0,1-0.2,1.9-0.5,2.7c-0.3,0.9-0.9,1.7-1.6,2.7
		c-0.7,0.9-1.9,2.1-3.5,3.7l-3.7,3.6v0.1h10.1V227z"/>
	<path class="st2" d="M514.3,227h-3.4v-13.7c0-1.6,0-2.9,0.1-3.9c-0.2,0.2-0.5,0.5-0.8,0.8c-0.3,0.3-1.4,1.2-3.3,2.7l-1.7-2.2
		l6.2-4.9h2.8V227z"/>
	<path class="st2" d="M521.9,225.2c0-0.7,0.2-1.2,0.6-1.6s0.9-0.6,1.6-0.6c0.7,0,1.2,0.2,1.6,0.6c0.4,0.4,0.5,0.9,0.5,1.6
		c0,0.7-0.2,1.2-0.6,1.6c-0.4,0.4-0.9,0.6-1.6,0.6c-0.7,0-1.2-0.2-1.6-0.6C522.1,226.5,521.9,225.9,521.9,225.2z"/>
	<path class="st2" d="M550.8,221.3c0,1.9-0.7,3.4-2,4.4c-1.4,1.1-3.2,1.6-5.6,1.6c-2.4,0-4.4-0.4-5.9-1.1v-3.3c1,0.5,2,0.8,3.1,1.1
		c1.1,0.3,2.1,0.4,3,0.4c1.4,0,2.4-0.3,3-0.8s1-1.2,1-2.1c0-0.8-0.3-1.5-0.9-2c-0.6-0.6-1.8-1.2-3.7-2c-1.9-0.8-3.3-1.7-4.1-2.7
		c-0.8-1-1.2-2.2-1.2-3.6c0-1.8,0.6-3.2,1.9-4.2s2.9-1.5,5.1-1.5c2,0,4,0.4,6.1,1.3l-1.1,2.8c-1.9-0.8-3.6-1.2-5-1.2
		c-1.1,0-2,0.2-2.6,0.7c-0.6,0.5-0.9,1.1-0.9,1.9c0,0.6,0.1,1,0.3,1.4c0.2,0.4,0.6,0.8,1.1,1.1c0.5,0.3,1.5,0.8,2.9,1.4
		c1.6,0.6,2.7,1.3,3.4,1.8c0.7,0.6,1.3,1.2,1.6,1.9C550.7,219.5,550.8,220.3,550.8,221.3z"/>
	<path class="st2" d="M561.6,227.3c-2.5,0-4.4-0.7-5.8-2.2c-1.4-1.5-2.1-3.5-2.1-6c0-2.6,0.7-4.7,2-6.2c1.3-1.5,3.1-2.2,5.4-2.2
		c2.1,0,3.8,0.6,5,1.9c1.2,1.3,1.8,3.1,1.8,5.3v1.8h-10.7c0,1.6,0.5,2.8,1.3,3.6s1.9,1.3,3.3,1.3c0.9,0,1.8-0.1,2.6-0.3
		s1.7-0.5,2.6-0.9v2.8c-0.8,0.4-1.7,0.7-2.5,0.8C563.6,227.3,562.7,227.3,561.6,227.3z M560.9,213.3c-1.1,0-1.9,0.3-2.6,1
		c-0.7,0.7-1,1.7-1.2,3h7.3c0-1.3-0.3-2.3-1-3C562.9,213.6,562,213.3,560.9,213.3z"/>
	<path class="st2" d="M579.8,227.3c-2,0-3.6-0.7-4.7-2.2h-0.2c0.1,1.4,0.2,2.2,0.2,2.5v6.6h-3.4V211h2.8c0.1,0.3,0.2,1,0.5,2.1h0.2
		c1.1-1.6,2.7-2.4,4.8-2.4c2,0,3.6,0.7,4.7,2.2c1.1,1.4,1.7,3.5,1.7,6.1s-0.6,4.7-1.7,6.1C583.4,226.6,581.8,227.3,579.8,227.3z
		 M579,213.5c-1.4,0-2.3,0.4-3,1.2c-0.6,0.8-0.9,2.1-0.9,3.8v0.5c0,2,0.3,3.4,0.9,4.2c0.6,0.9,1.6,1.3,3,1.3c1.2,0,2.1-0.5,2.7-1.4
		c0.6-1,1-2.3,1-4.1c0-1.8-0.3-3.2-0.9-4.1S580.2,213.5,579,213.5z"/>
	<path class="st2" d="M596.1,224.6c0.8,0,1.7-0.1,2.5-0.4v2.6c-0.4,0.2-0.9,0.3-1.5,0.4c-0.6,0.1-1.2,0.2-1.8,0.2
		c-3.2,0-4.8-1.7-4.8-5.1v-8.6h-2.2v-1.5l2.3-1.2l1.2-3.4h2.1v3.6h4.6v2.6h-4.6v8.6c0,0.8,0.2,1.4,0.6,1.8
		C594.9,224.4,595.5,224.6,596.1,224.6z"/>
	<path class="st2" d="M608.8,227.3c-2.5,0-4.4-0.7-5.8-2.2c-1.4-1.5-2.1-3.5-2.1-6c0-2.6,0.7-4.7,2-6.2c1.3-1.5,3.1-2.2,5.4-2.2
		c2.1,0,3.8,0.6,5,1.9c1.2,1.3,1.8,3.1,1.8,5.3v1.8h-10.7c0,1.6,0.5,2.8,1.3,3.6s1.9,1.3,3.3,1.3c0.9,0,1.8-0.1,2.6-0.3
		s1.7-0.5,2.6-0.9v2.8c-0.8,0.4-1.7,0.7-2.5,0.8C610.9,227.3,609.9,227.3,608.8,227.3z M608.2,213.3c-1.1,0-1.9,0.3-2.6,1
		c-0.7,0.7-1,1.7-1.2,3h7.3c0-1.3-0.3-2.3-1-3C610.1,213.6,609.3,213.3,608.2,213.3z"/>
	<path class="st2" d="M632.4,227H629v-9.9c0-1.2-0.2-2.1-0.7-2.7c-0.5-0.6-1.2-0.9-2.2-0.9c-1.3,0-2.3,0.4-2.9,1.3
		c-0.6,0.9-0.9,2.3-0.9,4.3v8h-3.4v-16h2.7l0.5,2.1h0.2c0.4-0.8,1.1-1.4,1.9-1.8c0.8-0.4,1.8-0.6,2.8-0.6c2.5,0,4.1,0.8,4.9,2.5h0.2
		c0.5-0.8,1.1-1.4,2-1.9c0.9-0.4,1.8-0.7,3-0.7c1.9,0,3.3,0.5,4.2,1.4c0.9,1,1.3,2.4,1.3,4.4V227h-3.4v-9.9c0-1.2-0.2-2.1-0.7-2.7
		s-1.2-0.9-2.2-0.9c-1.3,0-2.3,0.4-2.9,1.2c-0.6,0.8-0.9,2.1-0.9,3.8V227z"/>
	<path class="st2" d="M655.5,210.7c2,0,3.6,0.7,4.7,2.2c1.1,1.4,1.7,3.5,1.7,6.1c0,2.6-0.6,4.7-1.7,6.1c-1.1,1.5-2.7,2.2-4.7,2.2
		c-2,0-3.6-0.7-4.7-2.2h-0.2l-0.6,1.9h-2.6v-22.5h3.4v5.4c0,0.4,0,1-0.1,1.8c0,0.8-0.1,1.3-0.1,1.5h0.1
		C651.8,211.5,653.4,210.7,655.5,210.7z M654.6,213.5c-1.4,0-2.4,0.4-3,1.2c-0.6,0.8-0.9,2.2-0.9,4v0.2c0,2,0.3,3.4,0.9,4.2
		c0.6,0.9,1.6,1.3,3,1.3c1.2,0,2.1-0.5,2.7-1.4c0.6-1,0.9-2.3,0.9-4.1C658.4,215.3,657.1,213.5,654.6,213.5z"/>
	<path class="st2" d="M672.8,227.3c-2.5,0-4.4-0.7-5.8-2.2c-1.4-1.5-2.1-3.5-2.1-6c0-2.6,0.7-4.7,2-6.2c1.3-1.5,3.1-2.2,5.4-2.2
		c2.1,0,3.8,0.6,5,1.9c1.2,1.3,1.8,3.1,1.8,5.3v1.8h-10.7c0,1.6,0.5,2.8,1.3,3.6s1.9,1.3,3.3,1.3c0.9,0,1.8-0.1,2.6-0.3
		s1.7-0.5,2.6-0.9v2.8c-0.8,0.4-1.7,0.7-2.5,0.8C674.9,227.3,673.9,227.3,672.8,227.3z M672.2,213.3c-1.1,0-1.9,0.3-2.6,1
		c-0.7,0.7-1,1.7-1.2,3h7.3c0-1.3-0.3-2.3-1-3C674.1,213.6,673.3,213.3,672.2,213.3z"/>
	<path class="st2" d="M691,210.7c0.7,0,1.3,0,1.7,0.1l-0.3,3.2c-0.5-0.1-1-0.2-1.5-0.2c-1.4,0-2.5,0.4-3.3,1.3s-1.3,2-1.3,3.5v8.4
		h-3.4v-16h2.7l0.4,2.8h0.2c0.5-1,1.2-1.7,2.1-2.3C689.1,211,690,210.7,691,210.7z"/>
</g>
</svg>
