<?xml version="1.0" encoding="utf-8"?>
<!-- Generator: Adobe Illustrator 24.1.1, SVG Export Plug-In . SVG Version: 6.00 Build 0)  -->
<svg version="1.1" id="_1" xmlns="http://www.w3.org/2000/svg" xmlns:xlink="http://www.w3.org/1999/xlink" x="0px" y="0px"
	 viewBox="0 0 512 512" style="enable-background:new 0 0 512 512;" xml:space="preserve">
<style type="text/css">
	.st0{fill:#939598;}
	.st1{fill:none;}
	.st2{fill:url(#SVGID_1_);}
	.st3{fill:url(#SVGID_2_);}
	.st4{fill:url(#SVGID_3_);}
	.st5{fill:url(#SVGID_4_);}
	.st6{fill:url(#SVGID_5_);}
	.st7{fill:url(#SVGID_6_);}
	.st8{fill:url(#SVGID_7_);}
	.st9{fill:url(#SVGID_8_);}
	.st10{fill:url(#SVGID_9_);}
	.st11{fill:url(#SVGID_10_);}
	.st12{fill:url(#SVGID_11_);}
	.st13{fill:url(#SVGID_12_);}
	.st14{fill:url(#SVGID_13_);}
	.st15{fill:url(#SVGID_14_);}
	.st16{fill:url(#SVGID_15_);}
	.st17{fill:url(#SVGID_16_);}
	.st18{fill:url(#SVGID_17_);}
	.st19{fill:url(#SVGID_18_);}
	.st20{fill:url(#SVGID_19_);}
</style>
<path class="st0" d="M256,10c135.9,0.1,246,110.3,245.9,246.2c-0.1,98.8-59.2,188-150.2,226.5c-125.2,52.9-269.5-5.7-322.4-130.9
	S35.1,82.2,160.3,29.3C190.5,16.5,223.1,9.9,256,10 M256,0C114.6,0,0,114.6,0,256s114.6,256,256,256s256-114.6,256-256
	S397.4,0,256,0z"/>
<line class="st1" x1="408.9" y1="218.5" x2="420.5" y2="212.1"/>
<line class="st1" x1="431" y1="259.6" x2="435.5" y2="279.8"/>
<g>
	<g>
		<g>
			<linearGradient id="SVGID_1_" gradientUnits="userSpaceOnUse" x1="54.487" y1="350.6027" x2="317.2911" y2="350.6027">
				<stop  offset="0.11" style="stop-color:#FF1E00"/>
				<stop  offset="0.25" style="stop-color:#FF2700"/>
				<stop  offset="0.48" style="stop-color:#FF3F00"/>
				<stop  offset="0.77" style="stop-color:#FF6700"/>
				<stop  offset="1" style="stop-color:#FF8B00"/>
			</linearGradient>
			<path class="st2" d="M293.2,376.4h-30.3c-4.3,0-7.8,3.5-7.8,7.8c0,4.3,3.5,7.8,7.8,7.8h30.3c4.7,0,8.5,3.8,8.5,8.5
				c0,4.7-3.8,8.5-8.5,8.5h-81.6c-12.3,0-23.8-5.4-31.6-14.8l-19.5-23.5c-10.5-12.6-25.7-20-42-20.4v-46.1h28.8
				c14.2,0,27.6,5.4,37.8,15.3l42.1,40.6c3,2.9,3.1,7.7,0.3,10.7c-2.9,3.1-7.7,3.3-10.8,0.5l-33.1-30.3c-3.2-2.9-8.1-2.7-11,0.5
				c-2.9,3.2-2.7,8.1,0.5,11l33.1,30.3c4.5,4.1,10.1,6.1,15.7,6.1c6.3,0,12.6-2.5,17.1-7.5c8.5-9.2,8.1-23.8-0.9-32.6l-42.1-40.6
				c-13.1-12.7-30.4-19.7-48.7-19.7h-30.3c-2.9-7-9.8-11.9-17.8-11.9H62.3c-4.3,0-7.8,3.5-7.8,7.8v57.1c0,4.3,3.5,7.8,7.8,7.8
				s7.8-3.5,7.8-7.8v-49.3h29c2.1,0,3.7,1.7,3.7,3.7v62.6c0,2.1-1.7,3.7-3.7,3.7H91c-4.3,0-7.8,3.5-7.8,7.8c0,4.3,3.5,7.8,7.8,7.8
				h8.1c8.1,0,15.1-5,18-12.1c12.2,0.1,23.6,5.5,31.4,14.8l19.5,23.5c10.8,13,26.7,20.5,43.7,20.5h81.6c13.3,0,24.1-10.8,24.1-24.1
				S306.5,376.4,293.2,376.4z"/>
		</g>
	</g>
	<g>
		<g>
			<linearGradient id="SVGID_2_" gradientUnits="userSpaceOnUse" x1="191.6582" y1="160.3969" x2="454.463" y2="160.3969">
				<stop  offset="0.11" style="stop-color:#FF1E00"/>
				<stop  offset="0.25" style="stop-color:#FF2700"/>
				<stop  offset="0.48" style="stop-color:#FF3F00"/>
				<stop  offset="0.77" style="stop-color:#FF6700"/>
				<stop  offset="1" style="stop-color:#FF8B00"/>
			</linearGradient>
			<path class="st3" d="M446.7,158.6c-4.3,0-7.8,3.5-7.8,7.8v52.4h-29c-2.1,0-3.7-1.7-3.7-3.7v-62.6c0-2.1,1.7-3.7,3.7-3.7h7.5
				c4.3,0,7.8-3.5,7.8-7.8c0-4.3-3.5-7.8-7.8-7.8h-7.5c-8.1,0-15.1,5-18,12.1c-12.2-0.1-23.6-5.5-31.4-14.8L341,106.9
				c-10.8-13-26.7-20.5-43.7-20.5h-81.6c-13.3,0-24.1,10.8-24.1,24.1s10.8,24.1,24.1,24.1h33.4c4.3,0,7.8-3.5,7.8-7.8
				c0-4.3-3.5-7.8-7.8-7.8h-33.4c-4.7,0-8.5-3.8-8.5-8.5c0-4.7,3.8-8.5,8.5-8.5h81.6c12.3,0,23.8,5.4,31.6,14.8l19.5,23.5
				c10.5,12.6,25.7,20,42,20.4v46.1h-28.8c-14.2,0-27.6-5.4-37.8-15.3L281.8,151c-3-2.9-3.1-7.7-0.3-10.7c2.9-3.1,7.7-3.3,10.8-0.5
				l33.1,30.3c3.2,2.9,8.1,2.7,11-0.5c2.9-3.2,2.7-8.1-0.5-11l-33.1-30.3c-9.4-8.7-24.2-8-32.9,1.4c-8.5,9.2-8.1,23.8,0.9,32.6
				l42.1,40.6c13.1,12.7,30.4,19.7,48.7,19.7H392c2.9,7,9.8,11.9,17.8,11.9h36.8c4.3,0,7.8-3.5,7.8-7.8v-60.2
				C454.5,162.1,451,158.6,446.7,158.6z"/>
		</g>
	</g>
	<g>
		<g>
			<linearGradient id="SVGID_3_" gradientUnits="userSpaceOnUse" x1="291.6729" y1="355.321" x2="307.3808" y2="355.321">
				<stop  offset="0.11" style="stop-color:#FF1E00"/>
				<stop  offset="0.25" style="stop-color:#FF2700"/>
				<stop  offset="0.48" style="stop-color:#FF3F00"/>
				<stop  offset="0.77" style="stop-color:#FF6700"/>
				<stop  offset="1" style="stop-color:#FF8B00"/>
			</linearGradient>
			<path class="st4" d="M306.7,352.1c-1.8-3.9-6.4-5.7-10.3-3.9c-4,1.7-5.8,6.3-4,10.3c1.3,2.9,4.2,4.7,7.2,4.7c1,0,2.1-0.2,3.1-0.7
				c0,0,0.1-0.1,0.2-0.1C306.7,360.7,308.5,356,306.7,352.1z"/>
		</g>
	</g>
	<g>
		<g>
			<linearGradient id="SVGID_4_" gradientUnits="userSpaceOnUse" x1="311.9738" y1="343.5892" x2="327.6387" y2="343.5892">
				<stop  offset="0.11" style="stop-color:#FF1E00"/>
				<stop  offset="0.25" style="stop-color:#FF2700"/>
				<stop  offset="0.48" style="stop-color:#FF3F00"/>
				<stop  offset="0.77" style="stop-color:#FF6700"/>
				<stop  offset="1" style="stop-color:#FF8B00"/>
			</linearGradient>
			<path class="st5" d="M326.1,338.9c-2.6-3.5-7.5-4.2-10.9-1.6c-3.5,2.5-4.2,7.4-1.7,10.9c1.5,2.1,3.9,3.2,6.3,3.2
				c1.6,0,3.2-0.5,4.6-1.5c0,0,0.1-0.1,0.1-0.1C328,347.3,328.7,342.4,326.1,338.9z"/>
		</g>
	</g>
	<g>
		<g>
			<linearGradient id="SVGID_5_" gradientUnits="userSpaceOnUse" x1="269.3303" y1="362.4836" x2="285.0222" y2="362.4836">
				<stop  offset="0.11" style="stop-color:#FF1E00"/>
				<stop  offset="0.25" style="stop-color:#FF2700"/>
				<stop  offset="0.48" style="stop-color:#FF3F00"/>
				<stop  offset="0.77" style="stop-color:#FF6700"/>
				<stop  offset="1" style="stop-color:#FF8B00"/>
			</linearGradient>
			<path class="st6" d="M284.9,360.9c-0.9-4.2-5-6.9-9.2-6c-4.2,0.8-7,4.9-6.1,9.1c0.7,3.7,4,6.3,7.7,6.3c0.5,0,1,0,1.5-0.1
				c0.1,0,0.2,0,0.2,0C283.1,369.2,285.7,365.1,284.9,360.9z"/>
		</g>
	</g>
	<g>
		<g>
			<linearGradient id="SVGID_6_" gradientUnits="userSpaceOnUse" x1="329.3289" y1="327.7787" x2="345.0029" y2="327.7787">
				<stop  offset="0.11" style="stop-color:#FF1E00"/>
				<stop  offset="0.25" style="stop-color:#FF2700"/>
				<stop  offset="0.48" style="stop-color:#FF3F00"/>
				<stop  offset="0.77" style="stop-color:#FF6700"/>
				<stop  offset="1" style="stop-color:#FF8B00"/>
			</linearGradient>
			<path class="st7" d="M342.4,321.9c-3.2-2.9-8.1-2.6-11,0.6c0,0-0.1,0.1-0.2,0.2c-2.8,3.3-2.5,8.2,0.8,11c1.5,1.3,3.3,1.9,5.1,1.9
				c2.2,0,4.3-0.9,5.9-2.7C345.9,329.8,345.6,324.8,342.4,321.9z M338.1,328.5l-0.9-0.8L338.1,328.5L338.1,328.5z"/>
		</g>
	</g>
	<g>
		<g>
			<linearGradient id="SVGID_7_" gradientUnits="userSpaceOnUse" x1="352.2101" y1="287.1205" x2="367.8581" y2="287.1205">
				<stop  offset="0.11" style="stop-color:#FF1E00"/>
				<stop  offset="0.25" style="stop-color:#FF2700"/>
				<stop  offset="0.48" style="stop-color:#FF3F00"/>
				<stop  offset="0.77" style="stop-color:#FF6700"/>
				<stop  offset="1" style="stop-color:#FF8B00"/>
			</linearGradient>
			<path class="st8" d="M362.3,279.6c-4.1-1.3-8.5,1.1-9.7,5.2c-1.3,4.1,1,8.5,5.2,9.8c0.8,0.2,1.5,0.3,2.3,0.3
				c3.3,0,6.4-2.2,7.5-5.5l0-0.1C368.8,285.2,366.4,280.9,362.3,279.6z"/>
		</g>
	</g>
	<g>
		<g>
			<linearGradient id="SVGID_8_" gradientUnits="userSpaceOnUse" x1="356.796" y1="240.6447" x2="372.4331" y2="240.6447">
				<stop  offset="0.11" style="stop-color:#FF1E00"/>
				<stop  offset="0.25" style="stop-color:#FF2700"/>
				<stop  offset="0.48" style="stop-color:#FF3F00"/>
				<stop  offset="0.77" style="stop-color:#FF6700"/>
				<stop  offset="1" style="stop-color:#FF8B00"/>
			</linearGradient>
			<path class="st9" d="M372.3,239.3c0-0.1,0-0.2-0.1-0.3c-0.9-4.2-5-6.9-9.2-6c-4.2,0.9-6.9,5-6.1,9.2c0.7,3.7,4,6.3,7.7,6.3
				c0.5,0,0.9,0,1.4-0.1C370.2,247.6,373.1,243.5,372.3,239.3z"/>
		</g>
	</g>
	<g>
		<g>
			<linearGradient id="SVGID_9_" gradientUnits="userSpaceOnUse" x1="356.6429" y1="264.0709" x2="372.272" y2="264.0709">
				<stop  offset="0.11" style="stop-color:#FF1E00"/>
				<stop  offset="0.25" style="stop-color:#FF2700"/>
				<stop  offset="0.48" style="stop-color:#FF3F00"/>
				<stop  offset="0.77" style="stop-color:#FF6700"/>
				<stop  offset="1" style="stop-color:#FF8B00"/>
			</linearGradient>
			<path class="st10" d="M365.1,256.3c-4.3-0.4-8.1,2.8-8.5,7.1c0,0.1,0,0.2,0,0.3c-0.3,4.3,3,8,7.3,8.3c0.2,0,0.3,0,0.5,0
				c4.1,0,7.5-3.1,7.8-7.2C372.6,260.4,369.4,256.6,365.1,256.3z"/>
		</g>
	</g>
	<g>
		<g>
			<linearGradient id="SVGID_10_" gradientUnits="userSpaceOnUse" x1="342.9526" y1="308.6956" x2="358.6197" y2="308.6956">
				<stop  offset="0.11" style="stop-color:#FF1E00"/>
				<stop  offset="0.25" style="stop-color:#FF2700"/>
				<stop  offset="0.48" style="stop-color:#FF3F00"/>
				<stop  offset="0.77" style="stop-color:#FF6700"/>
				<stop  offset="1" style="stop-color:#FF8B00"/>
			</linearGradient>
			<path class="st11" d="M354.7,301.8c-3.7-2.1-8.5-0.8-10.6,2.9l-0.1,0.2c-2.1,3.8-0.7,8.6,3.1,10.6c1.2,0.6,2.5,1,3.7,1
				c2.8,0,5.4-1.5,6.8-4.1l-6.8-3.9l6.8,3.9C359.7,308.7,358.4,304,354.7,301.8z"/>
		</g>
	</g>
	<g>
		<g>
			<linearGradient id="SVGID_11_" gradientUnits="userSpaceOnUse" x1="198.1482" y1="156.5786" x2="213.8151" y2="156.5786">
				<stop  offset="0.11" style="stop-color:#FF1E00"/>
				<stop  offset="0.25" style="stop-color:#FF2700"/>
				<stop  offset="0.48" style="stop-color:#FF3F00"/>
				<stop  offset="0.77" style="stop-color:#FF6700"/>
				<stop  offset="1" style="stop-color:#FF8B00"/>
			</linearGradient>
			<path class="st12" d="M213,153.1c-1.9-3.9-6.6-5.4-10.5-3.5l-0.1,0c-3.9,1.9-5.4,6.6-3.5,10.5c1.4,2.7,4.1,4.3,7,4.3
				c1.2,0,2.4-0.3,3.5-0.8C213.4,161.6,214.9,156.9,213,153.1z"/>
		</g>
	</g>
	<g>
		<g>
			<linearGradient id="SVGID_12_" gradientUnits="userSpaceOnUse" x1="220.0916" y1="148.425" x2="235.8084" y2="148.425">
				<stop  offset="0.11" style="stop-color:#FF1E00"/>
				<stop  offset="0.25" style="stop-color:#FF2700"/>
				<stop  offset="0.48" style="stop-color:#FF3F00"/>
				<stop  offset="0.77" style="stop-color:#FF6700"/>
				<stop  offset="1" style="stop-color:#FF8B00"/>
			</linearGradient>
			<path class="st13" d="M235.6,146.6c-1-4.2-5.2-6.8-9.4-5.8c0,0-0.1,0-0.2,0c-4.2,1.1-6.7,5.3-5.6,9.5c0.9,3.5,4.1,5.9,7.5,5.9
				c0.6,0,1.3-0.1,2-0.2C234,155,236.6,150.8,235.6,146.6z"/>
		</g>
	</g>
	<g>
		<g>
			<linearGradient id="SVGID_13_" gradientUnits="userSpaceOnUse" x1="178.385" y1="169.2688" x2="194.0641" y2="169.2688">
				<stop  offset="0.11" style="stop-color:#FF1E00"/>
				<stop  offset="0.25" style="stop-color:#FF2700"/>
				<stop  offset="0.48" style="stop-color:#FF3F00"/>
				<stop  offset="0.77" style="stop-color:#FF6700"/>
				<stop  offset="1" style="stop-color:#FF8B00"/>
			</linearGradient>
			<path class="st14" d="M192.3,164.3c-2.7-3.4-7.6-3.9-11-1.2l4.8,6.1l-4.9-6.1c-3.4,2.7-3.9,7.6-1.2,11c1.5,1.9,3.8,2.9,6.1,2.9
				c1.7,0,3.4-0.6,4.9-1.7l0.1-0.1C194.5,172.6,195,167.7,192.3,164.3z"/>
		</g>
	</g>
	<g>
		<g>
			<linearGradient id="SVGID_14_" gradientUnits="userSpaceOnUse" x1="140.7993" y1="227.4941" x2="156.4446" y2="227.4941">
				<stop  offset="0.11" style="stop-color:#FF1E00"/>
				<stop  offset="0.25" style="stop-color:#FF2700"/>
				<stop  offset="0.48" style="stop-color:#FF3F00"/>
				<stop  offset="0.77" style="stop-color:#FF6700"/>
				<stop  offset="1" style="stop-color:#FF8B00"/>
			</linearGradient>
			<path class="st15" d="M150.7,219.9c-4.2-1.1-8.5,1.3-9.6,5.5c0,0.1-0.1,0.2-0.1,0.3c-1,4.2,1.6,8.4,5.7,9.4
				c0.6,0.1,1.2,0.2,1.8,0.2c3.5,0,6.7-2.4,7.6-5.9C157.3,225.3,154.8,221.1,150.7,219.9z"/>
		</g>
	</g>
	<g>
		<g>
			<linearGradient id="SVGID_15_" gradientUnits="userSpaceOnUse" x1="137.4433" y1="250.7097" x2="153.0689" y2="250.7097">
				<stop  offset="0.11" style="stop-color:#FF1E00"/>
				<stop  offset="0.25" style="stop-color:#FF2700"/>
				<stop  offset="0.48" style="stop-color:#FF3F00"/>
				<stop  offset="0.77" style="stop-color:#FF6700"/>
				<stop  offset="1" style="stop-color:#FF8B00"/>
			</linearGradient>
			<path class="st16" d="M145.7,242.9c-4.3-0.2-8,3-8.3,7.3c0,0.1,0,0.2,0,0.3c-0.1,4.3,3.3,7.9,7.6,8c0.1,0,0.2,0,0.2,0
				c4.2,0,7.6-3.3,7.8-7.5C153.3,246.8,150,243.1,145.7,242.9z"/>
		</g>
	</g>
	<g>
		<g>
			<linearGradient id="SVGID_16_" gradientUnits="userSpaceOnUse" x1="149.0412" y1="205.5258" x2="164.7014" y2="205.5258">
				<stop  offset="0.11" style="stop-color:#FF1E00"/>
				<stop  offset="0.25" style="stop-color:#FF2700"/>
				<stop  offset="0.48" style="stop-color:#FF3F00"/>
				<stop  offset="0.77" style="stop-color:#FF6700"/>
				<stop  offset="1" style="stop-color:#FF8B00"/>
			</linearGradient>
			<path class="st17" d="M160.5,198.6c-3.8-2-8.5-0.5-10.5,3.3l-0.1,0.3c-1.9,3.9-0.3,8.5,3.6,10.4c1.1,0.5,2.3,0.8,3.4,0.8
				c2.9,0,5.6-1.6,7-4.3C165.8,205.2,164.3,200.6,160.5,198.6z"/>
		</g>
	</g>
	<g>
		<g>
			<linearGradient id="SVGID_17_" gradientUnits="userSpaceOnUse" x1="161.7767" y1="185.8204" x2="177.4454" y2="185.8204">
				<stop  offset="0.11" style="stop-color:#FF1E00"/>
				<stop  offset="0.25" style="stop-color:#FF2700"/>
				<stop  offset="0.48" style="stop-color:#FF3F00"/>
				<stop  offset="0.77" style="stop-color:#FF6700"/>
				<stop  offset="1" style="stop-color:#FF8B00"/>
			</linearGradient>
			<path class="st18" d="M174.6,179.8c-3.3-2.8-8.2-2.3-11,1c0,0-0.1,0.2-0.2,0.2c-2.7,3.4-2.1,8.3,1.3,11c1.4,1.1,3.1,1.7,4.8,1.7
				c2.3,0,4.6-1,6.1-2.9C178.4,187.4,177.9,182.5,174.6,179.8z"/>
		</g>
	</g>
	<g>
		<g>
			<linearGradient id="SVGID_18_" gradientUnits="userSpaceOnUse" x1="139.0363" y1="274.1049" x2="154.6618" y2="274.1049">
				<stop  offset="0.11" style="stop-color:#FF1E00"/>
				<stop  offset="0.25" style="stop-color:#FF2700"/>
				<stop  offset="0.48" style="stop-color:#FF3F00"/>
				<stop  offset="0.77" style="stop-color:#FF6700"/>
				<stop  offset="1" style="stop-color:#FF8B00"/>
			</linearGradient>
			<path class="st19" d="M154.5,272.7c-0.8-4.2-4.8-7.1-9.1-6.3c-4.2,0.8-7.1,4.8-6.3,9.1l0,0.1c0.7,3.8,4,6.4,7.7,6.4
				c0.5,0,0.9,0,1.4-0.1C152.5,281.1,155.3,277,154.5,272.7z"/>
		</g>
	</g>
	<g>
		<g>
			<linearGradient id="SVGID_19_" gradientUnits="userSpaceOnUse" x1="192.4207" y1="264.0092" x2="317.5676" y2="264.0092">
				<stop  offset="0.11" style="stop-color:#FF1E00"/>
				<stop  offset="0.25" style="stop-color:#FF2700"/>
				<stop  offset="0.48" style="stop-color:#FF3F00"/>
				<stop  offset="0.77" style="stop-color:#FF6700"/>
				<stop  offset="1" style="stop-color:#FF8B00"/>
			</linearGradient>
			<path class="st20" d="M281.3,213.4c-10.2,0-19.6,4.2-26.3,11.3c-6.7-7.1-16.1-11.3-26.3-11.3c-20,0-36.3,16.3-36.3,36.3
				c0,10.8,4.8,20.9,13.1,27.9c0.1,0,0.1,0.1,0.2,0.1l44.5,35.2c1.4,1.1,3.1,1.7,4.8,1.7c1.7,0,3.4-0.6,4.9-1.7l46.4-37
				c0.2-0.2,0.4-0.4,0.6-0.6c6.9-6.9,10.7-16,10.7-25.7C317.6,229.7,301.3,213.4,281.3,213.4z M296.2,264L255,296.8l-39.6-31.3
				c-4.7-3.9-7.4-9.7-7.4-15.8c0-11.4,9.3-20.7,20.7-20.7c8.4,0,15.9,5,19.1,12.8c1.2,2.9,4.1,4.8,7.2,4.8c3.2,0,6-1.9,7.2-4.8
				c3.2-7.7,10.7-12.8,19.1-12.8c11.4,0,20.7,9.3,20.7,20.7C301.9,255.1,299.9,260.2,296.2,264z"/>
		</g>
	</g>
</g>
</svg>
