<?xml version="1.0" encoding="utf-8"?>
<!-- Generator: Adobe Illustrator 24.1.1, SVG Export Plug-In . SVG Version: 6.00 Build 0)  -->
<svg version="1.1" id="Layer_1" xmlns="http://www.w3.org/2000/svg" xmlns:xlink="http://www.w3.org/1999/xlink" x="0px" y="0px"
	 viewBox="0 0 714.5 131" style="enable-background:new 0 0 714.5 131;" xml:space="preserve">
<style type="text/css">
	.st0{fill:#939598;}
	.st1{fill:url(#SVGID_1_);}
	.st2{fill:url(#SVGID_2_);}
	.st3{fill:url(#SVGID_3_);}
	.st4{fill:none;}
	.st5{fill:url(#SVGID_4_);}
	.st6{fill:url(#SVGID_5_);}
	.st7{fill:url(#SVGID_6_);}
	.st8{fill:url(#SVGID_7_);}
	.st9{fill:url(#SVGID_8_);}
	.st10{fill:url(#SVGID_9_);}
	.st11{fill:url(#SVGID_10_);}
	.st12{fill:url(#SVGID_11_);}
	.st13{fill:url(#SVGID_12_);}
	.st14{fill:url(#SVGID_13_);}
	.st15{fill:url(#SVGID_14_);}
	.st16{fill:url(#SVGID_15_);}
	.st17{fill:url(#SVGID_16_);}
	.st18{fill:url(#SVGID_17_);}
	.st19{fill:url(#SVGID_18_);}
	.st20{fill:url(#SVGID_19_);}
	.st21{fill:url(#SVGID_20_);}
	.st22{fill:url(#SVGID_21_);}
	.st23{fill:url(#SVGID_22_);}
</style>
<g id="Ebene_1">
</g>
<g>
	<path class="st0" d="M64.3,4.5c33.6,0,60.8,27.3,60.8,60.9c0,24.4-14.6,46.5-37.1,56c-31,13-66.7-1.5-79.8-32.4S9.6,22.3,40.6,9.3
		C48.1,6.1,56.1,4.5,64.3,4.5 M64.3,2C29.3,2,1,30.4,1,65.3s28.3,63.3,63.3,63.3s63.3-28.3,63.3-63.3S99.2,2,64.3,2z"/>
</g>
<linearGradient id="SVGID_1_" gradientUnits="userSpaceOnUse" x1="27.184" y1="152.6" x2="101.3546" y2="152.6" gradientTransform="matrix(1 0 0 -1 0 218)">
	<stop  offset="0.11" style="stop-color:#FF1E00"/>
	<stop  offset="0.25" style="stop-color:#FF2700"/>
	<stop  offset="0.48" style="stop-color:#FF3F00"/>
	<stop  offset="0.77" style="stop-color:#FF6700"/>
	<stop  offset="1" style="stop-color:#FF8B00"/>
</linearGradient>
<path class="st1" d="M91.2,76.4c0.5-1.1,0.9-2.3,1.2-3.5l0.4-1.3h8.6V59h-8.5l-0.4-1.3c-0.6-2.4-1.6-4.7-2.8-6.8L89,49.6l6-5.9
	l-8.9-9l-6,5.9l-1.2-0.7c-2.2-1.3-4.5-2.2-6.9-2.9l-1.3-0.4v-8.3H57.9v8.3L56.5,37c-2.4,0.6-4.7,1.6-6.9,2.8l-1.2,0.7l-5.8-5.8
	l-9,8.9l5.8,5.8l-0.7,1.2c-0.6,1.1-1.2,2.2-1.7,3.3s-0.9,2.3-1.2,3.5l-0.4,1.3H27v12.6l8.3,0.1l0.4,1.3c0.6,2.4,1.6,4.7,2.8,6.9
	l0.7,1.2l-6.1,6l8.9,9l6.1-6l1.2,0.7c1.1,0.6,2.2,1.2,3.3,1.7s2.3,0.9,3.5,1.2l1.3,0.4v8.7h12.7v-8.7l1.4-0.4
	c2.4-0.6,4.7-1.6,6.9-2.8l1.2-0.7l6.1,6.1l9-8.9L88.6,81l0.7-1.2C90.2,78.6,90.7,77.5,91.2,76.4z M64.3,88.6
	C51.4,88.6,41,78.2,41,65.3S51.4,42,64.3,42s23.3,10.4,23.3,23.3C87.6,78.2,77.1,88.6,64.3,88.6z M64.3,73.4c-3,0-5.4-2.4-5.4-5.4
	h-5.2c0,5.8,4.7,10.5,10.5,10.5S74.7,73.8,74.7,68h-5.2C69.6,71,67.2,73.4,64.3,73.4z M53.7,57.2h5.2v5.2h-5.2V57.2z M69.6,57.2h5.2
	v5.2h-5.2V57.2z"/>
<path class="st0" d="M456.1,4.2c33.4,0,60.5,27.1,60.4,60.5c0,24.3-14.5,46.2-36.9,55.7c-30.8,13-66.3-1.4-79.3-32.2
	s1.4-66.3,32.2-79.3C440,5.8,448,4.2,456.1,4.2 M456.1,1.7c-34.8,0-62.9,28.2-62.9,62.9s28.2,62.9,62.9,62.9S519,99.4,519,64.7
	S490.9,1.7,456.1,1.7z"/>
<linearGradient id="SVGID_2_" gradientUnits="userSpaceOnUse" x1="417.395" y1="150.2929" x2="494.8124" y2="150.2929" gradientTransform="matrix(1 0 0 -1 0 218)">
	<stop  offset="0.11" style="stop-color:#FF1E00"/>
	<stop  offset="0.25" style="stop-color:#FF2700"/>
	<stop  offset="0.48" style="stop-color:#FF3F00"/>
	<stop  offset="0.77" style="stop-color:#FF6700"/>
	<stop  offset="1" style="stop-color:#FF8B00"/>
</linearGradient>
<path class="st2" d="M490.3,35.5H469v-1.8c0-2.5-2-4.5-4.5-4.5h-16.6c-2.5,0-4.5,2-4.5,4.5v1.8h-21.3c-2.5,0-4.5,2-4.5,4.5l0,0v39.3
	c0,2.5,2,4.5,4.5,4.5h16v1.5c0,2.5,2,4.5,4.5,4.5h0.1l-5.3,14.3c-0.3,0.8,0,1.7,0.8,2s1.7,0,2-0.8c0,0,0-0.1,0.1-0.1l5.7-15.3h20.6
	l5.7,15.3c0.2,0.6,0.8,1,1.4,1c0.2,0,0.4,0,0.5-0.1c0.8-0.3,1.2-1.2,0.9-1.9l-5.3-14.3h0.1c2.5,0,4.5-2,4.5-4.5v-1.5h16
	c2.5,0,4.5-2,4.5-4.5V40C494.8,37.5,492.8,35.5,490.3,35.5z M446.3,33.7c0-0.8,0.7-1.5,1.5-1.5h16.6c0.8,0,1.5,0.7,1.5,1.5v1.5
	h-19.7v-1.5H446.3z M471.2,85.4c0,0.8-0.7,1.5-1.5,1.5h-27.2c-0.8,0-1.5-0.7-1.5-1.5v-1.5h30.2V85.4z M491.8,79.3
	c0,0.8-0.7,1.5-1.5,1.5H422c-0.8,0-1.5-0.7-1.5-1.5V40c0-0.8,0.7-1.5,1.5-1.5h68.3c0.8,0,1.5,0.7,1.5,1.5V79.3z M460.3,44.6h-13.6
	c-0.8,0-1.5-0.7-1.5-1.5s0.7-1.5,1.5-1.5h13.6c0.8,0,1.5,0.7,1.5,1.5S461.1,44.6,460.3,44.6z M465.6,44.6c-0.8,0-1.5-0.7-1.5-1.5
	s0.7-1.5,1.5-1.5l0,0c0.8,0,1.5,0.7,1.5,1.5S466.4,44.6,465.6,44.6z M478.9,58.3c-3.3,0-6-2.7-6-6s2.7-6,6-6s6,2.7,6,6
	C485,55.6,482.3,58.3,478.9,58.3L478.9,58.3z M478.9,49.2c-1.7,0-3,1.4-3,3s1.4,3,3,3c1.7,0,3-1.4,3-3
	C481.9,50.6,480.6,49.2,478.9,49.2L478.9,49.2z M433.1,79.6c-3.3,0-6-2.7-6-6s2.7-6,6-6s6,2.7,6,6C439.2,76.9,436.5,79.6,433.1,79.6
	z M433.1,70.5c-1.7,0-3,1.4-3,3c0,1.7,1.4,3,3,3c1.7,0,3-1.4,3-3C436.2,71.9,434.8,70.5,433.1,70.5L433.1,70.5z M484.7,78.6
	c-0.6,0.6-1.5,0.6-2.1,0l-2.2-2.1l-2.1,2.2c-0.6,0.6-1.5,0.6-2.1,0s-0.6-1.5,0-2.1l0,0l2.1-2.2l-2.2-2.1c-0.6-0.6-0.6-1.5-0.1-2.1
	s1.5-0.6,2.1-0.1l0,0l2.2,2.1l2.1-2.2c0.6-0.6,1.5-0.6,2.1,0s0.6,1.5,0,2.1l0,0l-2.1,2.2l2.2,2.1C485.3,77,485.3,78,484.7,78.6
	L484.7,78.6z M436.4,57.3c-0.6,0.6-1.5,0.6-2.1,0l0,0l-2.2-2.1l-2.1,2.2c-0.6,0.6-1.6,0.6-2.1,0c-0.6-0.6-0.6-1.5,0-2.1l2.1-2.2
	l-2.2-2.1c-0.6-0.6-0.6-1.5,0-2.1s1.5-0.6,2.1,0L432,51l2.1-2.2c0.6-0.6,1.5-0.6,2.1,0s0.6,1.5,0,2.1l-2.1,2.2l2.2,2.1
	C437,55.8,437,56.7,436.4,57.3z M463.4,73.5c-0.6,0.6-1.5,0.6-2.1,0l-2.2-2.1l-2.1,2.2c-0.6,0.6-1.5,0.6-2.1,0s-0.6-1.5,0-2.1
	l2.1-2.2l-2.2-2.1c-0.6-0.6-0.6-1.5,0-2.1s1.5-0.6,2.1,0l2.2,2.1l2.1-2.2c0.6-0.6,1.5-0.6,2.1,0s0.6,1.5,0,2.1l-2.1,2.2l2.2,2.1
	C463.9,72,463.9,72.9,463.4,73.5z M471.4,52.4c-0.1,0.8-0.8,1.4-1.6,1.4c-0.1,0-4.3-0.4-9.8,1c-6.3,1.6-11.7,4.7-16.1,9.2l2.9,0.1
	c0.8,0,1.5,0.7,1.5,1.5s-0.7,1.5-1.5,1.5h-0.1l-6-0.3c0,0,0,0-0.1,0h-0.1h-0.1h-0.1h-0.1c0,0-0.1,0-0.1-0.1H440h-0.1l0,0
	c0,0-0.1,0-0.1-0.1l0,0l-0.1-0.1l0,0l-0.1-0.1c-0.1-0.1-0.1-0.2-0.2-0.3c0,0,0-0.1-0.1-0.1v-0.1v-0.1c0-0.1,0-0.1-0.1-0.2l0,0
	l-1-5.9c0-0.1,0-0.2,0-0.2c0-0.8,0.7-1.5,1.5-1.5c0.7,0,1.4,0.5,1.5,1.3l0.4,2.7c4.8-5,11-8.5,17.7-10.1c6-1.5,10.5-1.1,10.7-1
	C470.8,50.8,471.5,51.6,471.4,52.4L471.4,52.4z"/>
<g>
	<path class="st0" d="M260.8,7c32.6,0,59.1,26.5,59.1,59.1c0,23.7-14.2,45.1-36.1,54.4c-30.1,12.7-64.7-1.4-77.4-31.4
		c-12.7-30.1,1.4-64.7,31.4-77.4C245,8.6,252.9,7,260.8,7 M260.8,4.6c-34,0-61.5,27.5-61.5,61.5s27.5,61.5,61.5,61.5
		s61.5-27.5,61.5-61.5S294.7,4.6,260.8,4.6z"/>
	
		<linearGradient id="SVGID_3_" gradientUnits="userSpaceOnUse" x1="218.1312" y1="430.3" x2="303.861" y2="430.3" gradientTransform="matrix(1 0 0 1 0 -369)">
		<stop  offset="0.11" style="stop-color:#FF1E00"/>
		<stop  offset="0.25" style="stop-color:#FF2700"/>
		<stop  offset="0.48" style="stop-color:#FF3F00"/>
		<stop  offset="0.77" style="stop-color:#FF6700"/>
		<stop  offset="1" style="stop-color:#FF8B00"/>
	</linearGradient>
	<path class="st3" d="M263.6,19h-2.7v-2.7h2.7V19z M266.3,21.7V19h-2.7v2.7H266.3z M274.4,20.3h-2.7V23h2.7V20.3z M271.7,23H269v2.7
		h2.7V23z M271.7,28.4h2.7v-2.7h-2.7V28.4z M277.1,25.7V23h-2.7v2.7H277.1z M293.9,96.8h2.7v-2.7h-2.7V96.8z M288.5,94.1v2.7h2.7
		v-2.7H288.5z M293.9,91.4h-2.7v2.7h2.7V91.4z M291.2,99.5h2.7v-2.7h-2.7V99.5z M303.9,71.8l-5.3-1.8
		c-17.5,26.4-37.1,32.8-50.5,33.5l-0.1-2.7c12.9-0.7,31.8-7,48.8-32.9l0.2-0.3c0.1-0.2,0.5-0.9,0.5-0.9l1,0.3l1.8,0.6l-1.8-8.1
		l-8.4,4.7l4.2,1.4c0,0-0.3,0.4-0.6,0.8c-2.9,4-6.2,7.7-10,10.9l-0.3,0.2c-8.8,7.6-19.7,12.5-31.3,14.1l-0.4-2.7
		c1.2-0.2,2.4-0.4,3.6-0.6l3.2-21.9l-0.5-5.8l-7.1,9.4c0,0-0.8,0.1-1.2,0.1l-3.3,0.3c-1.1,0.1-6,0.6-6,0.6s3-4,3.6-4.9l12-16.5
		c0,0,1.7-0.5,2.6-0.7c-2.5-2.7-2.4-7,0.3-9.5s7-2.4,9.5,0.3c1.9,2.1,2.4,5.2,1,7.7l10.6-8.3l2.1-1.6l3.4,4.5
		c0.4,0.6,1.5,2.1,1.5,2.1s-1.6,1.2-2.1,1.6l-12.4,9.4l0.9,6.6l6.6,3.4l2.7,9.1c2.5-2.3,4.9-4.7,7-7.4l-6.5-2.2l17-9.4L303.9,71.8z
		 M259.5,44.8c0.2,2.2,2.2,3.9,4.4,3.7c2.2-0.2,3.9-2.2,3.7-4.4c-0.2-2.1-1.9-3.7-4-3.7c-0.1,0-0.2,0-0.4,0
		C261,40.7,259.3,42.6,259.5,44.8z M275.8,80l-2.9-8.2l-5-2.4l-2.8,16.2C268.8,84.1,272.4,82.2,275.8,80z M280.6,76.4l-2.7-9.2
		l-6.8-3.5l-1.3-9.6l13.6-10.4l-1.6-2.3l-11.9,9.3l-11.8,1l-11.8,16.1l3.3-0.3l8.6-11.3h2.4l0.8,10.2l-3.1,21.3
		c1.3-0.3,2.6-0.7,3.9-1.1l3.4-19.5l1.9-1l7.6,3.7l3,8.6C279,77.7,279.8,77.1,280.6,76.4L280.6,76.4z M244.1,89.2h3.4v5h-3.4
		l-0.1,0.5c-0.3,0.9-0.6,1.8-1.1,2.7l-0.3,0.5l2.4,2.4l-3.6,3.5l-2.4-2.4l-0.5,0.3c-0.9,0.5-1.8,0.9-2.7,1.1l-0.5,0.1v3.4h-5v-3.5
		l-0.5-0.1c-0.5-0.1-0.9-0.3-1.4-0.5s-0.9-0.4-1.3-0.7l-0.5-0.3l-2.4,2.4l-3.5-3.5l2.4-2.4l-0.3-0.5c-0.5-0.9-0.9-1.8-1.1-2.7
		l-0.1-0.5h-3.3v-5h3.3l0.1-0.5c0.1-0.5,0.3-0.9,0.5-1.4c0.2-0.4,0.4-0.9,0.7-1.3l0.3-0.5l-2.3-2.3l3.6-3.5l2.3,2.3l0.5-0.3
		c0.9-0.5,1.8-0.9,2.7-1.1l0.5-0.1V77h5v3.3l0.5,0.1c1,0.3,1.9,0.6,2.7,1.1l0.5,0.3l2.4-2.3l3.5,3.5l-2.4,2.3l0.3,0.5
		c0.5,0.8,0.9,1.8,1.1,2.7L244.1,89.2z M241.3,91.7c0-4.7-3.8-8.5-8.5-8.5s-8.5,3.8-8.5,8.5s3.8,8.5,8.5,8.5S241.3,96.4,241.3,91.7
		L241.3,91.7z M260.9,24.4h2.7v-2.7h-2.7V24.4z M260.9,19h-2.7v2.7h2.7V19z"/>
</g>
<line class="st4" x1="17.3" y1="-30.9" x2="28.9" y2="-37.3"/>
<line class="st4" x1="39.4" y1="10.2" x2="43.9" y2="30.4"/>
<path class="st0" d="M650.8,2.2c33.4,0,60.5,27.1,60.4,60.5c0,24.3-14.5,46.2-36.9,55.7c-30.8,13-66.3-1.4-79.3-32.2
	s1.4-66.3,32.2-79.3C634.7,3.8,642.7,2.2,650.8,2.2 M650.8-0.3c-34.8,0-62.9,28.2-62.9,62.9s28.2,62.9,62.9,62.9
	s62.9-28.1,62.9-62.8S685.6-0.3,650.8-0.3z"/>
<g>
	<g>
		<g>
			<linearGradient id="SVGID_4_" gradientUnits="userSpaceOnUse" x1="603.0748" y1="84.1127" x2="666.62" y2="84.1127">
				<stop  offset="0.11" style="stop-color:#FF1E00"/>
				<stop  offset="0.25" style="stop-color:#FF2700"/>
				<stop  offset="0.48" style="stop-color:#FF3F00"/>
				<stop  offset="0.77" style="stop-color:#FF6700"/>
				<stop  offset="1" style="stop-color:#FF8B00"/>
			</linearGradient>
			<path class="st5" d="M660.8,90.3h-7.3c-1,0-1.9,0.8-1.9,1.9c0,1,0.8,1.9,1.9,1.9h7.3c1.1,0,2.1,0.9,2.1,2.1
				c0,1.1-0.9,2.1-2.1,2.1h-19.7c-3,0-5.8-1.3-7.7-3.6l-4.7-5.7c-2.5-3-6.2-4.8-10.2-4.9V72.9h7c3.4,0,6.7,1.3,9.1,3.7l10.2,9.8
				c0.7,0.7,0.8,1.9,0.1,2.6c-0.7,0.7-1.9,0.8-2.6,0.1l-8-7.3c-0.8-0.7-2-0.7-2.7,0.1c-0.7,0.8-0.7,2,0.1,2.7l8,7.3
				c1.1,1,2.4,1.5,3.8,1.5c1.5,0,3-0.6,4.1-1.8c2.1-2.2,2-5.8-0.2-7.9l-10.2-9.8c-3.2-3.1-7.4-4.8-11.8-4.8h-7.3
				c-0.7-1.7-2.4-2.9-4.3-2.9H605c-1,0-1.9,0.8-1.9,1.9v13.8c0,1,0.8,1.9,1.9,1.9c1,0,1.9-0.8,1.9-1.9V70h7c0.5,0,0.9,0.4,0.9,0.9
				V86c0,0.5-0.4,0.9-0.9,0.9h-2c-1,0-1.9,0.8-1.9,1.9c0,1,0.8,1.9,1.9,1.9h2c2,0,3.6-1.2,4.3-2.9c2.9,0,5.7,1.3,7.6,3.6l4.7,5.7
				c2.6,3.1,6.5,4.9,10.6,4.9h19.7c3.2,0,5.8-2.6,5.8-5.8S664,90.3,660.8,90.3z"/>
		</g>
	</g>
	<g>
		<g>
			<linearGradient id="SVGID_5_" gradientUnits="userSpaceOnUse" x1="636.2424" y1="38.1216" x2="699.7877" y2="38.1216">
				<stop  offset="0.11" style="stop-color:#FF1E00"/>
				<stop  offset="0.25" style="stop-color:#FF2700"/>
				<stop  offset="0.48" style="stop-color:#FF3F00"/>
				<stop  offset="0.77" style="stop-color:#FF6700"/>
				<stop  offset="1" style="stop-color:#FF8B00"/>
			</linearGradient>
			<path class="st6" d="M697.9,37.7c-1,0-1.9,0.8-1.9,1.9v12.7h-7c-0.5,0-0.9-0.4-0.9-0.9V36.2c0-0.5,0.4-0.9,0.9-0.9h1.8
				c1,0,1.9-0.8,1.9-1.9c0-1-0.8-1.9-1.9-1.9H689c-2,0-3.6,1.2-4.3,2.9c-2.9,0-5.7-1.3-7.6-3.6l-4.7-5.7c-2.6-3.1-6.5-4.9-10.6-4.9
				h-19.7c-3.2,0-5.8,2.6-5.8,5.8s2.6,5.8,5.8,5.8h8.1c1,0,1.9-0.8,1.9-1.9c0-1-0.8-1.9-1.9-1.9h-8.1c-1.1,0-2.1-0.9-2.1-2.1
				c0-1.1,0.9-2.1,2.1-2.1h19.7c3,0,5.8,1.3,7.7,3.6l4.7,5.7c2.5,3,6.2,4.8,10.2,4.9v11.2h-7c-3.4,0-6.7-1.3-9.1-3.7L658,35.8
				c-0.7-0.7-0.8-1.9-0.1-2.6c0.7-0.7,1.9-0.8,2.6-0.1l8,7.3c0.8,0.7,2,0.7,2.7-0.1c0.7-0.8,0.7-2-0.1-2.7l-8-7.3
				c-2.3-2.1-5.8-1.9-7.9,0.3c-2.1,2.2-2,5.8,0.2,7.9l10.2,9.8c3.2,3.1,7.4,4.8,11.8,4.8h7.3c0.7,1.7,2.4,2.9,4.3,2.9h8.9
				c1,0,1.9-0.8,1.9-1.9V39.6C699.8,38.5,698.9,37.7,697.9,37.7z"/>
		</g>
	</g>
	<g>
		<g>
			<linearGradient id="SVGID_6_" gradientUnits="userSpaceOnUse" x1="660.4256" y1="85.2536" x2="664.2237" y2="85.2536">
				<stop  offset="0.11" style="stop-color:#FF1E00"/>
				<stop  offset="0.25" style="stop-color:#FF2700"/>
				<stop  offset="0.48" style="stop-color:#FF3F00"/>
				<stop  offset="0.77" style="stop-color:#FF6700"/>
				<stop  offset="1" style="stop-color:#FF8B00"/>
			</linearGradient>
			<path class="st7" d="M664.1,84.5c-0.4-1-1.5-1.4-2.5-0.9c-1,0.4-1.4,1.5-1,2.5c0.3,0.7,1,1.1,1.7,1.1c0.3,0,0.5-0.1,0.8-0.2
				c0,0,0,0,0,0C664.1,86.5,664.5,85.4,664.1,84.5z"/>
		</g>
	</g>
	<g>
		<g>
			<linearGradient id="SVGID_7_" gradientUnits="userSpaceOnUse" x1="665.3343" y1="82.4169" x2="669.122" y2="82.4169">
				<stop  offset="0.11" style="stop-color:#FF1E00"/>
				<stop  offset="0.25" style="stop-color:#FF2700"/>
				<stop  offset="0.48" style="stop-color:#FF3F00"/>
				<stop  offset="0.77" style="stop-color:#FF6700"/>
				<stop  offset="1" style="stop-color:#FF8B00"/>
			</linearGradient>
			<path class="st8" d="M668.8,81.3c-0.6-0.8-1.8-1-2.6-0.4c-0.8,0.6-1,1.8-0.4,2.6c0.4,0.5,0.9,0.8,1.5,0.8c0.4,0,0.8-0.1,1.1-0.4
				c0,0,0,0,0,0C669.2,83.3,669.4,82.1,668.8,81.3z"/>
		</g>
	</g>
	<g>
		<g>
			<linearGradient id="SVGID_8_" gradientUnits="userSpaceOnUse" x1="655.0232" y1="86.9855" x2="658.8174" y2="86.9855">
				<stop  offset="0.11" style="stop-color:#FF1E00"/>
				<stop  offset="0.25" style="stop-color:#FF2700"/>
				<stop  offset="0.48" style="stop-color:#FF3F00"/>
				<stop  offset="0.77" style="stop-color:#FF6700"/>
				<stop  offset="1" style="stop-color:#FF8B00"/>
			</linearGradient>
			<path class="st9" d="M658.8,86.6c-0.2-1-1.2-1.7-2.2-1.5c-1,0.2-1.7,1.2-1.5,2.2c0.2,0.9,1,1.5,1.9,1.5c0.1,0,0.2,0,0.4,0
				c0,0,0,0,0.1,0C658.3,88.6,659,87.6,658.8,86.6z"/>
		</g>
	</g>
	<g>
		<g>
			<linearGradient id="SVGID_9_" gradientUnits="userSpaceOnUse" x1="669.5307" y1="78.594" x2="673.3206" y2="78.594">
				<stop  offset="0.11" style="stop-color:#FF1E00"/>
				<stop  offset="0.25" style="stop-color:#FF2700"/>
				<stop  offset="0.48" style="stop-color:#FF3F00"/>
				<stop  offset="0.77" style="stop-color:#FF6700"/>
				<stop  offset="1" style="stop-color:#FF8B00"/>
			</linearGradient>
			<path class="st10" d="M672.7,77.2c-0.8-0.7-2-0.6-2.7,0.1c0,0,0,0,0,0c-0.7,0.8-0.6,2,0.2,2.7c0.4,0.3,0.8,0.5,1.2,0.5
				c0.5,0,1-0.2,1.4-0.6C673.5,79.1,673.5,77.9,672.7,77.2z M671.6,78.8l-0.2-0.2L671.6,78.8L671.6,78.8z"/>
		</g>
	</g>
	<g>
		<g>
			<linearGradient id="SVGID_10_" gradientUnits="userSpaceOnUse" x1="675.0633" y1="68.7629" x2="678.8469" y2="68.7629">
				<stop  offset="0.11" style="stop-color:#FF1E00"/>
				<stop  offset="0.25" style="stop-color:#FF2700"/>
				<stop  offset="0.48" style="stop-color:#FF3F00"/>
				<stop  offset="0.77" style="stop-color:#FF6700"/>
				<stop  offset="1" style="stop-color:#FF8B00"/>
			</linearGradient>
			<path class="st11" d="M677.5,66.9c-1-0.3-2.1,0.3-2.4,1.3c-0.3,1,0.3,2.1,1.2,2.4c0.2,0.1,0.4,0.1,0.6,0.1c0.8,0,1.6-0.5,1.8-1.3
				l0,0C679.1,68.3,678.5,67.3,677.5,66.9z"/>
		</g>
	</g>
	<g>
		<g>
			<linearGradient id="SVGID_11_" gradientUnits="userSpaceOnUse" x1="676.1721" y1="57.5252" x2="679.9531" y2="57.5252">
				<stop  offset="0.11" style="stop-color:#FF1E00"/>
				<stop  offset="0.25" style="stop-color:#FF2700"/>
				<stop  offset="0.48" style="stop-color:#FF3F00"/>
				<stop  offset="0.77" style="stop-color:#FF6700"/>
				<stop  offset="1" style="stop-color:#FF8B00"/>
			</linearGradient>
			<path class="st12" d="M679.9,57.2C679.9,57.2,679.9,57.2,679.9,57.2c-0.2-1.1-1.2-1.7-2.2-1.5c-1,0.2-1.7,1.2-1.5,2.2
				c0.2,0.9,1,1.5,1.9,1.5c0.1,0,0.2,0,0.3,0C679.4,59.2,680.1,58.2,679.9,57.2z"/>
		</g>
	</g>
	<g>
		<g>
			<linearGradient id="SVGID_12_" gradientUnits="userSpaceOnUse" x1="676.1351" y1="63.1896" x2="679.9142" y2="63.1896">
				<stop  offset="0.11" style="stop-color:#FF1E00"/>
				<stop  offset="0.25" style="stop-color:#FF2700"/>
				<stop  offset="0.48" style="stop-color:#FF3F00"/>
				<stop  offset="0.77" style="stop-color:#FF6700"/>
				<stop  offset="1" style="stop-color:#FF8B00"/>
			</linearGradient>
			<path class="st13" d="M678.2,61.3c-1-0.1-2,0.7-2,1.7c0,0,0,0.1,0,0.1c-0.1,1,0.7,1.9,1.8,2c0,0,0.1,0,0.1,0c1,0,1.8-0.8,1.9-1.8
				C680,62.3,679.2,61.4,678.2,61.3z"/>
		</g>
	</g>
	<g>
		<g>
			<linearGradient id="SVGID_13_" gradientUnits="userSpaceOnUse" x1="672.8249" y1="73.9797" x2="676.6131" y2="73.9797">
				<stop  offset="0.11" style="stop-color:#FF1E00"/>
				<stop  offset="0.25" style="stop-color:#FF2700"/>
				<stop  offset="0.48" style="stop-color:#FF3F00"/>
				<stop  offset="0.77" style="stop-color:#FF6700"/>
				<stop  offset="1" style="stop-color:#FF8B00"/>
			</linearGradient>
			<path class="st14" d="M675.7,72.3c-0.9-0.5-2.1-0.2-2.6,0.7l0,0c-0.5,0.9-0.2,2.1,0.8,2.6c0.3,0.2,0.6,0.2,0.9,0.2
				c0.7,0,1.3-0.4,1.7-1l-1.6-0.9l1.6,0.9C676.9,74,676.6,72.8,675.7,72.3z"/>
		</g>
	</g>
	<g>
		<g>
			<linearGradient id="SVGID_14_" gradientUnits="userSpaceOnUse" x1="637.8116" y1="37.1983" x2="641.5999" y2="37.1983">
				<stop  offset="0.11" style="stop-color:#FF1E00"/>
				<stop  offset="0.25" style="stop-color:#FF2700"/>
				<stop  offset="0.48" style="stop-color:#FF3F00"/>
				<stop  offset="0.77" style="stop-color:#FF6700"/>
				<stop  offset="1" style="stop-color:#FF8B00"/>
			</linearGradient>
			<path class="st15" d="M641.4,36.4c-0.5-0.9-1.6-1.3-2.5-0.8l0,0c-0.9,0.5-1.3,1.6-0.8,2.5c0.3,0.7,1,1,1.7,1
				c0.3,0,0.6-0.1,0.8-0.2C641.5,38.4,641.9,37.3,641.4,36.4z"/>
		</g>
	</g>
	<g>
		<g>
			<linearGradient id="SVGID_15_" gradientUnits="userSpaceOnUse" x1="643.1175" y1="35.2268" x2="646.9177" y2="35.2268">
				<stop  offset="0.11" style="stop-color:#FF1E00"/>
				<stop  offset="0.25" style="stop-color:#FF2700"/>
				<stop  offset="0.48" style="stop-color:#FF3F00"/>
				<stop  offset="0.77" style="stop-color:#FF6700"/>
				<stop  offset="1" style="stop-color:#FF8B00"/>
			</linearGradient>
			<path class="st16" d="M646.9,34.8c-0.2-1-1.3-1.6-2.3-1.4c0,0,0,0,0,0c-1,0.3-1.6,1.3-1.4,2.3c0.2,0.9,1,1.4,1.8,1.4
				c0.2,0,0.3,0,0.5-0.1C646.5,36.8,647.1,35.8,646.9,34.8z"/>
		</g>
	</g>
	<g>
		<g>
			<linearGradient id="SVGID_16_" gradientUnits="userSpaceOnUse" x1="633.033" y1="40.2668" x2="636.8241" y2="40.2668">
				<stop  offset="0.11" style="stop-color:#FF1E00"/>
				<stop  offset="0.25" style="stop-color:#FF2700"/>
				<stop  offset="0.48" style="stop-color:#FF3F00"/>
				<stop  offset="0.77" style="stop-color:#FF6700"/>
				<stop  offset="1" style="stop-color:#FF8B00"/>
			</linearGradient>
			<path class="st17" d="M636.4,39.1c-0.7-0.8-1.8-0.9-2.7-0.3l1.2,1.5l-1.2-1.5c-0.8,0.6-1,1.8-0.3,2.7c0.4,0.5,0.9,0.7,1.5,0.7
				c0.4,0,0.8-0.1,1.2-0.4l0,0C636.9,41.1,637.1,39.9,636.4,39.1z"/>
		</g>
	</g>
	<g>
		<g>
			<linearGradient id="SVGID_17_" gradientUnits="userSpaceOnUse" x1="623.9448" y1="54.3455" x2="627.7278" y2="54.3455">
				<stop  offset="0.11" style="stop-color:#FF1E00"/>
				<stop  offset="0.25" style="stop-color:#FF2700"/>
				<stop  offset="0.48" style="stop-color:#FF3F00"/>
				<stop  offset="0.77" style="stop-color:#FF6700"/>
				<stop  offset="1" style="stop-color:#FF8B00"/>
			</linearGradient>
			<path class="st18" d="M626.3,52.5c-1-0.3-2,0.3-2.3,1.3c0,0,0,0.1,0,0.1c-0.2,1,0.4,2,1.4,2.3c0.1,0,0.3,0.1,0.4,0.1
				c0.8,0,1.6-0.6,1.8-1.4C627.9,53.8,627.3,52.8,626.3,52.5z"/>
		</g>
	</g>
	<g>
		<g>
			<linearGradient id="SVGID_18_" gradientUnits="userSpaceOnUse" x1="623.1334" y1="59.9589" x2="626.9116" y2="59.9589">
				<stop  offset="0.11" style="stop-color:#FF1E00"/>
				<stop  offset="0.25" style="stop-color:#FF2700"/>
				<stop  offset="0.48" style="stop-color:#FF3F00"/>
				<stop  offset="0.77" style="stop-color:#FF6700"/>
				<stop  offset="1" style="stop-color:#FF8B00"/>
			</linearGradient>
			<path class="st19" d="M625.1,58.1c-1-0.1-1.9,0.7-2,1.8c0,0,0,0,0,0.1c0,1,0.8,1.9,1.8,1.9c0,0,0,0,0.1,0c1,0,1.8-0.8,1.9-1.8
				C627,59,626.2,58.1,625.1,58.1z"/>
		</g>
	</g>
	<g>
		<g>
			<linearGradient id="SVGID_19_" gradientUnits="userSpaceOnUse" x1="625.9377" y1="49.0336" x2="629.7243" y2="49.0336">
				<stop  offset="0.11" style="stop-color:#FF1E00"/>
				<stop  offset="0.25" style="stop-color:#FF2700"/>
				<stop  offset="0.48" style="stop-color:#FF3F00"/>
				<stop  offset="0.77" style="stop-color:#FF6700"/>
				<stop  offset="1" style="stop-color:#FF8B00"/>
			</linearGradient>
			<path class="st20" d="M628.7,47.4c-0.9-0.5-2.1-0.1-2.5,0.8l0,0.1c-0.5,0.9-0.1,2.1,0.9,2.5c0.3,0.1,0.6,0.2,0.8,0.2
				c0.7,0,1.4-0.4,1.7-1C630,49,629.6,47.8,628.7,47.4z"/>
		</g>
	</g>
	<g>
		<g>
			<linearGradient id="SVGID_20_" gradientUnits="userSpaceOnUse" x1="629.0171" y1="44.2689" x2="632.8058" y2="44.2689">
				<stop  offset="0.11" style="stop-color:#FF1E00"/>
				<stop  offset="0.25" style="stop-color:#FF2700"/>
				<stop  offset="0.48" style="stop-color:#FF3F00"/>
				<stop  offset="0.77" style="stop-color:#FF6700"/>
				<stop  offset="1" style="stop-color:#FF8B00"/>
			</linearGradient>
			<path class="st21" d="M632.1,42.8c-0.8-0.7-2-0.6-2.7,0.2c0,0,0,0,0,0c-0.6,0.8-0.5,2,0.3,2.7c0.3,0.3,0.8,0.4,1.2,0.4
				c0.6,0,1.1-0.2,1.5-0.7C633,44.7,632.9,43.5,632.1,42.8z"/>
		</g>
	</g>
	<g>
		<g>
			<linearGradient id="SVGID_21_" gradientUnits="userSpaceOnUse" x1="623.5186" y1="65.6158" x2="627.2968" y2="65.6158">
				<stop  offset="0.11" style="stop-color:#FF1E00"/>
				<stop  offset="0.25" style="stop-color:#FF2700"/>
				<stop  offset="0.48" style="stop-color:#FF3F00"/>
				<stop  offset="0.77" style="stop-color:#FF6700"/>
				<stop  offset="1" style="stop-color:#FF8B00"/>
			</linearGradient>
			<path class="st22" d="M627.3,65.3c-0.2-1-1.2-1.7-2.2-1.5c-1,0.2-1.7,1.2-1.5,2.2l0,0c0.2,0.9,1,1.5,1.9,1.5c0.1,0,0.2,0,0.3,0
				C626.8,67.3,627.5,66.3,627.3,65.3z"/>
		</g>
	</g>
	<g>
		<g>
			<linearGradient id="SVGID_22_" gradientUnits="userSpaceOnUse" x1="636.4267" y1="63.1747" x2="666.6868" y2="63.1747">
				<stop  offset="0.11" style="stop-color:#FF1E00"/>
				<stop  offset="0.25" style="stop-color:#FF2700"/>
				<stop  offset="0.48" style="stop-color:#FF3F00"/>
				<stop  offset="0.77" style="stop-color:#FF6700"/>
				<stop  offset="1" style="stop-color:#FF8B00"/>
			</linearGradient>
			<path class="st23" d="M657.9,50.9c-2.5,0-4.7,1-6.4,2.7c-1.6-1.7-3.9-2.7-6.4-2.7c-4.8,0-8.8,3.9-8.8,8.8c0,2.6,1.2,5.1,3.2,6.7
				c0,0,0,0,0,0l10.8,8.5c0.3,0.3,0.8,0.4,1.2,0.4c0.4,0,0.8-0.1,1.2-0.4l11.2-8.9c0.1,0,0.1-0.1,0.2-0.1c1.7-1.7,2.6-3.9,2.6-6.2
				C666.7,54.9,662.8,50.9,657.9,50.9z M661.5,63.2l-10,7.9l-9.6-7.6c-1.1-1-1.8-2.3-1.8-3.8c0-2.8,2.2-5,5-5c2,0,3.8,1.2,4.6,3.1
				c0.3,0.7,1,1.2,1.7,1.2c0.8,0,1.5-0.5,1.7-1.2c0.8-1.9,2.6-3.1,4.6-3.1c2.8,0,5,2.2,5,5C662.9,61,662.4,62.2,661.5,63.2z"/>
		</g>
	</g>
</g>
</svg>
