<svg id="_1" data-name="1" xmlns="http://www.w3.org/2000/svg" xmlns:xlink="http://www.w3.org/1999/xlink" viewBox="0 0 512 512"><defs><style>.cls-1{fill:#939598;}.cls-2{fill:url(#redmunda);}</style><linearGradient id="redmunda" x1="106" y1="256" x2="406" y2="256" gradientUnits="userSpaceOnUse"><stop offset="0.11" stop-color="#ff1e00"/><stop offset="0.25" stop-color="#ff2700"/><stop offset="0.48" stop-color="#ff3f00"/><stop offset="0.77" stop-color="#ff6700"/><stop offset="1" stop-color="#ff8b00"/></linearGradient></defs><title>support</title><path class="cls-1" d="M256,10a246.06,246.06,0,0,1,95.75,472.67A246.06,246.06,0,0,1,160.25,29.33,244.37,244.37,0,0,1,256,10m0-10C114.61,0,0,114.61,0,256S114.61,512,256,512,512,397.39,512,256,397.39,0,256,0Z"/><path class="cls-2" d="M364.91,300.81a114.39,114.39,0,0,0,4.93-14.14l1.5-5.4,34.66.11v-51l-34.32-.08-1.46-5.42a118.46,118.46,0,0,0-11.36-27.66l-2.77-4.89,24.17-23.9-36.09-36.28L319.94,156l-4.85-2.79a114.84,114.84,0,0,0-27.76-11.59l-5.44-1.48.12-33.72H230.34l.19,33.41-5.48,1.46a119.59,119.59,0,0,0-27.81,11.29l-4.87,2.74L169,131.87l-36.49,35.9,23.41,23.49L153,196.14a117.8,117.8,0,0,0-6.72,13.38,116.12,116.12,0,0,0-4.9,14.1l-1.5,5.41L106,228.84v51l33.6.21,1.44,5.41a117.89,117.89,0,0,0,11.35,27.71l2.79,4.9-24.74,24.35,36.13,36.26,24.74-24.38,4.84,2.8a120.86,120.86,0,0,0,13.54,6.72,117.94,117.94,0,0,0,14.25,4.89l5.4,1.48v35.37l51.35,0v-35l5.47-1.44a118.37,118.37,0,0,0,27.9-11.34l4.85-2.74,24.76,24.64,36.5-35.84-24.79-24.71,2.85-4.9A114.47,114.47,0,0,0,364.91,300.81ZM256,350.32A94.32,94.32,0,1,1,350.32,256,94.42,94.42,0,0,1,256,350.32Zm0-61.45a21.71,21.71,0,0,1-21.68-21.68h-21a42.66,42.66,0,0,0,85.32,0h-21A21.71,21.71,0,0,1,256,288.87Zm-42.66-65.74h21v21h-21Zm64.34,0h21v21h-21Z"/></svg>