<svg id="_1" data-name="1" xmlns="http://www.w3.org/2000/svg" xmlns:xlink="http://www.w3.org/1999/xlink" viewBox="0 0 512 512"><defs><style>.cls-1{fill:#939598;}.cls-2{fill:url(#redmunda);}</style><linearGradient id="redmunda" x1="98.45" y1="268.3" x2="413.5" y2="268.3" gradientUnits="userSpaceOnUse"><stop offset="0.11" stop-color="#ff1e00"/><stop offset="0.25" stop-color="#ff2700"/><stop offset="0.48" stop-color="#ff3f00"/><stop offset="0.77" stop-color="#ff6700"/><stop offset="1" stop-color="#ff8b00"/></linearGradient></defs><title>training</title><path class="cls-1" d="M256,10a246.06,246.06,0,0,1,95.75,472.67A246.06,246.06,0,0,1,160.25,29.33,244.37,244.37,0,0,1,256,10m0-10C114.61,0,0,114.61,0,256S114.61,512,256,512,512,397.38,512,256,397.39,0,256,0Z"/><path class="cls-2" d="M274.46,174.57H216v-12.3h58.45Zm20,0a6.15,6.15,0,1,0,0-12.3h0a6.15,6.15,0,1,0,0,12.3Zm-25.4,29.13a147.56,147.56,0,0,0-72,41.23l-1.88-11.31-12.3,1,5,30.06,29.42,1.39h.3l.28-12.3-11.74-.55c17.65-18.51,39.6-31.08,65.4-37.46,22.47-5.56,39.62-4.07,39.91-4V199.39C310.66,199.32,293.53,197.74,269.06,203.7Zm-81.88,88.45a24.61,24.61,0,1,1-24.61-24.59A24.63,24.63,0,0,1,187.18,292.15Zm-12.3,0a12.31,12.31,0,1,0-12.31,12.28A12.31,12.31,0,0,0,174.88,292.15Zm173.93-62a24.59,24.59,0,1,1,24.61-24.59A24.63,24.63,0,0,1,348.81,230.16Zm0-12.3a12.29,12.29,0,1,0-12.3-12.29A12.31,12.31,0,0,0,348.81,217.86ZM413.5,334.13H329.83v24.61H311l24.61,66.45H322.47l-24.61-66.45H214.14l-24.61,66.45H176.41L201,358.74H182.17V334.13H98.45V137.26H203.71V111.42H308.29v25.84H413.5ZM216,136h80V123.72H216Zm101.51,198.1h-123v12.31h123ZM401.2,149.56H110.8V321.83H401.2ZM145.14,230.88l13-13,13,13,8.71-8.7-13.05-13,13.05-13-8.71-8.7-13,13-13-13-8.7,8.7,13,13-13,13Zm109.6,65.78,13-13,13,13,8.7-8.7-13-13,13-13-8.7-8.7-13,13-13-13-8.7,8.7,13,13-13,13Zm86.93,20.64,13-13,13,13,8.7-8.7-13-13,13-13-8.7-8.7-13,13-13-13-8.7,8.7,13,13-13,13Z"/></svg>