<?xml version="1.0" encoding="utf-8"?>
<!-- Generator: Adobe Illustrator 22.0.0, SVG Export Plug-In . SVG Version: 6.00 Build 0)  -->
<svg version="1.1" id="Ebene_1" xmlns="http://www.w3.org/2000/svg" xmlns:xlink="http://www.w3.org/1999/xlink" x="0px" y="0px"
	 viewBox="0 0 318.7 178.8" style="enable-background:new 0 0 318.7 178.8;" xml:space="preserve">
<style type="text/css">
	.st0{fill:none;stroke:#CCCCCC;stroke-miterlimit:10;}
	.st1{fill:none;stroke:#00A8FF;stroke-width:3;stroke-miterlimit:10;}
	.st2{fill:#00A8FF;}
	.st3{fill:none;stroke:#00A8FF;stroke-width:3;stroke-miterlimit:10;stroke-dasharray:5,5;}
</style>
<path class="st0" d="M309.7,175.8H9c-2.8,0-5-2.2-5-5V8.2c0-2.8,2.2-5,5-5h300.7c2.8,0,5,2.2,5,5v162.5
	C314.7,173.5,312.4,175.8,309.7,175.8z"/>
<path class="st1" d="M88.8,114.3h-32c-2.8,0-5-2.2-5-5V86.8c0-2.8,2.2-5,5-5h32c2.8,0,5,2.2,5,5v22.5
	C93.8,112.1,91.6,114.3,88.8,114.3z"/>
<path class="st1" d="M155.9,114.3h-32c-2.8,0-5-2.2-5-5V86.8c0-2.8,2.2-5,5-5h32c2.8,0,5,2.2,5,5v22.5
	C160.9,112.1,158.7,114.3,155.9,114.3z"/>
<g>
	<g>
		<line class="st1" x1="93.8" y1="98" x2="108.2" y2="98"/>
		<g>
			<polygon class="st2" points="106,105.5 119,98 106,90.6 			"/>
		</g>
	</g>
</g>
<g>
	<g>
		<line class="st3" x1="71.3" y1="68.8" x2="130.7" y2="68.8"/>
		<g>
			<polygon class="st2" points="128.5,76.3 141.5,68.8 128.5,61.3 			"/>
		</g>
	</g>
</g>
<g>
	<g>
		<line class="st1" x1="219.1" y1="77.4" x2="219.1" y2="82.8"/>
		<g>
			<polygon class="st2" points="211.7,80.6 219.1,93.6 226.6,80.6 			"/>
		</g>
	</g>
</g>
<g>
	<g>
		<line class="st1" x1="26.5" y1="98" x2="40.9" y2="98"/>
		<g>
			<polygon class="st2" points="38.7,105.5 51.6,98 38.7,90.6 			"/>
		</g>
	</g>
</g>
<g>
	<path class="st2" d="M76.7,104l-1.5-3.8h-4.7L69,104h-1.4l4.7-11.8h1.2l4.6,11.8H76.7z M74.8,99l-1.4-3.7c-0.2-0.5-0.4-1-0.5-1.7
		c-0.1,0.5-0.3,1.1-0.5,1.7L70.9,99H74.8z"/>
</g>
<g>
	<path class="st2" d="M135.9,92.1h3.3c1.6,0,2.7,0.2,3.4,0.7c0.7,0.5,1,1.2,1,2.2c0,0.7-0.2,1.3-0.6,1.7c-0.4,0.5-1,0.7-1.7,0.9v0.1
		c1.8,0.3,2.7,1.2,2.7,2.8c0,1.1-0.4,1.9-1.1,2.5c-0.7,0.6-1.7,0.9-3,0.9h-4.1V92.1z M137.2,97.2h2.3c1,0,1.7-0.2,2.1-0.5
		c0.4-0.3,0.6-0.8,0.6-1.5c0-0.7-0.2-1.1-0.7-1.4c-0.5-0.3-1.2-0.4-2.3-0.4h-2V97.2z M137.2,98.4v4.4h2.5c1,0,1.7-0.2,2.1-0.6
		c0.5-0.4,0.7-0.9,0.7-1.7c0-0.7-0.2-1.3-0.7-1.6c-0.5-0.3-1.2-0.5-2.2-0.5H137.2z"/>
</g>
<g>
	<g>
		<path class="st2" d="M217,111.9l-1.2-3H212l-1.2,3h-1.1l3.8-9.5h0.9l3.7,9.5H217z M215.5,107.9l-1.1-2.9c-0.1-0.4-0.3-0.8-0.4-1.4
			c-0.1,0.4-0.2,0.9-0.4,1.4l-1.1,2.9H215.5z"/>
	</g>
	<g>
		<path class="st2" d="M222,102.4h2.7c1.3,0,2.2,0.2,2.7,0.6c0.6,0.4,0.8,1,0.8,1.8c0,0.6-0.2,1-0.5,1.4c-0.3,0.4-0.8,0.6-1.4,0.7
			v0.1c1.4,0.2,2.2,1,2.2,2.3c0,0.8-0.3,1.5-0.9,2c-0.6,0.5-1.4,0.7-2.4,0.7H222V102.4z M223.1,106.5h1.8c0.8,0,1.3-0.1,1.7-0.4
			c0.3-0.2,0.5-0.7,0.5-1.2c0-0.5-0.2-0.9-0.6-1.2c-0.4-0.2-1-0.4-1.8-0.4h-1.6V106.5z M223.1,107.4v3.6h2c0.8,0,1.3-0.1,1.7-0.4
			c0.4-0.3,0.6-0.8,0.6-1.4c0-0.6-0.2-1-0.6-1.3c-0.4-0.3-1-0.4-1.8-0.4H223.1z"/>
	</g>
</g>
<line class="st1" x1="190.8" y1="58.6" x2="190.8" y2="124.3"/>
<line class="st1" x1="247.7" y1="58.6" x2="247.7" y2="124.3"/>
<line class="st1" x1="269.4" y1="58.6" x2="269.4" y2="124.3"/>
<line class="st1" x1="291.2" y1="58.6" x2="291.2" y2="124.3"/>
<line class="st1" x1="190.8" y1="97.5" x2="291" y2="97.5"/>
<line class="st1" x1="190.8" y1="116.3" x2="291" y2="116.3"/>
<g>
	<path d="M199,68.1v4.7c0,0.6,0.1,1,0.4,1.3c0.3,0.3,0.7,0.4,1.3,0.4c0.8,0,1.3-0.2,1.7-0.6s0.5-1.1,0.5-2v-3.8h1.1v7.2H203l-0.2-1
		h-0.1c-0.2,0.4-0.5,0.6-0.9,0.8s-0.9,0.3-1.4,0.3c-0.9,0-1.5-0.2-2-0.6c-0.4-0.4-0.7-1.1-0.7-2v-4.7H199z"/>
	<path d="M209.6,75.4c-0.5,0-0.9-0.1-1.3-0.3c-0.4-0.2-0.7-0.4-1-0.8h-0.1c0.1,0.4,0.1,0.8,0.1,1.2v3h-1.1V68.1h0.9l0.2,1h0.1
		c0.3-0.4,0.6-0.7,1-0.9c0.4-0.2,0.8-0.3,1.3-0.3c1,0,1.7,0.3,2.2,1c0.5,0.7,0.8,1.6,0.8,2.8c0,1.2-0.3,2.1-0.8,2.8
		S210.6,75.4,209.6,75.4z M209.5,68.9c-0.7,0-1.3,0.2-1.6,0.6c-0.3,0.4-0.5,1.1-0.5,2v0.2c0,1,0.2,1.7,0.5,2.2
		c0.3,0.4,0.9,0.7,1.6,0.7c0.6,0,1.1-0.3,1.5-0.8c0.4-0.5,0.5-1.2,0.5-2.1c0-0.9-0.2-1.6-0.5-2.1C210.6,69.1,210.1,68.9,209.5,68.9z
		"/>
	<path d="M219.5,74.3L219.5,74.3c-0.6,0.7-1.3,1.1-2.3,1.1c-0.9,0-1.7-0.3-2.2-1c-0.5-0.6-0.8-1.6-0.8-2.8c0-1.2,0.3-2.1,0.8-2.8
		c0.5-0.7,1.3-1,2.2-1c1,0,1.7,0.4,2.3,1.1h0.1l0-0.5l0-0.5V65h1.1v10.3h-0.9L219.5,74.3z M217.3,74.5c0.7,0,1.3-0.2,1.6-0.6
		c0.3-0.4,0.5-1.1,0.5-2v-0.2c0-1-0.2-1.8-0.5-2.2c-0.3-0.4-0.9-0.7-1.6-0.7c-0.6,0-1.1,0.2-1.5,0.7c-0.3,0.5-0.5,1.2-0.5,2.1
		c0,0.9,0.2,1.6,0.5,2.1S216.6,74.5,217.3,74.5z"/>
	<path d="M227.3,75.3l-0.2-1H227c-0.4,0.5-0.7,0.8-1.1,0.9s-0.8,0.2-1.3,0.2c-0.7,0-1.3-0.2-1.7-0.6c-0.4-0.4-0.6-0.9-0.6-1.6
		c0-1.5,1.2-2.2,3.5-2.3l1.2,0v-0.4c0-0.6-0.1-1-0.4-1.3s-0.6-0.4-1.2-0.4c-0.6,0-1.3,0.2-2,0.6l-0.3-0.8c0.4-0.2,0.7-0.3,1.2-0.5
		s0.8-0.2,1.3-0.2c0.9,0,1.5,0.2,1.9,0.6c0.4,0.4,0.6,1,0.6,1.8v4.9H227.3z M224.8,74.5c0.7,0,1.2-0.2,1.6-0.6
		c0.4-0.4,0.6-0.9,0.6-1.6v-0.7l-1.1,0c-0.9,0-1.5,0.2-1.9,0.4s-0.6,0.6-0.6,1.1c0,0.4,0.1,0.7,0.4,0.9
		C224,74.4,224.4,74.5,224.8,74.5z"/>
	<path d="M232.7,74.5c0.2,0,0.4,0,0.6,0s0.3-0.1,0.4-0.1v0.8c-0.1,0.1-0.3,0.1-0.5,0.1c-0.2,0-0.4,0.1-0.6,0.1
		c-1.4,0-2.1-0.7-2.1-2.2v-4.3h-1v-0.5l1-0.5l0.5-1.5h0.6v1.7h2.1v0.9h-2.1v4.3c0,0.4,0.1,0.8,0.3,1C232,74.4,232.3,74.5,232.7,74.5
		z"/>
	<path d="M238.2,75.4c-1.1,0-1.9-0.3-2.5-1c-0.6-0.7-0.9-1.6-0.9-2.7c0-1.2,0.3-2.1,0.9-2.8c0.6-0.7,1.3-1,2.3-1
		c0.9,0,1.6,0.3,2.2,0.9c0.5,0.6,0.8,1.4,0.8,2.4v0.7h-5c0,0.8,0.2,1.5,0.6,1.9c0.4,0.4,1,0.7,1.7,0.7c0.8,0,1.5-0.2,2.3-0.5v1
		c-0.4,0.2-0.8,0.3-1.1,0.4C239.1,75.4,238.7,75.4,238.2,75.4z M237.9,68.8c-0.6,0-1,0.2-1.4,0.6c-0.3,0.4-0.5,0.9-0.6,1.6h3.8
		c0-0.7-0.2-1.2-0.5-1.6C238.9,69,238.4,68.8,237.9,68.8z"/>
</g>
</svg>
