<?xml version="1.0" encoding="utf-8"?>
<!-- Generator: Adobe Illustrator 22.0.0, SVG Export Plug-In . SVG Version: 6.00 Build 0)  -->
<svg version="1.1" id="Ebene_1" xmlns="http://www.w3.org/2000/svg" xmlns:xlink="http://www.w3.org/1999/xlink" x="0px" y="0px"
	 viewBox="0 0 318.7 178.8" style="enable-background:new 0 0 318.7 178.8;" xml:space="preserve">
<style type="text/css">
	.st0{fill:none;stroke:#CCCCCC;stroke-miterlimit:10;}
	.st1{fill:#00A8FF;}
</style>
<path class="st0" d="M310,175.5H9.3c-2.8,0-5-2.2-5-5V8c0-2.8,2.2-5,5-5H310c2.8,0,5,2.2,5,5v162.5C315,173.2,312.8,175.5,310,175.5
	z"/>
<g>
	<g>
		<path class="st1" d="M34.9,121.2h-3v-1.1h3V121.2z M34.9,115.2h-3v-5h3V115.2z M34.9,105.2h-3v-5h3V105.2z M34.9,95.2h-3v-5h3
			V95.2z M34.9,85.2h-3v-5h3V85.2z M34.9,75.2h-3v-5h3V75.2z M34.9,65.2h-3v-5h3V65.2z M34.9,55.2h-3v-5h3V55.2z"/>
	</g>
	<g>
		<g>
			<polygon class="st1" points="26,119 33.4,132 40.9,119 			"/>
		</g>
	</g>
</g>
<g>
	<g>
		<path class="st1" d="M287.5,121.2h-3v-1.1h3V121.2z M287.5,115.2h-3v-5h3V115.2z M287.5,105.2h-3v-5h3V105.2z M287.5,95.2h-3v-5h3
			V95.2z M287.5,85.2h-3v-5h3V85.2z M287.5,75.2h-3v-5h3V75.2z M287.5,65.2h-3v-5h3V65.2z M287.5,55.2h-3v-5h3V55.2z"/>
	</g>
	<g>
		<g>
			<polygon class="st1" points="278.5,119 286,132 293.5,119 			"/>
		</g>
	</g>
</g>
<g>
	<path d="M58.9,52.5c0-0.3,0.1-0.6,0.2-0.7s0.4-0.2,0.6-0.2c0.2,0,0.4,0.1,0.6,0.2s0.3,0.4,0.3,0.7s-0.1,0.6-0.3,0.7
		c-0.2,0.2-0.4,0.2-0.6,0.2c-0.2,0-0.5-0.1-0.6-0.2C58.9,53.1,58.9,52.9,58.9,52.5z M60.4,64.8H59v-9.6h1.5V64.8z"/>
	<path d="M70.1,64.8v-6.2c0-0.8-0.2-1.4-0.5-1.8s-0.9-0.6-1.7-0.6c-1,0-1.7,0.3-2.2,0.8S65,58.5,65,59.7v5.1h-1.5v-9.6h1.2l0.2,1.3
		H65c0.3-0.5,0.7-0.8,1.3-1.1c0.5-0.3,1.1-0.4,1.8-0.4c1.2,0,2,0.3,2.6,0.8s0.9,1.5,0.9,2.7v6.3H70.1z"/>
	<path d="M80.8,62.2c0,0.9-0.3,1.6-1,2.1S78.2,65,77,65c-1.3,0-2.3-0.2-3-0.6V63c0.5,0.2,1,0.4,1.5,0.6s1,0.2,1.5,0.2
		c0.8,0,1.3-0.1,1.8-0.4s0.6-0.6,0.6-1.1c0-0.4-0.2-0.7-0.5-1c-0.3-0.3-1-0.6-1.9-0.9c-0.9-0.3-1.5-0.6-1.9-0.9
		c-0.4-0.2-0.7-0.5-0.8-0.8C74.1,58.3,74,58,74,57.5c0-0.8,0.3-1.4,1-1.9s1.5-0.7,2.6-0.7c1,0,2.1,0.2,3,0.6l-0.5,1.2
		c-1-0.4-1.8-0.6-2.6-0.6c-0.7,0-1.2,0.1-1.6,0.3s-0.5,0.5-0.5,0.9c0,0.3,0.1,0.5,0.2,0.7c0.1,0.2,0.3,0.4,0.6,0.5s0.9,0.4,1.7,0.7
		c1.1,0.4,1.9,0.8,2.3,1.3S80.8,61.5,80.8,62.2z"/>
	<path d="M87.2,65c-1.4,0-2.5-0.4-3.4-1.3c-0.8-0.9-1.2-2.1-1.2-3.6c0-1.6,0.4-2.8,1.1-3.7c0.8-0.9,1.8-1.4,3.1-1.4
		c1.2,0,2.2,0.4,2.9,1.2c0.7,0.8,1.1,1.8,1.1,3.1v0.9h-6.6c0,1.1,0.3,2,0.9,2.6s1.3,0.9,2.3,0.9c1,0,2.1-0.2,3.1-0.7v1.3
		c-0.5,0.2-1,0.4-1.5,0.5C88.5,64.9,87.9,65,87.2,65z M86.9,56.2c-0.8,0-1.4,0.3-1.8,0.8c-0.5,0.5-0.7,1.2-0.8,2.1h5
		c0-0.9-0.2-1.6-0.6-2.1C88.2,56.4,87.6,56.2,86.9,56.2z"/>
	<path d="M97.7,55c0.4,0,0.8,0,1.2,0.1l-0.2,1.4c-0.4-0.1-0.8-0.1-1.1-0.1c-0.8,0-1.4,0.3-2,0.9c-0.6,0.6-0.8,1.4-0.8,2.4v5.2h-1.5
		v-9.6h1.2l0.2,1.8h0.1c0.4-0.6,0.8-1.1,1.3-1.5S97.1,55,97.7,55z"/>
	<path d="M103.7,63.8c0.3,0,0.5,0,0.7-0.1c0.2,0,0.4-0.1,0.6-0.1v1.1c-0.2,0.1-0.4,0.1-0.7,0.2c-0.3,0-0.6,0.1-0.8,0.1
		c-1.9,0-2.8-1-2.8-2.9v-5.7h-1.4v-0.7l1.4-0.6l0.6-2.1h0.8v2.2h2.8v1.1h-2.8V62c0,0.6,0.1,1,0.4,1.3S103.3,63.8,103.7,63.8z"/>
	<path d="M119,64.8h-7.2V51.9h7.2v1.3h-5.7v4.1h5.3v1.3h-5.3v4.7h5.7V64.8z"/>
	<path d="M125,56.9c1.4,0,2.4,0.3,3.2,1s1.2,1.6,1.2,2.8c0,1.3-0.4,2.4-1.3,3.1s-2,1.1-3.5,1.1c-1.4,0-2.6-0.2-3.3-0.7v-1.4
		c0.4,0.3,0.9,0.5,1.5,0.6c0.6,0.1,1.2,0.2,1.8,0.2c1,0,1.8-0.2,2.4-0.7c0.6-0.5,0.9-1.2,0.9-2.1c0-1.8-1.1-2.7-3.3-2.7
		c-0.6,0-1.3,0.1-2.2,0.3l-0.8-0.5l0.5-6h6.4v1.3h-5.1l-0.3,3.9C123.7,57,124.3,56.9,125,56.9z"/>
	<path d="M58.9,74.1c0-0.3,0.1-0.6,0.2-0.7s0.4-0.2,0.6-0.2c0.2,0,0.4,0.1,0.6,0.2s0.3,0.4,0.3,0.7s-0.1,0.6-0.3,0.7
		c-0.2,0.2-0.4,0.2-0.6,0.2c-0.2,0-0.5-0.1-0.6-0.2C58.9,74.7,58.9,74.5,58.9,74.1z M60.4,86.4H59v-9.6h1.5V86.4z"/>
	<path d="M70.1,86.4v-6.2c0-0.8-0.2-1.4-0.5-1.8s-0.9-0.6-1.7-0.6c-1,0-1.7,0.3-2.2,0.8S65,80.1,65,81.3v5.1h-1.5v-9.6h1.2l0.2,1.3
		H65c0.3-0.5,0.7-0.8,1.3-1.1c0.5-0.3,1.1-0.4,1.8-0.4c1.2,0,2,0.3,2.6,0.8s0.9,1.5,0.9,2.7v6.3H70.1z"/>
	<path d="M80.8,83.8c0,0.9-0.3,1.6-1,2.1s-1.6,0.7-2.8,0.7c-1.3,0-2.3-0.2-3-0.6v-1.4c0.5,0.2,1,0.4,1.5,0.6s1,0.2,1.5,0.2
		c0.8,0,1.3-0.1,1.8-0.4s0.6-0.6,0.6-1.1c0-0.4-0.2-0.7-0.5-1c-0.3-0.3-1-0.6-1.9-0.9c-0.9-0.3-1.5-0.6-1.9-0.9
		c-0.4-0.2-0.7-0.5-0.8-0.8c-0.2-0.3-0.3-0.7-0.3-1.1c0-0.8,0.3-1.4,1-1.9s1.5-0.7,2.6-0.7c1,0,2.1,0.2,3,0.6l-0.5,1.2
		c-1-0.4-1.8-0.6-2.6-0.6c-0.7,0-1.2,0.1-1.6,0.3s-0.5,0.5-0.5,0.9c0,0.3,0.1,0.5,0.2,0.7c0.1,0.2,0.3,0.4,0.6,0.5s0.9,0.4,1.7,0.7
		c1.1,0.4,1.9,0.8,2.3,1.3S80.8,83.1,80.8,83.8z"/>
	<path d="M87.2,86.6c-1.4,0-2.5-0.4-3.4-1.3c-0.8-0.9-1.2-2.1-1.2-3.6c0-1.6,0.4-2.8,1.1-3.7c0.8-0.9,1.8-1.4,3.1-1.4
		c1.2,0,2.2,0.4,2.9,1.2c0.7,0.8,1.1,1.8,1.1,3.1v0.9h-6.6c0,1.1,0.3,2,0.9,2.6s1.3,0.9,2.3,0.9c1,0,2.1-0.2,3.1-0.7v1.3
		c-0.5,0.2-1,0.4-1.5,0.5C88.5,86.5,87.9,86.6,87.2,86.6z M86.9,77.8c-0.8,0-1.4,0.3-1.8,0.8c-0.5,0.5-0.7,1.2-0.8,2.1h5
		c0-0.9-0.2-1.6-0.6-2.1C88.2,78,87.6,77.8,86.9,77.8z"/>
	<path d="M97.7,76.6c0.4,0,0.8,0,1.2,0.1L98.6,78c-0.4-0.1-0.8-0.1-1.1-0.1c-0.8,0-1.4,0.3-2,0.9c-0.6,0.6-0.8,1.4-0.8,2.4v5.2h-1.5
		v-9.6h1.2l0.2,1.8h0.1c0.4-0.6,0.8-1.1,1.3-1.5S97.1,76.6,97.7,76.6z"/>
	<path d="M103.7,85.4c0.3,0,0.5,0,0.7-0.1c0.2,0,0.4-0.1,0.6-0.1v1.1c-0.2,0.1-0.4,0.1-0.7,0.2c-0.3,0-0.6,0.1-0.8,0.1
		c-1.9,0-2.8-1-2.8-2.9v-5.7h-1.4v-0.7l1.4-0.6l0.6-2.1h0.8v2.2h2.8v1.1h-2.8v5.7c0,0.6,0.1,1,0.4,1.3S103.3,85.4,103.7,85.4z"/>
	<path d="M119,86.4h-7.2V73.5h7.2v1.3h-5.7V79h5.3v1.3h-5.3v4.7h5.7V86.4z"/>
	<path d="M121.1,80.9c0-2.5,0.5-4.4,1.5-5.7c1-1.2,2.4-1.9,4.4-1.9c0.7,0,1.2,0.1,1.6,0.2v1.3c-0.5-0.1-1-0.2-1.5-0.2
		c-1.4,0-2.4,0.4-3.2,1.3c-0.7,0.9-1.1,2.2-1.2,4h0.1c0.6-1,1.7-1.5,3.1-1.5c1.2,0,2.1,0.3,2.7,1c0.7,0.7,1,1.6,1,2.8
		c0,1.3-0.4,2.4-1.1,3.2c-0.7,0.8-1.7,1.1-3,1.1c-1.3,0-2.4-0.5-3.2-1.5S121.1,82.7,121.1,80.9z M125.5,85.3c0.8,0,1.5-0.3,1.9-0.8
		s0.7-1.3,0.7-2.3c0-0.8-0.2-1.5-0.6-2s-1.1-0.7-1.9-0.7c-0.5,0-1,0.1-1.5,0.3s-0.8,0.5-1,0.9c-0.3,0.4-0.4,0.8-0.4,1.2
		c0,0.6,0.1,1.2,0.4,1.7s0.6,0.9,1,1.2C124.4,85.2,124.9,85.3,125.5,85.3z"/>
	<path d="M60.4,98.4v6.2c0,0.8,0.2,1.4,0.5,1.8s0.9,0.6,1.7,0.6c1,0,1.7-0.3,2.2-0.8c0.5-0.6,0.7-1.5,0.7-2.7v-5.1h1.5v9.6h-1.2
		l-0.2-1.3h-0.1c-0.3,0.5-0.7,0.8-1.2,1.1c-0.5,0.3-1.1,0.4-1.8,0.4c-1.2,0-2-0.3-2.6-0.8c-0.6-0.6-0.9-1.4-0.9-2.7v-6.3H60.4z"/>
	<path d="M74.5,108.2c-0.6,0-1.2-0.1-1.7-0.3c-0.5-0.2-1-0.6-1.3-1.1h-0.1c0.1,0.6,0.1,1.1,0.1,1.6v4H70v-14h1.2l0.2,1.3h0.1
		c0.4-0.5,0.8-0.9,1.3-1.1s1.1-0.4,1.7-0.4c1.3,0,2.3,0.4,3,1.3c0.7,0.9,1,2.1,1,3.7c0,1.6-0.4,2.8-1.1,3.7
		C76.8,107.7,75.8,108.2,74.5,108.2z M74.3,99.4c-1,0-1.7,0.3-2.1,0.8s-0.7,1.4-0.7,2.6v0.3c0,1.4,0.2,2.3,0.7,2.9s1.2,0.9,2.2,0.9
		c0.8,0,1.5-0.3,2-1s0.7-1.6,0.7-2.8c0-1.2-0.2-2.1-0.7-2.8C75.8,99.7,75.2,99.4,74.3,99.4z"/>
	<path d="M87.6,106.7L87.6,106.7c-0.8,1-1.8,1.5-3.1,1.5c-1.3,0-2.2-0.4-2.9-1.3s-1-2.1-1-3.7s0.4-2.8,1.1-3.7s1.7-1.3,2.9-1.3
		c1.3,0,2.3,0.5,3,1.4h0.1l-0.1-0.7l0-0.7v-3.9H89V108h-1.2L87.6,106.7z M84.7,106.9c1,0,1.7-0.3,2.2-0.8c0.4-0.5,0.7-1.4,0.7-2.6
		v-0.3c0-1.4-0.2-2.3-0.7-2.9c-0.5-0.6-1.2-0.9-2.2-0.9c-0.9,0-1.5,0.3-2,1c-0.5,0.7-0.7,1.6-0.7,2.8c0,1.2,0.2,2.2,0.7,2.8
		S83.8,106.9,84.7,106.9z"/>
	<path d="M98,108l-0.3-1.4h-0.1c-0.5,0.6-1,1-1.4,1.2c-0.5,0.2-1.1,0.3-1.8,0.3c-1,0-1.7-0.2-2.2-0.7s-0.8-1.2-0.8-2.1
		c0-1.9,1.6-3,4.7-3.1l1.6-0.1v-0.6c0-0.8-0.2-1.3-0.5-1.7c-0.3-0.4-0.8-0.5-1.6-0.5c-0.8,0-1.7,0.2-2.7,0.7L92.5,99
		c0.5-0.3,1-0.5,1.6-0.6s1.1-0.2,1.7-0.2c1.1,0,2,0.3,2.6,0.8c0.6,0.5,0.8,1.3,0.8,2.5v6.6H98z M94.7,107c0.9,0,1.6-0.2,2.1-0.7
		c0.5-0.5,0.8-1.2,0.8-2.1v-0.9l-1.5,0.1c-1.2,0-2,0.2-2.5,0.5c-0.5,0.3-0.8,0.8-0.8,1.5c0,0.5,0.2,0.9,0.5,1.2S94.2,107,94.7,107z"
		/>
	<path d="M105.2,107c0.3,0,0.5,0,0.7-0.1c0.2,0,0.4-0.1,0.6-0.1v1.1c-0.2,0.1-0.4,0.1-0.7,0.2c-0.3,0-0.6,0.1-0.8,0.1
		c-1.9,0-2.8-1-2.8-2.9v-5.7h-1.4v-0.7l1.4-0.6l0.6-2.1h0.8v2.2h2.8v1.1h-2.8v5.7c0,0.6,0.1,1,0.4,1.3S104.7,107,105.2,107z"/>
	<path d="M112.5,108.2c-1.4,0-2.5-0.4-3.4-1.3c-0.8-0.9-1.2-2.1-1.2-3.6c0-1.6,0.4-2.8,1.1-3.7c0.8-0.9,1.8-1.4,3.1-1.4
		c1.2,0,2.2,0.4,2.9,1.2s1.1,1.8,1.1,3.1v0.9h-6.6c0,1.1,0.3,2,0.9,2.6s1.3,0.9,2.3,0.9c1,0,2.1-0.2,3.1-0.7v1.3
		c-0.5,0.2-1,0.4-1.5,0.5C113.7,108.1,113.2,108.2,112.5,108.2z M112.1,99.4c-0.8,0-1.4,0.3-1.8,0.8c-0.5,0.5-0.7,1.2-0.8,2.1h5
		c0-0.9-0.2-1.6-0.6-2.1C113.5,99.6,112.9,99.4,112.1,99.4z"/>
	<path d="M130.6,108h-7.2V95.1h7.2v1.3H125v4.1h5.3v1.3H125v4.7h5.7V108z"/>
	<path d="M136.6,100.1c1.4,0,2.4,0.3,3.2,1s1.2,1.6,1.2,2.8c0,1.3-0.4,2.4-1.3,3.1s-2,1.1-3.5,1.1c-1.4,0-2.6-0.2-3.3-0.7v-1.4
		c0.4,0.3,0.9,0.5,1.5,0.6c0.6,0.1,1.2,0.2,1.8,0.2c1,0,1.8-0.2,2.4-0.7c0.6-0.5,0.9-1.2,0.9-2.1c0-1.8-1.1-2.7-3.3-2.7
		c-0.6,0-1.3,0.1-2.2,0.3l-0.8-0.5l0.5-6h6.4v1.3h-5.1l-0.3,3.9C135.3,100.2,135.9,100.1,136.6,100.1z"/>
	<path d="M65.5,128.3L65.5,128.3c-0.8,1-1.8,1.5-3.1,1.5c-1.3,0-2.2-0.4-2.9-1.3s-1-2.1-1-3.7s0.4-2.8,1.1-3.7s1.7-1.3,2.9-1.3
		c1.3,0,2.3,0.5,3,1.4h0.1l-0.1-0.7l0-0.7v-3.9h1.5v13.7h-1.2L65.5,128.3z M62.6,128.5c1,0,1.7-0.3,2.2-0.8c0.4-0.5,0.7-1.4,0.7-2.6
		v-0.3c0-1.4-0.2-2.3-0.7-2.9c-0.5-0.6-1.2-0.9-2.2-0.9c-0.9,0-1.5,0.3-2,1c-0.5,0.7-0.7,1.6-0.7,2.8c0,1.2,0.2,2.2,0.7,2.8
		S61.8,128.5,62.6,128.5z"/>
	<path d="M74.1,129.8c-1.4,0-2.5-0.4-3.4-1.3c-0.8-0.9-1.2-2.1-1.2-3.6c0-1.6,0.4-2.8,1.1-3.7c0.8-0.9,1.8-1.4,3.1-1.4
		c1.2,0,2.2,0.4,2.9,1.2s1.1,1.8,1.1,3.1v0.9H71c0,1.1,0.3,2,0.9,2.6s1.3,0.9,2.3,0.9c1,0,2.1-0.2,3.1-0.7v1.3
		c-0.5,0.2-1,0.4-1.5,0.5C75.3,129.7,74.7,129.8,74.1,129.8z M73.7,121c-0.8,0-1.4,0.3-1.8,0.8c-0.5,0.5-0.7,1.2-0.8,2.1h5
		c0-0.9-0.2-1.6-0.6-2.1C75,121.2,74.5,121,73.7,121z"/>
	<path d="M81.6,129.6h-1.5v-13.7h1.5V129.6z"/>
	<path d="M88.7,129.8c-1.4,0-2.5-0.4-3.4-1.3c-0.8-0.9-1.2-2.1-1.2-3.6c0-1.6,0.4-2.8,1.1-3.7c0.8-0.9,1.8-1.4,3.1-1.4
		c1.2,0,2.2,0.4,2.9,1.2s1.1,1.8,1.1,3.1v0.9h-6.6c0,1.1,0.3,2,0.9,2.6s1.3,0.9,2.3,0.9c1,0,2.1-0.2,3.1-0.7v1.3
		c-0.5,0.2-1,0.4-1.5,0.5C89.9,129.7,89.4,129.8,88.7,129.8z M88.3,121c-0.8,0-1.4,0.3-1.8,0.8c-0.5,0.5-0.7,1.2-0.8,2.1h5
		c0-0.9-0.2-1.6-0.6-2.1C89.7,121.2,89.1,121,88.3,121z"/>
	<path d="M97.9,128.6c0.3,0,0.5,0,0.7-0.1c0.2,0,0.4-0.1,0.6-0.1v1.1c-0.2,0.1-0.4,0.1-0.7,0.2c-0.3,0-0.6,0.1-0.8,0.1
		c-1.9,0-2.8-1-2.8-2.9v-5.7h-1.4v-0.7l1.4-0.6l0.6-2.1h0.8v2.2h2.8v1.1h-2.8v5.7c0,0.6,0.1,1,0.4,1.3S97.4,128.6,97.9,128.6z"/>
	<path d="M105.2,129.8c-1.4,0-2.5-0.4-3.4-1.3c-0.8-0.9-1.2-2.1-1.2-3.6c0-1.6,0.4-2.8,1.1-3.7c0.8-0.9,1.8-1.4,3.1-1.4
		c1.2,0,2.2,0.4,2.9,1.2s1.1,1.8,1.1,3.1v0.9h-6.6c0,1.1,0.3,2,0.9,2.6s1.3,0.9,2.3,0.9c1,0,2.1-0.2,3.1-0.7v1.3
		c-0.5,0.2-1,0.4-1.5,0.5C106.4,129.7,105.8,129.8,105.2,129.8z M104.8,121c-0.8,0-1.4,0.3-1.8,0.8c-0.5,0.5-0.7,1.2-0.8,2.1h5
		c0-0.9-0.2-1.6-0.6-2.1C106.1,121.2,105.6,121,104.8,121z"/>
	<path d="M123.3,129.6h-7.2v-12.8h7.2v1.3h-5.7v4.1h5.3v1.3h-5.3v4.7h5.7V129.6z"/>
	<path d="M130.6,129.6h-1.4v-9.2c0-0.8,0-1.5,0.1-2.2c-0.1,0.1-0.3,0.3-0.4,0.4s-0.8,0.7-2.1,1.7l-0.8-1l3.4-2.6h1.2V129.6z"/>
</g>
<g>
	<path d="M190.5,106.5L190.5,106.5c-0.8,1-1.8,1.5-3.1,1.5c-1.3,0-2.2-0.4-2.9-1.3s-1-2.1-1-3.7s0.4-2.8,1.1-3.7s1.7-1.3,2.9-1.3
		c1.3,0,2.3,0.5,3,1.4h0.1l-0.1-0.7l0-0.7v-3.9h1.5v13.7h-1.2L190.5,106.5z M187.6,106.7c1,0,1.7-0.3,2.2-0.8
		c0.4-0.5,0.7-1.4,0.7-2.6V103c0-1.4-0.2-2.3-0.7-2.9c-0.5-0.6-1.2-0.9-2.2-0.9c-0.9,0-1.5,0.3-2,1c-0.5,0.7-0.7,1.6-0.7,2.8
		c0,1.2,0.2,2.2,0.7,2.8S186.8,106.7,187.6,106.7z"/>
	<path d="M199.1,108c-1.4,0-2.5-0.4-3.4-1.3c-0.8-0.9-1.2-2.1-1.2-3.6c0-1.6,0.4-2.8,1.1-3.7c0.8-0.9,1.8-1.4,3.1-1.4
		c1.2,0,2.2,0.4,2.9,1.2s1.1,1.8,1.1,3.1v0.9H196c0,1.1,0.3,2,0.9,2.6s1.3,0.9,2.3,0.9c1,0,2.1-0.2,3.1-0.7v1.3
		c-0.5,0.2-1,0.4-1.5,0.5C200.3,107.9,199.7,108,199.1,108z M198.7,99.2c-0.8,0-1.4,0.3-1.8,0.8c-0.5,0.5-0.7,1.2-0.8,2.1h5
		c0-0.9-0.2-1.6-0.6-2.1C200,99.4,199.5,99.2,198.7,99.2z"/>
	<path d="M206.6,107.8h-1.5V94.1h1.5V107.8z"/>
	<path d="M213.7,108c-1.4,0-2.5-0.4-3.4-1.3c-0.8-0.9-1.2-2.1-1.2-3.6c0-1.6,0.4-2.8,1.1-3.7c0.8-0.9,1.8-1.4,3.1-1.4
		c1.2,0,2.2,0.4,2.9,1.2s1.1,1.8,1.1,3.1v0.9h-6.6c0,1.1,0.3,2,0.9,2.6s1.3,0.9,2.3,0.9c1,0,2.1-0.2,3.1-0.7v1.3
		c-0.5,0.2-1,0.4-1.5,0.5C214.9,107.9,214.4,108,213.7,108z M213.3,99.2c-0.8,0-1.4,0.3-1.8,0.8c-0.5,0.5-0.7,1.2-0.8,2.1h5
		c0-0.9-0.2-1.6-0.6-2.1C214.7,99.4,214.1,99.2,213.3,99.2z"/>
	<path d="M222.9,106.8c0.3,0,0.5,0,0.7-0.1c0.2,0,0.4-0.1,0.6-0.1v1.1c-0.2,0.1-0.4,0.1-0.7,0.2c-0.3,0-0.6,0.1-0.8,0.1
		c-1.9,0-2.8-1-2.8-2.9v-5.7h-1.4v-0.7l1.4-0.6l0.6-2.1h0.8v2.2h2.8v1.1h-2.8v5.7c0,0.6,0.1,1,0.4,1.3S222.4,106.8,222.9,106.8z"/>
	<path d="M230.2,108c-1.4,0-2.5-0.4-3.4-1.3c-0.8-0.9-1.2-2.1-1.2-3.6c0-1.6,0.4-2.8,1.1-3.7c0.8-0.9,1.8-1.4,3.1-1.4
		c1.2,0,2.2,0.4,2.9,1.2s1.1,1.8,1.1,3.1v0.9h-6.6c0,1.1,0.3,2,0.9,2.6s1.3,0.9,2.3,0.9c1,0,2.1-0.2,3.1-0.7v1.3
		c-0.5,0.2-1,0.4-1.5,0.5C231.4,107.9,230.8,108,230.2,108z M229.8,99.2c-0.8,0-1.4,0.3-1.8,0.8c-0.5,0.5-0.7,1.2-0.8,2.1h5
		c0-0.9-0.2-1.6-0.6-2.1C231.1,99.4,230.6,99.2,229.8,99.2z"/>
	<path d="M248.3,107.8h-7.2V94.9h7.2v1.3h-5.7v4.1h5.3v1.3h-5.3v4.7h5.7V107.8z"/>
	<path d="M255.6,107.8h-1.4v-9.2c0-0.8,0-1.5,0.1-2.2c-0.1,0.1-0.3,0.3-0.4,0.4s-0.8,0.7-2.1,1.7l-0.8-1l3.4-2.6h1.2V107.8z"/>
	<path d="M185.4,119.8v6.2c0,0.8,0.2,1.4,0.5,1.8s0.9,0.6,1.7,0.6c1,0,1.7-0.3,2.2-0.8c0.5-0.6,0.7-1.5,0.7-2.7v-5.1h1.5v9.6h-1.2
		l-0.2-1.3h-0.1c-0.3,0.5-0.7,0.8-1.2,1.1c-0.5,0.3-1.1,0.4-1.8,0.4c-1.2,0-2-0.3-2.6-0.8c-0.6-0.6-0.9-1.4-0.9-2.7v-6.3H185.4z"/>
	<path d="M199.5,129.6c-0.6,0-1.2-0.1-1.7-0.3c-0.5-0.2-1-0.6-1.3-1.1h-0.1c0.1,0.6,0.1,1.1,0.1,1.6v4H195v-14h1.2l0.2,1.3h0.1
		c0.4-0.5,0.8-0.9,1.3-1.1s1.1-0.4,1.7-0.4c1.3,0,2.3,0.4,3,1.3c0.7,0.9,1,2.1,1,3.7c0,1.6-0.4,2.8-1.1,3.7
		C201.8,129.1,200.8,129.6,199.5,129.6z M199.3,120.8c-1,0-1.7,0.3-2.1,0.8s-0.7,1.4-0.7,2.6v0.3c0,1.4,0.2,2.3,0.7,2.9
		s1.2,0.9,2.2,0.9c0.8,0,1.5-0.3,2-1s0.7-1.6,0.7-2.8c0-1.2-0.2-2.1-0.7-2.8C200.8,121.1,200.2,120.8,199.3,120.8z"/>
	<path d="M212.6,128.1L212.6,128.1c-0.8,1-1.8,1.5-3.1,1.5c-1.3,0-2.2-0.4-2.9-1.3s-1-2.1-1-3.7s0.4-2.8,1.1-3.7s1.7-1.3,2.9-1.3
		c1.3,0,2.3,0.5,3,1.4h0.1l-0.1-0.7l0-0.7v-3.9h1.5v13.7h-1.2L212.6,128.1z M209.7,128.3c1,0,1.7-0.3,2.2-0.8
		c0.4-0.5,0.7-1.4,0.7-2.6v-0.3c0-1.4-0.2-2.3-0.7-2.9c-0.5-0.6-1.2-0.9-2.2-0.9c-0.9,0-1.5,0.3-2,1c-0.5,0.7-0.7,1.6-0.7,2.8
		c0,1.2,0.2,2.2,0.7,2.8S208.8,128.3,209.7,128.3z"/>
	<path d="M223,129.4l-0.3-1.4h-0.1c-0.5,0.6-1,1-1.4,1.2c-0.5,0.2-1.1,0.3-1.8,0.3c-1,0-1.7-0.2-2.2-0.7s-0.8-1.2-0.8-2.1
		c0-1.9,1.6-3,4.7-3.1l1.6-0.1V123c0-0.8-0.2-1.3-0.5-1.7c-0.3-0.4-0.8-0.5-1.6-0.5c-0.8,0-1.7,0.2-2.7,0.7l-0.4-1.1
		c0.5-0.3,1-0.5,1.6-0.6s1.1-0.2,1.7-0.2c1.1,0,2,0.3,2.6,0.8c0.6,0.5,0.8,1.3,0.8,2.5v6.6H223z M219.7,128.4c0.9,0,1.6-0.2,2.1-0.7
		c0.5-0.5,0.8-1.2,0.8-2.1v-0.9l-1.5,0.1c-1.2,0-2,0.2-2.5,0.5c-0.5,0.3-0.8,0.8-0.8,1.5c0,0.5,0.2,0.9,0.5,1.2
		S219.2,128.4,219.7,128.4z"/>
	<path d="M230.2,128.4c0.3,0,0.5,0,0.7-0.1c0.2,0,0.4-0.1,0.6-0.1v1.1c-0.2,0.1-0.4,0.1-0.7,0.2c-0.3,0-0.6,0.1-0.8,0.1
		c-1.9,0-2.8-1-2.8-2.9v-5.7h-1.4v-0.7l1.4-0.6l0.6-2.1h0.8v2.2h2.8v1.1h-2.8v5.7c0,0.6,0.1,1,0.4,1.3S229.7,128.4,230.2,128.4z"/>
	<path d="M237.5,129.6c-1.4,0-2.5-0.4-3.4-1.3c-0.8-0.9-1.2-2.1-1.2-3.6c0-1.6,0.4-2.8,1.1-3.7c0.8-0.9,1.8-1.4,3.1-1.4
		c1.2,0,2.2,0.4,2.9,1.2s1.1,1.8,1.1,3.1v0.9h-6.6c0,1.1,0.3,2,0.9,2.6s1.3,0.9,2.3,0.9c1,0,2.1-0.2,3.1-0.7v1.3
		c-0.5,0.2-1,0.4-1.5,0.5C238.7,129.5,238.2,129.6,237.5,129.6z M237.1,120.8c-0.8,0-1.4,0.3-1.8,0.8c-0.5,0.5-0.7,1.2-0.8,2.1h5
		c0-0.9-0.2-1.6-0.6-2.1C238.5,121,237.9,120.8,237.1,120.8z"/>
	<path d="M255.6,129.4h-7.2v-12.8h7.2v1.3H250v4.1h5.3v1.3H250v4.7h5.7V129.4z"/>
	<path d="M266,129.4h-8.4v-1.3l3.4-3.4c1-1,1.7-1.8,2-2.2s0.6-0.9,0.7-1.3s0.2-0.9,0.2-1.4c0-0.7-0.2-1.2-0.6-1.6s-1-0.6-1.7-0.6
		c-0.5,0-1,0.1-1.5,0.3s-1,0.5-1.6,1l-0.8-1c1.2-1,2.5-1.5,3.9-1.5c1.2,0,2.2,0.3,2.8,0.9c0.7,0.6,1,1.4,1,2.5
		c0,0.8-0.2,1.6-0.7,2.4s-1.3,1.8-2.6,3l-2.8,2.8v0.1h6.6V129.4z"/>
</g>
</svg>
