<?xml version="1.0" encoding="utf-8"?>
<!-- Generator: Adobe Illustrator 22.0.0, SVG Export Plug-In . SVG Version: 6.00 Build 0)  -->
<svg version="1.1" id="Ebene_1" xmlns="http://www.w3.org/2000/svg" xmlns:xlink="http://www.w3.org/1999/xlink" x="0px" y="0px"
	 viewBox="0 0 318.7 178.8" style="enable-background:new 0 0 318.7 178.8;" xml:space="preserve">
<style type="text/css">
	.st0{fill:none;stroke:#CCCCCC;stroke-miterlimit:10;}
	.st1{fill:none;stroke:#00A8FF;stroke-miterlimit:10;stroke-dasharray:5;}
	.st2{fill:none;stroke:#00A8FF;stroke-width:3;stroke-miterlimit:10;}
	.st3{fill:#00A8FF;}
	.st4{fill:none;stroke:#00A8FF;stroke-width:3;stroke-miterlimit:10;stroke-dasharray:5,5;}
	.st5{fill:#B51F29;}
</style>
<path class="st0" d="M309.4,175.5H8.8c-2.8,0-5-2.2-5-5V8c0-2.8,2.2-5,5-5h300.7c2.8,0,5,2.2,5,5v162.5
	C314.4,173.2,312.2,175.5,309.4,175.5z"/>
<g>
	<line class="st1" x1="137.2" y1="63.9" x2="137.2" y2="17.9"/>
	<path class="st2" d="M126,52.6h-19.3c-2.8,0-5-2.2-5-5V35c0-2.8,2.2-5,5-5H126c2.8,0,5,2.2,5,5v12.7C131,50.4,128.8,52.6,126,52.6z
		"/>
	<path class="st2" d="M172.8,52.6h-19.3c-2.8,0-5-2.2-5-5V35c0-2.8,2.2-5,5-5h19.3c2.8,0,5,2.2,5,5v12.7
		C177.8,50.4,175.6,52.6,172.8,52.6z"/>
	<path class="st2" d="M219.6,52.6h-19.3c-2.8,0-5-2.2-5-5V35c0-2.8,2.2-5,5-5h19.3c2.8,0,5,2.2,5,5v12.7
		C224.6,50.4,222.3,52.6,219.6,52.6z"/>
	<g>
		<g>
			<line class="st2" x1="131" y1="41.3" x2="141" y2="41.3"/>
			<g>
				<polygon class="st3" points="139.5,46.5 148.5,41.3 139.5,36.1 				"/>
			</g>
		</g>
	</g>
	<g>
		<g>
			<line class="st2" x1="177.8" y1="41.3" x2="187.8" y2="41.3"/>
			<g>
				<polygon class="st3" points="186.3,46.5 195.3,41.3 186.3,36.1 				"/>
			</g>
		</g>
	</g>
	<g>
		<g>
			<line class="st2" x1="224.6" y1="41.3" x2="234.6" y2="41.3"/>
			<g>
				<polygon class="st3" points="233,46.5 242.1,41.3 233,36.1 				"/>
			</g>
		</g>
	</g>
	<g>
		<g>
			<line class="st2" x1="76.1" y1="41.3" x2="94.1" y2="41.3"/>
			<g>
				<polygon class="st3" points="92.5,46.5 101.6,41.3 92.5,36.1 				"/>
			</g>
		</g>
	</g>
	<g>
		<line class="st2" x1="154.7" y1="160.5" x2="154.7" y2="124.2"/>
		<line class="st2" x1="178.8" y1="160.5" x2="178.8" y2="124.2"/>
		<line class="st2" x1="130.6" y1="160.5" x2="130.6" y2="124.8"/>
		<line class="st2" x1="106.5" y1="160.5" x2="106.5" y2="124.2"/>
		<line class="st2" x1="178.8" y1="139.8" x2="106.7" y2="139.8"/>
		<line class="st2" x1="178.8" y1="154.3" x2="106.7" y2="154.3"/>
		<line class="st2" x1="178.8" y1="125.4" x2="106.7" y2="125.4"/>
	</g>
	<g>
		<path d="M92.4,89.8h-2v6.8h-1.2v-6.8h-1.4v-0.5l1.4-0.4v-0.4c0-1.9,0.8-2.9,2.5-2.9c0.4,0,0.9,0.1,1.4,0.2l-0.3,0.9
			c-0.5-0.1-0.8-0.2-1.2-0.2c-0.4,0-0.8,0.1-1,0.4s-0.3,0.8-0.3,1.4v0.5h2V89.8z M95,96.7h-1.2v-11H95V96.7z"/>
		<path d="M98.5,88.9v5c0,0.6,0.1,1.1,0.4,1.4c0.3,0.3,0.7,0.5,1.3,0.5c0.8,0,1.4-0.2,1.8-0.7c0.4-0.4,0.6-1.2,0.6-2.2v-4.1h1.2v7.7
			h-1l-0.2-1h-0.1c-0.2,0.4-0.6,0.7-1,0.9s-0.9,0.3-1.5,0.3c-0.9,0-1.6-0.2-2.1-0.7c-0.5-0.4-0.7-1.2-0.7-2.1v-5.1H98.5z"/>
		<path d="M111.3,94.6c0,0.7-0.3,1.3-0.8,1.7c-0.5,0.4-1.3,0.6-2.3,0.6c-1,0-1.8-0.2-2.4-0.5v-1.1c0.4,0.2,0.8,0.3,1.2,0.4
			c0.4,0.1,0.8,0.2,1.2,0.2c0.6,0,1.1-0.1,1.4-0.3c0.3-0.2,0.5-0.5,0.5-0.9c0-0.3-0.1-0.6-0.4-0.8c-0.3-0.2-0.8-0.5-1.5-0.8
			c-0.7-0.3-1.2-0.5-1.5-0.7c-0.3-0.2-0.5-0.4-0.7-0.7c-0.1-0.3-0.2-0.6-0.2-0.9c0-0.6,0.3-1.1,0.8-1.5s1.2-0.5,2.1-0.5
			c0.8,0,1.6,0.2,2.4,0.5l-0.4,1c-0.8-0.3-1.5-0.5-2.1-0.5c-0.6,0-1,0.1-1.3,0.3c-0.3,0.2-0.4,0.4-0.4,0.7c0,0.2,0.1,0.4,0.2,0.5
			c0.1,0.1,0.3,0.3,0.5,0.4s0.7,0.3,1.4,0.6c0.9,0.3,1.5,0.7,1.9,1C111.1,93.6,111.3,94,111.3,94.6z"/>
		<path d="M118.5,96.7v-5c0-0.6-0.1-1.1-0.4-1.4s-0.7-0.5-1.3-0.5c-0.8,0-1.4,0.2-1.8,0.7s-0.6,1.2-0.6,2.2v4h-1.2v-11h1.2V89
			c0,0.4,0,0.7-0.1,1h0.1c0.2-0.4,0.6-0.7,1-0.9c0.4-0.2,0.9-0.3,1.5-0.3c0.9,0,1.7,0.2,2.1,0.7s0.7,1.2,0.7,2.1v5H118.5z"/>
	</g>
	<g>
		<path d="M160.8,96.7h-1.2v-11h1.2V96.7z"/>
		<path d="M170,92.8c0,1.3-0.3,2.2-1,3s-1.5,1.1-2.6,1.1c-0.7,0-1.3-0.2-1.8-0.5s-1-0.8-1.2-1.4c-0.3-0.6-0.4-1.3-0.4-2.1
			c0-1.3,0.3-2.2,0.9-2.9c0.6-0.7,1.5-1.1,2.6-1.1c1.1,0,1.9,0.4,2.6,1.1C169.7,90.6,170,91.6,170,92.8z M164.1,92.8
			c0,1,0.2,1.7,0.6,2.3c0.4,0.5,1,0.8,1.7,0.8s1.3-0.3,1.7-0.8s0.6-1.3,0.6-2.3c0-1-0.2-1.7-0.6-2.2c-0.4-0.5-1-0.8-1.8-0.8
			c-0.8,0-1.3,0.3-1.7,0.8S164.1,91.8,164.1,92.8z"/>
		<path d="M176.8,96.7l-0.2-1.1h-0.1c-0.4,0.5-0.8,0.8-1.2,1c-0.4,0.2-0.9,0.3-1.4,0.3c-0.8,0-1.4-0.2-1.8-0.6
			c-0.4-0.4-0.7-1-0.7-1.7c0-1.6,1.2-2.4,3.7-2.5l1.3,0v-0.5c0-0.6-0.1-1.1-0.4-1.3c-0.3-0.3-0.7-0.4-1.3-0.4
			c-0.6,0-1.4,0.2-2.2,0.6l-0.4-0.9c0.4-0.2,0.8-0.4,1.3-0.5s0.9-0.2,1.4-0.2c0.9,0,1.6,0.2,2,0.6s0.7,1.1,0.7,2v5.3H176.8z
			 M174.2,95.8c0.7,0,1.3-0.2,1.7-0.6s0.6-1,0.6-1.7v-0.7l-1.2,0c-0.9,0-1.6,0.2-2,0.4c-0.4,0.3-0.6,0.7-0.6,1.2
			c0,0.4,0.1,0.7,0.4,1C173.3,95.7,173.7,95.8,174.2,95.8z"/>
		<path d="M185.3,95.6L185.3,95.6c-0.6,0.8-1.4,1.2-2.5,1.2c-1,0-1.8-0.3-2.4-1c-0.6-0.7-0.8-1.7-0.8-2.9c0-1.3,0.3-2.3,0.8-3
			s1.4-1.1,2.4-1.1c1,0,1.9,0.4,2.4,1.1h0.1l0-0.6l0-0.5v-3.1h1.2v11h-1L185.3,95.6z M183,95.8c0.8,0,1.4-0.2,1.7-0.7
			c0.4-0.4,0.5-1.1,0.5-2.1v-0.2c0-1.1-0.2-1.9-0.5-2.3c-0.4-0.5-0.9-0.7-1.7-0.7c-0.7,0-1.2,0.3-1.6,0.8c-0.4,0.5-0.5,1.3-0.5,2.3
			c0,1,0.2,1.7,0.5,2.2S182.3,95.8,183,95.8z"/>
	</g>
	<g>
		<g>
			<line class="st4" x1="130.8" y1="77.8" x2="130.8" y2="108.4"/>
			<g>
				<polygon class="st3" points="123.3,106.2 130.8,119.1 138.3,106.2 				"/>
			</g>
		</g>
	</g>
	<g>
		<g>
			<line class="st4" x1="146.9" y1="119.1" x2="146.9" y2="88.6"/>
			<g>
				<polygon class="st3" points="154.3,90.7 146.9,77.8 139.4,90.7 				"/>
			</g>
		</g>
	</g>
	<g>
		<path class="st5" d="M145.3,101.3l-5.7-8h2.8l4.3,6.3l4.3-6.3h2.8l-5.7,8l6,8.4h-2.8l-4.6-6.6l-4.6,6.6h-2.8L145.3,101.3z"/>
	</g>
</g>
</svg>
