<?xml version="1.0" encoding="utf-8"?>
<!-- Generator: Adobe Illustrator 22.0.0, SVG Export Plug-In . SVG Version: 6.00 Build 0)  -->
<svg version="1.1" id="Ebene_1" xmlns="http://www.w3.org/2000/svg" xmlns:xlink="http://www.w3.org/1999/xlink" x="0px" y="0px"
	 viewBox="0 0 479.7 438.3" style="enable-background:new 0 0 479.7 438.3;" xml:space="preserve">
<style type="text/css">
	.st0{clip-path:url(#SVGID_37_);fill:none;stroke:#999999;stroke-miterlimit:10;}
	.st1{clip-path:url(#SVGID_38_);fill:none;stroke:#999999;stroke-miterlimit:10;}
	.st2{fill:none;stroke:#999999;stroke-miterlimit:10;}
	.st3{fill:none;stroke:#00A8FF;stroke-width:3;stroke-miterlimit:10;}
	.st4{fill:#333333;}
	.st5{clip-path:url(#SVGID_39_);fill:none;stroke:#999999;stroke-miterlimit:10;}
	.st6{clip-path:url(#SVGID_40_);fill:none;stroke:#999999;stroke-miterlimit:10;}
	.st7{clip-path:url(#SVGID_41_);fill:none;stroke:#999999;stroke-miterlimit:10;}
	.st8{clip-path:url(#SVGID_42_);fill:none;stroke:#999999;stroke-miterlimit:10;}
	.st9{fill:none;stroke:#999999;stroke-miterlimit:10;stroke-dasharray:5;}
	.st10{fill:none;stroke:#00A8FF;stroke-width:2;stroke-miterlimit:10;}
	.st11{fill:#FFFFFF;stroke:#00A8FF;stroke-width:2;stroke-miterlimit:10;}
	.st12{clip-path:url(#SVGID_43_);fill:none;stroke:#999999;stroke-miterlimit:10;}
	.st13{clip-path:url(#SVGID_44_);fill:none;stroke:#999999;stroke-miterlimit:10;}
	.st14{fill:#00A8FF;}
	.st15{clip-path:url(#SVGID_45_);fill:none;stroke:#999999;stroke-miterlimit:10;}
	.st16{clip-path:url(#SVGID_46_);fill:none;stroke:#999999;stroke-miterlimit:10;}
	.st17{clip-path:url(#SVGID_47_);fill:none;stroke:#999999;stroke-miterlimit:10;}
	.st18{clip-path:url(#SVGID_48_);fill:none;stroke:#999999;stroke-miterlimit:10;}
	.st19{clip-path:url(#SVGID_49_);fill:none;stroke:#999999;stroke-miterlimit:10;}
	.st20{clip-path:url(#SVGID_50_);fill:none;stroke:#999999;stroke-miterlimit:10;}
	.st21{clip-path:url(#SVGID_51_);fill:none;stroke:#999999;stroke-miterlimit:10;}
	.st22{clip-path:url(#SVGID_52_);fill:none;stroke:#999999;stroke-miterlimit:10;}
	.st23{clip-path:url(#SVGID_53_);fill:none;stroke:#999999;stroke-miterlimit:10;}
	.st24{clip-path:url(#SVGID_54_);fill:none;stroke:#999999;stroke-miterlimit:10;}
	.st25{clip-path:url(#SVGID_55_);fill:none;stroke:#999999;stroke-miterlimit:10;}
	.st26{clip-path:url(#SVGID_56_);fill:none;stroke:#999999;stroke-miterlimit:10;}
	.st27{clip-path:url(#SVGID_57_);fill:none;stroke:#999999;stroke-miterlimit:10;}
	.st28{clip-path:url(#SVGID_58_);fill:none;stroke:#999999;stroke-miterlimit:10;}
	.st29{clip-path:url(#SVGID_59_);fill:none;stroke:#999999;stroke-miterlimit:10;}
	.st30{clip-path:url(#SVGID_60_);fill:none;stroke:#999999;stroke-miterlimit:10;}
</style>
<g>
	<g>
		<g>
			<g>
				<defs>
					<circle id="SVGID_7_" cx="67.7" cy="175.7" r="62.7"/>
				</defs>
				<clipPath id="SVGID_37_">
					<use xlink:href="#SVGID_7_"  style="overflow:visible;"/>
				</clipPath>
				<circle class="st0" cx="67.7" cy="175.7" r="62.7"/>
			</g>
		</g>
		<g>
			<g>
				<defs>
					<circle id="SVGID_9_" cx="67.7" cy="175.7" r="62.7"/>
				</defs>
				<clipPath id="SVGID_38_">
					<use xlink:href="#SVGID_9_"  style="overflow:visible;"/>
				</clipPath>
				<circle class="st1" cx="67.7" cy="175.7" r="62"/>
			</g>
		</g>
		<g>
			<path id="SVGID_6_" class="st2" d="M67.7,113C33.1,113,5,141.1,5,175.7s28.1,62.7,62.7,62.7s62.7-28.1,62.7-62.7
				S102.3,113,67.7,113z"/>
		</g>
	</g>
	<path class="st3" d="M93.2,153.5c-0.6-2.4-2.8-4.1-5.4-4.1H47.7c-2.6,0-4.7,1.7-5.4,4.1c-0.1,0.5-1,3.5-2,7.1
		c-2.7,9.3-2.3,19.3,1.1,28.3l3.2,8.5c0.8,2.5,3.6,4.5,6.2,4.5h33.8c2.6,0,5.4-2,6.2-4.5l3.3-8.7c3.4-9,3.8-18.8,1.2-28
		C94.2,157.1,93.3,154,93.2,153.5z"/>
	<g>
		<g>
			<rect x="63" y="160.2" class="st4" width="9.4" height="9.4"/>
		</g>
		<g>
			<path class="st4" d="M67.7,183.4l-5.7-5.7l5.7-5.7l5.7,5.7L67.7,183.4z M63.2,177.7l4.5,4.5l4.5-4.5l-4.5-4.5L63.2,177.7z"/>
		</g>
		<g>
			<g>
				<rect x="74.3" y="181.7" class="st4" width="9.4" height="9.4"/>
			</g>
			<g>
				<rect x="51.7" y="181.7" class="st4" width="9.4" height="9.4"/>
			</g>
		</g>
		<g>
			<path class="st4" d="M56.4,182.1c-0.2,0-0.4-0.2-0.4-0.4v-4.1c0-0.2,0.2-0.4,0.4-0.4c0.2,0,0.4,0.2,0.4,0.4v4.1
				C56.8,181.9,56.7,182.1,56.4,182.1z"/>
		</g>
		<g>
			<path class="st4" d="M62.4,178h-6c-0.2,0-0.4-0.2-0.4-0.4c0-0.2,0.2-0.4,0.4-0.4h6c0.2,0,0.4,0.2,0.4,0.4
				C62.9,177.8,62.6,178,62.4,178z"/>
		</g>
		<g>
			<path class="st4" d="M79,178h-6c-0.2,0-0.4-0.2-0.4-0.4c0-0.2,0.2-0.4,0.4-0.4h6c0.2,0,0.4,0.2,0.4,0.4
				C79.4,177.8,79.2,178,79,178z"/>
		</g>
		<g>
			<path class="st4" d="M79,182.1c-0.2,0-0.4-0.2-0.4-0.4v-4.1c0-0.2,0.2-0.4,0.4-0.4s0.4,0.2,0.4,0.4v4.1
				C79.3,181.9,79.2,182.1,79,182.1z"/>
		</g>
		<g>
			<path class="st4" d="M67.7,173c-0.2,0-0.4-0.2-0.4-0.4v-2.9c0-0.2,0.2-0.4,0.4-0.4s0.4,0.2,0.4,0.4v2.9
				C68.1,172.9,67.9,173,67.7,173z"/>
		</g>
	</g>
</g>
<g>
	<g>
		<g>
			<g>
				<defs>
					<circle id="SVGID_3_" cx="239.5" cy="175.7" r="62.7"/>
				</defs>
				<clipPath id="SVGID_39_">
					<use xlink:href="#SVGID_3_"  style="overflow:visible;"/>
				</clipPath>
				<circle class="st5" cx="239.5" cy="175.7" r="62.7"/>
			</g>
		</g>
		<g>
			<g>
				<defs>
					<circle id="SVGID_2_" cx="239.5" cy="175.7" r="62.7"/>
				</defs>
				<clipPath id="SVGID_40_">
					<use xlink:href="#SVGID_2_"  style="overflow:visible;"/>
				</clipPath>
				<circle class="st6" cx="239.5" cy="175.7" r="62"/>
			</g>
		</g>
		<g>
			<path id="SVGID_1_" class="st2" d="M239.5,113c-34.6,0-62.7,28.1-62.7,62.7s28.1,62.7,62.7,62.7s62.7-28.1,62.7-62.7
				S274.1,113,239.5,113z"/>
		</g>
	</g>
	<path class="st3" d="M264.9,153.5c-0.6-2.4-2.8-4.1-5.4-4.1h-40.1c-2.6,0-4.7,1.7-5.4,4.1c-0.1,0.5-1,3.5-2,7.1
		c-2.7,9.3-2.3,19.3,1.1,28.3l3.2,8.5c0.8,2.5,3.6,4.5,6.2,4.5h33.8c2.6,0,5.4-2,6.2-4.5l3.3-8.7c3.4-9,3.8-18.8,1.2-28
		C265.9,157.1,265.1,154,264.9,153.5z"/>
	<g>
		<g>
			<rect x="234.7" y="160.2" class="st4" width="9.4" height="9.4"/>
		</g>
		<g>
			<path class="st4" d="M239.4,183.4l-5.7-5.7l5.7-5.7l5.7,5.7L239.4,183.4z M234.9,177.7l4.5,4.5l4.5-4.5l-4.5-4.5L234.9,177.7z"/>
		</g>
		<g>
			<g>
				<rect x="246" y="181.7" class="st4" width="9.4" height="9.4"/>
			</g>
			<g>
				<rect x="223.5" y="181.7" class="st4" width="9.4" height="9.4"/>
			</g>
		</g>
		<g>
			<path class="st4" d="M228.2,182.1c-0.2,0-0.4-0.2-0.4-0.4v-4.1c0-0.2,0.2-0.4,0.4-0.4s0.4,0.2,0.4,0.4v4.1
				C228.5,181.9,228.4,182.1,228.2,182.1z"/>
		</g>
		<g>
			<path class="st4" d="M234.2,178h-6c-0.2,0-0.4-0.2-0.4-0.4c0-0.2,0.2-0.4,0.4-0.4h6c0.2,0,0.4,0.2,0.4,0.4
				C234.6,177.8,234.4,178,234.2,178z"/>
		</g>
		<g>
			<path class="st4" d="M250.8,178h-6c-0.2,0-0.4-0.2-0.4-0.4c0-0.2,0.2-0.4,0.4-0.4h6c0.2,0,0.4,0.2,0.4,0.4
				C251.2,177.8,251,178,250.8,178z"/>
		</g>
		<g>
			<path class="st4" d="M250.8,182.1c-0.2,0-0.4-0.2-0.4-0.4v-4.1c0-0.2,0.2-0.4,0.4-0.4s0.4,0.2,0.4,0.4v4.1
				C251.1,181.9,251,182.1,250.8,182.1z"/>
		</g>
		<g>
			<path class="st4" d="M239.4,173c-0.2,0-0.4-0.2-0.4-0.4v-2.9c0-0.2,0.2-0.4,0.4-0.4c0.2,0,0.4,0.2,0.4,0.4v2.9
				C239.8,172.9,239.6,173,239.4,173z"/>
		</g>
	</g>
</g>
<g>
	<g>
		<g>
			<g>
				<defs>
					<circle id="SVGID_8_" cx="411.2" cy="175.7" r="62.7"/>
				</defs>
				<clipPath id="SVGID_41_">
					<use xlink:href="#SVGID_8_"  style="overflow:visible;"/>
				</clipPath>
				<circle class="st7" cx="411.2" cy="175.7" r="62.7"/>
			</g>
		</g>
		<g>
			<g>
				<defs>
					<circle id="SVGID_5_" cx="411.2" cy="175.7" r="62.7"/>
				</defs>
				<clipPath id="SVGID_42_">
					<use xlink:href="#SVGID_5_"  style="overflow:visible;"/>
				</clipPath>
				<circle class="st8" cx="411.2" cy="175.7" r="62"/>
			</g>
		</g>
		<g>
			<path id="SVGID_4_" class="st2" d="M411.2,113c-34.6,0-62.7,28.1-62.7,62.7s28.1,62.7,62.7,62.7s62.7-28.1,62.7-62.7
				S445.8,113,411.2,113z"/>
		</g>
	</g>
	<path class="st3" d="M436.7,153.5c-0.6-2.4-2.8-4.1-5.4-4.1h-40.1c-2.6,0-4.7,1.7-5.4,4.1c-0.1,0.5-1,3.5-2,7.1
		c-2.7,9.3-2.3,19.3,1.1,28.3l3.2,8.5c0.8,2.5,3.6,4.5,6.2,4.5h33.8c2.6,0,5.4-2,6.2-4.5l3.3-8.7c3.4-9,3.8-18.8,1.2-28
		C437.7,157.1,436.8,154,436.7,153.5z"/>
	<g>
		<g>
			<rect x="406.5" y="160.2" class="st4" width="9.4" height="9.4"/>
		</g>
		<g>
			<path class="st4" d="M411.2,183.4l-5.7-5.7l5.7-5.7l5.7,5.7L411.2,183.4z M406.7,177.7l4.5,4.5l4.5-4.5l-4.5-4.5L406.7,177.7z"/>
		</g>
		<g>
			<g>
				<rect x="417.8" y="181.7" class="st4" width="9.4" height="9.4"/>
			</g>
			<g>
				<rect x="395.2" y="181.7" class="st4" width="9.4" height="9.4"/>
			</g>
		</g>
		<g>
			<path class="st4" d="M399.9,182.1c-0.2,0-0.4-0.2-0.4-0.4v-4.1c0-0.2,0.2-0.4,0.4-0.4c0.2,0,0.4,0.2,0.4,0.4v4.1
				C400.3,181.9,400.2,182.1,399.9,182.1z"/>
		</g>
		<g>
			<path class="st4" d="M405.9,178h-6c-0.2,0-0.4-0.2-0.4-0.4c0-0.2,0.2-0.4,0.4-0.4h6c0.2,0,0.4,0.2,0.4,0.4
				C406.3,177.8,406.1,178,405.9,178z"/>
		</g>
		<g>
			<path class="st4" d="M422.5,178h-6c-0.2,0-0.4-0.2-0.4-0.4c0-0.2,0.2-0.4,0.4-0.4h6c0.2,0,0.4,0.2,0.4,0.4
				C422.9,177.8,422.7,178,422.5,178z"/>
		</g>
		<g>
			<path class="st4" d="M422.5,182.1c-0.2,0-0.4-0.2-0.4-0.4v-4.1c0-0.2,0.2-0.4,0.4-0.4s0.4,0.2,0.4,0.4v4.1
				C422.8,181.9,422.7,182.1,422.5,182.1z"/>
		</g>
		<g>
			<path class="st4" d="M411.2,173c-0.2,0-0.4-0.2-0.4-0.4v-2.9c0-0.2,0.2-0.4,0.4-0.4s0.4,0.2,0.4,0.4v2.9
				C411.6,172.9,411.4,173,411.2,173z"/>
		</g>
	</g>
</g>
<line class="st9" x1="68.9" y1="354.7" x2="196.1" y2="354.7"/>
<line class="st9" x1="67.7" y1="354.6" x2="67.7" y2="238.4"/>
<g>
	<line class="st9" x1="410.1" y1="354.7" x2="282.9" y2="354.7"/>
	<line class="st9" x1="411.2" y1="354.6" x2="411.2" y2="238.4"/>
</g>
<line class="st9" x1="239.5" y1="248.6" x2="239.5" y2="238.4"/>
<line class="st9" x1="239.5" y1="308.6" x2="239.5" y2="269.4"/>
<g>
	<path class="st4" d="M169.9,428.9c0,1.3-0.5,2.2-1.4,2.9s-2.1,1.1-3.7,1.1c-1.7,0-3-0.2-3.9-0.7v-1.6c0.6,0.2,1.2,0.4,1.9,0.6
		s1.4,0.2,2.1,0.2c1.1,0,1.9-0.2,2.5-0.6s0.8-1,0.8-1.8c0-0.5-0.1-0.9-0.3-1.2s-0.5-0.6-1-0.9s-1.2-0.6-2.1-0.9
		c-1.3-0.5-2.3-1-2.8-1.7s-0.9-1.5-0.9-2.5c0-1.1,0.4-2,1.2-2.6s1.9-1,3.3-1c1.4,0,2.7,0.3,3.9,0.8l-0.5,1.4
		c-1.2-0.5-2.3-0.7-3.4-0.7c-0.9,0-1.6,0.2-2.1,0.6s-0.7,0.9-0.7,1.6c0,0.5,0.1,0.9,0.3,1.2s0.5,0.6,0.9,0.9s1.1,0.6,2,0.9
		c1.5,0.5,2.5,1.1,3.1,1.7S169.9,427.9,169.9,428.9z"/>
	<path class="st4" d="M179.9,432.7v-6.9c0-0.9-0.2-1.5-0.6-2s-1-0.6-1.9-0.6c-1.1,0-1.9,0.3-2.5,0.9s-0.8,1.6-0.8,3v5.6h-1.6v-15.2
		h1.6v4.6c0,0.6,0,1-0.1,1.4h0.1c0.3-0.5,0.8-0.9,1.4-1.2s1.3-0.4,2-0.4c1.3,0,2.3,0.3,2.9,0.9s1,1.6,1,3v7H179.9z"/>
	<path class="st4" d="M191.4,432.7l-0.3-1.5H191c-0.5,0.7-1.1,1.1-1.6,1.4s-1.2,0.4-2,0.4c-1.1,0-1.9-0.3-2.5-0.8s-0.9-1.3-0.9-2.3
		c0-2.2,1.7-3.3,5.2-3.4l1.8-0.1v-0.7c0-0.8-0.2-1.5-0.5-1.9s-0.9-0.6-1.7-0.6c-0.9,0-1.9,0.3-3,0.8l-0.5-1.2
		c0.5-0.3,1.1-0.5,1.7-0.7s1.3-0.2,1.9-0.2c1.3,0,2.2,0.3,2.8,0.8s0.9,1.5,0.9,2.7v7.3H191.4z M187.8,431.5c1,0,1.8-0.3,2.4-0.8
		s0.9-1.3,0.9-2.3v-1l-1.6,0.1c-1.3,0-2.2,0.2-2.8,0.6s-0.9,0.9-0.9,1.7c0,0.6,0.2,1,0.5,1.3S187.1,431.5,187.8,431.5z"/>
	<path class="st4" d="M200.8,421.8c0.5,0,0.9,0,1.3,0.1l-0.2,1.5c-0.4-0.1-0.8-0.1-1.2-0.1c-0.9,0-1.6,0.4-2.2,1.1s-0.9,1.6-0.9,2.6
		v5.7H196V422h1.3l0.2,2h0.1c0.4-0.7,0.9-1.2,1.4-1.6S200.2,421.8,200.8,421.8z"/>
	<path class="st4" d="M208.6,432.9c-1.6,0-2.8-0.5-3.7-1.4s-1.4-2.3-1.4-4c0-1.7,0.4-3.1,1.3-4.1s2-1.5,3.4-1.5
		c1.3,0,2.4,0.4,3.2,1.3s1.2,2,1.2,3.5v1h-7.4c0,1.3,0.4,2.2,1,2.9s1.5,1,2.5,1c1.2,0,2.3-0.2,3.4-0.7v1.4c-0.6,0.2-1.1,0.4-1.6,0.5
		S209.4,432.9,208.6,432.9z M208.2,423.1c-0.9,0-1.5,0.3-2.1,0.8s-0.8,1.3-0.9,2.3h5.6c0-1-0.2-1.8-0.7-2.3S209,423.1,208.2,423.1z"
		/>
	<path class="st4" d="M222.6,431.2L222.6,431.2c-0.8,1.1-2,1.6-3.4,1.6c-1.4,0-2.5-0.5-3.3-1.4s-1.2-2.3-1.2-4.1
		c0-1.8,0.4-3.1,1.2-4.1s1.9-1.5,3.3-1.5c1.5,0,2.6,0.5,3.3,1.6h0.1l-0.1-0.8l0-0.8v-4.4h1.6v15.2h-1.3L222.6,431.2z M219.4,431.5
		c1.1,0,1.9-0.3,2.4-0.9s0.7-1.6,0.7-2.9v-0.3c0-1.5-0.3-2.6-0.8-3.2s-1.3-1-2.4-1c-1,0-1.7,0.4-2.2,1.1s-0.8,1.8-0.8,3.1
		c0,1.4,0.3,2.4,0.8,3.1S218.4,431.5,219.4,431.5z"/>
	<path class="st4" d="M244.4,425.4c0,2.4-0.6,4.2-1.9,5.4s-3.1,1.9-5.5,1.9h-4v-14.3h4.4c2.2,0,3.9,0.6,5.2,1.8
		S244.4,423.2,244.4,425.4z M242.7,425.4c0-1.9-0.5-3.3-1.4-4.2c-0.9-0.9-2.3-1.4-4.2-1.4h-2.4v11.4h2c2,0,3.5-0.5,4.5-1.5
		S242.7,427.4,242.7,425.4z"/>
	<path class="st4" d="M254,432.7l-0.3-1.5h-0.1c-0.5,0.7-1.1,1.1-1.6,1.4c-0.5,0.2-1.2,0.4-2,0.4c-1.1,0-1.9-0.3-2.5-0.8
		c-0.6-0.5-0.9-1.3-0.9-2.3c0-2.2,1.7-3.3,5.2-3.4l1.8-0.1v-0.7c0-0.8-0.2-1.5-0.5-1.9s-0.9-0.6-1.7-0.6c-0.9,0-1.9,0.3-3,0.8
		l-0.5-1.2c0.5-0.3,1.1-0.5,1.7-0.7c0.6-0.2,1.3-0.2,1.9-0.2c1.3,0,2.2,0.3,2.8,0.8s0.9,1.5,0.9,2.7v7.3H254z M250.3,431.5
		c1,0,1.8-0.3,2.4-0.8s0.9-1.3,0.9-2.3v-1l-1.6,0.1c-1.3,0-2.2,0.2-2.8,0.6c-0.6,0.4-0.9,0.9-0.9,1.7c0,0.6,0.2,1,0.5,1.3
		C249.2,431.4,249.7,431.5,250.3,431.5z"/>
	<path class="st4" d="M262,431.5c0.3,0,0.6,0,0.8-0.1c0.3,0,0.5-0.1,0.6-0.1v1.2c-0.2,0.1-0.4,0.2-0.8,0.2s-0.6,0.1-0.9,0.1
		c-2.1,0-3.1-1.1-3.1-3.3v-6.4h-1.5v-0.8l1.5-0.7l0.7-2.3h0.9v2.5h3.1v1.3h-3.1v6.3c0,0.6,0.2,1.1,0.5,1.5
		C261,431.4,261.4,431.5,262,431.5z"/>
	<path class="st4" d="M272.1,432.7l-0.3-1.5h-0.1c-0.5,0.7-1.1,1.1-1.6,1.4c-0.5,0.2-1.2,0.4-2,0.4c-1.1,0-1.9-0.3-2.5-0.8
		c-0.6-0.5-0.9-1.3-0.9-2.3c0-2.2,1.7-3.3,5.2-3.4l1.8-0.1v-0.7c0-0.8-0.2-1.5-0.5-1.9s-0.9-0.6-1.7-0.6c-0.9,0-1.9,0.3-3,0.8
		l-0.5-1.2c0.5-0.3,1.1-0.5,1.7-0.7c0.6-0.2,1.3-0.2,1.9-0.2c1.3,0,2.2,0.3,2.8,0.8s0.9,1.5,0.9,2.7v7.3H272.1z M268.5,431.5
		c1,0,1.8-0.3,2.4-0.8s0.9-1.3,0.9-2.3v-1l-1.6,0.1c-1.3,0-2.2,0.2-2.8,0.6c-0.6,0.4-0.9,0.9-0.9,1.7c0,0.6,0.2,1,0.5,1.3
		C267.3,431.4,267.8,431.5,268.5,431.5z"/>
	<path class="st4" d="M281.7,421.8c1.4,0,2.5,0.5,3.3,1.4c0.8,1,1.2,2.3,1.2,4.1s-0.4,3.1-1.2,4.1c-0.8,1-1.9,1.5-3.3,1.5
		c-0.7,0-1.3-0.1-1.9-0.4s-1.1-0.7-1.5-1.2h-0.1l-0.3,1.4h-1.2v-15.2h1.6v3.7c0,0.8,0,1.6-0.1,2.2h0.1
		C279.1,422.3,280.2,421.8,281.7,421.8z M281.4,423.1c-1.1,0-1.9,0.3-2.4,1s-0.7,1.7-0.7,3.2s0.3,2.6,0.8,3.2c0.5,0.6,1.3,1,2.4,1
		c1,0,1.7-0.4,2.2-1.1s0.7-1.8,0.7-3.1c0-1.4-0.2-2.4-0.7-3.1S282.4,423.1,281.4,423.1z"/>
	<path class="st4" d="M295.5,432.7l-0.3-1.5h-0.1c-0.5,0.7-1.1,1.1-1.6,1.4c-0.5,0.2-1.2,0.4-2,0.4c-1.1,0-1.9-0.3-2.5-0.8
		c-0.6-0.5-0.9-1.3-0.9-2.3c0-2.2,1.7-3.3,5.2-3.4l1.8-0.1v-0.7c0-0.8-0.2-1.5-0.5-1.9s-0.9-0.6-1.7-0.6c-0.9,0-1.9,0.3-3,0.8
		l-0.5-1.2c0.5-0.3,1.1-0.5,1.7-0.7c0.6-0.2,1.3-0.2,1.9-0.2c1.3,0,2.2,0.3,2.8,0.8s0.9,1.5,0.9,2.7v7.3H295.5z M291.9,431.5
		c1,0,1.8-0.3,2.4-0.8s0.9-1.3,0.9-2.3v-1l-1.6,0.1c-1.3,0-2.2,0.2-2.8,0.6c-0.6,0.4-0.9,0.9-0.9,1.7c0,0.6,0.2,1,0.5,1.3
		C290.7,431.4,291.2,431.5,291.9,431.5z"/>
	<path class="st4" d="M307,429.7c0,1-0.4,1.8-1.1,2.3s-1.8,0.8-3.1,0.8c-1.4,0-2.5-0.2-3.3-0.7v-1.5c0.5,0.3,1.1,0.5,1.7,0.6
		c0.6,0.1,1.2,0.2,1.7,0.2c0.8,0,1.5-0.1,2-0.4c0.5-0.3,0.7-0.7,0.7-1.2c0-0.4-0.2-0.8-0.5-1.1s-1.1-0.6-2.1-1c-1-0.4-1.7-0.7-2.1-1
		s-0.7-0.6-0.9-0.9s-0.3-0.8-0.3-1.3c0-0.9,0.4-1.6,1.1-2.1c0.7-0.5,1.7-0.8,2.9-0.8c1.2,0,2.3,0.2,3.4,0.7l-0.6,1.3
		c-1.1-0.4-2-0.7-2.9-0.7c-0.8,0-1.3,0.1-1.7,0.4s-0.6,0.6-0.6,1c0,0.3,0.1,0.5,0.2,0.7s0.4,0.4,0.7,0.6c0.3,0.2,1,0.4,1.9,0.8
		c1.3,0.5,2.1,0.9,2.6,1.4C306.7,428.4,307,429,307,429.7z"/>
	<path class="st4" d="M314.1,432.9c-1.6,0-2.8-0.5-3.7-1.4c-0.9-1-1.4-2.3-1.4-4c0-1.7,0.4-3.1,1.3-4.1s2-1.5,3.4-1.5
		c1.3,0,2.4,0.4,3.2,1.3s1.2,2,1.2,3.5v1h-7.4c0,1.3,0.4,2.2,1,2.9c0.6,0.7,1.5,1,2.5,1c1.2,0,2.3-0.2,3.4-0.7v1.4
		c-0.6,0.2-1.1,0.4-1.6,0.5S314.8,432.9,314.1,432.9z M313.7,423.1c-0.9,0-1.5,0.3-2.1,0.8c-0.5,0.6-0.8,1.3-0.9,2.3h5.6
		c0-1-0.2-1.8-0.7-2.3S314.5,423.1,313.7,423.1z"/>
</g>
<g>
	<path class="st4" d="M193.4,93.7l-1.8-4.5h-5.7l-1.8,4.5h-1.7l5.6-14.3h1.4l5.6,14.3H193.4z M191.2,87.6l-1.7-4.4
		c-0.2-0.6-0.4-1.2-0.7-2.1c-0.1,0.6-0.3,1.3-0.6,2.1l-1.7,4.4H191.2z"/>
	<path class="st4" d="M201.9,93.9c-0.7,0-1.3-0.1-1.9-0.4s-1.1-0.7-1.5-1.2h-0.1c0.1,0.6,0.1,1.2,0.1,1.8v4.4h-1.6V83h1.3l0.2,1.5
		h0.1c0.4-0.6,0.9-1,1.5-1.3s1.2-0.4,1.9-0.4c1.4,0,2.5,0.5,3.3,1.5s1.2,2.3,1.2,4.1c0,1.8-0.4,3.1-1.2,4.1S203.3,93.9,201.9,93.9z
		 M201.6,84.1c-1.1,0-1.9,0.3-2.4,0.9s-0.7,1.6-0.8,2.9v0.4c0,1.5,0.3,2.6,0.8,3.2s1.3,1,2.4,1c0.9,0,1.6-0.4,2.2-1.1
		s0.8-1.8,0.8-3.1c0-1.3-0.3-2.4-0.8-3.1S202.6,84.1,201.6,84.1z"/>
	<path class="st4" d="M214.1,93.9c-0.7,0-1.3-0.1-1.9-0.4s-1.1-0.7-1.5-1.2h-0.1c0.1,0.6,0.1,1.2,0.1,1.8v4.4h-1.6V83h1.3l0.2,1.5
		h0.1c0.4-0.6,0.9-1,1.5-1.3s1.2-0.4,1.9-0.4c1.4,0,2.5,0.5,3.3,1.5s1.2,2.3,1.2,4.1c0,1.8-0.4,3.1-1.2,4.1S215.5,93.9,214.1,93.9z
		 M213.9,84.1c-1.1,0-1.9,0.3-2.4,0.9s-0.7,1.6-0.8,2.9v0.4c0,1.5,0.3,2.6,0.8,3.2s1.3,1,2.4,1c0.9,0,1.6-0.4,2.2-1.1
		s0.8-1.8,0.8-3.1c0-1.3-0.3-2.4-0.8-3.1S214.8,84.1,213.9,84.1z"/>
	<path class="st4" d="M223,93.7h-1.6V78.5h1.6V93.7z"/>
	<path class="st4" d="M226.3,80.1c0-0.4,0.1-0.6,0.3-0.8s0.4-0.3,0.7-0.3c0.3,0,0.5,0.1,0.7,0.3c0.2,0.2,0.3,0.4,0.3,0.8
		s-0.1,0.6-0.3,0.8c-0.2,0.2-0.4,0.3-0.7,0.3c-0.3,0-0.5-0.1-0.7-0.3S226.3,80.4,226.3,80.1z M228.1,93.7h-1.6V83h1.6V93.7z"/>
	<path class="st4" d="M235.8,93.9c-1.5,0-2.7-0.5-3.6-1.4s-1.3-2.3-1.3-4c0-1.8,0.4-3.2,1.3-4.2c0.9-1,2.1-1.5,3.7-1.5
		c0.5,0,1,0.1,1.5,0.2c0.5,0.1,0.9,0.2,1.2,0.4l-0.5,1.4c-0.4-0.1-0.7-0.3-1.2-0.4c-0.4-0.1-0.8-0.1-1.1-0.1c-2.2,0-3.3,1.4-3.3,4.2
		c0,1.3,0.3,2.3,0.8,3c0.5,0.7,1.3,1.1,2.4,1.1c0.9,0,1.8-0.2,2.7-0.6v1.4C237.8,93.7,236.9,93.9,235.8,93.9z"/>
	<path class="st4" d="M247.6,93.7l-0.3-1.5h-0.1c-0.5,0.7-1.1,1.1-1.6,1.4c-0.5,0.2-1.2,0.4-2,0.4c-1.1,0-1.9-0.3-2.5-0.8
		c-0.6-0.5-0.9-1.3-0.9-2.3c0-2.2,1.7-3.3,5.2-3.4l1.8-0.1v-0.7c0-0.8-0.2-1.5-0.5-1.9s-0.9-0.6-1.7-0.6c-0.9,0-1.9,0.3-3,0.8
		l-0.5-1.2c0.5-0.3,1.1-0.5,1.7-0.7c0.6-0.2,1.3-0.2,1.9-0.2c1.3,0,2.2,0.3,2.8,0.8s0.9,1.5,0.9,2.7v7.3H247.6z M244,92.5
		c1,0,1.8-0.3,2.4-0.8s0.9-1.3,0.9-2.3v-1l-1.6,0.1c-1.3,0-2.2,0.2-2.8,0.6c-0.6,0.4-0.9,0.9-0.9,1.7c0,0.6,0.2,1,0.5,1.3
		C242.8,92.4,243.3,92.5,244,92.5z"/>
	<path class="st4" d="M255.6,92.5c0.3,0,0.6,0,0.8-0.1c0.3,0,0.5-0.1,0.6-0.1v1.2c-0.2,0.1-0.4,0.2-0.8,0.2
		c-0.3,0.1-0.6,0.1-0.9,0.1c-2.1,0-3.1-1.1-3.1-3.3v-6.4h-1.5v-0.8l1.5-0.7l0.7-2.3h0.9V83h3.1v1.3h-3.1v6.3c0,0.6,0.2,1.1,0.5,1.5
		C254.7,92.4,255.1,92.5,255.6,92.5z"/>
	<path class="st4" d="M259.1,80.1c0-0.4,0.1-0.6,0.3-0.8c0.2-0.2,0.4-0.3,0.7-0.3c0.3,0,0.5,0.1,0.7,0.3c0.2,0.2,0.3,0.4,0.3,0.8
		s-0.1,0.6-0.3,0.8c-0.2,0.2-0.4,0.3-0.7,0.3c-0.3,0-0.5-0.1-0.7-0.3C259.2,80.7,259.1,80.4,259.1,80.1z M260.8,93.7h-1.6V83h1.6
		V93.7z"/>
	<path class="st4" d="M273.5,88.3c0,1.7-0.4,3.1-1.3,4.1s-2.1,1.5-3.6,1.5c-1,0-1.8-0.2-2.5-0.7s-1.3-1.1-1.7-1.9
		c-0.4-0.8-0.6-1.8-0.6-2.9c0-1.7,0.4-3.1,1.3-4.1c0.9-1,2.1-1.5,3.6-1.5c1.5,0,2.7,0.5,3.6,1.5C273.1,85.3,273.5,86.6,273.5,88.3z
		 M265.4,88.3c0,1.4,0.3,2.4,0.8,3.1s1.4,1.1,2.4,1.1c1.1,0,1.9-0.4,2.4-1.1c0.6-0.7,0.8-1.8,0.8-3.1c0-1.4-0.3-2.4-0.8-3.1
		c-0.5-0.7-1.4-1.1-2.4-1.1c-1.1,0-1.9,0.3-2.4,1C265.6,85.9,265.4,86.9,265.4,88.3z"/>
	<path class="st4" d="M283.7,93.7v-6.9c0-0.9-0.2-1.5-0.6-2c-0.4-0.4-1-0.6-1.9-0.6c-1.1,0-1.9,0.3-2.5,0.9c-0.5,0.6-0.8,1.6-0.8,3
		v5.6h-1.6V83h1.3l0.3,1.5h0.1c0.3-0.5,0.8-0.9,1.4-1.2c0.6-0.3,1.3-0.4,2-0.4c1.3,0,2.3,0.3,2.9,0.9c0.7,0.6,1,1.6,1,3v7H283.7z"/>
	<path class="st4" d="M295.5,90.7c0,1-0.4,1.8-1.1,2.3s-1.8,0.8-3.1,0.8c-1.4,0-2.5-0.2-3.3-0.7v-1.5c0.5,0.3,1.1,0.5,1.7,0.6
		c0.6,0.1,1.2,0.2,1.7,0.2c0.8,0,1.5-0.1,2-0.4c0.5-0.3,0.7-0.7,0.7-1.2c0-0.4-0.2-0.8-0.5-1.1s-1.1-0.6-2.1-1c-1-0.4-1.7-0.7-2.1-1
		s-0.7-0.6-0.9-0.9s-0.3-0.8-0.3-1.3c0-0.9,0.4-1.6,1.1-2.1c0.7-0.5,1.7-0.8,2.9-0.8c1.2,0,2.3,0.2,3.4,0.7l-0.6,1.3
		c-1.1-0.4-2-0.7-2.9-0.7c-0.8,0-1.3,0.1-1.7,0.4s-0.6,0.6-0.6,1c0,0.3,0.1,0.5,0.2,0.7s0.4,0.4,0.7,0.6c0.3,0.2,1,0.4,1.9,0.8
		c1.3,0.5,2.1,0.9,2.6,1.4C295.3,89.4,295.5,90,295.5,90.7z"/>
</g>
<g>
	<path class="st4" d="M167.9,254c-1.6,0-2.8,0.5-3.7,1.6c-0.9,1-1.4,2.5-1.4,4.3c0,1.9,0.4,3.3,1.3,4.3s2.1,1.5,3.7,1.5
		c1,0,2.1-0.2,3.4-0.5v1.5c-1,0.4-2.2,0.6-3.7,0.6c-2.1,0-3.7-0.6-4.9-1.9s-1.7-3.1-1.7-5.4c0-1.5,0.3-2.8,0.8-3.9
		c0.6-1.1,1.3-2,2.4-2.6c1-0.6,2.3-0.9,3.7-0.9c1.5,0,2.8,0.3,3.9,0.8l-0.7,1.4C170.1,254.3,169,254,167.9,254z"/>
	<path class="st4" d="M175.8,267h-1.6v-15.2h1.6V267z"/>
	<path class="st4" d="M180.8,256.3v6.9c0,0.9,0.2,1.5,0.6,2s1,0.6,1.9,0.6c1.1,0,1.9-0.3,2.5-0.9s0.8-1.6,0.8-3v-5.6h1.6V267h-1.3
		l-0.2-1.4h-0.1c-0.3,0.5-0.8,0.9-1.4,1.2s-1.3,0.4-2,0.4c-1.3,0-2.3-0.3-2.9-0.9s-1-1.6-1-3v-7H180.8z"/>
	<path class="st4" d="M198.4,264.1c0,1-0.4,1.8-1.1,2.3s-1.8,0.8-3.1,0.8c-1.4,0-2.5-0.2-3.3-0.7V265c0.5,0.3,1.1,0.5,1.7,0.6
		s1.2,0.2,1.7,0.2c0.8,0,1.5-0.1,2-0.4s0.7-0.7,0.7-1.2c0-0.4-0.2-0.8-0.5-1.1s-1.1-0.6-2.1-1c-1-0.4-1.7-0.7-2.1-1
		s-0.7-0.6-0.9-0.9s-0.3-0.8-0.3-1.3c0-0.9,0.4-1.6,1.1-2.1c0.7-0.5,1.7-0.8,2.9-0.8c1.2,0,2.3,0.2,3.4,0.7l-0.6,1.3
		c-1.1-0.4-2-0.7-2.9-0.7c-0.8,0-1.3,0.1-1.7,0.4c-0.4,0.2-0.6,0.6-0.6,1c0,0.3,0.1,0.5,0.2,0.7c0.1,0.2,0.4,0.4,0.7,0.6
		s1,0.4,1.9,0.8c1.3,0.5,2.1,0.9,2.6,1.4S198.4,263.4,198.4,264.1z"/>
	<path class="st4" d="M204.5,265.9c0.3,0,0.6,0,0.8-0.1s0.5-0.1,0.6-0.1v1.2c-0.2,0.1-0.4,0.2-0.8,0.2s-0.6,0.1-0.9,0.1
		c-2.1,0-3.1-1.1-3.1-3.3v-6.4h-1.5v-0.8l1.5-0.7l0.7-2.3h0.9v2.5h3.1v1.3h-3.1v6.3c0,0.6,0.2,1.1,0.5,1.5S204,265.9,204.5,265.9z"
		/>
	<path class="st4" d="M209.7,256.3v6.9c0,0.9,0.2,1.5,0.6,2s1,0.6,1.9,0.6c1.1,0,1.9-0.3,2.5-0.9s0.8-1.6,0.8-3v-5.6h1.6V267h-1.3
		l-0.2-1.4h-0.1c-0.3,0.5-0.8,0.9-1.4,1.2s-1.3,0.4-2,0.4c-1.3,0-2.3-0.3-2.9-0.9s-1-1.6-1-3v-7H209.7z"/>
	<path class="st4" d="M225.3,256.1c0.5,0,0.9,0,1.3,0.1l-0.2,1.5c-0.4-0.1-0.8-0.1-1.2-0.1c-0.9,0-1.6,0.4-2.2,1.1s-0.9,1.6-0.9,2.6
		v5.7h-1.6v-10.7h1.3l0.2,2h0.1c0.4-0.7,0.9-1.2,1.4-1.6C224,256.3,224.6,256.1,225.3,256.1z"/>
	<path class="st4" d="M233.1,267.2c-1.6,0-2.8-0.5-3.7-1.4c-0.9-1-1.4-2.3-1.4-4c0-1.7,0.4-3.1,1.3-4.1s2-1.5,3.4-1.5
		c1.3,0,2.4,0.4,3.2,1.3c0.8,0.9,1.2,2,1.2,3.5v1h-7.4c0,1.3,0.4,2.2,1,2.9c0.6,0.7,1.5,1,2.5,1c1.2,0,2.3-0.2,3.4-0.7v1.4
		c-0.6,0.2-1.1,0.4-1.6,0.5C234.4,267.1,233.8,267.2,233.1,267.2z M232.7,257.5c-0.9,0-1.5,0.3-2.1,0.8c-0.5,0.6-0.8,1.3-0.9,2.3
		h5.6c0-1-0.2-1.8-0.7-2.3C234.2,257.7,233.5,257.5,232.7,257.5z"/>
	<path class="st4" d="M247.1,265.6L247.1,265.6c-0.8,1.1-2,1.6-3.4,1.6c-1.4,0-2.5-0.5-3.3-1.4c-0.8-1-1.2-2.3-1.2-4.1
		s0.4-3.1,1.2-4.1s1.9-1.5,3.3-1.5c1.5,0,2.6,0.5,3.3,1.6h0.1l-0.1-0.8l0-0.8v-4.4h1.6V267h-1.3L247.1,265.6z M243.8,265.8
		c1.1,0,1.9-0.3,2.4-0.9s0.7-1.6,0.7-2.9v-0.3c0-1.5-0.3-2.6-0.8-3.2c-0.5-0.6-1.3-1-2.4-1c-1,0-1.7,0.4-2.2,1.1
		c-0.5,0.7-0.8,1.8-0.8,3.1c0,1.4,0.3,2.4,0.8,3.1C242.1,265.5,242.9,265.8,243.8,265.8z"/>
	<path class="st4" d="M265.4,267h-8v-14.3h8v1.5h-6.3v4.6h5.9v1.5h-5.9v5.3h6.3V267z"/>
	<path class="st4" d="M275.7,267v-6.9c0-0.9-0.2-1.5-0.6-2c-0.4-0.4-1-0.6-1.9-0.6c-1.1,0-1.9,0.3-2.5,0.9c-0.5,0.6-0.8,1.6-0.8,3
		v5.6h-1.6v-10.7h1.3l0.3,1.5h0.1c0.3-0.5,0.8-0.9,1.4-1.2c0.6-0.3,1.3-0.4,2-0.4c1.3,0,2.3,0.3,2.9,0.9c0.7,0.6,1,1.6,1,3v7H275.7z
		"/>
	<path class="st4" d="M289.4,256.3v1l-2,0.2c0.2,0.2,0.3,0.5,0.5,0.9c0.1,0.4,0.2,0.8,0.2,1.2c0,1-0.4,1.9-1.1,2.5
		c-0.7,0.6-1.7,0.9-2.9,0.9c-0.3,0-0.6,0-0.9-0.1c-0.7,0.4-1,0.8-1,1.4c0,0.3,0.1,0.5,0.4,0.6c0.2,0.1,0.7,0.2,1.2,0.2h1.9
		c1.2,0,2,0.2,2.7,0.7c0.6,0.5,0.9,1.2,0.9,2.1c0,1.2-0.5,2.1-1.4,2.7c-1,0.6-2.3,0.9-4.2,0.9c-1.4,0-2.5-0.3-3.2-0.8
		c-0.8-0.5-1.1-1.3-1.1-2.2c0-0.7,0.2-1.2,0.6-1.7c0.4-0.5,1-0.8,1.8-1c-0.3-0.1-0.5-0.3-0.7-0.6s-0.3-0.6-0.3-0.9
		c0-0.4,0.1-0.7,0.3-1c0.2-0.3,0.5-0.6,1-0.8c-0.6-0.2-1-0.6-1.4-1.2c-0.3-0.5-0.5-1.2-0.5-1.9c0-1.2,0.4-2.1,1.1-2.7s1.7-1,3-1
		c0.6,0,1.1,0.1,1.5,0.2H289.4z M280.9,268.8c0,0.6,0.2,1,0.7,1.3s1.2,0.4,2.1,0.4c1.4,0,2.4-0.2,3-0.6s1-1,1-1.7
		c0-0.6-0.2-1-0.5-1.2c-0.4-0.2-1-0.3-2-0.3h-1.9c-0.7,0-1.3,0.2-1.7,0.5S280.9,268.1,280.9,268.8z M281.7,259.7
		c0,0.7,0.2,1.3,0.6,1.7c0.4,0.4,1,0.6,1.8,0.6c1.6,0,2.4-0.8,2.4-2.3c0-1.6-0.8-2.4-2.4-2.4c-0.8,0-1.3,0.2-1.8,0.6
		S281.7,258.9,281.7,259.7z"/>
	<path class="st4" d="M291.5,253.4c0-0.4,0.1-0.6,0.3-0.8c0.2-0.2,0.4-0.3,0.7-0.3c0.3,0,0.5,0.1,0.7,0.3c0.2,0.2,0.3,0.4,0.3,0.8
		c0,0.4-0.1,0.6-0.3,0.8c-0.2,0.2-0.4,0.3-0.7,0.3c-0.3,0-0.5-0.1-0.7-0.3C291.6,254,291.5,253.8,291.5,253.4z M293.2,267h-1.6
		v-10.7h1.6V267z"/>
	<path class="st4" d="M304,267v-6.9c0-0.9-0.2-1.5-0.6-2c-0.4-0.4-1-0.6-1.9-0.6c-1.1,0-1.9,0.3-2.5,0.9c-0.5,0.6-0.8,1.6-0.8,3v5.6
		h-1.6v-10.7h1.3l0.3,1.5h0.1c0.3-0.5,0.8-0.9,1.4-1.2c0.6-0.3,1.3-0.4,2-0.4c1.3,0,2.3,0.3,2.9,0.9c0.7,0.6,1,1.6,1,3v7H304z"/>
	<path class="st4" d="M313.5,267.2c-1.6,0-2.8-0.5-3.7-1.4c-0.9-1-1.4-2.3-1.4-4c0-1.7,0.4-3.1,1.3-4.1s2-1.5,3.4-1.5
		c1.3,0,2.4,0.4,3.2,1.3c0.8,0.9,1.2,2,1.2,3.5v1H310c0,1.3,0.4,2.2,1,2.9c0.6,0.7,1.5,1,2.5,1c1.2,0,2.3-0.2,3.4-0.7v1.4
		c-0.6,0.2-1.1,0.4-1.6,0.5S314.2,267.2,313.5,267.2z M313,257.5c-0.9,0-1.5,0.3-2.1,0.8c-0.5,0.6-0.8,1.3-0.9,2.3h5.6
		c0-1-0.2-1.8-0.7-2.3C314.5,257.7,313.9,257.5,313,257.5z"/>
</g>
<g>
	<path class="st10" d="M196.3,316.7l0.1,20c0,4.3,19.3,10.8,43.1,10.7c23.8-0.1,43-6.7,43-11l-0.1-20L196.3,316.7z"/>
	<path class="st11" d="M196.3,316.7c0-4.3,19.3-7.8,43-7.9c23.8-0.1,43.1,3.3,43.1,7.6s-19.3,7.8-43,7.9
		C215.6,324.4,196.3,321,196.3,316.7"/>
	<path class="st10" d="M239.5,353.4c-23.8,0.1-43.1-3.3-43.1-7.6l0.1,20c0,4.3,19.3,10.8,43.1,10.7c23.8-0.1,43-6.7,43-11l-0.1-20
		C282.5,349.8,263.3,353.3,239.5,353.4"/>
	<path class="st10" d="M239.6,382.5c-23.8,0.1-43.1-3.3-43.1-7.6l0.1,20c0,4.3,19.3,10.8,43.1,10.7s43-6.7,43-11l-0.1-20
		C282.6,378.9,263.4,382.4,239.6,382.5"/>
</g>
<g>
	<g>
		<g>
			<g>
				<g>
					<g>
						<g>
							<defs>
								<circle id="SVGID_12_" cx="221.2" cy="50.7" r="15.1"/>
							</defs>
							<clipPath id="SVGID_43_">
								<use xlink:href="#SVGID_12_"  style="overflow:visible;"/>
							</clipPath>
							<circle class="st12" cx="221.2" cy="50.7" r="15.1"/>
						</g>
					</g>
					<g>
						<g>
							<defs>
								<circle id="SVGID_11_" cx="221.2" cy="50.7" r="15.1"/>
							</defs>
							<clipPath id="SVGID_44_">
								<use xlink:href="#SVGID_11_"  style="overflow:visible;"/>
							</clipPath>
							<circle class="st13" cx="221.2" cy="50.7" r="14.9"/>
						</g>
					</g>
					<g>
						<path id="SVGID_10_" class="st2" d="M221.2,35.6c-8.3,0-15.1,6.8-15.1,15.1s6.8,15.1,15.1,15.1s15.1-6.8,15.1-15.1
							S229.6,35.6,221.2,35.6z"/>
					</g>
				</g>
			</g>
			<g>
				<path class="st14" d="M224.9,57.1l-1.3-3.6h-4.9l-1.3,3.6h-2.2l4.8-12.9h2.3l4.8,12.9H224.9z M223.1,51.7l-1.2-3.5
					c-0.1-0.2-0.2-0.6-0.4-1.1s-0.3-0.9-0.3-1.1c-0.2,0.7-0.4,1.5-0.7,2.4l-1.2,3.3H223.1z"/>
			</g>
		</g>
		<g>
			<g>
				<g>
					<g>
						<g>
							<defs>
								<circle id="SVGID_15_" cx="257.7" cy="50.7" r="15.1"/>
							</defs>
							<clipPath id="SVGID_45_">
								<use xlink:href="#SVGID_15_"  style="overflow:visible;"/>
							</clipPath>
							<circle class="st15" cx="257.7" cy="50.7" r="15.1"/>
						</g>
					</g>
					<g>
						<g>
							<defs>
								<circle id="SVGID_14_" cx="257.7" cy="50.7" r="15.1"/>
							</defs>
							<clipPath id="SVGID_46_">
								<use xlink:href="#SVGID_14_"  style="overflow:visible;"/>
							</clipPath>
							<circle class="st16" cx="257.7" cy="50.7" r="14.9"/>
						</g>
					</g>
					<g>
						<path id="SVGID_13_" class="st2" d="M257.7,35.6c-8.3,0-15.1,6.8-15.1,15.1s6.8,15.1,15.1,15.1c8.3,0,15.1-6.8,15.1-15.1
							S266.1,35.6,257.7,35.6z"/>
					</g>
				</g>
			</g>
			<g>
				<path class="st14" d="M261.4,57.1l-1.3-3.6h-4.9l-1.3,3.6h-2.2l4.8-12.9h2.3l4.8,12.9H261.4z M259.6,51.7l-1.2-3.5
					c-0.1-0.2-0.2-0.6-0.4-1.1s-0.3-0.9-0.3-1.1c-0.2,0.7-0.4,1.5-0.7,2.4l-1.2,3.3H259.6z"/>
			</g>
		</g>
	</g>
	<g>
		<g>
			<g>
				<g>
					<g>
						<defs>
							<circle id="SVGID_18_" cx="239.5" cy="18.5" r="15.1"/>
						</defs>
						<clipPath id="SVGID_47_">
							<use xlink:href="#SVGID_18_"  style="overflow:visible;"/>
						</clipPath>
						<circle class="st17" cx="239.5" cy="18.5" r="15.1"/>
					</g>
				</g>
				<g>
					<g>
						<defs>
							<circle id="SVGID_17_" cx="239.5" cy="18.5" r="15.1"/>
						</defs>
						<clipPath id="SVGID_48_">
							<use xlink:href="#SVGID_17_"  style="overflow:visible;"/>
						</clipPath>
						<circle class="st18" cx="239.5" cy="18.5" r="14.9"/>
					</g>
				</g>
				<g>
					<path id="SVGID_16_" class="st2" d="M239.5,3.4c-8.3,0-15.1,6.8-15.1,15.1s6.8,15.1,15.1,15.1s15.1-6.8,15.1-15.1
						S247.8,3.4,239.5,3.4z"/>
				</g>
			</g>
		</g>
		<g>
			<path class="st14" d="M243.2,25l-1.3-3.6H237l-1.3,3.6h-2.2l4.8-12.9h2.3l4.8,12.9H243.2z M241.4,19.6l-1.2-3.5
				c-0.1-0.2-0.2-0.6-0.4-1.1s-0.3-0.9-0.3-1.1c-0.2,0.7-0.4,1.5-0.7,2.4l-1.2,3.3H241.4z"/>
		</g>
	</g>
</g>
<g>
	<g>
		<g>
			<g>
				<g>
					<g>
						<g>
							<defs>
								<circle id="SVGID_27_" cx="393" cy="50.7" r="15.1"/>
							</defs>
							<clipPath id="SVGID_49_">
								<use xlink:href="#SVGID_27_"  style="overflow:visible;"/>
							</clipPath>
							<circle class="st19" cx="393" cy="50.7" r="15.1"/>
						</g>
					</g>
					<g>
						<g>
							<defs>
								<circle id="SVGID_26_" cx="393" cy="50.7" r="15.1"/>
							</defs>
							<clipPath id="SVGID_50_">
								<use xlink:href="#SVGID_26_"  style="overflow:visible;"/>
							</clipPath>
							<circle class="st20" cx="393" cy="50.7" r="14.9"/>
						</g>
					</g>
					<g>
						<path id="SVGID_25_" class="st2" d="M393,35.6c-8.3,0-15.1,6.8-15.1,15.1s6.8,15.1,15.1,15.1s15.1-6.8,15.1-15.1
							S401.3,35.6,393,35.6z"/>
					</g>
				</g>
			</g>
			<g>
				<path class="st14" d="M396.7,57.1l-1.3-3.6h-4.9l-1.3,3.6H387l4.8-12.9h2.3l4.8,12.9H396.7z M394.9,51.7l-1.2-3.5
					c-0.1-0.2-0.2-0.6-0.4-1.1S393,46.3,393,46c-0.2,0.7-0.4,1.5-0.7,2.4l-1.2,3.3H394.9z"/>
			</g>
		</g>
		<g>
			<g>
				<g>
					<g>
						<g>
							<defs>
								<circle id="SVGID_24_" cx="429.5" cy="50.7" r="15.1"/>
							</defs>
							<clipPath id="SVGID_51_">
								<use xlink:href="#SVGID_24_"  style="overflow:visible;"/>
							</clipPath>
							<circle class="st21" cx="429.5" cy="50.7" r="15.1"/>
						</g>
					</g>
					<g>
						<g>
							<defs>
								<circle id="SVGID_23_" cx="429.5" cy="50.7" r="15.1"/>
							</defs>
							<clipPath id="SVGID_52_">
								<use xlink:href="#SVGID_23_"  style="overflow:visible;"/>
							</clipPath>
							<circle class="st22" cx="429.5" cy="50.7" r="14.9"/>
						</g>
					</g>
					<g>
						<path id="SVGID_22_" class="st2" d="M429.5,35.6c-8.3,0-15.1,6.8-15.1,15.1s6.8,15.1,15.1,15.1s15.1-6.8,15.1-15.1
							S437.8,35.6,429.5,35.6z"/>
					</g>
				</g>
			</g>
			<g>
				<path class="st14" d="M433.2,57.1l-1.3-3.6H427l-1.3,3.6h-2.2l4.8-12.9h2.3l4.8,12.9H433.2z M431.4,51.7l-1.2-3.5
					c-0.1-0.2-0.2-0.6-0.4-1.1s-0.3-0.9-0.3-1.1c-0.2,0.7-0.4,1.5-0.7,2.4l-1.2,3.3H431.4z"/>
			</g>
		</g>
	</g>
	<g>
		<g>
			<g>
				<g>
					<g>
						<defs>
							<circle id="SVGID_21_" cx="411.2" cy="18.5" r="15.1"/>
						</defs>
						<clipPath id="SVGID_53_">
							<use xlink:href="#SVGID_21_"  style="overflow:visible;"/>
						</clipPath>
						<circle class="st23" cx="411.2" cy="18.5" r="15.1"/>
					</g>
				</g>
				<g>
					<g>
						<defs>
							<circle id="SVGID_20_" cx="411.2" cy="18.5" r="15.1"/>
						</defs>
						<clipPath id="SVGID_54_">
							<use xlink:href="#SVGID_20_"  style="overflow:visible;"/>
						</clipPath>
						<circle class="st24" cx="411.2" cy="18.5" r="14.9"/>
					</g>
				</g>
				<g>
					<path id="SVGID_19_" class="st2" d="M411.2,3.4c-8.3,0-15.1,6.8-15.1,15.1s6.8,15.1,15.1,15.1s15.1-6.8,15.1-15.1
						S419.6,3.4,411.2,3.4z"/>
				</g>
			</g>
		</g>
		<g>
			<path class="st14" d="M414.9,25l-1.3-3.6h-4.9l-1.3,3.6h-2.2l4.8-12.9h2.3l4.8,12.9H414.9z M413.1,19.6l-1.2-3.5
				c-0.1-0.2-0.2-0.6-0.4-1.1s-0.3-0.9-0.3-1.1c-0.2,0.7-0.4,1.5-0.7,2.4l-1.2,3.3H413.1z"/>
		</g>
	</g>
</g>
<g>
	<g>
		<g>
			<g>
				<g>
					<g>
						<g>
							<defs>
								<circle id="SVGID_36_" cx="49.5" cy="50.7" r="15.1"/>
							</defs>
							<clipPath id="SVGID_55_">
								<use xlink:href="#SVGID_36_"  style="overflow:visible;"/>
							</clipPath>
							<circle class="st25" cx="49.5" cy="50.7" r="15.1"/>
						</g>
					</g>
					<g>
						<g>
							<defs>
								<circle id="SVGID_35_" cx="49.5" cy="50.7" r="15.1"/>
							</defs>
							<clipPath id="SVGID_56_">
								<use xlink:href="#SVGID_35_"  style="overflow:visible;"/>
							</clipPath>
							<circle class="st26" cx="49.5" cy="50.7" r="14.9"/>
						</g>
					</g>
					<g>
						<path id="SVGID_34_" class="st2" d="M49.5,35.6c-8.3,0-15.1,6.8-15.1,15.1s6.8,15.1,15.1,15.1S64.6,59,64.6,50.7
							S57.8,35.6,49.5,35.6z"/>
					</g>
				</g>
			</g>
			<g>
				<path class="st14" d="M53.2,57.1l-1.3-3.6H47l-1.3,3.6h-2.2l4.8-12.9h2.3l4.8,12.9H53.2z M51.4,51.7l-1.2-3.5
					c-0.1-0.2-0.2-0.6-0.4-1.1s-0.3-0.9-0.3-1.1c-0.2,0.7-0.4,1.5-0.7,2.4l-1.2,3.3H51.4z"/>
			</g>
		</g>
		<g>
			<g>
				<g>
					<g>
						<g>
							<defs>
								<circle id="SVGID_33_" cx="86" cy="50.7" r="15.1"/>
							</defs>
							<clipPath id="SVGID_57_">
								<use xlink:href="#SVGID_33_"  style="overflow:visible;"/>
							</clipPath>
							<circle class="st27" cx="86" cy="50.7" r="15.1"/>
						</g>
					</g>
					<g>
						<g>
							<defs>
								<circle id="SVGID_32_" cx="86" cy="50.7" r="15.1"/>
							</defs>
							<clipPath id="SVGID_58_">
								<use xlink:href="#SVGID_32_"  style="overflow:visible;"/>
							</clipPath>
							<circle class="st28" cx="86" cy="50.7" r="14.9"/>
						</g>
					</g>
					<g>
						<path id="SVGID_31_" class="st2" d="M86,35.6c-8.3,0-15.1,6.8-15.1,15.1S77.7,65.7,86,65.7s15.1-6.8,15.1-15.1
							S94.3,35.6,86,35.6z"/>
					</g>
				</g>
			</g>
			<g>
				<path class="st14" d="M89.7,57.1l-1.3-3.6h-4.9l-1.3,3.6H80l4.8-12.9h2.3l4.8,12.9H89.7z M87.9,51.7l-1.2-3.5
					c-0.1-0.2-0.2-0.6-0.4-1.1S86,46.3,86,46c-0.2,0.7-0.4,1.5-0.7,2.4l-1.2,3.3H87.9z"/>
			</g>
		</g>
	</g>
	<g>
		<g>
			<g>
				<g>
					<g>
						<defs>
							<circle id="SVGID_30_" cx="67.7" cy="18.5" r="15.1"/>
						</defs>
						<clipPath id="SVGID_59_">
							<use xlink:href="#SVGID_30_"  style="overflow:visible;"/>
						</clipPath>
						<circle class="st29" cx="67.7" cy="18.5" r="15.1"/>
					</g>
				</g>
				<g>
					<g>
						<defs>
							<circle id="SVGID_29_" cx="67.7" cy="18.5" r="15.1"/>
						</defs>
						<clipPath id="SVGID_60_">
							<use xlink:href="#SVGID_29_"  style="overflow:visible;"/>
						</clipPath>
						<circle class="st30" cx="67.7" cy="18.5" r="14.9"/>
					</g>
				</g>
				<g>
					<path id="SVGID_28_" class="st2" d="M67.7,3.4c-8.3,0-15.1,6.8-15.1,15.1s6.8,15.1,15.1,15.1c8.3,0,15.1-6.8,15.1-15.1
						S76.1,3.4,67.7,3.4z"/>
				</g>
			</g>
		</g>
		<g>
			<path class="st14" d="M71.5,25l-1.3-3.6h-4.9L64,25h-2.2l4.8-12.9h2.3L73.7,25H71.5z M69.6,19.6l-1.2-3.5
				c-0.1-0.2-0.2-0.6-0.4-1.1s-0.3-0.9-0.3-1.1c-0.2,0.7-0.4,1.5-0.7,2.4l-1.2,3.3H69.6z"/>
		</g>
	</g>
</g>
</svg>
