<?xml version="1.0" encoding="utf-8"?>
<!-- Generator: Adobe Illustrator 22.0.0, SVG Export Plug-In . SVG Version: 6.00 Build 0)  -->
<svg version="1.1" id="Ebene_1" xmlns="http://www.w3.org/2000/svg" xmlns:xlink="http://www.w3.org/1999/xlink" x="0px" y="0px"
	 viewBox="0 0 208 387" style="enable-background:new 0 0 208 387;" xml:space="preserve">
<style type="text/css">
	.st0{fill:#FFFFFF;}
	.st1{fill:#00A8FF;}
	.st2{fill:none;stroke:#00A8FF;stroke-width:2;stroke-linecap:round;stroke-miterlimit:10;}
	.st3{fill:#B51F29;}
	.st4{fill:none;stroke:#C5153C;stroke-miterlimit:10;}
</style>
<g>
	<path class="st0" d="M53.5,258.7v-30.8c0-90.4,16.1-131.8,48.3-214.3l1.6-4.2l1.6,4.2c32.2,82.5,48.3,123.9,48.3,214.3v30.8H53.5z"
		/>
	<g>
		<path class="st1" d="M103.4,13l0.4,1.1c32.1,82.4,48.2,123.7,48.2,213.8v29.6H54.8v-29.6c0-90.1,16.1-131.5,48.2-213.8L103.4,13
			 M103.4,6L103.4,6C69.6,92.9,52.2,134.7,52.2,227.9V260h102.4v-32.1C154.6,134.7,137.2,92.9,103.4,6L103.4,6L103.4,6z"/>
	</g>
</g>
<path class="st2" d="M147.6,146.8c21.8,68.9,51.5,67,51.5,103.7c0,7.6-0.6,8.2-0.6,8.2h-45.5"/>
<path class="st2" d="M59.4,146.8C37.7,215.8,8,213.9,8,250.5c0,7.6,0.6,8.2,0.6,8.2h45.5"/>
<rect x="19" y="258.7" class="st2" width="28.6" height="7.2"/>
<rect x="76.5" y="258.7" class="st2" width="53.9" height="7.2"/>
<rect x="23.2" y="266.3" class="st2" width="20.2" height="7.2"/>
<rect x="159" y="258.7" class="st2" width="28.6" height="7.2"/>
<rect x="163.2" y="266.3" class="st2" width="20.2" height="7.2"/>
<g>
	<path class="st3" d="M100.5,180.7c-2.1,2.2-5.7,2.3-7.9,0.1c-2.2-2.1-2.2-5.7-0.1-7.9c2.1-2.2,5.7-2.3,7.9-0.1
		C102.6,175,102.7,178.5,100.5,180.7z"/>
	<path class="st3" d="M90.7,169.1l1.6,1.1l-0.1,0.1c0.8-0.5,1.6-0.9,2.5-1.1l0,0l0.3-2.4l2.7,0l0.4,2.3l-0.1,0
		c0.9,0.2,1.8,0.5,2.6,1l1.9-1.4l2,1.9l-1.4,1.9l-0.1,0c0.5,0.8,0.9,1.6,1.1,2.5v0l2.4,0.3l0,2.7l-2.3,0.4l0-0.1
		c-0.2,0.9-0.5,1.8-1,2.6l1.3,1.6h10.9c1,0,1.7-0.8,1.7-1.7v-13.6c-0.4,0.4-0.8,0.8-1.3,1.1l0,0l0.6,2.3l-2.6,1.1l-1.2-2.1l0.1,0
		c-0.9,0.2-1.9,0.2-2.8,0l-1.2,2.1l-2.6-1.1l0.6-2.3l0.1,0c-0.8-0.5-1.4-1.2-1.9-2l0,0l-2.3,0.6l-1.1-2.6l2.1-1.2l0,0.1
		c-0.2-0.9-0.2-1.9,0-2.8l-2.1-1.2l1.1-2.6l2.3,0.6l0,0.1c0.3-0.5,0.7-0.9,1.1-1.3H92.5c-1,0-1.7,0.8-1.7,1.7"/>
	<path class="st3" d="M116.5,164.1c-1.2,2.9-4.5,4.3-7.4,3.1c-2.9-1.2-4.3-4.5-3.1-7.4c1.2-2.9,4.5-4.3,7.4-3.1
		C116.3,157.9,117.7,161.2,116.5,164.1z"/>
</g>
<line class="st2" x1="79.3" y1="76.5" x2="127.7" y2="76.5"/>
<path class="st4" d="M39.2,278.2c-1.9,0.3-3.8,0.4-5.8,0.4c-2,0-4-0.2-5.9-0.5c-0.1,0-0.1,0.1-0.2,0.1c-2.5,2-18.1,27.3-1.7,55.3
	c0,0-4.9-12.9,4.9-23.8c-1.8,11.2,2.9,18.4,2.9,18.4s2.9-3,4.6-12.2c4.2,5.4,2.9,17.7,2.9,17.7s15.8-35.3-1.3-55.2
	C39.4,278.3,39.3,278.3,39.2,278.2z"/>
<path class="st4" d="M88.7,271.3c-8.8,15.3-24.6,42.8-0.1,108.2c0,0-8.6-25.2,8.6-46.4c-3.2,21.8,5,35.8,5,35.8s5.1-5.9,8-23.8
	c7.4,10.5,5,34.5,5,34.5s33.7-69.5,3.7-108.5C118.8,271.1,88.8,271.2,88.7,271.3z"/>
<path class="st4" d="M179.7,278.2c-1.9,0.3-3.8,0.4-5.8,0.4c-2,0-4-0.2-5.9-0.5c-0.1,0-0.1,0.1-0.2,0.1c-2.5,2-18.1,27.3-1.7,55.3
	c0,0-4.9-12.9,4.9-23.8c-1.8,11.2,2.9,18.4,2.9,18.4s2.9-3,4.6-12.2c4.2,5.4,2.9,17.7,2.9,17.7s15.8-35.3-1.3-55.2
	C179.9,278.3,179.8,278.3,179.7,278.2z"/>
</svg>
