<?xml version="1.0" encoding="utf-8"?>
<!-- Generator: Adobe Illustrator 22.0.0, SVG Export Plug-In . SVG Version: 6.00 Build 0)  -->
<svg version="1.1" id="Ebene_1" xmlns="http://www.w3.org/2000/svg" xmlns:xlink="http://www.w3.org/1999/xlink" x="0px" y="0px"
	 viewBox="0 0 371.7 333" style="enable-background:new 0 0 371.7 333;" xml:space="preserve">
<style type="text/css">
	.st0{fill:none;stroke:#999999;stroke-miterlimit:10;stroke-dasharray:5,5;}
	.st1{fill:#999999;}
	.st2{fill:none;stroke:#00A8FF;stroke-width:2;stroke-miterlimit:10;}
	.st3{fill:#FFFFFF;}
	.st4{clip-path:url(#SVGID_8_);fill:#FFFFFF;stroke:#999999;stroke-miterlimit:10;}
	.st5{clip-path:url(#SVGID_10_);fill:#FFFFFF;stroke:#999999;stroke-miterlimit:10;}
	.st6{fill:#FFFFFF;stroke:#999999;stroke-width:2;stroke-miterlimit:10;}
	.st7{fill:none;stroke:#00A8FF;stroke-width:3;stroke-miterlimit:10;}
	.st8{fill:#333333;}
	.st9{clip-path:url(#SVGID_12_);fill:#FFFFFF;stroke:#999999;stroke-miterlimit:10;}
	.st10{clip-path:url(#SVGID_14_);fill:#FFFFFF;stroke:#999999;stroke-miterlimit:10;}
	.st11{enable-background:new    ;}
	.st12{fill:#FFFFFF;stroke:#00A8FF;stroke-width:2;stroke-miterlimit:10;}
</style>
<g>
	<g>
		<line class="st0" x1="78.6" y1="219.8" x2="78.6" y2="109.7"/>
		<g>
			<polygon class="st1" points="83.6,218.4 78.6,227 73.6,218.4 			"/>
		</g>
	</g>
</g>
<g>
	<g>
		<line class="st0" x1="285" y1="209.8" x2="285" y2="109.7"/>
		<g>
			<polygon class="st1" points="290,208.4 285,217 280,208.4 			"/>
		</g>
	</g>
</g>
<g>
	<g>
		<line class="st0" x1="98.6" y1="227" x2="98.6" y2="116.9"/>
		<g>
			<polygon class="st1" points="103.6,118.3 98.6,109.7 93.6,118.3 			"/>
		</g>
	</g>
</g>
<g>
	<g>
		<line class="st0" x1="261.7" y1="212.6" x2="129.6" y2="109.7"/>
		<g>
			<polygon class="st1" points="263.7,207.8 267.4,217 257.5,215.6 			"/>
		</g>
	</g>
</g>
<path class="st2" d="M356.6,109.7h-342c-4.2,0-7.4-4.4-7.4-10.3V17c0-5.8,3.2-10.3,7.4-10.3h342c4.2,0,7.4,4.4,7.4,10.3v82.8
	C364,105.3,360.8,109.7,356.6,109.7z"/>
<g>
	<g>
		<g>
			<g>
				<g>
					<path id="SVGID_3_" class="st3" d="M87.1,11.9c-25.4,0-46,20.6-46,46s20.6,46,46,46s46-20.6,46-46S112.5,11.9,87.1,11.9z"/>
				</g>
				<g>
					<g>
						<g>
							<defs>
								<circle id="SVGID_7_" cx="87.1" cy="57.9" r="46"/>
							</defs>
							<clipPath id="SVGID_8_">
								<use xlink:href="#SVGID_7_"  style="overflow:visible;"/>
							</clipPath>
							<circle class="st4" cx="87.1" cy="57.9" r="46"/>
						</g>
					</g>
				</g>
			</g>
		</g>
		<g>
			<g>
				<g>
					<path id="SVGID_2_" class="st3" d="M87.1,11.9c-25.4,0-46,20.6-46,46s20.6,46,46,46s46-20.6,46-46S112.5,11.9,87.1,11.9z"/>
				</g>
				<g>
					<g>
						<g>
							<defs>
								<circle id="SVGID_9_" cx="87.1" cy="57.9" r="46"/>
							</defs>
							<clipPath id="SVGID_10_">
								<use xlink:href="#SVGID_9_"  style="overflow:visible;"/>
							</clipPath>
							<circle class="st5" cx="87.1" cy="57.9" r="45.5"/>
						</g>
					</g>
				</g>
			</g>
		</g>
		<g>
			<path id="SVGID_1_" class="st6" d="M87.1,11.9c-25.4,0-46,20.6-46,46s20.6,46,46,46s46-20.6,46-46S112.5,11.9,87.1,11.9z"/>
		</g>
	</g>
	<path class="st7" d="M105.8,41.7c-0.5-1.7-2.1-3-3.9-3H72.4c-1.9,0-3.5,1.3-3.9,3c-0.1,0.4-0.7,2.6-1.5,5.2
		c-2,6.8-1.7,14.1,0.8,20.8l2.4,6.2c0.6,1.8,2.6,3.3,4.5,3.3h24.8c1.9,0,3.9-1.5,4.5-3.3l2.4-6.4c2.5-6.6,2.8-13.8,0.9-20.6
		C106.5,44.3,105.9,42,105.8,41.7z"/>
	<g>
		<g>
			<rect x="83.6" y="46.6" class="st8" width="6.9" height="6.9"/>
		</g>
		<g>
			<path class="st8" d="M87.1,63.6l-4.2-4.2l4.2-4.2l4.2,4.2L87.1,63.6z M83.7,59.4l3.3,3.3l3.3-3.3L87,56.1L83.7,59.4z"/>
		</g>
		<g>
			<g>
				<rect x="91.9" y="62.4" class="st8" width="6.9" height="6.9"/>
			</g>
			<g>
				<rect x="75.3" y="62.4" class="st8" width="6.9" height="6.9"/>
			</g>
		</g>
		<g>
			<path class="st8" d="M78.8,62.7c-0.2,0-0.3-0.2-0.3-0.3v-3c0-0.2,0.2-0.3,0.3-0.3s0.3,0.2,0.3,0.3v3C79,62.5,79,62.7,78.8,62.7z"
				/>
		</g>
		<g>
			<path class="st8" d="M83.2,59.7h-4.4c-0.2,0-0.3-0.2-0.3-0.3c0-0.2,0.2-0.3,0.3-0.3h4.4c0.2,0,0.3,0.2,0.3,0.3
				S83.4,59.7,83.2,59.7z"/>
		</g>
		<g>
			<path class="st8" d="M95.4,59.7H91c-0.2,0-0.3-0.2-0.3-0.3c0-0.2,0.2-0.3,0.3-0.3h4.4c0.2,0,0.3,0.2,0.3,0.3S95.5,59.7,95.4,59.7
				z"/>
		</g>
		<g>
			<path class="st8" d="M95.4,62.7c-0.2,0-0.3-0.2-0.3-0.3v-3c0-0.2,0.2-0.3,0.3-0.3c0.2,0,0.3,0.2,0.3,0.3v3
				C95.6,62.5,95.5,62.7,95.4,62.7z"/>
		</g>
		<g>
			<path class="st8" d="M87.1,56c-0.2,0-0.3-0.2-0.3-0.3v-2.2c0-0.2,0.2-0.3,0.3-0.3c0.2,0,0.3,0.2,0.3,0.3v2.2
				C87.4,55.9,87.2,56,87.1,56z"/>
		</g>
	</g>
</g>
<g>
	<g>
		<g>
			<g>
				<g>
					<g>
						<path id="SVGID_6_" class="st3" d="M284.1,11.9c-25.4,0-46,20.6-46,46s20.6,46,46,46s46-20.6,46-46S309.5,11.9,284.1,11.9z"/>
					</g>
					<g>
						<g>
							<g>
								<defs>
									<circle id="SVGID_11_" cx="284.1" cy="57.9" r="46"/>
								</defs>
								<clipPath id="SVGID_12_">
									<use xlink:href="#SVGID_11_"  style="overflow:visible;"/>
								</clipPath>
								<circle class="st9" cx="284.1" cy="57.9" r="46"/>
							</g>
						</g>
					</g>
				</g>
			</g>
			<g>
				<g>
					<g>
						<path id="SVGID_5_" class="st3" d="M284.1,11.9c-25.4,0-46,20.6-46,46s20.6,46,46,46s46-20.6,46-46S309.5,11.9,284.1,11.9z"/>
					</g>
					<g>
						<g>
							<g>
								<defs>
									<circle id="SVGID_13_" cx="284.1" cy="57.9" r="46"/>
								</defs>
								<clipPath id="SVGID_14_">
									<use xlink:href="#SVGID_13_"  style="overflow:visible;"/>
								</clipPath>
								<circle class="st10" cx="284.1" cy="57.9" r="45.5"/>
							</g>
						</g>
					</g>
				</g>
			</g>
			<g>
				<path id="SVGID_4_" class="st6" d="M284.1,11.9c-25.4,0-46,20.6-46,46s20.6,46,46,46s46-20.6,46-46S309.5,11.9,284.1,11.9z"/>
			</g>
		</g>
	</g>
	<g class="st11">
		<path d="M267.6,54.2h-1.3v-5.4h-6v5.4H259V42.8h1.3v4.9h6v-4.9h1.3L267.6,54.2L267.6,54.2z"/>
		<path d="M270.5,43.3c0-0.3,0.1-0.5,0.2-0.7c0.1-0.1,0.3-0.2,0.5-0.2s0.4,0.1,0.5,0.2c0.2,0.1,0.2,0.4,0.2,0.6s-0.1,0.5-0.2,0.7
			c-0.2,0.1-0.3,0.2-0.5,0.2s-0.4-0.1-0.5-0.2C270.5,43.8,270.5,43.6,270.5,43.3z M271.9,54.2h-1.3v-8.6h1.3V54.2z"/>
		<path d="M280.2,51.9c0,0.8-0.3,1.4-0.9,1.8s-1.4,0.6-2.5,0.6s-2-0.2-2.7-0.5v-1.2c0.4,0.2,0.9,0.4,1.3,0.5
			c0.5,0.1,0.9,0.2,1.4,0.2c0.7,0,1.2-0.1,1.6-0.3s0.5-0.5,0.5-1c0-0.3-0.1-0.6-0.4-0.9s-0.9-0.5-1.7-0.8c-0.8-0.3-1.4-0.6-1.7-0.8
			s-0.6-0.5-0.8-0.8s-0.2-0.6-0.2-1c0-0.7,0.3-1.2,0.9-1.7c0.6-0.4,1.3-0.6,2.3-0.6c0.9,0,1.8,0.2,2.7,0.6l-0.5,1.1
			c-0.9-0.4-1.6-0.5-2.3-0.5c-0.6,0-1.1,0.1-1.4,0.3s-0.5,0.5-0.5,0.8c0,0.2,0.1,0.4,0.2,0.6s0.3,0.3,0.6,0.5
			c0.3,0.1,0.8,0.4,1.5,0.6c1,0.4,1.7,0.7,2.1,1.1C280,50.8,280.2,51.3,280.2,51.9z"/>
		<path d="M285,53.3c0.2,0,0.5,0,0.7-0.1c0.2,0,0.4-0.1,0.5-0.1v1c-0.1,0.1-0.3,0.1-0.6,0.2s-0.5,0.1-0.7,0.1
			c-1.7,0-2.5-0.9-2.5-2.6v-5.1h-1.2V46l1.2-0.5l0.5-1.8h0.8v2h2.5v1h-2.5v5c0,0.5,0.1,0.9,0.4,1.2C284.3,53.2,284.6,53.3,285,53.3z
			"/>
		<path d="M295.3,49.9c0,1.4-0.4,2.5-1.1,3.3s-1.7,1.2-2.9,1.2c-0.8,0-1.4-0.2-2-0.5s-1.1-0.9-1.4-1.5c-0.3-0.7-0.5-1.5-0.5-2.4
			c0-1.4,0.3-2.5,1-3.3s1.7-1.2,2.9-1.2c1.2,0,2.1,0.4,2.9,1.2C295,47.5,295.3,48.6,295.3,49.9z M288.8,49.9c0,1.1,0.2,1.9,0.7,2.5
			s1.1,0.9,1.9,0.9s1.5-0.3,1.9-0.9c0.4-0.6,0.7-1.4,0.7-2.5s-0.2-1.9-0.7-2.5c-0.4-0.6-1.1-0.8-1.9-0.8s-1.5,0.3-1.9,0.8
			C289,48,288.8,48.8,288.8,49.9z"/>
		<path d="M301.5,45.5c0.4,0,0.7,0,1,0.1l-0.2,1.2c-0.4-0.1-0.7-0.1-0.9-0.1c-0.7,0-1.3,0.3-1.8,0.8s-0.7,1.3-0.7,2.1v4.6h-1.3v-8.6
			h1.1l0.1,1.6h0.1c0.3-0.6,0.7-1,1.1-1.3C300.5,45.6,300.9,45.5,301.5,45.5z"/>
		<path d="M302.7,45.7h1.4l1.9,4.9c0.4,1.1,0.7,1.9,0.8,2.4h0.1c0.1-0.3,0.2-0.7,0.4-1.4c0.2-0.6,0.9-2.6,2.1-5.9h1.4l-3.7,9.8
			c-0.4,1-0.8,1.6-1.3,2.1c-0.5,0.4-1.1,0.6-1.8,0.6c-0.4,0-0.8,0-1.2-0.1v-1c0.3,0.1,0.6,0.1,1,0.1c0.9,0,1.5-0.5,1.9-1.5l0.5-1.2
			L302.7,45.7z"/>
	</g>
	<g class="st11">
		<path d="M265.6,70.4c0,1-0.4,1.8-1.1,2.4s-1.7,0.8-3,0.8c-1.4,0-2.4-0.2-3.1-0.5v-1.3c0.5,0.2,1,0.4,1.5,0.5
			c0.6,0.1,1.1,0.2,1.6,0.2c0.9,0,1.6-0.2,2-0.5s0.7-0.8,0.7-1.4c0-0.4-0.1-0.7-0.2-1c-0.2-0.3-0.4-0.5-0.8-0.7s-0.9-0.5-1.7-0.7
			c-1.1-0.4-1.8-0.8-2.3-1.4c-0.5-0.5-0.7-1.2-0.7-2c0-0.9,0.3-1.6,1-2.1s1.5-0.8,2.6-0.8s2.2,0.2,3.1,0.6l-0.4,1.2
			c-0.9-0.4-1.9-0.6-2.8-0.6c-0.7,0-1.3,0.2-1.6,0.5c-0.4,0.3-0.6,0.7-0.6,1.3c0,0.4,0.1,0.7,0.2,1s0.4,0.5,0.7,0.7
			c0.3,0.2,0.9,0.4,1.6,0.7c1.2,0.4,2,0.9,2.5,1.4C265.4,69,265.6,69.6,265.6,70.4z"/>
		<path d="M271.4,73.6c-1.3,0-2.3-0.4-3-1.2c-0.7-0.8-1.1-1.8-1.1-3.2c0-1.4,0.3-2.5,1-3.3s1.6-1.2,2.7-1.2s1.9,0.4,2.5,1.1
			s0.9,1.6,0.9,2.8v0.8h-5.9c0,1,0.3,1.8,0.8,2.3s1.2,0.8,2,0.8c0.9,0,1.8-0.2,2.7-0.6V73c-0.5,0.2-0.9,0.3-1.3,0.4
			C272.5,73.5,272,73.6,271.4,73.6z M271,65.8c-0.7,0-1.2,0.2-1.6,0.7c-0.4,0.4-0.7,1.1-0.7,1.9h4.5c0-0.8-0.2-1.4-0.5-1.9
			C272.2,66,271.7,65.8,271,65.8z"/>
		<path d="M280.6,64.7c0.4,0,0.7,0,1,0.1l-0.2,1.2c-0.4-0.1-0.7-0.1-0.9-0.1c-0.7,0-1.3,0.3-1.8,0.8S278,68,278,68.8v4.6h-1.3v-8.6
			h1.1l0.1,1.6h0.1c0.3-0.6,0.7-1,1.1-1.3C279.6,64.8,280.1,64.7,280.6,64.7z"/>
		<path d="M285.1,73.4l-3.2-8.6h1.4l1.8,5.1c0.4,1.2,0.7,2,0.7,2.3h0.1c0.1-0.3,0.2-0.8,0.5-1.7s1-2.8,2.1-5.7h1.4l-3.2,8.6
			C286.7,73.4,285.1,73.4,285.1,73.4z"/>
		<path d="M291.2,62.5c0-0.3,0.1-0.5,0.2-0.7c0.1-0.1,0.3-0.2,0.5-0.2s0.4,0.1,0.5,0.2c0.2,0.1,0.2,0.4,0.2,0.6s-0.1,0.5-0.2,0.7
			c-0.2,0.1-0.3,0.2-0.5,0.2s-0.4-0.1-0.5-0.2C291.2,63,291.2,62.8,291.2,62.5z M292.6,73.4h-1.3v-8.6h1.3V73.4z"/>
		<path d="M298.8,73.6c-1.2,0-2.2-0.4-2.9-1.1s-1-1.8-1-3.2c0-1.4,0.3-2.5,1-3.3s1.7-1.2,2.9-1.2c0.4,0,0.8,0,1.2,0.1
			c0.4,0.1,0.7,0.2,1,0.3l-0.4,1.1c-0.3-0.1-0.6-0.2-0.9-0.3c-0.3-0.1-0.6-0.1-0.9-0.1c-1.7,0-2.6,1.1-2.6,3.3
			c0,1.1,0.2,1.9,0.6,2.4c0.4,0.6,1.1,0.8,1.9,0.8c0.7,0,1.4-0.2,2.2-0.5V73C300.3,73.4,299.6,73.6,298.8,73.6z"/>
		<path d="M306.6,73.6c-1.3,0-2.3-0.4-3-1.2c-0.7-0.8-1.1-1.8-1.1-3.2c0-1.4,0.3-2.5,1-3.3s1.6-1.2,2.7-1.2s1.9,0.4,2.5,1.1
			s0.9,1.6,0.9,2.8v0.8h-5.9c0,1,0.3,1.8,0.8,2.3s1.2,0.8,2,0.8c0.9,0,1.8-0.2,2.7-0.6V73c-0.5,0.2-0.9,0.3-1.3,0.4
			C307.6,73.5,307.1,73.6,306.6,73.6z M306.2,65.8c-0.7,0-1.2,0.2-1.6,0.7c-0.4,0.4-0.7,1.1-0.7,1.9h4.5c0-0.8-0.2-1.4-0.5-1.9
			C307.4,66,306.9,65.8,306.2,65.8z"/>
	</g>
</g>
<g>
	<g>
		<path class="st2" d="M43.9,235.9l0.1,20c0,4.3,19.3,10.8,43.1,10.7s43-6.7,43-11l-0.1-20L43.9,235.9z"/>
		<path class="st12" d="M43.9,235.9c0-4.3,19.3-7.8,43-7.9c23.8-0.1,43.1,3.3,43.1,7.6s-19.3,7.8-43,7.9
			C63.2,243.5,43.9,240.1,43.9,235.9"/>
		<path class="st2" d="M87.1,272.5c-23.8,0.1-43.1-3.3-43.1-7.6l0.1,20c0,4.3,19.3,10.8,43.1,10.7s43-6.7,43-11l-0.1-20
			C130.1,268.9,110.9,272.4,87.1,272.5"/>
		<path class="st2" d="M87.2,301.6c-23.8,0.1-43.1-3.3-43.1-7.6l0.1,20c0,4.3,19.3,10.8,43.1,10.7s43-6.7,43-11l-0.1-20
			C130.2,298,111,301.6,87.2,301.6"/>
	</g>
	<g class="st11">
		<path class="st8" d="M58.3,283.6v4.8H57V277h3.1c1.4,0,2.4,0.3,3.1,0.8c0.7,0.5,1,1.3,1,2.4c0,1.5-0.8,2.5-2.3,3.1l3.1,5.1h-1.6
			l-2.8-4.8H58.3z M58.3,282.4h1.8c0.9,0,1.6-0.2,2.1-0.6s0.7-0.9,0.7-1.7c0-0.8-0.2-1.3-0.7-1.6S61,278,60.1,278h-1.7L58.3,282.4
			L58.3,282.4z"/>
		<path class="st8" d="M67.9,279.8v5.6c0,0.7,0.2,1.2,0.5,1.6c0.3,0.3,0.8,0.5,1.5,0.5c0.9,0,1.6-0.2,2-0.7s0.6-1.3,0.6-2.4v-4.5
			h1.3v8.6h-1.1l-0.2-1.1h-0.1c-0.3,0.4-0.6,0.7-1.1,1c-0.5,0.2-1,0.3-1.6,0.3c-1,0-1.8-0.2-2.3-0.7s-0.8-1.3-0.8-2.4V280h1.3V279.8
			z"/>
		<path class="st8" d="M82.4,288.3v-5.5c0-0.7-0.2-1.2-0.5-1.6c-0.3-0.3-0.8-0.5-1.5-0.5c-0.9,0-1.6,0.2-2,0.7s-0.6,1.3-0.6,2.4v4.5
			h-1.3v-8.6h1.1l0.2,1.2h0.1c0.3-0.4,0.6-0.7,1.1-1c0.5-0.2,1-0.3,1.6-0.3c1,0,1.8,0.2,2.3,0.7s0.8,1.3,0.8,2.4v5.6L82.4,288.3
			L82.4,288.3z"/>
		<path class="st8" d="M89.1,287.4c0.2,0,0.5,0,0.7-0.1c0.2,0,0.4-0.1,0.5-0.1v1c-0.1,0.1-0.3,0.1-0.6,0.2s-0.5,0.1-0.7,0.1
			c-1.7,0-2.5-0.9-2.5-2.6v-5.1h-1.2v-0.6l1.2-0.5l0.5-1.8h0.8v2h2.5v1h-2.5v5c0,0.5,0.1,0.9,0.4,1.2
			C88.3,287.3,88.7,287.4,89.1,287.4z"/>
		<path class="st8" d="M91.9,277.5c0-0.3,0.1-0.5,0.2-0.7c0.1-0.1,0.3-0.2,0.5-0.2s0.4,0.1,0.5,0.2c0.2,0.1,0.2,0.4,0.2,0.6
			s-0.1,0.5-0.2,0.7c-0.2,0.1-0.3,0.2-0.5,0.2s-0.4-0.1-0.5-0.2C91.9,278,91.9,277.7,91.9,277.5z M93.3,288.3H92v-8.6h1.3V288.3z"/>
		<path class="st8" d="M106.9,288.3v-5.6c0-0.7-0.1-1.2-0.4-1.5s-0.7-0.5-1.4-0.5c-0.8,0-1.4,0.2-1.8,0.7s-0.6,1.2-0.6,2.1v4.8h-1.3
			v-5.6c0-0.7-0.1-1.2-0.4-1.5s-0.7-0.5-1.4-0.5c-0.8,0-1.4,0.2-1.8,0.7s-0.6,1.3-0.6,2.4v4.5H96v-8.6h1.1l0.2,1.2h0.1
			c0.2-0.4,0.6-0.7,1-1s0.9-0.4,1.5-0.4c1.3,0,2.2,0.5,2.6,1.5h0.1c0.3-0.4,0.6-0.8,1.1-1.1s1-0.4,1.7-0.4c1,0,1.7,0.2,2.2,0.7
			s0.7,1.3,0.7,2.4v5.6L106.9,288.3L106.9,288.3z"/>
		<path class="st8" d="M114.5,288.5c-1.3,0-2.3-0.4-3-1.2c-0.7-0.8-1.1-1.8-1.1-3.2c0-1.4,0.3-2.5,1-3.3s1.6-1.2,2.7-1.2
			s1.9,0.4,2.5,1.1s0.9,1.6,0.9,2.8v0.8h-5.9c0,1,0.3,1.8,0.8,2.3s1.2,0.8,2,0.8c0.9,0,1.8-0.2,2.7-0.6v1.2
			c-0.5,0.2-0.9,0.3-1.3,0.4C115.6,288.4,115.1,288.5,114.5,288.5z M114.2,280.7c-0.7,0-1.2,0.2-1.6,0.7c-0.4,0.4-0.7,1.1-0.7,1.9
			h4.5c0-0.8-0.2-1.4-0.5-1.9C115.4,280.9,114.8,280.7,114.2,280.7z"/>
	</g>
</g>
<g>
	<g>
		<path class="st2" d="M240.9,235.9l0.1,20c0,4.3,19.3,10.8,43.1,10.7s43-6.7,43-11l-0.1-20L240.9,235.9z"/>
		<path class="st12" d="M240.9,235.9c0-4.3,19.3-7.8,43-7.9c23.8-0.1,43.1,3.3,43.1,7.6s-19.3,7.8-43,7.9
			C260.2,243.5,240.9,240.1,240.9,235.9"/>
		<path class="st2" d="M284.1,272.5c-23.8,0.1-43.1-3.3-43.1-7.6l0.1,20c0,4.3,19.3,10.8,43.1,10.7c23.8-0.1,43-6.7,43-11l-0.1-20
			C327.1,268.9,307.9,272.4,284.1,272.5"/>
		<path class="st2" d="M284.2,301.6c-23.8,0.1-43.1-3.3-43.1-7.6l0.1,20c0,4.3,19.3,10.8,43.1,10.7s43-6.7,43-11l-0.1-20
			C327.2,298,308,301.6,284.2,301.6"/>
	</g>
	<g class="st11">
		<path class="st8" d="M267.7,288.3h-1.3V283h-6v5.4h-1.3V277h1.3v4.9h6V277h1.3V288.3z"/>
		<path class="st8" d="M270.6,277.5c0-0.3,0.1-0.5,0.2-0.7c0.1-0.1,0.3-0.2,0.5-0.2s0.4,0.1,0.5,0.2c0.2,0.1,0.2,0.4,0.2,0.6
			s-0.1,0.5-0.2,0.7c-0.2,0.1-0.3,0.2-0.5,0.2s-0.4-0.1-0.5-0.2C270.6,278,270.6,277.7,270.6,277.5z M272,288.3h-1.3v-8.6h1.3V288.3
			z"/>
		<path class="st8" d="M280.3,286c0,0.8-0.3,1.4-0.9,1.8s-1.4,0.6-2.5,0.6s-2-0.2-2.7-0.5v-1.2c0.4,0.2,0.9,0.4,1.3,0.5
			c0.5,0.1,0.9,0.2,1.4,0.2c0.7,0,1.2-0.1,1.6-0.3c0.4-0.2,0.5-0.5,0.5-1c0-0.3-0.1-0.6-0.4-0.9s-0.9-0.5-1.7-0.8
			c-0.8-0.3-1.4-0.6-1.7-0.8s-0.6-0.5-0.8-0.8s-0.2-0.6-0.2-1c0-0.7,0.3-1.2,0.9-1.7c0.6-0.4,1.3-0.6,2.3-0.6c0.9,0,1.8,0.2,2.7,0.6
			l-0.5,1.1c-0.9-0.4-1.6-0.5-2.3-0.5c-0.6,0-1.1,0.1-1.4,0.3s-0.5,0.5-0.5,0.8c0,0.2,0.1,0.4,0.2,0.6s0.3,0.3,0.6,0.5
			c0.3,0.1,0.8,0.4,1.5,0.6c1,0.4,1.7,0.7,2.1,1.1C280.1,285,280.3,285.4,280.3,286z"/>
		<path class="st8" d="M285.1,287.4c0.2,0,0.5,0,0.7-0.1c0.2,0,0.4-0.1,0.5-0.1v1c-0.1,0.1-0.3,0.1-0.6,0.2s-0.5,0.1-0.7,0.1
			c-1.7,0-2.5-0.9-2.5-2.6v-5.1h-1.2v-0.6l1.2-0.5l0.5-1.8h0.8v2h2.5v1h-2.5v5c0,0.5,0.1,0.9,0.4,1.2
			C284.4,287.3,284.7,287.4,285.1,287.4z"/>
		<path class="st8" d="M295.4,284c0,1.4-0.4,2.5-1.1,3.3s-1.7,1.2-2.9,1.2c-0.8,0-1.4-0.2-2-0.5s-1.1-0.9-1.4-1.5
			c-0.3-0.7-0.5-1.5-0.5-2.4c0-1.4,0.3-2.5,1-3.3s1.7-1.2,2.9-1.2c1.2,0,2.1,0.4,2.9,1.2C295,281.6,295.4,282.7,295.4,284z
			 M288.9,284c0,1.1,0.2,1.9,0.7,2.5s1.1,0.9,1.9,0.9s1.5-0.3,1.9-0.9s0.7-1.4,0.7-2.5s-0.2-1.9-0.7-2.5c-0.4-0.6-1.1-0.8-1.9-0.8
			s-1.5,0.3-1.9,0.8C289.1,282.1,288.9,282.9,288.9,284z"/>
		<path class="st8" d="M301.6,279.6c0.4,0,0.7,0,1,0.1l-0.2,1.2c-0.4-0.1-0.7-0.1-0.9-0.1c-0.7,0-1.3,0.3-1.8,0.8s-0.7,1.3-0.7,2.1
			v4.6h-1.3v-8.6h1.1l0.1,1.6h0.1c0.3-0.6,0.7-1,1.1-1.3C300.6,279.8,301,279.6,301.6,279.6z"/>
		<path class="st8" d="M302.8,279.8h1.4l1.9,4.9c0.4,1.1,0.7,1.9,0.8,2.4h0.1c0.1-0.3,0.2-0.7,0.4-1.4c0.2-0.6,0.9-2.6,2.1-5.9h1.4
			l-3.7,9.8c-0.4,1-0.8,1.6-1.3,2.1c-0.5,0.4-1.1,0.6-1.8,0.6c-0.4,0-0.8,0-1.2-0.1v-1c0.3,0.1,0.6,0.1,1,0.1c0.9,0,1.5-0.5,1.9-1.5
			l0.5-1.2L302.8,279.8z"/>
	</g>
</g>
<g class="st11">
	<path class="st8" d="M298.6,211.1v-0.6c0-0.8,0.1-1.5,0.4-2.1c0.3-0.5,0.7-1.1,1.4-1.7c1-0.8,1.6-1.4,1.8-1.9s0.4-0.9,0.4-1.5
		c0-0.7-0.2-1.3-0.7-1.7c-0.5-0.4-1.1-0.6-2-0.6c-0.6,0-1.1,0.1-1.7,0.2c-0.5,0.1-1.2,0.4-1.8,0.7l-0.6-1.5c1.4-0.7,2.8-1.1,4.2-1.1
		c1.4,0,2.4,0.3,3.2,1c0.8,0.7,1.1,1.6,1.1,2.8c0,0.5-0.1,1-0.2,1.4c-0.1,0.4-0.3,0.8-0.6,1.1c-0.3,0.4-0.9,0.9-1.8,1.7
		c-0.7,0.6-1.2,1.1-1.4,1.5s-0.3,1-0.3,1.6v0.4H298.6z M298.1,214.3c0-1,0.4-1.5,1.3-1.5c0.4,0,0.7,0.1,1,0.4s0.3,0.6,0.3,1.1
		c0,0.5-0.1,0.8-0.3,1.1c-0.2,0.3-0.5,0.4-1,0.4c-0.4,0-0.7-0.1-0.9-0.3C298.2,215.2,298.1,214.8,298.1,214.3z"/>
</g>
<g>
	<path class="st8" d="M57.7,173.9l-1.7-1.7c-0.4-0.4-0.4-1,0-1.4l10.5-10.5c0.4-0.4,1-0.4,1.4,0l1.7,1.7c0.4,0.4,0.4,1,0,1.4
		l-10.5,10.5C58.7,174.2,58.1,174.2,57.7,173.9z"/>
	<path class="st8" d="M57.5,174.7l-2.3-2.3c-0.2-0.2-0.6-0.1-0.6,0.2l-1.6,4c-0.1,0.3,0.2,0.6,0.5,0.5l4-1.6
		C57.6,175.2,57.7,174.9,57.5,174.7z"/>
</g>
<g>
	<path class="st8" d="M217.6,212.4l-1.7-1.7c-0.4-0.4-0.4-1,0-1.4l10.5-10.5c0.4-0.4,1-0.4,1.4,0l1.7,1.7c0.4,0.4,0.4,1,0,1.4
		L219,212.4C218.6,212.7,218,212.7,217.6,212.4z"/>
	<path class="st8" d="M217.4,213.2l-2.3-2.3c-0.2-0.2-0.6-0.1-0.6,0.2l-1.6,4c-0.1,0.3,0.2,0.6,0.5,0.5l4-1.6
		C217.5,213.7,217.6,213.4,217.4,213.2z"/>
</g>
<g>
	<g>
		<g>
			<path class="st8" d="M172.4,160.8c-4.2,0-7.6,3.4-7.6,7.6h-2.5l3.3,3.3l0.1,0.1l3.4-3.4h-2.5c0-3.3,2.6-5.9,5.9-5.9
				c3.3,0,5.9,2.6,5.9,5.9c0,3.3-2.6,5.9-5.9,5.9c-1.6,0-3.1-0.7-4.2-1.7l-1.2,1.2c1.4,1.4,3.3,2.2,5.4,2.2c4.2,0,7.6-3.4,7.6-7.6
				C180,164.2,176.6,160.8,172.4,160.8z"/>
			<polygon class="st8" points="171.5,165 171.5,169.2 175.2,171.3 175.8,170.3 172.8,168.6 172.8,165 			"/>
		</g>
	</g>
</g>
<g>
	<g>
		<path d="M128.2,168.3c0-0.1-1.2-1.5-3.1-2.9c-2.6-1.9-5.4-2.9-8.2-2.9c-2.8,0-5.6,1-8.2,2.9c-1.9,1.4-3.1,2.9-3.1,2.9l-0.4,0.5
			l0.4,0.5c0,0.1,1.2,1.5,3.1,2.9c2.6,1.9,5.4,2.9,8.2,2.9c2.8,0,5.6-1,8.2-2.9c1.9-1.4,3.1-2.9,3.1-2.9l0.4-0.5L128.2,168.3z
			 M116.9,173.3c-2.4,0-4.4-2-4.4-4.4c0-0.4,0-0.8,0.1-1.1l-1-0.2c-0.1,0.4-0.2,0.8-0.2,1.3c0,1.6,0.7,3,1.8,4
			c-1.4-0.5-2.6-1.2-3.5-1.9c-1.1-0.8-1.9-1.6-2.4-2.1c0.5-0.5,1.3-1.3,2.4-2.1c0.9-0.7,2.1-1.4,3.5-1.9l0.7,0.8
			c0.8-0.7,1.9-1.2,3-1.2c2.4,0,4.4,2,4.4,4.4S119.3,173.3,116.9,173.3z M124.1,171c-0.9,0.7-2.1,1.4-3.5,1.9c1.1-1,1.8-2.4,1.8-4
			s-0.7-3-1.8-4c1.4,0.5,2.6,1.2,3.5,1.9c1.1,0.8,1.9,1.6,2.4,2.1C126,169.4,125.2,170.2,124.1,171z"/>
		<path d="M114.1,168c-0.1,0.3-0.1,0.6-0.1,0.9c0,1.6,1.3,3,3,3c1.6,0,3-1.3,3-3c0-1.6-1.3-3-3-3c-0.8,0-1.5,0.3-2,0.8l1.5,1.6
			L114.1,168z"/>
	</g>
</g>
</svg>
