<?xml version="1.0" encoding="utf-8"?>
<!-- Generator: Adobe Illustrator 22.0.0, SVG Export Plug-In . SVG Version: 6.00 Build 0)  -->
<svg version="1.1" id="Ebene_1" xmlns="http://www.w3.org/2000/svg" xmlns:xlink="http://www.w3.org/1999/xlink" x="0px" y="0px"
	 viewBox="0 0 318.7 178.8" style="enable-background:new 0 0 318.7 178.8;" xml:space="preserve">
<style type="text/css">
	.st0{fill:none;stroke:#CCCCCC;stroke-miterlimit:10;}
	.st1{fill:none;stroke:#00A8FF;stroke-width:3;stroke-miterlimit:10;}
	.st2{fill:#00A8FF;}
	.st3{fill:none;stroke:#00A8FF;stroke-width:3;stroke-miterlimit:10;stroke-dasharray:5,5;}
	.st4{fill:none;stroke:#00A8FF;stroke-width:3;stroke-linecap:round;stroke-miterlimit:10;}
</style>
<path class="st0" d="M309.7,175.7H9c-2.8,0-5-2.2-5-5V8.2c0-2.8,2.2-5,5-5h300.7c2.8,0,5,2.2,5,5v162.5
	C314.7,173.4,312.4,175.7,309.7,175.7z"/>
<path class="st1" d="M109.2,84H82.4c-2.8,0-5-2.2-5-5V60.5c0-2.8,2.2-5,5-5h26.8c2.8,0,5,2.2,5,5V79C114.2,81.8,112,84,109.2,84z"/>
<path class="st1" d="M168,84h-26.8c-2.8,0-5-2.2-5-5V60.5c0-2.8,2.2-5,5-5H168c2.8,0,5,2.2,5,5V79C173,81.8,170.8,84,168,84z"/>
<g>
	<g>
		<line class="st1" x1="114.2" y1="69.8" x2="125.5" y2="69.8"/>
		<g>
			<polygon class="st2" points="123.3,77.3 136.2,69.8 123.3,62.3 			"/>
		</g>
	</g>
</g>
<g>
	<g>
		<line class="st3" x1="63" y1="37.3" x2="159.9" y2="37.3"/>
		<g>
			<polygon class="st2" points="157.7,44.8 170.7,37.3 157.7,29.9 			"/>
		</g>
	</g>
</g>
<g>
	<g>
		<line class="st3" x1="63" y1="144" x2="159.9" y2="144"/>
		<g>
			<polygon class="st2" points="157.7,151.5 170.7,144 157.7,136.5 			"/>
		</g>
	</g>
</g>
<g>
	<g>
		<line class="st1" x1="23.7" y1="90.7" x2="35" y2="90.7"/>
		<g>
			<polygon class="st2" points="32.8,98.2 45.8,90.7 32.8,83.2 			"/>
		</g>
	</g>
</g>
<g>
	<path class="st2" d="M99.1,75l-1.3-3.3h-4.1L92.4,75h-1.2l4.1-10.4h1l4.1,10.4H99.1z M97.5,70.6l-1.2-3.2c-0.2-0.4-0.3-0.9-0.5-1.5
		c-0.1,0.5-0.3,1-0.4,1.5l-1.2,3.2H97.5z"/>
</g>
<g>
	<path class="st2" d="M151.1,64.6h2.9c1.4,0,2.4,0.2,3,0.6s0.9,1.1,0.9,1.9c0,0.6-0.2,1.1-0.5,1.5c-0.3,0.4-0.8,0.7-1.5,0.8v0.1
		c1.6,0.3,2.4,1.1,2.4,2.5c0,0.9-0.3,1.6-0.9,2.2c-0.6,0.5-1.5,0.8-2.6,0.8h-3.6V64.6z M152.3,69h2c0.8,0,1.5-0.1,1.8-0.4
		c0.4-0.3,0.6-0.7,0.6-1.3c0-0.6-0.2-1-0.6-1.3c-0.4-0.3-1.1-0.4-2-0.4h-1.8V69z M152.3,70.1v3.9h2.2c0.8,0,1.5-0.2,1.9-0.5
		c0.4-0.3,0.6-0.8,0.6-1.5c0-0.6-0.2-1.1-0.6-1.4c-0.4-0.3-1.1-0.5-2-0.5H152.3z"/>
</g>
<path class="st1" d="M109.2,125.2H82.4c-2.8,0-5-2.2-5-5v-18.5c0-2.8,2.2-5,5-5h26.8c2.8,0,5,2.2,5,5v18.5
	C114.2,122.9,112,125.2,109.2,125.2z"/>
<path class="st1" d="M168,125.2h-26.8c-2.8,0-5-2.2-5-5v-18.5c0-2.8,2.2-5,5-5H168c2.8,0,5,2.2,5,5v18.5
	C173,122.9,170.8,125.2,168,125.2z"/>
<g>
	<g>
		<line class="st1" x1="114.2" y1="110.9" x2="125.5" y2="110.9"/>
		<g>
			<polygon class="st2" points="123.3,118.4 136.2,110.9 123.3,103.4 			"/>
		</g>
	</g>
</g>
<g>
	<g>
		<polyline class="st1" points="69.8,70.5 54.4,70.5 54.4,82.4 		"/>
		<g>
			<polygon class="st2" points="68.3,65.3 77.3,70.5 68.3,75.8 			"/>
		</g>
	</g>
</g>
<g>
	<g>
		<polyline class="st1" points="69.8,110.9 54.4,110.9 54.4,99.1 		"/>
		<g>
			<polygon class="st2" points="68.3,105.7 77.3,110.9 68.3,116.1 			"/>
		</g>
	</g>
</g>
<polygon class="st4" points="45.9,90.9 55,99.2 63.5,90.7 63.5,90.5 54.5,82.3 45.9,90.7 "/>
<g>
	<path class="st2" d="M54.2,90.6L52,87.6h1.1l1.7,2.4l1.7-2.4h1.1l-2.2,3.1l2.3,3.2h-1.1l-1.8-2.6l-1.8,2.6h-1.1L54.2,90.6z"/>
</g>
<g>
	<path class="st2" d="M96.9,106.7c-1.1,0-2,0.4-2.7,1.1c-0.7,0.8-1,1.8-1,3.1c0,1.4,0.3,2.4,1,3.1c0.6,0.7,1.5,1.1,2.7,1.1
		c0.7,0,1.5-0.1,2.5-0.4v1.1c-0.7,0.3-1.6,0.4-2.7,0.4c-1.5,0-2.7-0.5-3.5-1.4c-0.8-0.9-1.2-2.2-1.2-3.9c0-1.1,0.2-2,0.6-2.8
		c0.4-0.8,1-1.4,1.7-1.9c0.8-0.4,1.6-0.7,2.7-0.7c1.1,0,2,0.2,2.8,0.6l-0.5,1C98.4,106.8,97.6,106.7,96.9,106.7z"/>
</g>
<g>
	<path class="st2" d="M219.9,87.4l-1.3-3.3h-4.1l-1.3,3.3H212l4.1-10.4h1l4.1,10.4H219.9z M218.2,83l-1.2-3.2
		c-0.2-0.4-0.3-0.9-0.5-1.5c-0.1,0.5-0.3,1-0.4,1.5l-1.2,3.2H218.2z"/>
</g>
<g>
	<path class="st2" d="M217.6,95.5c-1.1,0-2,0.4-2.7,1.1c-0.7,0.8-1,1.8-1,3.1c0,1.4,0.3,2.4,1,3.1c0.6,0.7,1.5,1.1,2.7,1.1
		c0.7,0,1.5-0.1,2.5-0.4v1.1c-0.7,0.3-1.6,0.4-2.7,0.4c-1.5,0-2.7-0.5-3.5-1.4c-0.8-0.9-1.2-2.2-1.2-3.9c0-1.1,0.2-2,0.6-2.8
		c0.4-0.8,1-1.4,1.7-1.9c0.8-0.4,1.6-0.7,2.7-0.7c1.1,0,2,0.2,2.8,0.6l-0.5,1C219.2,95.7,218.4,95.5,217.6,95.5z"/>
</g>
<g>
	<path class="st2" d="M158.8,110.8c0,1.7-0.5,3-1.4,3.9c-0.9,0.9-2.3,1.4-4,1.4h-2.9v-10.3h3.2c1.6,0,2.9,0.4,3.7,1.3
		C158.3,108,158.8,109.2,158.8,110.8z M157.5,110.8c0-1.3-0.3-2.4-1-3c-0.7-0.7-1.7-1-3-1h-1.7v8.3h1.5c1.4,0,2.5-0.4,3.2-1.1
		C157.1,113.3,157.5,112.2,157.5,110.8z"/>
</g>
<line class="st1" x1="260.5" y1="125" x2="260.5" y2="55.3"/>
<line class="st1" x1="289.9" y1="125" x2="289.9" y2="55.3"/>
<line class="st1" x1="231.2" y1="125" x2="231.2" y2="56"/>
<line class="st1" x1="201.9" y1="125" x2="201.9" y2="55.3"/>
<line class="st1" x1="289.9" y1="91" x2="202.1" y2="91"/>
<line class="st1" x1="289.9" y1="108.6" x2="202.1" y2="108.6"/>
<line class="st1" x1="289.9" y1="73.4" x2="202.1" y2="73.4"/>
</svg>
