<?xml version="1.0" encoding="utf-8"?>
<!-- Generator: Adobe Illustrator 23.0.6, SVG Export Plug-In . SVG Version: 6.00 Build 0)  -->
<svg version="1.1" xmlns="http://www.w3.org/2000/svg" xmlns:xlink="http://www.w3.org/1999/xlink" x="0px" y="0px"
	 viewBox="0 0 949.2 272.8" style="enable-background:new 0 0 949.2 272.8;" xml:space="preserve">
<style type="text/css">
	.st0{fill:#EDECED;}
	.st1{fill:#5082FA;}
	.st2{fill:#FFFFFF;}
	.st3{font-family:'IBMPlexSans-Bold';}
	.st4{font-size:28.1778px;}
	.st5{fill:none;stroke:#FFFFFF;stroke-width:1.5;stroke-miterlimit:10;}
	.st6{fill:none;stroke:#FFFFFF;stroke-miterlimit:10;}
	.st7{fill:#FFFFFF;stroke:#FFFFFF;stroke-miterlimit:10;}
	.st8{fill:#414042;}
	.st9{font-size:17.9313px;}
	.st10{fill:#5082FA;stroke:#FFFFFF;stroke-miterlimit:10;}
	.st11{font-family:'IBMPlexSans';}
	.st12{fill:#FED10A;}
	.st13{fill:#24BBB1;}
	.st14{fill:#EF5098;}
	.st15{fill:#17A8E0;}
	.st16{fill:#93C83E;}
	.st17{fill:#0779A1;}
	.st18{fill:#4E7896;}
	.st19{fill:#F58219;}
	.st20{fill:none;stroke:#BCBEC0;stroke-width:5;stroke-miterlimit:10;}
	.st21{fill:#BCBEC0;}
</style>
<g id="Layer_3">
</g>
<g id="Ebene_1">
</g>
<g id="Layer_2">
	<rect y="0" class="st0" width="180.7" height="271.6"/>
	<rect x="768.5" y="0" class="st0" width="180.7" height="271.6"/>
	<rect x="273.8" y="0" class="st1" width="424.2" height="271.6"/>
	<g>
		<g>
			<text transform="matrix(1 0 0 1 522.3938 195.7526)" class="st2 st3 st4">Operate</text>
		</g>
		<g>
			<polyline class="st5" points="599.6,150.5 589.3,140.2 595.1,134.4 605.7,145 			"/>
			<circle class="st5" cx="575.2" cy="120.1" r="19.6"/>
			<line class="st5" x1="589.1" y1="133.9" x2="591.7" y2="136.5"/>
			<circle class="st6" cx="576" cy="119.5" r="39.1"/>
			<path class="st2" d="M575.3,125.6c-1.1-2.1-3.6-2.9-5.7-1.8c-2.1,1.1-2.9,3.6-1.8,5.7c0.8,1.5,2.2,2.3,3.8,2.3
				c0.7,0,1.3-0.2,1.9-0.5c1-0.5,1.7-1.4,2.1-2.5C575.9,127.8,575.8,126.6,575.3,125.6z"/>
		</g>
	</g>
	<g>
		<g>
			<text transform="matrix(1 0 0 1 383.6876 195.7506)" class="st2 st3 st4">Zeebe</text>
		</g>
		<g>
			<circle class="st6" cx="424.6" cy="119.5" r="39.1"/>
			<g>
				<circle class="st7" cx="433.2" cy="139.3" r="3.5"/>
				<circle class="st7" cx="402.9" cy="120.5" r="3.5"/>
				<circle class="st7" cx="435.2" cy="103.7" r="3.5"/>
				<g>
					
						<rect x="414.5" y="112.8" transform="matrix(0.8874 -0.4611 0.4611 0.8874 -5.466 204.7416)" class="st2" width="3.5" height="1.4"/>
					
						<rect x="408.5" y="116" transform="matrix(0.8874 -0.4611 0.4611 0.8874 -7.5904 202.3138)" class="st2" width="3.5" height="1.4"/>
					
						<rect x="420.6" y="109.7" transform="matrix(0.8874 -0.4611 0.4611 0.8874 -3.3417 207.1695)" class="st2" width="3.5" height="1.4"/>
					
						<rect x="426.6" y="106.6" transform="matrix(0.8874 -0.4611 0.4611 0.8874 -1.2173 209.5974)" class="st2" width="3.5" height="1.4"/>
				</g>
				<g>
					
						<rect x="414.1" y="126.6" transform="matrix(0.4972 -0.8676 0.8676 0.4972 97.2071 424.4792)" class="st2" width="1.4" height="3.5"/>
					
						<rect x="408.2" y="123.2" transform="matrix(0.4972 -0.8676 0.8676 0.4972 97.1745 417.6636)" class="st2" width="1.4" height="3.5"/>
					
						<rect x="420" y="130" transform="matrix(0.4972 -0.8676 0.8676 0.4972 97.2397 431.2947)" class="st2" width="1.4" height="3.5"/>
					
						<rect x="425.9" y="133.4" transform="matrix(0.4972 -0.8676 0.8676 0.4972 97.2724 438.1103)" class="st2" width="1.4" height="3.5"/>
				</g>
				<g>
					
						<rect x="433" y="117.3" transform="matrix(9.183344e-02 -0.9958 0.9958 9.183344e-02 277.3494 540.1257)" class="st2" width="3.5" height="1.4"/>
					
						<rect x="433.7" y="110.5" transform="matrix(9.183344e-02 -0.9958 0.9958 9.183344e-02 284.6558 534.6006)" class="st2" width="3.5" height="1.4"/>
					
						<rect x="432.4" y="124.1" transform="matrix(9.183344e-02 -0.9958 0.9958 9.183344e-02 270.043 545.6508)" class="st2" width="3.5" height="1.4"/>
					
						<rect x="431.8" y="130.8" transform="matrix(9.183344e-02 -0.9958 0.9958 9.183344e-02 262.7366 551.1758)" class="st2" width="3.5" height="1.4"/>
				</g>
			</g>
		</g>
	</g>
	<text transform="matrix(1 0 0 1 817.6311 33.4899)" class="st8 st3 st9">Exporters</text>
	<text transform="matrix(1 0 0 1 56.8421 33.4899)"><tspan x="0" y="0" class="st8 st3 st9">Client &amp;</tspan><tspan x="-14.4" y="21.5" class="st8 st3 st9">Connectors</tspan></text>
	<g>
		<text transform="matrix(1 0 0 1 433.5471 33.4899)" class="st2 st3 st9">Camunda Cloud</text>
	</g>
	<rect x="241.1" y="55" class="st10" width="65.4" height="161.6"/>
	<g>
		<text transform="matrix(6.123234e-17 1 -1 6.123234e-17 278.7141 117.1383)"><tspan x="0" y="0" class="st2 st11 st9">gRPC</tspan><tspan x="-13.8" y="21.5" class="st2 st11 st9">Gateway</tspan></text>
	</g>
	<path class="st2" d="M914.1,138.5c0-9.2-5.7-17.4-14.4-20.5c3.2-17-7.9-33.3-24.8-36.6c-1.9-0.4-3.8-0.6-5.8-0.6
		c-10,0-19.4,4.8-25.3,12.9c-7.2-5.6-17.6-4.3-23.2,3c-2.2,2.9-3.5,6.5-3.5,10.1c0,2,0.4,3.9,1,5.8c-11.3,4.1-17.3,16.5-13.2,27.9
		c2.2,6.1,7,11,13.1,13.2c-3.3,16.9,7.7,33.2,24.6,36.5c11.9,2.3,24.1-2.5,31.2-12.4c2.9,2.3,6.4,3.5,10.1,3.5
		c9.1,0,16.6-7.4,16.6-16.6c0-2-0.4-3.9-1-5.8C908.2,155.9,914,147.7,914.1,138.5"/>
	<path class="st12" d="M847,128.2l24.2,11l24.4-21.4c0.4-1.8,0.5-3.6,0.5-5.4c0-15-12.2-27.2-27.2-27.3c-9,0-17.4,4.4-22.5,11.9
		l-4.1,21L847,128.2z"/>
	<path class="st13" d="M822,153.8c-0.4,1.8-0.5,3.6-0.5,5.5c0,15.1,12.3,27.3,27.4,27.3c9,0,17.5-4.5,22.6-12l4-21l-5.4-10.3
		l-24.3-11.1L822,153.8z"/>
	<path class="st14" d="M821.9,111.9l16.6,3.9l3.6-18.8c-5.7-4.4-13.9-3.3-18.3,2.4C821,103,820.3,107.7,821.9,111.9"/>
	<path class="st15" d="M820.4,115.9c-9.6,3.1-14.8,13.5-11.6,23c1.7,5.2,5.7,9.4,10.9,11.4l23.2-21l-4.2-9.1L820.4,115.9z"/>
	<path class="st16" d="M875.6,174.6c5.8,4.4,14,3.2,18.3-2.5c2.7-3.5,3.4-8.2,1.9-12.3l-16.5-3.9L875.6,174.6z"/>
	<path class="st17" d="M879,151.5l18.2,4.2c9.6-3.1,14.8-13.5,11.6-23c-1.7-5.2-5.7-9.4-10.9-11.4l-23.8,20.9L879,151.5z"/>
	<path d="M92.9,233c-0.6,0.3-1.2,0.7-1.8,1c-0.1,0-0.1,0.2-0.1,0.3c0.3,1.1,0.3,2.2,0,3.3c0,0.1,0,0.2,0.1,0.3
		c0.5,0.3,1.1,0.6,1.6,1c0.2,0.1,0.3,0,0.4-0.1c1.7-1.5,4.3-1.6,6-0.1c1.5,1.3,2,3.4,1.3,5.3c-0.8,1.9-2.6,3-4.7,2.8
		c-1.9-0.2-3.5-1.6-3.9-3.5c-0.2-0.7-0.2-1.4,0-2c0.1-0.2,0-0.4-0.2-0.5c-0.5-0.3-1.1-0.6-1.6-0.9c-0.6,0.7-1.4,1.2-2.2,1.6
		c-0.2,0.1-0.5,0.2-0.7,0.3c-0.2,0-0.2,0.1-0.2,0.3c0,0.6,0,1.1,0,1.7c0,0.2,0.1,0.3,0.3,0.4c2,0.7,3.2,2.5,3.1,4.5
		c-0.1,2.1-1.6,3.8-3.6,4.3c-2.3,0.5-4.6-0.8-5.3-3c-0.7-2.2,0.3-4.6,2.4-5.6c0.2-0.1,0.4-0.2,0.7-0.3c0.2,0,0.2-0.2,0.2-0.3
		c0-0.5,0-1.1,0-1.6c0-0.2-0.1-0.3-0.3-0.4c-2.3-0.6-3.7-2-4.3-4.3c-0.8-3.1,1.1-6.2,4.3-6.9c0.2-0.1,0.3-0.1,0.3-0.4
		c0-0.5,0-1,0-1.6c0-0.2-0.1-0.3-0.3-0.4c-1.9-0.6-3.2-2.3-3.3-4.3c-0.1-2.7,2.3-4.8,4.9-4.6c2.2,0.2,3.9,1.8,4.2,4
		c0.3,2.2-1,4.2-3.1,5c-0.2,0.1-0.3,0.1-0.3,0.3c0,0.6,0,1.2,0,1.7c0,0.2,0.1,0.3,0.2,0.3c1.1,0.3,2,0.8,2.8,1.6
		c0.1,0.1,0.2,0.1,0.4,0c0.5-0.3,1-0.6,1.5-0.9c0.2-0.1,0.2-0.2,0.2-0.4c-0.5-2.6,1.1-5,3.7-5.5c2.4-0.4,4.9,1.3,5.3,3.8
		c0.4,2.6-1.4,5-3.9,5.3C95.4,234.6,94.2,234.2,92.9,233z M85.5,239.4c1.9,0,3.4-1.5,3.4-3.3c0-1.9-1.5-3.4-3.3-3.4
		c-1.9,0-3.4,1.5-3.4,3.4C82.2,237.9,83.7,239.4,85.5,239.4z M94.1,229.9c0,1.2,1,2.2,2.2,2.2c1.2,0,2.2-1,2.2-2.2
		c0-1.2-1-2.2-2.2-2.2C95.1,227.7,94.1,228.7,94.1,229.9z M96.3,244.4c1.2,0,2.2-1,2.2-2.2c0-1.2-1-2.2-2.2-2.2
		c-1.2,0-2.2,1-2.2,2.2C94.1,243.4,95.1,244.4,96.3,244.4z M85.5,225.9c1.2,0,2.2-1,2.2-2.2c0-1.2-1-2.2-2.2-2.2
		c-1.2,0-2.2,1-2.2,2.2C83.4,224.9,84.3,225.9,85.5,225.9z M87.7,248.3c0-1.2-1-2.2-2.3-2.1c-1.1,0-2.1,1.1-2,2.2
		c0,1.2,1.1,2.2,2.2,2.1C86.8,250.5,87.8,249.5,87.7,248.3z"/>
	<g id="layer1" transform="translate(3824.556,782.8939)">
		<g id="Ebene_x0020_1" transform="translate(-3826.724,-785.8793)">
			<g id="_198302696">
				<path id="_227268128" class="st18" d="M40.7,160.4c0,0-1.4,0.9,1,1.1c2.9,0.4,4.4,0.3,7.6-0.3c0,0,0.9,0.6,2,1
					C44.2,165.3,35.1,162,40.7,160.4L40.7,160.4z M39.8,156.4c0,0-1.5,1.2,0.9,1.4c3.1,0.3,5.6,0.4,9.9-0.5c0,0,0.6,0.6,1.5,0.9
					C43.3,160.9,33.6,158.5,39.8,156.4L39.8,156.4z M56.8,163.5c0,0,1,0.9-1.2,1.5c-4.1,1.2-17.3,1.6-21,0c-1.3-0.6,1.2-1.4,2-1.5
					c0.8-0.2,1.2-0.2,1.2-0.2c-1.4-1-9.4,2-4.1,2.9C48.5,168.6,60.6,165.2,56.8,163.5L56.8,163.5z M41.4,152.2c0,0-6.7,1.6-2.4,2.2
					c1.8,0.2,5.5,0.2,8.9-0.1c2.8-0.2,5.5-0.7,5.5-0.7s-1,0.4-1.7,0.9c-6.8,1.8-19.9,1-16.2-0.9C38.7,152.1,41.4,152.2,41.4,152.2
					L41.4,152.2z M53.4,159c6.9-3.6,3.7-7,1.5-6.6c-0.6,0.1-0.8,0.2-0.8,0.2s0.2-0.4,0.6-0.5c4.4-1.5,7.8,4.6-1.4,7
					C53.3,159.1,53.3,159.1,53.4,159L53.4,159z M42.1,168.7c6.6,0.4,16.8-0.2,17.1-3.4c0,0-0.5,1.2-5.5,2.2
					c-5.7,1-12.7,0.9-16.8,0.2C36.8,167.7,37.7,168.4,42.1,168.7L42.1,168.7z"/>
				<path id="_230367536" class="st19" d="M49.2,131.9c0,0,3.8,3.9-3.6,9.7c-6,4.7-1.4,7.5,0,10.5c-3.5-3.1-6-5.9-4.3-8.5
					C43.8,139.9,50.8,138,49.2,131.9L49.2,131.9z M47.2,149.6c1.8,2-0.5,3.9-0.5,3.9s4.6-2.3,2.5-5.2c-1.9-2.8-3.4-4.1,4.6-8.7
					C53.8,139.5,41.2,142.6,47.2,149.6L47.2,149.6z M42.7,182.7v-6c0-1.5-0.9-2.6-3-2.6c-1.2,0-2.3,0.3-3.2,0.7l0.3,1.1
					c0.7-0.2,1.5-0.5,2.5-0.5c1.2,0,1.7,0.5,1.7,1.5v0.8h-0.6c-3,0-4.3,1.1-4.3,2.9c0,1.5,0.9,2.3,2.6,2.3c1,0,1.8-0.5,2.6-1.1
					l0.1,0.9H42.7L42.7,182.7z M41,180.7c-0.6,0.6-1.3,0.9-1.9,0.9c-0.8,0-1.3-0.5-1.3-1.4c0-0.9,0.5-1.5,2.5-1.5H41L41,180.7
					L41,180.7z M48.5,182.7h-2.2l-2.6-8.4h1.8l1.6,5.2l0.4,1.5c0.8-2.2,1.4-4.5,1.7-6.7h1.8C50.6,177,49.7,180,48.5,182.7
					L48.5,182.7z M58.5,182.7v-6c0-1.5-0.9-2.6-3-2.6c-1.2,0-2.3,0.3-3.2,0.7l0.2,1.1c0.7-0.2,1.6-0.5,2.5-0.5
					c1.2,0,1.7,0.5,1.7,1.5v0.8h-0.6c-3,0-4.3,1.1-4.3,2.9c0,1.5,0.9,2.3,2.5,2.3c1.1,0,1.9-0.5,2.6-1.1l0.1,0.9H58.5L58.5,182.7z
					 M56.7,180.7c-0.6,0.6-1.3,0.9-1.9,0.9c-0.8,0-1.3-0.5-1.3-1.4c0-0.9,0.5-1.5,2.5-1.5h0.7L56.7,180.7L56.7,180.7z M34.1,184.1
					c-0.5,0.7-1.2,1.3-2.2,1.6l-0.8-1c0.6-0.4,1.2-0.9,1.5-1.4c0.2-0.4,0.3-1,0.3-2.5v-9.6h1.8v9.5
					C34.8,182.6,34.6,183.3,34.1,184.1L34.1,184.1z"/>
			</g>
		</g>
	</g>
	
		<image style="overflow:visible;" width="1634" height="2224" xlink:href="68747470733a2f2f7261772e6769746875622e636f6d2f676f6c616e672d73616d706c65732f676f706865722d766563746f722f6d61737465722f676f706865722e706e67.png"  transform="matrix(2.678611e-02 0 0 2.678611e-02 115.2291 129.1918)">
	</image>
	<g>
		<line class="st2" x1="186.5" y1="119.8" x2="235.3" y2="119.8"/>
		<g>
			<line class="st20" x1="193.7" y1="119.8" x2="228.1" y2="119.8"/>
			<g>
				<polygon class="st21" points="226.7,124.8 235.3,119.8 226.7,114.8 				"/>
			</g>
		</g>
	</g>
	<g>
		<line class="st2" x1="240.8" y1="150.9" x2="192" y2="150.9"/>
		<g>
			<line class="st20" x1="233.6" y1="150.9" x2="199.2" y2="150.9"/>
			<g>
				<polygon class="st21" points="200.6,145.9 192,150.9 200.6,155.9 				"/>
			</g>
		</g>
	</g>
	<g>
		<line class="st2" x1="708.8" y1="136.5" x2="757.6" y2="136.5"/>
		<g>
			<line class="st20" x1="708.8" y1="136.5" x2="750.4" y2="136.5"/>
			<g>
				<polygon class="st21" points="749,141.5 757.6,136.5 749,131.5 				"/>
			</g>
		</g>
	</g>
	
		<image style="overflow:visible;" width="1636" height="684" xlink:href="grpc-stacked-color.png"  transform="matrix(4.896285e-02 0 0 4.896285e-02 50.3036 77.6154)">
	</image>
</g>
</svg>
