<?xml version="1.0" encoding="utf-8"?>
<!-- Generator: Adobe Illustrator 24.1.2, SVG Export Plug-In . SVG Version: 6.00 Build 0)  -->
<svg version="1.1" id="Layer_1" xmlns="http://www.w3.org/2000/svg" xmlns:xlink="http://www.w3.org/1999/xlink" x="0px" y="0px"
	 viewBox="0 0 1900.3 1003.7" style="enable-background:new 0 0 1900.3 1003.7;" xml:space="preserve">
<style type="text/css">
	.st0{fill:url(#SVGID_1_);}
	.st1{enable-background:new    ;}
	.st2{fill:#808082;}
	.st3{fill:#FFFFFF;}
	.st4{fill:url(#SVGID_2_);}
	.st5{fill:url(#SVGID_3_);}
	.st6{fill:url(#SVGID_4_);}
	.st7{fill:url(#SVGID_5_);}
	.st8{opacity:0.75;fill:#FFFFFF;enable-background:new    ;}
	.st9{fill:#D9DADB;}
	.st10{fill:url(#SVGID_6_);}
	.st11{fill:#414042;}
</style>
<g>
	
		<linearGradient id="SVGID_1_" gradientUnits="userSpaceOnUse" x1="1499.7572" y1="885.2857" x2="1605.7572" y2="885.2857" gradientTransform="matrix(1 0 0 -1 0 1411.3715)">
		<stop  offset="0.11" style="stop-color:#FF1E00"/>
		<stop  offset="0.2511" style="stop-color:#FF2700"/>
		<stop  offset="0.4813" style="stop-color:#FF3F00"/>
		<stop  offset="0.77" style="stop-color:#FF6700"/>
		<stop  offset="1" style="stop-color:#FF8B00"/>
	</linearGradient>
	<circle class="st0" cx="1552.8" cy="526.1" r="53"/>
</g>
<g>
	<g>
		<g>
			<g>
				<g>
					<g class="st1">
						<path class="st2" d="M1483,615c0-6.2,3.2-9.4,8-9.4s8,3.2,8,9.4s-3.2,9.4-8,9.4S1483,621.2,1483,615z M1494.8,616.4v-2.7
							c0-2.9-1.4-4.5-3.8-4.5s-3.8,1.6-3.8,4.5v2.7c0,2.9,1.4,4.5,3.8,4.5S1494.8,619.2,1494.8,616.4z"/>
						<path class="st2" d="M1502.4,624.1V606h8.6c3.4,0,5.5,2.4,5.5,5.8s-2.1,5.8-5.5,5.8h-4.6v6.6L1502.4,624.1L1502.4,624.1z
							 M1506.3,614.1h4.2c1.2,0,1.9-0.6,1.9-1.8v-1.1c0-1.2-0.7-1.8-1.9-1.8h-4.2V614.1z"/>
						<path class="st2" d="M1527.1,609.4V624h-4v-14.6h-4.9v-3.5h13.8v3.5H1527.1z"/>
						<path class="st2" d="M1533.9,624.1V621h2.3v-11.9h-2.3V606h8.7v3.1h-2.3V621h2.3v3.1H1533.9z"/>
						<path class="st2" d="M1559.5,612.2L1559.5,612.2l-1.4,2.7l-3.5,6.4l-3.5-6.4l-1.4-2.9h-0.1v12.1h-3.7V606h4.2l4.5,8.5h0.1
							l4.4-8.5h4.2v18.1h-3.7L1559.5,612.2L1559.5,612.2z"/>
						<path class="st2" d="M1566.5,624.1V621h2.3v-11.9h-2.3V606h8.7v3.1h-2.3V621h2.3v3.1H1566.5z"/>
						<path class="st2" d="M1591.3,624.1h-13.8v-3.5l9-11.1h-8.5V606h13.1v3.5l-9,11.1h9.2L1591.3,624.1L1591.3,624.1z"/>
						<path class="st2" d="M1594.3,624.1V606h12.4v3.5h-8.4v3.7h7.2v3.5h-7.2v3.9h8.4v3.5L1594.3,624.1L1594.3,624.1z"/>
						<path class="st2" d="M1613.1,617.9l-2.7-1.8l3.3-4l-4.8-1.4l1-3l4.5,1.9l-0.2-4.9h3.4l-0.2,4.9l4.5-1.9l1,3l-4.8,1.4l3.3,4
							l-2.7,1.8l-2.8-4.2L1613.1,617.9z"/>
					</g>
					<g class="st1">
						<path class="st2" d="M1457.3,655.3l3.7-18.1h6.5c3.2,0,4.5,1.8,4.5,4.3c0,3.4-2.3,6.1-6.1,6.1h-4.9l-1.6,7.7H1457.3z
							 M1461.3,645.7h4.8c1.7,0,2.9-0.9,3.3-2.6c0.2-1.2,0.3-1.5,0.3-1.9c0-1.3-0.7-2.1-2.5-2.1h-4.6L1461.3,645.7z"/>
						<path class="st2" d="M1472.3,655.3l2.7-13.4h2l-0.6,2.7h0.1c0.7-1.3,1.9-2.7,4-2.7h0.8l-0.4,2.1h-0.9c-2.5,0-3.8,1.6-4.2,3.4
							l-1.6,8L1472.3,655.3L1472.3,655.3z"/>
						<path class="st2" d="M1482,650.1c0-4.5,2.8-8.5,6.9-8.5c2.8,0,4.9,1.9,4.9,5.5c0,4.5-2.8,8.5-6.9,8.5
							C1484,655.6,1482,653.7,1482,650.1z M1491.3,649.6l0.4-2c0.1-0.4,0.1-0.8,0.1-1.2c0-1.9-1.1-3.1-3.1-3.1
							c-1.9,0-3.6,1.5-4.2,4.2l-0.4,2c-0.1,0.4-0.1,0.8-0.1,1.2c0,1.9,1.1,3.1,3.1,3.1C1489,653.8,1490.7,652.3,1491.3,649.6z"/>
						<path class="st2" d="M1496.3,650.1c0-4.7,2.5-8.6,6.6-8.6c2.4,0,3.9,1.3,4.5,3.1l-1.7,0.8c-0.4-1.4-1.4-2.1-2.8-2.1
							c-2.1,0-3.5,1.5-4,3.8l-0.4,2.2c-0.1,0.4-0.1,0.9-0.1,1.2c0,1.9,1,3.3,3.1,3.3c1.3,0,2.4-0.6,3.4-2.6l1.6,0.8
							c-1.1,2.3-2.9,3.6-5.2,3.6C1498.1,655.6,1496.3,653.4,1496.3,650.1z"/>
						<path class="st2" d="M1508.9,650c0-4.4,2.8-8.4,7-8.4c2.3,0,4.3,1.2,4.3,3.6c0,2.9-3,4.3-9.3,4.4c-0.1,0.4-0.1,0.8-0.1,1.1
							c0,1.9,1.1,3.2,3.2,3.2c1.7,0,3.1-0.9,4.1-2.1l1.3,1.2c-1.7,2-3.6,2.8-5.6,2.8C1510.7,655.6,1508.9,653.6,1508.9,650z
							 M1511.4,647.2l-0.2,0.8c5.8-0.2,7-1,7-2.9c0-1.4-1.2-1.8-2.5-1.8C1513.6,643.3,1511.9,644.8,1511.4,647.2z"/>
						<path class="st2" d="M1521.3,653.1l1.4-1.2c0.9,1.2,2.1,1.9,3.7,1.9c1.8,0,3.1-0.9,3.1-2.5c0-0.9-0.4-1.6-2-1.9l-1-0.2
							c-2-0.4-3.6-1.2-3.6-3.5c0-2.2,1.6-4.2,5-4.2c2,0,3.4,0.7,4.4,2l-1.4,1.2c-0.6-0.8-1.6-1.5-3.2-1.5c-2,0-2.9,1-2.9,2.3
							c0,0.9,0.4,1.5,2,1.8l1,0.2c2.2,0.4,3.6,1.3,3.6,3.5c0,2.7-2.1,4.4-5,4.4C1524.3,655.6,1522.3,654.7,1521.3,653.1z"/>
						<path class="st2" d="M1533.4,653.1l1.4-1.2c0.9,1.2,2.1,1.9,3.7,1.9c1.8,0,3.1-0.9,3.1-2.5c0-0.9-0.4-1.6-2-1.9l-1-0.2
							c-2-0.4-3.6-1.2-3.6-3.5c0-2.2,1.6-4.2,5-4.2c2,0,3.4,0.7,4.4,2l-1.4,1.2c-0.6-0.8-1.6-1.5-3.2-1.5c-2,0-2.9,1-2.9,2.3
							c0,0.9,0.4,1.5,2,1.8l1,0.2c2.2,0.4,3.6,1.3,3.6,3.5c0,2.7-2.1,4.4-5,4.4C1536.4,655.6,1534.5,654.7,1533.4,653.1z"/>
						<path class="st2" d="M1563.6,655.3l-0.7-5.4h-7.1l-2.8,5.4h-2.2l9.7-18.1h2.8l2.5,18.1H1563.6z M1561.5,639.1L1561.5,639.1
							l-4.7,8.9h5.9L1561.5,639.1z"/>
						<path class="st2" d="M1568.6,655.3l2.7-13.4h2l-0.5,2.7h0.1c0.9-2,2.2-3,4.1-3c2.3,0,3.5,1.4,3.5,3.7c0,0.5-0.1,1.1-0.2,1.7
							l-1.3,6.5h1.9l-0.3,1.8h-1.9c-1,0-1.7-0.5-1.7-1.5c0-0.2,0-0.3,0.1-0.5l1.3-6.2c0.1-0.5,0.1-1.1,0.1-1.4
							c0-1.5-0.6-2.3-2.1-2.3c-1,0-1.7,0.3-2.5,1.1c-0.9,0.9-1.6,2.3-1.8,3.4l-1.5,7.5L1568.6,655.3L1568.6,655.3z"/>
						<path class="st2" d="M1593.8,655.3c-1.2,0-1.7-0.6-1.7-1.6c0-0.2,0-0.4,0.1-0.7l0.1-0.6h-0.1c-1.1,2.2-2.4,3.2-4.4,3.2
							c-2.5,0-4.1-1.9-4.1-5.1c0-4,2.1-8.9,6.6-8.9c1.6,0,3.1,0.8,3.5,2.5h0.1l0.4-2.2h2l-2.3,11.6h1.9l-0.3,1.8H1593.8z
							 M1591.2,652.4c0.9-0.9,1.4-1.9,1.7-3.2l0.5-2.7c0.3-1.7-0.5-3.1-2.9-3.1c-2.2,0-3.7,1.5-4.2,4.1l-0.4,2
							c-0.1,0.4-0.1,0.9-0.1,1.3c0,1.7,0.8,3,2.6,3C1589.6,653.8,1590.4,653.2,1591.2,652.4z"/>
						<path class="st2" d="M1600.8,655.3c-1.2,0-1.8-0.7-1.8-1.6c0-0.2,0-0.4,0.1-0.6l3.4-17h2l-3.5,17.5h2l-0.3,1.8h-1.9
							L1600.8,655.3L1600.8,655.3z"/>
						<path class="st2" d="M1615.8,641.9h2.1l-9.1,16.5c-0.9,1.6-1.5,2.2-2.9,2.2h-2.1l0.3-1.7h2.4l1.7-3.1l-2.1-13.8h2l1,6.6
							l0.5,4.9h0.1l2.4-4.9L1615.8,641.9z"/>
						<path class="st2" d="M1617.4,653.1l1.4-1.2c0.9,1.2,2.1,1.9,3.7,1.9c1.8,0,3.1-0.9,3.1-2.5c0-0.9-0.4-1.6-2-1.9l-1-0.2
							c-2-0.4-3.6-1.2-3.6-3.5c0-2.2,1.6-4.2,5-4.2c2,0,3.4,0.7,4.4,2l-1.4,1.2c-0.6-0.8-1.6-1.5-3.2-1.5c-2,0-2.9,1-2.9,2.3
							c0,0.9,0.4,1.5,2,1.8l1,0.2c2.2,0.4,3.6,1.3,3.6,3.5c0,2.7-2.1,4.4-5,4.4C1620.4,655.6,1618.4,654.7,1617.4,653.1z"/>
						<path class="st2" d="M1632.4,655.3c-1.2,0-1.8-0.7-1.8-1.6c0-0.2,0-0.4,0.1-0.6l2.2-11.2h2l-2.3,11.6h1.9l-0.3,1.8H1632.4z
							 M1633.6,637.8c0-0.1,0-0.2,0.1-0.7c0.1-0.7,0.5-1,1.4-1c0.8,0,1.1,0.4,1.1,0.9c0,0.1,0,0.2-0.1,0.7c-0.1,0.7-0.5,1-1.4,1
							C1633.9,638.7,1633.6,638.3,1633.6,637.8z"/>
						<path class="st2" d="M1636.5,653.1l1.4-1.2c0.9,1.2,2.1,1.9,3.7,1.9c1.8,0,3.1-0.9,3.1-2.5c0-0.9-0.4-1.6-2-1.9l-1-0.2
							c-2-0.4-3.6-1.2-3.6-3.5c0-2.2,1.6-4.2,5-4.2c2,0,3.4,0.7,4.4,2l-1.4,1.2c-0.6-0.8-1.6-1.5-3.2-1.5c-2,0-2.9,1-2.9,2.3
							c0,0.9,0.4,1.5,2,1.8l1,0.2c2.2,0.4,3.6,1.3,3.6,3.5c0,2.7-2.1,4.4-5,4.4C1639.6,655.6,1637.6,654.7,1636.5,653.1z"/>
					</g>
				</g>
			</g>
		</g>
	</g>
</g>
<g>
	<polygon class="st3" points="1585.6,498.3 1560.8,500.3 1565.6,507.3 1554.3,515.8 1552.7,517.1 1552.8,518.7 1554.9,544.2 
		1541.2,542.7 1540.8,542.7 1540.5,542.8 1520,554 1541,545 1556.7,548.3 1558.9,548.8 1558.9,546.3 1559.5,520.4 1570.1,513.9 
		1574.9,520.8 	"/>
</g>
<g>
	
		<linearGradient id="SVGID_2_" gradientUnits="userSpaceOnUse" x1="1026.7572" y1="885.2857" x2="1132.7572" y2="885.2857" gradientTransform="matrix(1 0 0 -1 0 1411.3715)">
		<stop  offset="0.11" style="stop-color:#FF1E00"/>
		<stop  offset="0.2511" style="stop-color:#FF2700"/>
		<stop  offset="0.4813" style="stop-color:#FF3F00"/>
		<stop  offset="0.77" style="stop-color:#FF6700"/>
		<stop  offset="1" style="stop-color:#FF8B00"/>
	</linearGradient>
	<circle class="st4" cx="1079.8" cy="526.1" r="53"/>
</g>
<g>
	<g>
		<g>
			<g>
				<g>
					<g class="st1">
						<path class="st2" d="M1022.1,615c0-6.2,3.2-9.4,8-9.4c4.8,0,8,3.2,8,9.4s-3.2,9.4-8,9.4C1025.3,624.4,1022.1,621.2,1022.1,615
							z M1033.9,616.4v-2.7c0-2.9-1.4-4.5-3.8-4.5c-2.4,0-3.8,1.6-3.8,4.5v2.7c0,2.9,1.4,4.5,3.8,4.5
							C1032.5,620.9,1033.9,619.2,1033.9,616.4z"/>
						<path class="st2" d="M1041.4,624.1V606h8.6c3.4,0,5.5,2.4,5.5,5.8s-2.1,5.8-5.5,5.8h-4.6v6.6L1041.4,624.1L1041.4,624.1z
							 M1045.4,614.1h4.2c1.2,0,1.9-0.6,1.9-1.8v-1.1c0-1.2-0.7-1.8-1.9-1.8h-4.2L1045.4,614.1L1045.4,614.1z"/>
						<path class="st2" d="M1058.5,624.1V606h12.4v3.5h-8.4v3.7h7.2v3.5h-7.2v3.9h8.4v3.5L1058.5,624.1L1058.5,624.1z"/>
						<path class="st2" d="M1078.3,624.1h-4V606h8.6c3.4,0,5.5,2.3,5.5,5.8c0,2.4-1.1,4.4-3.3,5.2l3.6,7.1h-4.4l-3.2-6.7h-2.8
							L1078.3,624.1L1078.3,624.1z M1082.5,614.1c1.2,0,1.9-0.6,1.9-1.8v-1.1c0-1.2-0.7-1.8-1.9-1.8h-4.2v4.7L1082.5,614.1
							L1082.5,614.1z"/>
						<path class="st2" d="M1103.2,624.1l-1.3-4.3h-6.1l-1.3,4.3h-4l6-18.1h4.9l5.9,18.1H1103.2z M1098.8,609.5L1098.8,609.5
							l-2.1,6.9h4.2L1098.8,609.5z"/>
						<path class="st2" d="M1115.7,609.4V624h-4v-14.6h-4.9v-3.5h13.8v3.5H1115.7z"/>
						<path class="st2" d="M1123.3,624.1V606h12.4v3.5h-8.4v3.7h7.2v3.5h-7.2v3.9h8.4v3.5L1123.3,624.1L1123.3,624.1z"/>
					</g>
					<g class="st1">
						<path class="st2" d="M1035.9,655.3l-2.2-18.1h2.1l1,9.1l0.7,6.9h0.1l3.5-6.9l4.7-9.1h2.2l-9.5,18.1H1035.9z"/>
						<path class="st2" d="M1049.5,655.3c-1.2,0-1.8-0.7-1.8-1.6c0-0.2,0-0.4,0.1-0.6l2.2-11.2h2l-2.3,11.6h1.9l-0.3,1.8H1049.5z
							 M1050.6,637.8c0-0.1,0-0.2,0.1-0.7c0.1-0.6,0.5-1,1.4-1c0.8,0,1.1,0.4,1.1,0.9c0,0.1,0,0.2-0.1,0.7c-0.1,0.6-0.5,1-1.4,1
							C1050.9,638.7,1050.6,638.3,1050.6,637.8z"/>
						<path class="st2" d="M1053.5,653.1l1.4-1.2c0.9,1.2,2.1,1.9,3.7,1.9c1.8,0,3.1-0.9,3.1-2.5c0-0.9-0.4-1.6-2-1.9l-1-0.2
							c-2-0.4-3.6-1.2-3.6-3.5c0-2.2,1.6-4.2,5-4.2c2,0,3.4,0.7,4.4,2l-1.4,1.2c-0.6-0.8-1.6-1.5-3.2-1.5c-2,0-2.9,1-2.9,2.3
							c0,0.9,0.4,1.5,2,1.8l1,0.2c2.2,0.4,3.6,1.3,3.6,3.5c0,2.7-2.1,4.4-5,4.4C1056.6,655.6,1054.6,654.7,1053.5,653.1z"/>
						<path class="st2" d="M1068.6,655.3c-1.2,0-1.8-0.7-1.8-1.6c0-0.2,0-0.4,0.1-0.6l2.2-11.2h2l-2.3,11.6h1.9l-0.3,1.8H1068.6z
							 M1069.7,637.8c0-0.1,0-0.2,0.1-0.7c0.1-0.6,0.5-1,1.4-1c0.8,0,1.1,0.4,1.1,0.9c0,0.1,0,0.2-0.1,0.7c-0.1,0.6-0.5,1-1.4,1
							C1070,638.7,1069.7,638.3,1069.7,637.8z"/>
						<path class="st2" d="M1077.2,636h2l-1.8,8.7h0.1c1.1-2.2,2.4-3.2,4.4-3.2c2.5,0,4.1,2,4.1,5.1c0,4-2.1,8.9-6.6,8.9
							c-1.6,0-3.1-0.8-3.5-2.5h-0.1l-0.4,2.2h-2L1077.2,636z M1083.3,649.7l0.4-2c0.1-0.4,0.1-0.9,0.1-1.3c0-1.7-0.8-3-2.6-3
							c-1.2,0-2,0.5-2.8,1.3c-0.9,0.9-1.4,1.9-1.7,3.2l-0.5,2.7c-0.3,1.7,0.5,3.1,2.9,3.1C1081.4,653.8,1082.8,652.3,1083.3,649.7z"
							/>
						<path class="st2" d="M1090.4,655.3c-1.2,0-1.8-0.7-1.8-1.6c0-0.2,0-0.4,0.1-0.6l2.2-11.2h2l-2.3,11.6h1.9l-0.3,1.8H1090.4z
							 M1091.5,637.8c0-0.1,0-0.2,0.1-0.7c0.1-0.6,0.5-1,1.4-1c0.8,0,1.1,0.4,1.1,0.9c0,0.1,0,0.2-0.1,0.7c-0.1,0.6-0.5,1-1.4,1
							C1091.8,638.7,1091.5,638.3,1091.5,637.8z"/>
						<path class="st2" d="M1097.3,655.3c-1.2,0-1.8-0.7-1.8-1.6c0-0.2,0-0.4,0.1-0.6l3.4-17h2l-3.5,17.5h2l-0.3,1.8h-1.9
							L1097.3,655.3L1097.3,655.3z"/>
						<path class="st2" d="M1104.2,655.3c-1.2,0-1.8-0.7-1.8-1.6c0-0.2,0-0.4,0.1-0.6l2.2-11.2h2l-2.3,11.6h1.9l-0.3,1.8H1104.2z
							 M1105.3,637.8c0-0.1,0-0.2,0.1-0.7c0.1-0.6,0.5-1,1.4-1c0.8,0,1.1,0.4,1.1,0.9c0,0.1,0,0.2-0.1,0.7c-0.1,0.6-0.5,1-1.4,1
							C1105.6,638.7,1105.3,638.3,1105.3,637.8z"/>
						<path class="st2" d="M1111.5,655.3c-1.2,0-1.8-0.7-1.8-1.6c0-0.2,0-0.4,0.1-0.6l1.9-9.4h-2l0.3-1.8h1c1,0,1.2-0.3,1.4-1.3
							l0.5-2.4h1.9l-0.7,3.7h2.8l-0.3,1.8h-2.8l-2,9.9h2.6l-0.3,1.8h-2.6V655.3z"/>
						<path class="st2" d="M1127.7,641.9h2.1l-9.1,16.5c-0.9,1.6-1.5,2.2-2.9,2.2h-2.1l0.3-1.7h2.4l1.7-3.1L1118,642h2l1,6.6
							l0.5,4.9h0.1l2.4-4.9L1127.7,641.9z"/>
					</g>
				</g>
			</g>
		</g>
	</g>
</g>
<g>
	<g>
		<g>
			<g>
				<g>
					<g>
						<g>
							<g>
								<g class="st1">
									<path class="st2" d="M183.1,612.2L183.1,612.2l-1.4,2.7l-3.5,6.4l-3.5-6.4l-1.4-2.9h-0.1v12.1h-3.7V606h4.2l4.5,8.5h0.1
										l4.4-8.5h4.2v18.1h-3.7v-11.9L183.1,612.2L183.1,612.2z"/>
									<path class="st2" d="M190.1,615c0-6.2,3.2-9.4,8-9.4s8,3.2,8,9.4s-3.2,9.4-8,9.4S190.1,621.2,190.1,615z M201.9,616.4v-2.7
										c0-2.9-1.4-4.5-3.8-4.5s-3.8,1.6-3.8,4.5v2.7c0,2.9,1.4,4.5,3.8,4.5S201.9,619.3,201.9,616.4z"/>
									<path class="st2" d="M209.4,606h6.9c4.8,0,8,3,8,9.1s-3.2,9.1-8,9.1h-6.9V606z M216.3,620.6c2.3,0,3.8-1.3,3.8-4.2v-2.8
										c0-2.9-1.5-4.2-3.8-4.2h-2.9v11.1h2.9V620.6z"/>
									<path class="st2" d="M227.6,624.1V606H240v3.5h-8.4v3.7h7.2v3.5h-7.2v3.9h8.4v3.5L227.6,624.1L227.6,624.1z"/>
									<path class="st2" d="M243.4,624.1V606h4v14.6h6.9v3.5H243.4z"/>
									<path class="st2" d="M257.2,624.1V606h12.4v3.5h-8.4v3.7h7.2v3.5h-7.2v3.9h8.4v3.5L257.2,624.1L257.2,624.1z"/>
									<path class="st2" d="M277,624.1h-4V606h8.6c3.4,0,5.5,2.3,5.5,5.8c0,2.4-1.1,4.4-3.3,5.2l3.6,7.1H283l-3.2-6.7H277V624.1
										L277,624.1z M281.2,614.1c1.2,0,1.9-0.6,1.9-1.8v-1.1c0-1.2-0.7-1.8-1.9-1.8H277v4.7L281.2,614.1L281.2,614.1z"/>
								</g>
								<g class="st1">
									<path class="st2" d="M185.8,637.2h5.3c3.9,0,6.2,2.4,6.2,7c0,5.6-3.3,11.1-9.1,11.1H182L185.8,637.2z M188.4,653.4
										c3.1,0,5.4-2,6.1-5.6l0.5-2.7c0.1-0.5,0.2-1.1,0.2-1.6c0-2.9-1.6-4.4-4.1-4.4h-3.5l-2.9,14.4h3.7V653.4z"/>
									<path class="st2" d="M199.5,650c0-4.4,2.8-8.4,7-8.4c2.3,0,4.3,1.2,4.3,3.6c0,2.9-3,4.3-9.3,4.4c-0.1,0.4-0.1,0.8-0.1,1.1
										c0,1.9,1.1,3.2,3.2,3.2c1.7,0,3.1-0.9,4.1-2.1l1.3,1.2c-1.7,2-3.6,2.8-5.6,2.8C201.3,655.6,199.5,653.6,199.5,650z
										 M202,647.2l-0.2,0.8c5.8-0.2,7-1,7-2.9c0-1.4-1.2-1.8-2.5-1.8C204.2,643.3,202.5,644.9,202,647.2z"/>
									<path class="st2" d="M211.9,653.2l1.4-1.2c0.9,1.2,2.1,1.9,3.7,1.9c1.8,0,3.1-0.9,3.1-2.5c0-0.9-0.4-1.6-2-1.9l-1-0.2
										c-2-0.4-3.6-1.2-3.6-3.5c0-2.2,1.6-4.2,5-4.2c2,0,3.4,0.7,4.4,2l-1.4,1.2c-0.6-0.8-1.6-1.5-3.2-1.5c-2,0-2.9,1-2.9,2.3
										c0,0.9,0.4,1.5,2,1.8l1,0.2c2.2,0.4,3.6,1.3,3.6,3.5c0,2.7-2.1,4.4-5,4.4C214.9,655.6,212.9,654.7,211.9,653.2z"/>
									<path class="st2" d="M228.6,636.1h2l-2.5,12.1h0.1l2.4-2.3l4.5-4h2.4l-6,5.4l2.7,6.2h1.7l-0.3,1.8h-1.1
										c-1.2,0-1.8-0.4-2.2-1.4l-2.4-5.4l-2.4,2.1l-0.9,4.7h-2L228.6,636.1z"/>
									<path class="st2" d="M240.6,655.3c-1.2,0-1.8-0.7-1.8-1.6c0-0.2,0-0.4,0.1-0.6l1.9-9.4h-2l0.3-1.8h1c1,0,1.2-0.3,1.4-1.3
										l0.5-2.4h1.9l-0.7,3.7h2.8l-0.3,1.8h-2.8l-2,9.9h2.6l-0.3,1.8h-2.6V655.3z"/>
									<path class="st2" d="M246.5,650.1c0-4.5,2.8-8.5,6.9-8.5c2.8,0,4.9,1.9,4.9,5.5c0,4.5-2.8,8.5-6.9,8.5
										C248.6,655.6,246.5,653.7,246.5,650.1z M255.8,649.6l0.4-2c0.1-0.4,0.1-0.8,0.1-1.2c0-1.9-1.1-3.1-3.1-3.1
										c-1.9,0-3.6,1.5-4.2,4.2l-0.4,2c-0.1,0.4-0.1,0.8-0.1,1.2c0,1.9,1.1,3.1,3.1,3.1C253.6,653.8,255.3,652.4,255.8,649.6z"/>
									<path class="st2" d="M263.3,641.9h2l-0.6,2.9h0.1c1.1-2.2,2.4-3.2,4.4-3.2c2.5,0,4.1,1.9,4.1,5.1c0,4-2.1,8.9-6.6,8.9
										c-1.6,0-3.1-0.8-3.5-2.5h-0.1l-1.5,7.4h-2L263.3,641.9z M270.6,649.7l0.4-2c0.1-0.4,0.1-0.9,0.1-1.3c0-1.7-0.8-3-2.6-3
										c-1.2,0-2,0.5-2.8,1.3c-0.9,0.9-1.4,1.9-1.7,3.2l-0.5,2.7c-0.3,1.7,0.5,3.1,2.9,3.1C268.6,653.8,270.1,652.3,270.6,649.7z"
										/>
								</g>
							</g>
						</g>
					</g>
				</g>
			</g>
		</g>
	</g>
</g>
<g>
	<g>
		<g>
			<g>
				<g>
					<g>
						<g>
							<g>
								<g class="st1">
									<path class="st2" d="M399.5,615.2c0-6.1,3.2-9.5,8.1-9.5c3.3,0,5.5,1.4,6.8,4.3l-3.4,1.8c-0.5-1.5-1.4-2.5-3.4-2.5
										c-2.3,0-3.9,1.6-3.9,4.4v2.9c0,2.9,1.5,4.4,3.9,4.4c2,0,3.1-1.2,3.6-2.7l3.2,1.9c-1.4,2.8-3.5,4.3-6.9,4.3
										C402.7,624.4,399.5,621.3,399.5,615.2z"/>
									<path class="st2" d="M428.2,624.1l-1.3-4.3h-6.1l-1.3,4.3h-4l6-18.1h4.9l5.9,18.1H428.2z M423.9,609.5h-0.1l-2,6.9h4.2
										L423.9,609.5z"/>
									<path class="st2" d="M437,624.1l-4.1-18.1h3.9l1.7,8.7l1,5h0.1l1.1-5l2-8.7h4.3l2,8.7l1.1,5h0.1l1-5l1.7-8.7h3.8l-4.2,18.1
										H448l-2.3-9.8l-0.9-4h-0.1l-0.9,4l-2.3,9.8H437z"/>
									<path class="st2" d="M459.5,624.1V606h12.4v3.5h-8.4v3.7h7.2v3.5h-7.2v3.9h8.4v3.5L459.5,624.1L459.5,624.1z"/>
									<path class="st2" d="M488.9,612.2L488.9,612.2l-1.4,2.7l-3.5,6.4l-3.5-6.4l-1.4-2.9H479v12.1h-3.7V606h4.2l4.5,8.5h0.1
										l4.4-8.5h4.2v18.1h-3.8V612.2z"/>
									<path class="st2" d="M496,615c0-6.2,3.2-9.4,8-9.4s8,3.2,8,9.4s-3.2,9.4-8,9.4S496,621.2,496,615z M507.8,616.4v-2.7
										c0-2.9-1.4-4.5-3.8-4.5s-3.8,1.6-3.8,4.5v2.7c0,2.9,1.4,4.5,3.8,4.5S507.8,619.3,507.8,616.4z"/>
								</g>
								<g class="st1">
									<path class="st2" d="M420.5,648.5c0-6,3.5-11.7,9.2-11.7c3.6,0,6.3,2.5,6.3,7.1c0,6-3.5,11.7-9.2,11.7
										C423.2,655.6,420.5,653.1,420.5,648.5z M433.3,647.7l0.5-2.6c0.1-0.7,0.2-1.3,0.2-1.8c0-2.8-1.6-4.5-4.5-4.5
										c-3.2,0-5.5,2.3-6.2,6l-0.5,2.6c-0.1,0.6-0.2,1.3-0.2,1.8c0,2.8,1.6,4.6,4.5,4.6C430.2,653.7,432.5,651.5,433.3,647.7z"/>
									<path class="st2" d="M437.7,655.3l2.7-13.4h2l-0.5,2.7h0.1c0.9-2,2.2-3,4.1-3c2.3,0,3.5,1.4,3.5,3.7c0,0.5-0.1,1.1-0.2,1.7
										l-1.3,6.5h1.9l-0.3,1.8h-1.9c-1,0-1.7-0.5-1.7-1.5c0-0.2,0-0.3,0.1-0.5l1.3-6.2c0.1-0.5,0.1-1.1,0.1-1.4
										c0-1.5-0.6-2.3-2.1-2.3c-1,0-1.7,0.3-2.5,1.1c-0.9,0.9-1.6,2.3-1.8,3.4l-1.5,7.5L437.7,655.3L437.7,655.3z"/>
									<path class="st2" d="M454.7,655.3c-1.2,0-1.8-0.7-1.8-1.6c0-0.2,0-0.4,0.1-0.6l3.4-17h2l-3.5,17.5h2l-0.3,1.8h-1.9
										L454.7,655.3L454.7,655.3z"/>
									<path class="st2" d="M461.5,655.3c-1.2,0-1.8-0.7-1.8-1.6c0-0.2,0-0.4,0.1-0.6l2.2-11.2h2l-2.3,11.6h1.9l-0.3,1.8H461.5z
										 M462.7,637.8c0-0.1,0-0.2,0.1-0.7c0.1-0.7,0.5-1,1.4-1c0.8,0,1.1,0.4,1.1,0.9c0,0.1,0,0.2-0.1,0.7c-0.1,0.7-0.5,1-1.4,1
										S462.7,638.3,462.7,637.8z"/>
									<path class="st2" d="M466.2,655.3l2.7-13.4h2l-0.5,2.7h0.1c0.9-2,2.2-3,4.1-3c2.3,0,3.5,1.4,3.5,3.7c0,0.5-0.1,1.1-0.2,1.7
										l-1.3,6.5h1.9l-0.3,1.8h-1.9c-1,0-1.7-0.5-1.7-1.5c0-0.2,0-0.3,0.1-0.5l1.3-6.2c0.1-0.5,0.1-1.1,0.1-1.4
										c0-1.5-0.6-2.3-2.1-2.3c-1,0-1.7,0.3-2.5,1.1c-0.9,0.9-1.6,2.3-1.8,3.4l-1.5,7.5L466.2,655.3L466.2,655.3z"/>
									<path class="st2" d="M481.3,650c0-4.4,2.8-8.4,7-8.4c2.3,0,4.3,1.2,4.3,3.6c0,2.9-3,4.3-9.3,4.4c-0.1,0.4-0.1,0.8-0.1,1.1
										c0,1.9,1.1,3.2,3.2,3.2c1.7,0,3.1-0.9,4.1-2.1l1.3,1.2c-1.7,2-3.6,2.8-5.6,2.8C483.2,655.6,481.3,653.6,481.3,650z
										 M483.8,647.2l-0.2,0.8c5.8-0.2,7-1,7-2.9c0-1.4-1.2-1.8-2.5-1.8C486,643.3,484.3,644.9,483.8,647.2z"/>
								</g>
							</g>
						</g>
					</g>
				</g>
			</g>
		</g>
	</g>
</g>
<g>
	<g>
		<g>
			
				<linearGradient id="SVGID_3_" gradientUnits="userSpaceOnUse" x1="175.4572" y1="885.2857" x2="281.4572" y2="885.2857" gradientTransform="matrix(1 0 0 -1 0 1411.3715)">
				<stop  offset="0.11" style="stop-color:#FF1E00"/>
				<stop  offset="0.2511" style="stop-color:#FF2700"/>
				<stop  offset="0.4813" style="stop-color:#FF3F00"/>
				<stop  offset="0.77" style="stop-color:#FF6700"/>
				<stop  offset="1" style="stop-color:#FF8B00"/>
			</linearGradient>
			<circle class="st5" cx="228.5" cy="526.1" r="53"/>
		</g>
	</g>
</g>
<g>
	<g>
		<g>
			
				<linearGradient id="SVGID_4_" gradientUnits="userSpaceOnUse" x1="402.6571" y1="885.2857" x2="508.6571" y2="885.2857" gradientTransform="matrix(1 0 0 -1 0 1411.3715)">
				<stop  offset="0.11" style="stop-color:#FF1E00"/>
				<stop  offset="0.2511" style="stop-color:#FF2700"/>
				<stop  offset="0.4813" style="stop-color:#FF3F00"/>
				<stop  offset="0.77" style="stop-color:#FF6700"/>
				<stop  offset="1" style="stop-color:#FF8B00"/>
			</linearGradient>
			<circle class="st6" cx="455.7" cy="526.1" r="53"/>
		</g>
	</g>
</g>
<g>
	<circle class="st3" cx="194.7" cy="526.4" r="7.5"/>
	<circle class="st3" cx="261.4" cy="526.4" r="7.5"/>
	<rect x="208" y="518.8" class="st3" width="15.1" height="15.1"/>
	
		<rect x="230.7" y="518.8" transform="matrix(0.7071 -0.7071 0.7071 0.7071 -302.3806 322.6597)" class="st3" width="15.1" height="15.1"/>
</g>
<g>
	<polygon class="st3" points="1033.7,528.8 1061.6,527.4 1070.7,501.6 1078.6,535.8 1084.2,524.1 1126,528.7 1086.4,530.4 
		1076.8,550.6 1069.6,519.1 1064.8,532.6 	"/>
</g>
<g>
	<g>
		<circle class="st3" cx="422.8" cy="526.1" r="7.5"/>
		<circle class="st3" cx="489.6" cy="526.1" r="7.5"/>
		<rect x="436.1" y="518.6" class="st3" width="15.1" height="15.1"/>
		
			<rect x="459" y="518.6" transform="matrix(0.7071 -0.7071 0.7071 0.7071 -235.3838 483.9636)" class="st3" width="15.1" height="15.1"/>
	</g>
	<g>
		<path class="st3" d="M424.4,542.1c3.3,6.5,8.5,11.9,15.4,15.4l1.2-2.8c-6.1-3.2-10.8-8-13.7-13.8L424.4,542.1z"/>
		<path class="st3" d="M446.1,495.4c6.2-2,13-2.1,19.6,0l1.2-2.8c-7.3-2.4-15-2.3-21.9,0L446.1,495.4z"/>
		<path class="st3" d="M446,556.8l-1.2,2.8c7.3,2.4,14.9,2.3,21.8,0.1l-1.1-2.8C459.3,558.8,452.5,558.9,446,556.8z"/>
		<path class="st3" d="M470.7,497.5c6.1,3.2,10.8,8.1,13.8,13.9l2.8-1.1c-3.3-6.5-8.6-12-15.4-15.6L470.7,497.5z"/>
		<path class="st3" d="M479.9,547.5c-2.7,3-5.9,5.5-9.4,7.3l1.1,2.8c4.3-2.1,8.1-5.1,11.2-8.9c1.6-2,3.1-4.1,4.3-6.5l-2.8-1.2
			C483.1,543.4,481.6,545.6,479.9,547.5z"/>
		<path class="st3" d="M431.7,504.8c2.7-3,5.8-5.4,9.3-7.2l-1.1-2.9c-4.2,2.1-8,5.1-11.1,8.8c-1.7,2-3.2,4.2-4.4,6.6l2.8,1.2
			C428.5,508.9,430,506.7,431.7,504.8z"/>
	</g>
</g>
<g>
	<g>
		<g>
			<g>
				<g>
					<g class="st1">
						<path class="st2" d="M796.8,625.1H783v-3.5l9-11.1h-8.5V607h13.1v3.5l-9,11.1h9.2V625.1z"/>
						<path class="st2" d="M799.8,625.1V607h12.4v3.5h-8.4v3.7h7.2v3.5h-7.2v3.9h8.4v3.5L799.8,625.1L799.8,625.1z"/>
						<path class="st2" d="M815.6,625.1V607H828v3.5h-8.4v3.7h7.2v3.5h-7.2v3.9h8.4v3.5L815.6,625.1L815.6,625.1z"/>
						<path class="st2" d="M831.5,606.9h8.8c3,0,4.8,1.8,4.8,4.7c0,2.8-1.5,3.8-3.4,3.9v0.2c1.7,0,4.1,1.1,4.1,4.3
							c0,2.9-2,5.2-4.7,5.2h-9.6L831.5,606.9L831.5,606.9z M835.4,614.4h3.9c1,0,1.7-0.6,1.7-1.7v-0.8c0-1-0.6-1.7-1.7-1.7h-3.9
							V614.4z M835.4,621.7h4.6c1,0,1.7-0.6,1.7-1.6v-0.9c0-1-0.7-1.6-1.7-1.6h-4.6V621.7z"/>
						<path class="st2" d="M848.9,625.1V607h12.4v3.5h-8.4v3.7h7.2v3.5h-7.2v3.9h8.4v3.5L848.9,625.1L848.9,625.1z"/>
					</g>
					<g class="st1">
						<path class="st2" d="M729.7,656.3l-0.8-18.1h2.1l0.2,9.2l0.2,6.3h0.1l3.6-8.2l3.3-7.3h2.5l0.4,7.7l0.4,7.8h0.1l2.8-6.4
							l3.9-9.1h2.2l-8.2,18.1h-2.4l-0.5-9.5l-0.3-6.2h-0.1l-2.8,6.3l-4.2,9.4H729.7z"/>
						<path class="st2" d="M749.6,651.1c0-4.5,2.8-8.5,6.9-8.5c2.8,0,4.9,1.9,4.9,5.5c0,4.5-2.8,8.5-6.9,8.5
							C751.6,656.6,749.6,654.7,749.6,651.1z M758.9,650.6l0.4-2c0.1-0.4,0.1-0.8,0.1-1.2c0-1.9-1.1-3.1-3.1-3.1
							c-1.9,0-3.6,1.5-4.2,4.2l-0.4,1.9c-0.1,0.4-0.1,0.8-0.1,1.2c0,1.9,1.1,3.1,3.1,3.1C756.6,654.8,758.3,653.3,758.9,650.6z"/>
						<path class="st2" d="M763.6,656.3l2.7-13.4h2l-0.6,2.7h0.1c0.7-1.3,1.9-2.7,4-2.7h0.8l-0.4,2.1h-0.9c-2.5,0-3.8,1.6-4.2,3.4
							l-1.6,8L763.6,656.3L763.6,656.3z"/>
						<path class="st2" d="M777,637h2l-2.5,12.1h0.1l2.4-2.3l4.5-4h2.4l-6,5.4l2.7,6.2h1.7l-0.3,1.8h-1.1c-1.2,0-1.8-0.4-2.2-1.4
							l-2.4-5.4l-2.4,2.1l-0.9,4.7h-2L777,637z"/>
						<path class="st2" d="M788.8,658.5c-0.4,1.8-1.2,3-3.3,3h-1.7l0.3-1.8h2.4l3.1-15.1h-2.2l0.3-1.8h2.2l0.6-2.9
							c0.4-1.8,1.2-3,3.3-3h2.1l-0.3,1.8h-2.7l-0.8,4.1h2.6l-0.3,1.8h-2.6L788.8,658.5z"/>
						<path class="st2" d="M796.8,656.3c-1.2,0-1.8-0.7-1.8-1.6c0-0.2,0-0.4,0.1-0.6l3.4-17h2l-3.5,17.5h2l-0.3,1.8h-1.9V656.3z"/>
						<path class="st2" d="M801.8,651.1c0-4.5,2.8-8.5,6.9-8.5c2.8,0,4.9,1.9,4.9,5.5c0,4.5-2.8,8.5-6.9,8.5
							C803.9,656.6,801.8,654.7,801.8,651.1z M811.1,650.6l0.4-2c0.1-0.4,0.1-0.8,0.1-1.2c0-1.9-1.1-3.1-3.1-3.1
							c-1.9,0-3.6,1.5-4.2,4.2l-0.4,1.9c-0.1,0.4-0.1,0.8-0.1,1.2c0,1.9,1.1,3.1,3.1,3.1C808.9,654.8,810.6,653.3,811.1,650.6z"/>
						<path class="st2" d="M816.3,642.9h1.9l0.2,6.5l0.2,5h0.1l2.1-4.4l3.3-7.1h2l0.6,6.8l0.3,4.6h0.1l2-4.5l3.1-6.9h2l-6.1,13.4
							h-2.4L825,649l-0.2-3.4h-0.1l-1.5,3.4l-3.5,7.3h-2.6L816.3,642.9z"/>
						<path class="st2" d="M840.8,656.3l3.7-18.1h10.7l-0.4,1.9h-8.6l-1.2,6.1h7.7l-0.4,1.9h-7.7l-1.3,6.4h9l-0.4,1.9h-11.1V656.3z"
							/>
						<path class="st2" d="M855.4,656.3l2.7-13.4h2l-0.5,2.7h0.1c0.9-2,2.2-3,4.1-3c2.3,0,3.5,1.4,3.5,3.7c0,0.5-0.1,1.1-0.2,1.7
							l-1.3,6.5h1.9l-0.3,1.8h-1.9c-1,0-1.7-0.5-1.7-1.5c0-0.2,0-0.3,0.1-0.5l1.3-6.2c0.1-0.5,0.1-1.1,0.1-1.4
							c0-1.5-0.6-2.3-2.1-2.3c-1,0-1.7,0.3-2.5,1.1c-0.9,0.9-1.6,2.3-1.8,3.4l-1.5,7.5L855.4,656.3L855.4,656.3z"/>
						<path class="st2" d="M874.2,661.8c-3.6,0-5.4-1-5.4-3c0-1.4,0.9-2.4,2.7-3l0.1-0.2c-0.8-0.3-1.1-0.9-1.1-1.6
							c0-1.3,0.9-2.2,2.7-2.5v-0.2c-1.2-0.6-1.8-1.8-1.8-3.4c0-3.1,2.3-5.4,5.7-5.4c1,0,1.9,0.2,2.5,0.6l0.1-0.3
							c0.2-1.1,0.8-1.8,1.9-1.8h1.9l-0.3,1.8h-2.3l-0.2,1.1c0.5,0.7,0.8,1.5,0.8,2.6c0,3-2.4,5.3-5.8,5.3c-0.4,0-0.7,0-1-0.1
							c-1.3,0.2-2.1,0.7-2.1,1.6c0,0.7,0.5,1,1.8,1h3c3,0,4.1,1.1,4.1,3C881.3,659.6,879.6,661.8,874.2,661.8z M877,656.1h-4.6
							c-1,0.4-1.6,1.1-1.6,2.1c0,1.1,0.7,1.9,2.8,1.9h1.2c3,0,4.3-1,4.3-2.5C879.2,656.7,878.7,656.1,877,656.1z M879,647.7
							c0.2-0.9,0.2-1.1,0.2-1.5c0-1.2-0.8-2.1-2.5-2.1c-1.9,0-2.9,1-3.2,2.5c-0.2,0.9-0.2,1.1-0.2,1.5c0,1.2,0.8,2,2.5,2
							C877.7,650.2,878.7,649.2,879,647.7z"/>
						<path class="st2" d="M885.6,656.3c-1.2,0-1.8-0.7-1.8-1.6c0-0.2,0-0.4,0.1-0.6l2.2-11.2h2l-2.3,11.6h1.9l-0.3,1.8H885.6z
							 M886.7,638.8c0-0.1,0-0.2,0.1-0.7c0.1-0.6,0.5-1,1.4-1c0.8,0,1.1,0.4,1.1,0.9c0,0.1,0,0.2-0.1,0.7c-0.1,0.6-0.5,1-1.4,1
							C887,639.7,886.7,639.3,886.7,638.8z"/>
						<path class="st2" d="M890.3,656.3l2.7-13.4h2l-0.5,2.7h0.1c0.9-2,2.2-3,4.1-3c2.3,0,3.5,1.4,3.5,3.7c0,0.5-0.1,1.1-0.2,1.7
							l-1.3,6.5h1.9l-0.3,1.8h-1.9c-1,0-1.7-0.5-1.7-1.5c0-0.2,0-0.3,0.1-0.5l1.3-6.2c0.1-0.5,0.1-1.1,0.1-1.4
							c0-1.5-0.6-2.3-2.1-2.3c-1,0-1.7,0.3-2.5,1.1c-0.9,0.9-1.6,2.3-1.8,3.4l-1.5,7.5L890.3,656.3L890.3,656.3z"/>
						<path class="st2" d="M905.4,651c0-4.4,2.8-8.4,7-8.4c2.3,0,4.3,1.2,4.3,3.6c0,2.9-3,4.3-9.3,4.4c-0.1,0.4-0.1,0.8-0.1,1.1
							c0,1.9,1.1,3.2,3.2,3.2c1.7,0,3.1-0.9,4.1-2.1l1.3,1.2c-1.7,2-3.6,2.8-5.6,2.8C907.2,656.6,905.4,654.6,905.4,651z
							 M907.9,648.2l-0.2,0.8c5.8-0.2,7-1,7-2.9c0-1.4-1.2-1.8-2.5-1.8C910.1,644.3,908.4,645.8,907.9,648.2z"/>
					</g>
				</g>
			</g>
		</g>
	</g>
</g>
<g>
	
		<linearGradient id="SVGID_5_" gradientUnits="userSpaceOnUse" x1="768.5571" y1="885.0857" x2="874.5571" y2="885.0857" gradientTransform="matrix(1 0 0 -1 0 1411.3715)">
		<stop  offset="0.11" style="stop-color:#FF1E00"/>
		<stop  offset="0.2511" style="stop-color:#FF2700"/>
		<stop  offset="0.4813" style="stop-color:#FF3F00"/>
		<stop  offset="0.77" style="stop-color:#FF6700"/>
		<stop  offset="1" style="stop-color:#FF8B00"/>
	</linearGradient>
	<circle class="st7" cx="821.6" cy="526.3" r="53"/>
</g>
<g>
	<path class="st8" d="M834,517.1l5.7,1.4l-1.2-2.8l-5.3-1.6c-0.5-1.8,1.8-4.1,0.9-5.7l4.4-4.3l-8-8.1l-4.4,4.3
		c-0.8-0.5-1.6-0.9-2.5-1.2c-0.8-0.4-1.7-0.7-2.6-0.9v-6.1h-11.5v6.1c-1.8,0.5-3.5,1.2-5.1,2.1l-4.3-4.3l-8.1,8l4.3,4.3
		c-0.5,0.8-0.9,1.6-1.2,2.5c-0.4,0.8-0.7,1.7-0.9,2.6H788v11.4h6.1c0.5,1.8,1.2,3.5,2.1,5.1l-4.5,4.4l8,8.1l4.5-4.4
		c0.8,0.5,3.6-4.6,4.5-4.3c0.9,0.4,2.6,6.3,3.5,6.6l0.4,3.5l3.1,2.7l-3.3-14c1.8-0.5,2.3-5.2,3.9-6.1l3.3-6.3l5.9-2.9h4.1
		c0.5-0.8,2.2,0.8,2.6,0C832.4,516.3,833.8,518,834,517.1z M811.8,529c-2.8,0-2.1,4.5-4.3,3.2c-4.4-2.6-7.3-7.4-7.3-12.9
		c0-8.3,6.7-15,15-15c5.8,0,10.9,3.3,13.4,8.2c1,2.1-1,0.9-1,3.3c0,4.2-8.4,1.8-11.1,4.5C813.7,522.9,815.9,529,811.8,529z"/>
	<path class="st3" d="M850.4,539.2h6.3v-11.4h-6.2c-0.5-1.8-1.2-3.5-2.1-5.1l4.4-4.3l-8-8.1l-4.4,4.3c-0.8-0.5-1.6-0.9-2.5-1.2
		c-0.8-0.4-1.7-0.7-2.6-0.9v-6.1h-11.5v6.1c-1.8,0.5-3.5,1.2-5.1,2.1l-4.3-4.3l-8.1,8l4.3,4.3c-0.5,0.8-0.9,1.6-1.2,2.5
		c-0.4,0.8-0.7,1.7-0.9,2.6h-6.2v11.4h6.1c0.5,1.8,1.2,3.5,2.1,5.1l-4.5,4.4l8,8.1l4.5-4.4c0.8,0.5,1.7,0.9,2.5,1.2
		c0.9,0.4,1.7,0.7,2.6,0.9v6.4H835v-6.4c1.8-0.5,3.5-1.2,5.1-2.1l4.5,4.5l8.1-8l-4.5-4.5c0.5-0.8,0.9-1.6,1.2-2.5
		C849.9,540.9,850.2,540.1,850.4,539.2z M829.5,548.6c-8.3,0-15-6.7-15-15s6.7-15,15-15s15,6.7,15,15S837.8,548.6,829.5,548.6z"/>
</g>
<g>
	<g>
		<path class="st9" d="M1842.6,795.2H1263V564.5l38.1-38.1l-38.1-38.1V259.7h579.6V795.2z M1266,792.2h573.6V262.7H1266v224.4
			l39.3,39.3l-39.3,39.3V792.2z"/>
	</g>
	<path class="st9" d="M637.7,795.2H58.1V259.7h579.6v201.1l25,25.1l40.6,40.6L637.8,592L637.7,795.2L637.7,795.2z M61.1,792.2h573.6
		V590.7l64.3-64.3L660.6,488l-25.8-25.9V262.7H61.1V792.2z"/>
	<path class="st9" d="M1239.8,795.2H660.1V565.3l38.9-38.9l-38.9-38.9V259.7h579.7v201.1l25.8,25.9l39.8,39.8l-65.5,65.5v203.2
		H1239.8z M663.1,792.2h573.7V590.7l64.3-64.3l-37.6-37.6l-26.6-26.7V262.7H663.1v223.6l40.1,40.1l-40.1,40.1V792.2z"/>
</g>
<g>
	<g>
		<g>
			<g>
				<g class="st1">
					<path d="M289.3,300.9h8.4c5.9,0,9.9,3.7,9.9,11.2c0,7.4-3.9,11.2-9.9,11.2h-8.4V300.9z M297.8,318.9c2.9,0,4.7-1.6,4.7-5.1
						v-3.5c0-3.6-1.8-5.1-4.7-5.1h-3.6v13.7H297.8z"/>
					<path d="M311.7,323.2v-22.3h15.2v4.3h-10.4v4.6h8.9v4.3h-8.9v4.8h10.4v4.3L311.7,323.2L311.7,323.2z"/>
					<path d="M329.9,320l3.2-3.2c1.5,1.7,3.4,2.6,5.6,2.6c2.4,0,3.5-1.1,3.5-2.7c0-1.2-0.5-2.1-2.6-2.4l-2.2-0.3
						c-4.7-0.6-6.9-2.9-6.9-6.7c0-4,3.1-6.8,8.4-6.8c3.4,0,5.9,1.1,7.8,3.1l-3.2,3.3c-1.1-1.2-2.5-2.1-4.8-2.1
						c-2.2,0-3.2,0.8-3.2,2.2c0,1.5,0.8,2.1,2.7,2.4l2.2,0.4c4.6,0.7,6.8,2.8,6.8,6.6c0,4.3-3.1,7.3-8.7,7.3
						C334.5,323.6,331.8,322.1,329.9,320z"/>
					<path d="M350.3,323.2v-3.9h2.9v-14.6h-2.9v-3.9H361v3.9h-2.9v14.6h2.9v3.9H350.3z"/>
					<path d="M379.3,319.6h-0.2c-0.3,2.2-2.4,3.9-5.7,3.9c-5.1,0-9.2-4-9.2-11.5s4.1-11.6,10.1-11.6c4,0,7,1.8,8.6,5.2l-4,2.3
						c-0.7-1.7-2.1-3.1-4.7-3.1c-3,0-5,1.7-5,5.4v3.6c0,3.7,2,5.4,5,5.4c2.4,0,4.4-1.2,4.4-3.3v-1.1h-4.2v-4.1h8.8v12.4h-4.1v-3.5
						H379.3z"/>
					<path d="M395,312.6l-2.1-4.5h-0.1v15h-4.6v-22.3h5.3l6.1,10.6l2.1,4.5h0.1v-15h4.6v22.3h-5.3L395,312.6z"/>
				</g>
			</g>
		</g>
	</g>
</g>
<g>
	<g>
		<g>
			<g>
				<g class="st1">
					<path d="M878.5,323.2l-1.6-5.3h-7.5l-1.6,5.3h-4.9l7.4-22.3h6l7.3,22.3H878.5z M873.2,305.3H873l-2.5,8.5h5.1L873.2,305.3z"/>
					<path d="M890.5,300.9v13.7c0,3.1,1.2,4.7,4,4.7c2.9,0,4-1.6,4-4.7v-13.7h4.7v13.2c0,6.6-2.4,9.5-8.8,9.5
						c-6.4,0-8.8-2.9-8.8-9.5v-13.2H890.5z"/>
					<path d="M917.5,305.2v18h-4.9v-18h-6.1v-4.3h17v4.3H917.5z"/>
					<path d="M925.2,312c0-7.6,3.9-11.6,9.9-11.6s9.9,4,9.9,11.6s-3.9,11.6-9.9,11.6S925.2,319.6,925.2,312z M939.8,313.7v-3.3
						c0-3.6-1.8-5.6-4.7-5.6s-4.7,2-4.7,5.6v3.3c0,3.6,1.8,5.6,4.7,5.6C938,319.3,939.8,317.2,939.8,313.7z"/>
					<path d="M965.8,308.5L965.8,308.5l-1.7,3.3l-4.4,7.9l-4.3-7.9l-1.7-3.5h-0.1v14.9H949v-22.3h5.2l5.5,10.5h0.1l5.4-10.5h5.2
						v22.3h-4.6L965.8,308.5L965.8,308.5z"/>
					<path d="M989.1,323.2l-1.6-5.3H980l-1.6,5.3h-4.9l7.4-22.3h6l7.3,22.3H989.1z M983.8,305.3h-0.2l-2.5,8.5h5.1L983.8,305.3z"/>
					<path d="M1004.5,305.2v18h-4.9v-18h-6.1v-4.3h17v4.3H1004.5z"/>
					<path d="M1014,323.2v-22.3h15.2v4.3h-10.4v4.6h8.9v4.3h-8.9v4.8h10.4v4.3L1014,323.2L1014,323.2z"/>
				</g>
			</g>
		</g>
	</g>
</g>
<g>
	<g>
		<g>
			<g>
				<g class="st1">
					<path d="M1481.4,323.2v-3.9h2.9v-14.6h-2.9v-3.9h10.7v3.9h-2.9v14.6h2.9v3.9H1481.4z"/>
					<path d="M1512.9,308.5L1512.9,308.5l-1.7,3.3l-4.4,7.9l-4.3-7.9l-1.7-3.5h-0.1v14.9h-4.6v-22.3h5.2l5.5,10.5h0.1l5.4-10.5h5.2
						v22.3h-4.6V308.5z"/>
					<path d="M1522.4,323.2v-22.3h10.6c4.2,0,6.8,2.9,6.8,7.1s-2.6,7.1-6.8,7.1h-5.7v8.1L1522.4,323.2L1522.4,323.2z M1527.3,310.9
						h5.1c1.4,0,2.3-0.8,2.3-2.2v-1.4c0-1.4-0.9-2.2-2.3-2.2h-5.1V310.9z"/>
					<path d="M1548.3,323.2h-4.9v-22.3h10.6c4.1,0,6.8,2.9,6.8,7.1c0,3-1.3,5.4-4.1,6.4l4.4,8.8h-5.4l-3.9-8.2h-3.5V323.2z
						 M1553.5,310.9c1.4,0,2.3-0.8,2.3-2.2v-1.4c0-1.4-0.9-2.2-2.3-2.2h-5.1v5.8L1553.5,310.9L1553.5,310.9z"/>
					<path d="M1563.9,312c0-7.6,3.9-11.6,9.9-11.6s9.9,4,9.9,11.6s-3.9,11.6-9.9,11.6S1563.9,319.6,1563.9,312z M1578.4,313.7v-3.3
						c0-3.6-1.8-5.6-4.7-5.6s-4.7,2-4.7,5.6v3.3c0,3.6,1.8,5.6,4.7,5.6S1578.4,317.2,1578.4,313.7z"/>
					<path d="M1591.9,323.2l-7.2-22.3h4.9l3.3,10.7l1.8,7h0.1l1.7-7l3.3-10.7h4.8l-7.3,22.3H1591.9z"/>
					<path d="M1607.5,323.2v-22.3h15.2v4.3h-10.4v4.6h8.9v4.3h-8.9v4.8h10.4v4.3L1607.5,323.2L1607.5,323.2z"/>
				</g>
			</g>
		</g>
	</g>
</g>
<g>
	<g>
		<g>
			<g>
				<g class="st1">
					<path d="M766.2,159.8c0-10.4,5.3-16.1,13.6-16.1c5.6,0,9.3,2.3,11.5,7.2l-5.8,3c-0.8-2.6-2.4-4.3-5.7-4.3
						c-3.9,0-6.5,2.6-6.5,7.5v4.9c0,4.8,2.6,7.5,6.5,7.5c3.3,0,5.2-2.1,6.1-4.6l5.5,3.2c-2.3,4.7-6,7.3-11.6,7.3
						C771.6,175.5,766.2,170.2,766.2,159.8z"/>
					<path d="M814.8,175l-2.2-7.3h-10.3l-2.2,7.3h-6.8l10.1-30.7h8.3l10,30.7H814.8z M807.5,150.3h-0.2l-3.4,11.7h7.1L807.5,150.3z"
						/>
					<path d="M849.1,154.8h-0.2l-2.3,4.5l-6,10.9l-5.9-10.8l-2.3-4.8h-0.1v20.5H826v-30.7h7.1l7.5,14.4h0.1l7.5-14.4h7.1v30.7H849
						v-20.3L849.1,154.8L849.1,154.8z"/>
					<path d="M868.5,144.2V163c0,4.3,1.6,6.5,5.6,6.5s5.6-2.2,5.6-6.5v-18.8h6.5v18.1c0,9.1-3.3,13.1-12.1,13.1s-12.1-4-12.1-13.1
						v-18.1C862,144.2,868.5,144.2,868.5,144.2z"/>
					<path d="M902.2,160.4l-3-6.2h-0.1v20.7h-6.3v-30.7h7.3l8.4,14.5l3,6.2h0.1v-20.7h6.3v30.7h-7.3L902.2,160.4z"/>
					<path d="M924.8,144.2h11.6c8.2,0,13.5,5.1,13.5,15.4s-5.4,15.4-13.5,15.4h-11.6V144.2z M936.4,169c4,0,6.4-2.2,6.4-7v-4.8
						c0-4.9-2.5-7-6.4-7h-4.9V169H936.4z"/>
					<path d="M972.9,175l-2.2-7.3h-10.3l-2.2,7.3h-6.8l10.1-30.7h8.3l10,30.7H972.9z M965.6,150.3h-0.2L962,162h7.1L965.6,150.3z"/>
					<path d="M993.3,159.8c0-10.4,5.3-16.1,13.6-16.1c5.6,0,9.3,2.3,11.5,7.2l-5.8,3c-0.8-2.6-2.4-4.3-5.7-4.3
						c-3.9,0-6.5,2.6-6.5,7.5v4.9c0,4.8,2.6,7.5,6.5,7.5c3.3,0,5.2-2.1,6.1-4.6l5.5,3.2c-2.3,4.7-6,7.3-11.6,7.3
						C998.7,175.5,993.3,170.2,993.3,159.8z"/>
					<path d="M1023.2,175v-30.7h6.7v24.8h11.7v5.9H1023.2z"/>
					<path d="M1043.7,159.6c0-10.4,5.4-15.9,13.5-15.9c8.2,0,13.5,5.5,13.5,15.9s-5.4,15.9-13.5,15.9
						C1049.1,175.5,1043.7,170,1043.7,159.6z M1063.7,161.9v-4.6c0-4.9-2.4-7.7-6.4-7.7s-6.4,2.8-6.4,7.7v4.6c0,4.9,2.4,7.7,6.4,7.7
						S1063.7,166.8,1063.7,161.9z"/>
					<path d="M1082.7,144.2V163c0,4.3,1.6,6.5,5.6,6.5s5.6-2.2,5.6-6.5v-18.8h6.5v18.1c0,9.1-3.3,13.1-12.1,13.1s-12.1-4-12.1-13.1
						v-18.1C1076.2,144.2,1082.7,144.2,1082.7,144.2z"/>
					<path d="M1107,144.2h11.6c8.2,0,13.5,5.1,13.5,15.4s-5.4,15.4-13.5,15.4H1107V144.2z M1118.6,169c4,0,6.4-2.2,6.4-7v-4.8
						c0-4.9-2.5-7-6.4-7h-4.9V169H1118.6z"/>
				</g>
			</g>
		</g>
	</g>
	<g>
		<g>
			<g>
				<g class="st1">
					<path class="st2" d="M764.5,217.5l-4.1-18.1h3.9l1.7,8.7l1,5h0.1l1.1-5l2-8.7h4.3l2,8.7l1.1,5h0.1l1-5l1.7-8.7h3.8l-4.2,18.1
						h-4.5l-2.3-9.8l-0.9-4h-0.1l-0.9,4l-2.3,9.8H764.5z"/>
					<path class="st2" d="M785.3,210.7c0-4.4,2.4-7.1,6.4-7.1s6.4,2.7,6.4,7.1s-2.4,7.2-6.4,7.2
						C787.7,217.8,785.3,215.1,785.3,210.7z M794.1,212.1v-2.8c0-1.7-0.9-2.7-2.4-2.7s-2.4,1-2.4,2.7v2.8c0,1.7,0.9,2.7,2.4,2.7
						C793.3,214.8,794.1,213.8,794.1,212.1z"/>
					<path class="st2" d="M800.9,217.5v-13.7h3.9v3h0.1c0.3-1.5,1.4-3,3.5-3h0.7v3.6h-1c-2.2,0-3.3,0.5-3.3,2.1v8L800.9,217.5
						L800.9,217.5z"/>
					<path class="st2" d="M811.4,198.3h3.9v11.4h0.2l1.7-2.5l2.7-3.3h4.3l-4.6,5.2l5.1,8.4h-4.6l-3.1-5.8l-1.7,1.9v3.8h-3.9
						L811.4,198.3L811.4,198.3z"/>
					<path class="st2" d="M827.2,206.8h-1.9v-3h1.9v-1.6c0-2.6,1.4-4,4.1-4h2.5v3h-2.7v2.6h2.7v3h-2.7v10.7h-3.9L827.2,206.8
						L827.2,206.8z"/>
					<path class="st2" d="M839.7,217.5c-2.6,0-3.8-1.3-3.8-3.7v-15.5h3.9v16.3h1.7v3h-1.8L839.7,217.5L839.7,217.5z"/>
					<path class="st2" d="M842.9,210.7c0-4.4,2.4-7.1,6.4-7.1s6.4,2.7,6.4,7.1s-2.4,7.2-6.4,7.2
						C845.3,217.8,842.9,215.1,842.9,210.7z M851.7,212.1v-2.8c0-1.7-0.9-2.7-2.4-2.7s-2.4,1-2.4,2.7v2.8c0,1.7,0.9,2.7,2.4,2.7
						C850.9,214.8,851.7,213.8,851.7,212.1z"/>
					<path class="st2" d="M856.9,203.9h3.7l1.3,5.5l0.9,4.2h0.1l1.1-4.2l1.6-5.5h3.5l1.6,5.5l1.1,4.2h0.1l0.9-4.2l1.3-5.5h3.6
						l-3.8,13.7h-4l-1.7-5.8l-1-3.5h-0.1l-0.9,3.5l-1.7,5.8h-4L856.9,203.9z"/>
					<path class="st2" d="M886.5,217.5v-18.1h12.4v3.5h-8.4v3.7h7.2v3.5h-7.2v3.9h8.4v3.5L886.5,217.5L886.5,217.5z"/>
					<path class="st2" d="M902.1,217.5v-13.7h3.9v2.3h0.2c0.5-1.4,1.6-2.6,3.8-2.6c2.8,0,4.3,2,4.3,5.4v8.6h-3.9v-8.2
						c0-1.7-0.5-2.6-1.9-2.6c-1.3,0-2.5,0.6-2.5,2v8.8H902.1z"/>
					<path class="st2" d="M923,223c-4.7,0-6.5-1.2-6.5-3.2c0-1.5,1-2.4,2.6-2.6v-0.3c-1.3-0.2-2-1.2-2-2.4c0-1.4,1.3-2.2,2.6-2.4
						V212c-1.6-0.8-2.5-2.1-2.5-3.9c0-2.8,1.9-4.6,5.9-4.6c0.9,0,1.6,0.1,2.3,0.3v-0.5c0-1.4,0.8-2.1,2.1-2.1h2.2v2.9h-3v0.2
						c1.6,0.8,2.3,2.2,2.3,3.9c0,2.7-1.9,4.5-5.9,4.5c-0.9,0-1.7-0.1-2.4-0.3c-0.4,0.2-0.6,0.6-0.6,1.1c0,0.7,0.5,1,1.6,1h4
						c3.3,0,4.8,1.5,4.8,4C930.4,221.4,928.5,223,923,223z M924.6,217.8h-4.7c-0.3,0.3-0.5,0.8-0.5,1.2c0,1,0.8,1.5,2.9,1.5h1.6
						c2.1,0,2.9-0.5,2.9-1.5C926.7,218.2,926.2,217.8,924.6,217.8z M925.3,208.3V208c0-1.2-0.8-1.9-2.3-1.9s-2.3,0.7-2.3,1.9v0.3
						c0,1.2,0.8,1.9,2.3,1.9C924.5,210.1,925.3,209.5,925.3,208.3z"/>
					<path class="st2" d="M931.8,200.5v-0.6c0-1.1,0.7-1.9,2.2-1.9s2.2,0.8,2.2,1.9v0.6c0,1.1-0.7,1.9-2.2,1.9
						S931.8,201.6,931.8,200.5z M932.1,203.9h3.9v13.7h-3.9V203.9z"/>
					<path class="st2" d="M939.5,217.5v-13.7h3.9v2.3h0.2c0.5-1.4,1.6-2.6,3.8-2.6c2.8,0,4.3,2,4.3,5.4v8.6h-3.9v-8.2
						c0-1.7-0.5-2.6-1.9-2.6c-1.3,0-2.5,0.6-2.5,2v8.8H939.5z"/>
					<path class="st2" d="M954.2,210.7c0-4.3,2.3-7.1,6.4-7.1c4.5,0,6.4,3.3,6.4,7v1.1h-8.8v0.2c0,1.8,1,2.9,3,2.9
						c1.6,0,2.5-0.8,3.4-1.6l1.9,2.4c-1.2,1.4-3.2,2.3-5.7,2.3C956.6,217.8,954.2,215,954.2,210.7z M958.2,209.2v0.2h4.8v-0.2
						c0-1.7-0.8-2.8-2.3-2.8S958.2,207.5,958.2,209.2z"/>
					<path class="st2" d="M968.9,210.7c0-4.3,2.3-7.1,6.4-7.1c4.5,0,6.4,3.3,6.4,7v1.1h-8.8v0.2c0,1.8,1,2.9,3,2.9
						c1.6,0,2.5-0.8,3.4-1.6l1.9,2.4c-1.2,1.4-3.2,2.3-5.7,2.3C971.2,217.8,968.9,215,968.9,210.7z M972.9,209.2v0.2h4.8v-0.2
						c0-1.7-0.8-2.8-2.3-2.8C973.8,206.4,972.9,207.5,972.9,209.2z"/>
					<path class="st2" d="M984.4,217.5v-13.7h3.9v3h0.1c0.3-1.5,1.4-3,3.5-3h0.7v3.6h-1c-2.2,0-3.3,0.5-3.3,2.1v8L984.4,217.5
						L984.4,217.5z"/>
					<path class="st2" d="M993.9,210.7c0-4.3,2.3-7.1,6.4-7.1c4.5,0,6.4,3.3,6.4,7v1.1h-8.8v0.2c0,1.8,1,2.9,3,2.9
						c1.6,0,2.5-0.8,3.4-1.6l1.9,2.4c-1.2,1.4-3.2,2.3-5.7,2.3C996.3,217.8,993.9,215,993.9,210.7z M997.9,209.2v0.2h4.8v-0.2
						c0-1.7-0.8-2.8-2.3-2.8S997.9,207.5,997.9,209.2z"/>
					<path class="st2" d="M1017.8,215.2L1017.8,215.2c-0.5,1.5-2,2.6-3.8,2.6c-3.5,0-5.3-2.5-5.3-7.2c0-4.6,1.8-7.1,5.3-7.1
						c1.8,0,3.3,1.1,3.7,2.6h0.1v-7.9h3.9v19.2h-3.9V215.2z M1017.8,212.7v-4c0-1.2-1.1-2-2.5-2s-2.5,1.1-2.5,2.8v2.4
						c0,1.7,1.1,2.8,2.5,2.8S1017.8,213.9,1017.8,212.7z"/>
					<path class="st2" d="M1032.1,206.8h-1.9v-3h1.9v-1.6c0-2.6,1.4-4,4.1-4h2.5v3h-2.7v2.6h2.7v3h-2.7v10.7h-3.9V206.8
						L1032.1,206.8z"/>
					<path class="st2" d="M1039.9,210.7c0-4.4,2.4-7.1,6.4-7.1s6.4,2.7,6.4,7.1s-2.4,7.2-6.4,7.2S1039.9,215.1,1039.9,210.7z
						 M1048.7,212.1v-2.8c0-1.7-0.9-2.7-2.4-2.7s-2.4,1-2.4,2.7v2.8c0,1.7,0.9,2.7,2.4,2.7C1047.8,214.8,1048.7,213.8,1048.7,212.1z
						"/>
					<path class="st2" d="M1055.5,217.5v-13.7h3.9v3h0.1c0.3-1.5,1.4-3,3.5-3h0.7v3.6h-1c-2.2,0-3.3,0.5-3.3,2.1v8L1055.5,217.5
						L1055.5,217.5z"/>
					<path class="st2" d="M1071.7,208.6c0-6.1,3.2-9.5,8.1-9.5c3.3,0,5.5,1.4,6.8,4.3l-3.4,1.8c-0.5-1.5-1.4-2.5-3.4-2.5
						c-2.3,0-3.9,1.6-3.9,4.4v2.9c0,2.9,1.5,4.4,3.9,4.4c2,0,3.1-1.2,3.6-2.7l3.2,1.9c-1.4,2.8-3.5,4.3-6.9,4.3
						C1074.8,217.8,1071.7,214.7,1071.7,208.6z"/>
					<path class="st2" d="M1093,217.5c-2.6,0-3.8-1.3-3.8-3.7v-15.5h3.9v16.3h1.7v3h-1.8L1093,217.5L1093,217.5z"/>
					<path class="st2" d="M1096.2,210.7c0-4.4,2.4-7.1,6.4-7.1s6.4,2.7,6.4,7.1s-2.4,7.2-6.4,7.2
						C1098.6,217.8,1096.2,215.1,1096.2,210.7z M1105,212.1v-2.8c0-1.7-0.9-2.7-2.4-2.7s-2.4,1-2.4,2.7v2.8c0,1.7,0.9,2.7,2.4,2.7
						C1104.1,214.8,1105,213.8,1105,212.1z"/>
					<path class="st2" d="M1119.8,215.2L1119.8,215.2c-0.6,1.4-1.7,2.6-3.9,2.6c-2.8,0-4.3-2-4.3-5.4v-8.6h3.9v8.2
						c0,1.7,0.5,2.6,2,2.6c1.2,0,2.4-0.7,2.4-2v-8.9h3.9v13.7h-3.9L1119.8,215.2L1119.8,215.2z"/>
					<path class="st2" d="M1135.7,215.2L1135.7,215.2c-0.5,1.5-2,2.6-3.8,2.6c-3.5,0-5.3-2.5-5.3-7.2c0-4.6,1.8-7.1,5.3-7.1
						c1.8,0,3.3,1.1,3.7,2.6h0.1v-7.9h3.9v19.2h-3.9L1135.7,215.2L1135.7,215.2z M1135.7,212.7v-4c0-1.2-1.1-2-2.5-2
						c-1.5,0-2.5,1.1-2.5,2.8v2.4c0,1.7,1.1,2.8,2.5,2.8C1134.6,214.7,1135.7,213.9,1135.7,212.7z"/>
				</g>
			</g>
		</g>
	</g>
</g>
<g>
	<g>
		<g>
			<g>
				
					<linearGradient id="SVGID_6_" gradientUnits="userSpaceOnUse" x1="895.3571" y1="1338.6857" x2="1001.3571" y2="1338.6857" gradientTransform="matrix(1 0 0 -1 0 1411.3715)">
					<stop  offset="0.11" style="stop-color:#FF1E00"/>
					<stop  offset="0.2511" style="stop-color:#FF2700"/>
					<stop  offset="0.4813" style="stop-color:#FF3F00"/>
					<stop  offset="0.77" style="stop-color:#FF6700"/>
					<stop  offset="1" style="stop-color:#FF8B00"/>
				</linearGradient>
				<circle class="st10" cx="948.4" cy="72.7" r="53"/>
			</g>
		</g>
	</g>
</g>
<path class="st3" d="M983.2,71.6c-1.6-6-7-10.5-13.6-10.5c-1,0-2.1,0.1-3,0.3c-2.5-3.7-6.8-6.1-11.6-6.1c-7.1,0-13,5.3-13.9,12.2
	c-7.8,1-13.8,7.7-13.8,15.7c0,8.8,7.1,15.9,15.9,15.9h36.4c7.7,0,14-6.3,14-14C993.7,78.7,989.2,73.2,983.2,71.6z"/>
<path class="st8" d="M959.2,72.5h6.3V61.1h-6.2c-0.5-1.8-1.2-3.5-2.1-5.1l4.4-4.3l-8-8.1l-4.4,4.3c-0.8-0.5-1.6-0.9-2.5-1.2
	c-0.8-0.4-1.7-0.7-2.6-0.9v-6.1h-11.5v6.1c-1.8,0.5-3.5,1.2-5.1,2.1l-4.3-4.3l-8.1,8l4.3,4.3c-0.5,0.8-0.9,1.6-1.2,2.5
	c-0.4,0.8-0.7,1.7-0.9,2.6h-6.2v11.4h6.1c0.5,1.8,1.2,3.5,2.1,5.1l-4.5,4.4l8,8.1l4.5-4.4c0.8,0.5,1.7,0.9,2.5,1.2
	c0.9,0.4,1.7,0.7,2.6,0.9v6.4h11.4v-6.4c1.8-0.5,3.5-1.2,5.1-2.1l4.5,4.5l8.1-8l-4.5-4.5c0.5-0.8,0.9-1.6,1.2-2.5
	C958.6,74.3,958.9,73.4,959.2,72.5z M938.2,81.9c-8.3,0-15-6.7-15-15s6.7-15,15-15s15,6.7,15,15S946.6,81.9,938.2,81.9z"/>
<g>
	<g>
		<g>
			<path class="st11" d="M320.2,856.9h-6.7v7.3h-4v-17.8h3.8v7.1h6.7v-7.1h3.8v17.8H320v-7.3H320.2z"/>
			<path class="st11" d="M326.9,857.5c0-4.4,2.4-6.9,6.2-6.9s6.2,2.7,6.2,6.9c0,4.4-2.4,7.1-6.2,7.1S326.9,861.7,326.9,857.5z
				 M335.5,858.8v-2.7c0-1.6-0.9-2.7-2.4-2.7s-2.4,0.9-2.4,2.7v2.7c0,1.6,0.9,2.7,2.4,2.7S335.5,860.6,335.5,858.8z"/>
			<path class="st11" d="M342,864.2v-13.4h3.8v2.9h0.2c0.4-1.5,1.3-2.9,3.4-2.9h0.7v3.4h-0.9c-2.2,0-3.3,0.5-3.3,2v7.8h-4L342,864.2
				L342,864.2z"/>
			<path class="st11" d="M352,847.5V847c0-1.1,0.7-1.8,2.2-1.8s2.2,0.7,2.2,1.8v0.5c0,1.1-0.7,1.8-2.2,1.8
				C352.7,849.3,352,848.6,352,847.5z M352.4,850.8h3.8v13.4h-3.8V850.8z"/>
			<path class="st11" d="M358.9,864.2v-2.9l6.7-7.4h-6.4V851h10.7v2.9l-6.7,7.4h6.9v2.9H358.9z"/>
			<path class="st11" d="M371.6,857.5c0-4.4,2.4-6.9,6.2-6.9c3.8,0,6.2,2.7,6.2,6.9c0,4.4-2.4,7.1-6.2,7.1
				C374,864.6,371.6,861.7,371.6,857.5z M380.1,858.8v-2.7c0-1.6-0.9-2.7-2.4-2.7s-2.4,0.9-2.4,2.7v2.7c0,1.6,0.9,2.7,2.4,2.7
				C379.2,861.5,380.1,860.6,380.1,858.8z"/>
			<path class="st11" d="M386.9,864.2v-13.4h3.8v2.2h0.2c0.5-1.5,1.6-2.5,3.6-2.5c2.7,0,4.2,2,4.2,5.3v8.4h-3.8v-8
				c0-1.6-0.5-2.5-1.8-2.5s-2.4,0.5-2.4,2v8.7L386.9,864.2L386.9,864.2z"/>
			<path class="st11" d="M406.7,864.2c-2.5,0-4-1.3-4-3.8v-6.5h-1.8V851h0.9c1.1,0,1.3-0.5,1.3-1.5v-2.2h3.4v3.6h2.7v2.9h-2.7v7.4
				h2.4v2.9L406.7,864.2L406.7,864.2z"/>
			<path class="st11" d="M421.5,864.2c-1.3,0-2.4-0.9-2.5-2.4h-0.2c-0.4,1.8-1.8,2.7-4,2.7c-2.7,0-4.2-1.6-4.2-3.8
				c0-2.9,2.2-4.2,5.8-4.2h2.2v-0.8c0-1.3-0.7-2.2-2.2-2.2s-2.4,0.7-2.9,1.6l-2.2-2c1.1-1.6,2.5-2.5,5.4-2.5c3.8,0,5.6,1.8,5.6,4.9
				v5.8h1.3v2.9H421.5L421.5,864.2z M418.6,860v-1.6h-1.8c-1.5,0-2.2,0.5-2.2,1.5v0.4c0,0.9,0.5,1.5,1.8,1.5
				C417.6,861.8,418.6,861.3,418.6,860z"/>
			<path class="st11" d="M429.9,864.2c-2.5,0-3.8-1.3-3.8-3.6v-15.1h3.8v16h1.6v2.9h-1.6V864.2z"/>
			<path class="st11" d="M437.3,864.2c-2.5,0-3.8-1.3-3.8-3.6v-15.1h3.8v16h1.6v2.9h-1.6V864.2z"/>
			<path class="st11" d="M449.3,850.8h3.5l-5.1,15.4c-0.7,2-1.8,3.1-4.2,3.1h-2.4v-2.9h2.5l0.5-1.5l-4.7-14h3.8l2,6.2l0.9,3.8h0.2
				l0.9-3.8L449.3,850.8z"/>
			<path class="st11" d="M308.6,892l2.5-2.5c1.3,1.3,2.7,2,4.5,2s2.7-0.9,2.7-2.2c0-0.9-0.4-1.6-2-2l-1.8-0.2
				c-3.8-0.5-5.4-2.4-5.4-5.3c0-3.3,2.5-5.4,6.7-5.4c2.7,0,4.7,0.9,6.2,2.5l-2.5,2.5c-0.9-0.9-2-1.6-3.8-1.6s-2.5,0.7-2.5,1.8
				c0,1.3,0.5,1.6,2.2,2l1.8,0.4c3.6,0.5,5.4,2.2,5.4,5.3c0,3.5-2.5,5.8-6.9,5.8C312.2,894.9,310.1,893.8,308.6,892z"/>
			<path class="st11" d="M324.4,888c0-4.4,2.2-6.9,6.2-6.9c2.7,0,4.5,1.3,5.3,3.5l-3.1,1.3c-0.2-1.1-0.9-1.8-2.4-1.8
				s-2.4,1.1-2.4,2.7v2.5c0,1.6,0.7,2.7,2.4,2.7c1.5,0,2.2-0.9,2.5-2l2.9,1.3c-0.9,2.5-2.7,3.6-5.4,3.6
				C326.6,894.9,324.4,892.2,324.4,888z"/>
			<path class="st11" d="M348.2,894.7c-1.3,0-2.4-0.9-2.5-2.4h-0.2c-0.4,1.8-1.8,2.7-4,2.7c-2.7,0-4.2-1.6-4.2-3.8
				c0-2.9,2.2-4.2,5.8-4.2h2.2v-0.9c0-1.3-0.7-2.2-2.2-2.2s-2.4,0.7-2.9,1.6l-2.2-2c1.1-1.6,2.5-2.5,5.4-2.5c3.8,0,5.6,1.8,5.6,4.9
				v5.8h1.3v2.9h-2.1L348.2,894.7L348.2,894.7z M345.3,890.5V889h-1.8c-1.5,0-2.2,0.5-2.2,1.5v0.4c0,0.9,0.5,1.5,1.8,1.5
				C344.2,892.3,345.3,891.8,345.3,890.5z"/>
			<path class="st11" d="M356.5,894.7c-2.5,0-3.8-1.3-3.8-3.6V876h3.8v16h1.6v2.9h-1.6V894.7z"/>
			<path class="st11" d="M370.3,894.7c-1.3,0-2.4-0.9-2.5-2.4h-0.2c-0.4,1.8-1.8,2.7-4,2.7c-2.7,0-4.2-1.6-4.2-3.8
				c0-2.9,2.2-4.2,5.8-4.2h2.2v-0.9c0-1.3-0.7-2.2-2.2-2.2s-2.4,0.7-2.9,1.6l-2.2-2c1.1-1.6,2.5-2.5,5.4-2.5c3.8,0,5.6,1.8,5.6,4.9
				v5.8h1.3v2.9h-2.1L370.3,894.7L370.3,894.7z M367.4,890.5V889h-1.8c-1.5,0-2.2,0.5-2.2,1.5v0.4c0,0.9,0.7,1.5,1.8,1.5
				C366.3,892.3,367.4,891.8,367.4,890.5z"/>
			<path class="st11" d="M374.9,875.8h3.8v7.6h0.2c0.4-1.5,1.8-2.5,3.6-2.5c3.5,0,5.1,2.4,5.1,6.9s-1.8,7.1-5.1,7.1
				c-1.8,0-3.3-1.1-3.6-2.5h-0.2v2.2h-3.8V875.8z M383.6,889.1v-2.4c0-1.6-1.1-2.7-2.5-2.7c-1.5,0-2.5,0.7-2.5,2v4
				c0,1.3,1.1,2,2.5,2S383.6,890.7,383.6,889.1z"/>
			<path class="st11" d="M394.1,894.7c-2.5,0-3.8-1.3-3.8-3.6V876h3.8v16h1.6v2.9h-1.6V894.7z"/>
			<path class="st11" d="M397.2,888c0-4.2,2.2-6.9,6.2-6.9c4.4,0,6.2,3.3,6.2,6.9v1.1h-8.5v0.2c0,1.8,0.9,2.9,2.9,2.9
				c1.6,0,2.4-0.7,3.3-1.6l1.8,2.4c-1.3,1.5-3.1,2.2-5.6,2.2C399.6,894.9,397.2,892.2,397.2,888z M401.2,886.5v0.2h4.7v-0.2
				c0-1.6-0.7-2.7-2.2-2.7C402.3,883.8,401.2,884.9,401.2,886.5z"/>
		</g>
		<g>
			<polygon class="st11" points="232.5,860.2 226.7,866.2 245.6,884.9 277.4,853.1 271.4,847.3 245.6,873.1 			"/>
		</g>
		<g>
			<path class="st11" d="M277.4,853.1l-31.8,31.8L226.7,866l6-6l12.9,12.9l25.8-25.6L277.4,853.1z"/>
		</g>
	</g>
	<g>
		<g>
			<path class="st11" d="M714.3,852.4L714.3,852.4l-1.5,2.5l-3.5,6.4l-3.5-6.2l-1.3-2.7l0,0v11.8h-3.6v-17.8h4.2l4.4,8.4l0,0
				l4.4-8.4h4.2v17.8h-3.6v-11.8H714.3z"/>
			<path class="st11" d="M729.5,861.8L729.5,861.8c-0.5,1.3-1.6,2.5-3.8,2.5c-2.7,0-4.2-2-4.2-5.3v-8.4h3.8v8c0,1.6,0.5,2.5,1.8,2.5
				c1.1,0,2.4-0.7,2.4-2v-8.7h3.8v13.4h-3.8V861.8z"/>
			<path class="st11" d="M740.6,864.2c-2.5,0-3.8-1.3-3.8-3.6v-15.1h3.8v16h1.6v2.9h-1.6V864.2z"/>
			<path class="st11" d="M749.1,864.2c-2.5,0-4-1.3-4-3.8v-6.5h-1.8V851h0.9c1.1,0,1.3-0.5,1.3-1.5v-2.2h3.5v3.6h2.7v2.9h-2.8v7.4
				h2.4v2.9L749.1,864.2L749.1,864.2z"/>
			<path class="st11" d="M753.8,847.5V847c0-1.1,0.7-1.8,2.2-1.8s2.2,0.7,2.2,1.8v0.5c0,1.1-0.7,1.8-2.2,1.8
				C754.6,849.3,753.8,848.6,753.8,847.5z M754.2,850.8h3.8v13.4h-3.8V850.8z"/>
			<path class="st11" d="M766.9,858.2v-3.6h7.6v3.6H766.9z"/>
			<path class="st11" d="M782.7,857.5c0-4.4,2.2-6.9,6.2-6.9c2.7,0,4.5,1.3,5.3,3.5l-3.1,1.3c-0.2-1.1-0.9-1.8-2.4-1.8
				s-2.4,1.1-2.4,2.7v2.5c0,1.6,0.7,2.7,2.4,2.7c1.5,0,2.2-0.9,2.5-2l2.9,1.3c-0.9,2.5-2.7,3.6-5.4,3.6
				C785.1,864.4,782.7,861.7,782.7,857.5z"/>
			<path class="st11" d="M800.5,864.2c-2.5,0-3.8-1.3-3.8-3.6v-15.1h3.8v16h1.6v2.9h-1.6V864.2z"/>
			<path class="st11" d="M803.6,857.5c0-4.4,2.4-6.9,6.2-6.9s6.2,2.7,6.2,6.9s-2.4,7.1-6.2,7.1S803.6,861.7,803.6,857.5z
				 M812.3,858.8v-2.7c0-1.6-0.9-2.7-2.4-2.7s-2.4,0.9-2.4,2.7v2.7c0,1.6,0.9,2.7,2.4,2.7S812.3,860.6,812.3,858.8z"/>
			<path class="st11" d="M826.7,861.8L826.7,861.8c-0.5,1.3-1.6,2.5-3.8,2.5c-2.7,0-4.2-2-4.2-5.3v-8.4h3.8v8c0,1.6,0.5,2.5,1.8,2.5
				c1.1,0,2.4-0.7,2.4-2v-8.7h3.8v13.4h-3.8V861.8z"/>
			<path class="st11" d="M842.1,861.8L842.1,861.8c-0.5,1.5-2,2.5-3.6,2.5c-3.5,0-5.1-2.5-5.1-7.1s1.8-6.9,5.1-6.9
				c1.8,0,3.3,1.1,3.6,2.5h0.2v-7.6h3.8v18.9h-3.8v-2.4L842.1,861.8L842.1,861.8z M842.1,859.5v-4c0-1.3-1.1-2-2.5-2
				s-2.5,1.1-2.5,2.7v2.4c0,1.6,1.1,2.7,2.5,2.7S842.1,860.6,842.1,859.5z"/>
			<path class="st11" d="M847.7,868l7.6-22.7h3.1l-7.6,22.7H847.7z"/>
			<path class="st11" d="M714.3,882.9L714.3,882.9l-1.5,2.5l-3.5,6.4l-3.5-6.2l-1.3-2.7l0,0v11.8h-3.6v-17.8h4.2l4.4,8.4l0,0
				l4.4-8.4h4.2v17.8h-3.6v-11.8H714.3z"/>
			<path class="st11" d="M729.5,892.3L729.5,892.3c-0.5,1.3-1.6,2.5-3.8,2.5c-2.7,0-4.2-2-4.2-5.3v-8.4h3.8v8c0,1.6,0.5,2.5,1.8,2.5
				c1.1,0,2.4-0.7,2.4-2v-8.7h3.8v13.4h-3.8V892.3z"/>
			<path class="st11" d="M740.6,894.7c-2.5,0-3.8-1.3-3.8-3.6V876h3.8v16h1.6v2.9h-1.6V894.7z"/>
			<path class="st11" d="M749.1,894.7c-2.5,0-4-1.3-4-3.8v-6.5h-1.8v-2.9h0.9c1.1,0,1.3-0.5,1.3-1.5v-2.2h3.5v3.6h2.7v2.9h-2.8v7.4
				h2.4v2.9L749.1,894.7L749.1,894.7z"/>
			<path class="st11" d="M753.8,878v-0.5c0-1.1,0.7-1.8,2.2-1.8s2.2,0.7,2.2,1.8v0.5c0,1.1-0.7,1.8-2.2,1.8
				C754.6,879.8,753.8,879.1,753.8,878z M754.2,881.3h3.8v13.4h-3.8V881.3z"/>
			<path class="st11" d="M766.9,888.7v-3.6h7.6v3.6H766.9z"/>
			<path class="st11" d="M787.4,894.7c-2.5,0-3.8-1.3-3.8-3.6V876h3.8v16h1.6v2.9h-1.6V894.7z"/>
			<path class="st11" d="M790.5,888c0-4.4,2.4-6.9,6.2-6.9s6.2,2.7,6.2,6.9s-2.4,7.1-6.2,7.1S790.5,892.2,790.5,888z M799.1,889.3
				v-2.7c0-1.6-0.9-2.7-2.4-2.7s-2.4,0.9-2.4,2.7v2.7c0,1.6,0.9,2.7,2.4,2.7C798.1,892,799.1,891.1,799.1,889.3z"/>
			<path class="st11" d="M804.9,888c0-4.4,2.2-6.9,6.2-6.9c2.7,0,4.5,1.3,5.3,3.5l-3.1,1.3c-0.2-1.1-0.9-1.8-2.4-1.8
				s-2.4,1.1-2.4,2.7v2.5c0,1.6,0.7,2.7,2.4,2.7c1.5,0,2.2-0.9,2.5-2l2.9,1.3c-0.9,2.5-2.7,3.6-5.4,3.6
				C807,894.9,804.9,892.2,804.9,888z"/>
			<path class="st11" d="M828.7,894.7c-1.3,0-2.4-0.9-2.5-2.4h-0.3c-0.4,1.8-1.8,2.7-4,2.7c-2.7,0-4.2-1.6-4.2-3.8
				c0-2.9,2.2-4.2,5.8-4.2h2.2v-0.9c0-1.3-0.7-2.2-2.2-2.2s-2.4,0.7-2.9,1.6l-2.2-2c1.1-1.6,2.5-2.5,5.4-2.5c3.8,0,5.6,1.8,5.6,4.9
				v5.8h1.3v2.9h-2L828.7,894.7L828.7,894.7z M825.7,890.5V889h-1.8c-1.5,0-2.2,0.5-2.2,1.5v0.4c0,0.9,0.5,1.5,1.8,1.5
				C824.7,892.3,825.7,891.8,825.7,890.5z"/>
			<path class="st11" d="M837.7,894.7c-2.5,0-4-1.3-4-3.8v-6.5h-1.8v-2.9h0.9c1.1,0,1.3-0.5,1.3-1.5v-2.2h3.5v3.6h2.7v2.9h-2.7v7.4
				h2.4v2.9L837.7,894.7L837.7,894.7z"/>
			<path class="st11" d="M842.6,878v-0.5c0-1.1,0.7-1.8,2.2-1.8s2.2,0.7,2.2,1.8v0.5c0,1.1-0.7,1.8-2.2,1.8
				C843.2,879.8,842.6,879.1,842.6,878z M842.8,881.3h3.8v13.4h-3.8V881.3z"/>
			<path class="st11" d="M849.4,888c0-4.4,2.4-6.9,6.2-6.9s6.2,2.7,6.2,6.9s-2.4,7.1-6.2,7.1S849.4,892.2,849.4,888z M857.9,889.3
				v-2.7c0-1.6-0.9-2.7-2.4-2.7s-2.4,0.9-2.4,2.7v2.7c0,1.6,0.9,2.7,2.4,2.7S857.9,891.1,857.9,889.3z"/>
			<path class="st11" d="M864.4,894.7v-13.4h3.8v2.2h0.2c0.5-1.5,1.6-2.5,3.6-2.5c2.7,0,4.2,2,4.2,5.3v8.4h-3.8v-8
				c0-1.6-0.5-2.5-1.8-2.5s-2.4,0.5-2.4,2v8.7h-3.8V894.7z"/>
			<path class="st11" d="M881.5,884.7l-1.5-1.1l2.4-2.9l-3.6-0.9l0.5-1.6l3.5,1.3l-0.2-3.8h1.8l-0.2,3.8l3.5-1.3l0.5,1.6l-3.6,0.9
				l2.4,2.9l-1.5,1.1l-2-3.1L881.5,884.7z"/>
		</g>
		<g>
			<polygon class="st11" points="626.2,860.2 620.2,866.2 639.1,884.9 670.9,853.1 665,847.3 639.1,873.1 			"/>
		</g>
		<g>
			<path class="st11" d="M670.9,853.1l-31.8,31.8L620.2,866l6-6l12.9,12.9l26-26L670.9,853.1z"/>
		</g>
	</g>
	<g>
		<g>
			<path class="st11" d="M1134.2,861.5l2.5-2.5c1.3,1.3,2.7,2,4.5,2s2.7-0.9,2.7-2.2c0-0.9-0.4-1.6-2-2l-1.8-0.2
				c-3.8-0.5-5.4-2.4-5.4-5.3c0-3.3,2.5-5.4,6.7-5.4c2.7,0,4.7,0.9,6.2,2.5l-2.5,2.5c-0.9-0.9-2-1.6-3.8-1.6s-2.5,0.7-2.5,1.8
				c0,1.3,0.5,1.6,2.2,2l1.8,0.4c3.6,0.5,5.4,2.2,5.4,5.3c0,3.4-2.5,5.8-6.9,5.8C1137.9,864.4,1135.7,863.3,1134.2,861.5z"/>
			<path class="st11" d="M1150,857.5c0-4.2,2.2-6.9,6.2-6.9c4.4,0,6.2,3.3,6.2,6.9v1.1h-8.5v0.2c0,1.8,0.9,2.9,2.9,2.9
				c1.6,0,2.4-0.7,3.3-1.6l1.8,2.4c-1.3,1.5-3.1,2.2-5.6,2.2C1152.4,864.4,1150,861.7,1150,857.5z M1154,856v0.2h4.7V856
				c0-1.6-0.7-2.7-2.2-2.7S1154,854.4,1154,856z"/>
			<path class="st11" d="M1164.4,857.5c0-4.4,2.2-6.9,6.2-6.9c2.7,0,4.5,1.3,5.3,3.5l-3.1,1.3c-0.2-1.1-0.9-1.8-2.4-1.8
				s-2.4,1.1-2.4,2.7v2.5c0,1.6,0.7,2.7,2.4,2.7c1.5,0,2.2-0.9,2.5-2l2.9,1.3c-0.9,2.5-2.7,3.6-5.4,3.6
				C1166.6,864.4,1164.4,861.7,1164.4,857.5z"/>
			<path class="st11" d="M1186.2,861.8L1186.2,861.8c-0.5,1.3-1.6,2.5-3.8,2.5c-2.7,0-4.2-2-4.2-5.3v-8.4h3.8v8
				c0,1.6,0.5,2.5,1.8,2.5c1.1,0,2.4-0.7,2.4-2v-8.7h3.8v13.4h-3.8L1186.2,861.8L1186.2,861.8z"/>
			<path class="st11" d="M1193.4,864.2v-13.4h3.8v2.9h0.2c0.4-1.5,1.3-2.9,3.5-2.9h0.7v3.4h-0.9c-2.2,0-3.3,0.5-3.3,2v7.8h-4
				L1193.4,864.2L1193.4,864.2z"/>
			<path class="st11" d="M1203.4,847.5V847c0-1.1,0.7-1.8,2.2-1.8s2.2,0.7,2.2,1.8v0.5c0,1.1-0.7,1.8-2.2,1.8
				C1204.2,849.3,1203.4,848.6,1203.4,847.5z M1203.8,850.8h3.8v13.4h-3.8V850.8z"/>
			<path class="st11" d="M1215.8,864.2c-2.5,0-4-1.3-4-3.8v-6.5h-1.8V851h0.9c1.1,0,1.3-0.5,1.3-1.5v-2.2h3.5v3.6h2.7v2.9h-2.7v7.4
				h2.4v2.9L1215.8,864.2L1215.8,864.2z"/>
			<path class="st11" d="M1228.9,850.8h3.4l-5.1,15.4c-0.7,2-1.8,3.1-4.2,3.1h-2.4v-2.9h2.5l0.5-1.5l-4.7-14h3.8l2,6.2l0.9,3.8h0.2
				l0.9-3.8L1228.9,850.8z"/>
			<path class="st11" d="M1251,862.7c-1.1,0.9-2.5,1.8-5.1,1.8c-4,0-6-2.2-6-4.9c0-2.4,1.5-3.8,3.6-4.9c-0.9-1.1-2-2.5-2-4.2
				c0-2.4,2-4.2,5.3-4.2c2.9,0,5.1,1.5,5.1,4c0,2.2-1.6,3.6-3.5,4.7l2.7,2.9c0.4-1.1,0.7-2.4,0.7-3.5h4.2v3.1h-1.6
				c-0.4,1.1-0.7,2-1.1,2.9l3.5,3.8h-4.5L1251,862.7z M1249,860.6l-3.8-4c-1.1,0.7-1.6,1.3-1.6,2.2v0.2c0,1.3,0.9,2.2,2.7,2.2
				C1247.6,861.3,1248.3,861.1,1249,860.6z M1245,850.4L1245,850.4c0,0.7,0.4,1.3,1.5,2.5c1.3-0.7,1.8-1.5,1.8-2.4v-0.2
				c0-0.9-0.7-1.5-1.6-1.5C1245.7,848.9,1245,849.5,1245,850.4z"/>
			<path class="st11" d="M1134.6,885.8c0-6,3.1-9.3,7.8-9.3c3.3,0,5.3,1.3,6.7,4.2l-3.3,1.8c-0.5-1.5-1.5-2.5-3.3-2.5
				c-2.2,0-3.8,1.5-3.8,4.4v2.9c0,2.7,1.5,4.4,3.8,4.4c2,0,3.1-1.3,3.5-2.7l3.1,1.8c-1.3,2.7-3.5,4.2-6.7,4.2
				C1137.7,894.9,1134.6,891.8,1134.6,885.8z"/>
			<path class="st11" d="M1150.8,888c0-4.4,2.4-6.9,6.2-6.9s6.2,2.7,6.2,6.9s-2.4,7.1-6.2,7.1S1150.8,892.2,1150.8,888z
				 M1159.3,889.3v-2.7c0-1.6-0.9-2.7-2.4-2.7s-2.4,0.9-2.4,2.7v2.7c0,1.6,0.9,2.7,2.4,2.7S1159.3,891.1,1159.3,889.3z"/>
			<path class="st11" d="M1166,894.7v-13.4h3.8v2.2h0.2c0.5-1.5,1.6-2.5,3.6-2.5c1.8,0,3.1,0.9,3.8,2.7l0,0c0.5-1.5,2-2.7,4-2.7
				c2.5,0,4,2,4,5.3v8.4h-3.8v-8c0-1.8-0.5-2.5-1.8-2.5c-1.1,0-2.2,0.5-2.2,2v8.7h-3.8v-8c0-1.8-0.5-2.5-1.8-2.5
				c-1.1,0-2.2,0.5-2.2,2v8.7h-3.8L1166,894.7L1166,894.7z"/>
			<path class="st11" d="M1188.7,881.3h3.8v2.2h0.2c0.4-1.5,1.8-2.5,3.6-2.5c3.5,0,5.1,2.4,5.1,6.9s-1.8,7.1-5.1,7.1
				c-1.8,0-3.3-1.1-3.6-2.5h-0.2v7.3h-3.8V881.3z M1197.4,889.1v-2.4c0-1.6-1.1-2.7-2.5-2.7c-1.5,0-2.5,0.7-2.5,2v4
				c0,1.3,1.1,2,2.5,2S1197.4,890.7,1197.4,889.1z"/>
			<path class="st11" d="M1207.8,894.7c-2.5,0-3.8-1.3-3.8-3.6V876h3.8v16h1.6v2.9h-1.6V894.7z"/>
			<path class="st11" d="M1211.6,878v-0.5c0-1.1,0.7-1.8,2.2-1.8s2.2,0.7,2.2,1.8v0.5c0,1.1-0.7,1.8-2.2,1.8
				C1212.1,879.8,1211.6,879.1,1211.6,878z M1211.8,881.3h3.8v13.4h-3.8V881.3z"/>
			<path class="st11" d="M1229,894.7c-1.3,0-2.4-0.9-2.5-2.4h-0.2c-0.4,1.8-1.8,2.7-4,2.7c-2.7,0-4.2-1.6-4.2-3.8
				c0-2.9,2.2-4.2,5.8-4.2h2.2v-0.9c0-1.3-0.7-2.2-2.2-2.2s-2.4,0.7-2.9,1.6l-2.2-2c1.1-1.6,2.5-2.5,5.4-2.5c3.8,0,5.6,1.8,5.6,4.9
				v5.8h1.3v2.9h-2.1L1229,894.7L1229,894.7z M1226.1,890.5V889h-1.8c-1.5,0-2.2,0.5-2.2,1.5v0.4c0,0.9,0.7,1.5,1.8,1.5
				S1226.1,891.8,1226.1,890.5z"/>
			<path class="st11" d="M1233.6,894.7v-13.4h3.8v2.2h0.2c0.5-1.5,1.6-2.5,3.6-2.5c2.7,0,4.2,2,4.2,5.3v8.4h-3.8v-8
				c0-1.6-0.5-2.5-1.8-2.5s-2.4,0.5-2.4,2v8.7h-3.8L1233.6,894.7L1233.6,894.7z"/>
			<path class="st11" d="M1247.9,888c0-4.4,2.2-6.9,6.2-6.9c2.7,0,4.5,1.3,5.3,3.5l-3.1,1.3c-0.2-1.1-0.9-1.8-2.4-1.8
				s-2.4,1.1-2.4,2.7v2.5c0,1.6,0.7,2.7,2.4,2.7c1.5,0,2.2-0.9,2.5-2l2.9,1.3c-0.9,2.5-2.7,3.6-5.4,3.6
				C1250.1,894.9,1247.9,892.2,1247.9,888z"/>
			<path class="st11" d="M1260.8,888c0-4.2,2.2-6.9,6.2-6.9c4.4,0,6.2,3.3,6.2,6.9v1.1h-8.5v0.2c0,1.8,0.9,2.9,2.9,2.9
				c1.6,0,2.4-0.7,3.3-1.6l1.8,2.4c-1.3,1.5-3.1,2.2-5.6,2.2C1263.2,894.9,1260.8,892.2,1260.8,888z M1264.8,886.5v0.2h4.7v-0.2
				c0-1.6-0.7-2.7-2.2-2.7S1264.8,884.9,1264.8,886.5z"/>
		</g>
		<g>
			<polygon class="st11" points="1058.3,860.2 1052.5,866.2 1071.4,884.9 1103.2,853.1 1097.2,847.3 1071.4,873.1 			"/>
		</g>
	</g>
	<g>
		<g>
			<path class="st11" d="M1570.8,849.9v14.3h-3.8v-14.3h-4.7v-3.5h13.4v3.5H1570.8z"/>
			<path class="st11" d="M1575.5,857.5c0-4.2,2.2-6.9,6.2-6.9c4.4,0,6.2,3.3,6.2,6.9v1.1h-8.5v0.2c0,1.8,0.9,2.9,2.9,2.9
				c1.6,0,2.4-0.7,3.3-1.6l1.8,2.4c-1.3,1.5-3.1,2.2-5.6,2.2C1577.8,864.4,1575.5,861.7,1575.5,857.5z M1579.3,856v0.2h4.7V856
				c0-1.6-0.7-2.7-2.2-2.7S1579.3,854.4,1579.3,856z"/>
			<path class="st11" d="M1589.8,857.5c0-4.4,2.2-6.9,6.2-6.9c2.7,0,4.5,1.3,5.3,3.5l-3.1,1.3c-0.2-1.1-0.9-1.8-2.4-1.8
				s-2.4,1.1-2.4,2.7v2.5c0,1.6,0.7,2.7,2.4,2.7c1.5,0,2.2-0.9,2.5-2l2.9,1.3c-0.9,2.5-2.7,3.6-5.4,3.6
				C1592,864.4,1589.8,861.7,1589.8,857.5z"/>
			<path class="st11" d="M1603.8,845.3h3.8v7.8h0.2c0.5-1.5,1.6-2.5,3.6-2.5c2.7,0,4.2,2,4.2,5.3v8.4h-3.8v-8c0-1.6-0.5-2.5-1.8-2.5
				s-2.4,0.5-2.4,2v8.7h-3.8L1603.8,845.3L1603.8,845.3z"/>
			<path class="st11" d="M1618.9,864.2v-13.4h3.8v2.2h0.2c0.5-1.5,1.6-2.5,3.6-2.5c2.7,0,4.2,2,4.2,5.3v8.4h-3.8v-8
				c0-1.6-0.5-2.5-1.8-2.5s-2.4,0.5-2.4,2v8.7L1618.9,864.2L1618.9,864.2z"/>
			<path class="st11" d="M1633.8,847.5V847c0-1.1,0.7-1.8,2.2-1.8s2.2,0.7,2.2,1.8v0.5c0,1.1-0.7,1.8-2.2,1.8
				C1634.3,849.3,1633.8,848.6,1633.8,847.5z M1634.1,850.8h3.8v13.4h-3.8V850.8z"/>
			<path class="st11" d="M1640.5,857.5c0-4.4,2.2-6.9,6.2-6.9c2.7,0,4.5,1.3,5.3,3.5l-3.1,1.3c-0.2-1.1-0.9-1.8-2.4-1.8
				s-2.4,1.1-2.4,2.7v2.5c0,1.6,0.7,2.7,2.4,2.7c1.5,0,2.2-0.9,2.5-2l2.9,1.3c-0.9,2.5-2.7,3.6-5.4,3.6
				C1642.7,864.4,1640.5,861.7,1640.5,857.5z"/>
			<path class="st11" d="M1664.3,864.2c-1.3,0-2.4-0.9-2.5-2.4h-0.2c-0.4,1.8-1.8,2.7-4,2.7c-2.7,0-4.2-1.6-4.2-3.8
				c0-2.9,2.2-4.2,5.8-4.2h2.2v-0.8c0-1.3-0.7-2.2-2.2-2.2s-2.4,0.7-2.9,1.6l-2.2-2c1.1-1.6,2.5-2.5,5.4-2.5c3.8,0,5.6,1.8,5.6,4.9
				v5.8h1.3v2.9H1664.3L1664.3,864.2z M1661.4,860v-1.6h-1.8c-1.5,0-2.2,0.5-2.2,1.5v0.4c0,0.9,0.5,1.5,1.8,1.5
				C1660.3,861.8,1661.4,861.3,1661.4,860z"/>
			<path class="st11" d="M1672.6,864.2c-2.5,0-3.8-1.3-3.8-3.6v-15.1h3.8v16h1.6v2.9h-1.6V864.2z"/>
			<path class="st11" d="M1562.4,892l2.5-2.5c1.3,1.3,2.7,2,4.5,2s2.7-0.9,2.7-2.2c0-0.9-0.4-1.6-2-2l-1.8-0.2
				c-3.8-0.5-5.4-2.4-5.4-5.3c0-3.3,2.5-5.4,6.7-5.4c2.7,0,4.7,0.9,6.2,2.5l-2.5,2.5c-0.9-0.9-2-1.6-3.8-1.6s-2.5,0.7-2.5,1.8
				c0,1.3,0.5,1.6,2.2,2l1.8,0.4c3.6,0.5,5.4,2.2,5.4,5.3c0,3.5-2.5,5.8-6.9,5.8C1566,894.9,1563.9,893.8,1562.4,892z"/>
			<path class="st11" d="M1586.9,892.3L1586.9,892.3c-0.5,1.3-1.6,2.5-3.8,2.5c-2.7,0-4.2-2-4.2-5.3v-8.4h3.8v8
				c0,1.6,0.5,2.5,1.8,2.5c1.1,0,2.4-0.7,2.4-2v-8.7h3.8v13.4h-3.8L1586.9,892.3L1586.9,892.3z"/>
			<path class="st11" d="M1594.2,881.3h3.8v2.2h0.2c0.4-1.5,1.8-2.5,3.6-2.5c3.5,0,5.1,2.4,5.1,6.9s-1.8,7.1-5.1,7.1
				c-1.8,0-3.3-1.1-3.6-2.5h-0.2v7.3h-3.8V881.3z M1602.9,889.1v-2.4c0-1.6-1.1-2.7-2.5-2.7c-1.5,0-2.5,0.7-2.5,2v4
				c0,1.3,1.1,2,2.5,2S1602.9,890.7,1602.9,889.1z"/>
			<path class="st11" d="M1609.6,881.3h3.8v2.2h0.2c0.4-1.5,1.8-2.5,3.6-2.5c3.5,0,5.1,2.4,5.1,6.9s-1.8,7.1-5.1,7.1
				c-1.8,0-3.3-1.1-3.6-2.5h-0.2v7.3h-3.8V881.3z M1618.3,889.1v-2.4c0-1.6-1.1-2.7-2.5-2.7s-2.5,0.7-2.5,2v4c0,1.3,1.1,2,2.5,2
				S1618.3,890.7,1618.3,889.1z"/>
			<path class="st11" d="M1624.2,888c0-4.4,2.4-6.9,6.2-6.9s6.2,2.7,6.2,6.9s-2.4,7.1-6.2,7.1S1624.2,892.2,1624.2,888z
				 M1632.9,889.3v-2.7c0-1.6-0.9-2.7-2.4-2.7s-2.4,0.9-2.4,2.7v2.7c0,1.6,0.9,2.7,2.4,2.7S1632.9,891.1,1632.9,889.3z"/>
			<path class="st11" d="M1639.4,894.7v-13.4h3.8v2.9h0.2c0.4-1.5,1.3-2.9,3.4-2.9h0.7v3.4h-0.9c-2.2,0-3.3,0.5-3.3,2v7.8h-4v0.2
				H1639.4z"/>
			<path class="st11" d="M1654.5,894.7c-2.5,0-4-1.3-4-3.8v-6.5h-1.8v-2.9h0.9c1.1,0,1.3-0.5,1.3-1.5v-2.2h3.5v3.6h2.7v2.9h-2.7v7.4
				h2.4v2.9L1654.5,894.7L1654.5,894.7z"/>
		</g>
		<g>
			<g>
				<polygon class="st11" points="1523.7,847.3 1498,873.1 1484.9,860.2 1479.1,866.2 1498,884.9 1529.7,853.1 				"/>
			</g>
			<g>
				<path class="st11" d="M1498,884.9l-18.9-18.9l6-6l12.9,12.9l26-26l6,6L1498,884.9z"/>
			</g>
		</g>
	</g>
</g>
<g>
	<g>
		<path class="st11" d="M1726,971.8l-1.5-1.1l2.4-2.9l-3.6-0.9l0.5-1.6l3.5,1.3l-0.2-3.8h1.8l-0.2,3.8l3.5-1.3l0.5,1.6l-3.6,0.9
			l2.4,2.9l-1.5,1.1l-2-3.1L1726,971.8z"/>
		<path class="st11" d="M1735.1,972.9c0-6,2.7-9.3,7.1-9.3c2.9,0,4.9,1.5,6.2,3.8l-1.8,1.1c-0.7-1.8-2.2-3.1-4.4-3.1
			c-3.1,0-4.9,2.4-4.9,6v2.7c0,3.6,1.8,5.8,4.9,5.8c2.2,0,3.8-1.3,4.5-3.3l1.6,1.1c-1.1,2.5-3.3,4-6.2,4
			C1737.6,982,1735.1,978.9,1735.1,972.9z"/>
		<path class="st11" d="M1750.5,975.1c0-4.2,2.4-6.9,6-6.9c3.5,0,6,2.7,6,6.9s-2.4,6.9-6,6.9C1752.9,982,1750.5,979.3,1750.5,975.1z
			 M1760.1,976v-1.8c0-2.7-1.6-4.2-3.8-4.2c-2.2,0-3.8,1.3-3.8,4.2v1.8c0,2.7,1.6,4.2,3.8,4.2C1758.7,980.2,1760.1,978.9,1760.1,976
			z"/>
		<path class="st11" d="M1765.8,981.6v-13.1h2v2.2h0.2c0.5-1.3,1.5-2.4,3.5-2.4c1.8,0,3.3,0.7,4,2.7l0,0c0.5-1.5,1.8-2.7,4-2.7
			c2.7,0,4.4,1.8,4.4,5.1v8.4h-2v-8c0-2.4-0.9-3.5-2.9-3.5c-1.6,0-3.1,0.7-3.1,2.5v9.1h-2v-8c0-2.4-0.9-3.5-2.9-3.5
			c-1.6,0-3.1,0.7-3.1,2.5v9.1h-2L1765.8,981.6L1765.8,981.6z"/>
		<path class="st11" d="M1787.7,964.4V964c0-0.7,0.4-1.1,1.3-1.1s1.3,0.5,1.3,1.1v0.4c0,0.7-0.4,1.1-1.3,1.1
			C1788.1,965.5,1787.7,965.1,1787.7,964.4z M1787.9,968.6h2v13.1h-2V968.6z"/>
		<path class="st11" d="M1794.3,981.6v-13.1h2v2.2h0.2c0.7-1.5,1.8-2.4,3.6-2.4c2.7,0,4.4,1.8,4.4,5.1v8.4h-2v-8
			c0-2.4-1.1-3.5-2.9-3.5c-1.6,0-3.3,0.7-3.3,2.5v9.1h-2L1794.3,981.6L1794.3,981.6z"/>
		<path class="st11" d="M1813.3,987.1c-4.2,0-5.8-1.1-5.8-3.3c0-1.5,0.7-2.2,2-2.5v-0.4c-0.7-0.4-1.1-0.9-1.1-1.8
			c0-1.3,0.9-2,2.2-2.4v-0.2c-1.6-0.7-2.5-2.2-2.5-4c0-2.7,2-4.5,4.9-4.5c0.9,0,1.8,0.2,2.5,0.5v-0.2c0-1.1,0.4-1.8,1.5-1.8h2v1.8
			h-2.5v0.9c0.9,0.7,1.5,2,1.5,3.5c0,2.7-2,4.5-4.9,4.5c-0.4,0-0.9,0-1.3-0.2c-0.9,0.2-1.8,0.7-1.8,1.5c0,0.7,0.7,0.9,2,0.9h2.7
			c3.3,0,4.7,1.3,4.7,3.5C1819.7,985.8,1817.7,987.1,1813.3,987.1z M1815.2,981.6h-4.4c-0.9,0.4-1.3,0.9-1.3,1.8
			c0,1.1,0.7,2.2,2.9,2.2h1.8c2.2,0,3.6-0.7,3.6-2.2C1817.9,982.2,1817.2,981.6,1815.2,981.6z M1816.1,973.1v-0.7
			c0-1.8-1.1-2.5-2.9-2.5s-2.9,0.7-2.9,2.5v0.7c0,1.8,1.1,2.5,2.9,2.5S1816.1,974.9,1816.1,973.1z"/>
		<path class="st11" d="M1827,979.4l1.5-1.1c1.1,1.3,2.2,2,3.8,2c1.8,0,2.7-0.7,2.7-2.2c0-1.1-0.5-1.8-2.4-2l-1.1-0.2
			c-2.4-0.4-4.2-1.3-4.2-3.8s2-3.8,4.7-3.8c2.2,0,3.5,0.7,4.5,2.2l-1.3,1.3c-0.5-0.7-1.6-1.6-3.5-1.6c-1.6,0-2.5,0.7-2.5,2
			s0.9,1.8,2.5,2l1.1,0.2c2.9,0.4,4,1.6,4,3.6c0,2.5-1.8,4.2-4.9,4.2C1829.7,982,1828.1,980.9,1827,979.4z"/>
		<path class="st11" d="M1839.5,975.1c0-4.2,2.4-6.9,6-6.9c3.4,0,6,2.7,6,6.9s-2.4,6.9-6,6.9C1842,982,1839.5,979.3,1839.5,975.1z
			 M1849.1,976v-1.8c0-2.7-1.6-4.2-3.8-4.2s-3.8,1.3-3.8,4.2v1.8c0,2.7,1.6,4.2,3.8,4.2C1847.7,980.2,1849.1,978.9,1849.1,976z"/>
		<path class="st11" d="M1853.8,975.1c0-4.2,2.4-6.9,6-6.9c3.5,0,6,2.7,6,6.9s-2.4,6.9-6,6.9C1856.2,982,1853.8,979.3,1853.8,975.1z
			 M1863.5,976v-1.8c0-2.7-1.6-4.2-3.8-4.2s-3.8,1.3-3.8,4.2v1.8c0,2.7,1.6,4.2,3.8,4.2C1861.8,980.2,1863.5,978.9,1863.5,976z"/>
		<path class="st11" d="M1868.9,981.6v-13.1h2v2.2h0.2c0.7-1.5,1.8-2.4,3.6-2.4c2.7,0,4.4,1.8,4.4,5.1v8.4h-2v-8
			c0-2.4-1.1-3.5-2.9-3.5c-1.6,0-3.3,0.7-3.3,2.5v9.1h-2L1868.9,981.6L1868.9,981.6z"/>
	</g>
</g>
<g>
	<polygon class="st11" points="1879.1,944 21.9,944 21.9,157.2 718.5,157.2 718.5,159 23.7,159 23.7,942.2 1877.3,942.2 1877.3,159 
		1183.5,159 1183.5,157.2 1879.1,157.2 	"/>
</g>
</svg>
