<?xml version="1.0" encoding="utf-8"?>
<!-- Generator: Adobe Illustrator 22.0.1, SVG Export Plug-In . SVG Version: 6.00 Build 0)  -->
<svg version="1.1" id="Ebene_1" xmlns="http://www.w3.org/2000/svg" xmlns:xlink="http://www.w3.org/1999/xlink" x="0px" y="0px"
	 viewBox="0 0 431.9 376" style="enable-background:new 0 0 431.9 376;" xml:space="preserve">
<style type="text/css">
	.st0{opacity:0.6;}
	.st1{enable-background:new    ;}
	.st2{fill:#DBDBDB;}
	.st3{fill:#FFFFFF;}
	.st4{opacity:0.9;}
	.st5{fill:#FEFEFE;}
	.st6{fill:#F2F2F2;}
	.st7{clip-path:url(#SVGID_2_);}
	.st8{fill:#55D167;}
	.st9{fill:#CCCCCC;}
	.st10{fill:#F9C5AF;}
	.st11{fill:#2E0D00;}
	.st12{fill:#0A2F60;}
	.st13{fill:none;}
</style>
<g class="st0">
	<g>
		<g class="st1">
			<path class="st2" d="M16.1-0.3c-2.9,4.3-4.7,9.6-4.7,15l-0.4,234.6c0,12.6,9.4,21.5,21.1,19.9l377.3-53
				c11.7-1.6,21.2-13.2,21.2-25.8l0.4-190.6H16.1z"/>
			<path class="st3" d="M19.5,266.4c-0.3-0.2-0.5-0.3-0.7-0.5c-0.1-0.1-0.1-0.1-0.2-0.2c-0.3-0.2-0.6-0.5-0.9-0.7
				c-0.1,0-0.1-0.1-0.2-0.1c-0.2-0.2-0.5-0.4-0.7-0.6c-0.1-0.1-0.2-0.2-0.3-0.3c-0.2-0.2-0.3-0.4-0.5-0.5c-0.1-0.1-0.2-0.3-0.3-0.4
				c-0.1-0.2-0.3-0.3-0.4-0.5c-0.1-0.2-0.3-0.3-0.4-0.5c-0.1-0.2-0.2-0.3-0.3-0.5c-0.2-0.3-0.4-0.5-0.5-0.8
				c-0.1-0.1-0.2-0.3-0.2-0.4c-0.3-0.6-0.6-1.1-0.9-1.8c-0.1-0.2-0.1-0.3-0.2-0.5c-0.1-0.3-0.2-0.5-0.3-0.8
				c-0.1-0.2-0.1-0.4-0.2-0.6c-0.1-0.3-0.2-0.6-0.3-0.9c-0.1-0.2-0.1-0.4-0.2-0.6c-0.1-0.3-0.2-0.6-0.2-0.9c0-0.2-0.1-0.4-0.1-0.5
				c-0.1-0.4-0.1-0.8-0.2-1.1c0-0.1,0-0.3-0.1-0.4c0-0.1,0-0.2,0-0.3c0-0.4-0.1-0.7-0.1-1.1c0-0.2,0-0.3,0-0.5c0-0.4,0-0.8,0-1.2
				l0.4-234.6c0-0.4,0-0.8,0-1.1c0-0.4,0.1-0.9,0.1-1.3c0-0.2,0-0.3,0.1-0.4c0-0.3,0.1-0.5,0.1-0.8c0-0.2,0.1-0.4,0.1-0.6
				c0-0.2,0.1-0.4,0.1-0.5c0-0.2,0.1-0.4,0.1-0.6C12,9.1,12,8.9,12,8.8c0.1-0.3,0.1-0.5,0.2-0.8c0-0.1,0-0.2,0.1-0.3
				c0.1-0.3,0.2-0.7,0.3-1c0-0.1,0.1-0.2,0.1-0.2c0.1-0.3,0.2-0.5,0.3-0.8c0-0.1,0.1-0.2,0.1-0.3c0.1-0.2,0.2-0.4,0.3-0.7
				c0.1-0.1,0.1-0.2,0.2-0.4c0.1-0.2,0.2-0.4,0.3-0.6c0.1-0.1,0.1-0.2,0.2-0.4c0.1-0.2,0.2-0.5,0.3-0.7c0-0.1,0.1-0.2,0.1-0.3
				C14.6,2,14.8,1.7,15,1.4c0,0,0-0.1,0.1-0.1c0.2-0.3,0.3-0.6,0.5-0.8c0.1-0.1,0.2-0.2,0.2-0.3C15.9,0,16-0.2,16.1-0.3H4.3
				c0,0,0,0,0,0c0,0.1-0.1,0.2-0.1,0.2C4.1,0.1,4.1,0.2,4,0.4c0,0.1-0.1,0.2-0.1,0.3c0,0,0,0.1-0.1,0.1C3.7,1.1,3.7,1.3,3.6,1.5
				c0,0.1-0.1,0.2-0.1,0.2c0,0,0,0,0,0c-0.1,0.3-0.2,0.6-0.3,1c0,0,0,0,0,0c0,0.1,0,0.2-0.1,0.3C3.1,3.3,3,3.5,2.9,3.7
				c0,0,0,0.1,0,0.1c0,0.2-0.1,0.3-0.1,0.5c0,0.2-0.1,0.3-0.1,0.5c0,0,0,0.1,0,0.1c0,0.2-0.1,0.4-0.1,0.5c0,0.1-0.1,0.3-0.1,0.4
				c0,0,0,0.1,0,0.1c0,0.3-0.1,0.5-0.1,0.8c0,0.1,0,0.2,0,0.4c0,0,0,0.1,0,0.1c0,0.4-0.1,0.9-0.1,1.3c0,0,0,0,0,0c0,0.4,0,0.7,0,1.1
				L1.8,244.3c0,0.2,0,0.4,0,0.6c0,0.2,0,0.4,0,0.5c0,0.2,0,0.3,0,0.5c0,0.4,0.1,0.7,0.1,1.1c0,0.1,0,0.2,0,0.3c0,0,0,0,0,0.1
				c0,0.1,0,0.2,0.1,0.3c0.1,0.4,0.1,0.8,0.2,1.1c0,0.2,0.1,0.4,0.1,0.5c0.1,0.3,0.1,0.6,0.2,0.9c0.1,0.2,0.1,0.4,0.2,0.6
				c0.1,0.3,0.2,0.6,0.3,0.9c0.1,0.2,0.1,0.4,0.2,0.6c0.1,0.3,0.2,0.5,0.3,0.8c0,0.1,0.1,0.2,0.1,0.3c0,0,0.1,0.1,0.1,0.1
				c0.3,0.6,0.6,1.2,0.9,1.8c0,0,0,0.1,0.1,0.1c0.1,0.1,0.1,0.2,0.2,0.3c0.2,0.3,0.3,0.5,0.5,0.8c0.1,0.1,0.1,0.2,0.2,0.2
				c0.1,0.1,0.1,0.1,0.2,0.2c0.1,0.2,0.3,0.4,0.4,0.5c0.1,0.1,0.1,0.2,0.2,0.3c0.1,0.1,0.1,0.1,0.2,0.2c0.1,0.1,0.2,0.3,0.3,0.4
				c0.1,0.1,0.1,0.2,0.2,0.3c0.1,0.1,0.2,0.2,0.3,0.3c0.1,0.1,0.2,0.2,0.3,0.3c0.1,0.1,0.1,0.1,0.2,0.2c0.2,0.2,0.3,0.3,0.5,0.5
				c0.1,0,0.1,0.1,0.2,0.1c0,0,0,0,0,0c0.2,0.2,0.5,0.4,0.7,0.6c0,0,0.1,0.1,0.1,0.1c0.1,0.1,0.1,0.1,0.2,0.2
				c0.1,0.1,0.3,0.2,0.4,0.3c0.1,0.1,0.2,0.2,0.4,0.2c0.1,0.1,0.2,0.1,0.2,0.2c0,0,0.1,0.1,0.1,0.1c0.2,0.1,0.5,0.3,0.7,0.4
				c0,0,0.1,0,0.1,0.1l9.1,5c-0.3-0.2-0.7-0.4-1-0.6C19.7,266.5,19.6,266.5,19.5,266.4z"/>
		</g>
	</g>
</g>
<g>
	<g class="st1">
		<g>
			<path class="st3" d="M315.7,70.6l-0.1,31.2l13.7-1.9l0,19l-22.8,3.2l-18.8-17.7l-18.8,22.9l-23.4,3.3l0-19l14.3-2l0.1-31.2
				l-29,4.1l0,15.4l-27.1,3.8l0-15.4l-13.1,1.8l0-20.6L165,71.1l0,0.3l-17.4-16.3l0.3,0l0-12.1l13.7-1.9l0.1-31.3l-28.9,4.1
				l-0.1,31.3l13.7-1.9l0,12.1l0.3,0l-17.4,21.2l0-0.3l-25.2,3.5l0,20.6l-13.7,1.9l-0.1,31.2l29-4.1l0.1-31.2l-13.7,1.9l0-19
				l22.8-3.2L147,95.6l18.8-22.9l23.4-3.3l0,19l-14.3,2l-0.1,31.2l29-4.1l0-14.1l27.1-3.8l0,14.1l13.1-1.8l0,20.6l25.8-3.6l0-0.3
				l17.4,16.3l-0.3,0l0,12.1l-13.7,1.9l-0.1,31.2l29-4.1l0.1-31.2l-13.7,1.9l0-12.1l-0.3,0l17.4-21.2l0,0.3l25.2-3.5l0-20.6
				l13.7-1.9l0.1-31.2L315.7,70.6z M134.2,43.3l0.1-27.9l25.9-3.6l-0.1,27.9L134.2,43.3z M117.6,100.1l-0.1,27.9l-25.9,3.6l0.1-27.9
				L117.6,100.1z M147,93.3l-16.8-15.8L147.1,57l16.8,15.8L147,93.3z M202.3,116.1l-25.9,3.6l0.1-27.9l25.9-3.6L202.3,116.1z
				 M232.4,111.8l0.1-27.9l25.9-3.6l-0.1,27.9L232.4,111.8z M300.6,156.7l-0.1,27.9l-25.9,3.6l0.1-27.9L300.6,156.7z M287.7,143
				l-16.8-15.8l16.8-20.5l16.8,15.8L287.7,143z M343.1,96.3l-25.9,3.6l0.1-27.9l25.9-3.6L343.1,96.3z"/>
			<path class="st3" d="M127.1,210.1l97-13.6l0.1-51l-97,13.6L127.1,210.1z M128.7,193.8l16.8-2.4l0,14.4l-16.8,2.4L128.7,193.8z
				 M128.7,177.3l16.8-2.4l0,14.9l-16.8,2.4L128.7,177.3z M222.5,178.9L147,189.5l0-14.9l75.6-10.6L222.5,178.9z M222.5,195
				l-75.6,10.6l0-14.4l75.6-10.6L222.5,195z M128.7,160.5l93.9-13.2l0,15.1l-93.9,13.2L128.7,160.5z"/>
		</g>
	</g>
</g>
<g class="st4">
	<path class="st5" d="M313.4,160.9c9.2-1.3,16.6,5.7,16.6,15.6l0,4.7c0,9.9-7.5,19-16.6,20.2l-138.9,19.5
		c-9.2,1.3-16.6-5.7-16.6-15.6l0-4.7c0-9.9,7.5-19,16.6-20.2L313.4,160.9z"/>
	<path class="st6" d="M317.7,159.9c-2.6-1.4-5.6-2-8.9-1.5L170,177.9c-9.2,1.3-16.6,10.3-16.6,20.2l0,4.7c0,6.4,3.1,11.5,7.7,14.1
		l4.6,2.5c-4.6-2.5-7.7-7.7-7.7-14.1l0-4.7c0-9.9,7.5-19,16.6-20.2l138.9-19.5c3.3-0.5,6.3,0.1,8.9,1.5L317.7,159.9z"/>
	<g>
		<g class="st1">
			<defs>
				<polygon id="SVGID_1_" class="st1" points="164.1,218 164.1,185.9 311.2,165.3 311.1,197.3 				"/>
			</defs>
			<clipPath id="SVGID_2_">
				<use xlink:href="#SVGID_1_"  style="overflow:visible;"/>
			</clipPath>
			<g class="st7">
				<path class="st8" d="M205.5,198l1.3-4.3c0.3-1.1,0.6-2.1,0.8-3c0.1,0.3,0.2,0.7,0.4,1.3c0.2,0.6,0.3,1,0.4,1.3l1.4,4.1
					L205.5,198 M208.9,188.3l-2.6,0.4l-5.5,16.6l2.5-0.4l1.4-4.6l5.6-0.8l1.4,4.2l2.5-0.4L208.9,188.3"/>
				<path class="st8" d="M227.7,185.7l-2.4,0.3l0,9.9c0,2.6-1.1,4-3.4,4.3c-1.2,0.2-2,0-2.6-0.6c-0.6-0.5-0.8-1.5-0.8-2.8l0-10
					l-2.4,0.3l0,10.1c0,1.8,0.5,3.2,1.5,4.1c1,0.9,2.4,1.2,4.2,1c1.2-0.2,2.3-0.6,3.1-1.1c0.9-0.6,1.5-1.4,2-2.3
					c0.5-0.9,0.7-2,0.7-3.1L227.7,185.7"/>
				<polyline class="st8" points="240.7,183.9 229.8,185.4 229.8,187.6 234.1,187 234.1,200.5 236.4,200.2 236.5,186.7 240.7,186.1 
					240.7,183.9 				"/>
				<path class="st8" d="M249.1,196.4c-1.4,0.2-2.5-0.2-3.2-1c-0.7-0.9-1.1-2.3-1.1-4.3c0-1.9,0.4-3.4,1.1-4.5
					c0.7-1.1,1.8-1.7,3.2-2c1.4-0.2,2.5,0.2,3.2,1c0.7,0.9,1.1,2.3,1.1,4.2c0,2-0.4,3.5-1.1,4.6
					C251.6,195.6,250.5,196.2,249.1,196.4 M249.1,182.4c-2.2,0.3-3.9,1.2-5.1,2.8s-1.8,3.6-1.8,6.2c0,2.6,0.6,4.5,1.8,5.8
					c1.2,1.3,2.9,1.7,5.1,1.4c2.2-0.3,3.9-1.3,5-2.8c1.2-1.6,1.8-3.7,1.8-6.2c0-2.6-0.6-4.5-1.8-5.7
					C253,182.6,251.3,182.1,249.1,182.4"/>
				<path class="st8" d="M274.1,179.2l-3.4,0.5l-4.2,13.1l-0.1,0l-4-11.9l-3.4,0.5l0,15.7l2.2-0.3l0-7.7c0-1.7,0-3.5-0.2-5.5l0.1,0
					l4.2,12.5l2.1-0.3l4.4-13.7l0.1,0c0,0.3-0.1,1-0.1,2.3c0,1.3-0.1,2.3-0.1,3.1l0,7.8l2.3-0.3L274.1,179.2"/>
				<path class="st8" d="M280.6,187.4l1.3-4.3c0.3-1.1,0.6-2.1,0.8-3c0.1,0.3,0.2,0.7,0.4,1.3c0.2,0.6,0.3,1,0.4,1.3l1.4,4.1
					L280.6,187.4 M284,177.7l-2.6,0.4l-5.5,16.6l2.5-0.4l1.4-4.6l5.6-0.8l1.4,4.2l2.5-0.4L284,177.7"/>
				<polyline class="st8" points="300.7,175.4 289.8,177 289.8,179.2 294,178.6 294,192.1 296.4,191.8 296.4,178.3 300.7,177.6 
					300.7,175.4 				"/>
				<polyline class="st8" points="311.2,174 302.9,175.1 302.9,190.9 311.2,189.7 311.2,187.5 305.3,188.3 305.3,183.4 310.8,182.6 
					310.8,180.5 305.3,181.2 305.3,177 311.2,176.1 311.2,174 				"/>
				<path class="st8" d="M179,183.8c-8.2,1.2-14.9,9.3-14.9,18.1c0,8.9,6.6,15.1,14.8,14c8.2-1.2,14.9-9.3,14.9-18.1
					C193.9,188.9,187.2,182.7,179,183.8"/>
			</g>
		</g>
	</g>
</g>
<g>
	<path class="st9" d="M354.3,300c-2.3,0.5-3.1,0.9-4.8,1.1c-1.3,0.2-3.5,0.4-5.3,0.7c-2.1,0.4-28.5,2.8-41.2,0.5
		c-0.7,3.5-4.1,48.3-5.3,73.6H326c1.7-23.7,7.7-57.3,9.1-60.9c1.2-3.3,8.1-2.9,8.5,0.8c0.2,2.2-0.8,8.2-1.5,13.6
		c-1.7,13.6-1.1,12.1-1.8,18c-0.3,2.1-0.4,13.9-0.4,28.5h24.9c0.1-6.9,0.3-11.7,0.5-14.6c0.7-9.6,6.6-35.3,8.7-47.1
		c1-5.2,1.7-13.2,2.2-20.6C369.6,297.1,357.4,299.3,354.3,300z"/>
	<g>
		<path class="st10" d="M257.7,211.4c-0.1-2.4-0.6-5.3-1.2-7.5c-0.3-0.9-0.8-2-1.4-2.8c-0.9-1.2-1.5-2.7-1.8-4.2
			c-0.2-0.8-0.3-1.6-0.6-2.7c-0.3-1.5-0.8-4.2-2.5-4.6c-3-0.7-2.5,5-1.9,8.6c0.2,1-0.6,1.9-1.6,1.9c-0.4,0-0.8,0-1.1,0.1
			c0,0,0,0-0.1,0c-3.2,0.8-5.7,4.1-5.6,7.4c0.1,2.3,0.6,5.4,1.2,7.7L257.7,211.4z"/>
	</g>
	<path class="st10" d="M313.7,170.1c2.9,2.2,15.2,2.9,17.4,2.9c0.5,0,1,0.1,1.4,0.4c6.6-1.1,14.4-1.9,20.5-1.6
		c-1-1.4-2.6-3.9-3.3-5.5c0,0,0,0,0,0c-2.6,0.2-5,0.4-7.5-0.3c-5.1-1.4-9.3-5.9-9.8-11.1c-0.2-2.5,0-6.2-0.5-8.6
		c-0.5-2.9-3.5-4.8-5.9-2.7c-1.4,1.3-4.6-0.3-4.6-3c0-1.9-1.3-3.7-3-4.7c-1.7-1-3.7-1.3-5.6-1.4c-0.7,0-1.4-0.2-2.1-0.5
		c-0.8,1.2-1.4,2.6-1.4,2.6s-2.9,12.2-1,15.7C310.9,156.8,310.8,167.9,313.7,170.1z"/>
	<path class="st3" d="M241.3,218.4l17.7-4.9l-0.7-2.3l-18.4,4.3l0.9,3.1C241,218.6,241.1,218.5,241.3,218.4z"/>
	<g>
		<path class="st11" d="M305.1,123.9c0-3.7,2-7.3,5.2-9c1.9-1.1,4.2-1.4,6.3-1.7c5.9-0.8,11.9-1.2,17.9-1.5
			c5.4-0.3,10.9-0.4,15.9,1.6c8.6,3.5,13.7,12.9,14,22.2c0.1,2.1-0.1,4.2-0.8,6.1c-0.7,2.1-2,3.9-3.2,5.8c-2,3.3-3.4,6.8-4.3,10.5
			c-0.6,2.6-1.1,5.6-3.4,7c-1.2,0.8-1.6,1.5-3.1,1.6c-2.6,0.2-5,0.4-7.5-0.3c-5.1-1.4-9.3-5.9-9.8-11.1c-0.2-2.5,0-6.2-0.5-8.6
			c-0.5-2.9-3.5-4.8-5.9-2.7c-1.4,1.3-4.6-0.3-4.6-3c0-1.9-1.3-3.7-3-4.7c-1.7-1-3.7-1.3-5.6-1.4
			C308.1,134.4,305.1,128.2,305.1,123.9z"/>
	</g>
	<path class="st12" d="M241.3,218.4l18.2-5c1-0.3,0.6,3.5,1.1,6.2c0.8,4.1,0.6,6.2,1.5,9.4c0.9,3.2,1.8,5.6,3.9,7.1
		c1.7,1.2,4.2,0.6,7.9-3.8c3.7-4.4,5.1-5.4,8.8-14.2c3.7-8.8,5.4-11.7,9.1-16.9s5.8-6.8,10.2-10.8c2.8-2.4,4.6-4.8,14.1-10.2
		c4.8-2.7,7.2-5.3,16.1-6.8c8.8-1.5,19.9-2.5,26.4-1c15.2,3.6,24,13.9,27,26.4s2.5,27.6,1.7,32.2c-1,6.1-1.4,15.7-3.6,22.6
		c-2.6,8-2.7,32.2-2.7,35.3c-0.1,6.1-22.2,10.1-26.5,11.1c-2.3,0.5-3.1,0.9-4.8,1.1c-1.3,0.2-3.5,0.4-5.3,0.7
		c-2.6,0.5-41.5,4-47.4-1.9c-5.1-5.1,5-55.2,7.7-68.5c0.2-0.9-0.9-1.5-1.6-0.8c-3.5,3.8-7.1,6.9-11.3,14.3
		c-7.1,9.8-18.4,17.7-27.9,15.5c-9.6-2.2-12.8-9.6-15.8-14.9c-2.9-4.9-6.5-20.3-7.6-25.5C240.2,219.4,240.6,218.6,241.3,218.4z"/>
</g>
<rect x="-70" class="st13" width="1220" height="376"/>
</svg>
