<?xml version="1.0" encoding="utf-8"?>
<!-- Generator: Adobe Illustrator 22.1.0, SVG Export Plug-In . SVG Version: 6.00 Build 0)  -->
<svg version="1.1" id="Ebene_1" xmlns="http://www.w3.org/2000/svg" xmlns:xlink="http://www.w3.org/1999/xlink" x="0px" y="0px"
	 viewBox="0 0 431.9 376" style="enable-background:new 0 0 431.9 376;" xml:space="preserve">
<style type="text/css">
	.st0{opacity:0.6;}
	.st1{enable-background:new    ;}
	.st2{fill:#DBDBDB;}
	.st3{fill:#FFFFFF;}
	.st4{fill:#CCCCCC;}
	.st5{opacity:0.7;}
	.st6{clip-path:url(#SVGID_1_);}
	.st7{opacity:0.2;fill:#3DBDEF;}
	.st8{opacity:0.5216;fill:#3DBDEF;}
	.st9{opacity:0.9059;fill:#3DBDEF;}
	.st10{fill:#F9C5AF;}
	.st11{fill:#2E0D00;}
	.st12{fill:#0A2F60;}
	.st13{fill:none;}
</style>
<g class="st0">
	<g>
		<g class="st1">
			<path class="st2" d="M16.1-0.3c-2.9,4.3-4.7,9.6-4.7,15L11,249.3c0,12.6,9.4,21.5,21.1,19.9l377.3-53
				c11.7-1.6,21.2-13.2,21.2-25.8L431-0.2H16.1V-0.3z"/>
			<path class="st3" d="M19.5,266.4c-0.3-0.2-0.5-0.3-0.7-0.5c-0.1-0.1-0.1-0.1-0.2-0.2c-0.3-0.2-0.6-0.5-0.9-0.7
				c-0.1,0-0.1-0.1-0.2-0.1c-0.2-0.2-0.5-0.4-0.7-0.6c-0.1-0.1-0.2-0.2-0.3-0.3c-0.2-0.2-0.3-0.4-0.5-0.5c-0.1-0.1-0.2-0.3-0.3-0.4
				c-0.1-0.2-0.3-0.3-0.4-0.5c-0.1-0.2-0.3-0.3-0.4-0.5c-0.1-0.2-0.2-0.3-0.3-0.5c-0.2-0.3-0.4-0.5-0.5-0.8
				c-0.1-0.1-0.2-0.3-0.2-0.4c-0.3-0.6-0.6-1.1-0.9-1.8c-0.1-0.2-0.1-0.3-0.2-0.5c-0.1-0.3-0.2-0.5-0.3-0.8
				c-0.1-0.2-0.1-0.4-0.2-0.6c-0.1-0.3-0.2-0.6-0.3-0.9c-0.1-0.2-0.1-0.4-0.2-0.6c-0.1-0.3-0.2-0.6-0.2-0.9c0-0.2-0.1-0.4-0.1-0.5
				c-0.1-0.4-0.1-0.8-0.2-1.1c0-0.1,0-0.3-0.1-0.4c0-0.1,0-0.2,0-0.3c0-0.4-0.1-0.7-0.1-1.1c0-0.2,0-0.3,0-0.5c0-0.4,0-0.8,0-1.2
				l0.4-234.6c0-0.4,0-0.8,0-1.1c0-0.4,0.1-0.9,0.1-1.3c0-0.2,0-0.3,0.1-0.4c0-0.3,0.1-0.5,0.1-0.8c0-0.2,0.1-0.4,0.1-0.6
				c0-0.2,0.1-0.4,0.1-0.5c0-0.2,0.1-0.4,0.1-0.6C12,9.1,12,8.9,12,8.8c0.1-0.3,0.1-0.5,0.2-0.8c0-0.1,0-0.2,0.1-0.3
				c0.1-0.3,0.2-0.7,0.3-1c0-0.1,0.1-0.2,0.1-0.2C12.8,6.2,12.9,6,13,5.7c0-0.1,0.1-0.2,0.1-0.3c0.1-0.2,0.2-0.4,0.3-0.7
				c0.1-0.1,0.1-0.2,0.2-0.4c0.1-0.2,0.2-0.4,0.3-0.6C14,3.6,14,3.5,14.1,3.3c0.1-0.2,0.2-0.5,0.3-0.7c0-0.1,0.1-0.2,0.1-0.3
				C14.6,2,14.8,1.7,15,1.4c0,0,0-0.1,0.1-0.1c0.2-0.3,0.3-0.6,0.5-0.8c0.1-0.1,0.2-0.2,0.2-0.3C15.9,0,16-0.2,16.1-0.3H4.3l0,0
				c0,0.1-0.1,0.2-0.1,0.2C4.1,0.1,4.1,0.2,4,0.4c0,0.1-0.1,0.2-0.1,0.3c0,0,0,0.1-0.1,0.1C3.7,1.1,3.7,1.3,3.6,1.5
				c0,0.1-0.1,0.2-0.1,0.2l0,0C3.4,2,3.3,2.3,3.2,2.7l0,0c0,0.1,0,0.2-0.1,0.3c0,0.3-0.1,0.5-0.2,0.7v0.1c0,0.2-0.1,0.3-0.1,0.5
				c0,0.2-0.1,0.3-0.1,0.5v0.1c0,0.2-0.1,0.4-0.1,0.5S2.5,5.7,2.5,5.8v0.1c0,0.3-0.1,0.5-0.1,0.8c0,0.1,0,0.2,0,0.4v0.1
				c0,0.4-0.1,0.9-0.1,1.3l0,0c0,0.4,0,0.7,0,1.1L1.8,244.3c0,0.2,0,0.4,0,0.6c0,0.2,0,0.4,0,0.5c0,0.2,0,0.3,0,0.5
				c0,0.4,0.1,0.7,0.1,1.1c0,0.1,0,0.2,0,0.3c0,0,0,0,0,0.1s0,0.2,0.1,0.3c0.1,0.4,0.1,0.8,0.2,1.1c0,0.2,0.1,0.4,0.1,0.5
				c0.1,0.3,0.1,0.6,0.2,0.9c0.1,0.2,0.1,0.4,0.2,0.6c0.1,0.3,0.2,0.6,0.3,0.9c0.1,0.2,0.1,0.4,0.2,0.6c0.1,0.3,0.2,0.5,0.3,0.8
				c0,0.1,0.1,0.2,0.1,0.3l0.1,0.1c0.3,0.6,0.6,1.2,0.9,1.8c0,0,0,0.1,0.1,0.1c0.1,0.1,0.1,0.2,0.2,0.3c0.2,0.3,0.3,0.5,0.5,0.8
				c0.1,0.1,0.1,0.2,0.2,0.2c0.1,0.1,0.1,0.1,0.2,0.2c0.1,0.2,0.3,0.4,0.4,0.5s0.1,0.2,0.2,0.3c0.1,0.1,0.1,0.1,0.2,0.2
				s0.2,0.3,0.3,0.4c0.1,0.1,0.1,0.2,0.2,0.3c0.1,0.1,0.2,0.2,0.3,0.3c0.1,0.1,0.2,0.2,0.3,0.3c0.1,0.1,0.1,0.1,0.2,0.2
				c0.2,0.2,0.3,0.3,0.5,0.5c0.1,0,0.1,0.1,0.2,0.1l0,0c0.2,0.2,0.5,0.4,0.7,0.6l0.1,0.1c0.1,0.1,0.1,0.1,0.2,0.2
				c0.1,0.1,0.3,0.2,0.4,0.3c0.1,0.1,0.2,0.2,0.4,0.2c0.1,0.1,0.2,0.1,0.2,0.2l0.1,0.1c0.2,0.1,0.5,0.3,0.7,0.4c0,0,0.1,0,0.1,0.1
				l9.1,5c-0.3-0.2-0.7-0.4-1-0.6C19.7,266.5,19.6,266.5,19.5,266.4z"/>
		</g>
	</g>
</g>
<g>
	<g class="st1">
		<g>
			<path class="st3" d="M315.7,70.6l-0.1,31.2l13.7-1.9v19l-22.8,3.2l-18.8-17.7l-18.8,22.9l-23.4,3.3v-19l14.3-2l0.1-31.2l-29,4.1
				v15.4l-27.1,3.8V86.3l-13.1,1.8V67.5L165,71.1v0.3l-17.4-16.3h0.3V43l13.7-1.9l0.1-31.3l-28.9,4.1l-0.1,31.3l13.7-1.9v12.1h0.3
				l-17.4,21.2v-0.3l-25.2,3.5v20.6l-13.7,1.9l-0.1,31.2l29-4.1l0.1-31.2l-13.7,1.9v-19l22.8-3.2L147,95.6l18.8-22.9l23.4-3.3v19
				l-14.3,2l-0.1,31.2l29-4.1v-14.1l27.1-3.8v14.1l13.1-1.8v20.6l25.8-3.6v-0.3l17.4,16.3h-0.3V157l-13.7,1.9l-0.1,31.2l29-4.1
				l0.1-31.2l-13.7,1.9v-12.1h-0.3l17.4-21.2v0.3l25.2-3.5V99.6l13.7-1.9l0.1-31.2L315.7,70.6z M134.2,43.3l0.1-27.9l25.9-3.6
				l-0.1,27.9L134.2,43.3z M117.6,100.1l-0.1,27.9l-25.9,3.6l0.1-27.9L117.6,100.1z M147,93.3l-16.8-15.8L147.1,57l16.8,15.8
				L147,93.3z M202.3,116.1l-25.9,3.6l0.1-27.9l25.9-3.6L202.3,116.1z M232.4,111.8l0.1-27.9l25.9-3.6l-0.1,27.9L232.4,111.8z
				 M300.6,156.7l-0.1,27.9l-25.9,3.6l0.1-27.9L300.6,156.7z M287.7,143l-16.8-15.8l16.8-20.5l16.8,15.8L287.7,143z M343.1,96.3
				l-25.9,3.6l0.1-27.9l25.9-3.6L343.1,96.3z"/>
			<path class="st3" d="M127.1,210.1l97-13.6l0.1-51l-97,13.6L127.1,210.1z M128.7,193.8l16.8-2.4v14.4l-16.8,2.4V193.8z
				 M128.7,177.3l16.8-2.4v14.9l-16.8,2.4V177.3z M222.5,178.9L147,189.5v-14.9l75.6-10.6L222.5,178.9z M222.5,195l-75.6,10.6v-14.4
				l75.6-10.6V195z M128.7,160.5l93.9-13.2v15.1l-93.9,13.2L128.7,160.5z"/>
		</g>
	</g>
</g>
<g>
	<path class="st4" d="M385.2,295.2c-2.3,0.5-3.1,0.9-4.8,1.1c-1.3,0.2-3.5,0.4-5.3,0.7c-2.1,0.4-28.5,2.8-41.2,0.5
		c-0.7,3.5-4.1,53.2-5.3,78.5h28.3c1.7-23.7,7.7-62.2,9.1-65.8c1.2-3.3,8.1-2.9,8.5,0.8c0.2,2.2-0.8,8.2-1.5,13.6
		c-1.7,13.6-1.1,12.1-1.8,18c-0.3,2.1-0.4,18.8-0.4,33.4h24.9c0.1-6.9,0.3-16.5,0.5-19.5c0.7-9.6,6.6-35.3,8.7-47.1
		c1-5.2,1.7-13.2,2.2-20.6C400.5,292.3,388.3,294.5,385.2,295.2z"/>
	<g class="st5">
		<g>
			<g class="st1">
				<defs>
					<polygon id="SVGID_2_" class="st1" points="255.5,217.1 255.6,163.8 305,156.9 304.9,210.2 					"/>
				</defs>
				<clipPath id="SVGID_1_">
					<use xlink:href="#SVGID_2_"  style="overflow:visible;"/>
				</clipPath>
				<g class="st6">
					<path class="st7" d="M280.2,204.4c-8.9,1.2-16.1-5.5-16-15.1s7.2-18.4,16.1-19.6c8.9-1.2,16.1,5.5,16.1,15.1
						C296.3,194.3,289.1,203.1,280.2,204.4 M280.3,160.4c-13.6,1.9-24.7,15.4-24.7,30.1c0,14.7,11,25.1,24.6,23.2
						c13.6-1.9,24.7-15.4,24.7-30.1C304.9,168.8,293.9,158.4,280.3,160.4"/>
					<path class="st8" d="M280.2,197.1c-5.2,0.7-9.3-3.2-9.3-8.8c0-5.6,4.2-10.7,9.4-11.4c5.2-0.7,9.3,3.2,9.3,8.8
						S285.4,196.4,280.2,197.1 M280.3,169.6c-8.9,1.2-16.1,10-16.1,19.6s7.2,16.3,16,15.1c8.9-1.2,16.1-10,16.1-19.6
						C296.3,175.2,289.1,168.4,280.3,169.6"/>
					<path class="st9" d="M280.2,176.9c-5.2,0.7-9.4,5.8-9.4,11.4c0,5.6,4.2,9.5,9.3,8.8c5.2-0.7,9.4-5.8,9.4-11.4
						S285.4,176.2,280.2,176.9"/>
				</g>
			</g>
		</g>
	</g>
	<g>
		<path class="st10" d="M288.6,206.6c-0.1-2.4-0.6-5.3-1.2-7.5c-0.3-0.9-0.8-2-1.4-2.8c-0.9-1.2-1.5-2.7-1.8-4.2
			c-0.2-0.8-0.3-1.6-0.6-2.7c-0.3-1.5-0.8-4.2-2.5-4.6c-3-0.7-2.5,5-1.9,8.6c0.2,1-0.6,1.9-1.6,1.9c-0.4,0-0.8,0-1.1,0.1
			c0,0,0,0-0.1,0c-3.2,0.8-5.7,4.1-5.6,7.4c0.1,2.3,0.6,5.4,1.2,7.7L288.6,206.6z"/>
	</g>
	<path class="st10" d="M344.6,165.3c2.9,2.2,15.2,2.9,17.4,2.9c0.5,0,1,0.1,1.4,0.4c6.6-1.1,14.4-1.9,20.5-1.6
		c-1-1.4-2.6-3.9-3.3-5.5l0,0c-2.6,0.2-5,0.4-7.5-0.3c-5.1-1.4-9.3-5.9-9.8-11.1c-0.2-2.5,0-6.2-0.5-8.6c-0.5-2.9-3.5-4.8-5.9-2.7
		c-1.4,1.3-4.6-0.3-4.6-3c0-1.9-1.3-3.7-3-4.7s-3.7-1.3-5.6-1.4c-0.7,0-1.4-0.2-2.1-0.5c-0.8,1.2-1.4,2.6-1.4,2.6s-2.9,12.2-1,15.7
		C341.8,152,341.7,163.1,344.6,165.3z"/>
	<path class="st3" d="M272.2,213.6l17.7-4.9l-0.7-2.3l-18.4,4.3l0.9,3.1C271.9,213.8,272,213.7,272.2,213.6z"/>
	<g>
		<path class="st11" d="M336,119.1c0-3.7,2-7.3,5.2-9c1.9-1.1,4.2-1.4,6.3-1.7c5.9-0.8,11.9-1.2,17.9-1.5c5.4-0.3,10.9-0.4,15.9,1.6
			c8.6,3.5,13.7,12.9,14,22.2c0.1,2.1-0.1,4.2-0.8,6.1c-0.7,2.1-2,3.9-3.2,5.8c-2,3.3-3.4,6.8-4.3,10.5c-0.6,2.6-1.1,5.6-3.4,7
			c-1.2,0.8-1.6,1.5-3.1,1.6c-2.6,0.2-5,0.4-7.5-0.3c-5.1-1.4-9.3-5.9-9.8-11.1c-0.2-2.5,0-6.2-0.5-8.6c-0.5-2.9-3.5-4.8-5.9-2.7
			c-1.4,1.3-4.6-0.3-4.6-3c0-1.9-1.3-3.7-3-4.7s-3.7-1.3-5.6-1.4C339,129.6,336,123.4,336,119.1z"/>
	</g>
	<path class="st12" d="M272.2,213.6l18.2-5c1-0.3,0.6,3.5,1.1,6.2c0.8,4.1,0.6,6.2,1.5,9.4s1.8,5.6,3.9,7.1c1.7,1.2,4.2,0.6,7.9-3.8
		c3.7-4.4,5.1-5.4,8.8-14.2c3.7-8.8,5.4-11.7,9.1-16.9s5.8-6.8,10.2-10.8c2.8-2.4,4.6-4.8,14.1-10.2c4.8-2.7,7.2-5.3,16.1-6.8
		c8.8-1.5,19.9-2.5,26.4-1c15.2,3.6,24,13.9,27,26.4s2.5,27.6,1.7,32.2c-1,6.1-1.4,15.7-3.6,22.6c-2.6,8-2.7,32.2-2.7,35.3
		c-0.1,6.1-22.2,10.1-26.5,11.1c-2.3,0.5-3.1,0.9-4.8,1.1c-1.3,0.2-3.5,0.4-5.3,0.7c-2.6,0.5-41.5,4-47.4-1.9
		c-5.1-5.1,5-55.2,7.7-68.5c0.2-0.9-0.9-1.5-1.6-0.8c-3.5,3.8-7.1,6.9-11.3,14.3c-7.1,9.8-18.4,17.7-27.9,15.5
		c-9.6-2.2-12.8-9.6-15.8-14.9c-2.9-4.9-6.5-20.3-7.6-25.5C271.1,214.6,271.5,213.8,272.2,213.6z"/>
</g>
<rect x="-70" y="0" class="st13" width="1220" height="376"/>
</svg>
