<?xml version="1.0" encoding="utf-8"?>
<!-- Generator: Adobe Illustrator 24.1.1, SVG Export Plug-In . SVG Version: 6.00 Build 0)  -->
<svg version="1.1" id="_1" xmlns="http://www.w3.org/2000/svg" xmlns:xlink="http://www.w3.org/1999/xlink" x="0px" y="0px"
	 viewBox="0 0 512 512" style="enable-background:new 0 0 512 512;" xml:space="preserve">
<style type="text/css">
	.st0{fill:#939598;}
	.st1{fill:none;stroke:url(#SVGID_1_);stroke-width:17.04;stroke-miterlimit:10;}
</style>
<path class="st0" d="M256,10c135.9,0.1,246,110.3,245.9,246.2c-0.1,98.8-59.2,188-150.2,226.5c-125.2,52.9-269.5-5.7-322.4-130.9
	S35.1,82.2,160.3,29.3C190.5,16.5,223.1,9.9,256,10 M256,0C114.6,0,0,114.6,0,256s114.6,256,256,256s256-114.6,256-256
	S397.4,0,256,0z"/>
<linearGradient id="SVGID_1_" gradientUnits="userSpaceOnUse" x1="165.98" y1="256" x2="416.6996" y2="256">
	<stop  offset="0.11" style="stop-color:#FF1E00"/>
	<stop  offset="0.25" style="stop-color:#FF2700"/>
	<stop  offset="0.48" style="stop-color:#FF3F00"/>
	<stop  offset="0.77" style="stop-color:#FF6700"/>
	<stop  offset="1" style="stop-color:#FF8B00"/>
</linearGradient>
<polygon class="st1" points="399.7,256 174.5,126 174.5,386 "/>
</svg>
