<svg id="_1" data-name="1" xmlns="http://www.w3.org/2000/svg" xmlns:xlink="http://www.w3.org/1999/xlink" viewBox="0 0 512 512"><defs><style>.cls-1{fill:#939598;}.cls-2{fill:url(#redmunda);}</style><linearGradient id="redmunda" x1="97.44" y1="268.61" x2="431.77" y2="268.61" gradientUnits="userSpaceOnUse"><stop offset="0.11" stop-color="#ff1e00"/><stop offset="0.25" stop-color="#ff2700"/><stop offset="0.48" stop-color="#ff3f00"/><stop offset="0.77" stop-color="#ff6700"/><stop offset="1" stop-color="#ff8b00"/></linearGradient></defs><title>webinar-signup</title><path class="cls-1" d="M256,10a246.06,246.06,0,0,1,95.75,472.67A246.06,246.06,0,0,1,160.25,29.33,244.37,244.37,0,0,1,256,10m0-10C114.61,0,0,114.61,0,256S114.61,512,256,512,512,397.39,512,256,397.39,0,256,0Z"/><path class="cls-2" d="M272.86,329.64H246.3V303.08h26.56Zm-53.12-26.56H193.18v26.56h26.56Zm-53.12,0H140.06v26.56h26.56ZM272.86,250H246.3v26.56h26.56Zm-53.12,0H193.18v26.56h26.56Zm-53.12,0H140.06v26.56h26.56Zm106.24-53.11H246.3v26.56h26.56Zm-53.12,0H193.18v26.56h26.56Zm-53.12,0H140.06v26.56h26.56ZM431.77,329.64A73.53,73.53,0,0,1,298.84,373H97.44V134H395.16V266.08A73.55,73.55,0,0,1,431.77,329.64Zm-147.12,0a73.52,73.52,0,0,1,93.44-70.81V173.3H114.51V355.93h175A73.12,73.12,0,0,1,284.65,329.64Zm127,18.31a.93.93,0,0,0,0-.13c.3-.86.57-1.73.82-2.61l.12-.42c.22-.78.42-1.57.6-2.36l.15-.66c.16-.72.3-1.46.43-2.19l.15-.82c.11-.7.2-1.4.29-2.11,0-.3.09-.61.12-.92.07-.71.13-1.43.18-2.14,0-.3.05-.6.07-.9.05-1,.08-2,.08-3v-.18c0-1,0-2-.08-3,0-.3-.05-.59-.07-.89-.05-.72-.11-1.44-.18-2.15l-.12-.92c-.09-.7-.18-1.41-.29-2.1l-.15-.82c-.13-.74-.27-1.47-.43-2.2l-.15-.65c-.18-.8-.38-1.58-.6-2.36l-.12-.43c-.25-.88-.52-1.75-.82-2.61a.56.56,0,0,0,0-.12,56.56,56.56,0,0,0-40.55-36.69l-.37-.09c-.66-.15-1.34-.29-2-.42L368,274c-.59-.11-1.19-.21-1.78-.29l-1.06-.14-1.54-.17c-.48-.05-1-.08-1.46-.11l-1.21-.09q-1.26-.06-2.52-.06h-.22a56.5,56.5,0,0,0-56.42,53.59c-.05,1-.07,1.93-.07,2.9s0,1.73.07,2.59c0,.19,0,.37,0,.55q.07,1.2.18,2.4c0,.23.05.45.08.68.07.62.14,1.24.23,1.85.05.35.11.71.16,1.06.09.54.19,1.09.3,1.63s.16.81.24,1.21.13.56.2.84c.19.82.4,1.65.63,2.46a2.33,2.33,0,0,0,.07.25A56.59,56.59,0,0,0,343,384l.49.13c.57.16,1.15.3,1.73.44l.89.2c.51.12,1,.22,1.54.32l1.16.2c.46.08.92.16,1.38.22l1.39.18,1.24.14,1.7.13c.33,0,.65.05,1,.06.91.05,1.82.07,2.74.07s1.83,0,2.74-.07c.33,0,.65,0,1-.06l1.7-.13,1.24-.14,1.39-.18c.46-.06.92-.14,1.38-.22l1.16-.2c.51-.1,1-.2,1.54-.32l.89-.2c.58-.14,1.16-.28,1.73-.44l.49-.13A56.6,56.6,0,0,0,411.65,348Zm-22.3-33.78-10-10-31,30.95L337.1,323.83l-10,10,21.29,21.29h0Z"/></svg>