<?xml version="1.0" encoding="utf-8"?>
<!-- Generator: Adobe Illustrator 22.0.1, SVG Export Plug-In . SVG Version: 6.00 Build 0)  -->
<svg version="1.1" id="Ebene_1" xmlns="http://www.w3.org/2000/svg" xmlns:xlink="http://www.w3.org/1999/xlink" x="0px" y="0px"
	 viewBox="0 0 154.7 140.7" style="enable-background:new 0 0 154.7 140.7;" xml:space="preserve">
<style type="text/css">
	.st0{clip-path:url(#SVGID_2_);fill:#00286F;}
	.st1{clip-path:url(#SVGID_2_);fill:none;stroke:#FFFFFF;stroke-width:0.65;stroke-linecap:square;}
	.st2{fill:#FFFFFF;}
	.st3{clip-path:url(#SVGID_4_);fill:#FFFFFF;}
</style>
<g>
	<defs>
		<rect id="SVGID_1_" y="0" width="154.2" height="140.5"/>
	</defs>
	<clipPath id="SVGID_2_">
		<use xlink:href="#SVGID_1_"  style="overflow:visible;"/>
	</clipPath>
	<path class="st0" d="M1.2,1.2H153c0,0,0,0,0,0v138.1c0,0,0,0,0,0H1.2c0,0,0,0,0,0L1.2,1.2C1.2,1.2,1.2,1.2,1.2,1.2"/>
	<path class="st1" d="M1.2,1.2H153c0,0,0,0,0,0v138.1c0,0,0,0,0,0H1.2c0,0,0,0,0,0L1.2,1.2C1.2,1.2,1.2,1.2,1.2,1.2z"/>
</g>
<polygon class="st2" points="24.8,41.6 24.8,50.7 33.9,50.7 33.9,100.9 45.7,100.9 45.7,41.6 "/>
<polygon class="st2" points="100.7,41.6 100.7,50.7 110.4,50.7 110.4,100.9 122.1,100.9 122.1,41.6 "/>
<g>
	<defs>
		<rect id="SVGID_3_" x="0.7" y="0" width="154.2" height="140.5"/>
	</defs>
	<clipPath id="SVGID_4_">
		<use xlink:href="#SVGID_3_"  style="overflow:visible;"/>
	</clipPath>
	<path class="st3" d="M71.2,74.3l11.2,15.1c-1.2,1.9-4.2,3.1-8.5,3.3c-3.7-0.1-9.5-1.2-10.2-7.7C63.8,80.3,68,76.5,71.2,74.3
		 M74,49.3c1.7,0.1,4.7-0.2,4.8,4.5c-0.3,3.6-2.8,5.6-5.2,7.9c-0.8-1.1-1.6-2.1-2.4-3.2c-0.6-0.9-1.4-1.7-1.9-2.5
		c-0.2-0.8-0.2-1.5-0.2-2.4C69.1,52.9,70,49.7,74,49.3 M72.8,40.3C63,40.5,55,50.3,61.2,60.8l0,0l4.2,5.7c-7.2,4-12.4,9.1-12.1,17.9
		C54.2,97.5,63.6,101.5,74,102c5.4-0.3,10.7-0.7,14.6-4.4l2.5,3.4h11.8c-2.4-3.2-4.9-6.5-7.3-9.8c4.9-5.6,4.8-13.4,4.7-20.7h-9.6
		c-0.2,4.1,0.5,11.4-1.3,12.2c-3.4-4.6-6.8-9.1-10.1-13.5c4.8-3.8,9-7.9,8.8-14.7c0.7-9.7-5.1-13.5-13.7-14.1
		C73.7,40.3,73.3,40.3,72.8,40.3"/>
</g>
</svg>
