<?xml version="1.0" encoding="utf-8"?>
<!-- Generator: Adobe Illustrator 22.0.1, SVG Export Plug-In . SVG Version: 6.00 Build 0)  -->
<svg version="1.1"
	 id="svg4359" inkscape:version="0.91 r13725" sodipodi:docname="24 hr fitness.svg" xmlns:cc="http://creativecommons.org/ns#" xmlns:dc="http://purl.org/dc/elements/1.1/" xmlns:inkscape="http://www.inkscape.org/namespaces/inkscape" xmlns:rdf="http://www.w3.org/1999/02/22-rdf-syntax-ns#" xmlns:sodipodi="http://sodipodi.sourceforge.net/DTD/sodipodi-0.dtd" xmlns:svg="http://www.w3.org/2000/svg"
	 xmlns="http://www.w3.org/2000/svg" xmlns:xlink="http://www.w3.org/1999/xlink" x="0px" y="0px" viewBox="0 0 220.7 220.4"
	 style="enable-background:new 0 0 220.7 220.4;" xml:space="preserve">
<style type="text/css">
	.st0{fill:#213683;}
	.st1{fill:#DA2825;}
	.st2{fill:#FFFFFF;}
</style>
<sodipodi:namedview  bordercolor="#666666" borderopacity="1.0" id="base" inkscape:current-layer="layer1" inkscape:cx="111" inkscape:cy="25.75" inkscape:document-units="px" inkscape:pageopacity="0.0" inkscape:pageshadow="2" inkscape:window-height="744" inkscape:window-maximized="1" inkscape:window-width="1280" inkscape:window-x="-4" inkscape:window-y="-4" inkscape:zoom="4.119527" pagecolor="#ffffff" showgrid="false" units="px">
	</sodipodi:namedview>
<path id="path2886" inkscape:connector-curvature="0" class="st0" d="M0.6,0.1v220.1h219.7V0.1H0.6z"/>
<path id="path2898" inkscape:connector-curvature="0" class="st1" d="M136.8,108.8L220.3,0.1h-12.3l-83.9,108.7H136.8"/>
<path id="path2902" inkscape:connector-curvature="0" class="st2" d="M168.4,156.4c2.7,7.5,4.9,15.3,7.5,22.9
	c1.7,4.7,4.3,14.2,7.4,17.9h-20.7c0-5.9-2.3-11.4-3.9-16.9c-1.3-3.9-2.3-7.9-3.7-11.8l-0.4-1.5l-0.4-1.2l-0.4-1l-0.2-1l-0.2-0.6
	l-0.1-0.4v-0.1h-32.9l-5.2,7.4l0.1,0.1l0.1,0.6l0.4,1l0.4,1.2l0.5,1.5c1,3,1.9,6,2.9,9c2.2,6.9,2.2,7.3,5.9,13.8h-19.8
	c-0.4-4.2-1.3-6.7-2.5-10.7c-3.3,3.5-5.6,6.3-7.6,10.7H79.9c-0.8-4.6-1.2-6.7-2.9-11.2c-3.4,4.7-4.8,5.7-7.4,11.2H54.4
	c6.8-6.2,12.3-14.2,17.9-21.4l-3.9-13.2H35.8v0.1l-0.7,0.7l-0.5,0.7l-0.6,0.9l-0.7,1l-0.9,1.2l-1,1.1c-2.8,3.9-5.9,7.6-8.7,11.6
	c-4.2,5.5-9.1,11.1-12.3,17.2H0.6V191l0.4-0.4h0.1v-0.1l0.5-0.5l0.2-0.4c0.9-0.9,1.5-2,2.4-2.9c2.3-2.9,4.6-5.8,6.9-8.7
	c6.4-8.1,12.7-16.4,18.9-24.7c8.6-12.1,20.6-24.5,26.4-38h16.8c0.4,8.9,2.9,13.5,5.2,21.9c1.4,4.6,2.8,9.2,4.2,13.7l0.5,1.5l0.7,2.7
	l0.4,1l0.2,1l0.2,0.7l0.2,0.6l0.1,0.4v0.1l5.7-7.2c-3.3-8.2-6.9-25.8-12.7-36.5h19.7c-0.2,4.4,1.5,7.6,2.5,11.7
	c1.2,3.8,2,7.7,3.2,11.5c2.5-3.4,5.3-6.7,7.9-10.1c2.9-4.1,7.6-7.7,8-13.1h16.4c-9.6,9-18.9,22.9-27.4,33.3c1,3,1.7,6,2.6,9
	c5.3-6.8,10.5-13.6,15.7-20.6c4.8-6.7,11.5-14.1,14.7-21.7h16.1v0.7l0.1,1.9l0.4,2l0.2,1.5L168.4,156.4L168.4,156.4z M144,131.1
	c-4.2,7.5-10.9,15.1-16.2,21.9h21.9c-1.1-3.5-2.3-7.1-3.4-10.6l-0.5-1.7l-0.5-1.5l-0.4-1.2l-0.2-1l-0.4-2.5v-3.2l-0.1-0.2v-0.1
	L144,131.1L144,131.1z M59.8,131.1c-2.3,4.1-5.5,8.5-8.5,12.1c-1.6,2.2-3.4,4.2-5,6.4l-0.7,1l-0.6,0.9l-0.6,0.6l-0.4,0.5l-0.4,0.4
	v0.1h21.9c-1.2-3.4-2.3-7.2-3.4-10.6l-0.5-1.7l-0.5-1.5l-0.4-1.2l-0.2-1l-0.4-2.5l-0.1-2.1V131l-0.1-0.1L59.8,131.1L59.8,131.1z
	 M92.8,182.3l6-8.3c-1.5-3.6-2.7-7.3-3.9-11l-5.9,7.6L92.8,182.3"/>
</svg>
