<?xml version="1.0" encoding="utf-8"?>
<!-- Generator: Adobe Illustrator 23.0.0, SVG Export Plug-In . SVG Version: 6.00 Build 0)  -->
<svg version="1.1" id="Ebene_1" xmlns="http://www.w3.org/2000/svg" xmlns:xlink="http://www.w3.org/1999/xlink" x="0px" y="0px"
	 viewBox="0 0 1140 100" style="enable-background:new 0 0 1140 100;" xml:space="preserve">
<style type="text/css">
	.st0{fill:#ECECEC;}
	.st1{fill:#B2000D;}
	.st2{enable-background:new    ;}
	.st3{fill:#525149;}
	.st4{fill:#FFFFFF;}
	.st5{fill:#B51F29;}
	.st6{fill:none;stroke:#9D9D9C;stroke-width:2;stroke-linecap:round;stroke-miterlimit:10;}
</style>
<rect class="st0" width="1140" height="100"/>
<path class="st1" d="M1035.3,71.9H839.5c-1.7,0-3-1.3-3-3V34c0-1.7,1.3-3,3-3h195.8c1.7,0,3,1.3,3,3v34.9
	C1038.3,70.6,1036.9,71.9,1035.3,71.9z"/>
<g class="st2">
	<path class="st3" d="M190.4,29.5c-1.2,0-2.1,0.4-2.8,1.3c-0.7,0.9-1,2.1-1,3.7c0,3.3,1.2,5,3.7,5c1,0,2.3-0.3,3.8-0.8v2.6
		c-1.2,0.5-2.6,0.8-4.1,0.8c-2.2,0-3.8-0.7-5-2c-1.1-1.3-1.7-3.2-1.7-5.7c0-1.5,0.3-2.9,0.8-4.1c0.6-1.2,1.4-2.1,2.4-2.7
		c1.1-0.6,2.3-0.9,3.7-0.9c1.4,0,2.9,0.3,4.4,1l-1,2.6c-0.6-0.3-1.1-0.5-1.7-0.7S191,29.5,190.4,29.5z"/>
	<path class="st3" d="M204.4,42l-0.6-1.5h-0.1c-0.5,0.7-1.1,1.1-1.6,1.4c-0.6,0.3-1.3,0.4-2.2,0.4c-1.1,0-2-0.3-2.6-0.9
		c-0.6-0.6-0.9-1.5-0.9-2.7c0-1.2,0.4-2.1,1.3-2.7c0.8-0.6,2.1-0.9,3.8-1l2-0.1v-0.5c0-1.2-0.6-1.7-1.8-1.7c-0.9,0-2,0.3-3.2,0.8
		l-1-2.1c1.3-0.7,2.8-1,4.4-1c1.5,0,2.7,0.3,3.5,1c0.8,0.7,1.2,1.7,1.2,3V42H204.4z M203.4,36.7l-1.2,0c-0.9,0-1.6,0.2-2,0.5
		c-0.4,0.3-0.7,0.8-0.7,1.4c0,0.9,0.5,1.3,1.5,1.3c0.7,0,1.3-0.2,1.7-0.6s0.6-1,0.6-1.6V36.7z"/>
	<path class="st3" d="M219.9,42h-3.1v-6.6c0-0.8-0.1-1.4-0.4-1.8c-0.3-0.4-0.7-0.6-1.3-0.6c-0.8,0-1.4,0.3-1.7,0.9
		c-0.4,0.6-0.5,1.5-0.5,2.9V42h-3.1V30.6h2.4l0.4,1.5h0.2c0.3-0.5,0.7-0.9,1.3-1.2c0.6-0.3,1.2-0.4,2-0.4c1.7,0,2.9,0.6,3.5,1.7h0.3
		c0.3-0.5,0.8-0.9,1.3-1.2c0.6-0.3,1.3-0.4,2-0.4c1.3,0,2.3,0.3,2.9,1c0.7,0.7,1,1.7,1,3.2V42h-3.1v-6.6c0-0.8-0.1-1.4-0.4-1.8
		c-0.3-0.4-0.7-0.6-1.3-0.6c-0.8,0-1.3,0.3-1.7,0.8c-0.4,0.5-0.6,1.4-0.6,2.6V42z"/>
	<path class="st3" d="M238.3,42l-0.4-1.5h-0.2c-0.3,0.5-0.8,0.9-1.4,1.2c-0.6,0.3-1.3,0.4-2.1,0.4c-1.3,0-2.3-0.4-3-1.1
		c-0.7-0.7-1-1.7-1-3.1v-7.4h3.1v6.6c0,0.8,0.1,1.4,0.4,1.8s0.8,0.6,1.4,0.6c0.9,0,1.5-0.3,1.9-0.9c0.4-0.6,0.6-1.5,0.6-2.9v-5.4
		h3.1V42H238.3z"/>
	<path class="st3" d="M254.4,42h-3.1v-6.6c0-0.8-0.1-1.4-0.4-1.8c-0.3-0.4-0.8-0.6-1.4-0.6c-0.9,0-1.5,0.3-1.9,0.9
		c-0.4,0.6-0.6,1.5-0.6,2.9V42h-3.1V30.6h2.4l0.4,1.5h0.2c0.3-0.5,0.8-1,1.4-1.2c0.6-0.3,1.3-0.4,2.1-0.4c1.3,0,2.3,0.4,3,1.1
		c0.7,0.7,1,1.8,1,3.1V42z"/>
	<path class="st3" d="M261.2,42.2c-1.3,0-2.4-0.5-3.2-1.6c-0.8-1-1.1-2.5-1.1-4.3c0-1.9,0.4-3.3,1.2-4.4s1.8-1.6,3.2-1.6
		c1.4,0,2.5,0.6,3.3,1.7h0.1c-0.2-0.8-0.2-1.6-0.2-2.3v-3.6h3.1V42h-2.4l-0.6-1.5h-0.1C263.7,41.6,262.7,42.2,261.2,42.2z
		 M262.3,39.7c0.8,0,1.4-0.2,1.7-0.7c0.4-0.5,0.6-1.2,0.6-2.4v-0.3c0-1.2-0.2-2.1-0.6-2.6c-0.4-0.5-1-0.8-1.8-0.8
		c-0.7,0-1.2,0.3-1.6,0.9c-0.4,0.6-0.6,1.4-0.6,2.6s0.2,2,0.6,2.5C261,39.4,261.6,39.7,262.3,39.7z"/>
	<path class="st3" d="M278,42l-0.6-1.5h-0.1c-0.5,0.7-1.1,1.1-1.6,1.4c-0.6,0.3-1.3,0.4-2.2,0.4c-1.1,0-2-0.3-2.6-0.9
		c-0.6-0.6-0.9-1.5-0.9-2.7c0-1.2,0.4-2.1,1.3-2.7c0.8-0.6,2.1-0.9,3.8-1l2-0.1v-0.5c0-1.2-0.6-1.7-1.8-1.7c-0.9,0-2,0.3-3.2,0.8
		l-1-2.1c1.3-0.7,2.8-1,4.4-1c1.5,0,2.7,0.3,3.5,1c0.8,0.7,1.2,1.7,1.2,3V42H278z M277.1,36.7l-1.2,0c-0.9,0-1.6,0.2-2,0.5
		c-0.4,0.3-0.7,0.8-0.7,1.4c0,0.9,0.5,1.3,1.5,1.3c0.7,0,1.3-0.2,1.7-0.6s0.6-1,0.6-1.6V36.7z"/>
	<path class="st3" d="M288.7,27.7c0-1,0.6-1.5,1.7-1.5s1.7,0.5,1.7,1.5c0,0.5-0.1,0.9-0.4,1.1c-0.3,0.3-0.7,0.4-1.3,0.4
		C289.3,29.2,288.7,28.7,288.7,27.7z M291.9,42h-3.1V30.6h3.1V42z"/>
	<path class="st3" d="M303.1,38.6c0,1.2-0.4,2.1-1.2,2.7s-2,0.9-3.6,0.9c-0.8,0-1.5-0.1-2.1-0.2c-0.6-0.1-1.1-0.3-1.6-0.5V39
		c0.6,0.3,1.2,0.5,2,0.7c0.7,0.2,1.4,0.3,1.9,0.3c1.1,0,1.7-0.3,1.7-1c0-0.2-0.1-0.4-0.2-0.6c-0.1-0.2-0.4-0.3-0.8-0.5
		c-0.4-0.2-0.9-0.4-1.5-0.7c-0.9-0.4-1.5-0.7-1.9-1c-0.4-0.3-0.7-0.7-0.9-1.1c-0.2-0.4-0.3-0.9-0.3-1.5c0-1,0.4-1.8,1.2-2.3
		c0.8-0.6,1.9-0.8,3.3-0.8c1.4,0,2.7,0.3,4,0.9l-0.9,2.2c-0.6-0.2-1.1-0.4-1.6-0.6s-1-0.2-1.5-0.2c-0.9,0-1.4,0.2-1.4,0.7
		c0,0.3,0.1,0.5,0.4,0.7c0.3,0.2,0.9,0.5,1.9,0.9c0.9,0.4,1.5,0.7,2,1c0.4,0.3,0.7,0.7,0.9,1.1C303,37.6,303.1,38.1,303.1,38.6z"/>
	<path class="st3" d="M315.6,42.2c-3.5,0-5.3-1.9-5.3-5.8c0-1.9,0.5-3.4,1.4-4.4s2.3-1.5,4.1-1.5c1.3,0,2.5,0.3,3.5,0.8l-0.9,2.4
		c-0.5-0.2-0.9-0.4-1.4-0.5c-0.4-0.1-0.8-0.2-1.3-0.2c-1.6,0-2.4,1.1-2.4,3.4c0,2.2,0.8,3.3,2.4,3.3c0.6,0,1.2-0.1,1.7-0.2
		s1-0.4,1.5-0.7v2.7c-0.5,0.3-1,0.5-1.5,0.7C317,42.1,316.4,42.2,315.6,42.2z"/>
	<path class="st3" d="M332,36.3c0,1.9-0.5,3.3-1.5,4.3c-1,1-2.3,1.6-4.1,1.6c-1.1,0-2.1-0.2-2.9-0.7c-0.8-0.5-1.5-1.2-1.9-2.1
		s-0.7-1.9-0.7-3.1c0-1.9,0.5-3.3,1.5-4.3c1-1,2.3-1.5,4.1-1.5c1.1,0,2.1,0.2,2.9,0.7c0.8,0.5,1.5,1.2,1.9,2
		C331.8,34.1,332,35.1,332,36.3z M324.2,36.3c0,1.1,0.2,2,0.6,2.6c0.4,0.6,1,0.9,1.8,0.9c0.8,0,1.4-0.3,1.8-0.9
		c0.4-0.6,0.5-1.4,0.5-2.6c0-1.1-0.2-2-0.5-2.5s-1-0.8-1.8-0.8c-0.8,0-1.4,0.3-1.8,0.8C324.4,34.3,324.2,35.2,324.2,36.3z"/>
	<path class="st3" d="M344.8,42h-3.1v-6.6c0-0.8-0.1-1.4-0.4-1.8c-0.3-0.4-0.7-0.6-1.3-0.6c-0.8,0-1.4,0.3-1.7,0.9
		c-0.4,0.6-0.5,1.5-0.5,2.9V42h-3.1V30.6h2.4l0.4,1.5h0.2c0.3-0.5,0.7-0.9,1.3-1.2c0.6-0.3,1.2-0.4,2-0.4c1.7,0,2.9,0.6,3.5,1.7h0.3
		c0.3-0.5,0.8-0.9,1.3-1.2c0.6-0.3,1.3-0.4,2-0.4c1.3,0,2.3,0.3,2.9,1c0.7,0.7,1,1.7,1,3.2V42h-3.1v-6.6c0-0.8-0.1-1.4-0.4-1.8
		c-0.3-0.4-0.7-0.6-1.3-0.6c-0.8,0-1.3,0.3-1.7,0.8c-0.4,0.5-0.6,1.4-0.6,2.6V42z"/>
	<path class="st3" d="M355,27.7c0-1,0.6-1.5,1.7-1.5s1.7,0.5,1.7,1.5c0,0.5-0.1,0.9-0.4,1.1c-0.3,0.3-0.7,0.4-1.3,0.4
		C355.5,29.2,355,28.7,355,27.7z M358.2,42h-3.1V30.6h3.1V42z"/>
	<path class="st3" d="M372,42h-3.1v-6.6c0-0.8-0.1-1.4-0.4-1.8c-0.3-0.4-0.8-0.6-1.4-0.6c-0.9,0-1.5,0.3-1.9,0.9
		c-0.4,0.6-0.6,1.5-0.6,2.9V42h-3.1V30.6h2.4l0.4,1.5h0.2c0.3-0.5,0.8-1,1.4-1.2c0.6-0.3,1.3-0.4,2.1-0.4c1.3,0,2.3,0.4,3,1.1
		c0.7,0.7,1,1.8,1,3.1V42z"/>
	<path class="st3" d="M385.1,30.6v1.6l-1.8,0.5c0.3,0.5,0.5,1.1,0.5,1.7c0,1.2-0.4,2.2-1.3,2.9c-0.9,0.7-2,1-3.5,1l-0.6,0l-0.5-0.1
		c-0.3,0.2-0.5,0.5-0.5,0.8c0,0.4,0.6,0.7,1.7,0.7h1.9c1.2,0,2.2,0.3,2.9,0.8c0.7,0.5,1,1.3,1,2.4c0,1.3-0.6,2.4-1.7,3.1
		s-2.7,1.1-4.8,1.1c-1.6,0-2.8-0.3-3.6-0.8c-0.8-0.6-1.3-1.3-1.3-2.3c0-0.7,0.2-1.3,0.6-1.7c0.4-0.5,1.1-0.8,1.9-1
		c-0.3-0.1-0.6-0.4-0.8-0.7c-0.2-0.3-0.4-0.6-0.4-1c0-0.4,0.1-0.8,0.4-1.1c0.3-0.3,0.6-0.6,1.1-0.8c-0.6-0.3-1.1-0.7-1.4-1.2
		s-0.5-1.2-0.5-2c0-1.2,0.4-2.2,1.2-2.9c0.8-0.7,2-1,3.5-1c0.3,0,0.7,0,1.1,0.1c0.4,0.1,0.7,0.1,0.8,0.1H385.1z M376.3,43.6
		c0,0.4,0.2,0.8,0.6,1s1,0.4,1.7,0.4c1.1,0,2-0.2,2.6-0.5s0.9-0.7,0.9-1.3c0-0.4-0.2-0.7-0.6-0.9c-0.4-0.2-1-0.2-1.7-0.2h-1.6
		c-0.6,0-1,0.1-1.4,0.4C376.5,42.8,376.3,43.2,376.3,43.6z M377.4,34.3c0,0.6,0.1,1.1,0.4,1.5c0.3,0.4,0.7,0.5,1.3,0.5
		c0.6,0,1-0.2,1.3-0.5c0.3-0.4,0.4-0.8,0.4-1.5c0-1.4-0.6-2.1-1.7-2.1C378,32.3,377.4,33,377.4,34.3z"/>
	<path class="st3" d="M397.2,39.7c0.5,0,1.2-0.1,2-0.4v2.3c-0.8,0.3-1.7,0.5-2.9,0.5c-1.2,0-2.1-0.3-2.7-0.9s-0.9-1.6-0.9-2.8v-5.5
		h-1.5v-1.3l1.7-1l0.9-2.4h2v2.4h3.2v2.3h-3.2v5.5c0,0.4,0.1,0.8,0.4,1C396.4,39.6,396.7,39.7,397.2,39.7z"/>
	<path class="st3" d="M411.8,36.3c0,1.9-0.5,3.3-1.5,4.3c-1,1-2.3,1.6-4.1,1.6c-1.1,0-2.1-0.2-2.9-0.7c-0.8-0.5-1.5-1.2-1.9-2.1
		s-0.7-1.9-0.7-3.1c0-1.9,0.5-3.3,1.5-4.3c1-1,2.3-1.5,4.1-1.5c1.1,0,2.1,0.2,2.9,0.7c0.8,0.5,1.5,1.2,1.9,2
		C411.5,34.1,411.8,35.1,411.8,36.3z M403.9,36.3c0,1.1,0.2,2,0.6,2.6c0.4,0.6,1,0.9,1.8,0.9c0.8,0,1.4-0.3,1.8-0.9
		c0.4-0.6,0.5-1.4,0.5-2.6c0-1.1-0.2-2-0.5-2.5s-1-0.8-1.8-0.8c-0.8,0-1.4,0.3-1.8,0.8C404.1,34.3,403.9,35.2,403.9,36.3z"/>
	<path class="st3" d="M420,27.1h4.6c2.1,0,3.6,0.3,4.6,0.9c1,0.6,1.4,1.6,1.4,2.9c0,0.9-0.2,1.6-0.6,2.2s-1,0.9-1.7,1v0.1
		c0.9,0.2,1.6,0.6,2,1.2c0.4,0.6,0.6,1.3,0.6,2.3c0,1.4-0.5,2.4-1.5,3.2c-1,0.8-2.3,1.1-4,1.1H420V27.1z M423.1,33h1.8
		c0.9,0,1.5-0.1,1.9-0.4c0.4-0.3,0.6-0.7,0.6-1.3c0-0.6-0.2-1-0.6-1.2c-0.4-0.2-1.1-0.4-2-0.4h-1.7V33z M423.1,35.5v3.9h2.1
		c0.9,0,1.5-0.2,1.9-0.5c0.4-0.3,0.6-0.8,0.6-1.5c0-1.2-0.9-1.9-2.6-1.9H423.1z"/>
	<path class="st3" d="M440.1,30.4c0.4,0,0.8,0,1,0.1l-0.2,2.9c-0.3-0.1-0.6-0.1-0.9-0.1c-1,0-1.8,0.3-2.3,0.8
		c-0.6,0.5-0.8,1.2-0.8,2.1V42h-3.1V30.6h2.4l0.5,1.9h0.2c0.4-0.6,0.8-1.2,1.4-1.5C438.7,30.6,439.4,30.4,440.1,30.4z"/>
	<path class="st3" d="M451.3,42l-0.4-1.5h-0.2c-0.3,0.5-0.8,0.9-1.4,1.2c-0.6,0.3-1.3,0.4-2.1,0.4c-1.3,0-2.3-0.4-3-1.1
		c-0.7-0.7-1-1.7-1-3.1v-7.4h3.1v6.6c0,0.8,0.1,1.4,0.4,1.8s0.8,0.6,1.4,0.6c0.9,0,1.5-0.3,1.9-0.9c0.4-0.6,0.6-1.5,0.6-2.9v-5.4
		h3.1V42H451.3z"/>
	<path class="st3" d="M464.9,38.6c0,1.2-0.4,2.1-1.2,2.7s-2,0.9-3.6,0.9c-0.8,0-1.5-0.1-2.1-0.2c-0.6-0.1-1.1-0.3-1.6-0.5V39
		c0.6,0.3,1.2,0.5,2,0.7c0.7,0.2,1.4,0.3,1.9,0.3c1.1,0,1.7-0.3,1.7-1c0-0.2-0.1-0.4-0.2-0.6c-0.1-0.2-0.4-0.3-0.8-0.5
		c-0.4-0.2-0.9-0.4-1.5-0.7c-0.9-0.4-1.5-0.7-1.9-1c-0.4-0.3-0.7-0.7-0.9-1.1c-0.2-0.4-0.3-0.9-0.3-1.5c0-1,0.4-1.8,1.2-2.3
		c0.8-0.6,1.9-0.8,3.3-0.8c1.4,0,2.7,0.3,4,0.9l-0.9,2.2c-0.6-0.2-1.1-0.4-1.6-0.6s-1-0.2-1.5-0.2c-0.9,0-1.4,0.2-1.4,0.7
		c0,0.3,0.1,0.5,0.4,0.7c0.3,0.2,0.9,0.5,1.9,0.9c0.9,0.4,1.5,0.7,2,1c0.4,0.3,0.7,0.7,0.9,1.1C464.8,37.6,464.9,38.1,464.9,38.6z"
		/>
	<path class="st3" d="M475.2,38.6c0,1.2-0.4,2.1-1.2,2.7s-2,0.9-3.6,0.9c-0.8,0-1.5-0.1-2.1-0.2c-0.6-0.1-1.1-0.3-1.6-0.5V39
		c0.6,0.3,1.2,0.5,2,0.7c0.7,0.2,1.4,0.3,1.9,0.3c1.1,0,1.7-0.3,1.7-1c0-0.2-0.1-0.4-0.2-0.6c-0.1-0.2-0.4-0.3-0.8-0.5
		c-0.4-0.2-0.9-0.4-1.5-0.7c-0.9-0.4-1.5-0.7-1.9-1c-0.4-0.3-0.7-0.7-0.9-1.1c-0.2-0.4-0.3-0.9-0.3-1.5c0-1,0.4-1.8,1.2-2.3
		c0.8-0.6,1.9-0.8,3.3-0.8c1.4,0,2.7,0.3,4,0.9l-0.9,2.2c-0.6-0.2-1.1-0.4-1.6-0.6s-1-0.2-1.5-0.2c-0.9,0-1.4,0.2-1.4,0.7
		c0,0.3,0.1,0.5,0.4,0.7c0.3,0.2,0.9,0.5,1.9,0.9c0.9,0.4,1.5,0.7,2,1c0.4,0.3,0.7,0.7,0.9,1.1C475.1,37.6,475.2,38.1,475.2,38.6z"
		/>
	<path class="st3" d="M482.8,42.2c-1.8,0-3.3-0.5-4.3-1.5c-1-1-1.5-2.4-1.5-4.3c0-1.9,0.5-3.4,1.4-4.4c1-1,2.3-1.6,4-1.6
		c1.6,0,2.9,0.5,3.8,1.4s1.3,2.2,1.3,3.8v1.5h-7.3c0,0.9,0.3,1.6,0.8,2.1c0.5,0.5,1.2,0.7,2.1,0.7c0.7,0,1.3-0.1,1.9-0.2
		c0.6-0.1,1.2-0.4,1.9-0.7v2.4c-0.5,0.3-1.1,0.5-1.7,0.6C484.5,42.1,483.7,42.2,482.8,42.2z M482.4,32.6c-0.7,0-1.2,0.2-1.5,0.6
		c-0.4,0.4-0.6,1-0.6,1.8h4.4c0-0.8-0.2-1.4-0.6-1.8C483.6,32.8,483,32.6,482.4,32.6z"/>
	<path class="st3" d="M493.1,42H490V26.2h3.1V42z"/>
	<path class="st3" d="M504.3,38.6c0,1.2-0.4,2.1-1.2,2.7s-2,0.9-3.6,0.9c-0.8,0-1.5-0.1-2.1-0.2c-0.6-0.1-1.1-0.3-1.6-0.5V39
		c0.6,0.3,1.2,0.5,2,0.7c0.7,0.2,1.4,0.3,1.9,0.3c1.1,0,1.7-0.3,1.7-1c0-0.2-0.1-0.4-0.2-0.6c-0.1-0.2-0.4-0.3-0.8-0.5
		c-0.4-0.2-0.9-0.4-1.5-0.7c-0.9-0.4-1.5-0.7-1.9-1c-0.4-0.3-0.7-0.7-0.9-1.1c-0.2-0.4-0.3-0.9-0.3-1.5c0-1,0.4-1.8,1.2-2.3
		c0.8-0.6,1.9-0.8,3.3-0.8c1.4,0,2.7,0.3,4,0.9l-0.9,2.2c-0.6-0.2-1.1-0.4-1.6-0.6s-1-0.2-1.5-0.2c-0.9,0-1.4,0.2-1.4,0.7
		c0,0.3,0.1,0.5,0.4,0.7c0.3,0.2,0.9,0.5,1.9,0.9c0.9,0.4,1.5,0.7,2,1c0.4,0.3,0.7,0.7,0.9,1.1C504.2,37.6,504.3,38.1,504.3,38.6z"
		/>
	<path class="st3" d="M506.3,40.5c0-0.6,0.2-1,0.5-1.3c0.3-0.3,0.8-0.4,1.3-0.4c0.6,0,1,0.1,1.3,0.4s0.5,0.7,0.5,1.3
		c0,0.5-0.2,1-0.5,1.3c-0.3,0.3-0.7,0.5-1.3,0.5c-0.6,0-1-0.2-1.3-0.5C506.4,41.5,506.3,41.1,506.3,40.5z M509.3,37.1h-2.5l-0.5-9.9
		h3.5L509.3,37.1z"/>
</g>
<g class="st2">
	<path class="st3" d="M184.3,76.9c-0.7,0-1.2-0.1-1.7-0.3v-2c0.6,0.1,1.1,0.2,1.5,0.2c1.3,0,2-0.8,2-2.5V57.9h2.4v14.3
		c0,1.5-0.4,2.7-1.1,3.5C186.7,76.5,185.7,76.9,184.3,76.9z"/>
	<path class="st3" d="M202.1,67.1c0,1.8-0.5,3.3-1.4,4.3c-0.9,1-2.3,1.5-3.9,1.5c-1.1,0-2-0.2-2.8-0.7c-0.8-0.5-1.4-1.2-1.9-2
		c-0.4-0.9-0.7-1.9-0.7-3.1c0-1.8,0.5-3.3,1.4-4.3c0.9-1,2.3-1.5,4-1.5c1.6,0,2.9,0.5,3.9,1.6C201.7,63.9,202.1,65.3,202.1,67.1z
		 M193.9,67.1c0,2.6,1,3.9,2.9,3.9c1.9,0,2.9-1.3,2.9-3.9c0-2.6-1-3.9-2.9-3.9c-1,0-1.7,0.3-2.2,1C194.2,64.9,193.9,65.9,193.9,67.1
		z"/>
	<path class="st3" d="M204.7,58.5c0-0.4,0.1-0.8,0.4-1s0.6-0.3,1-0.3c0.4,0,0.7,0.1,1,0.3c0.2,0.2,0.4,0.6,0.4,1
		c0,0.4-0.1,0.7-0.4,1c-0.2,0.2-0.6,0.4-1,0.4c-0.4,0-0.8-0.1-1-0.4C204.9,59.2,204.7,58.9,204.7,58.5z M207.3,72.8h-2.4V61.5h2.4
		V72.8z"/>
	<path class="st3" d="M220.6,72.8h-2.4v-6.9c0-0.9-0.2-1.5-0.5-1.9s-0.9-0.6-1.7-0.6c-1,0-1.8,0.3-2.2,0.9c-0.5,0.6-0.7,1.6-0.7,3
		v5.6h-2.4V61.5h1.9l0.3,1.5h0.1c0.3-0.5,0.8-1,1.4-1.2c0.6-0.3,1.3-0.4,2.1-0.4c2.7,0,4.1,1.4,4.1,4.1V72.8z"/>
	<path class="st3" d="M237.3,72.8l-0.3-1.5h-0.1c-0.3,0.5-0.8,0.9-1.4,1.2c-0.6,0.3-1.3,0.4-2.1,0.4c-1.4,0-2.4-0.3-3.1-1
		c-0.7-0.7-1-1.7-1-3.1v-7.4h2.4v6.9c0,0.9,0.2,1.5,0.5,1.9c0.4,0.4,0.9,0.6,1.7,0.6c1,0,1.7-0.3,2.2-0.9c0.5-0.6,0.7-1.6,0.7-3
		v-5.6h2.4v11.3H237.3z"/>
	<path class="st3" d="M250.2,69.5c0,1.1-0.4,1.9-1.2,2.5c-0.8,0.6-1.9,0.9-3.4,0.9c-1.5,0-2.7-0.2-3.6-0.7v-2.1
		c1.3,0.6,2.6,0.9,3.7,0.9c1.5,0,2.2-0.4,2.2-1.3c0-0.3-0.1-0.5-0.2-0.7c-0.2-0.2-0.4-0.4-0.8-0.6c-0.4-0.2-0.9-0.4-1.6-0.7
		c-1.3-0.5-2.2-1-2.6-1.5c-0.5-0.5-0.7-1.2-0.7-2c0-1,0.4-1.7,1.2-2.2c0.8-0.5,1.8-0.8,3.2-0.8c1.3,0,2.6,0.3,3.8,0.8l-0.8,1.8
		c-1.2-0.5-2.2-0.8-3.1-0.8c-1.3,0-1.9,0.4-1.9,1.1c0,0.4,0.2,0.7,0.5,0.9c0.3,0.2,1,0.6,2.2,1c0.9,0.4,1.6,0.7,2,1s0.7,0.6,0.9,1
		C250.1,68.5,250.2,69,250.2,69.5z"/>
	<path class="st3" d="M265.2,72.8l-0.5-1.6h-0.1c-0.5,0.7-1.1,1.2-1.6,1.4s-1.3,0.4-2.1,0.4c-1.1,0-2-0.3-2.6-0.9s-0.9-1.4-0.9-2.5
		c0-1.2,0.4-2,1.3-2.6c0.9-0.6,2.2-0.9,3.9-1l1.9-0.1v-0.6c0-0.7-0.2-1.3-0.5-1.6s-0.9-0.5-1.6-0.5c-0.6,0-1.1,0.1-1.7,0.3
		c-0.5,0.2-1,0.4-1.5,0.6l-0.8-1.7c0.6-0.3,1.3-0.6,2-0.7c0.7-0.2,1.4-0.2,2.1-0.2c1.4,0,2.5,0.3,3.2,0.9c0.7,0.6,1.1,1.6,1.1,2.9
		v7.6H265.2z M261.7,71.1c0.9,0,1.6-0.2,2.1-0.7c0.5-0.5,0.8-1.2,0.8-2v-1l-1.4,0.1c-1.1,0-1.9,0.2-2.5,0.6
		c-0.5,0.3-0.8,0.8-0.8,1.5c0,0.5,0.1,0.9,0.4,1.2C260.6,71,261.1,71.1,261.7,71.1z"/>
	<path class="st3" d="M274.5,71c0.6,0,1.2-0.1,1.8-0.3v1.8c-0.3,0.1-0.6,0.2-1,0.3c-0.4,0.1-0.9,0.1-1.3,0.1c-2.3,0-3.4-1.2-3.4-3.6
		v-6.1H269v-1.1l1.6-0.9l0.8-2.4h1.5v2.5h3.2v1.8h-3.2v6c0,0.6,0.1,1,0.4,1.3C273.6,70.9,274,71,274.5,71z"/>
	<path class="st3" d="M293.9,67.1c0,1.8-0.5,3.3-1.4,4.3c-0.9,1-2.3,1.5-3.9,1.5c-1.1,0-2-0.2-2.8-0.7c-0.8-0.5-1.4-1.2-1.9-2
		c-0.4-0.9-0.7-1.9-0.7-3.1c0-1.8,0.5-3.3,1.4-4.3c0.9-1,2.3-1.5,4-1.5c1.6,0,2.9,0.5,3.9,1.6C293.4,63.9,293.9,65.3,293.9,67.1z
		 M285.7,67.1c0,2.6,1,3.9,2.9,3.9c1.9,0,2.9-1.3,2.9-3.9c0-2.6-1-3.9-2.9-3.9c-1,0-1.7,0.3-2.2,1C285.9,64.9,285.7,65.9,285.7,67.1
		z"/>
	<path class="st3" d="M304.6,72.8l-0.3-1.5h-0.1c-0.3,0.5-0.8,0.9-1.4,1.2c-0.6,0.3-1.3,0.4-2.1,0.4c-1.4,0-2.4-0.3-3.1-1
		c-0.7-0.7-1-1.7-1-3.1v-7.4h2.4v6.9c0,0.9,0.2,1.5,0.5,1.9c0.4,0.4,0.9,0.6,1.7,0.6c1,0,1.7-0.3,2.2-0.9c0.5-0.6,0.7-1.6,0.7-3
		v-5.6h2.4v11.3H304.6z"/>
	<path class="st3" d="M315.6,61.3c0.5,0,0.9,0,1.2,0.1l-0.2,2.2c-0.3-0.1-0.7-0.1-1.1-0.1c-1,0-1.7,0.3-2.3,0.9s-0.9,1.4-0.9,2.4
		v5.9h-2.4V61.5h1.9l0.3,2h0.1c0.4-0.7,0.9-1.2,1.5-1.6C314.2,61.5,314.9,61.3,315.6,61.3z"/>
	<path class="st3" d="M334.2,72.8h-2.4v-6.9c0-0.9-0.2-1.5-0.5-1.9s-0.9-0.6-1.7-0.6c-1,0-1.8,0.3-2.2,0.9c-0.5,0.6-0.7,1.6-0.7,3
		v5.6h-2.4V61.5h1.9l0.3,1.5h0.1c0.3-0.5,0.8-1,1.4-1.2c0.6-0.3,1.3-0.4,2.1-0.4c2.7,0,4.1,1.4,4.1,4.1V72.8z"/>
	<path class="st3" d="M342.4,73c-1.8,0-3.1-0.5-4.1-1.5c-1-1-1.5-2.4-1.5-4.2c0-1.8,0.5-3.3,1.4-4.3c0.9-1.1,2.2-1.6,3.8-1.6
		c1.5,0,2.7,0.5,3.5,1.4c0.9,0.9,1.3,2.1,1.3,3.7v1.3h-7.5c0,1.1,0.3,1.9,0.9,2.5s1.3,0.9,2.4,0.9c0.7,0,1.3-0.1,1.9-0.2
		c0.6-0.1,1.2-0.3,1.8-0.6v1.9c-0.6,0.3-1.2,0.5-1.8,0.6C343.9,72.9,343.2,73,342.4,73z M342,63.1c-0.8,0-1.4,0.2-1.8,0.7
		c-0.5,0.5-0.7,1.2-0.8,2.1h5.1c0-0.9-0.2-1.6-0.7-2.1S342.7,63.1,342,63.1z"/>
	<path class="st3" d="M352,67l-3.8-5.5h2.7l2.6,3.9l2.6-3.9h2.7L355,67l4,5.8h-2.7l-2.8-4.2l-2.8,4.2h-2.7L352,67z"/>
	<path class="st3" d="M365.2,71c0.6,0,1.2-0.1,1.8-0.3v1.8c-0.3,0.1-0.6,0.2-1,0.3c-0.4,0.1-0.9,0.1-1.3,0.1c-2.3,0-3.4-1.2-3.4-3.6
		v-6.1h-1.5v-1.1l1.6-0.9l0.8-2.4h1.5v2.5h3.2v1.8h-3.2v6c0,0.6,0.1,1,0.4,1.3C364.4,70.9,364.7,71,365.2,71z"/>
	<path class="st3" d="M381.2,59.7c-1.4,0-2.5,0.5-3.3,1.5c-0.8,1-1.2,2.4-1.2,4.1c0,1.8,0.4,3.2,1.2,4.1c0.8,0.9,1.9,1.4,3.3,1.4
		c0.6,0,1.2-0.1,1.8-0.2c0.6-0.1,1.2-0.3,1.8-0.5v2.1c-1.2,0.4-2.5,0.7-4,0.7c-2.2,0-3.9-0.7-5-2c-1.2-1.3-1.8-3.2-1.8-5.7
		c0-1.5,0.3-2.9,0.9-4.1c0.6-1.2,1.4-2,2.5-2.7c1.1-0.6,2.3-0.9,3.8-0.9c1.5,0,2.9,0.3,4.2,1l-0.9,2c-0.5-0.2-1-0.4-1.6-0.6
		C382.4,59.8,381.8,59.7,381.2,59.7z"/>
	<path class="st3" d="M394.9,72.8l-0.5-1.6h-0.1c-0.5,0.7-1.1,1.2-1.6,1.4s-1.3,0.4-2.1,0.4c-1.1,0-2-0.3-2.6-0.9s-0.9-1.4-0.9-2.5
		c0-1.2,0.4-2,1.3-2.6c0.9-0.6,2.2-0.9,3.9-1l1.9-0.1v-0.6c0-0.7-0.2-1.3-0.5-1.6s-0.9-0.5-1.6-0.5c-0.6,0-1.1,0.1-1.7,0.3
		c-0.5,0.2-1,0.4-1.5,0.6l-0.8-1.7c0.6-0.3,1.3-0.6,2-0.7c0.7-0.2,1.4-0.2,2.1-0.2c1.4,0,2.5,0.3,3.2,0.9c0.7,0.6,1.1,1.6,1.1,2.9
		v7.6H394.9z M391.3,71.1c0.9,0,1.6-0.2,2.1-0.7c0.5-0.5,0.8-1.2,0.8-2v-1l-1.4,0.1c-1.1,0-1.9,0.2-2.5,0.6
		c-0.5,0.3-0.8,0.8-0.8,1.5c0,0.5,0.1,0.9,0.4,1.2C390.3,71,390.7,71.1,391.3,71.1z"/>
	<path class="st3" d="M409.4,72.8H407v-6.9c0-0.9-0.2-1.5-0.5-1.9c-0.3-0.4-0.8-0.6-1.5-0.6c-0.9,0-1.6,0.3-2,0.9
		c-0.4,0.6-0.6,1.6-0.6,3v5.6h-2.4V61.5h1.9l0.3,1.5h0.1c0.3-0.5,0.8-1,1.4-1.2c0.6-0.3,1.2-0.4,2-0.4c1.7,0,2.9,0.6,3.4,1.8h0.2
		c0.3-0.6,0.8-1,1.4-1.3c0.6-0.3,1.3-0.5,2.1-0.5c1.3,0,2.3,0.3,2.9,1s0.9,1.7,0.9,3.1v7.3h-2.4v-6.9c0-0.9-0.2-1.5-0.5-1.9
		c-0.3-0.4-0.8-0.6-1.5-0.6c-0.9,0-1.6,0.3-2,0.9c-0.4,0.6-0.6,1.5-0.6,2.7V72.8z"/>
	<path class="st3" d="M427.8,72.8l-0.3-1.5h-0.1c-0.3,0.5-0.8,0.9-1.4,1.2c-0.6,0.3-1.3,0.4-2.1,0.4c-1.4,0-2.4-0.3-3.1-1
		c-0.7-0.7-1-1.7-1-3.1v-7.4h2.4v6.9c0,0.9,0.2,1.5,0.5,1.9c0.4,0.4,0.9,0.6,1.7,0.6c1,0,1.7-0.3,2.2-0.9c0.5-0.6,0.7-1.6,0.7-3
		v-5.6h2.4v11.3H427.8z"/>
	<path class="st3" d="M443,72.8h-2.4v-6.9c0-0.9-0.2-1.5-0.5-1.9s-0.9-0.6-1.7-0.6c-1,0-1.8,0.3-2.2,0.9c-0.5,0.6-0.7,1.6-0.7,3v5.6
		h-2.4V61.5h1.9l0.3,1.5h0.1c0.3-0.5,0.8-1,1.4-1.2c0.6-0.3,1.3-0.4,2.1-0.4c2.7,0,4.1,1.4,4.1,4.1V72.8z"/>
	<path class="st3" d="M450.1,73c-1.4,0-2.5-0.5-3.3-1.5c-0.8-1-1.2-2.4-1.2-4.3c0-1.8,0.4-3.3,1.2-4.3c0.8-1,1.9-1.5,3.3-1.5
		c1.5,0,2.6,0.5,3.4,1.6h0.1c-0.1-0.8-0.2-1.4-0.2-1.9v-4.1h2.4v15.8H454l-0.4-1.5h-0.1C452.7,72.4,451.6,73,450.1,73z M450.8,71
		c1,0,1.7-0.3,2.1-0.8c0.4-0.6,0.7-1.5,0.7-2.7v-0.3c0-1.4-0.2-2.4-0.7-3c-0.5-0.6-1.2-0.9-2.2-0.9c-0.8,0-1.5,0.3-1.9,1
		s-0.7,1.7-0.7,2.9c0,1.2,0.2,2.2,0.7,2.9C449.2,70.7,449.9,71,450.8,71z"/>
	<path class="st3" d="M466.4,72.8l-0.5-1.6h-0.1c-0.5,0.7-1.1,1.2-1.6,1.4s-1.3,0.4-2.1,0.4c-1.1,0-2-0.3-2.6-0.9s-0.9-1.4-0.9-2.5
		c0-1.2,0.4-2,1.3-2.6c0.9-0.6,2.2-0.9,3.9-1l1.9-0.1v-0.6c0-0.7-0.2-1.3-0.5-1.6s-0.9-0.5-1.6-0.5c-0.6,0-1.1,0.1-1.7,0.3
		c-0.5,0.2-1,0.4-1.5,0.6l-0.8-1.7c0.6-0.3,1.3-0.6,2-0.7c0.7-0.2,1.4-0.2,2.1-0.2c1.4,0,2.5,0.3,3.2,0.9c0.7,0.6,1.1,1.6,1.1,2.9
		v7.6H466.4z M462.8,71.1c0.9,0,1.6-0.2,2.1-0.7c0.5-0.5,0.8-1.2,0.8-2v-1l-1.4,0.1c-1.1,0-1.9,0.2-2.5,0.6
		c-0.5,0.3-0.8,0.8-0.8,1.5c0,0.5,0.1,0.9,0.4,1.2C461.8,71,462.2,71.1,462.8,71.1z"/>
	<path class="st3" d="M489.2,65.2c0,2.5-0.7,4.3-2,5.6c-1.4,1.3-3.3,2-5.9,2h-4.2V57.9h4.6c2.4,0,4.2,0.6,5.5,1.9
		S489.2,62.9,489.2,65.2z M486.7,65.3c0-3.6-1.7-5.3-5-5.3h-2.1v10.8h1.7C484.9,70.7,486.7,68.9,486.7,65.3z"/>
	<path class="st3" d="M499.2,72.8l-0.5-1.6h-0.1c-0.5,0.7-1.1,1.2-1.6,1.4s-1.3,0.4-2.1,0.4c-1.1,0-2-0.3-2.6-0.9s-0.9-1.4-0.9-2.5
		c0-1.2,0.4-2,1.3-2.6c0.9-0.6,2.2-0.9,3.9-1l1.9-0.1v-0.6c0-0.7-0.2-1.3-0.5-1.6s-0.9-0.5-1.6-0.5c-0.6,0-1.1,0.1-1.7,0.3
		c-0.5,0.2-1,0.4-1.5,0.6l-0.8-1.7c0.6-0.3,1.3-0.6,2-0.7c0.7-0.2,1.4-0.2,2.1-0.2c1.4,0,2.5,0.3,3.2,0.9c0.7,0.6,1.1,1.6,1.1,2.9
		v7.6H499.2z M495.6,71.1c0.9,0,1.6-0.2,2.1-0.7c0.5-0.5,0.8-1.2,0.8-2v-1l-1.4,0.1c-1.1,0-1.9,0.2-2.5,0.6
		c-0.5,0.3-0.8,0.8-0.8,1.5c0,0.5,0.1,0.9,0.4,1.2C494.6,71,495,71.1,495.6,71.1z"/>
	<path class="st3" d="M502.5,61.5h2.6l2.3,6.4c0.3,0.9,0.6,1.8,0.7,2.6h0.1c0.1-0.4,0.2-0.8,0.3-1.4s1-3.1,2.6-7.6h2.6l-4.8,12.8
		c-0.9,2.3-2.3,3.5-4.4,3.5c-0.5,0-1-0.1-1.5-0.2v-1.9c0.4,0.1,0.8,0.1,1.2,0.1c1.2,0,2-0.7,2.4-2l0.4-1.1L502.5,61.5z"/>
	<path class="st3" d="M530.8,67.1c0,1.8-0.5,3.3-1.4,4.3c-0.9,1-2.3,1.5-3.9,1.5c-1.1,0-2-0.2-2.8-0.7c-0.8-0.5-1.4-1.2-1.9-2
		c-0.4-0.9-0.7-1.9-0.7-3.1c0-1.8,0.5-3.3,1.4-4.3c0.9-1,2.3-1.5,4-1.5c1.6,0,2.9,0.5,3.9,1.6C530.4,63.9,530.8,65.3,530.8,67.1z
		 M522.6,67.1c0,2.6,1,3.9,2.9,3.9c1.9,0,2.9-1.3,2.9-3.9c0-2.6-1-3.9-2.9-3.9c-1,0-1.7,0.3-2.2,1C522.9,64.9,522.6,65.9,522.6,67.1
		z"/>
	<path class="st3" d="M543.5,72.8h-2.4v-6.9c0-0.9-0.2-1.5-0.5-1.9s-0.9-0.6-1.7-0.6c-1,0-1.8,0.3-2.2,0.9c-0.5,0.6-0.7,1.6-0.7,3
		v5.6h-2.4V61.5h1.9l0.3,1.5h0.1c0.3-0.5,0.8-1,1.4-1.2c0.6-0.3,1.3-0.4,2.1-0.4c2.7,0,4.1,1.4,4.1,4.1V72.8z"/>
	<path class="st3" d="M564.9,72.8h-3l-7.3-11.9h-0.1l0.1,0.7c0.1,1.3,0.1,2.4,0.1,3.5v7.7h-2.2V57.9h3l7.3,11.8h0.1
		c0-0.2,0-0.7-0.1-1.7c0-1-0.1-1.7-0.1-2.3v-7.8h2.2V72.8z"/>
	<path class="st3" d="M578.6,67.1c0,1.8-0.5,3.3-1.4,4.3c-0.9,1-2.3,1.5-3.9,1.5c-1.1,0-2-0.2-2.8-0.7c-0.8-0.5-1.4-1.2-1.9-2
		c-0.4-0.9-0.7-1.9-0.7-3.1c0-1.8,0.5-3.3,1.4-4.3c0.9-1,2.3-1.5,4-1.5c1.6,0,2.9,0.5,3.9,1.6S578.6,65.3,578.6,67.1z M570.4,67.1
		c0,2.6,1,3.9,2.9,3.9c1.9,0,2.9-1.3,2.9-3.9c0-2.6-1-3.9-2.9-3.9c-1,0-1.7,0.3-2.2,1S570.4,65.9,570.4,67.1z"/>
	<path class="st3" d="M583.9,72.8l-4.3-11.3h2.5l2.3,6.5c0.4,1.1,0.6,2,0.7,2.7h0.1c0.1-0.5,0.3-1.4,0.7-2.7l2.3-6.5h2.5l-4.3,11.3
		H583.9z"/>
	<path class="st3" d="M597.4,73c-1.8,0-3.1-0.5-4.1-1.5c-1-1-1.5-2.4-1.5-4.2c0-1.8,0.5-3.3,1.4-4.3c0.9-1.1,2.2-1.6,3.8-1.6
		c1.5,0,2.7,0.5,3.5,1.4c0.9,0.9,1.3,2.1,1.3,3.7v1.3h-7.5c0,1.1,0.3,1.9,0.9,2.5s1.3,0.9,2.4,0.9c0.7,0,1.3-0.1,1.9-0.2
		c0.6-0.1,1.2-0.3,1.8-0.6v1.9c-0.6,0.3-1.2,0.5-1.8,0.6C598.8,72.9,598.2,73,597.4,73z M597,63.1c-0.8,0-1.4,0.2-1.8,0.7
		c-0.5,0.5-0.7,1.2-0.8,2.1h5.1c0-0.9-0.2-1.6-0.7-2.1S597.7,63.1,597,63.1z"/>
	<path class="st3" d="M614,72.8h-2.4v-6.9c0-0.9-0.2-1.5-0.5-1.9c-0.3-0.4-0.8-0.6-1.5-0.6c-0.9,0-1.6,0.3-2,0.9s-0.6,1.6-0.6,3v5.6
		h-2.4V61.5h1.9l0.3,1.5h0.1c0.3-0.5,0.8-1,1.4-1.2c0.6-0.3,1.2-0.4,2-0.4c1.7,0,2.9,0.6,3.4,1.8h0.2c0.3-0.6,0.8-1,1.4-1.3
		c0.6-0.3,1.3-0.5,2.1-0.5c1.3,0,2.3,0.3,2.9,1s0.9,1.7,0.9,3.1v7.3h-2.4v-6.9c0-0.9-0.2-1.5-0.5-1.9c-0.3-0.4-0.8-0.6-1.5-0.6
		c-0.9,0-1.6,0.3-2,0.9c-0.4,0.6-0.6,1.5-0.6,2.7V72.8z"/>
	<path class="st3" d="M630.2,61.3c1.4,0,2.5,0.5,3.3,1.5s1.2,2.4,1.2,4.3c0,1.8-0.4,3.3-1.2,4.3c-0.8,1-1.9,1.5-3.3,1.5
		c-1.4,0-2.5-0.5-3.3-1.5h-0.2l-0.4,1.3h-1.8V56.9h2.4v3.8c0,0.3,0,0.7,0,1.2c0,0.5,0,0.9-0.1,1h0.1
		C627.6,61.9,628.7,61.3,630.2,61.3z M629.6,63.2c-1,0-1.7,0.3-2.1,0.9c-0.4,0.6-0.6,1.5-0.7,2.8v0.2c0,1.4,0.2,2.4,0.7,3
		s1.1,0.9,2.1,0.9c0.8,0,1.5-0.3,1.9-1s0.7-1.6,0.7-2.9C632.2,64.5,631.3,63.2,629.6,63.2z"/>
	<path class="st3" d="M642.3,73c-1.8,0-3.1-0.5-4.1-1.5c-1-1-1.5-2.4-1.5-4.2c0-1.8,0.5-3.3,1.4-4.3c0.9-1.1,2.2-1.6,3.8-1.6
		c1.5,0,2.7,0.5,3.5,1.4c0.9,0.9,1.3,2.1,1.3,3.7v1.3h-7.5c0,1.1,0.3,1.9,0.9,2.5s1.3,0.9,2.4,0.9c0.7,0,1.3-0.1,1.9-0.2
		c0.6-0.1,1.2-0.3,1.8-0.6v1.9c-0.6,0.3-1.2,0.5-1.8,0.6S643.1,73,642.3,73z M641.9,63.1c-0.8,0-1.4,0.2-1.8,0.7
		c-0.5,0.5-0.7,1.2-0.8,2.1h5.1c0-0.9-0.2-1.6-0.7-2.1S642.7,63.1,641.9,63.1z"/>
	<path class="st3" d="M655.2,61.3c0.5,0,0.9,0,1.2,0.1l-0.2,2.2c-0.3-0.1-0.7-0.1-1.1-0.1c-1,0-1.7,0.3-2.3,0.9
		c-0.6,0.6-0.9,1.4-0.9,2.4v5.9h-2.4V61.5h1.9l0.3,2h0.1c0.4-0.7,0.9-1.2,1.5-1.6S654.5,61.3,655.2,61.3z"/>
	<path class="st3" d="M670.1,72.8h-2.4v-9.6c0-1.1,0-2.1,0.1-2.7c-0.2,0.2-0.3,0.3-0.6,0.5s-1,0.8-2.3,1.9l-1.2-1.5l4.4-3.4h2V72.8z
		"/>
	<path class="st3" d="M685.1,72.8H675v-1.8l3.8-3.9c1.1-1.2,1.9-2,2.3-2.5c0.4-0.5,0.6-0.9,0.8-1.4s0.3-0.9,0.3-1.4
		c0-0.7-0.2-1.2-0.6-1.6c-0.4-0.4-1-0.6-1.7-0.6c-0.6,0-1.1,0.1-1.7,0.3c-0.5,0.2-1.1,0.6-1.8,1.1l-1.3-1.6c0.8-0.7,1.6-1.2,2.4-1.5
		c0.8-0.3,1.6-0.4,2.5-0.4c1.4,0,2.5,0.4,3.3,1.1s1.3,1.7,1.3,2.9c0,0.7-0.1,1.3-0.4,1.9c-0.2,0.6-0.6,1.2-1.1,1.9s-1.3,1.5-2.5,2.6
		l-2.6,2.5v0.1h7.1V72.8z"/>
	<path class="st3" d="M691.9,71c0.6,0,1.2-0.1,1.8-0.3v1.8c-0.3,0.1-0.6,0.2-1,0.3c-0.4,0.1-0.9,0.1-1.3,0.1c-2.3,0-3.4-1.2-3.4-3.6
		v-6.1h-1.5v-1.1l1.6-0.9l0.8-2.4h1.5v2.5h3.2v1.8h-3.2v6c0,0.6,0.1,1,0.4,1.3C691,70.9,691.4,71,691.9,71z"/>
	<path class="st3" d="M705.8,72.8h-2.4v-6.9c0-0.9-0.2-1.5-0.5-1.9s-0.9-0.6-1.7-0.6c-1,0-1.7,0.3-2.2,0.9c-0.5,0.6-0.7,1.6-0.7,3
		v5.6h-2.4V56.9h2.4v4c0,0.6,0,1.3-0.1,2.1h0.2c0.3-0.5,0.8-1,1.4-1.3c0.6-0.3,1.3-0.4,2-0.4c2.7,0,4.1,1.4,4.1,4.1V72.8z"/>
	<path class="st3" d="M708.7,71.5c0-0.5,0.1-0.9,0.4-1.1s0.6-0.4,1.1-0.4c0.5,0,0.9,0.1,1.1,0.4c0.3,0.3,0.4,0.7,0.4,1.1
		c0,0.5-0.1,0.9-0.4,1.1c-0.3,0.3-0.6,0.4-1.1,0.4c-0.5,0-0.9-0.1-1.1-0.4S708.7,72,708.7,71.5z"/>
</g>
<g class="st2">
	<path class="st4" d="M850.7,53.3v6.5H848V43.6h4.6c2.1,0,3.7,0.4,4.7,1.2s1.5,2,1.5,3.6c0,2-1.1,3.5-3.2,4.3l4.6,7.2h-3l-3.9-6.5
		H850.7z M850.7,51.1h1.8c1.2,0,2.1-0.2,2.7-0.7c0.6-0.5,0.8-1.1,0.8-2c0-0.9-0.3-1.6-0.9-2c-0.6-0.4-1.5-0.6-2.7-0.6h-1.8V51.1z"/>
	<path class="st4" d="M867.7,60.1c-1.9,0-3.4-0.6-4.5-1.7s-1.6-2.7-1.6-4.6c0-2,0.5-3.6,1.5-4.7c1-1.2,2.4-1.7,4.1-1.7
		c1.6,0,2.9,0.5,3.9,1.5c0.9,1,1.4,2.3,1.4,4.1v1.4h-8.2c0,1.2,0.4,2.1,1,2.8s1.5,1,2.6,1c0.7,0,1.4-0.1,2-0.2
		c0.6-0.1,1.3-0.4,2-0.7v2.1c-0.6,0.3-1.3,0.5-1.9,0.6C869.3,60,868.5,60.1,867.7,60.1z M867.2,49.3c-0.8,0-1.5,0.3-2,0.8
		c-0.5,0.5-0.8,1.3-0.9,2.3h5.6c0-1-0.3-1.8-0.7-2.3C868.7,49.5,868,49.3,867.2,49.3z"/>
	<path class="st4" d="M885.8,47.5V49l-2.1,0.4c0.2,0.3,0.4,0.6,0.5,1c0.1,0.4,0.2,0.8,0.2,1.2c0,1.3-0.4,2.3-1.3,3
		c-0.9,0.7-2.1,1.1-3.6,1.1c-0.4,0-0.7,0-1.1-0.1c-0.6,0.3-0.8,0.8-0.8,1.2c0,0.3,0.1,0.5,0.4,0.6c0.3,0.1,0.7,0.2,1.5,0.2h2.1
		c1.4,0,2.4,0.3,3.1,0.9c0.7,0.6,1.1,1.4,1.1,2.5c0,1.4-0.6,2.5-1.7,3.2s-2.8,1.1-5,1.1c-1.7,0-3-0.3-3.8-0.9
		c-0.9-0.6-1.3-1.4-1.3-2.5c0-0.8,0.2-1.4,0.7-1.9c0.5-0.5,1.1-0.9,2-1.1c-0.3-0.1-0.6-0.4-0.9-0.7s-0.3-0.7-0.3-1
		c0-0.5,0.1-0.8,0.4-1.2s0.6-0.6,1.2-0.9c-0.6-0.3-1.2-0.7-1.6-1.3c-0.4-0.6-0.6-1.3-0.6-2.2c0-1.3,0.4-2.4,1.3-3.1s2-1.1,3.6-1.1
		c0.3,0,0.7,0,1.1,0.1c0.4,0,0.7,0.1,0.9,0.1H885.8z M876.2,61.7c0,0.6,0.3,1,0.8,1.3c0.5,0.3,1.2,0.5,2.1,0.5
		c1.4,0,2.5-0.2,3.2-0.6c0.7-0.4,1-1,1-1.6c0-0.5-0.2-0.9-0.6-1.1s-1.1-0.3-2.1-0.3h-2c-0.7,0-1.3,0.2-1.8,0.5
		C876.4,60.7,876.2,61.1,876.2,61.7z M877.3,51.5c0,0.8,0.2,1.4,0.6,1.8c0.4,0.4,1,0.6,1.7,0.6c1.5,0,2.3-0.8,2.3-2.4
		c0-0.8-0.2-1.4-0.6-1.9c-0.4-0.4-0.9-0.7-1.7-0.7c-0.8,0-1.3,0.2-1.7,0.6C877.5,50.1,877.3,50.7,877.3,51.5z"/>
	<path class="st4" d="M888,44.3c0-0.5,0.1-0.8,0.4-1.1c0.3-0.3,0.6-0.4,1.1-0.4c0.5,0,0.8,0.1,1.1,0.4c0.3,0.3,0.4,0.6,0.4,1.1
		c0,0.4-0.1,0.8-0.4,1.1c-0.3,0.3-0.6,0.4-1.1,0.4c-0.5,0-0.8-0.1-1.1-0.4C888.1,45.1,888,44.7,888,44.3z M890.7,59.8h-2.6V47.5h2.6
		V59.8z"/>
	<path class="st4" d="M902.7,56.3c0,1.2-0.4,2.1-1.3,2.8s-2.1,1-3.8,1c-1.6,0-3-0.2-3.9-0.7V57c1.4,0.7,2.8,1,4,1
		c1.6,0,2.4-0.5,2.4-1.5c0-0.3-0.1-0.6-0.3-0.8c-0.2-0.2-0.5-0.4-0.9-0.6c-0.4-0.2-1-0.5-1.7-0.8c-1.4-0.5-2.4-1.1-2.9-1.6
		c-0.5-0.5-0.8-1.3-0.8-2.1c0-1.1,0.4-1.9,1.3-2.5c0.8-0.6,2-0.9,3.5-0.9c1.4,0,2.8,0.3,4.1,0.9l-0.8,2c-1.3-0.5-2.4-0.8-3.3-0.8
		c-1.4,0-2.1,0.4-2.1,1.2c0,0.4,0.2,0.7,0.5,1c0.4,0.3,1.1,0.6,2.4,1.1c1,0.4,1.8,0.8,2.2,1.1c0.5,0.3,0.8,0.7,1,1.1
		C902.6,55.2,902.7,55.7,902.7,56.3z"/>
	<path class="st4" d="M910.2,57.9c0.6,0,1.3-0.1,1.9-0.3v2c-0.3,0.1-0.7,0.2-1.1,0.3c-0.5,0.1-0.9,0.1-1.4,0.1
		c-2.5,0-3.7-1.3-3.7-3.9v-6.6h-1.7v-1.2l1.8-1l0.9-2.6h1.6v2.7h3.5v2h-3.5v6.6c0,0.6,0.2,1.1,0.5,1.4
		C909.2,57.8,909.6,57.9,910.2,57.9z"/>
	<path class="st4" d="M919.9,60.1c-1.9,0-3.4-0.6-4.5-1.7c-1.1-1.1-1.6-2.7-1.6-4.6c0-2,0.5-3.6,1.5-4.7c1-1.2,2.4-1.7,4.1-1.7
		c1.6,0,2.9,0.5,3.8,1.5s1.4,2.3,1.4,4.1v1.4h-8.2c0,1.2,0.4,2.1,1,2.8c0.6,0.6,1.5,1,2.6,1c0.7,0,1.4-0.1,2-0.2
		c0.6-0.1,1.3-0.4,2-0.7v2.1c-0.6,0.3-1.3,0.5-1.9,0.6S920.7,60.1,919.9,60.1z M919.4,49.3c-0.8,0-1.5,0.3-2,0.8
		c-0.5,0.5-0.8,1.3-0.9,2.3h5.6c0-1-0.3-1.8-0.7-2.3C920.9,49.5,920.3,49.3,919.4,49.3z"/>
	<path class="st4" d="M933.9,47.3c0.5,0,1,0,1.3,0.1l-0.3,2.4c-0.4-0.1-0.8-0.1-1.2-0.1c-1,0-1.9,0.3-2.5,1c-0.6,0.7-1,1.6-1,2.7
		v6.4h-2.6V47.5h2l0.3,2.2h0.1c0.4-0.7,0.9-1.3,1.6-1.7C932.4,47.5,933.1,47.3,933.9,47.3z"/>
	<path class="st4" d="M949.6,49.5h-3v10.3h-2.6V49.5h-2v-1.2l2-0.8v-0.8c0-1.5,0.3-2.5,1-3.2c0.7-0.7,1.7-1.1,3.1-1.1
		c0.9,0,1.8,0.2,2.7,0.5l-0.7,2c-0.6-0.2-1.3-0.3-1.8-0.3c-0.6,0-1,0.2-1.3,0.6c-0.3,0.4-0.4,0.9-0.4,1.7v0.8h3V49.5z"/>
	<path class="st4" d="M962.6,53.7c0,2-0.5,3.6-1.5,4.7s-2.5,1.7-4.3,1.7c-1.2,0-2.2-0.3-3-0.8c-0.9-0.5-1.6-1.3-2-2.2
		s-0.7-2.1-0.7-3.4c0-2,0.5-3.6,1.5-4.7s2.5-1.7,4.3-1.7c1.8,0,3.2,0.6,4.2,1.7S962.6,51.7,962.6,53.7z M953.6,53.7
		c0,2.8,1,4.3,3.1,4.3c2.1,0,3.1-1.4,3.1-4.3c0-2.8-1-4.2-3.1-4.2c-1.1,0-1.9,0.4-2.4,1.1C953.9,51.3,953.6,52.3,953.6,53.7z"/>
	<path class="st4" d="M971.8,47.3c0.5,0,1,0,1.3,0.1l-0.3,2.4c-0.4-0.1-0.8-0.1-1.2-0.1c-1,0-1.9,0.3-2.5,1c-0.6,0.7-1,1.6-1,2.7
		v6.4h-2.6V47.5h2l0.3,2.2h0.1c0.4-0.7,0.9-1.3,1.6-1.7C970.4,47.5,971.1,47.3,971.8,47.3z"/>
	<path class="st4" d="M984.3,59.8h-2.6V43.6h9.2v2.2h-6.5v5.1h6.1v2.3h-6.1V59.8z"/>
	<path class="st4" d="M999.7,47.3c0.5,0,1,0,1.3,0.1l-0.3,2.4c-0.4-0.1-0.8-0.1-1.2-0.1c-1,0-1.9,0.3-2.5,1c-0.6,0.7-1,1.6-1,2.7
		v6.4h-2.6V47.5h2l0.3,2.2h0.1c0.4-0.7,0.9-1.3,1.6-1.7C998.2,47.5,999,47.3,999.7,47.3z"/>
	<path class="st4" d="M1008.7,60.1c-1.9,0-3.4-0.6-4.5-1.7s-1.6-2.7-1.6-4.6c0-2,0.5-3.6,1.5-4.7c1-1.2,2.4-1.7,4.1-1.7
		c1.6,0,2.9,0.5,3.9,1.5c0.9,1,1.4,2.3,1.4,4.1v1.4h-8.2c0,1.2,0.4,2.1,1,2.8s1.5,1,2.6,1c0.7,0,1.4-0.1,2-0.2
		c0.6-0.1,1.3-0.4,2-0.7v2.1c-0.6,0.3-1.3,0.5-1.9,0.6C1010.2,60,1009.5,60.1,1008.7,60.1z M1008.2,49.3c-0.8,0-1.5,0.3-2,0.8
		c-0.5,0.5-0.8,1.3-0.9,2.3h5.6c0-1-0.3-1.8-0.7-2.3C1009.7,49.5,1009,49.3,1008.2,49.3z"/>
	<path class="st4" d="M1021.8,60.1c-1.9,0-3.4-0.6-4.5-1.7s-1.6-2.7-1.6-4.6c0-2,0.5-3.6,1.5-4.7c1-1.2,2.4-1.7,4.1-1.7
		c1.6,0,2.9,0.5,3.9,1.5c0.9,1,1.4,2.3,1.4,4.1v1.4h-8.2c0,1.2,0.4,2.1,1,2.8s1.5,1,2.6,1c0.7,0,1.4-0.1,2-0.2
		c0.6-0.1,1.3-0.4,2-0.7v2.1c-0.6,0.3-1.3,0.5-1.9,0.6C1023.4,60,1022.6,60.1,1021.8,60.1z M1021.3,49.3c-0.8,0-1.5,0.3-2,0.8
		c-0.5,0.5-0.8,1.3-0.9,2.3h5.6c0-1-0.3-1.8-0.7-2.3C1022.8,49.5,1022.1,49.3,1021.3,49.3z"/>
</g>
<path class="st5" d="M119.5,70.8c-3.8,4-10.2,4.1-14.2,0.2s-4.1-10.2-0.1-14.2c3.8-4,10.2-4.1,14.2-0.2
	C123.2,60.4,123.3,66.8,119.5,70.8z"/>
<path class="st5" d="M146.9,48.6L146.9,48.6l1.1,4.2l-4.7,1.9L141,51l0.1-0.1c-1.7,0.4-3.4,0.4-5,0l-2.3,3.7l-4.7-1.9l1.1-4.2h0.1
	c-1.4-1-2.5-2.2-3.5-3.6l0,0l-4.2,1.1l-1.9-4.7l3.8-2.3l0.1,0.1c-0.2-1.7-0.4-3.4,0-5l-3.7-2.2l1.9-4.7l4.2,1.1v0.1
	c0.6-0.8,1.2-1.6,1.9-2.3h-24.1c-1.7,0-3.1,1.4-3.1,3.1v20.3l2.9,2l-0.1,0.1c1.4-1,3-1.6,4.6-1.9l0,0l0.6-4.2l4.9-0.1l0.7,4.2h-0.1
	c1.6,0.4,3.1,1,4.6,1.8l3.4-2.6l3.6,3.5l-2.5,3.5l-0.1-0.1c1,1.4,1.6,2.9,1.9,4.6l0,0l4.2,0.6l0.1,4.9l-4.2,0.7v-0.1
	c-0.4,1.6-1,3.1-1.8,4.6l2.3,3h19.8c1.7,0,3.1-1.4,3.1-3.1V46.5C148.6,47.2,147.8,48,146.9,48.6z"/>
<path class="st5" d="M148.3,40.8c-2.2,5.2-8.2,7.7-13.3,5.5c-5.2-2.2-7.7-8.2-5.5-13.3s8.2-7.7,13.3-5.5
	C147.9,29.6,150.4,35.5,148.3,40.8z"/>
<line class="st6" x1="776.5" y1="17.5" x2="776.5" y2="82.5"/>
</svg>
