<?xml version="1.0" encoding="utf-8"?>
<!-- Generator: Adobe Illustrator 23.0.0, SVG Export Plug-In . SVG Version: 6.00 Build 0)  -->
<svg version="1.1" id="Ebene_1" xmlns="http://www.w3.org/2000/svg" xmlns:xlink="http://www.w3.org/1999/xlink" x="0px" y="0px"
	 viewBox="0 0 767 331" style="enable-background:new 0 0 767 331;" xml:space="preserve">
<style type="text/css">
	.st0{fill:#ECECEC;}
	.st1{enable-background:new    ;}
	.st2{fill:#525149;}
	.st3{fill:#B51F29;}
	.st4{fill:#B2000D;}
	.st5{fill:#FFFFFF;}
</style>
<rect class="st0" width="767" height="331"/>
<g class="st1">
	<path class="st2" d="M174,152.8c-1.6,0-2.8,0.6-3.7,1.8c-0.9,1.2-1.3,2.8-1.3,4.9c0,4.4,1.7,6.6,5,6.6c1.4,0,3.1-0.3,5-1v3.5
		c-1.6,0.7-3.4,1-5.4,1c-2.9,0-5.1-0.9-6.6-2.6s-2.3-4.2-2.3-7.5c0-2.1,0.4-3.8,1.1-5.4c0.7-1.5,1.8-2.7,3.2-3.5
		c1.4-0.8,3-1.2,4.9-1.2c1.9,0,3.8,0.5,5.8,1.4l-1.3,3.4c-0.7-0.4-1.5-0.7-2.2-0.9S174.7,152.8,174,152.8z"/>
	<path class="st2" d="M192.4,169.3l-0.8-2.1h-0.1c-0.7,0.9-1.4,1.5-2.1,1.8c-0.7,0.3-1.7,0.5-2.9,0.5c-1.4,0-2.6-0.4-3.4-1.2
		c-0.8-0.8-1.2-2-1.2-3.5c0-1.6,0.6-2.8,1.7-3.5c1.1-0.8,2.8-1.2,5.1-1.3l2.6-0.1v-0.7c0-1.5-0.8-2.3-2.3-2.3
		c-1.2,0-2.6,0.4-4.2,1.1l-1.4-2.8c1.7-0.9,3.7-1.4,5.8-1.4c2,0,3.6,0.4,4.7,1.3c1.1,0.9,1.6,2.2,1.6,4v10.1H192.4z M191.2,162.3
		l-1.6,0.1c-1.2,0-2.1,0.3-2.7,0.6s-0.9,1-0.9,1.8c0,1.2,0.7,1.7,2,1.7c1,0,1.7-0.3,2.3-0.8c0.6-0.5,0.9-1.3,0.9-2.2V162.3z"/>
	<path class="st2" d="M213.1,169.3h-4.1v-8.8c0-1.1-0.2-1.9-0.5-2.4c-0.4-0.5-0.9-0.8-1.7-0.8c-1.1,0-1.8,0.4-2.3,1.2
		c-0.5,0.8-0.7,2-0.7,3.8v7.1h-4.1v-15.1h3.1l0.6,1.9h0.2c0.4-0.7,1-1.2,1.8-1.6c0.8-0.4,1.6-0.6,2.6-0.6c2.3,0,3.8,0.7,4.6,2.2h0.4
		c0.4-0.7,1-1.2,1.8-1.6c0.8-0.4,1.7-0.6,2.7-0.6c1.7,0,3,0.4,3.9,1.3s1.3,2.3,1.3,4.2v9.8h-4.1v-8.8c0-1.1-0.2-1.9-0.5-2.4
		c-0.4-0.5-0.9-0.8-1.7-0.8c-1,0-1.8,0.4-2.3,1.1c-0.5,0.7-0.7,1.9-0.7,3.4V169.3z"/>
	<path class="st2" d="M237.4,169.3l-0.6-1.9h-0.2c-0.4,0.7-1.1,1.2-1.9,1.6c-0.8,0.4-1.7,0.6-2.8,0.6c-1.8,0-3.1-0.5-4-1.4
		c-0.9-0.9-1.3-2.3-1.3-4.1v-9.8h4.1v8.8c0,1.1,0.2,1.9,0.6,2.4c0.4,0.5,1,0.8,1.8,0.8c1.2,0,2-0.4,2.5-1.2c0.5-0.8,0.8-2,0.8-3.8
		v-7.1h4.1v15.1H237.4z"/>
	<path class="st2" d="M258.8,169.3h-4.1v-8.8c0-1.1-0.2-1.9-0.6-2.4c-0.4-0.5-1-0.8-1.8-0.8c-1.2,0-2,0.4-2.5,1.2
		c-0.5,0.8-0.8,2-0.8,3.8v7.1h-4.1v-15.1h3.1l0.6,1.9h0.2c0.5-0.7,1.1-1.3,1.9-1.7s1.7-0.6,2.7-0.6c1.8,0,3.1,0.5,4,1.4
		c0.9,0.9,1.4,2.3,1.4,4.1V169.3z"/>
	<path class="st2" d="M267.8,169.6c-1.8,0-3.2-0.7-4.2-2.1c-1-1.4-1.5-3.3-1.5-5.7c0-2.5,0.5-4.4,1.5-5.8c1-1.4,2.4-2.1,4.3-2.1
		c1.9,0,3.3,0.7,4.3,2.2h0.1c-0.2-1.1-0.3-2.1-0.3-3v-4.8h4.1v21H273l-0.8-2h-0.2C271.1,168.9,269.7,169.6,267.8,169.6z
		 M269.2,166.3c1.1,0,1.8-0.3,2.3-0.9c0.5-0.6,0.8-1.7,0.8-3.1v-0.4c0-1.6-0.2-2.8-0.7-3.5c-0.5-0.7-1.3-1.1-2.4-1.1
		c-0.9,0-1.6,0.4-2.1,1.2c-0.5,0.8-0.8,1.9-0.8,3.4s0.3,2.6,0.8,3.3S268.3,166.3,269.2,166.3z"/>
	<path class="st2" d="M290.1,169.3l-0.8-2.1h-0.1c-0.7,0.9-1.4,1.5-2.1,1.8c-0.7,0.3-1.7,0.5-2.9,0.5c-1.4,0-2.6-0.4-3.4-1.2
		c-0.8-0.8-1.2-2-1.2-3.5c0-1.6,0.6-2.8,1.7-3.5c1.1-0.8,2.8-1.2,5.1-1.3l2.6-0.1v-0.7c0-1.5-0.8-2.3-2.3-2.3
		c-1.2,0-2.6,0.4-4.2,1.1l-1.4-2.8c1.7-0.9,3.7-1.4,5.8-1.4c2,0,3.6,0.4,4.7,1.3c1.1,0.9,1.6,2.2,1.6,4v10.1H290.1z M288.9,162.3
		l-1.6,0.1c-1.2,0-2.1,0.3-2.7,0.6s-0.9,1-0.9,1.8c0,1.2,0.7,1.7,2,1.7c1,0,1.7-0.3,2.3-0.8c0.6-0.5,0.9-1.3,0.9-2.2V162.3z"/>
	<path class="st2" d="M304.2,150.3c0-1.3,0.7-2,2.2-2c1.5,0,2.2,0.7,2.2,2c0,0.6-0.2,1.1-0.6,1.5c-0.4,0.4-0.9,0.5-1.7,0.5
		C304.9,152.4,304.2,151.7,304.2,150.3z M308.5,169.3h-4.1v-15.1h4.1V169.3z"/>
	<path class="st2" d="M323.3,164.8c0,1.5-0.5,2.7-1.6,3.5s-2.7,1.2-4.8,1.2c-1.1,0-2-0.1-2.8-0.2s-1.5-0.4-2.2-0.7v-3.4
		c0.8,0.4,1.6,0.7,2.6,0.9c1,0.2,1.8,0.4,2.5,0.4c1.5,0,2.2-0.4,2.2-1.3c0-0.3-0.1-0.6-0.3-0.8s-0.5-0.4-1-0.7
		c-0.5-0.3-1.1-0.6-1.9-0.9c-1.2-0.5-2-0.9-2.6-1.3c-0.5-0.4-0.9-0.9-1.2-1.4c-0.2-0.5-0.4-1.2-0.4-2c0-1.3,0.5-2.4,1.6-3.1
		c1-0.7,2.5-1.1,4.4-1.1c1.8,0,3.6,0.4,5.3,1.2l-1.2,3c-0.8-0.3-1.5-0.6-2.1-0.8s-1.3-0.3-2-0.3c-1.2,0-1.8,0.3-1.8,1
		c0,0.4,0.2,0.7,0.6,1c0.4,0.3,1.2,0.7,2.6,1.2c1.2,0.5,2,0.9,2.6,1.3c0.5,0.4,1,0.9,1.2,1.4C323.2,163.5,323.3,164.1,323.3,164.8z"
		/>
	<path class="st2" d="M339.8,169.6c-4.7,0-7-2.6-7-7.7c0-2.6,0.6-4.5,1.9-5.9c1.3-1.4,3.1-2,5.5-2c1.7,0,3.3,0.3,4.7,1l-1.2,3.2
		c-0.6-0.3-1.3-0.5-1.8-0.6s-1.1-0.2-1.7-0.2c-2.1,0-3.2,1.5-3.2,4.6c0,3,1.1,4.4,3.2,4.4c0.8,0,1.5-0.1,2.2-0.3
		c0.7-0.2,1.3-0.5,2-1v3.5c-0.7,0.4-1.3,0.7-2,0.9C341.7,169.5,340.9,169.6,339.8,169.6z"/>
	<path class="st2" d="M361.6,161.8c0,2.5-0.6,4.4-1.9,5.8c-1.3,1.4-3.1,2.1-5.4,2.1c-1.4,0-2.7-0.3-3.8-1c-1.1-0.6-2-1.5-2.5-2.7
		c-0.6-1.2-0.9-2.6-0.9-4.2c0-2.5,0.6-4.4,1.9-5.7c1.3-1.4,3.1-2.1,5.4-2.1c1.4,0,2.7,0.3,3.8,0.9s2,1.5,2.6,2.7
		C361.3,158.8,361.6,160.2,361.6,161.8z M351.2,161.8c0,1.5,0.2,2.6,0.7,3.4c0.5,0.8,1.3,1.1,2.4,1.1c1.1,0,1.9-0.4,2.4-1.1
		c0.5-0.8,0.7-1.9,0.7-3.4c0-1.5-0.2-2.6-0.7-3.4c-0.5-0.7-1.3-1.1-2.4-1.1c-1.1,0-1.9,0.4-2.4,1.1S351.2,160.3,351.2,161.8z"/>
	<path class="st2" d="M378.5,169.3h-4.1v-8.8c0-1.1-0.2-1.9-0.5-2.4c-0.4-0.5-0.9-0.8-1.7-0.8c-1.1,0-1.8,0.4-2.3,1.2
		c-0.5,0.8-0.7,2-0.7,3.8v7.1H365v-15.1h3.1l0.6,1.9h0.2c0.4-0.7,1-1.2,1.8-1.6c0.8-0.4,1.6-0.6,2.6-0.6c2.3,0,3.8,0.7,4.6,2.2h0.4
		c0.4-0.7,1-1.2,1.8-1.6c0.8-0.4,1.7-0.6,2.7-0.6c1.7,0,3,0.4,3.9,1.3s1.3,2.3,1.3,4.2v9.8h-4.1v-8.8c0-1.1-0.2-1.9-0.5-2.4
		c-0.4-0.5-0.9-0.8-1.7-0.8c-1,0-1.8,0.4-2.3,1.1c-0.5,0.7-0.7,1.9-0.7,3.4V169.3z"/>
	<path class="st2" d="M392,150.3c0-1.3,0.7-2,2.2-2s2.2,0.7,2.2,2c0,0.6-0.2,1.1-0.6,1.5c-0.4,0.4-0.9,0.5-1.7,0.5
		C392.7,152.4,392,151.7,392,150.3z M396.3,169.3h-4.1v-15.1h4.1V169.3z"/>
	<path class="st2" d="M414.5,169.3h-4.1v-8.8c0-1.1-0.2-1.9-0.6-2.4c-0.4-0.5-1-0.8-1.8-0.8c-1.2,0-2,0.4-2.5,1.2
		c-0.5,0.8-0.8,2-0.8,3.8v7.1h-4.1v-15.1h3.1l0.6,1.9h0.2c0.5-0.7,1.1-1.3,1.9-1.7c0.8-0.4,1.7-0.6,2.7-0.6c1.8,0,3.1,0.5,4,1.4
		c0.9,0.9,1.4,2.3,1.4,4.1V169.3z"/>
	<path class="st2" d="M431.9,154.2v2.1l-2.4,0.6c0.4,0.7,0.6,1.4,0.6,2.3c0,1.6-0.6,2.9-1.7,3.8c-1.1,0.9-2.7,1.4-4.7,1.4l-0.7,0
		l-0.6-0.1c-0.4,0.3-0.6,0.7-0.6,1.1c0,0.6,0.8,0.9,2.3,0.9h2.6c1.7,0,2.9,0.4,3.8,1.1c0.9,0.7,1.3,1.8,1.3,3.1
		c0,1.8-0.7,3.1-2.2,4.1c-1.5,1-3.6,1.5-6.3,1.5c-2.1,0-3.7-0.4-4.8-1.1c-1.1-0.7-1.7-1.8-1.7-3.1c0-0.9,0.3-1.7,0.9-2.3
		c0.6-0.6,1.4-1,2.5-1.3c-0.4-0.2-0.8-0.5-1.1-0.9c-0.3-0.4-0.5-0.8-0.5-1.3c0-0.6,0.2-1.1,0.5-1.4c0.3-0.4,0.8-0.8,1.4-1.1
		c-0.8-0.3-1.4-0.9-1.9-1.6c-0.5-0.8-0.7-1.6-0.7-2.7c0-1.6,0.5-2.9,1.6-3.8s2.6-1.3,4.6-1.3c0.4,0,0.9,0,1.5,0.1s1,0.1,1.1,0.2
		H431.9z M420.2,171.5c0,0.6,0.3,1,0.8,1.3c0.5,0.3,1.3,0.5,2.3,0.5c1.5,0,2.6-0.2,3.5-0.6c0.8-0.4,1.3-1,1.3-1.7
		c0-0.6-0.2-1-0.7-1.2c-0.5-0.2-1.3-0.3-2.3-0.3h-2.1c-0.8,0-1.4,0.2-1.9,0.5C420.5,170.4,420.2,170.9,420.2,171.5z M421.7,159.2
		c0,0.8,0.2,1.5,0.6,1.9c0.4,0.5,0.9,0.7,1.7,0.7c0.8,0,1.3-0.2,1.7-0.7s0.5-1.1,0.5-1.9c0-1.8-0.7-2.7-2.2-2.7
		C422.5,156.5,421.7,157.4,421.7,159.2z"/>
	<path class="st2" d="M447.9,166.3c0.7,0,1.6-0.2,2.6-0.5v3.1c-1,0.5-2.3,0.7-3.8,0.7c-1.6,0-2.8-0.4-3.6-1.2s-1.1-2.1-1.1-3.7v-7.3
		h-2v-1.7l2.3-1.4l1.2-3.2h2.6v3.2h4.2v3.1h-4.2v7.3c0,0.6,0.2,1,0.5,1.3C446.9,166.2,447.4,166.3,447.9,166.3z"/>
	<path class="st2" d="M467.2,161.8c0,2.5-0.6,4.4-1.9,5.8c-1.3,1.4-3.1,2.1-5.4,2.1c-1.4,0-2.7-0.3-3.8-1c-1.1-0.6-2-1.5-2.6-2.7
		c-0.6-1.2-0.9-2.6-0.9-4.2c0-2.5,0.6-4.4,1.9-5.7c1.3-1.4,3.1-2.1,5.4-2.1c1.4,0,2.7,0.3,3.8,0.9s2,1.5,2.6,2.7
		C466.9,158.8,467.2,160.2,467.2,161.8z M456.8,161.8c0,1.5,0.2,2.6,0.7,3.4s1.3,1.1,2.4,1.1c1.1,0,1.9-0.4,2.4-1.1
		c0.5-0.8,0.7-1.9,0.7-3.4c0-1.5-0.2-2.6-0.7-3.4c-0.5-0.7-1.3-1.1-2.4-1.1c-1.1,0-1.9,0.4-2.4,1.1
		C457.1,159.1,456.8,160.3,456.8,161.8z"/>
	<path class="st2" d="M478.1,149.6h6.1c2.8,0,4.8,0.4,6.1,1.2c1.3,0.8,1.9,2.1,1.9,3.8c0,1.2-0.3,2.1-0.8,2.9
		c-0.6,0.8-1.3,1.2-2.2,1.4v0.1c1.2,0.3,2.2,0.8,2.7,1.6c0.6,0.8,0.8,1.8,0.8,3c0,1.8-0.6,3.2-1.9,4.2c-1.3,1-3.1,1.5-5.3,1.5h-7.4
		V149.6z M482.3,157.4h2.4c1.1,0,2-0.2,2.5-0.5c0.5-0.4,0.8-0.9,0.8-1.7c0-0.8-0.3-1.3-0.8-1.6c-0.6-0.3-1.4-0.5-2.6-0.5h-2.2V157.4
		z M482.3,160.7v5.1h2.7c1.2,0,2-0.2,2.6-0.7c0.5-0.4,0.8-1.1,0.8-2c0-1.6-1.2-2.5-3.5-2.5H482.3z"/>
	<path class="st2" d="M504.8,154c0.6,0,1,0,1.4,0.1l-0.3,3.9c-0.3-0.1-0.7-0.1-1.2-0.1c-1.3,0-2.3,0.3-3.1,1
		c-0.7,0.7-1.1,1.6-1.1,2.8v7.7h-4.1v-15.1h3.1l0.6,2.5h0.2c0.5-0.8,1.1-1.5,1.9-2S503.9,154,504.8,154z"/>
	<path class="st2" d="M519.6,169.3l-0.6-1.9h-0.2c-0.4,0.7-1.1,1.2-1.9,1.6c-0.8,0.4-1.7,0.6-2.8,0.6c-1.8,0-3.1-0.5-4-1.4
		c-0.9-0.9-1.3-2.3-1.3-4.1v-9.8h4.1v8.8c0,1.1,0.2,1.9,0.6,2.4c0.4,0.5,1,0.8,1.8,0.8c1.2,0,2-0.4,2.5-1.2c0.5-0.8,0.8-2,0.8-3.8
		v-7.1h4.1v15.1H519.6z"/>
	<path class="st2" d="M537.6,164.8c0,1.5-0.5,2.7-1.6,3.5c-1.1,0.8-2.7,1.2-4.8,1.2c-1.1,0-2-0.1-2.8-0.2s-1.5-0.4-2.2-0.7v-3.4
		c0.8,0.4,1.6,0.7,2.6,0.9c1,0.2,1.8,0.4,2.5,0.4c1.5,0,2.2-0.4,2.2-1.3c0-0.3-0.1-0.6-0.3-0.8s-0.5-0.4-1-0.7
		c-0.5-0.3-1.1-0.6-1.9-0.9c-1.2-0.5-2-0.9-2.6-1.3c-0.5-0.4-0.9-0.9-1.2-1.4c-0.2-0.5-0.4-1.2-0.4-2c0-1.3,0.5-2.4,1.6-3.1
		c1-0.7,2.5-1.1,4.4-1.1c1.8,0,3.6,0.4,5.3,1.2l-1.2,3c-0.8-0.3-1.5-0.6-2.1-0.8c-0.7-0.2-1.3-0.3-2-0.3c-1.2,0-1.8,0.3-1.8,1
		c0,0.4,0.2,0.7,0.6,1c0.4,0.3,1.2,0.7,2.6,1.2c1.2,0.5,2,0.9,2.6,1.3c0.5,0.4,1,0.9,1.2,1.4C537.5,163.5,537.6,164.1,537.6,164.8z"
		/>
	<path class="st2" d="M551.4,164.8c0,1.5-0.5,2.7-1.6,3.5s-2.7,1.2-4.8,1.2c-1.1,0-2-0.1-2.8-0.2s-1.5-0.4-2.2-0.7v-3.4
		c0.8,0.4,1.6,0.7,2.6,0.9c1,0.2,1.8,0.4,2.5,0.4c1.5,0,2.2-0.4,2.2-1.3c0-0.3-0.1-0.6-0.3-0.8c-0.2-0.2-0.5-0.4-1-0.7
		c-0.5-0.3-1.1-0.6-1.9-0.9c-1.2-0.5-2-0.9-2.6-1.3c-0.5-0.4-0.9-0.9-1.2-1.4c-0.2-0.5-0.4-1.2-0.4-2c0-1.3,0.5-2.4,1.6-3.1
		c1-0.7,2.5-1.1,4.4-1.1c1.8,0,3.6,0.4,5.3,1.2l-1.2,3c-0.8-0.3-1.5-0.6-2.1-0.8s-1.3-0.3-2-0.3c-1.2,0-1.8,0.3-1.8,1
		c0,0.4,0.2,0.7,0.6,1c0.4,0.3,1.2,0.7,2.6,1.2c1.2,0.5,2,0.9,2.6,1.3s1,0.9,1.2,1.4C551.2,163.5,551.4,164.1,551.4,164.8z"/>
	<path class="st2" d="M561.4,169.6c-2.4,0-4.3-0.7-5.7-2c-1.4-1.3-2.1-3.2-2.1-5.7c0-2.5,0.6-4.5,1.9-5.9c1.3-1.4,3-2.1,5.2-2.1
		c2.1,0,3.8,0.6,5,1.8c1.2,1.2,1.8,2.9,1.8,5v2h-9.7c0,1.2,0.4,2.1,1,2.7c0.6,0.7,1.6,1,2.7,1c0.9,0,1.8-0.1,2.6-0.3
		c0.8-0.2,1.7-0.5,2.5-0.9v3.2c-0.7,0.4-1.5,0.6-2.3,0.8S562.6,169.6,561.4,169.6z M560.8,156.9c-0.9,0-1.6,0.3-2.1,0.8
		c-0.5,0.6-0.8,1.3-0.9,2.4h5.8c0-1-0.3-1.8-0.8-2.4C562.4,157.2,561.7,156.9,560.8,156.9z"/>
	<path class="st2" d="M575,169.3h-4.1v-21h4.1V169.3z"/>
	<path class="st2" d="M589.8,164.8c0,1.5-0.5,2.7-1.6,3.5s-2.7,1.2-4.8,1.2c-1.1,0-2-0.1-2.8-0.2s-1.5-0.4-2.2-0.7v-3.4
		c0.8,0.4,1.6,0.7,2.6,0.9c1,0.2,1.8,0.4,2.5,0.4c1.5,0,2.2-0.4,2.2-1.3c0-0.3-0.1-0.6-0.3-0.8c-0.2-0.2-0.5-0.4-1-0.7
		c-0.5-0.3-1.1-0.6-1.9-0.9c-1.2-0.5-2-0.9-2.6-1.3s-0.9-0.9-1.2-1.4s-0.4-1.2-0.4-2c0-1.3,0.5-2.4,1.6-3.1c1-0.7,2.5-1.1,4.4-1.1
		c1.8,0,3.6,0.4,5.3,1.2l-1.2,3c-0.8-0.3-1.5-0.6-2.1-0.8s-1.3-0.3-2-0.3c-1.2,0-1.8,0.3-1.8,1c0,0.4,0.2,0.7,0.6,1
		c0.4,0.3,1.2,0.7,2.6,1.2c1.2,0.5,2,0.9,2.6,1.3c0.5,0.4,1,0.9,1.2,1.4C589.7,163.5,589.8,164.1,589.8,164.8z"/>
	<path class="st2" d="M592.5,167.4c0-0.8,0.2-1.3,0.6-1.7s1-0.6,1.8-0.6c0.7,0,1.3,0.2,1.7,0.6c0.4,0.4,0.6,1,0.6,1.7
		c0,0.7-0.2,1.3-0.6,1.7c-0.4,0.4-1,0.6-1.7,0.6c-0.8,0-1.3-0.2-1.8-0.6C592.7,168.7,592.5,168.1,592.5,167.4z M596.5,162.8h-3.3
		l-0.7-13.2h4.7L596.5,162.8z"/>
</g>
<g class="st1">
	<path class="st2" d="M33.3,215.6c-0.9,0-1.6-0.1-2.2-0.3v-2.7c0.8,0.2,1.4,0.3,2,0.3c1.8,0,2.6-1.1,2.6-3.3v-19.1H39v19
		c0,2-0.5,3.6-1.4,4.6C36.6,215,35.2,215.6,33.3,215.6z"/>
	<path class="st2" d="M57,202.6c0,2.4-0.6,4.3-1.9,5.7c-1.2,1.4-3,2.1-5.2,2.1c-1.4,0-2.6-0.3-3.7-0.9c-1.1-0.6-1.9-1.5-2.5-2.7
		c-0.6-1.2-0.9-2.5-0.9-4.1c0-2.4,0.6-4.3,1.9-5.7c1.2-1.4,3-2,5.2-2c2.2,0,3.9,0.7,5.1,2.1C56.3,198.4,57,200.2,57,202.6z
		 M46.1,202.6c0,3.4,1.3,5.2,3.8,5.2c2.5,0,3.8-1.7,3.8-5.2c0-3.4-1.3-5.1-3.8-5.1c-1.3,0-2.3,0.4-2.9,1.3S46.1,200.9,46.1,202.6z"
		/>
	<path class="st2" d="M60.4,191.2c0-0.6,0.2-1,0.5-1.3c0.3-0.3,0.8-0.5,1.3-0.5c0.6,0,1,0.2,1.3,0.5c0.3,0.3,0.5,0.7,0.5,1.3
		c0,0.5-0.2,1-0.5,1.3c-0.3,0.3-0.7,0.5-1.3,0.5c-0.6,0-1-0.2-1.3-0.5C60.6,192.2,60.4,191.7,60.4,191.2z M63.8,210.1h-3.2v-14.9
		h3.2V210.1z"/>
	<path class="st2" d="M81.4,210.1h-3.2v-9.2c0-1.2-0.2-2-0.7-2.6c-0.5-0.6-1.2-0.8-2.2-0.8c-1.3,0-2.3,0.4-2.9,1.2
		c-0.6,0.8-0.9,2.1-0.9,4v7.4h-3.2v-14.9h2.5l0.4,2h0.2c0.4-0.7,1.1-1.3,1.9-1.6c0.8-0.4,1.7-0.6,2.8-0.6c3.6,0,5.4,1.8,5.4,5.5
		V210.1z"/>
	<path class="st2" d="M103.6,210.1l-0.4-2h-0.2c-0.4,0.7-1.1,1.2-1.9,1.6c-0.8,0.4-1.7,0.6-2.8,0.6c-1.8,0-3.2-0.4-4-1.3
		c-0.9-0.9-1.3-2.3-1.3-4.1v-9.8h3.2v9.2c0,1.1,0.2,2,0.7,2.6c0.5,0.6,1.2,0.9,2.2,0.9c1.3,0,2.3-0.4,2.9-1.2c0.6-0.8,0.9-2.1,0.9-4
		v-7.4h3.2v14.9H103.6z"/>
	<path class="st2" d="M120.6,205.8c0,1.5-0.5,2.6-1.6,3.4c-1.1,0.8-2.6,1.2-4.6,1.2c-2,0-3.6-0.3-4.8-0.9v-2.7
		c1.8,0.8,3.4,1.2,4.9,1.2c2,0,2.9-0.6,2.9-1.8c0-0.4-0.1-0.7-0.3-0.9c-0.2-0.3-0.6-0.5-1.1-0.8c-0.5-0.3-1.2-0.6-2.1-0.9
		c-1.7-0.7-2.9-1.3-3.5-2c-0.6-0.7-0.9-1.5-0.9-2.6c0-1.3,0.5-2.3,1.5-3c1-0.7,2.4-1.1,4.2-1.1c1.8,0,3.4,0.4,5,1.1l-1,2.4
		c-1.6-0.7-3-1-4.1-1c-1.7,0-2.5,0.5-2.5,1.4c0,0.5,0.2,0.9,0.7,1.2c0.4,0.3,1.4,0.8,2.9,1.3c1.2,0.5,2.1,0.9,2.7,1.3
		c0.6,0.4,1,0.9,1.2,1.4C120.5,204.5,120.6,205.1,120.6,205.8z"/>
	<path class="st2" d="M140.5,210.1l-0.6-2.1h-0.1c-0.7,0.9-1.4,1.5-2.2,1.9s-1.7,0.5-2.8,0.5c-1.5,0-2.6-0.4-3.4-1.2
		c-0.8-0.8-1.2-1.9-1.2-3.4c0-1.5,0.6-2.7,1.7-3.5c1.1-0.8,2.9-1.2,5.2-1.3l2.6-0.1v-0.8c0-1-0.2-1.7-0.7-2.1
		c-0.4-0.5-1.1-0.7-2.1-0.7c-0.8,0-1.5,0.1-2.2,0.3c-0.7,0.2-1.4,0.5-2,0.8l-1-2.3c0.8-0.4,1.7-0.7,2.7-1c1-0.2,1.9-0.3,2.7-0.3
		c1.9,0,3.3,0.4,4.3,1.2c1,0.8,1.5,2.1,1.5,3.9v10.1H140.5z M135.8,207.9c1.2,0,2.1-0.3,2.8-1c0.7-0.6,1-1.5,1-2.7V203l-1.9,0.1
		c-1.5,0.1-2.6,0.3-3.3,0.7s-1,1.1-1,2c0,0.7,0.2,1.2,0.6,1.5C134.4,207.7,135,207.9,135.8,207.9z"/>
	<path class="st2" d="M152.8,207.8c0.8,0,1.5-0.1,2.3-0.4v2.4c-0.4,0.2-0.8,0.3-1.4,0.4s-1.1,0.2-1.7,0.2c-3,0-4.5-1.6-4.5-4.7v-8
		h-2v-1.4l2.2-1.2l1.1-3.2h2v3.3h4.2v2.4h-4.2v8c0,0.8,0.2,1.3,0.6,1.7C151.7,207.6,152.2,207.8,152.8,207.8z"/>
	<path class="st2" d="M178.5,202.6c0,2.4-0.6,4.3-1.9,5.7c-1.2,1.4-3,2.1-5.2,2.1c-1.4,0-2.6-0.3-3.7-0.9c-1.1-0.6-1.9-1.5-2.5-2.7
		c-0.6-1.2-0.9-2.5-0.9-4.1c0-2.4,0.6-4.3,1.9-5.7c1.2-1.4,3-2,5.2-2c2.2,0,3.9,0.7,5.1,2.1C177.9,198.4,178.5,200.2,178.5,202.6z
		 M167.6,202.6c0,3.4,1.3,5.2,3.8,5.2c2.5,0,3.8-1.7,3.8-5.2c0-3.4-1.3-5.1-3.8-5.1c-1.3,0-2.3,0.4-2.9,1.3S167.6,200.9,167.6,202.6
		z"/>
	<path class="st2" d="M192.7,210.1l-0.4-2h-0.2c-0.4,0.7-1.1,1.2-1.9,1.6c-0.8,0.4-1.7,0.6-2.8,0.6c-1.8,0-3.2-0.4-4-1.3
		c-0.9-0.9-1.3-2.3-1.3-4.1v-9.8h3.2v9.2c0,1.1,0.2,2,0.7,2.6c0.5,0.6,1.2,0.9,2.2,0.9c1.3,0,2.3-0.4,2.9-1.2c0.6-0.8,0.9-2.1,0.9-4
		v-7.4h3.2v14.9H192.7z"/>
	<path class="st2" d="M207.3,194.9c0.6,0,1.2,0,1.6,0.1l-0.3,3c-0.4-0.1-0.9-0.2-1.4-0.2c-1.3,0-2.3,0.4-3.1,1.2
		c-0.8,0.8-1.2,1.9-1.2,3.2v7.8h-3.2v-14.9h2.5l0.4,2.6h0.2c0.5-0.9,1.1-1.6,1.9-2.1C205.5,195.1,206.3,194.9,207.3,194.9z"/>
	<path class="st2" d="M231.9,210.1h-3.2v-9.2c0-1.2-0.2-2-0.7-2.6c-0.5-0.6-1.2-0.8-2.2-0.8c-1.3,0-2.3,0.4-2.9,1.2
		c-0.6,0.8-0.9,2.1-0.9,4v7.4h-3.2v-14.9h2.5l0.4,2h0.2c0.4-0.7,1.1-1.3,1.9-1.6c0.8-0.4,1.7-0.6,2.8-0.6c3.6,0,5.4,1.8,5.4,5.5
		V210.1z"/>
	<path class="st2" d="M242.8,210.3c-2.3,0-4.1-0.7-5.4-2s-2-3.2-2-5.6c0-2.4,0.6-4.4,1.8-5.7c1.2-1.4,2.9-2.1,5-2.1
		c2,0,3.5,0.6,4.7,1.8c1.1,1.2,1.7,2.8,1.7,4.9v1.7h-9.9c0,1.4,0.4,2.6,1.2,3.3c0.7,0.8,1.8,1.2,3.1,1.2c0.9,0,1.7-0.1,2.5-0.2
		s1.6-0.4,2.4-0.8v2.6c-0.8,0.4-1.6,0.6-2.3,0.8C244.8,210.3,243.8,210.3,242.8,210.3z M242.3,197.3c-1,0-1.8,0.3-2.4,1
		c-0.6,0.6-1,1.6-1.1,2.8h6.8c0-1.2-0.3-2.2-0.9-2.8C244,197.6,243.3,197.3,242.3,197.3z"/>
	<path class="st2" d="M255.6,202.5l-5-7.3h3.6l3.4,5.2l3.4-5.2h3.6l-5,7.3l5.3,7.6h-3.6l-3.7-5.6l-3.7,5.6h-3.6L255.6,202.5z"/>
	<path class="st2" d="M273,207.8c0.8,0,1.5-0.1,2.3-0.4v2.4c-0.4,0.2-0.8,0.3-1.4,0.4s-1.1,0.2-1.7,0.2c-3,0-4.5-1.6-4.5-4.7v-8h-2
		v-1.4l2.2-1.2l1.1-3.2h2v3.3h4.2v2.4h-4.2v8c0,0.8,0.2,1.3,0.6,1.7C271.9,207.6,272.4,207.8,273,207.8z"/>
	<path class="st2" d="M294.2,192.8c-1.9,0-3.3,0.7-4.4,2c-1.1,1.3-1.6,3.1-1.6,5.4c0,2.4,0.5,4.2,1.5,5.5s2.5,1.9,4.4,1.9
		c0.8,0,1.6-0.1,2.4-0.2c0.8-0.2,1.6-0.4,2.4-0.6v2.8c-1.5,0.6-3.3,0.9-5.3,0.9c-2.9,0-5.1-0.9-6.7-2.6c-1.5-1.7-2.3-4.3-2.3-7.5
		c0-2.1,0.4-3.8,1.1-5.4c0.8-1.5,1.8-2.7,3.3-3.5c1.4-0.8,3.1-1.2,5-1.2c2,0,3.9,0.4,5.6,1.3l-1.2,2.7c-0.7-0.3-1.4-0.6-2.1-0.8
		S295,192.8,294.2,192.8z"/>
	<path class="st2" d="M312.3,210.1l-0.6-2.1h-0.1c-0.7,0.9-1.4,1.5-2.2,1.9s-1.7,0.5-2.8,0.5c-1.5,0-2.6-0.4-3.4-1.2
		c-0.8-0.8-1.2-1.9-1.2-3.4c0-1.5,0.6-2.7,1.7-3.5c1.1-0.8,2.9-1.2,5.2-1.3l2.6-0.1v-0.8c0-1-0.2-1.7-0.7-2.1
		c-0.4-0.5-1.1-0.7-2.1-0.7c-0.8,0-1.5,0.1-2.2,0.3c-0.7,0.2-1.4,0.5-2,0.8l-1-2.3c0.8-0.4,1.7-0.7,2.7-1c1-0.2,1.9-0.3,2.7-0.3
		c1.9,0,3.3,0.4,4.3,1.2c1,0.8,1.5,2.1,1.5,3.9v10.1H312.3z M307.6,207.9c1.2,0,2.1-0.3,2.8-1c0.7-0.6,1-1.5,1-2.7V203l-1.9,0.1
		c-1.5,0.1-2.6,0.3-3.3,0.7s-1,1.1-1,2c0,0.7,0.2,1.2,0.6,1.5C306.2,207.7,306.8,207.9,307.6,207.9z"/>
	<path class="st2" d="M331.6,210.1h-3.2v-9.2c0-1.1-0.2-2-0.6-2.6c-0.4-0.6-1.1-0.8-2-0.8c-1.2,0-2.1,0.4-2.7,1.2
		c-0.6,0.8-0.9,2.1-0.9,4v7.4H319v-14.9h2.5l0.4,2h0.2c0.4-0.7,1-1.3,1.8-1.6c0.8-0.4,1.7-0.6,2.6-0.6c2.3,0,3.8,0.8,4.6,2.3h0.2
		c0.4-0.7,1.1-1.3,1.9-1.7c0.8-0.4,1.7-0.6,2.8-0.6c1.8,0,3.1,0.5,3.9,1.3c0.8,0.9,1.2,2.3,1.2,4.1v9.7h-3.2v-9.2
		c0-1.1-0.2-2-0.7-2.6c-0.4-0.6-1.1-0.8-2-0.8c-1.2,0-2.1,0.4-2.7,1.2c-0.6,0.8-0.9,2-0.9,3.5V210.1z"/>
	<path class="st2" d="M356,210.1l-0.4-2h-0.2c-0.4,0.7-1.1,1.2-1.9,1.6c-0.8,0.4-1.7,0.6-2.8,0.6c-1.8,0-3.2-0.4-4-1.3
		c-0.9-0.9-1.3-2.3-1.3-4.1v-9.8h3.2v9.2c0,1.1,0.2,2,0.7,2.6c0.5,0.6,1.2,0.9,2.2,0.9c1.3,0,2.3-0.4,2.9-1.2c0.6-0.8,0.9-2.1,0.9-4
		v-7.4h3.2v14.9H356z"/>
	<path class="st2" d="M376.1,210.1h-3.2v-9.2c0-1.2-0.2-2-0.7-2.6c-0.5-0.6-1.2-0.8-2.2-0.8c-1.3,0-2.3,0.4-2.9,1.2
		c-0.6,0.8-0.9,2.1-0.9,4v7.4H363v-14.9h2.5l0.4,2h0.2c0.4-0.7,1.1-1.3,1.9-1.6c0.8-0.4,1.7-0.6,2.8-0.6c3.6,0,5.4,1.8,5.4,5.5
		V210.1z"/>
	<path class="st2" d="M385.6,210.3c-1.9,0-3.3-0.7-4.4-2s-1.6-3.2-1.6-5.7c0-2.4,0.5-4.4,1.6-5.7c1.1-1.4,2.5-2,4.4-2
		c2,0,3.5,0.7,4.5,2.2h0.2c-0.2-1.1-0.2-1.9-0.2-2.5v-5.4h3.2v21h-2.5l-0.6-2H390C389,209.6,387.5,210.3,385.6,210.3z M386.4,207.8
		c1.3,0,2.3-0.4,2.8-1.1c0.6-0.7,0.9-1.9,0.9-3.6v-0.4c0-1.9-0.3-3.2-0.9-4c-0.6-0.8-1.6-1.2-2.9-1.2c-1.1,0-2,0.5-2.6,1.4
		c-0.6,0.9-0.9,2.2-0.9,3.9c0,1.7,0.3,2.9,0.9,3.8C384.4,207.3,385.2,207.8,386.4,207.8z"/>
	<path class="st2" d="M407.1,210.1l-0.6-2.1h-0.1c-0.7,0.9-1.4,1.5-2.2,1.9s-1.7,0.5-2.8,0.5c-1.5,0-2.6-0.4-3.4-1.2
		c-0.8-0.8-1.2-1.9-1.2-3.4c0-1.5,0.6-2.7,1.7-3.5c1.1-0.8,2.9-1.2,5.2-1.3l2.6-0.1v-0.8c0-1-0.2-1.7-0.7-2.1
		c-0.4-0.5-1.1-0.7-2.1-0.7c-0.8,0-1.5,0.1-2.2,0.3c-0.7,0.2-1.4,0.5-2,0.8l-1-2.3c0.8-0.4,1.7-0.7,2.7-1c1-0.2,1.9-0.3,2.7-0.3
		c1.9,0,3.3,0.4,4.3,1.2c1,0.8,1.5,2.1,1.5,3.9v10.1H407.1z M402.4,207.9c1.2,0,2.1-0.3,2.8-1c0.7-0.6,1-1.5,1-2.7V203l-1.9,0.1
		c-1.5,0.1-2.6,0.3-3.3,0.7c-0.7,0.4-1,1.1-1,2c0,0.7,0.2,1.2,0.6,1.5S401.6,207.9,402.4,207.9z"/>
	<path class="st2" d="M437.3,200c0,3.3-0.9,5.7-2.7,7.5c-1.8,1.7-4.4,2.6-7.8,2.6h-5.5v-19.7h6.1c3.1,0,5.6,0.8,7.3,2.5
		C436.5,194.6,437.3,197,437.3,200z M433.9,200.1c0-4.7-2.2-7.1-6.6-7.1h-2.8v14.3h2.3C431.6,207.4,433.9,205,433.9,200.1z"/>
	<path class="st2" d="M450.6,210.1l-0.6-2.1h-0.1c-0.7,0.9-1.4,1.5-2.2,1.9s-1.7,0.5-2.8,0.5c-1.5,0-2.6-0.4-3.4-1.2
		c-0.8-0.8-1.2-1.9-1.2-3.4c0-1.5,0.6-2.7,1.7-3.5c1.1-0.8,2.9-1.2,5.2-1.3l2.6-0.1v-0.8c0-1-0.2-1.7-0.7-2.1
		c-0.4-0.5-1.1-0.7-2.1-0.7c-0.8,0-1.5,0.1-2.2,0.3c-0.7,0.2-1.4,0.5-2,0.8l-1-2.3c0.8-0.4,1.7-0.7,2.7-1c1-0.2,1.9-0.3,2.7-0.3
		c1.9,0,3.3,0.4,4.3,1.2c1,0.8,1.5,2.1,1.5,3.9v10.1H450.6z M445.8,207.9c1.2,0,2.1-0.3,2.8-1c0.7-0.6,1-1.5,1-2.7V203l-1.9,0.1
		c-1.5,0.1-2.6,0.3-3.3,0.7c-0.7,0.4-1,1.1-1,2c0,0.7,0.2,1.2,0.6,1.5S445.1,207.9,445.8,207.9z"/>
	<path class="st2" d="M455,195.2h3.5l3,8.5c0.5,1.2,0.8,2.3,0.9,3.4h0.1c0.1-0.5,0.2-1.1,0.4-1.8c0.2-0.7,1.4-4.1,3.4-10.1h3.4
		l-6.4,16.9c-1.2,3.1-3.1,4.7-5.8,4.7c-0.7,0-1.4-0.1-2.1-0.2V214c0.5,0.1,1,0.2,1.6,0.2c1.5,0,2.6-0.9,3.2-2.7l0.6-1.4L455,195.2z"
		/>
	<path class="st2" d="M492.5,202.6c0,2.4-0.6,4.3-1.9,5.7c-1.2,1.4-3,2.1-5.2,2.1c-1.4,0-2.6-0.3-3.7-0.9c-1.1-0.6-1.9-1.5-2.5-2.7
		c-0.6-1.2-0.9-2.5-0.9-4.1c0-2.4,0.6-4.3,1.9-5.7c1.2-1.4,3-2,5.2-2c2.2,0,3.9,0.7,5.1,2.1C491.9,198.4,492.5,200.2,492.5,202.6z
		 M481.6,202.6c0,3.4,1.3,5.2,3.8,5.2c2.5,0,3.8-1.7,3.8-5.2c0-3.4-1.3-5.1-3.8-5.1c-1.3,0-2.3,0.4-2.9,1.3
		C481.9,199.7,481.6,200.9,481.6,202.6z"/>
	<path class="st2" d="M509.3,210.1h-3.2v-9.2c0-1.2-0.2-2-0.7-2.6c-0.5-0.6-1.2-0.8-2.2-0.8c-1.3,0-2.3,0.4-2.9,1.2
		c-0.6,0.8-0.9,2.1-0.9,4v7.4h-3.2v-14.9h2.5l0.4,2h0.2c0.4-0.7,1.1-1.3,1.9-1.6c0.8-0.4,1.7-0.6,2.8-0.6c3.6,0,5.4,1.8,5.4,5.5
		V210.1z"/>
	<path class="st2" d="M537.6,210.1h-4l-9.7-15.7h-0.1l0.1,0.9c0.1,1.7,0.2,3.2,0.2,4.6v10.3h-2.9v-19.7h3.9l9.7,15.6h0.1
		c0-0.2-0.1-1-0.1-2.3c-0.1-1.3-0.1-2.3-0.1-3v-10.3h3V210.1z"/>
	<path class="st2" d="M555.7,202.6c0,2.4-0.6,4.3-1.9,5.7s-3,2.1-5.2,2.1c-1.4,0-2.6-0.3-3.7-0.9c-1.1-0.6-1.9-1.5-2.5-2.7
		c-0.6-1.2-0.9-2.5-0.9-4.1c0-2.4,0.6-4.3,1.9-5.7c1.2-1.4,3-2,5.2-2c2.2,0,3.9,0.7,5.1,2.1S555.7,200.2,555.7,202.6z M544.9,202.6
		c0,3.4,1.3,5.2,3.8,5.2c2.5,0,3.8-1.7,3.8-5.2c0-3.4-1.3-5.1-3.8-5.1c-1.3,0-2.3,0.4-2.9,1.3C545.2,199.7,544.9,200.9,544.9,202.6z
		"/>
	<path class="st2" d="M562.8,210.1l-5.7-14.9h3.3l3,8.7c0.5,1.5,0.8,2.6,0.9,3.5h0.1c0.1-0.6,0.4-1.8,0.9-3.5l3-8.7h3.4l-5.7,14.9
		H562.8z"/>
	<path class="st2" d="M580.7,210.3c-2.3,0-4.1-0.7-5.4-2s-2-3.2-2-5.6c0-2.4,0.6-4.4,1.8-5.7c1.2-1.4,2.9-2.1,5-2.1
		c2,0,3.5,0.6,4.7,1.8s1.7,2.8,1.7,4.9v1.7h-9.9c0,1.4,0.4,2.6,1.2,3.3c0.7,0.8,1.8,1.2,3.1,1.2c0.9,0,1.7-0.1,2.5-0.2
		c0.8-0.2,1.6-0.4,2.4-0.8v2.6c-0.8,0.4-1.6,0.6-2.3,0.8C582.6,210.3,581.7,210.3,580.7,210.3z M580.1,197.3c-1,0-1.8,0.3-2.4,1
		s-1,1.6-1.1,2.8h6.8c0-1.2-0.3-2.2-0.9-2.8C581.9,197.6,581.1,197.3,580.1,197.3z"/>
	<path class="st2" d="M602.7,210.1h-3.2v-9.2c0-1.1-0.2-2-0.6-2.6c-0.4-0.6-1.1-0.8-2-0.8c-1.2,0-2.1,0.4-2.7,1.2
		c-0.6,0.8-0.9,2.1-0.9,4v7.4h-3.2v-14.9h2.5l0.4,2h0.2c0.4-0.7,1-1.3,1.8-1.6s1.7-0.6,2.6-0.6c2.3,0,3.8,0.8,4.6,2.3h0.2
		c0.4-0.7,1.1-1.3,1.9-1.7c0.8-0.4,1.7-0.6,2.8-0.6c1.8,0,3.1,0.5,3.9,1.3c0.8,0.9,1.2,2.3,1.2,4.1v9.7h-3.2v-9.2
		c0-1.1-0.2-2-0.7-2.6c-0.4-0.6-1.1-0.8-2-0.8c-1.2,0-2.1,0.4-2.7,1.2c-0.6,0.8-0.9,2-0.9,3.5V210.1z"/>
	<path class="st2" d="M624.1,194.9c1.9,0,3.3,0.7,4.4,2c1,1.3,1.6,3.2,1.6,5.7c0,2.4-0.5,4.4-1.6,5.7c-1.1,1.4-2.5,2-4.4,2
		c-1.9,0-3.4-0.7-4.4-2h-0.2l-0.6,1.8h-2.4v-21h3.2v5c0,0.4,0,0.9-0.1,1.6s-0.1,1.2-0.1,1.4h0.1
		C620.7,195.6,622.2,194.9,624.1,194.9z M623.3,197.5c-1.3,0-2.2,0.4-2.8,1.1c-0.6,0.8-0.9,2-0.9,3.8v0.2c0,1.8,0.3,3.1,0.9,3.9
		c0.6,0.8,1.5,1.2,2.8,1.2c1.1,0,2-0.4,2.6-1.3s0.9-2.2,0.9-3.9C626.8,199.2,625.6,197.5,623.3,197.5z"/>
	<path class="st2" d="M640.2,210.3c-2.3,0-4.1-0.7-5.4-2s-2-3.2-2-5.6c0-2.4,0.6-4.4,1.8-5.7c1.2-1.4,2.9-2.1,5-2.1
		c2,0,3.5,0.6,4.7,1.8s1.7,2.8,1.7,4.9v1.7h-9.9c0,1.4,0.4,2.6,1.2,3.3c0.7,0.8,1.8,1.2,3.1,1.2c0.9,0,1.7-0.1,2.5-0.2
		c0.8-0.2,1.6-0.4,2.4-0.8v2.6c-0.8,0.4-1.6,0.6-2.3,0.8C642.1,210.3,641.2,210.3,640.2,210.3z M639.6,197.3c-1,0-1.8,0.3-2.4,1
		s-1,1.6-1.1,2.8h6.8c0-1.2-0.3-2.2-0.9-2.8C641.4,197.6,640.7,197.3,639.6,197.3z"/>
	<path class="st2" d="M657.2,194.9c0.6,0,1.2,0,1.6,0.1l-0.3,3c-0.5-0.1-0.9-0.2-1.4-0.2c-1.3,0-2.3,0.4-3.1,1.2
		c-0.8,0.8-1.2,1.9-1.2,3.2v7.8h-3.2v-14.9h2.5l0.4,2.6h0.2c0.5-0.9,1.1-1.6,1.9-2.1C655.4,195.1,656.3,194.9,657.2,194.9z"/>
	<path class="st2" d="M677,210.1h-3.2v-12.7c0-1.5,0-2.7,0.1-3.6c-0.2,0.2-0.5,0.5-0.8,0.7c-0.3,0.3-1.3,1.1-3,2.5l-1.6-2l5.8-4.6
		h2.6V210.1z"/>
	<path class="st2" d="M696.8,210.1h-13.4v-2.4l5.1-5.1c1.5-1.5,2.5-2.6,3-3.3c0.5-0.6,0.8-1.2,1.1-1.8s0.3-1.2,0.3-1.8
		c0-0.9-0.3-1.6-0.8-2.1s-1.3-0.8-2.2-0.8c-0.8,0-1.5,0.1-2.2,0.4c-0.7,0.3-1.5,0.8-2.4,1.5l-1.7-2.1c1.1-0.9,2.2-1.6,3.2-2
		c1-0.4,2.1-0.6,3.3-0.6c1.8,0,3.3,0.5,4.4,1.4s1.7,2.2,1.7,3.9c0,0.9-0.2,1.7-0.5,2.5s-0.8,1.6-1.5,2.5c-0.7,0.9-1.8,2-3.3,3.4
		l-3.4,3.3v0.1h9.4V210.1z"/>
	<path class="st2" d="M705.8,207.8c0.8,0,1.5-0.1,2.3-0.4v2.4c-0.4,0.2-0.8,0.3-1.4,0.4c-0.6,0.1-1.1,0.2-1.7,0.2
		c-3,0-4.5-1.6-4.5-4.7v-8h-2v-1.4l2.2-1.2l1.1-3.2h2v3.3h4.2v2.4h-4.2v8c0,0.8,0.2,1.3,0.6,1.7
		C704.7,207.6,705.2,207.8,705.8,207.8z"/>
	<path class="st2" d="M724.3,210.1h-3.2v-9.2c0-1.2-0.2-2-0.7-2.6c-0.5-0.6-1.2-0.8-2.2-0.8c-1.3,0-2.3,0.4-2.9,1.2
		c-0.6,0.8-0.9,2.1-0.9,4v7.4h-3.2v-21h3.2v5.3c0,0.9-0.1,1.8-0.2,2.7h0.2c0.4-0.7,1-1.3,1.8-1.7c0.8-0.4,1.7-0.6,2.7-0.6
		c3.6,0,5.4,1.8,5.4,5.5V210.1z"/>
	<path class="st2" d="M728.2,208.4c0-0.7,0.2-1.2,0.5-1.5c0.3-0.4,0.8-0.5,1.5-0.5c0.7,0,1.2,0.2,1.5,0.5s0.5,0.9,0.5,1.5
		c0,0.6-0.2,1.1-0.5,1.5c-0.3,0.4-0.8,0.6-1.5,0.6s-1.1-0.2-1.5-0.6C728.4,209.5,728.2,209,728.2,208.4z"/>
</g>
<g>
	<g>
		<path class="st3" d="M377.6,100.5c-4.5,4.7-12,4.8-16.7,0.2c-4.7-4.6-4.8-12-0.1-16.7c4.5-4.7,12-4.8,16.7-0.2
			C381.9,88.2,382,95.8,377.6,100.5z"/>
		<path class="st3" d="M409.8,74.3L409.8,74.3l1.3,4.9l-5.5,2.2l-2.7-4.4l0.1-0.1c-2,0.5-4,0.5-5.9,0l-2.7,4.4l-5.5-2.2l1.3-4.9h0.1
			c-1.6-1.2-2.9-2.6-4.1-4.2l0,0l-4.9,1.3l-2.2-5.5l4.5-2.7l0.1,0.1c-0.2-2-0.5-4,0-5.9l-4.4-2.6l2.2-5.5l4.9,1.3v0.1
			c0.7-0.9,1.4-1.9,2.2-2.7h-28.4c-2,0-3.7,1.6-3.7,3.7v23.9l3.4,2.4l-0.1,0.1c1.6-1.2,3.5-1.9,5.4-2.2l0,0l0.7-4.9l5.8-0.1l0.8,4.9
			h-0.1c1.9,0.5,3.7,1.2,5.4,2.1l4-3.1l4.2,4.1l-2.9,4.1l-0.1-0.1c1.2,1.6,1.9,3.4,2.2,5.4l0,0l4.9,0.7l0.1,5.8l-4.9,0.8v-0.1
			c-0.5,1.9-1.2,3.7-2.1,5.4l2.7,3.5h23.3c2,0,3.7-1.6,3.7-3.7V71.9C411.8,72.7,410.9,73.6,409.8,74.3z"/>
		<path class="st3" d="M411.5,65.2c-2.6,6.1-9.7,9.1-15.7,6.5c-6.1-2.6-9.1-9.7-6.5-15.7s9.7-9.1,15.7-6.5
			C411,52,413.9,58.9,411.5,65.2z"/>
	</g>
</g>
<path class="st4" d="M508.2,292.7h-250c-2.2,0-3.8-1.7-3.8-3.8v-44.6c0-2.2,1.7-3.8,3.8-3.8h249.9c2.2,0,3.8,1.7,3.8,3.8v44.6
	C512,291,510.2,292.7,508.2,292.7z"/>
<g class="st1">
	<path class="st5" d="M272.5,269v8.3h-3.4v-20.8h5.9c2.7,0,4.7,0.5,6,1.5c1.3,1,1.9,2.5,1.9,4.5c0,2.6-1.3,4.4-4,5.5l5.9,9.2h-3.9
		l-5-8.3H272.5z M272.5,266.2h2.4c1.6,0,2.7-0.3,3.4-0.9c0.7-0.6,1.1-1.5,1.1-2.6c0-1.2-0.4-2-1.2-2.5c-0.8-0.5-1.9-0.8-3.5-0.8
		h-2.2V266.2z"/>
	<path class="st5" d="M294.2,277.6c-2.4,0-4.4-0.7-5.7-2.1c-1.4-1.4-2.1-3.4-2.1-5.9c0-2.6,0.6-4.6,1.9-6.1c1.3-1.5,3-2.2,5.3-2.2
		c2.1,0,3.7,0.6,4.9,1.9s1.8,3,1.8,5.2v1.8h-10.5c0,1.5,0.5,2.7,1.2,3.5c0.8,0.8,1.9,1.2,3.3,1.2c0.9,0,1.8-0.1,2.6-0.3
		c0.8-0.2,1.7-0.5,2.6-0.9v2.7c-0.8,0.4-1.6,0.7-2.5,0.8C296.2,277.5,295.3,277.6,294.2,277.6z M293.6,263.8c-1.1,0-1.9,0.3-2.5,1
		c-0.6,0.7-1,1.7-1.1,2.9h7.1c0-1.3-0.3-2.3-0.9-2.9C295.5,264.2,294.7,263.8,293.6,263.8z"/>
	<path class="st5" d="M317.4,261.6v1.8l-2.7,0.5c0.2,0.3,0.4,0.7,0.6,1.2c0.2,0.5,0.2,1,0.2,1.5c0,1.6-0.6,2.9-1.7,3.8
		c-1.1,0.9-2.7,1.4-4.6,1.4c-0.5,0-1,0-1.4-0.1c-0.7,0.4-1.1,1-1.1,1.6c0,0.4,0.2,0.6,0.5,0.8c0.3,0.2,1,0.3,1.9,0.3h2.7
		c1.7,0,3,0.4,3.9,1.1c0.9,0.7,1.3,1.8,1.3,3.2c0,1.8-0.7,3.2-2.2,4.1c-1.5,1-3.6,1.4-6.4,1.4c-2.1,0-3.8-0.4-4.9-1.1
		s-1.7-1.8-1.7-3.2c0-1,0.3-1.8,0.9-2.4c0.6-0.7,1.5-1.1,2.6-1.4c-0.4-0.2-0.8-0.5-1.1-0.9c-0.3-0.4-0.4-0.9-0.4-1.3
		c0-0.6,0.2-1.1,0.5-1.5s0.8-0.8,1.5-1.2c-0.8-0.3-1.5-0.9-2-1.7c-0.5-0.8-0.8-1.7-0.8-2.8c0-1.7,0.5-3,1.6-4
		c1.1-0.9,2.6-1.4,4.6-1.4c0.4,0,0.9,0,1.4,0.1s0.9,0.1,1.1,0.2H317.4z M305,279.7c0,0.7,0.3,1.3,1,1.7c0.6,0.4,1.6,0.6,2.7,0.6
		c1.8,0,3.2-0.3,4.1-0.8s1.3-1.2,1.3-2.1c0-0.7-0.2-1.2-0.7-1.5c-0.5-0.3-1.4-0.4-2.7-0.4h-2.5c-1,0-1.7,0.2-2.3,0.7
		C305.3,278.4,305,279,305,279.7z M306.5,266.7c0,1,0.3,1.7,0.8,2.3c0.5,0.5,1.2,0.8,2.2,0.8c1.9,0,2.9-1,2.9-3.1
		c0-1-0.2-1.8-0.7-2.4c-0.5-0.6-1.2-0.8-2.2-0.8c-1,0-1.7,0.3-2.2,0.8C306.7,264.8,306.5,265.6,306.5,266.7z"/>
	<path class="st5" d="M320.1,257.4c0-0.6,0.2-1.1,0.5-1.4c0.3-0.3,0.8-0.5,1.4-0.5c0.6,0,1,0.2,1.4,0.5c0.3,0.3,0.5,0.8,0.5,1.4
		c0,0.6-0.2,1-0.5,1.3s-0.8,0.5-1.4,0.5c-0.6,0-1.1-0.2-1.4-0.5S320.1,258,320.1,257.4z M323.6,277.3h-3.3v-15.7h3.3V277.3z"/>
	<path class="st5" d="M339,272.8c0,1.5-0.6,2.7-1.7,3.5c-1.1,0.8-2.7,1.2-4.8,1.2c-2.1,0-3.8-0.3-5-1v-2.9c1.8,0.9,3.6,1.3,5.2,1.3
		c2.1,0,3.1-0.6,3.1-1.9c0-0.4-0.1-0.7-0.3-1c-0.2-0.3-0.6-0.5-1.1-0.8c-0.5-0.3-1.2-0.6-2.2-1c-1.8-0.7-3-1.4-3.7-2.1
		c-0.6-0.7-1-1.6-1-2.7c0-1.3,0.5-2.4,1.6-3.1c1.1-0.7,2.6-1.1,4.4-1.1c1.8,0,3.6,0.4,5.2,1.1l-1.1,2.5c-1.7-0.7-3.1-1.1-4.3-1.1
		c-1.8,0-2.6,0.5-2.6,1.5c0,0.5,0.2,0.9,0.7,1.2s1.5,0.8,3,1.4c1.3,0.5,2.2,1,2.8,1.4c0.6,0.4,1,0.9,1.3,1.4
		C338.8,271.4,339,272.1,339,272.8z"/>
	<path class="st5" d="M348.4,274.9c0.8,0,1.6-0.1,2.4-0.4v2.5c-0.4,0.2-0.8,0.3-1.4,0.4c-0.6,0.1-1.2,0.2-1.8,0.2
		c-3.2,0-4.7-1.7-4.7-5v-8.5h-2.1v-1.5l2.3-1.2l1.1-3.3h2.1v3.5h4.5v2.5h-4.5v8.4c0,0.8,0.2,1.4,0.6,1.8
		C347.2,274.7,347.8,274.9,348.4,274.9z"/>
	<path class="st5" d="M360.9,277.6c-2.4,0-4.4-0.7-5.7-2.1c-1.4-1.4-2.1-3.4-2.1-5.9c0-2.6,0.6-4.6,1.9-6.1c1.3-1.5,3-2.2,5.3-2.2
		c2.1,0,3.7,0.6,4.9,1.9s1.8,3,1.8,5.2v1.8h-10.5c0,1.5,0.5,2.7,1.2,3.5c0.8,0.8,1.9,1.2,3.3,1.2c0.9,0,1.8-0.1,2.6-0.3
		c0.8-0.2,1.7-0.5,2.6-0.9v2.7c-0.8,0.4-1.6,0.7-2.5,0.8C362.9,277.5,361.9,277.6,360.9,277.6z M360.3,263.8c-1.1,0-1.9,0.3-2.5,1
		c-0.6,0.7-1,1.7-1.1,2.9h7.1c0-1.3-0.3-2.3-0.9-2.9C362.1,264.2,361.3,263.8,360.3,263.8z"/>
	<path class="st5" d="M378.7,261.3c0.7,0,1.2,0,1.7,0.1l-0.3,3.1c-0.5-0.1-1-0.2-1.5-0.2c-1.3,0-2.4,0.4-3.2,1.3s-1.2,2-1.2,3.4v8.2
		h-3.3v-15.7h2.6l0.4,2.8h0.2c0.5-0.9,1.2-1.7,2-2.2C376.9,261.6,377.8,261.3,378.7,261.3z"/>
	<path class="st5" d="M398.7,264.1h-3.8v13.2h-3.4v-13.2H389v-1.6l2.6-1v-1c0-1.9,0.4-3.2,1.3-4.1c0.9-0.9,2.2-1.3,4-1.3
		c1.2,0,2.3,0.2,3.5,0.6l-0.9,2.5c-0.8-0.3-1.6-0.4-2.4-0.4c-0.8,0-1.3,0.2-1.7,0.7s-0.5,1.2-0.5,2.1v1h3.8V264.1z"/>
	<path class="st5" d="M415.4,269.4c0,2.6-0.7,4.6-2,6c-1.3,1.4-3.1,2.2-5.5,2.2c-1.5,0-2.8-0.3-3.9-1s-2-1.6-2.6-2.9
		c-0.6-1.2-0.9-2.7-0.9-4.3c0-2.5,0.7-4.5,2-6s3.1-2.1,5.5-2.1c2.3,0,4.1,0.7,5.4,2.2C414.7,265,415.4,266.9,415.4,269.4z
		 M403.9,269.4c0,3.6,1.3,5.4,4,5.4c2.7,0,4-1.8,4-5.4c0-3.6-1.3-5.4-4-5.4c-1.4,0-2.4,0.5-3,1.4
		C404.2,266.4,403.9,267.7,403.9,269.4z"/>
	<path class="st5" d="M427.2,261.3c0.7,0,1.2,0,1.7,0.1l-0.3,3.1c-0.5-0.1-1-0.2-1.5-0.2c-1.3,0-2.4,0.4-3.2,1.3
		c-0.8,0.9-1.2,2-1.2,3.4v8.2h-3.3v-15.7h2.6l0.4,2.8h0.2c0.5-0.9,1.2-1.7,2-2.2C425.3,261.6,426.2,261.3,427.2,261.3z"/>
	<path class="st5" d="M443,277.3h-3.4v-20.8h11.7v2.9H443v6.5h7.8v2.9H443V277.3z"/>
	<path class="st5" d="M462.7,261.3c0.7,0,1.2,0,1.7,0.1l-0.3,3.1c-0.5-0.1-1-0.2-1.5-0.2c-1.3,0-2.4,0.4-3.2,1.3
		c-0.8,0.9-1.2,2-1.2,3.4v8.2h-3.3v-15.7h2.6l0.4,2.8h0.2c0.5-0.9,1.2-1.7,2-2.2C460.9,261.6,461.8,261.3,462.7,261.3z"/>
	<path class="st5" d="M474.2,277.6c-2.4,0-4.4-0.7-5.7-2.1c-1.4-1.4-2.1-3.4-2.1-5.9c0-2.6,0.6-4.6,1.9-6.1c1.3-1.5,3-2.2,5.3-2.2
		c2.1,0,3.7,0.6,4.9,1.9c1.2,1.3,1.8,3,1.8,5.2v1.8h-10.5c0,1.5,0.5,2.7,1.2,3.5c0.8,0.8,1.9,1.2,3.3,1.2c0.9,0,1.8-0.1,2.6-0.3
		c0.8-0.2,1.7-0.5,2.6-0.9v2.7c-0.8,0.4-1.6,0.7-2.5,0.8C476.2,277.5,475.2,277.6,474.2,277.6z M473.6,263.8c-1.1,0-1.9,0.3-2.5,1
		c-0.6,0.7-1,1.7-1.1,2.9h7.1c0-1.3-0.3-2.3-0.9-2.9C475.5,264.2,474.6,263.8,473.6,263.8z"/>
	<path class="st5" d="M490.9,277.6c-2.4,0-4.4-0.7-5.7-2.1c-1.4-1.4-2.1-3.4-2.1-5.9c0-2.6,0.6-4.6,1.9-6.1c1.3-1.5,3-2.2,5.3-2.2
		c2.1,0,3.7,0.6,4.9,1.9c1.2,1.3,1.8,3,1.8,5.2v1.8h-10.5c0,1.5,0.5,2.7,1.2,3.5c0.8,0.8,1.9,1.2,3.3,1.2c0.9,0,1.8-0.1,2.6-0.3
		c0.8-0.2,1.7-0.5,2.6-0.9v2.7c-0.8,0.4-1.6,0.7-2.5,0.8C493,277.5,492,277.6,490.9,277.6z M490.3,263.8c-1.1,0-1.9,0.3-2.5,1
		c-0.6,0.7-1,1.7-1.1,2.9h7.1c0-1.3-0.3-2.3-0.9-2.9C492.2,264.2,491.4,263.8,490.3,263.8z"/>
</g>
</svg>
