<?xml version="1.0" encoding="utf-8"?>
<!-- Generator: Adobe Illustrator 23.0.0, SVG Export Plug-In . SVG Version: 6.00 Build 0)  -->
<svg version="1.1" id="Ebene_1" xmlns="http://www.w3.org/2000/svg" xmlns:xlink="http://www.w3.org/1999/xlink" x="0px" y="0px"
	 viewBox="0 0 767 331" style="enable-background:new 0 0 767 331;" xml:space="preserve">
<style type="text/css">
	.st0{fill:#ECECEC;}
	.st1{fill:#B51F29;}
	.st2{enable-background:new    ;}
	.st3{fill:#525149;}
	.st4{fill:#B2000D;}
	.st5{fill:#FFFFFF;}
</style>
<rect class="st0" width="767" height="331"/>
<g>
	<g>
		<path class="st1" d="M376.3,100.5c-4.5,4.7-12,4.8-16.7,0.2c-4.7-4.6-4.8-12-0.1-16.7c4.5-4.7,12-4.8,16.7-0.2
			C380.6,88.2,380.7,95.8,376.3,100.5z"/>
		<path class="st1" d="M408.5,74.3L408.5,74.3l1.3,4.9l-5.5,2.2l-2.7-4.4l0.1-0.1c-2,0.5-4,0.5-5.9,0l-2.7,4.4l-5.5-2.2l1.3-4.9h0.1
			c-1.6-1.2-2.9-2.6-4.1-4.2l0,0l-4.9,1.3l-2.2-5.5l4.5-2.7l0.1,0.1c-0.2-2-0.5-4,0-5.9l-4.4-2.6l2.2-5.5l4.9,1.3v0.1
			c0.7-0.9,1.4-1.9,2.2-2.7H359c-2,0-3.7,1.6-3.7,3.7v23.9l3.4,2.4l-0.1,0.1c1.6-1.2,3.5-1.9,5.4-2.2l0,0l0.7-4.9l5.8-0.1l0.8,4.9
			h-0.1c1.9,0.5,3.7,1.2,5.4,2.1l4-3.1l4.2,4.1l-2.9,4.1l-0.1-0.1c1.2,1.6,1.9,3.4,2.2,5.4l0,0l4.9,0.7l0.1,5.8l-4.9,0.8v-0.1
			c-0.5,1.9-1.2,3.7-2.1,5.4l2.7,3.5H408c2,0,3.7-1.6,3.7-3.7V71.9C410.5,72.7,409.6,73.6,408.5,74.3z"/>
		<path class="st1" d="M410.2,65.2c-2.6,6.1-9.7,9.1-15.7,6.5C388.4,69,385.4,62,388,56s9.7-9.1,15.7-6.5
			C409.7,52,412.6,58.9,410.2,65.2z"/>
	</g>
</g>
<g>
	<g class="st2">
		<path class="st3" d="M167.8,151.2c-1.7,0-2.9,0.6-3.8,1.9c-0.9,1.2-1.4,3-1.4,5.2c0,4.6,1.7,6.9,5.2,6.9c1.5,0,3.2-0.4,5.3-1.1
			v3.7c-1.7,0.7-3.6,1.1-5.7,1.1c-3,0-5.3-0.9-6.9-2.7c-1.6-1.8-2.4-4.5-2.4-7.9c0-2.2,0.4-4.1,1.2-5.7s1.9-2.9,3.4-3.7
			c1.5-0.9,3.2-1.3,5.2-1.3c2,0,4,0.5,6.1,1.5l-1.4,3.6c-0.8-0.4-1.6-0.7-2.3-1C169.3,151.4,168.6,151.2,167.8,151.2z"/>
		<path class="st3" d="M187.3,168.6l-0.8-2.2h-0.1c-0.7,0.9-1.5,1.6-2.3,1.9c-0.8,0.4-1.8,0.5-3,0.5c-1.5,0-2.7-0.4-3.6-1.3
			c-0.9-0.9-1.3-2.1-1.3-3.7c0-1.7,0.6-2.9,1.8-3.7c1.2-0.8,3-1.2,5.3-1.3l2.8-0.1v-0.7c0-1.6-0.8-2.4-2.5-2.4
			c-1.3,0-2.8,0.4-4.5,1.2l-1.4-2.9c1.8-1,3.9-1.4,6.1-1.4c2.1,0,3.8,0.5,4.9,1.4s1.7,2.3,1.7,4.2v10.6H187.3z M186,161.3l-1.7,0.1
			c-1.3,0-2.2,0.3-2.8,0.7s-0.9,1.1-0.9,1.9c0,1.2,0.7,1.8,2.1,1.8c1,0,1.8-0.3,2.4-0.9c0.6-0.6,0.9-1.3,0.9-2.3V161.3z"/>
		<path class="st3" d="M209,168.6h-4.3v-9.3c0-1.1-0.2-2-0.6-2.6c-0.4-0.6-1-0.9-1.8-0.9c-1.1,0-1.9,0.4-2.4,1.2s-0.8,2.2-0.8,4v7.5
			h-4.3v-15.9h3.3l0.6,2h0.2c0.4-0.7,1-1.3,1.8-1.7c0.8-0.4,1.7-0.6,2.8-0.6c2.4,0,4,0.8,4.8,2.3h0.4c0.4-0.7,1.1-1.3,1.9-1.7
			s1.8-0.6,2.8-0.6c1.8,0,3.2,0.5,4.1,1.4c0.9,0.9,1.4,2.4,1.4,4.4v10.4h-4.3v-9.3c0-1.1-0.2-2-0.6-2.6c-0.4-0.6-1-0.9-1.8-0.9
			c-1.1,0-1.9,0.4-2.4,1.1c-0.5,0.8-0.8,2-0.8,3.6V168.6z"/>
		<path class="st3" d="M234.6,168.6l-0.6-2h-0.2c-0.5,0.7-1.1,1.3-2,1.7s-1.8,0.6-2.9,0.6c-1.9,0-3.3-0.5-4.2-1.5
			c-0.9-1-1.4-2.4-1.4-4.3v-10.4h4.3v9.3c0,1.1,0.2,2,0.6,2.6c0.4,0.6,1.1,0.9,1.9,0.9c1.2,0,2.1-0.4,2.6-1.2c0.5-0.8,0.8-2.2,0.8-4
			v-7.5h4.3v15.9H234.6z"/>
		<path class="st3" d="M257.1,168.6h-4.3v-9.3c0-1.1-0.2-2-0.6-2.6c-0.4-0.6-1.1-0.9-1.9-0.9c-1.2,0-2.1,0.4-2.6,1.2
			c-0.5,0.8-0.8,2.2-0.8,4v7.5h-4.3v-15.9h3.3l0.6,2h0.2c0.5-0.8,1.1-1.3,2-1.7c0.8-0.4,1.8-0.6,2.9-0.6c1.8,0,3.2,0.5,4.2,1.5
			c1,1,1.4,2.4,1.4,4.3V168.6z"/>
		<path class="st3" d="M266.6,168.9c-1.9,0-3.3-0.7-4.4-2.2c-1.1-1.4-1.6-3.5-1.6-6c0-2.6,0.5-4.6,1.6-6.1c1.1-1.5,2.6-2.2,4.5-2.2
			c2,0,3.5,0.8,4.6,2.3h0.1c-0.2-1.2-0.3-2.2-0.3-3.2v-5.1h4.3v22.1h-3.3l-0.8-2.1h-0.2C270.1,168.1,268.6,168.9,266.6,168.9z
			 M268.1,165.5c1.1,0,1.9-0.3,2.4-1c0.5-0.6,0.8-1.7,0.8-3.3v-0.5c0-1.7-0.3-2.9-0.8-3.7c-0.5-0.7-1.4-1.1-2.6-1.1
			c-1,0-1.7,0.4-2.3,1.2s-0.8,2-0.8,3.6s0.3,2.7,0.8,3.5C266.3,165.1,267.1,165.5,268.1,165.5z"/>
		<path class="st3" d="M290,168.6l-0.8-2.2h-0.1c-0.7,0.9-1.5,1.6-2.3,1.9c-0.8,0.4-1.8,0.5-3,0.5c-1.5,0-2.7-0.4-3.6-1.3
			c-0.9-0.9-1.3-2.1-1.3-3.7c0-1.7,0.6-2.9,1.8-3.7c1.2-0.8,3-1.2,5.3-1.3l2.8-0.1v-0.7c0-1.6-0.8-2.4-2.5-2.4
			c-1.3,0-2.8,0.4-4.5,1.2l-1.4-2.9c1.8-1,3.9-1.4,6.1-1.4c2.1,0,3.8,0.5,4.9,1.4s1.7,2.3,1.7,4.2v10.6H290z M288.8,161.3l-1.7,0.1
			c-1.3,0-2.2,0.3-2.8,0.7s-0.9,1.1-0.9,1.9c0,1.2,0.7,1.8,2.1,1.8c1,0,1.8-0.3,2.4-0.9c0.6-0.6,0.9-1.3,0.9-2.3V161.3z"/>
		<path class="st3" d="M304.9,148.6c0-1.4,0.8-2.1,2.4-2.1c1.6,0,2.4,0.7,2.4,2.1c0,0.7-0.2,1.2-0.6,1.6s-1,0.6-1.8,0.6
			C305.7,150.8,304.9,150.1,304.9,148.6z M309.4,168.6h-4.3v-15.9h4.3V168.6z"/>
		<path class="st3" d="M325,163.9c0,1.6-0.6,2.9-1.7,3.7c-1.1,0.9-2.8,1.3-5.1,1.3c-1.2,0-2.1-0.1-3-0.2s-1.6-0.4-2.3-0.7v-3.6
			c0.8,0.4,1.7,0.7,2.7,1c1,0.3,1.9,0.4,2.7,0.4c1.6,0,2.4-0.5,2.4-1.4c0-0.3-0.1-0.6-0.3-0.8c-0.2-0.2-0.6-0.5-1.1-0.7
			c-0.5-0.3-1.2-0.6-2-0.9c-1.2-0.5-2.1-1-2.7-1.4c-0.6-0.4-1-0.9-1.2-1.5c-0.3-0.6-0.4-1.3-0.4-2.1c0-1.4,0.5-2.5,1.6-3.3
			s2.6-1.2,4.7-1.2c1.9,0,3.8,0.4,5.6,1.2l-1.3,3.1c-0.8-0.3-1.5-0.6-2.2-0.8c-0.7-0.2-1.4-0.3-2.1-0.3c-1.3,0-1.9,0.3-1.9,1
			c0,0.4,0.2,0.7,0.6,1c0.4,0.3,1.3,0.7,2.7,1.3c1.2,0.5,2.1,1,2.7,1.4s1,0.9,1.3,1.5C324.9,162.5,325,163.1,325,163.9z"/>
		<path class="st3" d="M342.4,168.9c-4.9,0-7.4-2.7-7.4-8.1c0-2.7,0.7-4.8,2-6.2c1.3-1.4,3.3-2.1,5.8-2.1c1.8,0,3.5,0.4,4.9,1.1
			l-1.3,3.4c-0.7-0.3-1.3-0.5-1.9-0.7c-0.6-0.2-1.2-0.3-1.8-0.3c-2.3,0-3.4,1.6-3.4,4.8c0,3.1,1.1,4.7,3.4,4.7
			c0.8,0,1.6-0.1,2.3-0.3c0.7-0.2,1.4-0.6,2.1-1v3.7c-0.7,0.4-1.4,0.8-2.1,0.9C344.4,168.8,343.5,168.9,342.4,168.9z"/>
		<path class="st3" d="M365.4,160.7c0,2.6-0.7,4.6-2,6.1s-3.3,2.2-5.7,2.2c-1.5,0-2.9-0.3-4-1c-1.2-0.7-2.1-1.6-2.7-2.9
			s-0.9-2.7-0.9-4.4c0-2.6,0.7-4.6,2-6.1c1.4-1.4,3.3-2.2,5.7-2.2c1.5,0,2.9,0.3,4,1c1.2,0.7,2.1,1.6,2.7,2.9
			C365.1,157.5,365.4,159,365.4,160.7z M354.4,160.7c0,1.6,0.3,2.8,0.8,3.6s1.4,1.2,2.5,1.2c1.2,0,2-0.4,2.5-1.2
			c0.5-0.8,0.8-2,0.8-3.6c0-1.6-0.3-2.8-0.8-3.5s-1.3-1.2-2.5-1.2c-1.2,0-2,0.4-2.5,1.2C354.7,157.9,354.4,159.1,354.4,160.7z"/>
		<path class="st3" d="M383.2,168.6h-4.3v-9.3c0-1.1-0.2-2-0.6-2.6c-0.4-0.6-1-0.9-1.8-0.9c-1.1,0-1.9,0.4-2.4,1.2s-0.8,2.2-0.8,4
			v7.5H369v-15.9h3.3l0.6,2h0.2c0.4-0.7,1-1.3,1.8-1.7c0.8-0.4,1.7-0.6,2.8-0.6c2.4,0,4,0.8,4.8,2.3h0.4c0.4-0.7,1.1-1.3,1.9-1.7
			c0.8-0.4,1.8-0.6,2.8-0.6c1.8,0,3.2,0.5,4.1,1.4c0.9,0.9,1.4,2.4,1.4,4.4v10.4h-4.3v-9.3c0-1.1-0.2-2-0.6-2.6
			c-0.4-0.6-1-0.9-1.8-0.9c-1.1,0-1.9,0.4-2.4,1.1c-0.5,0.8-0.8,2-0.8,3.6V168.6z"/>
		<path class="st3" d="M397.3,148.6c0-1.4,0.8-2.1,2.4-2.1c1.6,0,2.4,0.7,2.4,2.1c0,0.7-0.2,1.2-0.6,1.6c-0.4,0.4-1,0.6-1.8,0.6
			C398.1,150.8,397.3,150.1,397.3,148.6z M401.9,168.6h-4.3v-15.9h4.3V168.6z"/>
		<path class="st3" d="M421.1,168.6h-4.3v-9.3c0-1.1-0.2-2-0.6-2.6c-0.4-0.6-1.1-0.9-1.9-0.9c-1.2,0-2.1,0.4-2.6,1.2
			c-0.5,0.8-0.8,2.2-0.8,4v7.5h-4.3v-15.9h3.3l0.6,2h0.2c0.5-0.8,1.1-1.3,2-1.7c0.8-0.4,1.8-0.6,2.9-0.6c1.8,0,3.2,0.5,4.2,1.5
			s1.4,2.4,1.4,4.3V168.6z"/>
		<path class="st3" d="M439.3,152.8v2.2l-2.5,0.6c0.5,0.7,0.7,1.5,0.7,2.4c0,1.7-0.6,3-1.8,4c-1.2,1-2.8,1.4-5,1.4l-0.8,0l-0.6-0.1
			c-0.4,0.3-0.7,0.7-0.7,1.1c0,0.6,0.8,0.9,2.4,0.9h2.7c1.7,0,3.1,0.4,4,1.1c0.9,0.7,1.4,1.8,1.4,3.3c0,1.9-0.8,3.3-2.3,4.3
			c-1.5,1-3.8,1.5-6.7,1.5c-2.2,0-3.9-0.4-5.1-1.2s-1.8-1.9-1.8-3.2c0-1,0.3-1.8,0.9-2.4s1.5-1.1,2.6-1.4c-0.4-0.2-0.8-0.5-1.2-0.9
			c-0.3-0.4-0.5-0.9-0.5-1.4c0-0.6,0.2-1.1,0.5-1.5c0.4-0.4,0.9-0.8,1.5-1.2c-0.8-0.4-1.5-0.9-2-1.7c-0.5-0.8-0.7-1.7-0.7-2.8
			c0-1.7,0.6-3.1,1.7-4c1.1-0.9,2.7-1.4,4.8-1.4c0.4,0,1,0,1.6,0.1c0.6,0.1,1,0.1,1.2,0.2H439.3z M427.1,170.9
			c0,0.6,0.3,1.1,0.9,1.4s1.4,0.5,2.4,0.5c1.6,0,2.8-0.2,3.7-0.6c0.9-0.4,1.3-1,1.3-1.7c0-0.6-0.3-1-0.8-1.2
			c-0.5-0.2-1.3-0.3-2.4-0.3h-2.2c-0.8,0-1.5,0.2-2,0.6S427.1,170.3,427.1,170.9z M428.7,158c0,0.9,0.2,1.5,0.6,2s1,0.8,1.8,0.8
			c0.8,0,1.4-0.3,1.8-0.8s0.6-1.2,0.6-2c0-1.9-0.8-2.9-2.4-2.9C429.5,155.1,428.7,156,428.7,158z"/>
		<path class="st3" d="M456.2,165.5c0.8,0,1.7-0.2,2.7-0.5v3.2c-1.1,0.5-2.4,0.7-4,0.7c-1.7,0-3-0.4-3.8-1.3
			c-0.8-0.9-1.2-2.2-1.2-3.9V156h-2.1v-1.8l2.4-1.4l1.2-3.4h2.8v3.4h4.4v3.3h-4.4v7.7c0,0.6,0.2,1.1,0.5,1.4
			C455.2,165.3,455.6,165.5,456.2,165.5z"/>
		<path class="st3" d="M476.6,160.7c0,2.6-0.7,4.6-2,6.1s-3.3,2.2-5.7,2.2c-1.5,0-2.9-0.3-4-1c-1.2-0.7-2.1-1.6-2.7-2.9
			s-0.9-2.7-0.9-4.4c0-2.6,0.7-4.6,2-6.1c1.4-1.4,3.3-2.2,5.7-2.2c1.5,0,2.9,0.3,4,1c1.2,0.7,2.1,1.6,2.7,2.9
			C476.3,157.5,476.6,159,476.6,160.7z M465.6,160.7c0,1.6,0.3,2.8,0.8,3.6c0.5,0.8,1.4,1.2,2.5,1.2c1.2,0,2-0.4,2.5-1.2
			c0.5-0.8,0.8-2,0.8-3.6c0-1.6-0.3-2.8-0.8-3.5s-1.3-1.2-2.5-1.2c-1.2,0-2,0.4-2.5,1.2C465.8,157.9,465.6,159.1,465.6,160.7z"/>
		<path class="st3" d="M496.9,151.2c-1.7,0-2.9,0.6-3.8,1.9c-0.9,1.2-1.4,3-1.4,5.2c0,4.6,1.7,6.9,5.2,6.9c1.5,0,3.2-0.4,5.3-1.1
			v3.7c-1.7,0.7-3.6,1.1-5.7,1.1c-3,0-5.3-0.9-6.9-2.7c-1.6-1.8-2.4-4.5-2.4-7.9c0-2.2,0.4-4.1,1.2-5.7c0.8-1.6,1.9-2.9,3.4-3.7
			c1.5-0.9,3.2-1.3,5.2-1.3c2,0,4,0.5,6.1,1.5l-1.4,3.6c-0.8-0.4-1.6-0.7-2.3-1C498.4,151.4,497.6,151.2,496.9,151.2z"/>
		<path class="st3" d="M520.9,168.6h-4.3v-9.3c0-2.3-0.9-3.4-2.6-3.4c-1.2,0-2.1,0.4-2.6,1.2c-0.5,0.8-0.8,2.2-0.8,4v7.5h-4.3v-22.1
			h4.3v4.5c0,0.4,0,1.2-0.1,2.5l-0.1,1.3h0.2c1-1.6,2.5-2.3,4.6-2.3c1.9,0,3.3,0.5,4.2,1.5c1,1,1.4,2.4,1.4,4.3V168.6z"/>
		<path class="st3" d="M525.2,148.6c0-1.4,0.8-2.1,2.4-2.1s2.4,0.7,2.4,2.1c0,0.7-0.2,1.2-0.6,1.6c-0.4,0.4-1,0.6-1.8,0.6
			C526,150.8,525.2,150.1,525.2,148.6z M529.7,168.6h-4.3v-15.9h4.3V168.6z"/>
		<path class="st3" d="M540.7,168.9c-4.9,0-7.4-2.7-7.4-8.1c0-2.7,0.7-4.8,2-6.2c1.3-1.4,3.3-2.1,5.8-2.1c1.8,0,3.5,0.4,4.9,1.1
			l-1.3,3.4c-0.7-0.3-1.3-0.5-1.9-0.7c-0.6-0.2-1.2-0.3-1.8-0.3c-2.3,0-3.4,1.6-3.4,4.8c0,3.1,1.1,4.7,3.4,4.7
			c0.8,0,1.6-0.1,2.3-0.3c0.7-0.2,1.4-0.6,2.1-1v3.7c-0.7,0.4-1.4,0.8-2.1,0.9C542.7,168.8,541.8,168.9,540.7,168.9z"/>
		<path class="st3" d="M559.3,168.6l-0.8-2.2h-0.1c-0.7,0.9-1.5,1.6-2.3,1.9c-0.8,0.4-1.8,0.5-3,0.5c-1.5,0-2.7-0.4-3.6-1.3
			s-1.3-2.1-1.3-3.7c0-1.7,0.6-2.9,1.8-3.7c1.2-0.8,3-1.2,5.3-1.3l2.8-0.1v-0.7c0-1.6-0.8-2.4-2.5-2.4c-1.3,0-2.8,0.4-4.5,1.2
			l-1.4-2.9c1.8-1,3.9-1.4,6.1-1.4c2.1,0,3.8,0.5,4.9,1.4s1.7,2.3,1.7,4.2v10.6H559.3z M558,161.3l-1.7,0.1c-1.3,0-2.2,0.3-2.8,0.7
			c-0.6,0.4-0.9,1.1-0.9,1.9c0,1.2,0.7,1.8,2.1,1.8c1,0,1.8-0.3,2.4-0.9c0.6-0.6,0.9-1.3,0.9-2.3V161.3z"/>
		<path class="st3" d="M580.6,152.8v2.2l-2.5,0.6c0.5,0.7,0.7,1.5,0.7,2.4c0,1.7-0.6,3-1.8,4c-1.2,1-2.8,1.4-5,1.4l-0.8,0l-0.6-0.1
			c-0.4,0.3-0.7,0.7-0.7,1.1c0,0.6,0.8,0.9,2.4,0.9h2.7c1.7,0,3.1,0.4,4,1.1c0.9,0.7,1.4,1.8,1.4,3.3c0,1.9-0.8,3.3-2.3,4.3
			c-1.5,1-3.8,1.5-6.7,1.5c-2.2,0-3.9-0.4-5.1-1.2s-1.8-1.9-1.8-3.2c0-1,0.3-1.8,0.9-2.4s1.5-1.1,2.6-1.4c-0.4-0.2-0.8-0.5-1.2-0.9
			c-0.3-0.4-0.5-0.9-0.5-1.4c0-0.6,0.2-1.1,0.5-1.5c0.4-0.4,0.9-0.8,1.5-1.2c-0.8-0.4-1.5-0.9-2-1.7c-0.5-0.8-0.7-1.7-0.7-2.8
			c0-1.7,0.6-3.1,1.7-4c1.1-0.9,2.7-1.4,4.8-1.4c0.4,0,1,0,1.6,0.1c0.6,0.1,1,0.1,1.2,0.2H580.6z M568.3,170.9
			c0,0.6,0.3,1.1,0.9,1.4s1.4,0.5,2.4,0.5c1.6,0,2.8-0.2,3.7-0.6c0.9-0.4,1.3-1,1.3-1.7c0-0.6-0.3-1-0.8-1.2
			c-0.5-0.2-1.3-0.3-2.4-0.3h-2.2c-0.8,0-1.5,0.2-2,0.6S568.3,170.3,568.3,170.9z M569.9,158c0,0.9,0.2,1.5,0.6,2s1,0.8,1.8,0.8
			c0.8,0,1.4-0.3,1.8-0.8s0.6-1.2,0.6-2c0-1.9-0.8-2.9-2.4-2.9C570.7,155.1,569.9,156,569.9,158z"/>
		<path class="st3" d="M597.6,160.7c0,2.6-0.7,4.6-2,6.1c-1.4,1.5-3.3,2.2-5.7,2.2c-1.5,0-2.9-0.3-4-1c-1.2-0.7-2.1-1.6-2.7-2.9
			s-0.9-2.7-0.9-4.4c0-2.6,0.7-4.6,2-6.1c1.4-1.4,3.3-2.2,5.7-2.2c1.5,0,2.9,0.3,4,1s2.1,1.6,2.7,2.9
			C597.3,157.5,597.6,159,597.6,160.7z M586.7,160.7c0,1.6,0.3,2.8,0.8,3.6s1.4,1.2,2.5,1.2c1.2,0,2-0.4,2.5-1.2
			c0.5-0.8,0.8-2,0.8-3.6c0-1.6-0.3-2.8-0.8-3.5c-0.5-0.8-1.3-1.2-2.5-1.2c-1.2,0-2,0.4-2.5,1.2S586.7,159.1,586.7,160.7z"/>
		<path class="st3" d="M600.6,166.6c0-0.8,0.2-1.4,0.6-1.8s1-0.6,1.9-0.6c0.8,0,1.4,0.2,1.8,0.6c0.4,0.4,0.6,1,0.6,1.8
			c0,0.7-0.2,1.3-0.7,1.8s-1,0.6-1.8,0.6c-0.8,0-1.4-0.2-1.8-0.6C600.8,168,600.6,167.4,600.6,166.6z M604.9,161.7h-3.5l-0.7-13.9
			h4.9L604.9,161.7z"/>
	</g>
	<g class="st2">
		<path class="st3" d="M32.9,217.3c-0.9,0-1.7-0.1-2.3-0.4v-2.9c0.8,0.2,1.5,0.3,2.1,0.3c1.9,0,2.8-1.2,2.8-3.5v-20.1h3.4v20
			c0,2.1-0.5,3.7-1.5,4.9C36.3,216.8,34.9,217.3,32.9,217.3z"/>
		<path class="st3" d="M57.8,203.7c0,2.6-0.7,4.6-2,6s-3.1,2.2-5.5,2.2c-1.5,0-2.8-0.3-3.9-1s-2-1.6-2.6-2.9
			c-0.6-1.2-0.9-2.7-0.9-4.3c0-2.5,0.7-4.5,2-6s3.1-2.1,5.5-2.1c2.3,0,4.1,0.7,5.4,2.2S57.8,201.2,57.8,203.7z M46.4,203.7
			c0,3.6,1.3,5.4,4,5.4c2.7,0,4-1.8,4-5.4c0-3.6-1.3-5.4-4-5.4c-1.4,0-2.4,0.5-3,1.4S46.4,201.9,46.4,203.7z"/>
		<path class="st3" d="M61.4,191.7c0-0.6,0.2-1.1,0.5-1.4c0.3-0.3,0.8-0.5,1.4-0.5c0.6,0,1,0.2,1.4,0.5c0.3,0.3,0.5,0.8,0.5,1.4
			c0,0.6-0.2,1-0.5,1.3c-0.3,0.3-0.8,0.5-1.4,0.5c-0.6,0-1.1-0.2-1.4-0.5C61.6,192.7,61.4,192.2,61.4,191.7z M65,211.5h-3.3v-15.7
			H65V211.5z"/>
		<path class="st3" d="M83.6,211.5h-3.4v-9.7c0-1.2-0.2-2.1-0.7-2.7s-1.3-0.9-2.3-0.9c-1.4,0-2.4,0.4-3.1,1.2c-0.7,0.8-1,2.2-1,4.2
			v7.8h-3.3v-15.7h2.6l0.5,2.1H73c0.5-0.7,1.1-1.3,2-1.7s1.8-0.6,2.9-0.6c3.8,0,5.7,1.9,5.7,5.8V211.5z"/>
		<path class="st3" d="M106.9,211.5l-0.5-2.1h-0.2c-0.5,0.7-1.1,1.3-2,1.7s-1.8,0.6-2.9,0.6c-1.9,0-3.3-0.5-4.3-1.4
			c-0.9-0.9-1.4-2.4-1.4-4.3v-10.3H99v9.7c0,1.2,0.2,2.1,0.7,2.7c0.5,0.6,1.3,0.9,2.3,0.9c1.4,0,2.4-0.4,3.1-1.3s1-2.2,1-4.2v-7.8
			h3.4v15.7H106.9z"/>
		<path class="st3" d="M124.8,207.1c0,1.5-0.6,2.7-1.7,3.5c-1.1,0.8-2.7,1.2-4.8,1.2c-2.1,0-3.8-0.3-5-1V208
			c1.8,0.9,3.6,1.3,5.2,1.3c2.1,0,3.1-0.6,3.1-1.9c0-0.4-0.1-0.7-0.3-1c-0.2-0.3-0.6-0.5-1.1-0.8c-0.5-0.3-1.2-0.6-2.2-1
			c-1.8-0.7-3-1.4-3.7-2.1c-0.6-0.7-1-1.6-1-2.7c0-1.3,0.5-2.4,1.6-3.1c1.1-0.7,2.6-1.1,4.4-1.1c1.8,0,3.6,0.4,5.2,1.1l-1.1,2.5
			c-1.7-0.7-3.1-1.1-4.3-1.1c-1.8,0-2.6,0.5-2.6,1.5c0,0.5,0.2,0.9,0.7,1.2s1.5,0.8,3,1.4c1.3,0.5,2.2,1,2.8,1.4
			c0.6,0.4,1,0.9,1.3,1.4C124.7,205.7,124.8,206.3,124.8,207.1z"/>
		<path class="st3" d="M145.8,211.5l-0.7-2.2H145c-0.8,1-1.5,1.6-2.3,2s-1.8,0.5-3,0.5c-1.5,0-2.7-0.4-3.6-1.2
			c-0.9-0.8-1.3-2-1.3-3.5c0-1.6,0.6-2.8,1.8-3.7c1.2-0.8,3-1.3,5.5-1.3l2.7-0.1v-0.8c0-1-0.2-1.8-0.7-2.3c-0.5-0.5-1.2-0.7-2.2-0.7
			c-0.8,0-1.6,0.1-2.3,0.4c-0.7,0.2-1.4,0.5-2.1,0.8l-1.1-2.4c0.9-0.4,1.8-0.8,2.8-1c1-0.2,2-0.3,2.9-0.3c2,0,3.5,0.4,4.5,1.3
			c1,0.9,1.5,2.2,1.5,4.1v10.6H145.8z M140.8,209.3c1.2,0,2.2-0.3,2.9-1c0.7-0.7,1.1-1.6,1.1-2.8V204l-2,0.1
			c-1.6,0.1-2.7,0.3-3.4,0.8c-0.7,0.5-1.1,1.2-1.1,2.2c0,0.7,0.2,1.2,0.6,1.6C139.4,209.1,140,209.3,140.8,209.3z"/>
		<path class="st3" d="M158.7,209.1c0.8,0,1.6-0.1,2.4-0.4v2.5c-0.4,0.2-0.8,0.3-1.4,0.4c-0.6,0.1-1.2,0.2-1.8,0.2
			c-3.2,0-4.7-1.7-4.7-5v-8.5H151v-1.5l2.3-1.2l1.1-3.3h2.1v3.5h4.5v2.5h-4.5v8.4c0,0.8,0.2,1.4,0.6,1.8S158,209.1,158.7,209.1z"/>
		<path class="st3" d="M185.8,203.7c0,2.6-0.7,4.6-2,6s-3.1,2.2-5.5,2.2c-1.5,0-2.8-0.3-3.9-1s-2-1.6-2.6-2.9
			c-0.6-1.2-0.9-2.7-0.9-4.3c0-2.5,0.7-4.5,2-6s3.1-2.1,5.5-2.1c2.3,0,4.1,0.7,5.4,2.2S185.8,201.2,185.8,203.7z M174.3,203.7
			c0,3.6,1.3,5.4,4,5.4c2.7,0,4-1.8,4-5.4c0-3.6-1.3-5.4-4-5.4c-1.4,0-2.4,0.5-3,1.4S174.3,201.9,174.3,203.7z"/>
		<path class="st3" d="M200.7,211.5l-0.5-2.1H200c-0.5,0.7-1.1,1.3-2,1.7s-1.8,0.6-2.9,0.6c-1.9,0-3.3-0.5-4.3-1.4
			c-0.9-0.9-1.4-2.4-1.4-4.3v-10.3h3.4v9.7c0,1.2,0.2,2.1,0.7,2.7c0.5,0.6,1.3,0.9,2.3,0.9c1.4,0,2.4-0.4,3.1-1.3s1-2.2,1-4.2v-7.8
			h3.4v15.7H200.7z"/>
		<path class="st3" d="M216,195.5c0.7,0,1.2,0,1.7,0.1l-0.3,3.1c-0.5-0.1-1-0.2-1.5-0.2c-1.3,0-2.4,0.4-3.2,1.3s-1.2,2-1.2,3.4v8.2
			h-3.3v-15.7h2.6l0.4,2.8h0.2c0.5-0.9,1.2-1.7,2-2.2C214.2,195.8,215.1,195.5,216,195.5z"/>
		<path class="st3" d="M242,211.5h-3.4v-9.7c0-1.2-0.2-2.1-0.7-2.7s-1.3-0.9-2.3-0.9c-1.4,0-2.4,0.4-3.1,1.2c-0.7,0.8-1,2.2-1,4.2
			v7.8h-3.3v-15.7h2.6l0.5,2.1h0.2c0.5-0.7,1.1-1.3,2-1.7s1.8-0.6,2.9-0.6c3.8,0,5.7,1.9,5.7,5.8V211.5z"/>
		<path class="st3" d="M253.5,211.8c-2.4,0-4.4-0.7-5.7-2.1c-1.4-1.4-2.1-3.4-2.1-5.9c0-2.6,0.6-4.6,1.9-6.1c1.3-1.5,3-2.2,5.3-2.2
			c2.1,0,3.7,0.6,4.9,1.9c1.2,1.3,1.8,3,1.8,5.2v1.8h-10.5c0,1.5,0.5,2.7,1.2,3.5c0.8,0.8,1.9,1.2,3.3,1.2c0.9,0,1.8-0.1,2.6-0.3
			c0.8-0.2,1.7-0.5,2.6-0.9v2.7c-0.8,0.4-1.6,0.7-2.5,0.8C255.5,211.7,254.6,211.8,253.5,211.8z M252.9,198.1c-1.1,0-1.9,0.3-2.5,1
			c-0.6,0.7-1,1.7-1.1,2.9h7.1c0-1.3-0.3-2.3-0.9-2.9C254.8,198.4,253.9,198.1,252.9,198.1z"/>
		<path class="st3" d="M266.9,203.5l-5.3-7.7h3.8l3.6,5.5l3.6-5.5h3.8l-5.3,7.7l5.6,8h-3.8l-3.9-5.9l-3.9,5.9h-3.8L266.9,203.5z"/>
		<path class="st3" d="M285.3,209.1c0.8,0,1.6-0.1,2.4-0.4v2.5c-0.4,0.2-0.8,0.3-1.4,0.4c-0.6,0.1-1.2,0.2-1.8,0.2
			c-3.2,0-4.7-1.7-4.7-5v-8.5h-2.1v-1.5l2.3-1.2l1.1-3.3h2.1v3.5h4.5v2.5h-4.5v8.4c0,0.8,0.2,1.4,0.6,1.8S284.6,209.1,285.3,209.1z"
			/>
		<path class="st3" d="M307.6,193.4c-2,0-3.5,0.7-4.6,2.1c-1.1,1.4-1.7,3.3-1.7,5.7c0,2.5,0.5,4.5,1.6,5.8c1.1,1.3,2.6,2,4.7,2
			c0.9,0,1.7-0.1,2.6-0.3c0.8-0.2,1.7-0.4,2.6-0.7v2.9c-1.6,0.6-3.5,0.9-5.5,0.9c-3,0-5.4-0.9-7-2.8c-1.6-1.8-2.4-4.5-2.4-7.9
			c0-2.2,0.4-4,1.2-5.7c0.8-1.6,1.9-2.9,3.4-3.7c1.5-0.9,3.3-1.3,5.3-1.3c2.1,0,4.1,0.4,5.9,1.3l-1.2,2.8c-0.7-0.3-1.4-0.6-2.2-0.9
			S308.5,193.4,307.6,193.4z"/>
		<path class="st3" d="M326.7,211.5l-0.7-2.2h-0.1c-0.8,1-1.5,1.6-2.3,2s-1.8,0.5-3,0.5c-1.5,0-2.7-0.4-3.6-1.2
			c-0.9-0.8-1.3-2-1.3-3.5c0-1.6,0.6-2.8,1.8-3.7c1.2-0.8,3-1.3,5.5-1.3l2.7-0.1v-0.8c0-1-0.2-1.8-0.7-2.3c-0.5-0.5-1.2-0.7-2.2-0.7
			c-0.8,0-1.6,0.1-2.3,0.4c-0.7,0.2-1.4,0.5-2.1,0.8l-1.1-2.4c0.9-0.4,1.8-0.8,2.8-1c1-0.2,2-0.3,2.9-0.3c2,0,3.5,0.4,4.5,1.3
			c1,0.9,1.5,2.2,1.5,4.1v10.6H326.7z M321.7,209.3c1.2,0,2.2-0.3,2.9-1c0.7-0.7,1.1-1.6,1.1-2.8V204l-2,0.1
			c-1.6,0.1-2.7,0.3-3.4,0.8c-0.7,0.5-1.1,1.2-1.1,2.2c0,0.7,0.2,1.2,0.6,1.6C320.3,209.1,320.9,209.3,321.7,209.3z"/>
		<path class="st3" d="M347,211.5h-3.4v-9.7c0-1.2-0.2-2.1-0.7-2.7c-0.5-0.6-1.2-0.9-2.1-0.9c-1.3,0-2.2,0.4-2.8,1.3
			c-0.6,0.8-0.9,2.2-0.9,4.2v7.8h-3.3v-15.7h2.6l0.5,2.1h0.2c0.4-0.7,1.1-1.3,1.9-1.7s1.7-0.6,2.7-0.6c2.4,0,4,0.8,4.8,2.5h0.2
			c0.5-0.8,1.1-1.4,2-1.8s1.8-0.7,2.9-0.7c1.9,0,3.2,0.5,4.1,1.4c0.9,0.9,1.3,2.4,1.3,4.3v10.2h-3.3v-9.7c0-1.2-0.2-2.1-0.7-2.7
			c-0.5-0.6-1.2-0.9-2.1-0.9c-1.3,0-2.2,0.4-2.8,1.2c-0.6,0.8-0.9,2.1-0.9,3.7V211.5z"/>
		<path class="st3" d="M372.6,211.5l-0.5-2.1H372c-0.5,0.7-1.1,1.3-2,1.7s-1.8,0.6-2.9,0.6c-1.9,0-3.3-0.5-4.3-1.4
			c-0.9-0.9-1.4-2.4-1.4-4.3v-10.3h3.4v9.7c0,1.2,0.2,2.1,0.7,2.7c0.5,0.6,1.3,0.9,2.3,0.9c1.4,0,2.4-0.4,3.1-1.3s1-2.2,1-4.2v-7.8
			h3.4v15.7H372.6z"/>
		<path class="st3" d="M393.8,211.5h-3.4v-9.7c0-1.2-0.2-2.1-0.7-2.7c-0.5-0.6-1.3-0.9-2.3-0.9c-1.4,0-2.4,0.4-3.1,1.2
			c-0.7,0.8-1,2.2-1,4.2v7.8H380v-15.7h2.6l0.5,2.1h0.2c0.5-0.7,1.1-1.3,2-1.7s1.8-0.6,2.9-0.6c3.8,0,5.7,1.9,5.7,5.8V211.5z"/>
		<path class="st3" d="M403.8,211.8c-2,0-3.5-0.7-4.6-2.1c-1.1-1.4-1.6-3.4-1.6-6c0-2.6,0.6-4.6,1.7-6c1.1-1.4,2.7-2.2,4.6-2.2
			c2.1,0,3.6,0.8,4.7,2.3h0.2c-0.2-1.1-0.2-2-0.2-2.7v-5.7h3.4v22.1h-2.6l-0.6-2.1h-0.2C407.4,211,405.8,211.8,403.8,211.8z
			 M404.7,209.1c1.4,0,2.4-0.4,3-1.2s0.9-2,1-3.8v-0.5c0-2-0.3-3.4-1-4.2c-0.6-0.8-1.7-1.2-3-1.2c-1.2,0-2.1,0.5-2.7,1.4
			c-0.6,1-1,2.3-1,4.1c0,1.7,0.3,3.1,0.9,4C402.5,208.7,403.4,209.1,404.7,209.1z"/>
		<path class="st3" d="M426.4,211.5l-0.7-2.2h-0.1c-0.8,1-1.5,1.6-2.3,2c-0.8,0.3-1.8,0.5-3,0.5c-1.5,0-2.7-0.4-3.6-1.2
			s-1.3-2-1.3-3.5c0-1.6,0.6-2.8,1.8-3.7c1.2-0.8,3-1.3,5.5-1.3l2.7-0.1v-0.8c0-1-0.2-1.8-0.7-2.3c-0.5-0.5-1.2-0.7-2.2-0.7
			c-0.8,0-1.6,0.1-2.3,0.4c-0.7,0.2-1.4,0.5-2.1,0.8l-1.1-2.4c0.9-0.4,1.8-0.8,2.8-1s2-0.3,2.9-0.3c2,0,3.5,0.4,4.5,1.3
			s1.5,2.2,1.5,4.1v10.6H426.4z M421.5,209.3c1.2,0,2.2-0.3,2.9-1c0.7-0.7,1.1-1.6,1.1-2.8V204l-2,0.1c-1.6,0.1-2.7,0.3-3.4,0.8
			s-1.1,1.2-1.1,2.2c0,0.7,0.2,1.2,0.6,1.6C420,209.1,420.6,209.3,421.5,209.3z"/>
		<path class="st3" d="M458.3,201c0,3.4-1,6-2.9,7.9s-4.6,2.7-8.2,2.7h-5.8v-20.8h6.4c3.3,0,5.9,0.9,7.7,2.7
			C457.4,195.2,458.3,197.7,458.3,201z M454.7,201.1c0-5-2.3-7.5-7-7.5h-2.9v15.1h2.4C452.2,208.7,454.7,206.1,454.7,201.1z"/>
		<path class="st3" d="M472.2,211.5l-0.7-2.2h-0.1c-0.8,1-1.5,1.6-2.3,2c-0.8,0.3-1.8,0.5-3,0.5c-1.5,0-2.7-0.4-3.6-1.2
			c-0.9-0.8-1.3-2-1.3-3.5c0-1.6,0.6-2.8,1.8-3.7c1.2-0.8,3-1.3,5.5-1.3l2.7-0.1v-0.8c0-1-0.2-1.8-0.7-2.3c-0.5-0.5-1.2-0.7-2.2-0.7
			c-0.8,0-1.6,0.1-2.3,0.4c-0.7,0.2-1.4,0.5-2.1,0.8l-1.1-2.4c0.9-0.4,1.8-0.8,2.8-1c1-0.2,2-0.3,2.9-0.3c2,0,3.5,0.4,4.5,1.3
			c1,0.9,1.5,2.2,1.5,4.1v10.6H472.2z M467.2,209.3c1.2,0,2.2-0.3,2.9-1c0.7-0.7,1.1-1.6,1.1-2.8V204l-2,0.1
			c-1.6,0.1-2.7,0.3-3.4,0.8c-0.7,0.5-1.1,1.2-1.1,2.2c0,0.7,0.2,1.2,0.6,1.6C465.8,209.1,466.4,209.3,467.2,209.3z"/>
		<path class="st3" d="M476.9,195.8h3.6l3.2,8.9c0.5,1.3,0.8,2.5,1,3.6h0.1c0.1-0.5,0.2-1.2,0.5-1.9c0.2-0.7,1.4-4.3,3.6-10.6h3.6
			l-6.7,17.8c-1.2,3.3-3.3,4.9-6.1,4.9c-0.7,0-1.5-0.1-2.2-0.2v-2.6c0.5,0.1,1.1,0.2,1.7,0.2c1.6,0,2.7-0.9,3.4-2.8l0.6-1.5
			L476.9,195.8z"/>
		<path class="st3" d="M516.3,203.7c0,2.6-0.7,4.6-2,6s-3.1,2.2-5.5,2.2c-1.5,0-2.8-0.3-3.9-1s-2-1.6-2.6-2.9
			c-0.6-1.2-0.9-2.7-0.9-4.3c0-2.5,0.7-4.5,2-6s3.1-2.1,5.5-2.1c2.3,0,4.1,0.7,5.4,2.2C515.7,199.2,516.3,201.2,516.3,203.7z
			 M504.9,203.7c0,3.6,1.3,5.4,4,5.4c2.7,0,4-1.8,4-5.4c0-3.6-1.3-5.4-4-5.4c-1.4,0-2.4,0.5-3,1.4S504.9,201.9,504.9,203.7z"/>
		<path class="st3" d="M534,211.5h-3.4v-9.7c0-1.2-0.2-2.1-0.7-2.7c-0.5-0.6-1.3-0.9-2.3-0.9c-1.4,0-2.4,0.4-3.1,1.2
			c-0.7,0.8-1,2.2-1,4.2v7.8h-3.3v-15.7h2.6l0.5,2.1h0.2c0.5-0.7,1.1-1.3,2-1.7s1.8-0.6,2.9-0.6c3.8,0,5.7,1.9,5.7,5.8V211.5z"/>
		<path class="st3" d="M565,201.1c0,3.4-0.8,6-2.5,7.9s-4.1,2.8-7.2,2.8c-3.1,0-5.5-0.9-7.2-2.8c-1.7-1.9-2.5-4.5-2.5-7.9
			s0.8-6.1,2.5-7.9c1.7-1.8,4.1-2.8,7.2-2.8c3.1,0,5.5,0.9,7.2,2.8C564.2,195.1,565,197.7,565,201.1z M549.1,201.1
			c0,2.6,0.5,4.5,1.5,5.8c1,1.3,2.6,2,4.6,2c2,0,3.5-0.7,4.6-2c1-1.3,1.5-3.3,1.5-5.8c0-2.5-0.5-4.5-1.5-5.8c-1-1.3-2.5-2-4.6-2
			c-2,0-3.6,0.7-4.6,2C549.7,196.6,549.1,198.6,549.1,201.1z"/>
		<path class="st3" d="M575.4,211.8c-2.4,0-4.2-0.7-5.4-2.1c-1.2-1.4-1.9-3.4-1.9-6c0-2.6,0.6-4.7,1.9-6.1c1.3-1.4,3.2-2.1,5.6-2.1
			c1.7,0,3.1,0.3,4.5,0.9l-1,2.7c-1.4-0.5-2.6-0.8-3.5-0.8c-2.7,0-4.1,1.8-4.1,5.4c0,1.8,0.3,3.1,1,4c0.7,0.9,1.7,1.3,3,1.3
			c1.5,0,2.9-0.4,4.2-1.1v2.9c-0.6,0.4-1.2,0.6-1.9,0.8C577.2,211.7,576.4,211.8,575.4,211.8z"/>
		<path class="st3" d="M589.4,209.1c0.8,0,1.6-0.1,2.4-0.4v2.5c-0.4,0.2-0.8,0.3-1.4,0.4c-0.6,0.1-1.2,0.2-1.8,0.2
			c-3.2,0-4.7-1.7-4.7-5v-8.5h-2.1v-1.5l2.3-1.2l1.1-3.3h2.1v3.5h4.5v2.5h-4.5v8.4c0,0.8,0.2,1.4,0.6,1.8S588.7,209.1,589.4,209.1z"
			/>
		<path class="st3" d="M608.9,203.7c0,2.6-0.7,4.6-2,6s-3.1,2.2-5.5,2.2c-1.5,0-2.8-0.3-3.9-1s-2-1.6-2.6-2.9
			c-0.6-1.2-0.9-2.7-0.9-4.3c0-2.5,0.7-4.5,2-6s3.1-2.1,5.5-2.1c2.3,0,4.1,0.7,5.4,2.2C608.2,199.2,608.9,201.2,608.9,203.7z
			 M597.4,203.7c0,3.6,1.3,5.4,4,5.4c2.7,0,4-1.8,4-5.4c0-3.6-1.3-5.4-4-5.4c-1.4,0-2.4,0.5-3,1.4S597.4,201.9,597.4,203.7z"/>
		<path class="st3" d="M620.7,195.5c2,0,3.5,0.7,4.6,2.1c1.1,1.4,1.6,3.4,1.6,6c0,2.6-0.6,4.6-1.7,6c-1.1,1.4-2.6,2.2-4.6,2.2
			c-2,0-3.5-0.7-4.6-2.1h-0.2l-0.6,1.9h-2.5v-22.1h3.3v5.3c0,0.4,0,1-0.1,1.7c0,0.8-0.1,1.3-0.1,1.5h0.1
			C617.1,196.3,618.7,195.5,620.7,195.5z M619.9,198.3c-1.3,0-2.3,0.4-2.9,1.2s-0.9,2.1-0.9,4v0.2c0,1.9,0.3,3.3,0.9,4.2
			c0.6,0.9,1.6,1.3,3,1.3c1.2,0,2.1-0.5,2.7-1.4s0.9-2.3,0.9-4.1C623.5,200.1,622.3,198.3,619.9,198.3z"/>
		<path class="st3" d="M637.7,211.8c-2.4,0-4.4-0.7-5.7-2.1c-1.4-1.4-2.1-3.4-2.1-5.9c0-2.6,0.6-4.6,1.9-6.1c1.3-1.5,3-2.2,5.3-2.2
			c2.1,0,3.7,0.6,4.9,1.9c1.2,1.3,1.8,3,1.8,5.2v1.8h-10.5c0,1.5,0.5,2.7,1.2,3.5c0.8,0.8,1.9,1.2,3.3,1.2c0.9,0,1.8-0.1,2.6-0.3
			c0.8-0.2,1.7-0.5,2.6-0.9v2.7c-0.8,0.4-1.6,0.7-2.5,0.8C639.7,211.7,638.8,211.8,637.7,211.8z M637.1,198.1c-1.1,0-1.9,0.3-2.5,1
			c-0.6,0.7-1,1.7-1.1,2.9h7.1c0-1.3-0.3-2.3-0.9-2.9C639,198.4,638.1,198.1,637.1,198.1z"/>
		<path class="st3" d="M655.6,195.5c0.7,0,1.2,0,1.7,0.1l-0.3,3.1c-0.5-0.1-1-0.2-1.5-0.2c-1.3,0-2.4,0.4-3.2,1.3
			c-0.8,0.9-1.2,2-1.2,3.4v8.2h-3.3v-15.7h2.6l0.4,2.8h0.2c0.5-0.9,1.2-1.7,2-2.2C653.7,195.8,654.6,195.5,655.6,195.5z"/>
		<path class="st3" d="M680.7,211.5h-14.1V209l5.4-5.4c1.6-1.6,2.6-2.8,3.1-3.4c0.5-0.7,0.9-1.3,1.1-1.9c0.2-0.6,0.4-1.2,0.4-1.9
			c0-0.9-0.3-1.7-0.8-2.2c-0.6-0.5-1.3-0.8-2.3-0.8c-0.8,0-1.6,0.1-2.3,0.4c-0.7,0.3-1.6,0.8-2.6,1.6l-1.8-2.2
			c1.2-1,2.3-1.7,3.4-2.1s2.2-0.6,3.5-0.6c1.9,0,3.5,0.5,4.6,1.5s1.7,2.4,1.7,4.1c0,0.9-0.2,1.8-0.5,2.7s-0.9,1.7-1.5,2.6
			c-0.7,0.9-1.9,2.1-3.5,3.6l-3.6,3.5v0.1h9.9V211.5z"/>
		<path class="st3" d="M690.2,198.6c2.1,0,3.8,0.6,5,1.7c1.2,1.1,1.8,2.6,1.8,4.5c0,2.2-0.7,3.9-2.1,5.2c-1.4,1.2-3.4,1.9-5.9,1.9
			c-2.3,0-4.1-0.4-5.5-1.1v-3c0.8,0.4,1.6,0.8,2.6,1c1,0.2,1.9,0.4,2.8,0.4c1.5,0,2.7-0.3,3.4-1c0.8-0.7,1.2-1.7,1.2-3
			c0-2.5-1.6-3.7-4.7-3.7c-0.4,0-1,0-1.6,0.1s-1.2,0.2-1.7,0.3l-1.5-0.9l0.8-10.1h10.8v3h-7.9l-0.5,5.1c0.3-0.1,0.7-0.1,1.2-0.2
			C689,198.6,689.5,198.6,690.2,198.6z"/>
		<path class="st3" d="M706.8,209.1c0.8,0,1.6-0.1,2.4-0.4v2.5c-0.4,0.2-0.8,0.3-1.4,0.4c-0.6,0.1-1.2,0.2-1.8,0.2
			c-3.2,0-4.7-1.7-4.7-5v-8.5h-2.1v-1.5l2.3-1.2l1.1-3.3h2.1v3.5h4.5v2.5h-4.5v8.4c0,0.8,0.2,1.4,0.6,1.8S706.1,209.1,706.8,209.1z"
			/>
		<path class="st3" d="M726.2,211.5h-3.4v-9.7c0-1.2-0.2-2.1-0.7-2.7s-1.3-0.9-2.3-0.9c-1.4,0-2.4,0.4-3.1,1.3c-0.7,0.8-1,2.2-1,4.2
			v7.8h-3.3v-22.1h3.3v5.6c0,0.9-0.1,1.9-0.2,2.9h0.2c0.5-0.8,1.1-1.3,1.9-1.8c0.8-0.4,1.8-0.6,2.8-0.6c3.8,0,5.7,1.9,5.7,5.8V211.5
			z"/>
		<path class="st3" d="M730.3,209.8c0-0.7,0.2-1.2,0.5-1.6c0.4-0.4,0.9-0.6,1.6-0.6c0.7,0,1.2,0.2,1.6,0.6c0.4,0.4,0.5,0.9,0.5,1.6
			c0,0.7-0.2,1.2-0.5,1.6c-0.4,0.4-0.9,0.6-1.6,0.6c-0.7,0-1.2-0.2-1.6-0.6C730.5,211,730.3,210.4,730.3,209.8z"/>
	</g>
</g>
<path class="st4" d="M516.7,289.8H250.3c-2.1,0-3.6-1.6-3.6-3.6v-42.1c0-2.1,1.6-3.6,3.6-3.6h266.4c2.1,0,3.6,1.6,3.6,3.6v42.1
	C520.3,288.3,518.6,289.8,516.7,289.8z"/>
<g class="st2">
	<path class="st5" d="M263.9,267.4v7.8h-3.2v-19.6h5.5c2.5,0,4.4,0.5,5.6,1.4c1.2,0.9,1.8,2.4,1.8,4.3c0,2.4-1.3,4.2-3.8,5.2
		l5.5,8.7h-3.7l-4.7-7.8H263.9z M263.9,264.8h2.2c1.5,0,2.6-0.3,3.2-0.8c0.7-0.6,1-1.4,1-2.5c0-1.1-0.4-1.9-1.1-2.4
		s-1.8-0.7-3.3-0.7h-2.1V264.8z"/>
	<path class="st5" d="M289.6,270c0,1.7-0.6,3.1-1.9,4.1c-1.3,1-3,1.5-5.2,1.5s-4-0.3-5.5-1v-3c0.9,0.4,1.8,0.8,2.9,1
		c1,0.2,1.9,0.4,2.8,0.4c1.3,0,2.2-0.2,2.8-0.7s0.9-1.1,0.9-1.9c0-0.7-0.3-1.4-0.8-1.9c-0.6-0.5-1.7-1.1-3.4-1.8
		c-1.8-0.7-3.1-1.6-3.8-2.5c-0.7-0.9-1.1-2-1.1-3.4c0-1.6,0.6-2.9,1.7-3.9c1.2-0.9,2.7-1.4,4.7-1.4c1.9,0,3.8,0.4,5.6,1.2l-1,2.6
		c-1.7-0.7-3.3-1.1-4.7-1.1c-1,0-1.8,0.2-2.4,0.7c-0.5,0.5-0.8,1-0.8,1.8c0,0.5,0.1,0.9,0.3,1.3s0.6,0.7,1.1,1s1.4,0.7,2.7,1.3
		c1.4,0.6,2.5,1.2,3.2,1.7c0.7,0.5,1.2,1.1,1.5,1.8C289.4,268.3,289.6,269.1,289.6,270z"/>
	<path class="st5" d="M304.5,255.7h3.3l-6.9,19.6h-3.4l-6.8-19.6h3.3l4.1,12.2c0.2,0.6,0.4,1.3,0.7,2.2c0.2,0.9,0.4,1.6,0.5,2
		c0.1-0.7,0.3-1.5,0.5-2.4c0.2-0.9,0.4-1.6,0.6-2L304.5,255.7z"/>
	<path class="st5" d="M323.5,261.6c0,2-0.7,3.6-2,4.7c-1.3,1.1-3.3,1.6-5.7,1.6h-2v7.3h-3.2v-19.6h5.7c2.5,0,4.3,0.5,5.5,1.5
		C322.8,258.2,323.5,259.6,323.5,261.6z M313.7,265.2h1.7c1.6,0,2.9-0.3,3.6-0.9c0.8-0.6,1.2-1.5,1.2-2.7c0-1.1-0.3-2-1-2.5
		c-0.7-0.6-1.8-0.8-3.2-0.8h-2.2V265.2z"/>
	<path class="st5" d="M350.9,275.3h-3.9l-9.7-15.6h-0.1l0.1,0.9c0.1,1.7,0.2,3.2,0.2,4.6v10.2h-2.9v-19.6h3.9l9.6,15.6h0.1
		c0-0.2-0.1-1-0.1-2.2s-0.1-2.3-0.1-3v-10.3h2.9V275.3z"/>
	<path class="st5" d="M368.9,267.8c0,2.4-0.6,4.3-1.9,5.7c-1.2,1.4-3,2-5.2,2c-1.4,0-2.6-0.3-3.7-0.9c-1.1-0.6-1.9-1.5-2.5-2.7
		c-0.6-1.2-0.9-2.5-0.9-4.1c0-2.4,0.6-4.3,1.9-5.6c1.2-1.4,3-2,5.2-2c2.1,0,3.8,0.7,5.1,2.1C368.3,263.6,368.9,265.5,368.9,267.8z
		 M358.1,267.8c0,3.4,1.3,5.1,3.8,5.1c2.5,0,3.8-1.7,3.8-5.1c0-3.4-1.3-5.1-3.8-5.1c-1.3,0-2.3,0.4-2.9,1.3
		C358.4,264.9,358.1,266.2,358.1,267.8z"/>
	<path class="st5" d="M384.7,275.3l-1.9-6.9c-0.2-0.7-0.7-2.4-1.3-5.1h-0.1c-0.5,2.4-0.9,4.1-1.2,5.1l-2,6.9h-3.5l-4.2-14.8h3.2
		l1.9,7.3c0.4,1.8,0.7,3.4,0.9,4.6h0.1c0.1-0.7,0.2-1.4,0.4-2.2s0.3-1.5,0.5-1.9l2.3-7.8h3.5l2.2,7.8c0.1,0.4,0.3,1.1,0.5,2
		c0.2,0.9,0.3,1.6,0.4,2.1h0.1c0.1-1.1,0.4-2.6,0.9-4.6l1.9-7.3h3.2l-4.2,14.8H384.7z"/>
	<path class="st5" d="M405.6,275.3h-3.2v-19.6h11.1v2.7h-7.9v6.1h7.4v2.7h-7.4V275.3z"/>
	<path class="st5" d="M429.9,267.8c0,2.4-0.6,4.3-1.9,5.7c-1.2,1.4-3,2-5.2,2c-1.4,0-2.6-0.3-3.7-0.9c-1.1-0.6-1.9-1.5-2.5-2.7
		c-0.6-1.2-0.9-2.5-0.9-4.1c0-2.4,0.6-4.3,1.9-5.6s3-2,5.2-2c2.1,0,3.8,0.7,5.1,2.1C429.3,263.6,429.9,265.5,429.9,267.8z
		 M419.1,267.8c0,3.4,1.3,5.1,3.8,5.1c2.5,0,3.8-1.7,3.8-5.1c0-3.4-1.3-5.1-3.8-5.1c-1.3,0-2.3,0.4-2.9,1.3
		C419.4,264.9,419.1,266.2,419.1,267.8z"/>
	<path class="st5" d="M441.1,260.2c0.6,0,1.2,0,1.6,0.1l-0.3,2.9c-0.4-0.1-0.9-0.2-1.4-0.2c-1.3,0-2.3,0.4-3.1,1.2s-1.2,1.9-1.2,3.2
		v7.8h-3.2v-14.8h2.5l0.4,2.6h0.2c0.5-0.9,1.1-1.6,1.9-2.1C439.3,260.4,440.2,260.2,441.1,260.2z"/>
	<path class="st5" d="M456,275.3h-3.2v-19.6h11.1v2.7H456v6.1h7.4v2.7H456V275.3z"/>
	<path class="st5" d="M474.7,260.2c0.6,0,1.2,0,1.6,0.1l-0.3,2.9c-0.4-0.1-0.9-0.2-1.4-0.2c-1.3,0-2.3,0.4-3.1,1.2s-1.2,1.9-1.2,3.2
		v7.8h-3.2v-14.8h2.5l0.4,2.6h0.2c0.5-0.9,1.1-1.6,1.9-2.1C472.9,260.4,473.8,260.2,474.7,260.2z"/>
	<path class="st5" d="M485.5,275.5c-2.3,0-4.1-0.7-5.4-2c-1.3-1.3-2-3.2-2-5.6c0-2.4,0.6-4.3,1.8-5.7c1.2-1.4,2.9-2.1,5-2.1
		c2,0,3.5,0.6,4.6,1.8s1.7,2.8,1.7,4.9v1.7h-9.9c0,1.4,0.4,2.5,1.2,3.3c0.7,0.8,1.8,1.2,3.1,1.2c0.9,0,1.7-0.1,2.5-0.2
		c0.8-0.2,1.6-0.4,2.4-0.8v2.6c-0.8,0.4-1.5,0.6-2.3,0.8C487.4,275.5,486.5,275.5,485.5,275.5z M484.9,262.6c-1,0-1.8,0.3-2.4,1
		c-0.6,0.6-1,1.6-1.1,2.8h6.7c0-1.2-0.3-2.2-0.9-2.8C486.7,262.9,485.9,262.6,484.9,262.6z"/>
	<path class="st5" d="M501.3,275.5c-2.3,0-4.1-0.7-5.4-2c-1.3-1.3-2-3.2-2-5.6c0-2.4,0.6-4.3,1.8-5.7c1.2-1.4,2.9-2.1,5-2.1
		c2,0,3.5,0.6,4.6,1.8s1.7,2.8,1.7,4.9v1.7h-9.9c0,1.4,0.4,2.5,1.2,3.3c0.7,0.8,1.8,1.2,3.1,1.2c0.9,0,1.7-0.1,2.5-0.2
		c0.8-0.2,1.6-0.4,2.4-0.8v2.6c-0.8,0.4-1.5,0.6-2.3,0.8C503.3,275.5,502.4,275.5,501.3,275.5z M500.8,262.6c-1,0-1.8,0.3-2.4,1
		c-0.6,0.6-1,1.6-1.1,2.8h6.7c0-1.2-0.3-2.2-0.9-2.8C502.6,262.9,501.8,262.6,500.8,262.6z"/>
</g>
</svg>
