<?xml version="1.0" encoding="utf-8"?>
<!-- Generator: Adobe Illustrator 22.0.1, SVG Export Plug-In . SVG Version: 6.00 Build 0)  -->
<svg version="1.1"
	 id="svg4359" inkscape:version="0.91 r13725" sodipodi:docname="24 hr fitness.svg" xmlns:cc="http://creativecommons.org/ns#" xmlns:dc="http://purl.org/dc/elements/1.1/" xmlns:inkscape="http://www.inkscape.org/namespaces/inkscape" xmlns:rdf="http://www.w3.org/1999/02/22-rdf-syntax-ns#" xmlns:sodipodi="http://sodipodi.sourceforge.net/DTD/sodipodi-0.dtd" xmlns:svg="http://www.w3.org/2000/svg"
	 xmlns="http://www.w3.org/2000/svg" xmlns:xlink="http://www.w3.org/1999/xlink" x="0px" y="0px" viewBox="0 0 222 61.6"
	 style="enable-background:new 0 0 222 61.6;" xml:space="preserve">
<style type="text/css">
	.st0{clip-path:url(#SVGID_2_);fill:url(#SVGID_3_);}
	.st1{clip-path:url(#SVGID_5_);fill:url(#SVGID_6_);}
	.st2{clip-path:url(#SVGID_8_);fill:url(#SVGID_9_);}
	.st3{clip-path:url(#SVGID_11_);fill:url(#SVGID_12_);}
	.st4{clip-path:url(#SVGID_14_);fill:url(#SVGID_15_);}
	.st5{clip-path:url(#SVGID_17_);fill:url(#SVGID_18_);}
	.st6{fill:#FFFFFF;}
	.st7{fill:#1D1D1B;}
</style>
<sodipodi:namedview  bordercolor="#666666" borderopacity="1.0" id="base" inkscape:current-layer="layer1" inkscape:cx="111" inkscape:cy="25.75" inkscape:document-units="px" inkscape:pageopacity="0.0" inkscape:pageshadow="2" inkscape:window-height="744" inkscape:window-maximized="1" inkscape:window-width="1280" inkscape:window-x="-4" inkscape:window-y="-4" inkscape:zoom="4.119527" pagecolor="#ffffff" showgrid="false" units="px">
	</sodipodi:namedview>
<g>
	<defs>
		<path id="SVGID_1_" d="M34.2,7l-0.1,0.2c1.7,0.7,8.4,4.4,9.3,5.5c-3.3,0.4-9.6,2.1-13.3,3.7V17c3.9-0.8,9.1-1.2,12.7-1.4
			c-1.4,2.1-2.4,3.1-4.5,5.5l-0.2,0.5c4.1-2.5,5.3-2.7,9.1-4.9c1.4,2.1,1.8,7,1.8,10.9c1.2-2.5,2.7-11.7,2.1-13.4
			C53.7,12.4,54,11,54,11c-2.3,0.2-3.6,0.2-4.8,0.6C46.5,10,40.5,7.8,35.6,7H34.2z"/>
	</defs>
	<clipPath id="SVGID_2_">
		<use xlink:href="#SVGID_1_"  style="overflow:visible;"/>
	</clipPath>
	
		<linearGradient id="SVGID_3_" gradientUnits="userSpaceOnUse" x1="-21.6833" y1="326.7598" x2="-19.8733" y2="326.7598" gradientTransform="matrix(0 -25.9157 -25.9157 0 8510.2773 -508.4012)">
		<stop  offset="0" style="stop-color:#00A87C"/>
		<stop  offset="1" style="stop-color:#00965F"/>
	</linearGradient>
	<rect x="30.1" y="7" class="st0" width="23.9" height="20.5"/>
</g>
<g>
	<defs>
		<path id="SVGID_4_" d="M8.9,36.1c-0.3,3.1-0.5,5.3,0,7.8c-1,0.3-1.9,0.4-2.8,0.6v1.1c1.3,0.8,2.4,1.4,3.9,2.1
			c0.9,2,1.9,3.4,3.4,4.9h0.2l0.1-0.3c-0.3-1.2-0.7-2.2-0.5-3.5c2,0.6,3.8,0.9,6.1,1l0.2-0.4c-2-0.8-4-1.4-5.7-2.9
			c0.5-1.4,1.1-2.6,2.1-4l0.2-0.4c-1.7,0.3-3.3,0.9-4.8,1.2c-1.2-2.1-1.6-4.9-2.2-7.6L8.9,36.1z"/>
	</defs>
	<clipPath id="SVGID_5_">
		<use xlink:href="#SVGID_4_"  style="overflow:visible;"/>
	</clipPath>
	
		<linearGradient id="SVGID_6_" gradientUnits="userSpaceOnUse" x1="-21.6856" y1="327.3748" x2="-19.8756" y2="327.3748" gradientTransform="matrix(0 -25.9236 -25.9236 0 8499.5879 -508.6306)">
		<stop  offset="0" style="stop-color:#00A87C"/>
		<stop  offset="1" style="stop-color:#00965F"/>
	</linearGradient>
	<rect x="6.1" y="35.7" class="st1" width="13.5" height="17"/>
</g>
<g>
	<defs>
		<path id="SVGID_7_" d="M24.6,19.1c-1.2,0.3-3.7,1.6-5.4,2.9c0,0-1.3-0.1-3.5-0.1c-1.7,0.1-4.2,0.2-5.6,0.6V23
			c2,0.1,4.6,0.7,5.6,1.7c0,0-2.7,2.4-5.6,7.7v0.7c1.6-1.5,5.5-5,7.4-6c0,0,1.3,4.3,2.2,6.5l0.2-0.4c0.2-1.4,0.9-5.2,1.9-7.5
			c0,0,0.4-0.2,2.2-0.4c1.8-0.2,4.4-0.3,9.3,0.6l0.2-0.4c-1.1-0.7-5.6-2.6-10.3-3.2h0.2c0.6-1.6,1.2-2.9,1.4-3.3H24.6z"/>
	</defs>
	<clipPath id="SVGID_8_">
		<use xlink:href="#SVGID_7_"  style="overflow:visible;"/>
	</clipPath>
	
		<linearGradient id="SVGID_9_" gradientUnits="userSpaceOnUse" x1="-21.6809" y1="327.1121" x2="-19.8709" y2="327.1121" gradientTransform="matrix(0 -25.9078 -25.9078 0 8496.7139 -508.1766)">
		<stop  offset="0" style="stop-color:#00A87C"/>
		<stop  offset="1" style="stop-color:#00965F"/>
	</linearGradient>
	<rect x="10.2" y="19.1" class="st2" width="23.5" height="14.6"/>
</g>
<g>
	<defs>
		<path id="SVGID_10_" d="M31.2,48.5C31.1,47.7,31.1,47,31,46c-1,1.3-1.8,2.4-2.9,3.6c-1.2,0.3-2.5,0.3-3.7,0.3c-0.3,0-0.6,0-0.9,0
			v0.8c0.9,0.4,1.8,0.7,2.8,0.9c-0.8,0.8-1.9,1.4-2.8,1.9v0.5h0.1c1.8-0.5,4-1.2,5.6-2.2c1,0,1.9,0,2.6-0.2c0,0,0.2-0.4,0.2-0.4
			c-0.1-0.4-0.5-0.7-0.6-1.3c1.8-1.4,3-2.6,4.5-4.1l0.2-0.4C34.7,46.3,32.9,47.7,31.2,48.5"/>
	</defs>
	<clipPath id="SVGID_11_">
		<use xlink:href="#SVGID_10_"  style="overflow:visible;"/>
	</clipPath>
	
		<linearGradient id="SVGID_12_" gradientUnits="userSpaceOnUse" x1="-21.6832" y1="327.0915" x2="-19.8732" y2="327.0915" gradientTransform="matrix(0 -25.9153 -25.9153 0 8506.4834 -508.3907)">
		<stop  offset="0" style="stop-color:#00A87C"/>
		<stop  offset="1" style="stop-color:#00965F"/>
	</linearGradient>
	<rect x="23.5" y="45.3" class="st3" width="12.7" height="8.6"/>
</g>
<g>
	<defs>
		<rect id="SVGID_13_" x="0.2" y="0.2" width="60.7" height="61.1"/>
	</defs>
	<clipPath id="SVGID_14_">
		<use xlink:href="#SVGID_13_"  style="overflow:visible;"/>
	</clipPath>
	
		<linearGradient id="SVGID_15_" gradientUnits="userSpaceOnUse" x1="-35.0089" y1="321.1036" x2="-33.1989" y2="321.1036" gradientTransform="matrix(0 35.638 35.638 0 -11412.8936 1246.3746)">
		<stop  offset="0" style="stop-color:#00774A"/>
		<stop  offset="0.6" style="stop-color:#8AC9AD"/>
		<stop  offset="1" style="stop-color:#00965F"/>
	</linearGradient>
	<rect x="0.2" y="0.2" class="st4" width="60.7" height="61.1"/>
</g>
<g>
	<defs>
		<path id="SVGID_16_" d="M3.3,1.3C2.6,1.7,2.2,2.5,2,3.5c0,0-0.3,1.8-0.7,5.6V50C1.7,54.6,2,57.2,2,57.2c0.1,1,0.6,1.8,1.3,2.2
			h55.1c0.7-0.4,1.2-1.1,1.2-2.2c0,0-0.6-13.2-0.6-26s0.6-27.6,0.6-27.6c0-1-0.5-1.8-1.3-2.2H3.3z"/>
	</defs>
	<clipPath id="SVGID_17_">
		<use xlink:href="#SVGID_16_"  style="overflow:visible;"/>
	</clipPath>
	
		<linearGradient id="SVGID_18_" gradientUnits="userSpaceOnUse" x1="-34.5001" y1="321.4377" x2="-32.6901" y2="321.4377" gradientTransform="matrix(0 40.0473 40.0473 0 -12842.2275 1366.6901)">
		<stop  offset="0" style="stop-color:#00965F"/>
		<stop  offset="0.3" style="stop-color:#8AC9AD"/>
		<stop  offset="0.55" style="stop-color:#00965F"/>
		<stop  offset="0.8352" style="stop-color:#00774A"/>
		<stop  offset="0.8909" style="stop-color:#008053"/>
		<stop  offset="0.9815" style="stop-color:#00986A"/>
		<stop  offset="1" style="stop-color:#009E70"/>
	</linearGradient>
	<rect x="1.3" y="1.3" class="st5" width="58.3" height="58.1"/>
</g>
<path class="st6" d="M47.4,16.2c-3.8,2.2-5,2.4-9.1,4.9c2.4-2.6,3.2-3.7,4.7-5.9c-3.8,0.2-9.3,0.7-13.3,1.5
	c3.4-1.8,10.3-3.9,13.9-4.4c-0.8-1.2-7.6-4.8-9.3-5.5c5.3,0.4,11.9,2.4,15.1,4.4c1.2-0.4,2.5-0.4,4.9-0.6c-0.6,1-0.6,1.6-2.9,3.1
	c0.6,1.7-0.9,11-2.1,13.4C49.2,23.2,48.8,18.3,47.4,16.2"/>
<path class="st6" d="M19.6,49.5c-2.2-0.8-3.8-1.8-5.5-3.4c0.5-1.4,1.1-2.5,2.1-4c-1.8,0.3-3.1,0.5-4.6,0.8c-1.2-2.2-1.8-4.3-2.4-7.2
	c-0.3,3.1-0.5,5.3,0,7.8c-1.4,0.4-2.4,0.7-3.6,1.3c1.6,1,2.9,1.8,4.7,2.6c1,2.1,2,3.5,3.6,5.1c-0.4-1.4-0.5-2.5-0.3-3.9
	C15.6,49.1,17.3,49.4,19.6,49.5"/>
<path class="st6" d="M25.3,18.6L25.3,18.6c-0.7,0.9-1.5,2.5-1.7,3.3c5.6,0.8,10.1,3.7,10.1,3.7c-4.9-0.9-7.5-0.8-9.3-0.6
	c-1.8,0.2-2.2,0.4-2.2,0.4c-1.3,2.9-2.1,7.9-2.1,7.9c-0.9-2.2-2.2-6.5-2.2-6.5c-2.5,1.3-8.2,6.7-8.2,6.7c3.1-6.3,6.3-9.1,6.3-9.1
	c-1.1-1.1-4-1.7-6.1-1.8c1.1-0.4,3.9-1,6-1.1c2.2-0.1,3.5,0.1,3.5,0.1C21.3,20,24.3,18.8,25.3,18.6"/>
<path class="st6" d="M31.2,45.6c-1,1.3-1.8,2.4-3,3.6C26.4,49.8,24.9,50,23,50c1.1,0.6,2.2,0.9,3.4,1.2c-1.2,1.1-2.2,1.8-3.3,2.6
	c1.9-0.5,4.5-1.3,6.3-2.4c1,0,1.9,0,2.6-0.2c-0.2-0.6-0.3-1-0.4-1.7c1.8-1.4,3.1-2.6,4.5-4.1c-1.6,1.1-2.9,1.9-4.7,2.8
	C31.3,47.2,31.3,46.5,31.2,45.6"/>
<path class="st7" d="M122.8,9.5c0.2,2.3,0.3,7.9,0.3,10c0,1.9,0,8.3-0.3,11l0,0.2l10,0c4.9,0,10.1-1.5,10.1-5.9c0-2.7-2-4.7-5.7-5.8
	c2.7-0.7,4.5-2.6,4.5-4.8c0-3.5-4.1-4.9-7.9-5c0,0-11,0-11,0L122.8,9.5z M130.5,11.7c4.2,0,5.7,0.9,5.7,3.1c0,0.6-0.2,1.1-0.6,1.6
	c-0.8,1-2.4,1.4-4.4,1.3h-0.1l-1.1,3h1.2c2.3-0.1,4.3,0.7,5.3,1.9c0.5,0.6,0.7,1.2,0.7,1.9c0,2.4-2.1,3.6-6.2,3.6
	c-0.7,0-1.8,0-2.5,0c-0.1-3.1-0.2-7.4-0.2-8.7c0-1.5,0.1-4.8,0.2-7.7C129,11.7,129.8,11.7,130.5,11.7"/>
<path class="st7" d="M107.3,9.3L107.3,9.3l-0.1,0.1c-1.1,3-8.1,18.6-9.2,21l-0.1,0.3h5l0-0.1c0.4-1.5,1-3.1,1.7-4.9
	c0.2,0,4.1-0.1,4.1-0.1l3.4,0c0,0,0.6,0,0.7,0c0.9,2.3,1.6,4.1,1.9,4.9l0,0.1h5.8l-9.4-21.5h-0.1H107.3z M108.7,15.6
	c0.5,1,1.7,3.9,3,7.3c-0.2,0-0.5,0-0.5,0l-2.6,0c0,0-2.7,0-3.1-0.1C106.7,20.1,107.8,17.7,108.7,15.6"/>
<path class="st7" d="M84.6,9.3c9,0,12.5,4.8,12.5,10.7c0,6.1-3.4,10.8-12.8,10.8h-8c0.3-2.9,0.3-6.8,0.3-11.2c0-2.1,0-7.4-0.3-10.2
	H84.6z M82.1,12C82,13.4,82,17,82,19.5c0,3.1,0,5.6,0.1,8.5c0.3,0,0.8,0.1,1.5,0.1c5.2,0,7.9-1.6,7.9-8.2c0-6.3-2.8-8.1-8-7.9
	L82.1,12z"/>
<path class="st7" d="M81.4,40c2.7,0,3.7,0.6,3.7,2.1c0,0.4-0.1,0.7-0.4,1c-0.5,0.6-1.6,0.9-2.9,0.9h-0.1l-0.8,2h0.8
	c1.5,0,2.8,0.4,3.5,1.2c0.3,0.4,0.5,0.8,0.5,1.3c0,1.6-1.4,2.4-4.1,2.4c-0.5,0-1.2,0-1.6,0C80,48.7,80,45.9,80,45.1c0-1,0-3.2,0.1-5
	C80.4,40,80.9,40,81.4,40 M76.4,38.5c0.1,1.5,0.2,5.2,0.2,6.5c0,1.2,0,5.4-0.2,7.2l0,0.1l6.5,0c3.2,0,6.6-1,6.6-3.9
	c0-1.8-1.3-3.1-3.7-3.8c1.8-0.5,3-1.7,3-3.1c0-2.3-2.7-3.2-5.2-3.3c0,0-7.2,0-7.2,0L76.4,38.5z"/>
<path class="st7" d="M104.5,38.4h-3.2l0.1,3.5c0.1,1.8,0.1,3.6,0.2,5.3c-0.2-0.5-0.4-0.8-1.3-2.2c0-0.1-3.3-5.1-4.5-6.6l0,0h-3.7
	l0,0.1c0.1,1.5,0.2,5.2,0.2,6.6c0,1.2,0,5.4-0.2,7.2l0,0.1h3.3l0-0.1c-0.2-3.4-0.2-6.9-0.2-10.3v0c0.1,0.4,0.3,0.8,0.8,1.5
	c0.1,0.1,5.7,8.3,6,8.8l0,0.1h2.6l0-0.1c-0.2-1.8-0.2-6-0.2-7.2c0-1.4,0.1-5.1,0.2-6.6l0-0.1H104.5z"/>
<path class="st7" d="M113.1,40.1c1.8,0,3.1,0.3,3.7,1.1c0.3,0.3,0.4,0.8,0.4,1.3c0,2-2.3,2.5-4.2,2.5l-0.8,0c0,0-0.2,0-0.3,0
	c0-0.5,0-1.1,0-1.8c0-0.9,0-1.9,0-2.9C112.3,40.1,112.7,40.1,113.1,40.1 M108.3,38.5c0.1,1.5,0.2,5.2,0.2,6.6c0,1.2,0,5.4-0.2,7.2
	l0,0.1h3.9l0-0.1c-0.1-1.3-0.2-3.8-0.2-5.7c0.2,0,0.7,0,0.7,0l0.6,0c5.2,0,7.7-1.4,7.7-4.2c0-3.3-3.5-4-6.5-4.1l-6.1,0L108.3,38.5z"
	/>
<path class="st7" d="M133.2,40.1c1.8,0,3.1,0.3,3.7,1.1c0.3,0.3,0.4,0.8,0.4,1.3c0,2-2.3,2.5-4.2,2.5l-0.8,0c0,0-0.2,0-0.3,0
	c0-0.5,0-1.1,0-1.8c0-0.9,0-1.9,0.1-2.9C132.3,40.1,132.8,40.1,133.2,40.1 M128.4,38.5c0.1,1.5,0.2,5.2,0.2,6.6c0,1.2,0,5.4-0.2,7.2
	l0,0.1h3.9l0-0.1c-0.1-1.3-0.2-3.8-0.2-5.7c0.2,0,0.7,0,0.7,0l0.6,0c5.1,0,7.7-1.4,7.7-4.2c0-3.3-3.5-4-6.5-4.1l-6.1,0L128.4,38.5z"
	/>
<path class="st7" d="M147.2,42.5c0.3,0.7,1.1,2.5,2,4.8c-0.1,0-0.3,0-0.3,0l-1.7,0c0,0-1.8,0-2.1,0
	C145.8,45.5,146.6,43.9,147.2,42.5 M146.2,38.4L146.2,38.4L146.2,38.4c-0.8,2.1-5.5,12.3-6.2,13.9l-0.1,0.2h3.4l0-0.1
	c0.3-1,0.7-2,1.1-3.2c0.1,0,2.8,0,2.8,0l2.3,0c0,0,0.4,0,0.5,0c0.6,1.5,1.1,2.7,1.3,3.2l0,0.1h3.9l-6.3-14.1h-0.1H146.2z"/>
<path class="st7" d="M156.7,38.5c0.1,1.5,0.2,5.2,0.2,6.6c0,1.2,0,5.4-0.2,7.2l0,0.1h3.9l0-0.1c-0.2-1.8-0.2-6-0.2-7.2
	c0-1,0-3.2,0.1-4.9c0.3,0,0.8-0.1,1.1-0.1c1.8,0,3.1,0.3,3.7,1.1c0.3,0.3,0.4,0.8,0.4,1.3c0,1.6-1.5,2.4-2.9,2.5c-0.5,0-0.8,0-0.8,0
	l-0.3,0l0.2,0.3c1.4,2,3.5,5.6,4.3,7.2l0,0.1h4.2l-0.1-0.2c-0.1-0.2-2.9-4.3-4.1-6c0,0,0-0.1-0.1-0.1c2.1-0.6,3.2-1.9,3.2-3.7
	c0-3.3-3.5-4-6.5-4.1l-6.1,0L156.7,38.5z"/>
<path class="st7" d="M175.9,38.4h-3.8l0,0.1c0.1,1.5,0.2,5.2,0.2,6.6c0,1.2,0,5.4-0.2,7.2l0,0.1h3.9l0-0.1c-0.2-1.8-0.2-6-0.2-7.2
	c0-1.4,0.1-5.1,0.2-6.6l0-0.1H175.9z"/>
<path class="st7" d="M184.6,40L184.6,40c2.7,0,3.7,0.6,3.7,2.1c0,0.4-0.1,0.7-0.4,1c-0.5,0.6-1.6,0.9-2.8,0.9h-0.1l-0.7,2h0.8
	c1.5,0,2.8,0.4,3.5,1.2c0.3,0.4,0.5,0.8,0.5,1.3c0,1.6-1.4,2.4-4,2.4c-0.5,0-1.2,0-1.7,0c-0.1-2.1-0.1-4.9-0.1-5.7c0-1,0-3.2,0.1-5
	C183.6,40,184.1,40,184.6,40 M179.6,38.5c0.1,1.5,0.2,5.2,0.2,6.5c0,1.2,0,5.4-0.2,7.2l0,0.1l6.5,0c3.2,0,6.6-1,6.6-3.9
	c0-1.8-1.3-3.1-3.7-3.8c1.8-0.5,3-1.7,3-3.1c0-2.3-2.7-3.2-5.2-3.3l-7.2,0L179.6,38.5z"/>
<path class="st7" d="M200.6,42.5c0.3,0.7,1.1,2.5,2,4.8c-0.1,0-0.3,0-0.3,0l-1.7,0c0,0-1.8,0-2.1,0C199.3,45.5,200,43.9,200.6,42.5
	 M202.3,38.4h-2.6l0,0.1c-0.8,2.1-5.7,12.9-6.1,13.8l-0.1,0.2h3.4l0-0.1c0.3-1,0.7-2,1.1-3.2c0.1,0,2.8,0,2.8,0l2.3,0
	c0,0,0.4,0,0.5,0c0.6,1.5,1,2.7,1.2,3.2l0,0.1h3.9L202.3,38.4L202.3,38.4z"/>
<path class="st7" d="M209.7,42c0,2.5,2.5,3.5,4.7,4.4c1.7,0.7,3.5,1.4,3.5,2.6c0,0.4-0.1,0.6-0.3,0.9c-0.4,0.5-1.2,0.7-2.6,0.6
	c-1.3-0.1-2.8-0.5-4.4-1.2l-0.7-0.3l0,0.5V52l0.4,0.1l0.3,0.1c0.8,0.2,2.4,0.6,4,0.6c4.1,0,6.6-1.6,6.6-4.4c0-2.5-2.5-3.5-4.8-4.4
	c-1.7-0.7-3.4-1.3-3.4-2.4c0-0.3,0-1.3,2.1-1.3c1.6,0,3.1,0.6,4,1l0.8,0.3l0-0.5v-2.6l-0.8-0.1c-0.8-0.2-2.1-0.4-3.5-0.4
	C212.1,37.9,209.7,39.6,209.7,42"/>
</svg>
