<?xml version="1.0" encoding="utf-8"?>
<!-- Generator: Adobe Illustrator 22.0.1, SVG Export Plug-In . SVG Version: 6.00 Build 0)  -->
<svg version="1.1" id="Ebene_1" xmlns="http://www.w3.org/2000/svg" xmlns:xlink="http://www.w3.org/1999/xlink" x="0px" y="0px"
	 viewBox="0 0 154.7 108.4" style="enable-background:new 0 0 154.7 108.4;" xml:space="preserve">
<style type="text/css">
	.st0{fill:#FF0000;}
	.st1{fill:#FFFFFF;}
</style>
<g>
	<g>
		<path class="st0" d="M139.3,0H15.6C7.1,0,0,6.7,0,15.4v77.3c0,8.7,7.1,15.6,15.6,15.6h123.7c8.4,0,15.4-6.9,15.4-15.6V15.4
			C154.7,6.7,147.6,0,139.3,0"/>
		<path class="st1" d="M143.3,92.7c0,2.5-1.6,4.4-4.1,4.4H15.6c-2.5,0-4.2-2-4.2-4.4V15.4c0-2.5,1.8-4.4,4.2-4.4h123.7
			c2.5,0,4.1,2,4.1,4.4V92.7z"/>
		<path class="st0" d="M99.8,59.9h6.2c6.7,0,11.3,1.7,11.3,8.9c0,7.4-5.3,9.4-11.4,9.4h-6.1V59.9z M38.3,29.9h3.5
			c15.4,0,16.8,11.1,16.8,25.4c0,15.6-5.2,22.9-14.2,22.9h-6.1V29.9z M99.8,29.7h4.7c5.6,0,10.8,1.8,10.8,8.5c0,6.1-4.1,8.6-9.6,8.6
			h-5.9V29.7z M83,18.7v70.9h27.5c12.8,0,24.9-6.1,24.9-20.5c0-8.8-5.9-14.1-14.6-16.6c6.2-3.1,12-8,12-14.9
			c0-13.3-7.3-18.9-20.9-18.9H83z M21.2,18.7v70.9h26c21.6-0.2,28.2-15.3,28.2-35.8c0-23.6-9.8-35.1-28.2-35.1H21.2z"/>
	</g>
</g>
</svg>
