<?xml version="1.0" encoding="utf-8"?>
<!-- Generator: Adobe Illustrator 22.1.0, SVG Export Plug-In . SVG Version: 6.00 Build 0)  -->
<svg version="1.1" id="Ebene_1" xmlns="http://www.w3.org/2000/svg" xmlns:xlink="http://www.w3.org/1999/xlink" x="0px" y="0px"
	 viewBox="0 0 153.8 124.6" style="enable-background:new 0 0 153.8 124.6;" xml:space="preserve">
<style type="text/css">
	.st0{fill:#C21B17;}
</style>
<g>
	<g>
		<g>
			<g>
				<path class="st0" d="M29.9,109.8l0-10.4c6.5,0,8.9-0.3,10.1,7.7h0.7v-8.9l-17.8,0v1.2h3.1v22.9h-3.4v1.2h18.3v-9.4H40
					c-0.9,7.1-2.7,8.2-7.7,8.2h-2.3v-11.1c0.1,0,0.9,0,1.4,0c2.3,0.1,3.5,1.4,4,5.3h0.8l0-11.5c0,0-0.8,0-0.8,0c0,0.1-0.2,5-4.1,4.9
					H29.9z"/>
				<path class="st0" d="M22.6,110.2h-10v1.1H16v8.2c-0.6,2.1-3.7,3-4.6,3c-6.4,0-5.9-9.4-5.9-11.9c0-2.3-0.2-11.9,5.9-11.9
					c4.4,0,6.6,4.3,7.6,8.2h0.7c0-1.6,0-9.2,0-9.2c0-0.1-3,2.2-3,2.1c0.1,0-1.4-2.1-5.3-2.1c-7.6,0-10.3,7.5-10.3,12.8
					c0,4.8,2.3,13,10.3,13c2.5,0,4.3-1.3,5.3-2.8c0,0,3.2,2.5,3.2,2.5v-12.1h2.7V110.2z"/>
				<path class="st0" d="M139.8,114.1c-0.9,7.1-2.7,8.1-7.7,8.1h-0.3V99.4h3.2v-1.2h-10.5v1.2h3.2l0,0v22.9h-2.5l-9.4-24.8h-1.4
					c0,0-7.8,22.5-7.8,22.6c0-0.1-0.6,1.9-1.9,2.2c-1.2,0.1-1.1-0.6-1.1-0.8v-4.3c0-1.1-0.1-3.7-1.3-4.9c-1.3-1.3-3.6-1.4-3.5-1.5
					c0,0,5.8-1.2,5.8-6.7c0-3.8-2.7-5.7-7.1-5.9H84.8v1.2H88v22.9c0,0-3.2,0-3.2,0v1.2h10.4v-1.2c-0.1,0-3.2,0-3.2,0v-11
					c0,0,4.1,0,4.3,0c7.5,0.6-1.3,12.2,8.5,12.2h6.2v-1.2c-0.3,0-2.6,0.1-2.8-1.5c-0.1-1.1,1.5-5.2,1.5-5.2h8.4c0,0,2.6,6.8,2.6,6.8
					h-2.9v1.2h22.9v-9.4H139.8z M96,110h-4.1V99.4h5.3c3.1,0.5,3.2,4,3.2,5.2C100.4,107.3,99.2,110,96,110z M110.2,114.3l3.7-11
					l3.9,11H110.2z"/>
				<path class="st0" d="M72.3,99.4c6.5,0,8.9-0.3,10.1,7.7h0.7v-8.9H57.1v1.2h0.7c0.9,0,3.1,0.1,3.2,2h0V116L48.9,98.1h-6.6v1.2
					h1.1c1.3,0,3.1,0.1,3.2,2v18.7c0,1.8-2.7,2.5-3.9,2.5h0v0.9h8.9v-0.9c-1.1,0-3.9-0.7-3.9-2.5l0-16.5
					c4.8,6.9,13.9,19.9,13.9,19.9h0.5v-22.2c0.1-1.9,2.3-2,3.2-2h3v22.9H65v1.2h18.3v-9.4h-0.9c-0.9,7.1-2.7,8.2-7.7,8.2h-2.3v-11.1
					c0.1,0,0.9,0,1.4,0c2.3,0.1,3.5,1.4,4,5.3h0.8l0-11.5c0,0-0.8,0-0.8,0c0,0.1-0.2,5-4.1,4.9h-1.3V99.4z"/>
				<polygon class="st0" points="152.3,99.4 152.3,98.1 141.9,98.1 141.9,99.4 145.2,99.4 145.2,122.3 141.9,122.3 141.9,123.5 
					152.3,123.5 152.3,122.3 149,122.3 149,99.4 				"/>
			</g>
		</g>
	</g>
	<g>
		<g>
			<g>
				<g>
					<g>
						<path class="st0" d="M124.9,82.5l3.2-1.2l0,0c4.5-1.9,5.2-3.1,5-6.1V63c3.5,8.8,6.7,15,13.4,15c0.9,0,1.9-0.1,2.9-0.4l2.6-0.6
							l-1.8-2c-1.1-1.3-1.7-2.2-2.3-3.4c-0.3-0.5-0.5-0.9-0.9-1.5c-1.6-2.5-5.3-3.4-8.3-2.1c-1.4-2.7-2.8-6.3-4.4-10.7l-0.4-0.8
							c-0.3-0.7-0.6-1.3-0.9-2v-0.1h-0.1c-1-2.3-2.1-4.6-3.4-6.8c-1.2-2-2.4-3.7-3.7-5.2c-3.5-4.1-8.1-6.7-13.8-7.6
							c-3.9-0.6-6.7-0.8-10.1-0.9c-0.7,0-1.5-0.1-2.3-0.1c-1.6-0.1-4.8-0.4-8-0.6c-2.1-0.2-4.3-0.4-6-0.5c0.1-0.5,0.2-1,0.2-1.5
							c0-0.7-0.1-1.3-0.2-1.9h22.4c5.8,0,10-2.6,12.4-7.6c5.7-0.1,9.9-2.7,12.3-7.7h0.8c6,0,10.3-2.7,12.7-8.1l1-2.2H71.6
							c-5,0-9.2,3.3-10.8,8.3l0,0.2C59.4,8.6,57,5.5,54,3.7c-4.2-2.5-9-3.3-12.8-2.3c-1.3,0.4-2.5,0.9-3.5,1.6
							c-0.9,0.6-2.1,1.5-3,2.6c-1,1.2-1.9,2.7-2.6,4.2c-0.4,0.4-0.8,0.7-1,1.1l-0.9,1.7l0,0.1c-1.1,2.5-2.4,4.2-3.4,5.4
							c-1,1.2-1.1,2.3-0.9,3.1c0.2,0.8,0.6,1.5,1,2l0,0c-0.3,0.5-0.5,1.1-0.5,1.7c0,2,1.7,3.5,3.9,3.5c1.6,0,2.8-0.7,4.2-1.6
							c0.5-0.4,2-1.3,2.5-1.4c0.6,0,1.1,0.5,1.1,1.1c0,1.6-2.1,2.5-3.6,2.6l-3.1,0.3C29,29.8,28,30.9,28,32c0,1.1,0.5,1.7,0.9,2
							l0.2,0.2l0.8,0.7l-3.3,5.3c-2.3-2.2-5.1-3.5-7.5-3.5c-1.6,0-2.9,0.4-3.9,1.4c-0.3,0.3-0.5,0.6-0.8,0.9c0,0,0,0-0.1,0
							c-2.6,0-4.7,1.4-5.7,2.9c-1.1,1.7-0.7,4.6,0.7,6.9l-8.3,2.1v39.4h151.3v-7.9H124.9z M144.5,71.8c0.3,0.5,0.6,0.9,0.8,1.4
							c0.3,0.5,0.6,1.1,1,1.6c-2.4-0.1-4.2-1.5-5.8-4C141.9,70.3,143.8,70.6,144.5,71.8z M111.7,38c4.9,0.8,8.9,3,11.9,6.5
							c0.6,0.8,1.3,1.6,1.9,2.4c-8.2-1.1-11.1-2.3-15.7-9.2C110.4,37.8,111,37.9,111.7,38z M108.2,26.2H92.8
							c1.3-1.2,2.4-2.6,3.3-4.4H117C115,24.8,112.2,26.2,108.2,26.2z M120.4,18.6H105c1.4-1.2,2.5-2.7,3.4-4.6h21
							C127.4,17.2,124.5,18.6,120.4,18.6z M121.5,6.8h20.9c-2,2.8-4.7,4.1-8.6,4.1h-15.4C119.6,9.8,120.6,8.5,121.5,6.8z M37.1,7.6
							c0.5-0.6,1.3-1.3,2.3-2c0.7-0.5,1.7-0.9,2.7-1.2c1.5-0.4,3.3-0.5,5-0.1l-5.5,3.4c-0.7-0.1-1.4-0.1-2-0.1
							c-0.9,0-1.8,0.1-2.6,0.2C37,7.8,37.1,7.7,37.1,7.6z M30.7,32.1c0-0.2,0.2-0.4,0.4-0.4l2.7,0.1c3.3-0.1,6.6-1.5,7-4.9
							c0-2.3-1.6-4.6-4-4.6c-1.2,0-2.6,0.9-4.2,1.9c-1,0.7-1.8,1.2-2.4,1.2c-0.4,0-0.7-0.3-0.7-0.5c0,0,0-0.1,0-0.1l1.7-2.3l-1.5-1
							c-0.3-0.2-0.8-0.6-0.9-0.9c0-0.1,0.2-0.4,0.2-0.5c0.6-0.7,1.3-1.6,2-2.7c0.4-0.6,0.7-1,1.4-1c0.7,0,1.3,0.6,1.3,1.3
							c0,0.5,0.5,0.8,1.2,0.8c0.6,0,0.9-0.5,1.3-0.8c0,0,1.5-1.4,0.7-2.1c-0.9-0.8-4.6,0.8-3.6-2.6l0.3-0.5c0.4-0.5,2.2-1.8,5.9-1.8
							c0.7,0,1.4,0.1,2.2,0.1l0.6,0.1l7.8-4.8c0.1,0.2,0.1,0.3,0.1,0.3v0l0,0c0.4,2.4-1.1,5.2-3.5,6.5l-1,0.5l0.6,3.5
							c-2,0.6-3.4,2.2-3.4,4.2c0,0.7,0.2,1.5,0.3,2.5c0.2,1.1,0.5,2.4,0.5,3.6c0,3.7-5.1,6.1-9.3,5.9l-0.1,0c-0.2,0-2.9-0.2-3.6-0.7
							C30.7,32.5,30.6,32.2,30.7,32.1z M11.3,43.6c0.6-0.9,2-1.8,3.8-1.4l1.3,0.2l0.4-1.3c0.1-0.3,0.3-0.6,0.5-0.8
							c0.4-0.4,0.9-0.5,1.7-0.5c1.9,0.1,4.3,1.4,6.2,3.4c0.7,0.7,1.3,1.6,1.9,2.5c0.1,0.2,0.2,0.4,0.3,0.6c0.2,0.2,0.3,0.4,0.3,0.5
							c0.1,0.1,1,1.5,1,1.6c0.6-0.9,1.3-1.8,1.9-2.7c0,0,0-0.1-0.1-0.2c-0.1-0.3-0.5-0.9-0.7-1.2c0-0.1-0.1-0.2-0.1-0.2c0,0,0,0,0,0
							c0,0-0.1-0.2-0.2-0.3c-0.2-0.3-0.5-0.8-0.7-1.1l4.1-6.5c1,0.2,1.9,0.2,2.3,0.2l0.1,0c5.8,0,11.7-3.3,11.7-8.9v-0.1
							c-0.1-1.5-0.4-3-0.6-4.1c-0.2-0.8-0.3-1.5-0.3-1.9c0-0.6,0.9-1.3,2.1-1.3h1.9l-0.8-4.8c2.6-1.9,4.2-5.1,4.2-8.1
							c2.8,2.2,4.8,5.9,5.2,9.9c0.1,1.2-0.1,2.8-0.5,4.5l-0.2,0.7l0,0c-0.7,2.8-1.7,5.7-2.2,7l-0.5,1.3l1.2,0.7
							c2.1,1.2,3.4,2.1,3.4,4.8c0,3.2-2.9,5.6-5.6,6.1l-3.8,0.7l3.2,2.1c1,0.7,1.6,1.8,1.6,3c0,2-1.7,3.6-3.8,3.6h-1.2l-0.3,1.1
							c-1.2,3.8-2.4,5.7-6.5,6.1c0.2-1.2,0.3-2.3,0.3-3.9c0-0.4,0-1.4,0-1.7l-0.2-3.6L41,52.1c-0.9,0.9-2.4,1.5-4,1.9v-3.1
							l-17.9-4.6l-6.4,1.7C11.3,46.5,11,44.1,11.3,43.6z M6.2,82.5l12.9-3.3l12.9,3.3H6.2z M33.8,79.7l-14.8-3.8L4.3,79.7V53.3
							l14.8-3.8l14.8,3.8V79.7z M40.7,74.6c-1.3,1.9-1.5,4.6-0.5,7.9H37V57.2c1.2-0.2,2.4-0.5,3.6-1c-0.1,1.1-0.2,2-0.4,3.1
							c0,0.3-0.1,0.6-0.1,0.9L39.7,62h1.9c2.8,0,4.8-0.4,6.4-1.3v10.6c0,0.3-0.2,0.5-0.5,0.5H47C44.3,71.8,42,72.8,40.7,74.6z
							 M74.7,75.3c-1.1,1.3-2.2,3.6-1.5,7.2H54c2.1-0.2,3.6-0.7,4.6-1.8c1.3-1.3,1.4-3.1,1.3-4.4c0-0.1,0.3-0.5,1.2-1l1.7-0.8
							l-1-1.5c-1.6-2.5-0.9-8-0.3-11c0.1,0,0.1,0,0.1,0c6.5,0,10.7-1.4,15.1-2.8c1.2-0.4,2.4-0.8,3.6-1.1l0,0c0,0,1.3-0.4,3.1-0.8
							l6.3,10.3l0.1,0.1c0.6,0.9,0.7,1.5-0.4,2.8l-3.1,3.4l-5.1-1l0,0C78.8,72.6,76.3,73.5,74.7,75.3z M76.4,82.5
							c-0.6-2.2-0.3-4,0.7-5.1c1-1.1,2.5-1.4,3.5-1.3l6,1.1l0.2,0h0.8l4.2-4.5l0,0c0.7-0.8,2.9-3.4,0.7-6.6l-5.6-9.3
							c0.9-0.1,1.9-0.2,2.7-0.2h0c0,0,2.8,0,5.9,1.7c0.4,0.9,1,2,1.6,3.3c1.2,2.4,2.7,5.4,3.1,6.6c0.1,0.4,0.5,1.5-0.9,3L88.5,82.5
							H76.4z M113.2,82.5H92.8l8.7-9.2c1.8-1.8,2.3-4,1.6-6.2c-0.4-1.2-1.6-3.6-2.8-6.1c3.5,1.6,8.7,3.1,19.4,3.9
							c1.3,0.1,1.6,0.5,1.9,1.7l0.5,4.6l-5.6,1.2c-1.9,0.4-3.3,1.6-4,3.4C111.7,77.9,112,80.2,113.2,82.5z M115.4,77.1
							c0.3-0.8,0.9-1.3,1.7-1.5l8.4-1.9l-0.8-7.5l0-0.2c-0.2-1-0.8-4-4.7-4.3c-15-1.2-18.4-3.4-22.1-5.8c0,0,0,0,0,0l0,0l-0.2-0.2
							c-3.9-2.5-7.7-2.5-8.1-2.5c-4.2,0-9.6,1.7-10,1.8c-1.3,0.4-2.5,0.8-3.7,1.1c-4.7,1.5-8.7,2.8-15.5,2.6l-1.2,0l-0.3,1.2
							c-0.2,0.9-2.1,8.4-0.3,13.3c-1.6,1.3-1.6,2.8-1.6,3c0.1,1.7-0.3,2.1-0.5,2.2c-0.8,0.8-3.4,0.9-5.6,0.9c0,0,0,0,0,0h-0.8
							l-0.5,0.6c-1.4,1.9-4.3,2.3-6.1,1.8c-0.8-2.5-0.8-4.4-0.1-5.6c0.9-1.3,2.9-1.5,3.7-1.5h0.5c2,0,3.6-1.6,3.6-3.6V57.8
							c0.6-0.9,1.1-2,1.5-3.2c3.3-0.5,5.8-3.3,5.8-6.7c0-1.3-0.4-2.5-1.1-3.6c3-1.5,5.6-4.4,5.6-8.4s-2-5.7-3.8-6.9
							c0.5-1.5,1.4-4.1,2-6.8l2.6-9.4c1.2-3.7,4.2-6.1,7.8-6.1h46.3c-2,2.8-4.7,4.1-8.6,4.1h-28L79.8,14h25.1c-2,3.1-4.9,4.6-9,4.6
							H77.7l-1.5,3.1h16.2c-2,3-4.8,4.4-8.8,4.4h-9.9l-1.5,3.1h10.4c0.1,0.1,0.4,0.6,0.4,1.9c0,2-1.7,3.6-3.8,3.6
							c-0.7,0-1.3-0.2-2.4-0.6c-0.5-0.2-0.9-0.4-1.4-0.6l-2.4,2.2c0.5,0.2,0.9,0.4,1.4,0.6v0c2.1,0.9,3.3,1.4,4.8,1.4
							c1.9,0,3.6-0.8,4.9-2.1c1.8,0.1,4.7,0.4,7.4,0.6c3.3,0.3,6.5,0.5,8.1,0.6c0.8,0,1.6,0.1,2.3,0.1c1.4,0.1,2.6,0.1,3.9,0.2
							c6.3,10.3,9.5,11.6,21.8,13.1c0.9,1.6,1.7,3.2,2.4,4.9v20l0,0.1c0.1,0.9,0.1,1.2-0.1,1.4c-0.4,0.6-2.3,1.3-3,1.6l-10.3,3.9
							C115.3,80.4,114.9,78.5,115.4,77.1z"/>
					</g>
				</g>
				<g>
					<path class="st0" d="M7.9,59.2l0-0.2l0,0c-0.2,0-0.3,0.1-0.3,0c0,0-0.1,0-0.1-0.1c0,0,0-0.1,0-0.3l0-1c0.4-0.1,0.7-0.2,0.8-0.3
						c0.3-0.1,0.4-0.3,0.6-0.5c0.1-0.2,0.2-0.4,0.2-0.7c0-0.3-0.1-0.5-0.3-0.6c-0.2-0.1-0.6-0.1-1.1,0l-1.5,0.4l0,0l0,0.2l0,0
						c0.2,0,0.3-0.1,0.3,0c0,0,0.1,0,0.1,0.1c0,0,0,0.1,0,0.3l0,2.3c0,0.2,0,0.3,0,0.4c0,0-0.1,0.1-0.1,0.1c-0.1,0-0.2,0.1-0.3,0.1
						l0,0l0,0.2L7.9,59.2L7.9,59.2z M7.5,57.5l0-1.5l0.1,0c0.2-0.1,0.4,0,0.5,0c0.1,0.1,0.2,0.3,0.1,0.5c0,0.3-0.1,0.5-0.2,0.6
						C7.9,57.3,7.8,57.4,7.5,57.5C7.5,57.5,7.5,57.5,7.5,57.5z"/>
					<path class="st0" d="M8.8,58.9L8.8,58.9l0,0.2l1.2-0.3l0-0.2l0,0c-0.2,0-0.3,0-0.3,0c-0.1,0-0.1-0.1-0.1-0.2
						c0-0.1,0-0.2,0.1-0.3l0.1-0.4l1.2-0.3l0.2,0.4c0.1,0.1,0.1,0.2,0.1,0.2c0,0,0,0.1,0,0.1c0,0,0,0.1,0,0.1
						c-0.1,0.1-0.1,0.1-0.3,0.1l-0.1,0l0,0.2l1.7-0.4l0,0l0-0.2l0,0c-0.1,0-0.2,0-0.2,0c0,0-0.1-0.1-0.3-0.4l-1.2-2.6l0,0l-0.1,0
						L9.4,58c-0.1,0.3-0.2,0.5-0.3,0.6C9,58.7,8.9,58.8,8.8,58.9z M9.9,57.5l0.5-1.2l0.4,1L9.9,57.5z"/>
					<path class="st0" d="M14.1,57.5L14.1,57.5c-0.1,0-0.2,0-0.3,0h0h0c-0.1,0-0.1,0-0.2,0c0,0,0-0.1,0-0.1c0,0,0-0.2,0.2-0.5
						l0.5-0.8l0.5,0.6C15,56.9,15,57,15.1,57c0,0,0,0,0,0.1c0,0,0,0.1-0.1,0.1c0,0-0.1,0.1-0.2,0.1l0,0l0,0.2l1.7-0.4l0,0l0-0.2l0,0
						c-0.1,0-0.2,0-0.2,0c0,0-0.1-0.1-0.3-0.3L15,55.3l0.7-1c0.2-0.3,0.3-0.4,0.3-0.5c0.1-0.1,0.1-0.1,0.2-0.2
						c0.1,0,0.1-0.1,0.2-0.1l0,0l0-0.2l-1.3,0.3l0,0.2l0,0c0.1,0,0.2,0,0.2,0c0,0,0.1,0,0.1,0.1c0,0,0,0.1,0,0.1
						c0,0.1-0.1,0.2-0.3,0.5l-0.3,0.5l-0.4-0.5l-0.2-0.2c0,0,0,0,0-0.1c0,0,0-0.1,0.1-0.1c0,0,0.1-0.1,0.2-0.1l0.1,0l0-0.2l-1.8,0.5
						l0,0l0,0.2l0,0c0.1,0,0.1,0,0.2,0c0,0,0.1,0,0.1,0.1c0,0,0.1,0.1,0.2,0.3l0.8,1.1l-0.7,1c-0.2,0.3-0.4,0.5-0.5,0.6
						c-0.1,0.1-0.2,0.2-0.3,0.2l0,0l0,0.2l1.4-0.4L14.1,57.5z"/>
					<path class="st0" d="M8.4,61.1c0.2,0,0.3-0.1,0.3,0c0.1,0,0.2,0.1,0.3,0.1c0.1,0.1,0.1,0.2,0.2,0.4l0,0l0.1,0l0-1l-3.1,0.8l0,0
						l0,1l0.2,0l0,0c0-0.3,0.1-0.5,0.3-0.7c0.1-0.1,0.3-0.2,0.5-0.3l0.2-0.1l0,2.7c0,0.2,0,0.3,0,0.3c0,0.1-0.1,0.1-0.1,0.1
						c-0.1,0-0.1,0.1-0.2,0.1l-0.1,0l0,0.2l1.9-0.5l0,0l0-0.2l-0.2,0c-0.1,0-0.2,0-0.2,0c0,0-0.1,0-0.1-0.1c0,0,0-0.1,0-0.3l0-2.7
						L8.4,61.1z"/>
					<path class="st0" d="M11,60.5c0-0.1,0.1-0.1,0.1-0.1c0.1,0,0.1-0.1,0.2-0.1l0.1,0l0-0.2l-1.8,0.5l0,0l0,0.2l0.2,0
						c0.1,0,0.2,0,0.2,0c0,0,0.1,0,0.1,0.1c0,0,0,0.1,0,0.3l0,2.3c0,0.2,0,0.3,0,0.3c0,0.1-0.1,0.1-0.1,0.1c-0.1,0-0.1,0.1-0.2,0.1
						l-0.1,0l0,0.2l1.9-0.5l0,0l0-0.2l-0.2,0c-0.1,0-0.2,0-0.2,0c0,0-0.1,0-0.1-0.1c0,0,0-0.1,0-0.3l0-2.3C11,60.6,11,60.5,11,60.5z
						"/>
					<path class="st0" d="M12.2,63.2c0,0.1-0.1,0.1-0.1,0.1c-0.1,0-0.2,0.1-0.3,0.1l0,0l0,0.2l1.8-0.5c0.5-0.1,0.9-0.3,1.1-0.6
						c0.2-0.2,0.3-0.5,0.3-0.8c0-0.3-0.1-0.5-0.3-0.6c-0.1-0.1-0.3-0.1-0.6-0.1c0.2-0.1,0.4-0.3,0.5-0.4c0.1-0.2,0.2-0.3,0.2-0.5
						c0-0.2,0-0.3-0.1-0.4c-0.1-0.1-0.2-0.2-0.4-0.2c-0.2,0-0.5,0-0.9,0.1L11.8,60l0,0l0,0.2l0,0c0.2,0,0.3-0.1,0.3,0
						c0,0,0.1,0,0.1,0.1c0,0,0,0.1,0,0.3l0,2.3C12.2,63,12.2,63.1,12.2,63.2z M13.1,61.5c0.2-0.1,0.4-0.1,0.5-0.1
						c0.1,0,0.2,0.1,0.3,0.2C14,61.7,14,61.8,14,62c0,0.1,0,0.3-0.1,0.4c-0.1,0.1-0.1,0.2-0.3,0.3c-0.1,0.1-0.2,0.2-0.4,0.2
						c-0.1,0-0.1,0-0.2,0c0,0-0.1-0.1-0.1-0.2L13.1,61.5z M13.8,60.7c-0.1,0.1-0.1,0.2-0.3,0.3c-0.1,0.1-0.3,0.1-0.5,0.2l0-1.3
						c0.2-0.1,0.4-0.1,0.5-0.1c0.1,0,0.2,0.1,0.2,0.1c0.1,0.1,0.1,0.2,0.1,0.3C13.9,60.5,13.9,60.6,13.8,60.7z"/>
					<path class="st0" d="M16.6,59.1c0-0.1,0.1-0.1,0.1-0.1c0.1,0,0.1-0.1,0.2-0.1l0.1,0l0-0.2l-1.9,0.5l0,0l0,0.2l0.2,0
						c0.1,0,0.2,0,0.2,0c0.1,0,0.1,0,0.1,0.1c0,0,0,0.1,0,0.3l0,2.3c0,0.2,0,0.3,0,0.3c0,0.1-0.1,0.1-0.1,0.1
						c-0.1,0-0.1,0.1-0.2,0.1l-0.1,0l0,0.2l1.9-0.5l0,0l0-0.2l-0.2,0c-0.1,0-0.2,0-0.2,0c0,0-0.1,0-0.1-0.1c0,0,0-0.1,0-0.3l0-2.3
						C16.6,59.2,16.6,59.1,16.6,59.1z"/>
					<path class="st0" d="M17.9,67.1c-0.1,0-0.2,0-0.2,0c0,0-0.1-0.1-0.2-0.2l-0.8-1c0.2-0.1,0.4-0.2,0.5-0.4
						c0.2-0.2,0.3-0.5,0.3-0.7c0-0.2-0.1-0.4-0.2-0.5c-0.1-0.1-0.3-0.2-0.5-0.2c-0.2,0-0.5,0-0.9,0.1l-1.6,0.4l0,0l0,0.2l0,0
						c0.2,0,0.3-0.1,0.3,0c0,0,0.1,0,0.1,0.1c0,0,0,0.1,0,0.3l0,2.3c0,0.2,0,0.3,0,0.4c0,0.1-0.1,0.1-0.1,0.1c0,0-0.1,0.1-0.3,0.1
						c-0.1,0-0.2,0-0.2,0c-0.1,0-0.2-0.2-0.3-0.4L12.6,65l0,0l-0.1,0l-1.3,3.2c-0.1,0.3-0.2,0.5-0.3,0.6c-0.1,0.1-0.2,0.2-0.3,0.2
						l0,0c-0.1,0-0.2,0-0.2,0c0,0-0.1,0-0.1-0.1c0,0,0-0.1,0-0.3l0-2.3c0-0.2,0-0.3,0-0.3c0-0.1,0.1-0.1,0.1-0.1
						c0.1,0,0.1-0.1,0.2-0.1l0.1,0l0-0.2l-1.5,0.4l0,0l-1,2.5l-0.9-2L6,66.8l0,0L6,67l0.2,0c0.1,0,0.2,0,0.2,0c0,0,0.1,0,0.1,0.1
						c0,0,0,0.1,0,0.3l0,2.2c0,0.2,0,0.2,0,0.3c0,0.1,0,0.2-0.1,0.2c0,0-0.1,0.1-0.1,0.1c-0.1,0-0.1,0.1-0.2,0.1l-0.1,0l0,0.2
						l1.2-0.3l0,0l0-0.2l0,0c-0.1,0-0.3,0-0.3,0c-0.1,0-0.1-0.1-0.1-0.2c0,0,0-0.1,0-0.3l0-2.3l1.2,2.7l0,0l0.1,0l1.3-3.4l0,2.4
						c0,0.2,0,0.3,0,0.3c0,0.1-0.1,0.1-0.1,0.1c-0.1,0-0.1,0.1-0.2,0.1l-0.1,0l0,0.2l1.7-0.5v0l1.2-0.3l0,0l0-0.2l0,0
						c-0.2,0-0.3,0-0.3,0c-0.1,0-0.1-0.1-0.1-0.2c0-0.1,0-0.2,0.1-0.3l0.1-0.4l1.2-0.3l0.2,0.4c0.1,0.1,0.1,0.2,0.1,0.2
						c0,0,0,0.1,0,0.1c0,0,0,0.1,0,0.1c-0.1,0-0.1,0.1-0.3,0.1l-0.1,0l0,0.2l1.6-0.4l0,0l0.1,0l0,0l0,0l1.7-0.4l0,0l0-0.2l0,0
						c-0.1,0-0.2,0-0.3,0c0,0,0,0,0,0c-0.1,0-0.1,0-0.1-0.1c0,0,0-0.1,0-0.3l0-1l0.2,0l1.1,1.3l0,0l1.1-0.3l0,0L17.9,67.1L17.9,67.1
						z M16.6,65.1c0,0.2,0,0.3-0.1,0.5c-0.1,0.1-0.2,0.2-0.3,0.3c-0.1,0.1-0.3,0.1-0.5,0.2l-0.1,0l0-1.5l0.3-0.1
						c0.3-0.1,0.5-0.1,0.6,0C16.5,64.6,16.6,64.8,16.6,65.1z M12.6,67.4l-0.9,0.2l0.5-1.2"/>
					<path class="st0" d="M9.2,71.2c0,0.1,0,0.2-0.1,0.2c0,0-0.1,0.1-0.1,0.1c0,0-0.1,0-0.3,0c-0.3,0-0.5,0-0.8,0
						c-0.3,0.1-0.7,0.3-1,0.5c-0.3,0.2-0.5,0.5-0.7,0.9c-0.2,0.3-0.3,0.7-0.3,1c0,0.3,0.1,0.6,0.2,0.9c0.2,0.2,0.4,0.4,0.7,0.5
						c0.1,0,0.3,0.1,0.4,0.1c0.2,0,0.4,0,0.6-0.1c0.3-0.1,0.5-0.2,0.7-0.3c0.2-0.1,0.4-0.4,0.6-0.6l0,0l0-0.4L9.2,74
						c-0.2,0.3-0.4,0.5-0.6,0.6C8.4,74.8,8.2,74.9,8,75c-0.3,0.1-0.5,0.1-0.6,0c-0.2-0.1-0.3-0.2-0.3-0.5c-0.1-0.2-0.1-0.5-0.1-0.8
						c0-0.3,0.1-0.6,0.2-0.9c0.1-0.2,0.2-0.4,0.4-0.6c0.2-0.2,0.4-0.3,0.6-0.3c0.2-0.1,0.5,0,0.7,0.1c0.2,0.1,0.3,0.3,0.4,0.6l0,0
						l0.2,0l0-1.3L9.2,71.2L9.2,71.2z"/>
					<path class="st0" d="M12.7,72.8c-0.1,0.3-0.2,0.6-0.4,0.8c-0.2,0.2-0.4,0.3-0.8,0.4l-0.2,0.1c-0.1,0-0.2,0-0.2,0
						c0,0-0.1,0-0.1-0.1c0,0,0-0.1,0-0.3l0-1c0.1,0,0.3,0,0.3,0c0.1,0,0.1,0.1,0.2,0.2c0.1,0.1,0.1,0.3,0.1,0.4l0,0l0.2,0l0-1.9
						l-0.2,0l0,0c0,0.3-0.1,0.5-0.2,0.7c-0.1,0.2-0.3,0.3-0.5,0.3l0,0l0-1.4l0.3-0.1c0.3-0.1,0.4-0.1,0.5-0.1c0.2,0,0.3,0.1,0.4,0.1
						c0.1,0.1,0.1,0.2,0.2,0.5l0,0l0.2,0l0-1.1l-2.9,0.8l0,0l0,0.2l0.2,0c0.1,0,0.2,0,0.2,0c0,0,0.1,0,0.1,0.1c0,0,0,0.1,0,0.3
						l0,2.3c0,0.2,0,0.3,0,0.3c0,0.1-0.1,0.1-0.1,0.1c-0.1,0-0.1,0.1-0.2,0.1l-0.1,0l0,0.2l3-0.8l0,0l0.2-1.2L12.7,72.8L12.7,72.8z"
						/>
					<path class="st0" d="M17.5,71.6c-0.1,0.3-0.2,0.6-0.4,0.8c-0.2,0.2-0.5,0.3-0.8,0.4l-0.2,0.1c-0.1,0-0.2,0-0.2,0
						c0,0-0.1,0-0.1-0.1c0,0,0-0.1,0-0.3l0-1c0.1,0,0.3,0,0.3,0c0.1,0,0.1,0.1,0.2,0.2c0.1,0.1,0.1,0.3,0.1,0.4l0,0l0.2,0l0-1.9
						l-0.2,0l0,0c0,0.3-0.1,0.5-0.2,0.7c-0.1,0.2-0.3,0.3-0.5,0.3l0,0l0-1.4l0.3-0.1c0.3-0.1,0.4-0.1,0.5-0.1c0.2,0,0.3,0.1,0.4,0.1
						c0.1,0.1,0.1,0.2,0.2,0.5l0,0l0.2,0l0-1.1l-2.9,0.8l0,0l0,0.2l0.2,0c0.1,0,0.2,0,0.2,0c0,0,0.1,0,0.1,0.1c0,0,0,0.1,0,0.3
						l0,2.3c0,0.2,0,0.3,0,0.3c0,0.1-0.1,0.1-0.1,0.1c-0.1,0-0.1,0.1-0.2,0.1l-0.1,0l0,0.2l3-0.8l0,0l0.2-1.2L17.5,71.6L17.5,71.6z"
						/>
				</g>
				<g>
					<path class="st0" d="M21.8,57.2l0.1,0l1.1-2.4c0.1-0.3,0.2-0.5,0.3-0.5c0.1-0.1,0.2-0.1,0.3-0.1l0,0l0-0.2l-1.2-0.3l0,0.2l0,0
						c0.1,0,0.2,0.1,0.3,0.1c0,0,0.1,0.1,0.1,0.1c0,0,0,0.1,0,0.1c0,0,0,0.1,0,0.1c0,0.1-0.1,0.2-0.1,0.3l-0.6,1.3l-0.8-1.9
						c-0.1-0.2-0.1-0.3-0.1-0.4c0,0,0-0.1,0-0.1c0,0,0-0.1,0-0.1c0,0,0.1,0,0.3,0l0.1,0l0-0.2l-1.7-0.4l0,0.2l0,0
						c0.1,0,0.2,0.1,0.3,0.2c0,0.1,0.2,0.3,0.3,0.7L21.8,57.2z"/>
					<path class="st0" d="M23.3,57.4L23.3,57.4l0,0.2l1.2,0.3l0-0.2l0,0c-0.2-0.1-0.3-0.1-0.3-0.1c-0.1-0.1-0.1-0.1-0.1-0.2
						c0-0.1,0-0.2,0.1-0.3l0.1-0.3l1.2,0.3l0.2,0.5c0.1,0.2,0.1,0.2,0.1,0.2c0,0,0,0.1,0,0.1c0,0.1,0,0.1,0,0.1c0,0,0,0-0.1,0
						c0,0-0.1,0-0.2,0l-0.1,0l0,0.2l1.7,0.4l0-0.2l0,0c-0.1,0-0.2-0.1-0.2-0.1c-0.1-0.1-0.2-0.3-0.3-0.6l-1.3-3.2l0,0l-0.1,0
						l-1.2,2.5c-0.1,0.2-0.2,0.4-0.3,0.4C23.5,57.3,23.4,57.4,23.3,57.4z M24.3,56.5l0.5-1l0.5,1.2L24.3,56.5z"/>
					<path class="st0" d="M27.2,55.1c0.1,0,0.2,0.1,0.2,0.1c0.1,0,0.1,0.1,0.2,0.2l0.1,0.1l0.1,2.5c0,0.2,0,0.3-0.1,0.3
						c-0.1,0.1-0.2,0.1-0.4,0l0,0l0,0.2l1.3,0.3l0-0.2l-0.1,0c-0.1,0-0.2-0.1-0.3-0.2C28,58.4,28,58.3,28,58.1l-0.1-2.1l2.4,3.5l0,0
						l0.1,0l-0.1-3c0-0.2,0-0.3,0-0.3c0-0.1,0.1-0.1,0.1-0.1c0,0,0.1,0,0.3,0l0,0l0-0.2l-1.2-0.3l0,0.2l0,0c0.2,0,0.3,0.1,0.4,0.2
						c0.1,0.1,0.1,0.2,0.1,0.4l0,1.4l-1.7-2.5l0,0l-1.3-0.3L27.2,55.1L27.2,55.1z"/>
					<path class="st0" d="M20.9,61.8c0.2,0.2,0.3,0.4,0.6,0.5c0.2,0.1,0.5,0.3,0.8,0.3c0.2,0.1,0.5,0.1,0.7,0.1c0,0,0.1,0,0.1,0
						c0.2,0,0.4,0,0.6-0.1l0,0l0-0.8c0-0.2,0-0.2,0-0.2c0,0,0-0.1,0.1-0.1c0,0,0.1,0,0.2,0l0,0l0-0.2L22.3,61l0,0.2l0.1,0
						c0.1,0,0.1,0.1,0.2,0.1c0.1,0,0.1,0.1,0.1,0.1c0,0,0,0.1,0,0.3l0,0.7c-0.1,0-0.1,0-0.2,0c-0.1,0-0.2,0-0.2,0
						c-0.2-0.1-0.4-0.2-0.6-0.3c-0.2-0.2-0.3-0.4-0.4-0.6c-0.1-0.3-0.1-0.6-0.1-0.9c0-0.3,0-0.5,0.1-0.8c0.1-0.2,0.2-0.4,0.3-0.5
						c0.1-0.1,0.3-0.1,0.6-0.1c0.2,0.1,0.5,0.2,0.7,0.4c0.2,0.2,0.4,0.5,0.5,0.9l0,0l0.1,0l0-1.3v0l-0.1,0l0,0
						c0,0.1-0.1,0.1-0.1,0.2c0,0-0.1,0-0.1,0c0,0-0.1,0-0.3-0.2c-0.2-0.1-0.3-0.2-0.3-0.2c-0.1-0.1-0.3-0.1-0.4-0.2
						c-0.5-0.1-1-0.1-1.3,0.2c-0.3,0.3-0.5,0.7-0.5,1.2c0,0.3,0.1,0.6,0.2,0.9C20.6,61.4,20.7,61.6,20.9,61.8z"/>
					<path class="st0" d="M26.9,63.7l0.1-1.1l-0.2,0l0,0c-0.1,0.3-0.2,0.5-0.4,0.6c-0.2,0.1-0.4,0.1-0.7,0l-0.2-0.1
						c-0.1,0-0.2-0.1-0.2-0.1c0,0-0.1-0.1-0.1-0.1c0,0,0-0.1,0-0.4l0-1c0.1,0,0.3,0.1,0.3,0.1c0.1,0.1,0.2,0.2,0.2,0.3
						c0.1,0.1,0.1,0.3,0.1,0.5l0,0l0.2,0l0-1.9v0l-0.2,0l0,0c0,0.3-0.1,0.4-0.2,0.6c-0.1,0.1-0.2,0.1-0.4,0.1l0,0l0-1.4l0.3,0.1
						c0.3,0.1,0.4,0.1,0.5,0.2c0.2,0.1,0.3,0.2,0.4,0.3c0.1,0.1,0.2,0.3,0.2,0.6l0,0l0.2,0l0-1.1l0,0l-3-0.8l0,0.2l0.1,0
						c0.1,0,0.2,0.1,0.3,0.1c0,0,0.1,0.1,0.1,0.1c0,0,0,0.1,0,0.3l0.1,2.3c0,0.2,0,0.3,0,0.3c0,0,0,0.1-0.1,0.1c-0.1,0-0.1,0-0.2,0
						l-0.2,0l0,0.2L26.9,63.7L26.9,63.7z"/>
					<path class="st0" d="M30.3,63.3l-0.2,0l0,0c-0.1,0.3-0.2,0.4-0.2,0.6c-0.1,0.1-0.2,0.2-0.3,0.2c-0.1,0-0.3,0-0.4,0L28.8,64
						c-0.2,0-0.3-0.1-0.3-0.1c-0.1,0-0.1-0.1-0.1-0.1c0,0,0-0.1,0-0.3l-0.1-2.3c0-0.2,0-0.3,0-0.3c0,0,0-0.1,0.1-0.1
						c0.1,0,0.1,0,0.2,0l0.2,0.1l0-0.2l-1.9-0.5l0,0.2l0.1,0c0.1,0,0.2,0.1,0.2,0.1s0.1,0.1,0.1,0.1c0,0,0,0.1,0,0.3l0.1,2.3
						c0,0.2,0,0.3,0,0.3c0,0,0,0.1-0.1,0.1c-0.1,0-0.1,0-0.2,0l-0.2,0l0,0.2l3.1,0.8l0,0L30.3,63.3L30.3,63.3z"/>
					<path class="st0" d="M30.2,61.2l0.1,0c0.1,0,0.2,0.1,0.2,0.1c0.1,0,0.1,0.1,0.1,0.1c0,0,0,0.1,0,0.3l0.1,2.3c0,0.2,0,0.3,0,0.3
						c0,0,0,0.1-0.1,0.1c-0.1,0-0.1,0-0.2,0l-0.2,0l0,0.2l1.8,0.5l0,0l0-0.2l-0.1,0c-0.1,0-0.2-0.1-0.2-0.1c-0.1,0-0.1-0.1-0.1-0.1
						c0,0,0-0.1,0-0.3L31.6,62c0-0.2,0-0.3,0-0.3c0,0,0-0.1,0.1-0.1c0.1,0,0.1,0,0.2,0l0.2,0l0-0.2L30.2,61L30.2,61.2z"/>
					<path class="st0" d="M21.8,67.6c-0.2-0.1-0.5-0.2-0.7-0.5c-0.2-0.2-0.4-0.6-0.4-1l0,0l-0.2,0l0,1.4v0l0.1,0l0,0
						c0-0.1,0.1-0.1,0.1-0.1c0,0,0.1,0,0.1,0c0.1,0,0.1,0,0.2,0.1c0.1,0.1,0.3,0.2,0.4,0.2c0.1,0.1,0.2,0.1,0.3,0.1
						c0.1,0,0.3,0.1,0.4,0.1c0.2,0,0.4-0.1,0.5-0.2c0.2-0.2,0.3-0.4,0.3-0.7c0-0.2-0.1-0.5-0.2-0.7c-0.1-0.2-0.4-0.5-0.8-0.8
						c-0.3-0.2-0.5-0.4-0.6-0.4c-0.1-0.1-0.2-0.2-0.2-0.3c0-0.1-0.1-0.1-0.1-0.2c0-0.1,0-0.2,0.1-0.3c0.1-0.1,0.2-0.1,0.4,0
						c0.2,0.1,0.4,0.2,0.6,0.4c0.2,0.2,0.3,0.5,0.4,0.8l0,0l0.2,0l-0.1-1.2l0,0l-0.1,0l0,0c0,0.1,0,0.2-0.1,0.2c0,0,0,0-0.1,0
						c0,0-0.1,0-0.2-0.1c-0.1-0.1-0.2-0.2-0.3-0.2c-0.1-0.1-0.2-0.1-0.3-0.1c-0.3-0.1-0.6,0-0.8,0.1c-0.2,0.2-0.3,0.4-0.3,0.7
						c0,0.2,0,0.3,0.1,0.5c0.1,0.2,0.2,0.3,0.3,0.5c0.1,0.1,0.4,0.3,0.7,0.6c0.2,0.2,0.4,0.3,0.5,0.4c0.1,0.1,0.2,0.2,0.2,0.3
						c0,0.1,0.1,0.2,0.1,0.2c0,0.1,0,0.2-0.1,0.3C22.1,67.6,22,67.6,21.8,67.6z"/>
					<path class="st0" d="M25.8,65.5c0.1,0.1,0.2,0.2,0.3,0.3c0.1,0.1,0.1,0.3,0.2,0.5l0,0l0.2,0l0-1l0,0l-3.1-0.8l0,0l0,1v0l0.2,0
						l0,0c0-0.2,0.1-0.4,0.3-0.5c0.1-0.1,0.3-0.1,0.5,0l0.2,0.1l0.1,2.7c0,0.2,0,0.3,0,0.3c0,0,0,0.1-0.1,0.1c-0.1,0-0.1,0-0.2,0
						l-0.2,0l0,0.2l1.8,0.5l0,0l0-0.2l-0.1,0c-0.1,0-0.2-0.1-0.2-0.1c-0.1,0-0.1-0.1-0.1-0.1c0,0,0-0.1,0-0.3l-0.1-2.7l0.2,0.1
						C25.6,65.4,25.7,65.5,25.8,65.5z"/>
					<path class="st0" d="M28.8,69.3c0,0-0.1,0-0.3,0l-0.1,0l0,0.2l1.7,0.4l0,0l0-0.2l0,0c-0.1,0-0.2-0.1-0.2-0.1
						c-0.1-0.1-0.2-0.3-0.3-0.6l-1.3-3.2l-0.1,0L27,68.3c-0.1,0.2-0.2,0.4-0.3,0.4c-0.1,0.1-0.2,0.1-0.3,0.1l0,0l0,0.2l1.2,0.3l0,0
						l0-0.2l0,0c-0.2-0.1-0.3-0.1-0.3-0.1c-0.1-0.1-0.1-0.1-0.1-0.2c0-0.1,0-0.2,0.1-0.3l0.1-0.3l1.2,0.3l0.2,0.5
						c0.1,0.2,0.1,0.2,0.1,0.2C28.9,69.2,28.9,69.2,28.8,69.3C28.9,69.3,28.8,69.3,28.8,69.3z M28.5,68.2L27.5,68l0.5-1L28.5,68.2z"
						/>
					<path class="st0" d="M30.4,71.8l0-0.2l-1-0.3l0,0l0,0.2l0,0c0.1,0,0.2,0.1,0.3,0.1c0,0,0.1,0.1,0.1,0.1c0,0,0,0.1,0,0.1
						c0,0,0,0.1,0,0.1c0,0.1-0.1,0.2-0.1,0.3l-0.5,1.3l-0.7-1.9c-0.1-0.2-0.1-0.3-0.1-0.4c0,0,0-0.1,0-0.1c0,0,0-0.1,0-0.1
						c0,0,0.1,0,0.2,0l0.1,0l0-0.2l-1.5-0.4l0,0l0,0l0,0l0,0l-2.5-0.7l0,0v0l-1.1-0.3l-0.8,2.1l-0.9-2.5l0,0l-1.3-0.3l0,0l0,0.2
						l0.1,0c0.1,0,0.1,0.1,0.2,0.1c0,0,0.1,0.1,0.1,0.1c0,0,0,0.1,0,0.3l0.1,2.2c0,0.2,0,0.2,0,0.3c0,0.1,0,0.1-0.1,0.2
						c0,0-0.1,0.1-0.1,0.1c-0.1,0-0.1,0-0.2,0l-0.1,0l0,0.2l1.1,0.3l0,0l0-0.2l0,0c-0.1,0-0.2-0.1-0.3-0.2c-0.1-0.1-0.1-0.1-0.1-0.2
						c0,0,0-0.1,0-0.3l-0.1-2.3l1.2,3.3l0.1,0l1-2.8l0.1,2.5c0,0.2,0,0.3,0,0.3c0,0,0,0.1-0.1,0.1c0,0-0.1,0-0.2,0l-0.1,0l0,0.2
						l1.5,0.4v0l2.7,0.7l0.1-1.1l0,0l-0.1,0l0,0c-0.1,0.3-0.2,0.5-0.3,0.6c-0.2,0.1-0.4,0.1-0.7,0l-0.2,0c-0.1,0-0.1,0-0.2-0.1
						c0,0-0.1-0.1-0.1-0.1c0,0,0-0.2,0-0.4l0-1c0.1,0,0.2,0.1,0.3,0.1c0.1,0.1,0.1,0.2,0.2,0.3c0.1,0.1,0.1,0.3,0.1,0.5l0,0l0.1,0
						l-0.1-1.9v0l-0.1,0l0,0c0,0.3-0.1,0.5-0.1,0.6c-0.1,0.1-0.2,0.1-0.4,0.1l0,0l0-1.4l0.3,0.1c0.2,0.1,0.4,0.1,0.5,0.2
						c0.1,0.1,0.3,0.2,0.3,0.3c0.1,0.1,0.1,0.3,0.2,0.6l0,0l0.1,0l0-0.9c0.1,0,0.2,0.1,0.2,0.1c0,0,0.1,0.2,0.3,0.7l1.1,3.1l0.1,0
						l1-2.5C30,72.2,30,72,30.1,72C30.2,71.9,30.3,71.8,30.4,71.8L30.4,71.8z M24.7,73.6c-0.1,0-0.1-0.1-0.2-0.1
						c0,0-0.1-0.1-0.1-0.1c0,0,0-0.1,0-0.3l-0.1-2.3c0-0.2,0-0.3,0-0.3c0,0,0-0.1,0.1-0.1c0,0,0.1,0,0.2,0l0,0l0,0
						c0.1,0,0.2,0.1,0.2,0.1c0,0,0.1,0.1,0.1,0.1c0,0,0,0.1,0,0.3l0.1,2.3c0,0.2,0,0.3,0,0.3c0,0,0,0.1-0.1,0.1
						C24.9,73.7,24.8,73.6,24.7,73.6L24.7,73.6L24.7,73.6z"/>
					<path class="st0" d="M32.2,74.1c-0.1-0.2-0.4-0.5-0.8-0.8c-0.3-0.2-0.4-0.4-0.5-0.4c-0.1-0.1-0.2-0.2-0.2-0.3
						c0-0.1,0-0.1,0-0.2c0-0.1,0-0.2,0.1-0.3c0.1-0.1,0.2-0.1,0.3,0c0.2,0.1,0.4,0.2,0.5,0.4c0.2,0.2,0.3,0.5,0.3,0.8l0,0l0.2,0
						l-0.1-1.2v0L32,72l0,0c0,0.1,0,0.2,0,0.2c0,0,0,0-0.1,0c0,0-0.1,0-0.2-0.1c-0.1-0.1-0.2-0.1-0.3-0.2c-0.1-0.1-0.2-0.1-0.3-0.1
						c-0.3-0.1-0.5,0-0.7,0.1c-0.2,0.2-0.3,0.4-0.3,0.7c0,0.2,0,0.3,0.1,0.5c0.1,0.2,0.2,0.3,0.3,0.5c0.1,0.1,0.3,0.3,0.6,0.6
						c0.2,0.2,0.3,0.3,0.4,0.4c0.1,0.1,0.1,0.2,0.2,0.3c0,0.1,0.1,0.2,0.1,0.2c0,0.1,0,0.2-0.1,0.3c-0.1,0.1-0.2,0.1-0.4,0.1
						c-0.2-0.1-0.4-0.2-0.6-0.4c-0.2-0.2-0.3-0.6-0.4-0.9l0,0l-0.1,0l0,1.4v0l0.1,0l0,0c0-0.1,0.1-0.1,0.1-0.1c0,0,0.1,0,0.1,0
						c0,0,0.1,0,0.2,0.1c0.1,0.1,0.2,0.2,0.3,0.2c0.1,0,0.2,0.1,0.3,0.1c0.1,0,0.2,0,0.3,0c0.2,0,0.4-0.1,0.5-0.2
						c0.2-0.2,0.3-0.4,0.3-0.7C32.4,74.5,32.3,74.3,32.2,74.1z"/>
				</g>
			</g>
		</g>
	</g>
</g>
</svg>
