<?xml version="1.0" encoding="utf-8"?>
<!-- Generator: Adobe Illustrator 22.0.1, SVG Export Plug-In . SVG Version: 6.00 Build 0)  -->
<svg version="1.1" id="Ebene_1" xmlns="http://www.w3.org/2000/svg" xmlns:xlink="http://www.w3.org/1999/xlink" x="0px" y="0px"
	 viewBox="0 0 153.8 31.6" style="enable-background:new 0 0 153.8 31.6;" xml:space="preserve">
<style type="text/css">
	.st0{clip-path:url(#SVGID_2_);fill:#221C19;}
	.st1{fill:#221C19;}
	.st2{clip-path:url(#SVGID_4_);fill:#221C19;}
	.st3{clip-path:url(#SVGID_4_);fill:#004583;}
</style>
<g>
	<defs>
		<rect id="SVGID_1_" x="1" y="1.2" width="151.8" height="29.3"/>
	</defs>
	<clipPath id="SVGID_2_">
		<use xlink:href="#SVGID_1_"  style="overflow:visible;"/>
	</clipPath>
	<path class="st0" d="M1,30h1.9l1-8.8c0.6-4.9,3-7.2,5.7-7.2c2.9,0,3.2,2.8,2.9,5.6L11.3,30h1.8l1.2-10.5c0.4-3.9-0.1-7.6-4.5-7.6
		c-2.3,0-4.3,1.6-5.2,3.5h0L6.1,1.2H4.3L1,30z"/>
	<path class="st0" d="M26.8,21.2l-0.1,1.2c-0.3,2.9-1.7,6.1-5.6,6.1c-1.5,0-3.1-1.1-2.9-3.3c0.4-3,3.5-4,6.6-4H26.8z M28.7,18.3
		c0.5-4.4-1.5-6.3-4.9-6.3c-1.8,0-4.1,0.9-5.6,2.5l0.9,1.6c1.4-1.3,2.9-2,4.5-2c2.3,0,3.8,1.2,3.5,4.3L27,19.3h-2.1
		c-2.8,0-7.9,0.5-8.5,5.9c-0.5,3.7,1.9,5.3,4.3,5.3c2.4,0,4.1-1.1,5.3-3.3h0.1c-0.1,1-0.2,2-0.1,2.9h1.7c0-2,0.1-4,0.6-7.4
		L28.7,18.3z"/>
	<path class="st0" d="M30.8,30h1.9l1-8.8c0.6-4.9,3-7.2,5.7-7.2c2.9,0,3.2,2.8,2.9,5.6L41.1,30h1.8l1.2-10.5
		c0.4-3.9-0.1-7.6-4.5-7.6c-2.3,0-4.3,1.6-5.2,3.5h-0.1c0-0.3,0.1-1.8,0.2-3.1h-1.8c-0.1,0.9-0.3,3.7-0.4,5L30.8,30z"/>
	<path class="st0" d="M46.2,30H48l1-8.8c0.6-4.9,3-7.2,5.7-7.2c2.9,0,3.2,2.8,2.9,5.6L56.5,30h1.8l1.2-10.5c0.4-3.9-0.1-7.6-4.5-7.6
		c-2.3,0-4.3,1.6-5.2,3.5h-0.1c0-0.3,0.1-1.8,0.2-3.1H48c-0.1,0.9-0.2,3.7-0.4,5L46.2,30z"/>
	<path class="st0" d="M63.7,21.2c0.5-4,3-7.2,6.4-7.2c3.4,0,5.2,3.2,4.8,7.2s-3,7.2-6.4,7.2C65,28.4,63.3,25.2,63.7,21.2z
		 M61.9,21.2c-0.6,5.4,2,9.3,6.4,9.3c4.3,0,7.8-3.9,8.4-9.3c0.6-5.4-2-9.3-6.3-9.3C66,11.9,62.5,15.8,61.9,21.2z"/>
</g>
<polygon class="st1" points="89.6,12.4 83.3,27.5 80.3,12.4 78.3,12.4 82,30 83.9,30 91.5,12.4 "/>
<g>
	<defs>
		<rect id="SVGID_3_" x="1" y="1.2" width="151.8" height="29.3"/>
	</defs>
	<clipPath id="SVGID_4_">
		<use xlink:href="#SVGID_3_"  style="overflow:visible;"/>
	</clipPath>
	<path class="st2" d="M93.1,19.7c0.1-0.9,1.8-5.7,5.8-5.7c2.7,0,4.6,2.6,4.3,5.7H93.1z M102.5,25.3c-1.2,1.9-3.2,3.1-5.1,3.1
		c-4.3,0-4.8-4.7-4.6-6.7h11.8l0.2-1.6c0.5-4.1-1.3-8.2-5.7-8.2c-4.1,0-7.5,3.9-8.1,9.2c-0.6,5.5,1.8,9.3,6.1,9.3
		c2.5,0,4.8-1.1,6.5-3.8L102.5,25.3z"/>
	<path class="st2" d="M106.3,30h1.9l1.1-9.6c0.4-3.5,2.1-6.2,5.3-6.2c0.2,0,0.4,0,0.7,0.1l0.5-2.2c-0.4-0.1-0.7-0.2-1.1-0.2
		c-2.1,0-3.7,1.5-4.9,3.5c0-0.3,0.1-1.8,0.2-3.1h-1.9c-0.1,0.9-0.3,3.7-0.4,5L106.3,30z"/>
	<path class="st3" d="M120.5,30h4.6l0.8-7.8c0.4-3.7,1.2-6.2,4.6-6.2c0.7,0,1.3,0.1,1.9,0.4l0.6-5.2c-0.4-0.1-1-0.2-1.5-0.2
		c-2,0-3.5,1.2-4.7,3.4h-0.1l0.4-3h-4.6L120.5,30z"/>
	<path class="st3" d="M136.3,18.7c0.3-1.8,1.6-3.5,3.7-3.5c1.6,0,2.6,1.6,2.4,3.5H136.3z M142.4,23.9c-0.9,1.3-2,2.2-3.6,2.2
		c-1.8,0-2.9-1.4-3-3.6h10.6l0.2-1.8c0.6-5.9-1.6-9.7-5.9-9.7c-4.6,0-8.7,3.8-9.3,9.7c-0.6,5.9,2.5,9.8,7.1,9.8c2.4,0,5-1.3,6.7-3.7
		L142.4,23.9z"/>
	<path class="st2" d="M146.7,8.5h0.3v0L146.7,8.5L146.7,8.5z M147.6,10.7c-0.5-0.6-0.9-1.3-0.9-2.2h0.3c0,0.8,0.3,1.5,0.8,2
		L147.6,10.7z M147.8,10.5L147.8,10.5L147.8,10.5L147.8,10.5z M149.8,11.6c-0.8,0-1.6-0.3-2.2-0.9l0.2-0.2c0.5,0.5,1.2,0.8,2,0.8
		V11.6z M149.8,11.6L149.8,11.6v-0.3V11.6z M149.8,11.6L149.8,11.6l0-0.3h0V11.6z M152,10.7c-0.6,0.6-1.3,0.9-2.2,0.9v-0.3
		c0.8,0,1.5-0.3,2-0.8L152,10.7z M152.9,8.5c0,0.8-0.3,1.6-0.9,2.2l-0.2-0.2c0.5-0.5,0.8-1.2,0.8-2H152.9z M152.9,8.5h-0.3H152.9z
		 M152.9,8.5h-0.3v0L152.9,8.5L152.9,8.5z M152,6.3c0.6,0.6,0.9,1.3,0.9,2.2h-0.3c0-0.8-0.3-1.5-0.8-2L152,6.3z M149.8,5.4
		c0.9,0,1.6,0.4,2.2,0.9l-0.2,0.2c-0.5-0.5-1.2-0.8-2-0.8V5.4z M149.8,5.4L149.8,5.4v0.3V5.4z M149.8,5.4L149.8,5.4l0,0.3h0V5.4z
		 M147.6,6.3c0.5-0.6,1.3-0.9,2.2-0.9v0.3c-0.8,0-1.5,0.3-2,0.8L147.6,6.3z M146.7,8.5c0-0.8,0.3-1.6,0.9-2.2l0.2,0.2
		c-0.5,0.5-0.8,1.2-0.8,2H146.7z M146.7,8.5h0.3H146.7z"/>
	<path class="st2" d="M149,9.8h0.3V8.5h0.5l0.7,1.2h0.3l-0.8-1.3c0.3,0,0.7-0.2,0.7-0.7c0-0.7-0.8-0.7-1-0.7H149V9.8z M149.3,7.3
		h0.5c0.6,0,0.6,0.3,0.6,0.5s-0.1,0.5-0.6,0.5h-0.5V7.3z"/>
</g>
</svg>
