<?xml version="1.0" encoding="utf-8"?>
<!-- Generator: Adobe Illustrator 24.0.1, SVG Export Plug-In . SVG Version: 6.00 Build 0)  -->
<svg version="1.1" id="Artwork" xmlns="http://www.w3.org/2000/svg" xmlns:xlink="http://www.w3.org/1999/xlink" x="0px" y="0px"
	 viewBox="0 0 253.9 83" style="enable-background:new 0 0 253.9 83;" xml:space="preserve">
<style type="text/css">
	.st0{fill:#0077C5;}
</style>
<title>Intuit_2016_RGB</title>
<g id="Logo">
	<path id="_" class="st0" d="M245,69c0-0.7-0.6-1.2-1.3-1.2c-0.1,0-0.1,0-0.2,0h-1.3v3.9h0.7v-1.6h0.5l0.9,1.6h0.8l-1.1-1.7
		C244.6,69.9,245,69.5,245,69z M242.9,69.5v-1.1h0.6c0.3-0.1,0.7,0.1,0.8,0.5c0,0,0,0,0,0.1c-0.1,0.4-0.4,0.6-0.8,0.6c0,0,0,0-0.1,0
		L242.9,69.5L242.9,69.5z M243.5,66.3c-1.9,0-3.4,1.6-3.4,3.5c0,1.9,1.6,3.4,3.5,3.4c1.9,0,3.4-1.6,3.4-3.4
		C247,67.8,245.4,66.3,243.5,66.3C243.5,66.3,243.5,66.3,243.5,66.3L243.5,66.3z M243.5,72.7c-1.6,0-2.9-1.3-2.9-2.9
		c0-1.6,1.3-2.9,2.9-2.9c1.6,0,2.9,1.3,2.9,2.9c0,0,0,0,0,0C246.4,71.4,245.1,72.7,243.5,72.7z"/>
	<path id="Intuit" class="st0" d="M11,26h11.7v46.7H11V26z M60.4,24.6c-6.1-0.1-11.7,3.3-14.5,8.8h-0.2v-7.5H34.7v46.7h11.7V46.9
		c0-6.2,3.5-12.6,10.9-12.6S66,41.2,66,46.8v25.9h11.7V43.5C77.6,34,72.6,24.6,60.4,24.6L60.4,24.6z M160.8,51.7
		c0,6.2-3.5,12.6-10.9,12.6c-7.4,0-8.8-6.9-8.8-12.4V25.9h-11.7v29.2c0,9.5,5.1,18.9,17.2,18.9c6.1,0.1,11.8-3.4,14.5-8.9h0.2v7.5
		h11.1V25.9h-11.7V51.7L160.8,51.7z M184.4,72.7h11.7V26h-11.7V72.7z M83.6,36.4h13.1v36.3h11.7V36.4h13.1V26H83.6L83.6,36.4
		L83.6,36.4z M102.5,19.9c3.9,0,7.1-3.2,7.1-7.1s-3.2-7.1-7.1-7.1c-3.9,0-7.1,3.2-7.1,7.1C95.4,16.8,98.6,19.9,102.5,19.9
		L102.5,19.9z M204.3,26v10.4h13.1v36.3h11.7V36.4h13.1V26H204.3L204.3,26z M223.2,19.9c3.9,0,7.1-3.2,7.1-7.1s-3.2-7.1-7.1-7.1
		s-7.1,3.2-7.1,7.1C216.2,16.8,219.4,19.9,223.2,19.9L223.2,19.9z"/>
</g>
</svg>
