<?xml version="1.0" encoding="utf-8"?>
<!-- Generator: Adobe Illustrator 23.0.0, SVG Export Plug-In . SVG Version: 6.00 Build 0)  -->
<svg version="1.1" id="Ebene_1" xmlns="http://www.w3.org/2000/svg" xmlns:xlink="http://www.w3.org/1999/xlink" x="0px" y="0px"
	 viewBox="0 0 1140 100" style="enable-background:new 0 0 1140 100;" xml:space="preserve">
<style type="text/css">
	.st0{fill:#ECECEC;}
	.st1{fill:#B2000D;}
	.st2{enable-background:new    ;}
	.st3{fill:#525149;}
	.st4{fill:#FFFFFF;}
	.st5{fill:#B51F29;}
	.st6{fill:none;stroke:#9D9D9C;stroke-width:2;stroke-linecap:round;stroke-miterlimit:10;}
</style>
<rect class="st0" width="1140" height="100"/>
<path class="st1" d="M1111.3,71.9H915.5c-1.7,0-3-1.3-3-3V34c0-1.7,1.3-3,3-3h195.8c1.7,0,3,1.3,3,3v34.9
	C1114.3,70.6,1112.9,71.9,1111.3,71.9z"/>
<g class="st2">
	<path class="st3" d="M109.4,29.5c-1.2,0-2.1,0.4-2.8,1.3c-0.7,0.9-1,2.1-1,3.7c0,3.3,1.2,5,3.7,5c1,0,2.3-0.3,3.8-0.8v2.6
		c-1.2,0.5-2.6,0.8-4.1,0.8c-2.2,0-3.8-0.7-5-2c-1.1-1.3-1.7-3.2-1.7-5.7c0-1.5,0.3-2.9,0.8-4.1c0.6-1.2,1.4-2.1,2.4-2.7
		c1.1-0.6,2.3-0.9,3.7-0.9c1.4,0,2.9,0.3,4.4,1l-1,2.6c-0.6-0.3-1.1-0.5-1.7-0.7S110,29.5,109.4,29.5z"/>
	<path class="st3" d="M123.4,42l-0.6-1.5h-0.1c-0.5,0.7-1.1,1.1-1.6,1.4c-0.6,0.3-1.3,0.4-2.2,0.4c-1.1,0-2-0.3-2.6-0.9
		c-0.6-0.6-0.9-1.5-0.9-2.7c0-1.2,0.4-2.1,1.3-2.7c0.8-0.6,2.1-0.9,3.8-1l2-0.1v-0.5c0-1.2-0.6-1.7-1.8-1.7c-0.9,0-2,0.3-3.2,0.8
		l-1-2.1c1.3-0.7,2.8-1,4.4-1c1.5,0,2.7,0.3,3.5,1c0.8,0.7,1.2,1.7,1.2,3V42H123.4z M122.4,36.7l-1.2,0c-0.9,0-1.6,0.2-2,0.5
		c-0.4,0.3-0.7,0.8-0.7,1.4c0,0.9,0.5,1.3,1.5,1.3c0.7,0,1.3-0.2,1.7-0.6s0.6-1,0.6-1.6V36.7z"/>
	<path class="st3" d="M138.9,42h-3.1v-6.6c0-0.8-0.1-1.4-0.4-1.8c-0.3-0.4-0.7-0.6-1.3-0.6c-0.8,0-1.4,0.3-1.7,0.9
		c-0.4,0.6-0.5,1.5-0.5,2.9V42h-3.1V30.6h2.4l0.4,1.5h0.2c0.3-0.5,0.7-0.9,1.3-1.2c0.6-0.3,1.2-0.4,2-0.4c1.7,0,2.9,0.6,3.5,1.7h0.3
		c0.3-0.5,0.8-0.9,1.3-1.2c0.6-0.3,1.3-0.4,2-0.4c1.3,0,2.3,0.3,2.9,1c0.7,0.7,1,1.7,1,3.2V42h-3.1v-6.6c0-0.8-0.1-1.4-0.4-1.8
		c-0.3-0.4-0.7-0.6-1.3-0.6c-0.8,0-1.3,0.3-1.7,0.8c-0.4,0.5-0.6,1.4-0.6,2.6V42z"/>
	<path class="st3" d="M157.3,42l-0.4-1.5h-0.2c-0.3,0.5-0.8,0.9-1.4,1.2c-0.6,0.3-1.3,0.4-2.1,0.4c-1.3,0-2.3-0.4-3-1.1
		c-0.7-0.7-1-1.7-1-3.1v-7.4h3.1v6.6c0,0.8,0.1,1.4,0.4,1.8s0.8,0.6,1.4,0.6c0.9,0,1.5-0.3,1.9-0.9c0.4-0.6,0.6-1.5,0.6-2.9v-5.4
		h3.1V42H157.3z"/>
	<path class="st3" d="M173.4,42h-3.1v-6.6c0-0.8-0.1-1.4-0.4-1.8c-0.3-0.4-0.8-0.6-1.4-0.6c-0.9,0-1.5,0.3-1.9,0.9
		c-0.4,0.6-0.6,1.5-0.6,2.9V42h-3.1V30.6h2.4l0.4,1.5h0.2c0.3-0.5,0.8-1,1.4-1.2c0.6-0.3,1.3-0.4,2.1-0.4c1.3,0,2.3,0.4,3,1.1
		c0.7,0.7,1,1.8,1,3.1V42z"/>
	<path class="st3" d="M180.2,42.2c-1.3,0-2.4-0.5-3.2-1.6c-0.8-1-1.1-2.5-1.1-4.3c0-1.9,0.4-3.3,1.2-4.4s1.8-1.6,3.2-1.6
		c1.4,0,2.5,0.6,3.3,1.7h0.1c-0.2-0.8-0.2-1.6-0.2-2.3v-3.6h3.1V42h-2.4l-0.6-1.5h-0.1C182.7,41.6,181.7,42.2,180.2,42.2z
		 M181.3,39.7c0.8,0,1.4-0.2,1.7-0.7c0.4-0.5,0.6-1.2,0.6-2.4v-0.3c0-1.2-0.2-2.1-0.6-2.6c-0.4-0.5-1-0.8-1.8-0.8
		c-0.7,0-1.2,0.3-1.6,0.9c-0.4,0.6-0.6,1.4-0.6,2.6s0.2,2,0.6,2.5C180,39.4,180.6,39.7,181.3,39.7z"/>
	<path class="st3" d="M197,42l-0.6-1.5h-0.1c-0.5,0.7-1.1,1.1-1.6,1.4c-0.6,0.3-1.3,0.4-2.2,0.4c-1.1,0-2-0.3-2.6-0.9
		c-0.6-0.6-0.9-1.5-0.9-2.7c0-1.2,0.4-2.1,1.3-2.7c0.8-0.6,2.1-0.9,3.8-1l2-0.1v-0.5c0-1.2-0.6-1.7-1.8-1.7c-0.9,0-2,0.3-3.2,0.8
		l-1-2.1c1.3-0.7,2.8-1,4.4-1c1.5,0,2.7,0.3,3.5,1c0.8,0.7,1.2,1.7,1.2,3V42H197z M196.1,36.7l-1.2,0c-0.9,0-1.6,0.2-2,0.5
		c-0.4,0.3-0.7,0.8-0.7,1.4c0,0.9,0.5,1.3,1.5,1.3c0.7,0,1.3-0.2,1.7-0.6s0.6-1,0.6-1.6V36.7z"/>
	<path class="st3" d="M207.7,27.7c0-1,0.6-1.5,1.7-1.5s1.7,0.5,1.7,1.5c0,0.5-0.1,0.9-0.4,1.1c-0.3,0.3-0.7,0.4-1.3,0.4
		C208.3,29.2,207.7,28.7,207.7,27.7z M210.9,42h-3.1V30.6h3.1V42z"/>
	<path class="st3" d="M222.1,38.6c0,1.2-0.4,2.1-1.2,2.7s-2,0.9-3.6,0.9c-0.8,0-1.5-0.1-2.1-0.2c-0.6-0.1-1.1-0.3-1.6-0.5V39
		c0.6,0.3,1.2,0.5,2,0.7c0.7,0.2,1.4,0.3,1.9,0.3c1.1,0,1.7-0.3,1.7-1c0-0.2-0.1-0.4-0.2-0.6c-0.1-0.2-0.4-0.3-0.8-0.5
		c-0.4-0.2-0.9-0.4-1.5-0.7c-0.9-0.4-1.5-0.7-1.9-1c-0.4-0.3-0.7-0.7-0.9-1.1c-0.2-0.4-0.3-0.9-0.3-1.5c0-1,0.4-1.8,1.2-2.3
		c0.8-0.6,1.9-0.8,3.3-0.8c1.4,0,2.7,0.3,4,0.9l-0.9,2.2c-0.6-0.2-1.1-0.4-1.6-0.6s-1-0.2-1.5-0.2c-0.9,0-1.4,0.2-1.4,0.7
		c0,0.3,0.1,0.5,0.4,0.7c0.3,0.2,0.9,0.5,1.9,0.9c0.9,0.4,1.5,0.7,2,1c0.4,0.3,0.7,0.7,0.9,1.1C222,37.6,222.1,38.1,222.1,38.6z"/>
	<path class="st3" d="M234.6,42.2c-3.5,0-5.3-1.9-5.3-5.8c0-1.9,0.5-3.4,1.4-4.4s2.3-1.5,4.1-1.5c1.3,0,2.5,0.3,3.5,0.8l-0.9,2.4
		c-0.5-0.2-0.9-0.4-1.4-0.5c-0.4-0.1-0.8-0.2-1.3-0.2c-1.6,0-2.4,1.1-2.4,3.4c0,2.2,0.8,3.3,2.4,3.3c0.6,0,1.2-0.1,1.7-0.2
		s1-0.4,1.5-0.7v2.7c-0.5,0.3-1,0.5-1.5,0.7C236,42.1,235.4,42.2,234.6,42.2z"/>
	<path class="st3" d="M251,36.3c0,1.9-0.5,3.3-1.5,4.3c-1,1-2.3,1.6-4.1,1.6c-1.1,0-2.1-0.2-2.9-0.7c-0.8-0.5-1.5-1.2-1.9-2.1
		s-0.7-1.9-0.7-3.1c0-1.9,0.5-3.3,1.5-4.3c1-1,2.3-1.5,4.1-1.5c1.1,0,2.1,0.2,2.9,0.7c0.8,0.5,1.5,1.2,1.9,2
		C250.8,34.1,251,35.1,251,36.3z M243.2,36.3c0,1.1,0.2,2,0.6,2.6c0.4,0.6,1,0.9,1.8,0.9c0.8,0,1.4-0.3,1.8-0.9
		c0.4-0.6,0.5-1.4,0.5-2.6c0-1.1-0.2-2-0.5-2.5s-1-0.8-1.8-0.8c-0.8,0-1.4,0.3-1.8,0.8C243.4,34.3,243.2,35.2,243.2,36.3z"/>
	<path class="st3" d="M263.8,42h-3.1v-6.6c0-0.8-0.1-1.4-0.4-1.8c-0.3-0.4-0.7-0.6-1.3-0.6c-0.8,0-1.4,0.3-1.7,0.9
		c-0.4,0.6-0.5,1.5-0.5,2.9V42h-3.1V30.6h2.4l0.4,1.5h0.2c0.3-0.5,0.7-0.9,1.3-1.2c0.6-0.3,1.2-0.4,2-0.4c1.7,0,2.9,0.6,3.5,1.7h0.3
		c0.3-0.5,0.8-0.9,1.3-1.2c0.6-0.3,1.3-0.4,2-0.4c1.3,0,2.3,0.3,2.9,1c0.7,0.7,1,1.7,1,3.2V42h-3.1v-6.6c0-0.8-0.1-1.4-0.4-1.8
		c-0.3-0.4-0.7-0.6-1.3-0.6c-0.8,0-1.3,0.3-1.7,0.8c-0.4,0.5-0.6,1.4-0.6,2.6V42z"/>
	<path class="st3" d="M274,27.7c0-1,0.6-1.5,1.7-1.5s1.7,0.5,1.7,1.5c0,0.5-0.1,0.9-0.4,1.1c-0.3,0.3-0.7,0.4-1.3,0.4
		C274.5,29.2,274,28.7,274,27.7z M277.2,42h-3.1V30.6h3.1V42z"/>
	<path class="st3" d="M291,42h-3.1v-6.6c0-0.8-0.1-1.4-0.4-1.8c-0.3-0.4-0.8-0.6-1.4-0.6c-0.9,0-1.5,0.3-1.9,0.9
		c-0.4,0.6-0.6,1.5-0.6,2.9V42h-3.1V30.6h2.4l0.4,1.5h0.2c0.3-0.5,0.8-1,1.4-1.2c0.6-0.3,1.3-0.4,2.1-0.4c1.3,0,2.3,0.4,3,1.1
		c0.7,0.7,1,1.8,1,3.1V42z"/>
	<path class="st3" d="M304.1,30.6v1.6l-1.8,0.5c0.3,0.5,0.5,1.1,0.5,1.7c0,1.2-0.4,2.2-1.3,2.9c-0.9,0.7-2,1-3.5,1l-0.6,0l-0.5-0.1
		c-0.3,0.2-0.5,0.5-0.5,0.8c0,0.4,0.6,0.7,1.7,0.7h1.9c1.2,0,2.2,0.3,2.9,0.8c0.7,0.5,1,1.3,1,2.4c0,1.3-0.6,2.4-1.7,3.1
		s-2.7,1.1-4.8,1.1c-1.6,0-2.8-0.3-3.6-0.8c-0.8-0.6-1.3-1.3-1.3-2.3c0-0.7,0.2-1.3,0.6-1.7c0.4-0.5,1.1-0.8,1.9-1
		c-0.3-0.1-0.6-0.4-0.8-0.7c-0.2-0.3-0.4-0.6-0.4-1c0-0.4,0.1-0.8,0.4-1.1c0.3-0.3,0.6-0.6,1.1-0.8c-0.6-0.3-1.1-0.7-1.4-1.2
		s-0.5-1.2-0.5-2c0-1.2,0.4-2.2,1.2-2.9c0.8-0.7,2-1,3.5-1c0.3,0,0.7,0,1.1,0.1c0.4,0.1,0.7,0.1,0.8,0.1H304.1z M295.3,43.6
		c0,0.4,0.2,0.8,0.6,1s1,0.4,1.7,0.4c1.1,0,2-0.2,2.6-0.5s0.9-0.7,0.9-1.3c0-0.4-0.2-0.7-0.6-0.9c-0.4-0.2-1-0.2-1.7-0.2h-1.6
		c-0.6,0-1,0.1-1.4,0.4C295.5,42.8,295.3,43.2,295.3,43.6z M296.4,34.3c0,0.6,0.1,1.1,0.4,1.5c0.3,0.4,0.7,0.5,1.3,0.5
		c0.6,0,1-0.2,1.3-0.5c0.3-0.4,0.4-0.8,0.4-1.5c0-1.4-0.6-2.1-1.7-2.1C297,32.3,296.4,33,296.4,34.3z"/>
	<path class="st3" d="M316.2,39.7c0.5,0,1.2-0.1,2-0.4v2.3c-0.8,0.3-1.7,0.5-2.9,0.5c-1.2,0-2.1-0.3-2.7-0.9s-0.9-1.6-0.9-2.8v-5.5
		h-1.5v-1.3l1.7-1l0.9-2.4h2v2.4h3.2v2.3h-3.2v5.5c0,0.4,0.1,0.8,0.4,1C315.4,39.6,315.7,39.7,316.2,39.7z"/>
	<path class="st3" d="M330.8,36.3c0,1.9-0.5,3.3-1.5,4.3c-1,1-2.3,1.6-4.1,1.6c-1.1,0-2.1-0.2-2.9-0.7c-0.8-0.5-1.5-1.2-1.9-2.1
		s-0.7-1.9-0.7-3.1c0-1.9,0.5-3.3,1.5-4.3c1-1,2.3-1.5,4.1-1.5c1.1,0,2.1,0.2,2.9,0.7c0.8,0.5,1.5,1.2,1.9,2
		C330.5,34.1,330.8,35.1,330.8,36.3z M322.9,36.3c0,1.1,0.2,2,0.6,2.6c0.4,0.6,1,0.9,1.8,0.9c0.8,0,1.4-0.3,1.8-0.9
		c0.4-0.6,0.5-1.4,0.5-2.6c0-1.1-0.2-2-0.5-2.5s-1-0.8-1.8-0.8c-0.8,0-1.4,0.3-1.8,0.8C323.1,34.3,322.9,35.2,322.9,36.3z"/>
	<path class="st3" d="M337.4,46.4c-0.7,0-1.3-0.1-1.9-0.2v-2.6c0.5,0.1,1,0.2,1.5,0.2c0.7,0,1.2-0.2,1.5-0.6c0.3-0.4,0.4-1.1,0.4-2
		v-14h3.2V41c0,1.7-0.4,3.1-1.2,4C340.2,45.9,339,46.4,337.4,46.4z"/>
	<path class="st3" d="M356,36.3c0,1.9-0.5,3.3-1.5,4.3c-1,1-2.3,1.6-4.1,1.6c-1.1,0-2.1-0.2-2.9-0.7c-0.8-0.5-1.5-1.2-1.9-2.1
		s-0.7-1.9-0.7-3.1c0-1.9,0.5-3.3,1.5-4.3c1-1,2.3-1.5,4.1-1.5c1.1,0,2.1,0.2,2.9,0.7c0.8,0.5,1.5,1.2,1.9,2
		C355.8,34.1,356,35.1,356,36.3z M348.1,36.3c0,1.1,0.2,2,0.6,2.6c0.4,0.6,1,0.9,1.8,0.9c0.8,0,1.4-0.3,1.8-0.9
		c0.4-0.6,0.5-1.4,0.5-2.6c0-1.1-0.2-2-0.5-2.5s-1-0.8-1.8-0.8c-0.8,0-1.4,0.3-1.8,0.8C348.3,34.3,348.1,35.2,348.1,36.3z"/>
	<path class="st3" d="M369.1,42H366v-6.6c0-1.6-0.6-2.5-1.8-2.5c-0.9,0-1.5,0.3-1.9,0.9c-0.4,0.6-0.6,1.5-0.6,2.9V42h-3.1V26.2h3.1
		v3.2c0,0.3,0,0.8-0.1,1.8l-0.1,0.9h0.2c0.7-1.1,1.8-1.7,3.3-1.7c1.3,0,2.4,0.4,3,1.1c0.7,0.7,1,1.8,1,3.1V42z"/>
	<path class="st3" d="M379.5,42l-0.6-1.5h-0.1c-0.5,0.7-1.1,1.1-1.6,1.4c-0.6,0.3-1.3,0.4-2.2,0.4c-1.1,0-2-0.3-2.6-0.9
		c-0.6-0.6-0.9-1.5-0.9-2.7c0-1.2,0.4-2.1,1.3-2.7c0.8-0.6,2.1-0.9,3.8-1l2-0.1v-0.5c0-1.2-0.6-1.7-1.8-1.7c-0.9,0-2,0.3-3.2,0.8
		l-1-2.1c1.3-0.7,2.8-1,4.4-1c1.5,0,2.7,0.3,3.5,1c0.8,0.7,1.2,1.7,1.2,3V42H379.5z M378.6,36.7l-1.2,0c-0.9,0-1.6,0.2-2,0.5
		c-0.4,0.3-0.7,0.8-0.7,1.4c0,0.9,0.5,1.3,1.5,1.3c0.7,0,1.3-0.2,1.7-0.6s0.6-1,0.6-1.6V36.7z"/>
	<path class="st3" d="M395.4,42h-3.1v-6.6c0-0.8-0.1-1.4-0.4-1.8c-0.3-0.4-0.8-0.6-1.4-0.6c-0.9,0-1.5,0.3-1.9,0.9
		c-0.4,0.6-0.6,1.5-0.6,2.9V42h-3.1V30.6h2.4l0.4,1.5h0.2c0.3-0.5,0.8-1,1.4-1.2c0.6-0.3,1.3-0.4,2.1-0.4c1.3,0,2.3,0.4,3,1.1
		c0.7,0.7,1,1.8,1,3.1V42z"/>
	<path class="st3" d="M409.1,42H406v-6.6c0-0.8-0.1-1.4-0.4-1.8c-0.3-0.4-0.8-0.6-1.4-0.6c-0.9,0-1.5,0.3-1.9,0.9
		c-0.4,0.6-0.6,1.5-0.6,2.9V42h-3.1V30.6h2.4l0.4,1.5h0.2c0.3-0.5,0.8-1,1.4-1.2c0.6-0.3,1.3-0.4,2.1-0.4c1.3,0,2.3,0.4,3,1.1
		c0.7,0.7,1,1.8,1,3.1V42z"/>
	<path class="st3" d="M417.4,42.2c-1.8,0-3.3-0.5-4.3-1.5c-1-1-1.5-2.4-1.5-4.3c0-1.9,0.5-3.4,1.4-4.4c1-1,2.3-1.6,4-1.6
		c1.6,0,2.9,0.5,3.8,1.4s1.3,2.2,1.3,3.8v1.5h-7.3c0,0.9,0.3,1.6,0.8,2.1c0.5,0.5,1.2,0.7,2.1,0.7c0.7,0,1.3-0.1,1.9-0.2
		c0.6-0.1,1.2-0.4,1.9-0.7v2.4c-0.5,0.3-1.1,0.5-1.7,0.6C419.1,42.1,418.3,42.2,417.4,42.2z M417,32.6c-0.7,0-1.2,0.2-1.5,0.6
		c-0.4,0.4-0.6,1-0.6,1.8h4.4c0-0.8-0.2-1.4-0.6-1.8C418.2,32.8,417.6,32.6,417,32.6z"/>
	<path class="st3" d="M432.5,38.6c0,1.2-0.4,2.1-1.2,2.7s-2,0.9-3.6,0.9c-0.8,0-1.5-0.1-2.1-0.2c-0.6-0.1-1.1-0.3-1.6-0.5V39
		c0.6,0.3,1.2,0.5,2,0.7c0.7,0.2,1.4,0.3,1.9,0.3c1.1,0,1.7-0.3,1.7-1c0-0.2-0.1-0.4-0.2-0.6c-0.1-0.2-0.4-0.3-0.8-0.5
		c-0.4-0.2-0.9-0.4-1.5-0.7c-0.9-0.4-1.5-0.7-1.9-1c-0.4-0.3-0.7-0.7-0.9-1.1c-0.2-0.4-0.3-0.9-0.3-1.5c0-1,0.4-1.8,1.2-2.3
		c0.8-0.6,1.9-0.8,3.3-0.8c1.4,0,2.7,0.3,4,0.9l-0.9,2.2c-0.6-0.2-1.1-0.4-1.6-0.6s-1-0.2-1.5-0.2c-0.9,0-1.4,0.2-1.4,0.7
		c0,0.3,0.1,0.5,0.4,0.7c0.3,0.2,0.9,0.5,1.9,0.9c0.9,0.4,1.5,0.7,2,1c0.4,0.3,0.7,0.7,0.9,1.1C432.4,37.6,432.5,38.1,432.5,38.6z"
		/>
	<path class="st3" d="M441.3,30.4c1.3,0,2.4,0.5,3.2,1.6s1.1,2.5,1.1,4.3c0,1.9-0.4,3.3-1.2,4.4c-0.8,1-1.9,1.5-3.2,1.5
		c-1.3,0-2.4-0.5-3.1-1.5h-0.2l-0.5,1.3H435V26.2h3.1v3.7c0,0.5,0,1.2-0.1,2.2h0.1C438.8,31,439.9,30.4,441.3,30.4z M440.3,32.9
		c-0.8,0-1.3,0.2-1.7,0.7c-0.4,0.5-0.5,1.3-0.5,2.3v0.3c0,1.2,0.2,2.1,0.5,2.6c0.4,0.5,0.9,0.8,1.7,0.8c0.6,0,1.1-0.3,1.5-0.9
		c0.4-0.6,0.6-1.4,0.6-2.6s-0.2-2-0.6-2.5C441.5,33.2,440.9,32.9,440.3,32.9z"/>
	<path class="st3" d="M456.2,42l-0.4-1.5h-0.2c-0.3,0.5-0.8,0.9-1.4,1.2c-0.6,0.3-1.3,0.4-2.1,0.4c-1.3,0-2.3-0.4-3-1.1
		c-0.7-0.7-1-1.7-1-3.1v-7.4h3.1v6.6c0,0.8,0.1,1.4,0.4,1.8s0.8,0.6,1.4,0.6c0.9,0,1.5-0.3,1.9-0.9c0.4-0.6,0.6-1.5,0.6-2.9v-5.4
		h3.1V42H456.2z"/>
	<path class="st3" d="M468.2,30.4c0.4,0,0.8,0,1,0.1l-0.2,2.9c-0.3-0.1-0.6-0.1-0.9-0.1c-1,0-1.8,0.3-2.3,0.8
		c-0.6,0.5-0.8,1.2-0.8,2.1V42h-3.1V30.6h2.4l0.5,1.9h0.2c0.4-0.6,0.8-1.2,1.4-1.5C466.9,30.6,467.5,30.4,468.2,30.4z"/>
	<path class="st3" d="M481.2,30.6v1.6l-1.8,0.5c0.3,0.5,0.5,1.1,0.5,1.7c0,1.2-0.4,2.2-1.3,2.9c-0.9,0.7-2,1-3.5,1l-0.6,0l-0.5-0.1
		c-0.3,0.2-0.5,0.5-0.5,0.8c0,0.4,0.6,0.7,1.7,0.7h1.9c1.2,0,2.2,0.3,2.9,0.8c0.7,0.5,1,1.3,1,2.4c0,1.3-0.6,2.4-1.7,3.1
		s-2.7,1.1-4.8,1.1c-1.6,0-2.8-0.3-3.6-0.8c-0.8-0.6-1.3-1.3-1.3-2.3c0-0.7,0.2-1.3,0.6-1.7c0.4-0.5,1.1-0.8,1.9-1
		c-0.3-0.1-0.6-0.4-0.8-0.7c-0.2-0.3-0.4-0.6-0.4-1c0-0.4,0.1-0.8,0.4-1.1c0.3-0.3,0.6-0.6,1.1-0.8c-0.6-0.3-1.1-0.7-1.4-1.2
		s-0.5-1.2-0.5-2c0-1.2,0.4-2.2,1.2-2.9c0.8-0.7,2-1,3.5-1c0.3,0,0.7,0,1.1,0.1c0.4,0.1,0.7,0.1,0.8,0.1H481.2z M472.4,43.6
		c0,0.4,0.2,0.8,0.6,1s1,0.4,1.7,0.4c1.1,0,2-0.2,2.6-0.5s0.9-0.7,0.9-1.3c0-0.4-0.2-0.7-0.6-0.9c-0.4-0.2-1-0.2-1.7-0.2h-1.6
		c-0.6,0-1,0.1-1.4,0.4C472.6,42.8,472.4,43.2,472.4,43.6z M473.6,34.3c0,0.6,0.1,1.1,0.4,1.5c0.3,0.4,0.7,0.5,1.3,0.5
		c0.6,0,1-0.2,1.3-0.5c0.3-0.4,0.4-0.8,0.4-1.5c0-1.4-0.6-2.1-1.7-2.1C474.1,32.3,473.6,33,473.6,34.3z"/>
	<path class="st3" d="M482.7,40.5c0-0.6,0.2-1,0.5-1.3c0.3-0.3,0.8-0.4,1.3-0.4c0.6,0,1,0.1,1.3,0.4s0.5,0.7,0.5,1.3
		c0,0.5-0.2,1-0.5,1.3c-0.3,0.3-0.7,0.5-1.3,0.5c-0.6,0-1-0.2-1.3-0.5C482.8,41.5,482.7,41.1,482.7,40.5z M485.7,37.1h-2.5l-0.5-9.9
		h3.5L485.7,37.1z"/>
</g>
<g class="st2">
	<path class="st3" d="M103.3,76.9c-0.7,0-1.2-0.1-1.7-0.3v-2c0.6,0.1,1.1,0.2,1.5,0.2c1.3,0,2-0.8,2-2.5V57.9h2.4v14.3
		c0,1.5-0.4,2.7-1.1,3.5C105.7,76.5,104.7,76.9,103.3,76.9z"/>
	<path class="st3" d="M121.1,67.1c0,1.8-0.5,3.3-1.4,4.3c-0.9,1-2.3,1.5-3.9,1.5c-1.1,0-2-0.2-2.8-0.7c-0.8-0.5-1.4-1.2-1.9-2
		c-0.4-0.9-0.7-1.9-0.7-3.1c0-1.8,0.5-3.3,1.4-4.3c0.9-1,2.3-1.5,4-1.5c1.6,0,2.9,0.5,3.9,1.6C120.7,63.9,121.1,65.3,121.1,67.1z
		 M112.9,67.1c0,2.6,1,3.9,2.9,3.9c1.9,0,2.9-1.3,2.9-3.9c0-2.6-1-3.9-2.9-3.9c-1,0-1.7,0.3-2.2,1C113.2,64.9,112.9,65.9,112.9,67.1
		z"/>
	<path class="st3" d="M123.7,58.5c0-0.4,0.1-0.8,0.4-1s0.6-0.3,1-0.3c0.4,0,0.7,0.1,1,0.3c0.2,0.2,0.4,0.6,0.4,1
		c0,0.4-0.1,0.7-0.4,1c-0.2,0.2-0.6,0.4-1,0.4c-0.4,0-0.8-0.1-1-0.4C123.9,59.2,123.7,58.9,123.7,58.5z M126.3,72.8h-2.4V61.5h2.4
		V72.8z"/>
	<path class="st3" d="M139.6,72.8h-2.4v-6.9c0-0.9-0.2-1.5-0.5-1.9s-0.9-0.6-1.7-0.6c-1,0-1.8,0.3-2.2,0.9c-0.5,0.6-0.7,1.6-0.7,3
		v5.6h-2.4V61.5h1.9l0.3,1.5h0.1c0.3-0.5,0.8-1,1.4-1.2c0.6-0.3,1.3-0.4,2.1-0.4c2.7,0,4.1,1.4,4.1,4.1V72.8z"/>
	<path class="st3" d="M156.3,72.8l-0.3-1.5h-0.1c-0.3,0.5-0.8,0.9-1.4,1.2c-0.6,0.3-1.3,0.4-2.1,0.4c-1.4,0-2.4-0.3-3.1-1
		c-0.7-0.7-1-1.7-1-3.1v-7.4h2.4v6.9c0,0.9,0.2,1.5,0.5,1.9c0.4,0.4,0.9,0.6,1.7,0.6c1,0,1.7-0.3,2.2-0.9c0.5-0.6,0.7-1.6,0.7-3
		v-5.6h2.4v11.3H156.3z"/>
	<path class="st3" d="M169.2,69.5c0,1.1-0.4,1.9-1.2,2.5c-0.8,0.6-1.9,0.9-3.4,0.9c-1.5,0-2.7-0.2-3.6-0.7v-2.1
		c1.3,0.6,2.6,0.9,3.7,0.9c1.5,0,2.2-0.4,2.2-1.3c0-0.3-0.1-0.5-0.2-0.7c-0.2-0.2-0.4-0.4-0.8-0.6c-0.4-0.2-0.9-0.4-1.6-0.7
		c-1.3-0.5-2.2-1-2.6-1.5c-0.5-0.5-0.7-1.2-0.7-2c0-1,0.4-1.7,1.2-2.2c0.8-0.5,1.8-0.8,3.2-0.8c1.3,0,2.6,0.3,3.8,0.8l-0.8,1.8
		c-1.2-0.5-2.2-0.8-3.1-0.8c-1.3,0-1.9,0.4-1.9,1.1c0,0.4,0.2,0.7,0.5,0.9c0.3,0.2,1,0.6,2.2,1c0.9,0.4,1.6,0.7,2,1s0.7,0.6,0.9,1
		C169.1,68.5,169.2,69,169.2,69.5z"/>
	<path class="st3" d="M184.2,72.8l-0.5-1.6h-0.1c-0.5,0.7-1.1,1.2-1.6,1.4s-1.3,0.4-2.1,0.4c-1.1,0-2-0.3-2.6-0.9s-0.9-1.4-0.9-2.5
		c0-1.2,0.4-2,1.3-2.6c0.9-0.6,2.2-0.9,3.9-1l1.9-0.1v-0.6c0-0.7-0.2-1.3-0.5-1.6s-0.9-0.5-1.6-0.5c-0.6,0-1.1,0.1-1.7,0.3
		c-0.5,0.2-1,0.4-1.5,0.6l-0.8-1.7c0.6-0.3,1.3-0.6,2-0.7c0.7-0.2,1.4-0.2,2.1-0.2c1.4,0,2.5,0.3,3.2,0.9c0.7,0.6,1.1,1.6,1.1,2.9
		v7.6H184.2z M180.7,71.1c0.9,0,1.6-0.2,2.1-0.7c0.5-0.5,0.8-1.2,0.8-2v-1l-1.4,0.1c-1.1,0-1.9,0.2-2.5,0.6
		c-0.5,0.3-0.8,0.8-0.8,1.5c0,0.5,0.1,0.9,0.4,1.2C179.6,71,180.1,71.1,180.7,71.1z"/>
	<path class="st3" d="M193.5,71c0.6,0,1.2-0.1,1.8-0.3v1.8c-0.3,0.1-0.6,0.2-1,0.3c-0.4,0.1-0.9,0.1-1.3,0.1c-2.3,0-3.4-1.2-3.4-3.6
		v-6.1H188v-1.1l1.6-0.9l0.8-2.4h1.5v2.5h3.2v1.8h-3.2v6c0,0.6,0.1,1,0.4,1.3C192.6,70.9,193,71,193.5,71z"/>
	<path class="st3" d="M212.9,67.1c0,1.8-0.5,3.3-1.4,4.3c-0.9,1-2.3,1.5-3.9,1.5c-1.1,0-2-0.2-2.8-0.7c-0.8-0.5-1.4-1.2-1.9-2
		c-0.4-0.9-0.7-1.9-0.7-3.1c0-1.8,0.5-3.3,1.4-4.3c0.9-1,2.3-1.5,4-1.5c1.6,0,2.9,0.5,3.9,1.6C212.4,63.9,212.9,65.3,212.9,67.1z
		 M204.7,67.1c0,2.6,1,3.9,2.9,3.9c1.9,0,2.9-1.3,2.9-3.9c0-2.6-1-3.9-2.9-3.9c-1,0-1.7,0.3-2.2,1C204.9,64.9,204.7,65.9,204.7,67.1
		z"/>
	<path class="st3" d="M223.6,72.8l-0.3-1.5h-0.1c-0.3,0.5-0.8,0.9-1.4,1.2c-0.6,0.3-1.3,0.4-2.1,0.4c-1.4,0-2.4-0.3-3.1-1
		c-0.7-0.7-1-1.7-1-3.1v-7.4h2.4v6.9c0,0.9,0.2,1.5,0.5,1.9c0.4,0.4,0.9,0.6,1.7,0.6c1,0,1.7-0.3,2.2-0.9c0.5-0.6,0.7-1.6,0.7-3
		v-5.6h2.4v11.3H223.6z"/>
	<path class="st3" d="M234.6,61.3c0.5,0,0.9,0,1.2,0.1l-0.2,2.2c-0.3-0.1-0.7-0.1-1.1-0.1c-1,0-1.7,0.3-2.3,0.9s-0.9,1.4-0.9,2.4
		v5.9h-2.4V61.5h1.9l0.3,2h0.1c0.4-0.7,0.9-1.2,1.5-1.6C233.2,61.5,233.9,61.3,234.6,61.3z"/>
	<path class="st3" d="M248.9,63.3h-2.7v9.4h-2.4v-9.4h-1.9v-1.1l1.9-0.7v-0.7c0-1.3,0.3-2.3,0.9-3s1.6-1,2.9-1
		c0.8,0,1.7,0.1,2.5,0.4l-0.6,1.8c-0.6-0.2-1.2-0.3-1.7-0.3c-0.5,0-0.9,0.2-1.2,0.5c-0.2,0.3-0.4,0.8-0.4,1.5v0.7h2.7V63.3z
		 M250.7,58.5c0-0.4,0.1-0.8,0.4-1s0.6-0.3,1-0.3c0.4,0,0.7,0.1,1,0.3c0.2,0.2,0.4,0.6,0.4,1c0,0.4-0.1,0.7-0.4,1
		c-0.2,0.2-0.6,0.4-1,0.4c-0.4,0-0.8-0.1-1-0.4C250.8,59.2,250.7,58.9,250.7,58.5z M253.2,72.8h-2.4V61.5h2.4V72.8z"/>
	<path class="st3" d="M262.4,61.3c0.5,0,0.9,0,1.2,0.1l-0.2,2.2c-0.3-0.1-0.7-0.1-1.1-0.1c-1,0-1.7,0.3-2.3,0.9s-0.9,1.4-0.9,2.4
		v5.9h-2.4V61.5h1.9l0.3,2h0.1c0.4-0.7,0.9-1.2,1.5-1.6C261,61.5,261.7,61.3,262.4,61.3z"/>
	<path class="st3" d="M273.2,69.5c0,1.1-0.4,1.9-1.2,2.5c-0.8,0.6-1.9,0.9-3.4,0.9c-1.5,0-2.7-0.2-3.6-0.7v-2.1
		c1.3,0.6,2.6,0.9,3.7,0.9c1.5,0,2.2-0.4,2.2-1.3c0-0.3-0.1-0.5-0.2-0.7c-0.2-0.2-0.4-0.4-0.8-0.6c-0.4-0.2-0.9-0.4-1.6-0.7
		c-1.3-0.5-2.2-1-2.6-1.5c-0.5-0.5-0.7-1.2-0.7-2c0-1,0.4-1.7,1.2-2.2c0.8-0.5,1.8-0.8,3.2-0.8c1.3,0,2.6,0.3,3.8,0.8l-0.8,1.8
		c-1.2-0.5-2.2-0.8-3.1-0.8c-1.3,0-1.9,0.4-1.9,1.1c0,0.4,0.2,0.7,0.5,0.9c0.3,0.2,1,0.6,2.2,1c0.9,0.4,1.6,0.7,2,1s0.7,0.6,0.9,1
		C273.1,68.5,273.2,69,273.2,69.5z"/>
	<path class="st3" d="M280,71c0.6,0,1.2-0.1,1.8-0.3v1.8c-0.3,0.1-0.6,0.2-1,0.3c-0.4,0.1-0.9,0.1-1.3,0.1c-2.3,0-3.4-1.2-3.4-3.6
		v-6.1h-1.5v-1.1l1.6-0.9L277,59h1.5v2.5h3.2v1.8h-3.2v6c0,0.6,0.1,1,0.4,1.3C279.1,70.9,279.5,71,280,71z"/>
	<path class="st3" d="M294.3,73c-1.8,0-3.1-0.5-4.1-1.5c-1-1-1.5-2.4-1.5-4.2c0-1.8,0.5-3.3,1.4-4.3c0.9-1.1,2.2-1.6,3.8-1.6
		c1.5,0,2.7,0.5,3.5,1.4c0.9,0.9,1.3,2.1,1.3,3.7v1.3h-7.5c0,1.1,0.3,1.9,0.9,2.5s1.3,0.9,2.4,0.9c0.7,0,1.3-0.1,1.9-0.2
		c0.6-0.1,1.2-0.3,1.8-0.6v1.9c-0.6,0.3-1.2,0.5-1.8,0.6C295.8,72.9,295.1,73,294.3,73z M293.9,63.1c-0.8,0-1.4,0.2-1.8,0.7
		c-0.5,0.5-0.7,1.2-0.8,2.1h5.1c0-0.9-0.2-1.6-0.7-2.1S294.7,63.1,293.9,63.1z"/>
	<path class="st3" d="M304,72.8l-4.3-11.3h2.5l2.3,6.5c0.4,1.1,0.6,2,0.7,2.7h0.1c0.1-0.5,0.3-1.4,0.7-2.7l2.3-6.5h2.5l-4.3,11.3
		H304z"/>
	<path class="st3" d="M317.5,73c-1.8,0-3.1-0.5-4.1-1.5c-1-1-1.5-2.4-1.5-4.2c0-1.8,0.5-3.3,1.4-4.3c0.9-1.1,2.2-1.6,3.8-1.6
		c1.5,0,2.7,0.5,3.5,1.4c0.9,0.9,1.3,2.1,1.3,3.7v1.3h-7.5c0,1.1,0.3,1.9,0.9,2.5s1.3,0.9,2.4,0.9c0.7,0,1.3-0.1,1.9-0.2
		c0.6-0.1,1.2-0.3,1.8-0.6v1.9c-0.6,0.3-1.2,0.5-1.8,0.6C319,72.9,318.3,73,317.5,73z M317.1,63.1c-0.8,0-1.4,0.2-1.8,0.7
		c-0.5,0.5-0.7,1.2-0.8,2.1h5.1c0-0.9-0.2-1.6-0.7-2.1S317.8,63.1,317.1,63.1z"/>
	<path class="st3" d="M330.3,61.3c0.5,0,0.9,0,1.2,0.1l-0.2,2.2c-0.3-0.1-0.7-0.1-1.1-0.1c-1,0-1.7,0.3-2.3,0.9s-0.9,1.4-0.9,2.4
		v5.9h-2.4V61.5h1.9l0.3,2h0.1c0.4-0.7,0.9-1.2,1.5-1.6C329,61.5,329.6,61.3,330.3,61.3z"/>
	<path class="st3" d="M345.6,59.7c-1.4,0-2.5,0.5-3.3,1.5c-0.8,1-1.2,2.4-1.2,4.1c0,1.8,0.4,3.2,1.2,4.1c0.8,0.9,1.9,1.4,3.3,1.4
		c0.6,0,1.2-0.1,1.8-0.2c0.6-0.1,1.2-0.3,1.8-0.5v2.1c-1.2,0.4-2.5,0.7-4,0.7c-2.2,0-3.9-0.7-5-2c-1.2-1.3-1.8-3.2-1.8-5.7
		c0-1.5,0.3-2.9,0.9-4.1c0.6-1.2,1.4-2,2.5-2.7c1.1-0.6,2.3-0.9,3.8-0.9c1.5,0,2.9,0.3,4.2,1l-0.9,2c-0.5-0.2-1-0.4-1.6-0.6
		C346.8,59.8,346.2,59.7,345.6,59.7z"/>
	<path class="st3" d="M359.3,72.8l-0.5-1.6h-0.1c-0.5,0.7-1.1,1.2-1.6,1.4S355.8,73,355,73c-1.1,0-2-0.3-2.6-0.9s-0.9-1.4-0.9-2.5
		c0-1.2,0.4-2,1.3-2.6c0.9-0.6,2.2-0.9,3.9-1l1.9-0.1v-0.6c0-0.7-0.2-1.3-0.5-1.6s-0.9-0.5-1.6-0.5c-0.6,0-1.1,0.1-1.7,0.3
		c-0.5,0.2-1,0.4-1.5,0.6l-0.8-1.7c0.6-0.3,1.3-0.6,2-0.7c0.7-0.2,1.4-0.2,2.1-0.2c1.4,0,2.5,0.3,3.2,0.9c0.7,0.6,1.1,1.6,1.1,2.9
		v7.6H359.3z M355.7,71.1c0.9,0,1.6-0.2,2.1-0.7c0.5-0.5,0.8-1.2,0.8-2v-1l-1.4,0.1c-1.1,0-1.9,0.2-2.5,0.6
		c-0.5,0.3-0.8,0.8-0.8,1.5c0,0.5,0.1,0.9,0.4,1.2C354.7,71,355.1,71.1,355.7,71.1z"/>
	<path class="st3" d="M373.8,72.8h-2.4v-6.9c0-0.9-0.2-1.5-0.5-1.9c-0.3-0.4-0.8-0.6-1.5-0.6c-0.9,0-1.6,0.3-2,0.9
		c-0.4,0.6-0.6,1.6-0.6,3v5.6h-2.4V61.5h1.9l0.3,1.5h0.1c0.3-0.5,0.8-1,1.4-1.2c0.6-0.3,1.2-0.4,2-0.4c1.7,0,2.9,0.6,3.4,1.8h0.2
		c0.3-0.6,0.8-1,1.4-1.3c0.6-0.3,1.3-0.5,2.1-0.5c1.3,0,2.3,0.3,2.9,1s0.9,1.7,0.9,3.1v7.3h-2.4v-6.9c0-0.9-0.2-1.5-0.5-1.9
		c-0.3-0.4-0.8-0.6-1.5-0.6c-0.9,0-1.6,0.3-2,0.9c-0.4,0.6-0.6,1.5-0.6,2.7V72.8z"/>
	<path class="st3" d="M392.2,72.8l-0.3-1.5h-0.1c-0.3,0.5-0.8,0.9-1.4,1.2c-0.6,0.3-1.3,0.4-2.1,0.4c-1.4,0-2.4-0.3-3.1-1
		c-0.7-0.7-1-1.7-1-3.1v-7.4h2.4v6.9c0,0.9,0.2,1.5,0.5,1.9c0.4,0.4,0.9,0.6,1.7,0.6c1,0,1.7-0.3,2.2-0.9c0.5-0.6,0.7-1.6,0.7-3
		v-5.6h2.4v11.3H392.2z"/>
	<path class="st3" d="M407.4,72.8H405v-6.9c0-0.9-0.2-1.5-0.5-1.9s-0.9-0.6-1.7-0.6c-1,0-1.8,0.3-2.2,0.9c-0.5,0.6-0.7,1.6-0.7,3
		v5.6h-2.4V61.5h1.9l0.3,1.5h0.1c0.3-0.5,0.8-1,1.4-1.2c0.6-0.3,1.3-0.4,2.1-0.4c2.7,0,4.1,1.4,4.1,4.1V72.8z"/>
	<path class="st3" d="M414.5,73c-1.4,0-2.5-0.5-3.3-1.5c-0.8-1-1.2-2.4-1.2-4.3c0-1.8,0.4-3.3,1.2-4.3c0.8-1,1.9-1.5,3.3-1.5
		c1.5,0,2.6,0.5,3.4,1.6h0.1c-0.1-0.8-0.2-1.4-0.2-1.9v-4.1h2.4v15.8h-1.9l-0.4-1.5h-0.1C417.1,72.4,416,73,414.5,73z M415.2,71
		c1,0,1.7-0.3,2.1-0.8c0.4-0.6,0.7-1.5,0.7-2.7v-0.3c0-1.4-0.2-2.4-0.7-3c-0.5-0.6-1.2-0.9-2.2-0.9c-0.8,0-1.5,0.3-1.9,1
		s-0.7,1.7-0.7,2.9c0,1.2,0.2,2.2,0.7,2.9C413.6,70.7,414.3,71,415.2,71z"/>
	<path class="st3" d="M430.8,72.8l-0.5-1.6h-0.1c-0.5,0.7-1.1,1.2-1.6,1.4s-1.3,0.4-2.1,0.4c-1.1,0-2-0.3-2.6-0.9s-0.9-1.4-0.9-2.5
		c0-1.2,0.4-2,1.3-2.6c0.9-0.6,2.2-0.9,3.9-1l1.9-0.1v-0.6c0-0.7-0.2-1.3-0.5-1.6s-0.9-0.5-1.6-0.5c-0.6,0-1.1,0.1-1.7,0.3
		c-0.5,0.2-1,0.4-1.5,0.6l-0.8-1.7c0.6-0.3,1.3-0.6,2-0.7c0.7-0.2,1.4-0.2,2.1-0.2c1.4,0,2.5,0.3,3.2,0.9c0.7,0.6,1.1,1.6,1.1,2.9
		v7.6H430.8z M427.2,71.1c0.9,0,1.6-0.2,2.1-0.7c0.5-0.5,0.8-1.2,0.8-2v-1l-1.4,0.1c-1.1,0-1.9,0.2-2.5,0.6
		c-0.5,0.3-0.8,0.8-0.8,1.5c0,0.5,0.1,0.9,0.4,1.2C426.2,71,426.6,71.1,427.2,71.1z"/>
	<path class="st3" d="M453.6,65.2c0,2.5-0.7,4.3-2,5.6c-1.4,1.3-3.3,2-5.9,2h-4.2V57.9h4.6c2.4,0,4.2,0.6,5.5,1.9
		S453.6,62.9,453.6,65.2z M451,65.3c0-3.6-1.7-5.3-5-5.3h-2.1v10.8h1.7C449.3,70.7,451,68.9,451,65.3z"/>
	<path class="st3" d="M463.6,72.8l-0.5-1.6H463c-0.5,0.7-1.1,1.2-1.6,1.4s-1.3,0.4-2.1,0.4c-1.1,0-2-0.3-2.6-0.9s-0.9-1.4-0.9-2.5
		c0-1.2,0.4-2,1.3-2.6c0.9-0.6,2.2-0.9,3.9-1l1.9-0.1v-0.6c0-0.7-0.2-1.3-0.5-1.6s-0.9-0.5-1.6-0.5c-0.6,0-1.1,0.1-1.7,0.3
		c-0.5,0.2-1,0.4-1.5,0.6l-0.8-1.7c0.6-0.3,1.3-0.6,2-0.7c0.7-0.2,1.4-0.2,2.1-0.2c1.4,0,2.5,0.3,3.2,0.9c0.7,0.6,1.1,1.6,1.1,2.9
		v7.6H463.6z M460,71.1c0.9,0,1.6-0.2,2.1-0.7c0.5-0.5,0.8-1.2,0.8-2v-1l-1.4,0.1c-1.1,0-1.9,0.2-2.5,0.6c-0.5,0.3-0.8,0.8-0.8,1.5
		c0,0.5,0.1,0.9,0.4,1.2C459,71,459.4,71.1,460,71.1z"/>
	<path class="st3" d="M466.9,61.5h2.6l2.3,6.4c0.3,0.9,0.6,1.8,0.7,2.6h0.1c0.1-0.4,0.2-0.8,0.3-1.4s1-3.1,2.6-7.6h2.6l-4.8,12.8
		c-0.9,2.3-2.3,3.5-4.4,3.5c-0.5,0-1-0.1-1.5-0.2v-1.9c0.4,0.1,0.8,0.1,1.2,0.1c1.2,0,2-0.7,2.4-2l0.4-1.1L466.9,61.5z"/>
	<path class="st3" d="M485.1,58.5c0-0.4,0.1-0.8,0.4-1s0.6-0.3,1-0.3c0.4,0,0.7,0.1,1,0.3c0.2,0.2,0.4,0.6,0.4,1
		c0,0.4-0.1,0.7-0.4,1c-0.2,0.2-0.6,0.4-1,0.4c-0.4,0-0.8-0.1-1-0.4C485.2,59.2,485.1,58.9,485.1,58.5z M487.6,72.8h-2.4V61.5h2.4
		V72.8z"/>
	<path class="st3" d="M501,72.8h-2.4v-6.9c0-0.9-0.2-1.5-0.5-1.9s-0.9-0.6-1.7-0.6c-1,0-1.8,0.3-2.2,0.9c-0.5,0.6-0.7,1.6-0.7,3v5.6
		h-2.4V61.5h1.9l0.3,1.5h0.1c0.3-0.5,0.8-1,1.4-1.2c0.6-0.3,1.3-0.4,2.1-0.4c2.7,0,4.1,1.4,4.1,4.1V72.8z"/>
	<path class="st3" d="M508.1,76.9c-0.7,0-1.2-0.1-1.7-0.3v-2c0.6,0.1,1.1,0.2,1.5,0.2c1.3,0,2-0.8,2-2.5V57.9h2.4v14.3
		c0,1.5-0.4,2.7-1.1,3.5C510.5,76.5,509.5,76.9,508.1,76.9z"/>
	<path class="st3" d="M525.9,67.1c0,1.8-0.5,3.3-1.4,4.3c-0.9,1-2.3,1.5-3.9,1.5c-1.1,0-2-0.2-2.8-0.7c-0.8-0.5-1.4-1.2-1.9-2
		c-0.4-0.9-0.7-1.9-0.7-3.1c0-1.8,0.5-3.3,1.4-4.3c0.9-1,2.3-1.5,4-1.5c1.6,0,2.9,0.5,3.9,1.6C525.5,63.9,525.9,65.3,525.9,67.1z
		 M517.7,67.1c0,2.6,1,3.9,2.9,3.9c1.9,0,2.9-1.3,2.9-3.9c0-2.6-1-3.9-2.9-3.9c-1,0-1.7,0.3-2.2,1C518,64.9,517.7,65.9,517.7,67.1z"
		/>
	<path class="st3" d="M538.6,72.8h-2.4v-6.9c0-0.9-0.2-1.5-0.5-1.9s-0.9-0.6-1.7-0.6c-1,0-1.7,0.3-2.2,0.9c-0.5,0.6-0.7,1.6-0.7,3
		v5.6h-2.4V56.9h2.4v4c0,0.6,0,1.3-0.1,2.1h0.2c0.3-0.5,0.8-1,1.4-1.3s1.3-0.4,2-0.4c2.7,0,4.1,1.4,4.1,4.1V72.8z"/>
	<path class="st3" d="M549,72.8l-0.5-1.6h-0.1c-0.5,0.7-1.1,1.2-1.6,1.4s-1.3,0.4-2.1,0.4c-1.1,0-2-0.3-2.6-0.9s-0.9-1.4-0.9-2.5
		c0-1.2,0.4-2,1.3-2.6c0.9-0.6,2.2-0.9,3.9-1l1.9-0.1v-0.6c0-0.7-0.2-1.3-0.5-1.6s-0.9-0.5-1.6-0.5c-0.6,0-1.1,0.1-1.7,0.3
		c-0.5,0.2-1,0.4-1.5,0.6l-0.8-1.7c0.6-0.3,1.3-0.6,2-0.7c0.7-0.2,1.4-0.2,2.1-0.2c1.4,0,2.5,0.3,3.2,0.9c0.7,0.6,1.1,1.6,1.1,2.9
		v7.6H549z M545.4,71.1c0.9,0,1.6-0.2,2.1-0.7c0.5-0.5,0.8-1.2,0.8-2v-1l-1.4,0.1c-1.1,0-1.9,0.2-2.5,0.6c-0.5,0.3-0.8,0.8-0.8,1.5
		c0,0.5,0.1,0.9,0.4,1.2C544.4,71,544.8,71.1,545.4,71.1z"/>
	<path class="st3" d="M563.9,72.8h-2.4v-6.9c0-0.9-0.2-1.5-0.5-1.9s-0.9-0.6-1.7-0.6c-1,0-1.8,0.3-2.2,0.9c-0.5,0.6-0.7,1.6-0.7,3
		v5.6H554V61.5h1.9l0.3,1.5h0.1c0.3-0.5,0.8-1,1.4-1.2c0.6-0.3,1.3-0.4,2.1-0.4c2.7,0,4.1,1.4,4.1,4.1V72.8z"/>
	<path class="st3" d="M577.2,72.8h-2.4v-6.9c0-0.9-0.2-1.5-0.5-1.9s-0.9-0.6-1.7-0.6c-1,0-1.8,0.3-2.2,0.9c-0.5,0.6-0.7,1.6-0.7,3
		v5.6h-2.4V61.5h1.9l0.3,1.5h0.1c0.3-0.5,0.8-1,1.4-1.2c0.6-0.3,1.3-0.4,2.1-0.4c2.7,0,4.1,1.4,4.1,4.1V72.8z"/>
	<path class="st3" d="M585.4,73c-1.8,0-3.1-0.5-4.1-1.5c-1-1-1.5-2.4-1.5-4.2c0-1.8,0.5-3.3,1.4-4.3c0.9-1.1,2.2-1.6,3.8-1.6
		c1.5,0,2.7,0.5,3.5,1.4c0.9,0.9,1.3,2.1,1.3,3.7v1.3h-7.5c0,1.1,0.3,1.9,0.9,2.5s1.3,0.9,2.4,0.9c0.7,0,1.3-0.1,1.9-0.2
		c0.6-0.1,1.2-0.3,1.8-0.6v1.9c-0.6,0.3-1.2,0.5-1.8,0.6S586.2,73,585.4,73z M585,63.1c-0.8,0-1.4,0.2-1.8,0.7
		c-0.5,0.5-0.7,1.2-0.8,2.1h5.1c0-0.9-0.2-1.6-0.7-2.1S585.7,63.1,585,63.1z"/>
	<path class="st3" d="M600.1,69.5c0,1.1-0.4,1.9-1.2,2.5c-0.8,0.6-1.9,0.9-3.4,0.9c-1.5,0-2.7-0.2-3.6-0.7v-2.1
		c1.3,0.6,2.6,0.9,3.7,0.9c1.5,0,2.2-0.4,2.2-1.3c0-0.3-0.1-0.5-0.2-0.7c-0.2-0.2-0.4-0.4-0.8-0.6s-0.9-0.4-1.6-0.7
		c-1.3-0.5-2.2-1-2.6-1.5c-0.5-0.5-0.7-1.2-0.7-2c0-1,0.4-1.7,1.2-2.2c0.8-0.5,1.8-0.8,3.2-0.8c1.3,0,2.6,0.3,3.8,0.8l-0.8,1.8
		c-1.2-0.5-2.2-0.8-3.1-0.8c-1.3,0-1.9,0.4-1.9,1.1c0,0.4,0.2,0.7,0.5,0.9c0.3,0.2,1,0.6,2.2,1c0.9,0.4,1.6,0.7,2,1s0.7,0.6,0.9,1
		C600,68.5,600.1,69,600.1,69.5z"/>
	<path class="st3" d="M608.4,61.3c1.4,0,2.5,0.5,3.3,1.5s1.2,2.4,1.2,4.3c0,1.8-0.4,3.3-1.2,4.3s-1.9,1.5-3.3,1.5
		c-1.4,0-2.5-0.5-3.3-1.5h-0.2l-0.4,1.3h-1.8V56.9h2.4v3.8c0,0.3,0,0.7,0,1.2s0,0.9-0.1,1h0.1C605.8,61.9,606.9,61.3,608.4,61.3z
		 M607.8,63.2c-1,0-1.7,0.3-2.1,0.9c-0.4,0.6-0.6,1.5-0.7,2.8v0.2c0,1.4,0.2,2.4,0.7,3s1.1,0.9,2.1,0.9c0.8,0,1.5-0.3,1.9-1
		c0.4-0.7,0.7-1.6,0.7-2.9C610.4,64.5,609.6,63.2,607.8,63.2z"/>
	<path class="st3" d="M623.6,72.8l-0.3-1.5h-0.1c-0.3,0.5-0.8,0.9-1.4,1.2s-1.3,0.4-2.1,0.4c-1.4,0-2.4-0.3-3.1-1
		c-0.7-0.7-1-1.7-1-3.1v-7.4h2.4v6.9c0,0.9,0.2,1.5,0.5,1.9c0.4,0.4,0.9,0.6,1.7,0.6c1,0,1.7-0.3,2.2-0.9c0.5-0.6,0.7-1.6,0.7-3
		v-5.6h2.4v11.3H623.6z"/>
	<path class="st3" d="M634.6,61.3c0.5,0,0.9,0,1.2,0.1l-0.2,2.2c-0.3-0.1-0.7-0.1-1.1-0.1c-1,0-1.7,0.3-2.3,0.9
		c-0.6,0.6-0.9,1.4-0.9,2.4v5.9h-2.4V61.5h1.9l0.3,2h0.1c0.4-0.7,0.9-1.2,1.5-1.6C633.3,61.5,633.9,61.3,634.6,61.3z"/>
	<path class="st3" d="M647.4,61.5v1.3l-1.9,0.4c0.2,0.2,0.3,0.5,0.4,0.9c0.1,0.3,0.2,0.7,0.2,1.1c0,1.2-0.4,2.1-1.2,2.7
		c-0.8,0.7-1.9,1-3.3,1c-0.4,0-0.7,0-1-0.1c-0.5,0.3-0.8,0.7-0.8,1.1c0,0.3,0.1,0.5,0.4,0.6c0.2,0.1,0.7,0.2,1.3,0.2h2
		c1.2,0,2.2,0.3,2.8,0.8c0.6,0.5,1,1.3,1,2.3c0,1.3-0.5,2.3-1.6,3c-1.1,0.7-2.6,1-4.6,1c-1.5,0-2.7-0.3-3.5-0.8s-1.2-1.3-1.2-2.3
		c0-0.7,0.2-1.3,0.7-1.7c0.4-0.5,1-0.8,1.8-1c-0.3-0.1-0.6-0.4-0.8-0.7c-0.2-0.3-0.3-0.6-0.3-1c0-0.4,0.1-0.8,0.4-1.1
		c0.2-0.3,0.6-0.6,1.1-0.9c-0.6-0.3-1.1-0.7-1.4-1.2s-0.5-1.2-0.5-2c0-1.2,0.4-2.2,1.2-2.8s1.9-1,3.3-1c0.3,0,0.7,0,1,0.1
		s0.6,0.1,0.8,0.1H647.4z M638.6,74.5c0,0.5,0.2,0.9,0.7,1.2s1.1,0.4,2,0.4c1.3,0,2.3-0.2,2.9-0.6c0.6-0.4,1-0.9,1-1.5
		c0-0.5-0.2-0.8-0.5-1s-1-0.3-2-0.3h-1.8c-0.7,0-1.2,0.2-1.6,0.5C638.8,73.5,638.6,74,638.6,74.5z M639.6,65.1
		c0,0.7,0.2,1.2,0.5,1.6s0.9,0.6,1.6,0.6c1.4,0,2.1-0.7,2.1-2.2c0-0.7-0.2-1.3-0.5-1.7c-0.3-0.4-0.9-0.6-1.6-0.6
		c-0.7,0-1.2,0.2-1.6,0.6S639.6,64.4,639.6,65.1z"/>
	<path class="st3" d="M664.9,67.1c0,1.8-0.5,3.3-1.4,4.3c-0.9,1-2.3,1.5-3.9,1.5c-1.1,0-2-0.2-2.8-0.7c-0.8-0.5-1.4-1.2-1.9-2
		s-0.7-1.9-0.7-3.1c0-1.8,0.5-3.3,1.4-4.3c0.9-1,2.3-1.5,4-1.5c1.6,0,2.9,0.5,3.9,1.6C664.4,63.9,664.9,65.3,664.9,67.1z
		 M656.7,67.1c0,2.6,1,3.9,2.9,3.9c1.9,0,2.9-1.3,2.9-3.9c0-2.6-1-3.9-2.9-3.9c-1,0-1.7,0.3-2.2,1C656.9,64.9,656.7,65.9,656.7,67.1
		z"/>
	<path class="st3" d="M677.6,72.8h-2.4v-6.9c0-0.9-0.2-1.5-0.5-1.9s-0.9-0.6-1.7-0.6c-1,0-1.8,0.3-2.2,0.9c-0.5,0.6-0.7,1.6-0.7,3
		v5.6h-2.4V61.5h1.9l0.3,1.5h0.1c0.3-0.5,0.8-1,1.4-1.2s1.3-0.4,2.1-0.4c2.7,0,4.1,1.4,4.1,4.1V72.8z"/>
	<path class="st3" d="M699,72.8h-3l-7.3-11.9h-0.1l0.1,0.7c0.1,1.3,0.1,2.4,0.1,3.5v7.7h-2.2V57.9h3l7.3,11.8h0.1
		c0-0.2,0-0.7-0.1-1.7c0-1-0.1-1.7-0.1-2.3v-7.8h2.2V72.8z"/>
	<path class="st3" d="M712.6,67.1c0,1.8-0.5,3.3-1.4,4.3c-0.9,1-2.3,1.5-3.9,1.5c-1.1,0-2-0.2-2.8-0.7c-0.8-0.5-1.4-1.2-1.9-2
		c-0.4-0.9-0.7-1.9-0.7-3.1c0-1.8,0.5-3.3,1.4-4.3c0.9-1,2.3-1.5,4-1.5c1.6,0,2.9,0.5,3.9,1.6S712.6,65.3,712.6,67.1z M704.4,67.1
		c0,2.6,1,3.9,2.9,3.9c1.9,0,2.9-1.3,2.9-3.9c0-2.6-1-3.9-2.9-3.9c-1,0-1.7,0.3-2.2,1S704.4,65.9,704.4,67.1z"/>
	<path class="st3" d="M717.9,72.8l-4.3-11.3h2.5l2.3,6.5c0.4,1.1,0.6,2,0.7,2.7h0.1c0.1-0.5,0.3-1.4,0.7-2.7l2.3-6.5h2.5l-4.3,11.3
		H717.9z"/>
	<path class="st3" d="M731.5,73c-1.8,0-3.1-0.5-4.1-1.5c-1-1-1.5-2.4-1.5-4.2c0-1.8,0.5-3.3,1.4-4.3c0.9-1.1,2.2-1.6,3.8-1.6
		c1.5,0,2.7,0.5,3.5,1.4c0.9,0.9,1.3,2.1,1.3,3.7v1.3h-7.5c0,1.1,0.3,1.9,0.9,2.5s1.3,0.9,2.4,0.9c0.7,0,1.3-0.1,1.9-0.2
		c0.6-0.1,1.2-0.3,1.8-0.6v1.9c-0.6,0.3-1.2,0.5-1.8,0.6C732.9,72.9,732.2,73,731.5,73z M731,63.1c-0.8,0-1.4,0.2-1.8,0.7
		c-0.5,0.5-0.7,1.2-0.8,2.1h5.1c0-0.9-0.2-1.6-0.7-2.1S731.8,63.1,731,63.1z"/>
	<path class="st3" d="M748,72.8h-2.4v-6.9c0-0.9-0.2-1.5-0.5-1.9c-0.3-0.4-0.8-0.6-1.5-0.6c-0.9,0-1.6,0.3-2,0.9s-0.6,1.6-0.6,3v5.6
		h-2.4V61.5h1.9l0.3,1.5h0.1c0.3-0.5,0.8-1,1.4-1.2c0.6-0.3,1.2-0.4,2-0.4c1.7,0,2.9,0.6,3.4,1.8h0.2c0.3-0.6,0.8-1,1.4-1.3
		c0.6-0.3,1.3-0.5,2.1-0.5c1.3,0,2.3,0.3,2.9,1s0.9,1.7,0.9,3.1v7.3h-2.4v-6.9c0-0.9-0.2-1.5-0.5-1.9c-0.3-0.4-0.8-0.6-1.5-0.6
		c-0.9,0-1.6,0.3-2,0.9c-0.4,0.6-0.6,1.5-0.6,2.7V72.8z"/>
	<path class="st3" d="M764.2,61.3c1.4,0,2.5,0.5,3.3,1.5s1.2,2.4,1.2,4.3c0,1.8-0.4,3.3-1.2,4.3c-0.8,1-1.9,1.5-3.3,1.5
		c-1.4,0-2.5-0.5-3.3-1.5h-0.2l-0.4,1.3h-1.8V56.9h2.4v3.8c0,0.3,0,0.7,0,1.2c0,0.5,0,0.9-0.1,1h0.1
		C761.6,61.9,762.8,61.3,764.2,61.3z M763.6,63.2c-1,0-1.7,0.3-2.1,0.9c-0.4,0.6-0.6,1.5-0.7,2.8v0.2c0,1.4,0.2,2.4,0.7,3
		s1.1,0.9,2.1,0.9c0.8,0,1.5-0.3,1.9-1s0.7-1.6,0.7-2.9C766.2,64.5,765.4,63.2,763.6,63.2z"/>
	<path class="st3" d="M776.4,73c-1.8,0-3.1-0.5-4.1-1.5c-1-1-1.5-2.4-1.5-4.2c0-1.8,0.5-3.3,1.4-4.3c0.9-1.1,2.2-1.6,3.8-1.6
		c1.5,0,2.7,0.5,3.5,1.4c0.9,0.9,1.3,2.1,1.3,3.7v1.3h-7.5c0,1.1,0.3,1.9,0.9,2.5s1.3,0.9,2.4,0.9c0.7,0,1.3-0.1,1.9-0.2
		c0.6-0.1,1.2-0.3,1.8-0.6v1.9c-0.6,0.3-1.2,0.5-1.8,0.6C777.8,72.9,777.2,73,776.4,73z M776,63.1c-0.8,0-1.4,0.2-1.8,0.7
		c-0.5,0.5-0.7,1.2-0.8,2.1h5.1c0-0.9-0.2-1.6-0.7-2.1S776.7,63.1,776,63.1z"/>
	<path class="st3" d="M789.2,61.3c0.5,0,0.9,0,1.2,0.1l-0.2,2.2c-0.3-0.1-0.7-0.1-1.1-0.1c-1,0-1.7,0.3-2.3,0.9s-0.9,1.4-0.9,2.4
		v5.9h-2.4V61.5h1.9l0.3,2h0.1c0.4-0.7,0.9-1.2,1.5-1.6C787.9,61.5,788.5,61.3,789.2,61.3z"/>
	<path class="st3" d="M807.2,72.8h-10.1v-1.8l3.8-3.9c1.1-1.2,1.9-2,2.3-2.5c0.4-0.5,0.6-0.9,0.8-1.4s0.3-0.9,0.3-1.4
		c0-0.7-0.2-1.2-0.6-1.6c-0.4-0.4-1-0.6-1.7-0.6c-0.6,0-1.1,0.1-1.7,0.3c-0.5,0.2-1.1,0.6-1.8,1.1l-1.3-1.6c0.8-0.7,1.6-1.2,2.4-1.5
		s1.6-0.4,2.5-0.4c1.4,0,2.5,0.4,3.3,1.1c0.8,0.7,1.3,1.7,1.3,2.9c0,0.7-0.1,1.3-0.4,1.9c-0.2,0.6-0.6,1.2-1.1,1.9s-1.3,1.5-2.5,2.6
		l-2.6,2.5v0.1h7.1V72.8z"/>
	<path class="st3" d="M819.1,72.8H809v-1.8l3.8-3.9c1.1-1.2,1.9-2,2.3-2.5c0.4-0.5,0.6-0.9,0.8-1.4s0.3-0.9,0.3-1.4
		c0-0.7-0.2-1.2-0.6-1.6c-0.4-0.4-1-0.6-1.7-0.6c-0.6,0-1.1,0.1-1.7,0.3c-0.5,0.2-1.1,0.6-1.8,1.1l-1.3-1.6c0.8-0.7,1.6-1.2,2.4-1.5
		s1.6-0.4,2.5-0.4c1.4,0,2.5,0.4,3.3,1.1c0.8,0.7,1.3,1.7,1.3,2.9c0,0.7-0.1,1.3-0.4,1.9c-0.2,0.6-0.6,1.2-1.1,1.9s-1.3,1.5-2.5,2.6
		l-2.6,2.5v0.1h7.1V72.8z"/>
	<path class="st3" d="M831.6,72.8h-2.4v-6.9c0-0.9-0.2-1.5-0.5-1.9s-0.9-0.6-1.7-0.6c-1,0-1.8,0.3-2.2,0.9c-0.5,0.6-0.7,1.6-0.7,3
		v5.6h-2.4V61.5h1.9l0.3,1.5h0.1c0.3-0.5,0.8-1,1.4-1.2c0.6-0.3,1.3-0.4,2.1-0.4c2.7,0,4.1,1.4,4.1,4.1V72.8z"/>
	<path class="st3" d="M838.7,73c-1.4,0-2.5-0.5-3.3-1.5c-0.8-1-1.2-2.4-1.2-4.3c0-1.8,0.4-3.3,1.2-4.3c0.8-1,1.9-1.5,3.3-1.5
		c1.5,0,2.6,0.5,3.4,1.6h0.1c-0.1-0.8-0.2-1.4-0.2-1.9v-4.1h2.4v15.8h-1.9l-0.4-1.5h-0.1C841.4,72.4,840.2,73,838.7,73z M839.4,71
		c1,0,1.7-0.3,2.1-0.8c0.4-0.6,0.7-1.5,0.7-2.7v-0.3c0-1.4-0.2-2.4-0.7-3c-0.5-0.6-1.2-0.9-2.2-0.9c-0.8,0-1.5,0.3-1.9,1
		c-0.5,0.7-0.7,1.7-0.7,2.9c0,1.2,0.2,2.2,0.7,2.9S838.5,71,839.4,71z"/>
	<path class="st3" d="M847.6,71.5c0-0.5,0.1-0.9,0.4-1.1s0.6-0.4,1.1-0.4c0.5,0,0.9,0.1,1.1,0.4c0.3,0.3,0.4,0.7,0.4,1.1
		c0,0.5-0.1,0.9-0.4,1.1c-0.3,0.3-0.6,0.4-1.1,0.4c-0.5,0-0.9-0.1-1.1-0.4S847.6,72,847.6,71.5z"/>
</g>
<g class="st2">
	<path class="st4" d="M926.7,53.3v6.5H924V43.6h4.6c2.1,0,3.7,0.4,4.7,1.2s1.5,2,1.5,3.6c0,2-1.1,3.5-3.2,4.3l4.6,7.2h-3l-3.9-6.5
		H926.7z M926.7,51.1h1.8c1.2,0,2.1-0.2,2.7-0.7c0.6-0.5,0.8-1.1,0.8-2c0-0.9-0.3-1.6-0.9-2c-0.6-0.4-1.5-0.6-2.7-0.6h-1.8V51.1z"/>
	<path class="st4" d="M943.7,60.1c-1.9,0-3.4-0.6-4.5-1.7s-1.6-2.7-1.6-4.6c0-2,0.5-3.6,1.5-4.7c1-1.2,2.4-1.7,4.1-1.7
		c1.6,0,2.9,0.5,3.9,1.5c0.9,1,1.4,2.3,1.4,4.1v1.4h-8.2c0,1.2,0.4,2.1,1,2.8s1.5,1,2.6,1c0.7,0,1.4-0.1,2-0.2
		c0.6-0.1,1.3-0.4,2-0.7v2.1c-0.6,0.3-1.3,0.5-1.9,0.6C945.3,60,944.5,60.1,943.7,60.1z M943.2,49.3c-0.8,0-1.5,0.3-2,0.8
		c-0.5,0.5-0.8,1.3-0.9,2.3h5.6c0-1-0.3-1.8-0.7-2.3C944.7,49.5,944,49.3,943.2,49.3z"/>
	<path class="st4" d="M961.8,47.5V49l-2.1,0.4c0.2,0.3,0.4,0.6,0.5,1c0.1,0.4,0.2,0.8,0.2,1.2c0,1.3-0.4,2.3-1.3,3
		c-0.9,0.7-2.1,1.1-3.6,1.1c-0.4,0-0.7,0-1.1-0.1c-0.6,0.3-0.8,0.8-0.8,1.2c0,0.3,0.1,0.5,0.4,0.6c0.3,0.1,0.7,0.2,1.5,0.2h2.1
		c1.4,0,2.4,0.3,3.1,0.9c0.7,0.6,1.1,1.4,1.1,2.5c0,1.4-0.6,2.5-1.7,3.2s-2.8,1.1-5,1.1c-1.7,0-3-0.3-3.8-0.9
		c-0.9-0.6-1.3-1.4-1.3-2.5c0-0.8,0.2-1.4,0.7-1.9c0.5-0.5,1.1-0.9,2-1.1c-0.3-0.1-0.6-0.4-0.9-0.7s-0.3-0.7-0.3-1
		c0-0.5,0.1-0.8,0.4-1.2s0.6-0.6,1.2-0.9c-0.6-0.3-1.2-0.7-1.6-1.3c-0.4-0.6-0.6-1.3-0.6-2.2c0-1.3,0.4-2.4,1.3-3.1s2-1.1,3.6-1.1
		c0.3,0,0.7,0,1.1,0.1c0.4,0,0.7,0.1,0.9,0.1H961.8z M952.2,61.7c0,0.6,0.3,1,0.8,1.3c0.5,0.3,1.2,0.5,2.1,0.5
		c1.4,0,2.5-0.2,3.2-0.6c0.7-0.4,1-1,1-1.6c0-0.5-0.2-0.9-0.6-1.1s-1.1-0.3-2.1-0.3h-2c-0.7,0-1.3,0.2-1.8,0.5
		C952.4,60.7,952.2,61.1,952.2,61.7z M953.3,51.5c0,0.8,0.2,1.4,0.6,1.8c0.4,0.4,1,0.6,1.7,0.6c1.5,0,2.3-0.8,2.3-2.4
		c0-0.8-0.2-1.4-0.6-1.9c-0.4-0.4-0.9-0.7-1.7-0.7c-0.8,0-1.3,0.2-1.7,0.6C953.5,50.1,953.3,50.7,953.3,51.5z"/>
	<path class="st4" d="M964,44.3c0-0.5,0.1-0.8,0.4-1.1c0.3-0.3,0.6-0.4,1.1-0.4c0.5,0,0.8,0.1,1.1,0.4c0.3,0.3,0.4,0.6,0.4,1.1
		c0,0.4-0.1,0.8-0.4,1.1c-0.3,0.3-0.6,0.4-1.1,0.4c-0.5,0-0.8-0.1-1.1-0.4C964.1,45.1,964,44.7,964,44.3z M966.7,59.8h-2.6V47.5h2.6
		V59.8z"/>
	<path class="st4" d="M978.7,56.3c0,1.2-0.4,2.1-1.3,2.8s-2.1,1-3.8,1c-1.6,0-3-0.2-3.9-0.7V57c1.4,0.7,2.8,1,4,1
		c1.6,0,2.4-0.5,2.4-1.5c0-0.3-0.1-0.6-0.3-0.8c-0.2-0.2-0.5-0.4-0.9-0.6c-0.4-0.2-1-0.5-1.7-0.8c-1.4-0.5-2.4-1.1-2.9-1.6
		c-0.5-0.5-0.8-1.3-0.8-2.1c0-1.1,0.4-1.9,1.3-2.5c0.8-0.6,2-0.9,3.5-0.9c1.4,0,2.8,0.3,4.1,0.9l-0.8,2c-1.3-0.5-2.4-0.8-3.3-0.8
		c-1.4,0-2.1,0.4-2.1,1.2c0,0.4,0.2,0.7,0.5,1c0.4,0.3,1.1,0.6,2.4,1.1c1,0.4,1.8,0.8,2.2,1.1c0.5,0.3,0.8,0.7,1,1.1
		C978.6,55.2,978.7,55.7,978.7,56.3z"/>
	<path class="st4" d="M986.2,57.9c0.6,0,1.3-0.1,1.9-0.3v2c-0.3,0.1-0.7,0.2-1.1,0.3c-0.5,0.1-0.9,0.1-1.4,0.1
		c-2.5,0-3.7-1.3-3.7-3.9v-6.6h-1.7v-1.2l1.8-1l0.9-2.6h1.6v2.7h3.5v2h-3.5v6.6c0,0.6,0.2,1.1,0.5,1.4
		C985.2,57.8,985.6,57.9,986.2,57.9z"/>
	<path class="st4" d="M995.9,60.1c-1.9,0-3.4-0.6-4.5-1.7c-1.1-1.1-1.6-2.7-1.6-4.6c0-2,0.5-3.6,1.5-4.7c1-1.2,2.4-1.7,4.1-1.7
		c1.6,0,2.9,0.5,3.8,1.5s1.4,2.3,1.4,4.1v1.4h-8.2c0,1.2,0.4,2.1,1,2.8c0.6,0.6,1.5,1,2.6,1c0.7,0,1.4-0.1,2-0.2
		c0.6-0.1,1.3-0.4,2-0.7v2.1c-0.6,0.3-1.3,0.5-1.9,0.6S996.7,60.1,995.9,60.1z M995.4,49.3c-0.8,0-1.5,0.3-2,0.8
		c-0.5,0.5-0.8,1.3-0.9,2.3h5.6c0-1-0.3-1.8-0.7-2.3C996.9,49.5,996.3,49.3,995.4,49.3z"/>
	<path class="st4" d="M1009.9,47.3c0.5,0,1,0,1.3,0.1l-0.3,2.4c-0.4-0.1-0.8-0.1-1.2-0.1c-1,0-1.9,0.3-2.5,1c-0.6,0.7-1,1.6-1,2.7
		v6.4h-2.6V47.5h2l0.3,2.2h0.1c0.4-0.7,0.9-1.3,1.6-1.7C1008.4,47.5,1009.1,47.3,1009.9,47.3z"/>
	<path class="st4" d="M1025.6,49.5h-3v10.3h-2.6V49.5h-2v-1.2l2-0.8v-0.8c0-1.5,0.3-2.5,1-3.2c0.7-0.7,1.7-1.1,3.1-1.1
		c0.9,0,1.8,0.2,2.7,0.5l-0.7,2c-0.6-0.2-1.3-0.3-1.8-0.3c-0.6,0-1,0.2-1.3,0.6c-0.3,0.4-0.4,0.9-0.4,1.7v0.8h3V49.5z"/>
	<path class="st4" d="M1038.6,53.7c0,2-0.5,3.6-1.5,4.7s-2.5,1.7-4.3,1.7c-1.2,0-2.2-0.3-3-0.8c-0.9-0.5-1.6-1.3-2-2.2
		s-0.7-2.1-0.7-3.4c0-2,0.5-3.6,1.5-4.7s2.5-1.7,4.3-1.7c1.8,0,3.2,0.6,4.2,1.7S1038.6,51.7,1038.6,53.7z M1029.6,53.7
		c0,2.8,1,4.3,3.1,4.3c2.1,0,3.1-1.4,3.1-4.3c0-2.8-1-4.2-3.1-4.2c-1.1,0-1.9,0.4-2.4,1.1C1029.9,51.3,1029.6,52.3,1029.6,53.7z"/>
	<path class="st4" d="M1047.8,47.3c0.5,0,1,0,1.3,0.1l-0.3,2.4c-0.4-0.1-0.8-0.1-1.2-0.1c-1,0-1.9,0.3-2.5,1c-0.6,0.7-1,1.6-1,2.7
		v6.4h-2.6V47.5h2l0.3,2.2h0.1c0.4-0.7,0.9-1.3,1.6-1.7C1046.4,47.5,1047.1,47.3,1047.8,47.3z"/>
	<path class="st4" d="M1060.3,59.8h-2.6V43.6h9.2v2.2h-6.5v5.1h6.1v2.3h-6.1V59.8z"/>
	<path class="st4" d="M1075.7,47.3c0.5,0,1,0,1.3,0.1l-0.3,2.4c-0.4-0.1-0.8-0.1-1.2-0.1c-1,0-1.9,0.3-2.5,1c-0.6,0.7-1,1.6-1,2.7
		v6.4h-2.6V47.5h2l0.3,2.2h0.1c0.4-0.7,0.9-1.3,1.6-1.7C1074.2,47.5,1075,47.3,1075.7,47.3z"/>
	<path class="st4" d="M1084.7,60.1c-1.9,0-3.4-0.6-4.5-1.7s-1.6-2.7-1.6-4.6c0-2,0.5-3.6,1.5-4.7c1-1.2,2.4-1.7,4.1-1.7
		c1.6,0,2.9,0.5,3.9,1.5c0.9,1,1.4,2.3,1.4,4.1v1.4h-8.2c0,1.2,0.4,2.1,1,2.8s1.5,1,2.6,1c0.7,0,1.4-0.1,2-0.2
		c0.6-0.1,1.3-0.4,2-0.7v2.1c-0.6,0.3-1.3,0.5-1.9,0.6C1086.2,60,1085.5,60.1,1084.7,60.1z M1084.2,49.3c-0.8,0-1.5,0.3-2,0.8
		c-0.5,0.5-0.8,1.3-0.9,2.3h5.6c0-1-0.3-1.8-0.7-2.3C1085.7,49.5,1085,49.3,1084.2,49.3z"/>
	<path class="st4" d="M1097.8,60.1c-1.9,0-3.4-0.6-4.5-1.7s-1.6-2.7-1.6-4.6c0-2,0.5-3.6,1.5-4.7c1-1.2,2.4-1.7,4.1-1.7
		c1.6,0,2.9,0.5,3.9,1.5c0.9,1,1.4,2.3,1.4,4.1v1.4h-8.2c0,1.2,0.4,2.1,1,2.8s1.5,1,2.6,1c0.7,0,1.4-0.1,2-0.2
		c0.6-0.1,1.3-0.4,2-0.7v2.1c-0.6,0.3-1.3,0.5-1.9,0.6C1099.4,60,1098.6,60.1,1097.8,60.1z M1097.3,49.3c-0.8,0-1.5,0.3-2,0.8
		c-0.5,0.5-0.8,1.3-0.9,2.3h5.6c0-1-0.3-1.8-0.7-2.3C1098.8,49.5,1098.1,49.3,1097.3,49.3z"/>
</g>
<g>
	<g>
		<path class="st5" d="M43.5,70.8c-3.8,4-10.2,4.1-14.2,0.2s-4.1-10.2-0.1-14.2c3.8-4,10.2-4.1,14.2-0.2
			C47.2,60.4,47.3,66.8,43.5,70.8z"/>
		<path class="st5" d="M70.9,48.6L70.9,48.6l1.1,4.2l-4.7,1.9L65,51l0.1-0.1c-1.7,0.4-3.4,0.4-5,0l-2.3,3.7l-4.7-1.9l1.1-4.2h0.1
			c-1.4-1-2.5-2.2-3.5-3.6l0,0L46.6,46l-1.9-4.7l3.8-2.3l0.1,0.1c-0.2-1.7-0.4-3.4,0-5l-3.7-2.2l1.9-4.7l4.2,1.1v0.1
			c0.6-0.8,1.2-1.6,1.9-2.3H28.8c-1.7,0-3.1,1.4-3.1,3.1v20.3l2.9,2l-0.1,0.1c1.4-1,3-1.6,4.6-1.9l0,0l0.6-4.2l4.9-0.1l0.7,4.2h-0.1
			c1.6,0.4,3.1,1,4.6,1.8l3.4-2.6l3.6,3.5l-2.5,3.5l-0.1-0.1c1,1.4,1.6,2.9,1.9,4.6l0,0l4.2,0.6l0.1,4.9l-4.2,0.7v-0.1
			c-0.4,1.6-1,3.1-1.8,4.6l2.3,3h19.8c1.7,0,3.1-1.4,3.1-3.1V46.5C72.6,47.2,71.8,48,70.9,48.6z"/>
		<path class="st5" d="M72.3,40.8c-2.2,5.2-8.2,7.7-13.3,5.5c-5.2-2.2-7.7-8.2-5.5-13.3s8.2-7.7,13.3-5.5
			C71.9,29.6,74.4,35.5,72.3,40.8z"/>
	</g>
</g>
<line class="st6" x1="879.5" y1="17.5" x2="879.5" y2="82.5"/>
</svg>
