<?xml version="1.0" encoding="utf-8"?>
<!-- Generator: Adobe Illustrator 23.0.0, SVG Export Plug-In . SVG Version: 6.00 Build 0)  -->
<svg version="1.1" id="Ebene_1" xmlns="http://www.w3.org/2000/svg" xmlns:xlink="http://www.w3.org/1999/xlink" x="0px" y="0px"
	 viewBox="0 0 767 331" style="enable-background:new 0 0 767 331;" xml:space="preserve">
<style type="text/css">
	.st0{fill:#ECECEC;}
	.st1{fill:#B51F29;}
	.st2{fill:#B2000D;}
	.st3{enable-background:new    ;}
	.st4{fill:#FFFFFF;}
	.st5{fill:#525149;}
</style>
<rect class="st0" width="767" height="331"/>
<g>
	<g>
		<path class="st1" d="M377.6,83.5c-4.5,4.7-12,4.8-16.7,0.2c-4.7-4.6-4.8-12-0.1-16.7c4.5-4.7,12-4.8,16.7-0.2
			C381.9,71.2,382,78.8,377.6,83.5z"/>
		<path class="st1" d="M409.8,57.3L409.8,57.3l1.3,4.9l-5.5,2.2l-2.7-4.4l0.1-0.1c-2,0.5-4,0.5-5.9,0l-2.7,4.4l-5.5-2.2l1.3-4.9h0.1
			c-1.6-1.2-2.9-2.6-4.1-4.2l0,0l-4.9,1.3l-2.2-5.5l4.5-2.7l0.1,0.1c-0.2-2-0.5-4,0-5.9l-4.4-2.6l2.2-5.5l4.9,1.3v0.1
			c0.7-0.9,1.4-1.9,2.2-2.7h-28.4c-2,0-3.7,1.6-3.7,3.7v23.9l3.4,2.4l-0.1,0.1c1.6-1.2,3.5-1.9,5.4-2.2l0,0l0.7-4.9l5.8-0.1l0.8,4.9
			h-0.1c1.9,0.5,3.7,1.2,5.4,2.1l4-3.1l4.2,4.1l-2.9,4.1l-0.1-0.1c1.2,1.6,1.9,3.4,2.2,5.4l0,0l4.9,0.7l0.1,5.8l-4.9,0.8v-0.1
			c-0.5,1.9-1.2,3.7-2.1,5.4l2.7,3.5h23.3c2,0,3.7-1.6,3.7-3.7V54.9C411.8,55.7,410.9,56.6,409.8,57.3z"/>
		<path class="st1" d="M411.5,48.2c-2.6,6.1-9.7,9.1-15.7,6.5c-6.1-2.6-9.1-9.7-6.5-15.7s9.7-9.1,15.7-6.5
			C411,35,413.9,41.9,411.5,48.2z"/>
	</g>
</g>
<path class="st2" d="M508.2,300.7h-250c-2.2,0-3.8-1.7-3.8-3.8v-44.6c0-2.2,1.7-3.8,3.8-3.8h249.9c2.2,0,3.8,1.7,3.8,3.8v44.6
	C512,299,510.2,300.7,508.2,300.7z"/>
<g class="st3">
	<path class="st4" d="M272.5,277v8.3h-3.4v-20.8h5.9c2.7,0,4.7,0.5,6,1.5c1.3,1,1.9,2.5,1.9,4.5c0,2.6-1.3,4.4-4,5.5l5.9,9.2h-3.9
		l-5-8.3H272.5z M272.5,274.2h2.4c1.6,0,2.7-0.3,3.4-0.9c0.7-0.6,1.1-1.5,1.1-2.6c0-1.2-0.4-2-1.2-2.5c-0.8-0.5-1.9-0.8-3.5-0.8
		h-2.2V274.2z"/>
	<path class="st4" d="M294.2,285.6c-2.4,0-4.4-0.7-5.7-2.1c-1.4-1.4-2.1-3.4-2.1-5.9c0-2.6,0.6-4.6,1.9-6.1c1.3-1.5,3-2.2,5.3-2.2
		c2.1,0,3.7,0.6,4.9,1.9s1.8,3,1.8,5.2v1.8h-10.5c0,1.5,0.5,2.7,1.2,3.5c0.8,0.8,1.9,1.2,3.3,1.2c0.9,0,1.8-0.1,2.6-0.3
		c0.8-0.2,1.7-0.5,2.6-0.9v2.7c-0.8,0.4-1.6,0.7-2.5,0.8C296.2,285.5,295.3,285.6,294.2,285.6z M293.6,271.8c-1.1,0-1.9,0.3-2.5,1
		c-0.6,0.7-1,1.7-1.1,2.9h7.1c0-1.3-0.3-2.3-0.9-2.9C295.5,272.2,294.7,271.8,293.6,271.8z"/>
	<path class="st4" d="M317.4,269.6v1.8l-2.7,0.5c0.2,0.3,0.4,0.7,0.6,1.2c0.2,0.5,0.2,1,0.2,1.5c0,1.6-0.6,2.9-1.7,3.8
		c-1.1,0.9-2.7,1.4-4.6,1.4c-0.5,0-1,0-1.4-0.1c-0.7,0.4-1.1,1-1.1,1.6c0,0.4,0.2,0.6,0.5,0.8c0.3,0.2,1,0.3,1.9,0.3h2.7
		c1.7,0,3,0.4,3.9,1.1c0.9,0.7,1.3,1.8,1.3,3.2c0,1.8-0.7,3.2-2.2,4.1c-1.5,1-3.6,1.4-6.4,1.4c-2.1,0-3.8-0.4-4.9-1.1
		s-1.7-1.8-1.7-3.2c0-1,0.3-1.8,0.9-2.4c0.6-0.7,1.5-1.1,2.6-1.4c-0.4-0.2-0.8-0.5-1.1-0.9c-0.3-0.4-0.4-0.9-0.4-1.3
		c0-0.6,0.2-1.1,0.5-1.5s0.8-0.8,1.5-1.2c-0.8-0.3-1.5-0.9-2-1.7c-0.5-0.8-0.8-1.7-0.8-2.8c0-1.7,0.5-3,1.6-4
		c1.1-0.9,2.6-1.4,4.6-1.4c0.4,0,0.9,0,1.4,0.1s0.9,0.1,1.1,0.2H317.4z M305,287.7c0,0.7,0.3,1.3,1,1.7c0.6,0.4,1.6,0.6,2.7,0.6
		c1.8,0,3.2-0.3,4.1-0.8s1.3-1.2,1.3-2.1c0-0.7-0.2-1.2-0.7-1.5c-0.5-0.3-1.4-0.4-2.7-0.4h-2.5c-1,0-1.7,0.2-2.3,0.7
		C305.3,286.4,305,287,305,287.7z M306.5,274.7c0,1,0.3,1.7,0.8,2.3c0.5,0.5,1.2,0.8,2.2,0.8c1.9,0,2.9-1,2.9-3.1
		c0-1-0.2-1.8-0.7-2.4c-0.5-0.6-1.2-0.8-2.2-0.8c-1,0-1.7,0.3-2.2,0.8C306.7,272.8,306.5,273.6,306.5,274.7z"/>
	<path class="st4" d="M320.1,265.4c0-0.6,0.2-1.1,0.5-1.4c0.3-0.3,0.8-0.5,1.4-0.5c0.6,0,1,0.2,1.4,0.5c0.3,0.3,0.5,0.8,0.5,1.4
		c0,0.6-0.2,1-0.5,1.3s-0.8,0.5-1.4,0.5c-0.6,0-1.1-0.2-1.4-0.5S320.1,266,320.1,265.4z M323.6,285.3h-3.3v-15.7h3.3V285.3z"/>
	<path class="st4" d="M339,280.8c0,1.5-0.6,2.7-1.7,3.5c-1.1,0.8-2.7,1.2-4.8,1.2c-2.1,0-3.8-0.3-5-1v-2.9c1.8,0.9,3.6,1.3,5.2,1.3
		c2.1,0,3.1-0.6,3.1-1.9c0-0.4-0.1-0.7-0.3-1c-0.2-0.3-0.6-0.5-1.1-0.8c-0.5-0.3-1.2-0.6-2.2-1c-1.8-0.7-3-1.4-3.7-2.1
		c-0.6-0.7-1-1.6-1-2.7c0-1.3,0.5-2.4,1.6-3.1c1.1-0.7,2.6-1.1,4.4-1.1c1.8,0,3.6,0.4,5.2,1.1l-1.1,2.5c-1.7-0.7-3.1-1.1-4.3-1.1
		c-1.8,0-2.6,0.5-2.6,1.5c0,0.5,0.2,0.9,0.7,1.2s1.5,0.8,3,1.4c1.3,0.5,2.2,1,2.8,1.4c0.6,0.4,1,0.9,1.3,1.4
		C338.8,279.4,339,280.1,339,280.8z"/>
	<path class="st4" d="M348.4,282.9c0.8,0,1.6-0.1,2.4-0.4v2.5c-0.4,0.2-0.8,0.3-1.4,0.4c-0.6,0.1-1.2,0.2-1.8,0.2
		c-3.2,0-4.7-1.7-4.7-5v-8.5h-2.1v-1.5l2.3-1.2l1.1-3.3h2.1v3.5h4.5v2.5h-4.5v8.4c0,0.8,0.2,1.4,0.6,1.8
		C347.2,282.7,347.8,282.9,348.4,282.9z"/>
	<path class="st4" d="M360.9,285.6c-2.4,0-4.4-0.7-5.7-2.1c-1.4-1.4-2.1-3.4-2.1-5.9c0-2.6,0.6-4.6,1.9-6.1c1.3-1.5,3-2.2,5.3-2.2
		c2.1,0,3.7,0.6,4.9,1.9s1.8,3,1.8,5.2v1.8h-10.5c0,1.5,0.5,2.7,1.2,3.5c0.8,0.8,1.9,1.2,3.3,1.2c0.9,0,1.8-0.1,2.6-0.3
		c0.8-0.2,1.7-0.5,2.6-0.9v2.7c-0.8,0.4-1.6,0.7-2.5,0.8C362.9,285.5,361.9,285.6,360.9,285.6z M360.3,271.8c-1.1,0-1.9,0.3-2.5,1
		c-0.6,0.7-1,1.7-1.1,2.9h7.1c0-1.3-0.3-2.3-0.9-2.9C362.1,272.2,361.3,271.8,360.3,271.8z"/>
	<path class="st4" d="M378.7,269.3c0.7,0,1.2,0,1.7,0.1l-0.3,3.1c-0.5-0.1-1-0.2-1.5-0.2c-1.3,0-2.4,0.4-3.2,1.3s-1.2,2-1.2,3.4v8.2
		h-3.3v-15.7h2.6l0.4,2.8h0.2c0.5-0.9,1.2-1.7,2-2.2C376.9,269.6,377.8,269.3,378.7,269.3z"/>
	<path class="st4" d="M398.7,272.1h-3.8v13.2h-3.4v-13.2H389v-1.6l2.6-1v-1c0-1.9,0.4-3.2,1.3-4.1c0.9-0.9,2.2-1.3,4-1.3
		c1.2,0,2.3,0.2,3.5,0.6l-0.9,2.5c-0.8-0.3-1.6-0.4-2.4-0.4c-0.8,0-1.3,0.2-1.7,0.7s-0.5,1.2-0.5,2.1v1h3.8V272.1z"/>
	<path class="st4" d="M415.4,277.4c0,2.6-0.7,4.6-2,6c-1.3,1.4-3.1,2.2-5.5,2.2c-1.5,0-2.8-0.3-3.9-1s-2-1.6-2.6-2.9
		c-0.6-1.2-0.9-2.7-0.9-4.3c0-2.5,0.7-4.5,2-6s3.1-2.1,5.5-2.1c2.3,0,4.1,0.7,5.4,2.2C414.7,273,415.4,274.9,415.4,277.4z
		 M403.9,277.4c0,3.6,1.3,5.4,4,5.4c2.7,0,4-1.8,4-5.4c0-3.6-1.3-5.4-4-5.4c-1.4,0-2.4,0.5-3,1.4
		C404.2,274.4,403.9,275.7,403.9,277.4z"/>
	<path class="st4" d="M427.2,269.3c0.7,0,1.2,0,1.7,0.1l-0.3,3.1c-0.5-0.1-1-0.2-1.5-0.2c-1.3,0-2.4,0.4-3.2,1.3
		c-0.8,0.9-1.2,2-1.2,3.4v8.2h-3.3v-15.7h2.6l0.4,2.8h0.2c0.5-0.9,1.2-1.7,2-2.2C425.3,269.6,426.2,269.3,427.2,269.3z"/>
	<path class="st4" d="M443,285.3h-3.4v-20.8h11.7v2.9H443v6.5h7.8v2.9H443V285.3z"/>
	<path class="st4" d="M462.7,269.3c0.7,0,1.2,0,1.7,0.1l-0.3,3.1c-0.5-0.1-1-0.2-1.5-0.2c-1.3,0-2.4,0.4-3.2,1.3
		c-0.8,0.9-1.2,2-1.2,3.4v8.2h-3.3v-15.7h2.6l0.4,2.8h0.2c0.5-0.9,1.2-1.7,2-2.2C460.9,269.6,461.8,269.3,462.7,269.3z"/>
	<path class="st4" d="M474.2,285.6c-2.4,0-4.4-0.7-5.7-2.1c-1.4-1.4-2.1-3.4-2.1-5.9c0-2.6,0.6-4.6,1.9-6.1c1.3-1.5,3-2.2,5.3-2.2
		c2.1,0,3.7,0.6,4.9,1.9c1.2,1.3,1.8,3,1.8,5.2v1.8h-10.5c0,1.5,0.5,2.7,1.2,3.5c0.8,0.8,1.9,1.2,3.3,1.2c0.9,0,1.8-0.1,2.6-0.3
		c0.8-0.2,1.7-0.5,2.6-0.9v2.7c-0.8,0.4-1.6,0.7-2.5,0.8C476.2,285.5,475.2,285.6,474.2,285.6z M473.6,271.8c-1.1,0-1.9,0.3-2.5,1
		c-0.6,0.7-1,1.7-1.1,2.9h7.1c0-1.3-0.3-2.3-0.9-2.9C475.5,272.2,474.6,271.8,473.6,271.8z"/>
	<path class="st4" d="M490.9,285.6c-2.4,0-4.4-0.7-5.7-2.1c-1.4-1.4-2.1-3.4-2.1-5.9c0-2.6,0.6-4.6,1.9-6.1c1.3-1.5,3-2.2,5.3-2.2
		c2.1,0,3.7,0.6,4.9,1.9c1.2,1.3,1.8,3,1.8,5.2v1.8h-10.5c0,1.5,0.5,2.7,1.2,3.5c0.8,0.8,1.9,1.2,3.3,1.2c0.9,0,1.8-0.1,2.6-0.3
		c0.8-0.2,1.7-0.5,2.6-0.9v2.7c-0.8,0.4-1.6,0.7-2.5,0.8C493,285.5,492,285.6,490.9,285.6z M490.3,271.8c-1.1,0-1.9,0.3-2.5,1
		c-0.6,0.7-1,1.7-1.1,2.9h7.1c0-1.3-0.3-2.3-0.9-2.9C492.2,272.2,491.4,271.8,490.3,271.8z"/>
</g>
<g class="st3">
	<path class="st5" d="M122.8,122.8c-1.7,0-3,0.6-3.9,1.9c-0.9,1.3-1.4,3-1.4,5.2c0,4.6,1.7,7,5.2,7c1.5,0,3.2-0.4,5.3-1.1v3.7
		c-1.7,0.7-3.6,1.1-5.7,1.1c-3,0-5.4-0.9-7-2.8c-1.6-1.8-2.4-4.5-2.4-7.9c0-2.2,0.4-4.1,1.2-5.7c0.8-1.6,1.9-2.9,3.4-3.8
		c1.5-0.9,3.2-1.3,5.2-1.3c2,0,4.1,0.5,6.1,1.5l-1.4,3.6c-0.8-0.4-1.6-0.7-2.4-1C124.3,122.9,123.6,122.8,122.8,122.8z"/>
	<path class="st5" d="M142.3,140.2l-0.8-2.2h-0.1c-0.7,0.9-1.5,1.6-2.3,1.9c-0.8,0.4-1.8,0.5-3,0.5c-1.5,0-2.7-0.4-3.6-1.3
		c-0.9-0.9-1.3-2.1-1.3-3.7c0-1.7,0.6-2.9,1.8-3.7s3-1.2,5.4-1.3l2.8-0.1v-0.7c0-1.6-0.8-2.4-2.5-2.4c-1.3,0-2.8,0.4-4.5,1.2
		l-1.4-2.9c1.8-1,3.9-1.4,6.1-1.4c2.1,0,3.8,0.5,4.9,1.4s1.7,2.3,1.7,4.2v10.6H142.3z M141.1,132.8l-1.7,0.1c-1.3,0-2.2,0.3-2.8,0.7
		c-0.6,0.4-0.9,1.1-0.9,1.9c0,1.2,0.7,1.8,2.1,1.8c1,0,1.8-0.3,2.4-0.9c0.6-0.6,0.9-1.4,0.9-2.3V132.8z"/>
	<path class="st5" d="M164.1,140.2h-4.3v-9.3c0-1.1-0.2-2-0.6-2.6c-0.4-0.6-1-0.9-1.8-0.9c-1.1,0-1.9,0.4-2.4,1.2
		c-0.5,0.8-0.8,2.2-0.8,4v7.5h-4.3v-15.9h3.3l0.6,2h0.2c0.4-0.7,1-1.3,1.9-1.7c0.8-0.4,1.7-0.6,2.8-0.6c2.4,0,4,0.8,4.8,2.3h0.4
		c0.4-0.7,1.1-1.3,1.9-1.7c0.8-0.4,1.8-0.6,2.8-0.6c1.8,0,3.2,0.5,4.1,1.4c0.9,0.9,1.4,2.4,1.4,4.5v10.4h-4.4v-9.3
		c0-1.1-0.2-2-0.6-2.6c-0.4-0.6-1-0.9-1.8-0.9c-1.1,0-1.9,0.4-2.4,1.1c-0.5,0.8-0.8,2-0.8,3.6V140.2z"/>
	<path class="st5" d="M189.8,140.2l-0.6-2H189c-0.5,0.7-1.1,1.3-2,1.7s-1.8,0.6-2.9,0.6c-1.9,0-3.3-0.5-4.2-1.5s-1.4-2.4-1.4-4.3
		v-10.4h4.3v9.3c0,1.2,0.2,2,0.6,2.6c0.4,0.6,1.1,0.9,2,0.9c1.2,0,2.1-0.4,2.6-1.2c0.5-0.8,0.8-2.2,0.8-4v-7.5h4.3v15.9H189.8z"/>
	<path class="st5" d="M212.4,140.2h-4.3v-9.3c0-1.1-0.2-2-0.6-2.6c-0.4-0.6-1.1-0.9-2-0.9c-1.2,0-2.1,0.4-2.6,1.2
		c-0.5,0.8-0.8,2.2-0.8,4v7.5h-4.3v-15.9h3.3l0.6,2h0.2c0.5-0.8,1.2-1.4,2-1.7s1.8-0.6,2.9-0.6c1.9,0,3.3,0.5,4.2,1.5
		c1,1,1.4,2.5,1.4,4.3V140.2z"/>
	<path class="st5" d="M222,140.5c-1.9,0-3.3-0.7-4.4-2.2s-1.6-3.5-1.6-6c0-2.6,0.5-4.7,1.6-6.1c1.1-1.5,2.6-2.2,4.5-2.2
		c2,0,3.5,0.8,4.6,2.3h0.1c-0.2-1.2-0.3-2.2-0.3-3.2V118h4.4v22.2h-3.3l-0.8-2.1h-0.2C225.5,139.7,224,140.5,222,140.5z
		 M223.5,137.1c1.1,0,1.9-0.3,2.4-1c0.5-0.6,0.8-1.7,0.8-3.3v-0.5c0-1.7-0.3-2.9-0.8-3.7c-0.5-0.7-1.4-1.1-2.6-1.1
		c-1,0-1.7,0.4-2.3,1.2s-0.8,2-0.8,3.6s0.3,2.7,0.8,3.5C221.7,136.7,222.5,137.1,223.5,137.1z"/>
	<path class="st5" d="M245.5,140.2l-0.8-2.2h-0.1c-0.7,0.9-1.5,1.6-2.3,1.9c-0.8,0.4-1.8,0.5-3,0.5c-1.5,0-2.7-0.4-3.6-1.3
		c-0.9-0.9-1.3-2.1-1.3-3.7c0-1.7,0.6-2.9,1.8-3.7s3-1.2,5.4-1.3l2.8-0.1v-0.7c0-1.6-0.8-2.4-2.5-2.4c-1.3,0-2.8,0.4-4.5,1.2
		l-1.4-2.9c1.8-1,3.9-1.4,6.1-1.4c2.1,0,3.8,0.5,4.9,1.4s1.7,2.3,1.7,4.2v10.6H245.5z M244.2,132.8l-1.7,0.1c-1.3,0-2.2,0.3-2.8,0.7
		c-0.6,0.4-0.9,1.1-0.9,1.9c0,1.2,0.7,1.8,2.1,1.8c1,0,1.8-0.3,2.4-0.9c0.6-0.6,0.9-1.4,0.9-2.3V132.8z"/>
	<path class="st5" d="M260.4,120.2c0-1.4,0.8-2.1,2.4-2.1s2.4,0.7,2.4,2.1c0,0.7-0.2,1.2-0.6,1.6c-0.4,0.4-1,0.6-1.8,0.6
		C261.2,122.3,260.4,121.6,260.4,120.2z M265,140.2h-4.3v-15.9h4.3V140.2z"/>
	<path class="st5" d="M280.7,135.5c0,1.6-0.6,2.9-1.7,3.7c-1.1,0.9-2.8,1.3-5.1,1.3c-1.2,0-2.1-0.1-3-0.2c-0.8-0.2-1.6-0.4-2.3-0.7
		V136c0.8,0.4,1.7,0.7,2.7,1c1,0.3,1.9,0.4,2.7,0.4c1.6,0,2.4-0.5,2.4-1.4c0-0.3-0.1-0.6-0.3-0.8c-0.2-0.2-0.6-0.5-1.1-0.7
		c-0.5-0.3-1.2-0.6-2.1-0.9c-1.2-0.5-2.1-1-2.7-1.4s-1-0.9-1.3-1.5c-0.3-0.6-0.4-1.3-0.4-2.1c0-1.4,0.5-2.5,1.6-3.3
		c1.1-0.8,2.7-1.2,4.7-1.2c1.9,0,3.8,0.4,5.6,1.3l-1.3,3.1c-0.8-0.3-1.5-0.6-2.2-0.8s-1.4-0.3-2.1-0.3c-1.3,0-1.9,0.3-1.9,1
		c0,0.4,0.2,0.7,0.6,1c0.4,0.3,1.3,0.7,2.7,1.3c1.2,0.5,2.2,1,2.7,1.4c0.6,0.4,1,0.9,1.3,1.5S280.7,134.7,280.7,135.5z"/>
	<path class="st5" d="M298.1,140.5c-5,0-7.4-2.7-7.4-8.2c0-2.7,0.7-4.8,2-6.2s3.3-2.1,5.8-2.1c1.8,0,3.5,0.4,5,1.1l-1.3,3.4
		c-0.7-0.3-1.3-0.5-1.9-0.7c-0.6-0.2-1.2-0.3-1.8-0.3c-2.3,0-3.4,1.6-3.4,4.8c0,3.1,1.1,4.7,3.4,4.7c0.8,0,1.6-0.1,2.3-0.3
		c0.7-0.2,1.4-0.6,2.1-1v3.7c-0.7,0.4-1.4,0.8-2.1,0.9C300.1,140.4,299.2,140.5,298.1,140.5z"/>
	<path class="st5" d="M321.1,132.2c0,2.6-0.7,4.6-2.1,6.1c-1.4,1.5-3.3,2.2-5.7,2.2c-1.5,0-2.9-0.3-4-1c-1.2-0.7-2.1-1.6-2.7-2.9
		s-0.9-2.7-0.9-4.4c0-2.6,0.7-4.6,2-6.1c1.4-1.4,3.3-2.2,5.7-2.2c1.5,0,2.9,0.3,4,1c1.2,0.7,2.1,1.6,2.7,2.9
		C320.8,129.1,321.1,130.6,321.1,132.2z M310.1,132.2c0,1.6,0.3,2.8,0.8,3.6c0.5,0.8,1.4,1.2,2.5,1.2c1.2,0,2-0.4,2.5-1.2
		c0.5-0.8,0.8-2,0.8-3.6c0-1.6-0.3-2.8-0.8-3.6c-0.5-0.8-1.4-1.2-2.5-1.2c-1.2,0-2,0.4-2.5,1.2C310.4,129.5,310.1,130.6,310.1,132.2
		z"/>
	<path class="st5" d="M339,140.2h-4.3v-9.3c0-1.1-0.2-2-0.6-2.6c-0.4-0.6-1-0.9-1.8-0.9c-1.1,0-1.9,0.4-2.4,1.2
		c-0.5,0.8-0.8,2.2-0.8,4v7.5h-4.3v-15.9h3.3l0.6,2h0.2c0.4-0.7,1-1.3,1.9-1.7c0.8-0.4,1.7-0.6,2.8-0.6c2.4,0,4,0.8,4.8,2.3h0.4
		c0.4-0.7,1.1-1.3,1.9-1.7c0.8-0.4,1.8-0.6,2.8-0.6c1.8,0,3.2,0.5,4.1,1.4c0.9,0.9,1.4,2.4,1.4,4.5v10.4h-4.4v-9.3
		c0-1.1-0.2-2-0.6-2.6c-0.4-0.6-1-0.9-1.8-0.9c-1.1,0-1.9,0.4-2.4,1.1c-0.5,0.8-0.8,2-0.8,3.6V140.2z"/>
	<path class="st5" d="M353.2,120.2c0-1.4,0.8-2.1,2.4-2.1s2.4,0.7,2.4,2.1c0,0.7-0.2,1.2-0.6,1.6c-0.4,0.4-1,0.6-1.8,0.6
		C354,122.3,353.2,121.6,353.2,120.2z M357.8,140.2h-4.3v-15.9h4.3V140.2z"/>
	<path class="st5" d="M377,140.2h-4.3v-9.3c0-1.1-0.2-2-0.6-2.6c-0.4-0.6-1.1-0.9-2-0.9c-1.2,0-2.1,0.4-2.6,1.2
		c-0.5,0.8-0.8,2.2-0.8,4v7.5h-4.3v-15.9h3.3l0.6,2h0.2c0.5-0.8,1.2-1.4,2-1.7s1.8-0.6,2.9-0.6c1.9,0,3.3,0.5,4.2,1.5
		c1,1,1.4,2.5,1.4,4.3V140.2z"/>
	<path class="st5" d="M395.4,124.3v2.2l-2.5,0.6c0.5,0.7,0.7,1.5,0.7,2.4c0,1.7-0.6,3-1.8,4c-1.2,1-2.8,1.4-5,1.4l-0.8,0l-0.6-0.1
		c-0.4,0.3-0.7,0.7-0.7,1.1c0,0.6,0.8,0.9,2.4,0.9h2.7c1.7,0,3.1,0.4,4,1.1c0.9,0.8,1.4,1.9,1.4,3.3c0,1.9-0.8,3.3-2.3,4.3
		c-1.6,1-3.8,1.5-6.7,1.5c-2.2,0-3.9-0.4-5.1-1.2c-1.2-0.8-1.8-1.9-1.8-3.3c0-1,0.3-1.8,0.9-2.4c0.6-0.6,1.5-1.1,2.6-1.4
		c-0.4-0.2-0.8-0.5-1.2-0.9c-0.3-0.4-0.5-0.9-0.5-1.4c0-0.6,0.2-1.1,0.5-1.5c0.4-0.4,0.9-0.8,1.5-1.2c-0.8-0.4-1.5-0.9-2-1.7
		s-0.7-1.7-0.7-2.8c0-1.7,0.6-3.1,1.7-4s2.7-1.4,4.8-1.4c0.4,0,1,0,1.6,0.1c0.6,0.1,1,0.1,1.2,0.2H395.4z M383.1,142.5
		c0,0.6,0.3,1.1,0.9,1.4c0.6,0.3,1.4,0.5,2.4,0.5c1.6,0,2.8-0.2,3.7-0.6c0.9-0.4,1.3-1,1.3-1.8c0-0.6-0.3-1-0.8-1.2
		c-0.5-0.2-1.3-0.3-2.4-0.3h-2.3c-0.8,0-1.5,0.2-2,0.6C383.3,141.4,383.1,141.9,383.1,142.5z M384.7,129.5c0,0.9,0.2,1.5,0.6,2.1
		s1,0.8,1.8,0.8c0.8,0,1.4-0.3,1.8-0.8s0.6-1.2,0.6-2.1c0-1.9-0.8-2.9-2.4-2.9C385.5,126.6,384.7,127.6,384.7,129.5z"/>
	<path class="st5" d="M412.3,137.1c0.8,0,1.7-0.2,2.7-0.5v3.2c-1.1,0.5-2.4,0.7-4,0.7c-1.7,0-3-0.4-3.8-1.3c-0.8-0.9-1.2-2.2-1.2-4
		v-7.7H404v-1.8l2.4-1.5l1.3-3.4h2.8v3.4h4.5v3.3h-4.5v7.7c0,0.6,0.2,1.1,0.5,1.4C411.3,136.9,411.7,137.1,412.3,137.1z"/>
	<path class="st5" d="M432.8,132.2c0,2.6-0.7,4.6-2.1,6.1s-3.3,2.2-5.7,2.2c-1.5,0-2.9-0.3-4-1c-1.2-0.7-2.1-1.6-2.7-2.9
		c-0.6-1.3-0.9-2.7-0.9-4.4c0-2.6,0.7-4.6,2-6.1c1.4-1.4,3.3-2.2,5.7-2.2c1.5,0,2.9,0.3,4,1c1.2,0.7,2.1,1.6,2.7,2.9
		C432.4,129.1,432.8,130.6,432.8,132.2z M421.7,132.2c0,1.6,0.3,2.8,0.8,3.6c0.5,0.8,1.4,1.2,2.5,1.2c1.2,0,2-0.4,2.5-1.2
		s0.8-2,0.8-3.6c0-1.6-0.3-2.8-0.8-3.6c-0.5-0.8-1.4-1.2-2.5-1.2c-1.2,0-2,0.4-2.5,1.2C422,129.5,421.7,130.6,421.7,132.2z"/>
	<path class="st5" d="M442.1,146.4c-1,0-1.9-0.1-2.6-0.3v-3.7c0.8,0.2,1.5,0.3,2.1,0.3c1,0,1.7-0.3,2.1-0.9c0.4-0.6,0.6-1.5,0.6-2.8
		v-19.5h4.4v19.5c0,2.4-0.6,4.3-1.7,5.6C445.9,145.7,444.3,146.4,442.1,146.4z"/>
	<path class="st5" d="M468.1,132.2c0,2.6-0.7,4.6-2.1,6.1c-1.4,1.5-3.3,2.2-5.7,2.2c-1.5,0-2.9-0.3-4-1c-1.2-0.7-2.1-1.6-2.7-2.9
		c-0.6-1.3-0.9-2.7-0.9-4.4c0-2.6,0.7-4.6,2-6.1c1.4-1.4,3.3-2.2,5.7-2.2c1.5,0,2.9,0.3,4,1s2.1,1.6,2.7,2.9
		C467.8,129.1,468.1,130.6,468.1,132.2z M457.1,132.2c0,1.6,0.3,2.8,0.8,3.6c0.5,0.8,1.4,1.2,2.5,1.2c1.2,0,2-0.4,2.5-1.2
		c0.5-0.8,0.8-2,0.8-3.6c0-1.6-0.3-2.8-0.8-3.6c-0.5-0.8-1.4-1.2-2.5-1.2c-1.2,0-2,0.4-2.5,1.2C457.3,129.5,457.1,130.6,457.1,132.2
		z"/>
	<path class="st5" d="M486.4,140.2H482v-9.3c0-2.3-0.9-3.5-2.6-3.5c-1.2,0-2.1,0.4-2.6,1.2c-0.5,0.8-0.8,2.2-0.8,4v7.5h-4.3V118h4.3
		v4.5c0,0.4,0,1.2-0.1,2.5l-0.1,1.3h0.2c1-1.6,2.5-2.3,4.6-2.3c1.9,0,3.3,0.5,4.3,1.5c1,1,1.5,2.5,1.5,4.3V140.2z"/>
	<path class="st5" d="M501,140.2l-0.8-2.2H500c-0.7,0.9-1.5,1.6-2.3,1.9s-1.8,0.5-3,0.5c-1.5,0-2.7-0.4-3.6-1.3
		c-0.9-0.9-1.3-2.1-1.3-3.7c0-1.7,0.6-2.9,1.8-3.7s3-1.2,5.4-1.3l2.8-0.1v-0.7c0-1.6-0.8-2.4-2.5-2.4c-1.3,0-2.8,0.4-4.5,1.2
		l-1.4-2.9c1.8-1,3.9-1.4,6.1-1.4c2.1,0,3.8,0.5,4.9,1.4s1.7,2.3,1.7,4.2v10.6H501z M499.7,132.8l-1.7,0.1c-1.3,0-2.2,0.3-2.8,0.7
		c-0.6,0.4-0.9,1.1-0.9,1.9c0,1.2,0.7,1.8,2.1,1.8c1,0,1.8-0.3,2.4-0.9c0.6-0.6,0.9-1.4,0.9-2.3V132.8z"/>
	<path class="st5" d="M523.2,140.2h-4.3v-9.3c0-1.1-0.2-2-0.6-2.6c-0.4-0.6-1.1-0.9-2-0.9c-1.2,0-2.1,0.4-2.6,1.2
		c-0.5,0.8-0.8,2.2-0.8,4v7.5h-4.3v-15.9h3.3l0.6,2h0.2c0.5-0.8,1.2-1.4,2-1.7s1.8-0.6,2.9-0.6c1.9,0,3.3,0.5,4.2,1.5
		s1.4,2.5,1.4,4.3V140.2z"/>
	<path class="st5" d="M542.4,140.2h-4.3v-9.3c0-1.1-0.2-2-0.6-2.6c-0.4-0.6-1.1-0.9-2-0.9c-1.2,0-2.1,0.4-2.6,1.2
		c-0.5,0.8-0.8,2.2-0.8,4v7.5h-4.3v-15.9h3.3l0.6,2h0.2c0.5-0.8,1.2-1.4,2-1.7s1.8-0.6,2.9-0.6c1.9,0,3.3,0.5,4.2,1.5
		s1.4,2.5,1.4,4.3V140.2z"/>
	<path class="st5" d="M554.1,140.5c-2.6,0-4.6-0.7-6-2.1c-1.4-1.4-2.2-3.4-2.2-6c0-2.7,0.7-4.7,2-6.2c1.3-1.5,3.2-2.2,5.5-2.2
		c2.3,0,4,0.6,5.3,1.9s1.9,3.1,1.9,5.3v2.1h-10.3c0,1.2,0.4,2.2,1.1,2.9c0.7,0.7,1.6,1,2.9,1c1,0,1.9-0.1,2.7-0.3s1.7-0.5,2.7-1v3.4
		c-0.8,0.4-1.6,0.7-2.4,0.8C556.4,140.4,555.4,140.5,554.1,140.5z M553.5,127.1c-0.9,0-1.6,0.3-2.2,0.9c-0.5,0.6-0.8,1.4-0.9,2.5
		h6.1c0-1.1-0.3-1.9-0.8-2.5C555.2,127.4,554.4,127.1,553.5,127.1z"/>
	<path class="st5" d="M575.3,135.5c0,1.6-0.6,2.9-1.7,3.7s-2.8,1.3-5.1,1.3c-1.2,0-2.1-0.1-3-0.2s-1.6-0.4-2.3-0.7V136
		c0.8,0.4,1.7,0.7,2.7,1c1,0.3,1.9,0.4,2.7,0.4c1.6,0,2.4-0.5,2.4-1.4c0-0.3-0.1-0.6-0.3-0.8c-0.2-0.2-0.6-0.5-1.1-0.7
		s-1.2-0.6-2.1-0.9c-1.2-0.5-2.1-1-2.7-1.4s-1-0.9-1.3-1.5c-0.3-0.6-0.4-1.3-0.4-2.1c0-1.4,0.5-2.5,1.6-3.3c1.1-0.8,2.7-1.2,4.7-1.2
		c1.9,0,3.8,0.4,5.6,1.3l-1.3,3.1c-0.8-0.3-1.5-0.6-2.2-0.8c-0.7-0.2-1.4-0.3-2.1-0.3c-1.3,0-1.9,0.3-1.9,1c0,0.4,0.2,0.7,0.6,1
		c0.4,0.3,1.3,0.7,2.7,1.3c1.2,0.5,2.2,1,2.7,1.4c0.6,0.4,1,0.9,1.3,1.5C575.1,134,575.3,134.7,575.3,135.5z"/>
	<path class="st5" d="M587.5,124c1.9,0,3.4,0.7,4.4,2.2c1.1,1.5,1.6,3.5,1.6,6c0,2.6-0.5,4.7-1.6,6.1c-1.1,1.4-2.6,2.2-4.5,2.2
		c-1.9,0-3.3-0.7-4.4-2h-0.3l-0.7,1.8h-3.3V118h4.3v5.2c0,0.7-0.1,1.7-0.2,3.2h0.2C584,124.8,585.5,124,587.5,124z M586.1,127.5
		c-1.1,0-1.9,0.3-2.4,1c-0.5,0.7-0.8,1.8-0.8,3.3v0.5c0,1.7,0.3,2.9,0.8,3.7c0.5,0.7,1.3,1.1,2.4,1.1c0.9,0,1.6-0.4,2.1-1.2
		s0.8-2,0.8-3.6s-0.3-2.7-0.8-3.5S587.1,127.5,586.1,127.5z"/>
	<path class="st5" d="M608.4,140.2l-0.6-2h-0.2c-0.5,0.7-1.1,1.3-2,1.7s-1.8,0.6-2.9,0.6c-1.9,0-3.3-0.5-4.2-1.5
		c-1-1-1.4-2.4-1.4-4.3v-10.4h4.3v9.3c0,1.2,0.2,2,0.6,2.6c0.4,0.6,1.1,0.9,2,0.9c1.2,0,2.1-0.4,2.6-1.2c0.5-0.8,0.8-2.2,0.8-4v-7.5
		h4.3v15.9H608.4z"/>
	<path class="st5" d="M625.2,124c0.6,0,1.1,0,1.5,0.1l-0.3,4.1c-0.4-0.1-0.8-0.1-1.3-0.1c-1.4,0-2.5,0.4-3.2,1.1
		c-0.8,0.7-1.2,1.7-1.2,3v8.1h-4.3v-15.9h3.3l0.6,2.7h0.2c0.5-0.9,1.2-1.6,2-2.2C623.3,124.3,624.2,124,625.2,124z"/>
	<path class="st5" d="M643.5,124.3v2.2l-2.5,0.6c0.5,0.7,0.7,1.5,0.7,2.4c0,1.7-0.6,3-1.8,4c-1.2,1-2.8,1.4-5,1.4l-0.8,0l-0.6-0.1
		c-0.4,0.3-0.7,0.7-0.7,1.1c0,0.6,0.8,0.9,2.4,0.9h2.7c1.7,0,3.1,0.4,4,1.1c0.9,0.8,1.4,1.9,1.4,3.3c0,1.9-0.8,3.3-2.3,4.3
		c-1.6,1-3.8,1.5-6.7,1.5c-2.2,0-3.9-0.4-5.1-1.2c-1.2-0.8-1.8-1.9-1.8-3.3c0-1,0.3-1.8,0.9-2.4c0.6-0.6,1.5-1.1,2.6-1.4
		c-0.4-0.2-0.8-0.5-1.2-0.9c-0.3-0.4-0.5-0.9-0.5-1.4c0-0.6,0.2-1.1,0.5-1.5c0.4-0.4,0.9-0.8,1.5-1.2c-0.8-0.4-1.5-0.9-2-1.7
		c-0.5-0.8-0.7-1.7-0.7-2.8c0-1.7,0.6-3.1,1.7-4c1.1-1,2.7-1.4,4.8-1.4c0.4,0,1,0,1.6,0.1c0.6,0.1,1,0.1,1.2,0.2H643.5z
		 M631.2,142.5c0,0.6,0.3,1.1,0.9,1.4s1.4,0.5,2.4,0.5c1.6,0,2.8-0.2,3.7-0.6s1.3-1,1.3-1.8c0-0.6-0.3-1-0.8-1.2
		c-0.5-0.2-1.3-0.3-2.4-0.3H634c-0.8,0-1.5,0.2-2,0.6S631.2,141.9,631.2,142.5z M632.8,129.5c0,0.9,0.2,1.5,0.6,2.1s1,0.8,1.8,0.8
		c0.8,0,1.4-0.3,1.8-0.8c0.4-0.5,0.6-1.2,0.6-2.1c0-1.9-0.8-2.9-2.4-2.9C633.5,126.6,632.8,127.6,632.8,129.5z"/>
	<path class="st5" d="M645.5,138.2c0-0.8,0.2-1.4,0.6-1.8c0.4-0.4,1-0.6,1.9-0.6c0.8,0,1.4,0.2,1.8,0.6c0.4,0.4,0.6,1,0.6,1.8
		c0,0.8-0.2,1.3-0.7,1.8c-0.4,0.4-1,0.6-1.8,0.6c-0.8,0-1.4-0.2-1.9-0.6S645.5,139,645.5,138.2z M649.7,133.3h-3.5l-0.7-13.9h4.9
		L649.7,133.3z"/>
</g>
<g class="st3">
	<path class="st5" d="M105,189.1c-0.9,0-1.7-0.1-2.3-0.4v-2.9c0.8,0.2,1.5,0.3,2.1,0.3c1.9,0,2.8-1.2,2.8-3.5v-20.2h3.4v20.1
		c0,2.1-0.5,3.8-1.5,4.9S107,189.1,105,189.1z"/>
	<path class="st5" d="M130,175.4c0,2.6-0.7,4.6-2,6c-1.3,1.4-3.2,2.2-5.5,2.2c-1.5,0-2.8-0.3-3.9-1c-1.1-0.7-2-1.6-2.6-2.9
		c-0.6-1.2-0.9-2.7-0.9-4.3c0-2.6,0.7-4.6,2-6c1.3-1.4,3.2-2.2,5.5-2.2c2.3,0,4.1,0.7,5.4,2.2C129.4,170.9,130,172.9,130,175.4z
		 M118.6,175.4c0,3.6,1.3,5.5,4,5.5c2.7,0,4-1.8,4-5.5c0-3.6-1.3-5.4-4-5.4c-1.4,0-2.4,0.5-3.1,1.4
		C118.9,172.3,118.6,173.6,118.6,175.4z"/>
	<path class="st5" d="M133.7,163.4c0-0.6,0.2-1.1,0.5-1.4c0.3-0.3,0.8-0.5,1.4-0.5c0.6,0,1,0.2,1.4,0.5c0.3,0.3,0.5,0.8,0.5,1.4
		c0,0.6-0.2,1-0.5,1.3c-0.3,0.3-0.8,0.5-1.4,0.5c-0.6,0-1.1-0.2-1.4-0.5C133.9,164.4,133.7,163.9,133.7,163.4z M137.2,183.3h-3.4
		v-15.8h3.4V183.3z"/>
	<path class="st5" d="M155.9,183.3h-3.4v-9.7c0-1.2-0.2-2.1-0.7-2.7c-0.5-0.6-1.3-0.9-2.3-0.9c-1.4,0-2.5,0.4-3.1,1.3
		c-0.7,0.8-1,2.2-1,4.2v7.9H142v-15.8h2.6l0.5,2.1h0.2c0.5-0.8,1.2-1.3,2-1.7s1.8-0.6,2.9-0.6c3.8,0,5.7,1.9,5.7,5.8V183.3z"/>
	<path class="st5" d="M179.3,183.3l-0.5-2.1h-0.2c-0.5,0.7-1.1,1.3-2,1.7s-1.8,0.6-2.9,0.6c-1.9,0-3.3-0.5-4.3-1.4s-1.4-2.4-1.4-4.3
		v-10.3h3.4v9.7c0,1.2,0.2,2.1,0.7,2.7c0.5,0.6,1.3,0.9,2.3,0.9c1.4,0,2.4-0.4,3.1-1.3c0.7-0.8,1-2.3,1-4.2v-7.9h3.4v15.8H179.3z"/>
	<path class="st5" d="M197.3,178.8c0,1.5-0.6,2.7-1.7,3.5s-2.7,1.2-4.8,1.2c-2.1,0-3.8-0.3-5.1-1v-2.9c1.9,0.9,3.6,1.3,5.2,1.3
		c2.1,0,3.1-0.6,3.1-1.9c0-0.4-0.1-0.7-0.3-1c-0.2-0.3-0.6-0.5-1.1-0.8c-0.5-0.3-1.3-0.6-2.2-1c-1.8-0.7-3-1.4-3.7-2.1
		c-0.6-0.7-1-1.6-1-2.7c0-1.3,0.5-2.4,1.6-3.1s2.6-1.1,4.4-1.1c1.9,0,3.6,0.4,5.3,1.1l-1.1,2.5c-1.7-0.7-3.1-1.1-4.3-1.1
		c-1.8,0-2.7,0.5-2.7,1.5c0,0.5,0.2,0.9,0.7,1.3s1.5,0.8,3,1.4c1.3,0.5,2.2,1,2.8,1.4c0.6,0.4,1,0.9,1.3,1.4
		C197.1,177.4,197.3,178.1,197.3,178.8z"/>
	<path class="st5" d="M218.4,183.3l-0.7-2.2h-0.1c-0.8,1-1.5,1.6-2.3,2s-1.8,0.5-3,0.5c-1.5,0-2.8-0.4-3.6-1.3
		c-0.9-0.8-1.3-2-1.3-3.5c0-1.6,0.6-2.9,1.8-3.7c1.2-0.8,3-1.3,5.5-1.4l2.7-0.1v-0.8c0-1-0.2-1.8-0.7-2.3c-0.5-0.5-1.2-0.7-2.2-0.7
		c-0.8,0-1.6,0.1-2.3,0.4c-0.7,0.2-1.5,0.5-2.1,0.8l-1.1-2.4c0.9-0.4,1.8-0.8,2.8-1c1-0.2,2-0.3,2.9-0.3c2,0,3.5,0.4,4.5,1.3
		c1,0.9,1.5,2.2,1.5,4.1v10.6H218.4z M213.4,181c1.2,0,2.2-0.3,2.9-1s1.1-1.6,1.1-2.9v-1.4l-2,0.1c-1.6,0.1-2.7,0.3-3.4,0.8
		s-1.1,1.2-1.1,2.2c0,0.7,0.2,1.2,0.6,1.6C211.9,180.8,212.5,181,213.4,181z"/>
	<path class="st5" d="M231.3,180.9c0.8,0,1.6-0.1,2.5-0.4v2.5c-0.4,0.2-0.8,0.3-1.4,0.4c-0.6,0.1-1.2,0.2-1.8,0.2
		c-3.2,0-4.8-1.7-4.8-5v-8.5h-2.2v-1.5l2.3-1.2l1.1-3.3h2.1v3.5h4.5v2.5h-4.5v8.4c0,0.8,0.2,1.4,0.6,1.8S230.6,180.9,231.3,180.9z"
		/>
	<path class="st5" d="M258.5,175.4c0,2.6-0.7,4.6-2,6c-1.3,1.4-3.2,2.2-5.5,2.2c-1.5,0-2.8-0.3-3.9-1c-1.1-0.7-2-1.6-2.6-2.9
		c-0.6-1.2-0.9-2.7-0.9-4.3c0-2.6,0.7-4.6,2-6c1.3-1.4,3.2-2.2,5.5-2.2c2.3,0,4.1,0.7,5.4,2.2C257.8,170.9,258.5,172.9,258.5,175.4z
		 M247,175.4c0,3.6,1.3,5.5,4,5.5c2.7,0,4-1.8,4-5.5c0-3.6-1.3-5.4-4-5.4c-1.4,0-2.4,0.5-3.1,1.4C247.3,172.3,247,173.6,247,175.4z"
		/>
	<path class="st5" d="M273.5,183.3l-0.5-2.1h-0.2c-0.5,0.7-1.1,1.3-2,1.7s-1.8,0.6-2.9,0.6c-1.9,0-3.3-0.5-4.3-1.4s-1.4-2.4-1.4-4.3
		v-10.3h3.4v9.7c0,1.2,0.2,2.1,0.7,2.7c0.5,0.6,1.3,0.9,2.3,0.9c1.4,0,2.4-0.4,3.1-1.3c0.7-0.8,1-2.3,1-4.2v-7.9h3.4v15.8H273.5z"/>
	<path class="st5" d="M288.9,167.2c0.7,0,1.2,0,1.7,0.1l-0.3,3.1c-0.5-0.1-1-0.2-1.5-0.2c-1.3,0-2.4,0.4-3.3,1.3
		c-0.8,0.9-1.2,2-1.2,3.4v8.2h-3.4v-15.8h2.6l0.4,2.8h0.2c0.5-0.9,1.2-1.7,2-2.2S287.9,167.2,288.9,167.2z"/>
	<path class="st5" d="M309,170.1h-3.8v13.2h-3.4v-13.2h-2.6v-1.6l2.6-1v-1c0-1.9,0.4-3.2,1.3-4.1c0.9-0.9,2.2-1.3,4-1.3
		c1.2,0,2.3,0.2,3.5,0.6l-0.9,2.5c-0.8-0.3-1.6-0.4-2.4-0.4c-0.8,0-1.3,0.2-1.7,0.7c-0.3,0.5-0.5,1.2-0.5,2.1v1h3.8V170.1z
		 M311.4,163.4c0-0.6,0.2-1.1,0.5-1.4c0.3-0.3,0.8-0.5,1.4-0.5c0.6,0,1,0.2,1.4,0.5c0.3,0.3,0.5,0.8,0.5,1.4c0,0.6-0.2,1-0.5,1.3
		c-0.3,0.3-0.8,0.5-1.4,0.5c-0.6,0-1.1-0.2-1.4-0.5C311.6,164.4,311.4,163.9,311.4,163.4z M315,183.3h-3.4v-15.8h3.4V183.3z"/>
	<path class="st5" d="M327.8,167.2c0.7,0,1.2,0,1.7,0.1l-0.3,3.1c-0.5-0.1-1-0.2-1.5-0.2c-1.3,0-2.4,0.4-3.3,1.3
		c-0.8,0.9-1.2,2-1.2,3.4v8.2h-3.4v-15.8h2.6l0.4,2.8h0.2c0.5-0.9,1.2-1.7,2-2.2S326.8,167.2,327.8,167.2z"/>
	<path class="st5" d="M343,178.8c0,1.5-0.6,2.7-1.7,3.5s-2.7,1.2-4.8,1.2c-2.1,0-3.8-0.3-5.1-1v-2.9c1.9,0.9,3.6,1.3,5.2,1.3
		c2.1,0,3.1-0.6,3.1-1.9c0-0.4-0.1-0.7-0.3-1c-0.2-0.3-0.6-0.5-1.1-0.8c-0.5-0.3-1.3-0.6-2.2-1c-1.8-0.7-3-1.4-3.7-2.1
		c-0.6-0.7-1-1.6-1-2.7c0-1.3,0.5-2.4,1.6-3.1s2.6-1.1,4.4-1.1c1.9,0,3.6,0.4,5.3,1.1l-1.1,2.5c-1.7-0.7-3.1-1.1-4.3-1.1
		c-1.8,0-2.7,0.5-2.7,1.5c0,0.5,0.2,0.9,0.7,1.3s1.5,0.8,3,1.4c1.3,0.5,2.2,1,2.8,1.4c0.6,0.4,1,0.9,1.3,1.4
		C342.8,177.4,343,178.1,343,178.8z"/>
	<path class="st5" d="M352.5,180.9c0.8,0,1.6-0.1,2.5-0.4v2.5c-0.4,0.2-0.8,0.3-1.4,0.4c-0.6,0.1-1.2,0.2-1.8,0.2
		c-3.2,0-4.8-1.7-4.8-5v-8.5h-2.2v-1.5l2.3-1.2l1.1-3.3h2.1v3.5h4.5v2.5h-4.5v8.4c0,0.8,0.2,1.4,0.6,1.8S351.8,180.9,352.5,180.9z"
		/>
	<path class="st5" d="M372.6,183.6c-2.5,0-4.4-0.7-5.8-2.1c-1.4-1.4-2.1-3.4-2.1-5.9c0-2.6,0.6-4.6,1.9-6.1c1.3-1.5,3-2.2,5.3-2.2
		c2.1,0,3.7,0.6,4.9,1.9c1.2,1.3,1.8,3,1.8,5.2v1.8h-10.5c0,1.5,0.5,2.7,1.2,3.5c0.8,0.8,1.9,1.2,3.3,1.2c0.9,0,1.8-0.1,2.6-0.3
		s1.7-0.5,2.6-0.9v2.7c-0.8,0.4-1.6,0.7-2.5,0.8C374.6,183.5,373.6,183.6,372.6,183.6z M371.9,169.8c-1.1,0-1.9,0.3-2.6,1
		s-1,1.7-1.1,3h7.2c0-1.3-0.3-2.3-0.9-3C373.8,170.1,373,169.8,371.9,169.8z"/>
	<path class="st5" d="M386.1,183.3l-6-15.8h3.5l3.2,9.2c0.6,1.5,0.9,2.8,1,3.7h0.1c0.1-0.7,0.4-1.9,1-3.7l3.2-9.2h3.6l-6,15.8H386.1
		z"/>
	<path class="st5" d="M405,183.6c-2.5,0-4.4-0.7-5.8-2.1c-1.4-1.4-2.1-3.4-2.1-5.9c0-2.6,0.6-4.6,1.9-6.1c1.3-1.5,3-2.2,5.3-2.2
		c2.1,0,3.7,0.6,4.9,1.9s1.8,3,1.8,5.2v1.8h-10.5c0,1.5,0.5,2.7,1.2,3.5c0.8,0.8,1.9,1.2,3.3,1.2c0.9,0,1.8-0.1,2.6-0.3
		c0.8-0.2,1.7-0.5,2.6-0.9v2.7c-0.8,0.4-1.6,0.7-2.5,0.8C407,183.5,406.1,183.6,405,183.6z M404.4,169.8c-1.1,0-1.9,0.3-2.6,1
		s-1,1.7-1.1,3h7.2c0-1.3-0.3-2.3-0.9-3S405.5,169.8,404.4,169.8z"/>
	<path class="st5" d="M422.9,167.2c0.7,0,1.2,0,1.7,0.1l-0.3,3.1c-0.5-0.1-1-0.2-1.5-0.2c-1.3,0-2.4,0.4-3.3,1.3
		c-0.8,0.9-1.2,2-1.2,3.4v8.2h-3.4v-15.8h2.6l0.4,2.8h0.2c0.5-0.9,1.2-1.7,2-2.2C421.1,167.5,422,167.2,422.9,167.2z"/>
	<path class="st5" d="M444.3,165.1c-2,0-3.5,0.7-4.6,2.1c-1.1,1.4-1.7,3.3-1.7,5.7c0,2.6,0.5,4.5,1.6,5.8c1.1,1.3,2.6,2,4.7,2
		c0.9,0,1.7-0.1,2.6-0.3s1.7-0.4,2.6-0.7v2.9c-1.6,0.6-3.5,0.9-5.6,0.9c-3.1,0-5.4-0.9-7-2.8c-1.6-1.8-2.5-4.5-2.5-7.9
		c0-2.2,0.4-4.1,1.2-5.7s1.9-2.9,3.4-3.7c1.5-0.9,3.3-1.3,5.3-1.3c2.1,0,4.1,0.4,5.9,1.3l-1.2,2.8c-0.7-0.3-1.4-0.6-2.2-0.9
		C446,165.2,445.2,165.1,444.3,165.1z"/>
	<path class="st5" d="M463.5,183.3l-0.7-2.2h-0.1c-0.8,1-1.5,1.6-2.3,2c-0.8,0.3-1.8,0.5-3,0.5c-1.5,0-2.8-0.4-3.6-1.3
		s-1.3-2-1.3-3.5c0-1.6,0.6-2.9,1.8-3.7c1.2-0.8,3-1.3,5.5-1.4l2.7-0.1v-0.8c0-1-0.2-1.8-0.7-2.3s-1.2-0.7-2.2-0.7
		c-0.8,0-1.6,0.1-2.3,0.4c-0.7,0.2-1.5,0.5-2.1,0.8l-1.1-2.4c0.9-0.4,1.8-0.8,2.8-1s2-0.3,2.9-0.3c2,0,3.5,0.4,4.5,1.3
		c1,0.9,1.5,2.2,1.5,4.1v10.6H463.5z M458.5,181c1.2,0,2.2-0.3,2.9-1c0.7-0.7,1.1-1.6,1.1-2.9v-1.4l-2,0.1c-1.6,0.1-2.7,0.3-3.4,0.8
		s-1.1,1.2-1.1,2.2c0,0.7,0.2,1.2,0.6,1.6S457.7,181,458.5,181z"/>
	<path class="st5" d="M483.9,183.3h-3.4v-9.7c0-1.2-0.2-2.1-0.7-2.7c-0.5-0.6-1.2-0.9-2.1-0.9c-1.3,0-2.2,0.4-2.8,1.3
		s-0.9,2.2-0.9,4.2v7.9h-3.4v-15.8h2.6l0.5,2.1h0.2c0.4-0.8,1.1-1.3,1.9-1.7c0.8-0.4,1.7-0.6,2.7-0.6c2.4,0,4,0.8,4.8,2.5h0.2
		c0.5-0.8,1.1-1.4,2-1.8c0.8-0.4,1.8-0.7,2.9-0.7c1.9,0,3.3,0.5,4.1,1.4c0.9,1,1.3,2.4,1.3,4.3v10.3h-3.4v-9.7
		c0-1.2-0.2-2.1-0.7-2.7c-0.5-0.6-1.2-0.9-2.1-0.9c-1.3,0-2.3,0.4-2.9,1.2c-0.6,0.8-0.9,2.1-0.9,3.7V183.3z"/>
	<path class="st5" d="M509.6,183.3l-0.5-2.1H509c-0.5,0.7-1.1,1.3-2,1.7s-1.8,0.6-2.9,0.6c-1.9,0-3.3-0.5-4.3-1.4
		c-0.9-1-1.4-2.4-1.4-4.3v-10.3h3.4v9.7c0,1.2,0.2,2.1,0.7,2.7c0.5,0.6,1.3,0.9,2.3,0.9c1.4,0,2.4-0.4,3.1-1.3c0.7-0.8,1-2.3,1-4.2
		v-7.9h3.4v15.8H509.6z"/>
	<path class="st5" d="M530.9,183.3h-3.4v-9.7c0-1.2-0.2-2.1-0.7-2.7c-0.5-0.6-1.3-0.9-2.3-0.9c-1.4,0-2.5,0.4-3.1,1.3
		c-0.7,0.8-1,2.2-1,4.2v7.9H517v-15.8h2.6l0.5,2.1h0.2c0.5-0.8,1.2-1.3,2-1.7c0.9-0.4,1.8-0.6,2.9-0.6c3.8,0,5.7,1.9,5.7,5.8V183.3z
		"/>
	<path class="st5" d="M540.9,183.6c-2,0-3.5-0.7-4.6-2.1c-1.1-1.4-1.7-3.4-1.7-6c0-2.6,0.6-4.6,1.7-6c1.1-1.4,2.7-2.2,4.6-2.2
		c2.1,0,3.7,0.8,4.7,2.3h0.2c-0.2-1.1-0.2-2-0.2-2.7v-5.7h3.4v22.2h-2.6l-0.6-2.1h-0.2C544.5,182.8,543,183.6,540.9,183.6z
		 M541.8,180.9c1.4,0,2.4-0.4,3-1.2c0.6-0.8,1-2,1-3.8v-0.5c0-2-0.3-3.4-1-4.2c-0.6-0.8-1.7-1.3-3-1.3c-1.2,0-2.1,0.5-2.7,1.4
		s-1,2.3-1,4.1c0,1.7,0.3,3.1,0.9,4C539.6,180.4,540.5,180.9,541.8,180.9z"/>
	<path class="st5" d="M563.6,183.3l-0.7-2.2h-0.1c-0.8,1-1.5,1.6-2.3,2c-0.8,0.3-1.8,0.5-3,0.5c-1.5,0-2.8-0.4-3.6-1.3
		s-1.3-2-1.3-3.5c0-1.6,0.6-2.9,1.8-3.7c1.2-0.8,3-1.3,5.5-1.4l2.7-0.1v-0.8c0-1-0.2-1.8-0.7-2.3s-1.2-0.7-2.2-0.7
		c-0.8,0-1.6,0.1-2.3,0.4c-0.7,0.2-1.5,0.5-2.1,0.8l-1.1-2.4c0.9-0.4,1.8-0.8,2.8-1s2-0.3,2.9-0.3c2,0,3.5,0.4,4.5,1.3
		c1,0.9,1.5,2.2,1.5,4.1v10.6H563.6z M558.6,181c1.2,0,2.2-0.3,2.9-1c0.7-0.7,1.1-1.6,1.1-2.9v-1.4l-2,0.1c-1.6,0.1-2.7,0.3-3.4,0.8
		s-1.1,1.2-1.1,2.2c0,0.7,0.2,1.2,0.6,1.6S557.8,181,558.6,181z"/>
	<path class="st5" d="M595.6,172.7c0,3.4-1,6.1-2.9,7.9c-1.9,1.8-4.7,2.7-8.3,2.7h-5.8v-20.8h6.4c3.3,0,5.9,0.9,7.7,2.7
		C594.7,166.9,595.6,169.4,595.6,172.7z M592,172.8c0-5-2.3-7.5-7-7.5h-3v15.1h2.4C589.5,180.4,592,177.9,592,172.8z"/>
	<path class="st5" d="M609.6,183.3l-0.7-2.2h-0.1c-0.8,1-1.5,1.6-2.3,2c-0.8,0.3-1.8,0.5-3,0.5c-1.5,0-2.8-0.4-3.6-1.3
		s-1.3-2-1.3-3.5c0-1.6,0.6-2.9,1.8-3.7c1.2-0.8,3-1.3,5.5-1.4l2.7-0.1v-0.8c0-1-0.2-1.8-0.7-2.3s-1.2-0.7-2.2-0.7
		c-0.8,0-1.6,0.1-2.3,0.4c-0.7,0.2-1.5,0.5-2.1,0.8l-1.1-2.4c0.9-0.4,1.8-0.8,2.8-1s2-0.3,2.9-0.3c2,0,3.5,0.4,4.5,1.3
		c1,0.9,1.5,2.2,1.5,4.1v10.6H609.6z M604.6,181c1.2,0,2.2-0.3,2.9-1c0.7-0.7,1.1-1.6,1.1-2.9v-1.4l-2,0.1c-1.6,0.1-2.7,0.3-3.4,0.8
		s-1.1,1.2-1.1,2.2c0,0.7,0.2,1.2,0.6,1.6S603.8,181,604.6,181z"/>
	<path class="st5" d="M614.3,167.5h3.7l3.2,8.9c0.5,1.3,0.8,2.5,1,3.6h0.1c0.1-0.5,0.2-1.2,0.5-1.9c0.2-0.7,1.4-4.3,3.6-10.6h3.6
		l-6.7,17.9c-1.2,3.3-3.3,4.9-6.1,4.9c-0.7,0-1.5-0.1-2.2-0.2v-2.7c0.5,0.1,1.1,0.2,1.7,0.2c1.6,0,2.8-0.9,3.4-2.8l0.6-1.5
		L614.3,167.5z"/>
	<path class="st5" d="M639.7,163.4c0-0.6,0.2-1.1,0.5-1.4c0.3-0.3,0.8-0.5,1.4-0.5c0.6,0,1,0.2,1.4,0.5c0.3,0.3,0.5,0.8,0.5,1.4
		c0,0.6-0.2,1-0.5,1.3c-0.3,0.3-0.8,0.5-1.4,0.5c-0.6,0-1.1-0.2-1.4-0.5C639.9,164.4,639.7,163.9,639.7,163.4z M643.2,183.3h-3.4
		v-15.8h3.4V183.3z"/>
	<path class="st5" d="M661.9,183.3h-3.4v-9.7c0-1.2-0.2-2.1-0.7-2.7c-0.5-0.6-1.3-0.9-2.3-0.9c-1.4,0-2.5,0.4-3.1,1.3
		c-0.7,0.8-1,2.2-1,4.2v7.9H648v-15.8h2.6l0.5,2.1h0.2c0.5-0.8,1.2-1.3,2-1.7c0.9-0.4,1.8-0.6,2.9-0.6c3.8,0,5.7,1.9,5.7,5.8V183.3z
		"/>
	<path class="st5" d="M143.8,224.2c-0.9,0-1.7-0.1-2.3-0.4v-2.9c0.8,0.2,1.5,0.3,2.1,0.3c1.9,0,2.8-1.2,2.8-3.5v-20.2h3.4v20.1
		c0,2.1-0.5,3.8-1.5,4.9C147.3,223.6,145.8,224.2,143.8,224.2z"/>
	<path class="st5" d="M168.8,210.4c0,2.6-0.7,4.6-2,6s-3.2,2.2-5.5,2.2c-1.5,0-2.8-0.3-3.9-1c-1.1-0.7-2-1.6-2.6-2.9
		c-0.6-1.2-0.9-2.7-0.9-4.3c0-2.6,0.7-4.6,2-6c1.3-1.4,3.2-2.2,5.5-2.2c2.3,0,4.1,0.7,5.4,2.2C168.2,206,168.8,207.9,168.8,210.4z
		 M157.4,210.4c0,3.6,1.3,5.5,4,5.5c2.7,0,4-1.8,4-5.5c0-3.6-1.3-5.4-4-5.4c-1.4,0-2.4,0.5-3.1,1.4
		C157.7,207.4,157.4,208.7,157.4,210.4z"/>
	<path class="st5" d="M186.6,218.3h-3.4v-9.7c0-1.2-0.2-2.1-0.7-2.7c-0.5-0.6-1.3-0.9-2.3-0.9c-1.4,0-2.4,0.4-3.1,1.3
		c-0.7,0.8-1,2.3-1,4.2v7.8h-3.4v-22.2h3.4v5.6c0,0.9-0.1,1.9-0.2,2.9h0.2c0.5-0.8,1.1-1.3,1.9-1.8c0.8-0.4,1.8-0.6,2.8-0.6
		c3.8,0,5.7,1.9,5.7,5.8V218.3z"/>
	<path class="st5" d="M201.1,218.3l-0.7-2.2h-0.1c-0.8,1-1.5,1.6-2.3,2c-0.8,0.3-1.8,0.5-3,0.5c-1.5,0-2.8-0.4-3.6-1.3
		c-0.9-0.8-1.3-2-1.3-3.5c0-1.6,0.6-2.9,1.8-3.7c1.2-0.8,3-1.3,5.5-1.4l2.7-0.1v-0.8c0-1-0.2-1.8-0.7-2.3c-0.5-0.5-1.2-0.7-2.2-0.7
		c-0.8,0-1.6,0.1-2.3,0.4c-0.7,0.2-1.5,0.5-2.1,0.8l-1.1-2.4c0.9-0.4,1.8-0.8,2.8-1c1-0.2,2-0.3,2.9-0.3c2,0,3.5,0.4,4.5,1.3
		c1,0.9,1.5,2.2,1.5,4.1v10.6H201.1z M196.1,216.1c1.2,0,2.2-0.3,2.9-1s1.1-1.6,1.1-2.9v-1.4l-2,0.1c-1.6,0.1-2.7,0.3-3.4,0.8
		s-1.1,1.2-1.1,2.2c0,0.7,0.2,1.2,0.6,1.6C194.6,215.9,195.3,216.1,196.1,216.1z"/>
	<path class="st5" d="M222,218.3h-3.4v-9.7c0-1.2-0.2-2.1-0.7-2.7c-0.5-0.6-1.3-0.9-2.3-0.9c-1.4,0-2.5,0.4-3.1,1.3
		c-0.7,0.8-1,2.2-1,4.2v7.9h-3.4v-15.8h2.6l0.5,2.1h0.2c0.5-0.8,1.2-1.3,2-1.7c0.9-0.4,1.8-0.6,2.9-0.6c3.8,0,5.7,1.9,5.7,5.8V218.3
		z"/>
	<path class="st5" d="M240.6,218.3h-3.4v-9.7c0-1.2-0.2-2.1-0.7-2.7c-0.5-0.6-1.3-0.9-2.3-0.9c-1.4,0-2.5,0.4-3.1,1.3
		c-0.7,0.8-1,2.2-1,4.2v7.9h-3.4v-15.8h2.6l0.5,2.1h0.2c0.5-0.8,1.2-1.3,2-1.7c0.9-0.4,1.8-0.6,2.9-0.6c3.8,0,5.7,1.9,5.7,5.8V218.3
		z"/>
	<path class="st5" d="M252.1,218.6c-2.5,0-4.4-0.7-5.8-2.1c-1.4-1.4-2.1-3.4-2.1-5.9c0-2.6,0.6-4.6,1.9-6.1s3-2.2,5.3-2.2
		c2.1,0,3.7,0.6,4.9,1.9c1.2,1.3,1.8,3,1.8,5.2v1.8h-10.5c0,1.5,0.5,2.7,1.2,3.5c0.8,0.8,1.9,1.2,3.3,1.2c0.9,0,1.8-0.1,2.6-0.3
		s1.7-0.5,2.6-0.9v2.7c-0.8,0.4-1.6,0.7-2.5,0.8C254.2,218.5,253.2,218.6,252.1,218.6z M251.5,204.8c-1.1,0-1.9,0.3-2.6,1
		c-0.6,0.7-1,1.7-1.1,3h7.2c0-1.3-0.3-2.3-0.9-3C253.4,205.2,252.6,204.8,251.5,204.8z"/>
	<path class="st5" d="M272.7,213.9c0,1.5-0.6,2.7-1.7,3.5s-2.7,1.2-4.8,1.2c-2.1,0-3.8-0.3-5.1-1v-2.9c1.9,0.9,3.6,1.3,5.2,1.3
		c2.1,0,3.1-0.6,3.1-1.9c0-0.4-0.1-0.7-0.3-1c-0.2-0.3-0.6-0.5-1.1-0.8c-0.5-0.3-1.3-0.6-2.2-1c-1.8-0.7-3-1.4-3.7-2.1s-1-1.6-1-2.7
		c0-1.3,0.5-2.4,1.6-3.1s2.6-1.1,4.4-1.1c1.9,0,3.6,0.4,5.3,1.1l-1.1,2.5c-1.7-0.7-3.1-1.1-4.3-1.1c-1.8,0-2.7,0.5-2.7,1.5
		c0,0.5,0.2,0.9,0.7,1.3c0.5,0.3,1.5,0.8,3,1.4c1.3,0.5,2.2,1,2.8,1.4c0.6,0.4,1,0.9,1.3,1.4C272.5,212.4,272.7,213.1,272.7,213.9z"
		/>
	<path class="st5" d="M284.3,202.3c2,0,3.5,0.7,4.6,2.1c1.1,1.4,1.6,3.4,1.6,6c0,2.6-0.6,4.6-1.7,6c-1.1,1.4-2.7,2.2-4.6,2.2
		c-2,0-3.5-0.7-4.6-2.2h-0.2l-0.6,1.9h-2.5v-22.2h3.4v5.3c0,0.4,0,1-0.1,1.7c0,0.8-0.1,1.3-0.1,1.5h0.1
		C280.7,203.1,282.3,202.3,284.3,202.3z M283.5,205c-1.4,0-2.3,0.4-2.9,1.2c-0.6,0.8-0.9,2.1-0.9,4v0.2c0,1.9,0.3,3.3,0.9,4.2
		c0.6,0.9,1.6,1.3,3,1.3c1.2,0,2.1-0.5,2.7-1.4c0.6-0.9,0.9-2.3,0.9-4.1C287.1,206.8,285.9,205,283.5,205z"/>
	<path class="st5" d="M305.6,218.3l-0.5-2.1H305c-0.5,0.7-1.1,1.3-2,1.7c-0.9,0.4-1.8,0.6-2.9,0.6c-1.9,0-3.3-0.5-4.3-1.4
		c-0.9-1-1.4-2.4-1.4-4.3v-10.3h3.4v9.7c0,1.2,0.2,2.1,0.7,2.7s1.3,0.9,2.3,0.9c1.4,0,2.4-0.4,3.1-1.3c0.7-0.8,1-2.3,1-4.2v-7.9h3.4
		v15.8H305.6z"/>
	<path class="st5" d="M321,202.3c0.7,0,1.2,0,1.7,0.1l-0.3,3.1c-0.5-0.1-1-0.2-1.5-0.2c-1.3,0-2.4,0.4-3.3,1.3
		c-0.8,0.9-1.2,2-1.2,3.4v8.2H313v-15.8h2.6l0.4,2.8h0.2c0.5-0.9,1.2-1.7,2-2.2C319.1,202.6,320,202.3,321,202.3z"/>
	<path class="st5" d="M338.9,202.6v1.8l-2.7,0.5c0.2,0.3,0.5,0.7,0.6,1.2s0.2,1,0.2,1.5c0,1.6-0.6,2.9-1.7,3.8
		c-1.1,0.9-2.7,1.4-4.6,1.4c-0.5,0-1,0-1.4-0.1c-0.7,0.4-1.1,1-1.1,1.6c0,0.4,0.2,0.6,0.5,0.8c0.3,0.2,1,0.3,1.9,0.3h2.8
		c1.7,0,3.1,0.4,4,1.1c0.9,0.7,1.4,1.8,1.4,3.2c0,1.8-0.7,3.2-2.2,4.1c-1.5,1-3.6,1.5-6.4,1.5c-2.1,0-3.8-0.4-4.9-1.1
		c-1.1-0.8-1.7-1.8-1.7-3.3c0-1,0.3-1.8,0.9-2.4s1.5-1.1,2.6-1.4c-0.4-0.2-0.8-0.5-1.1-0.9s-0.4-0.9-0.4-1.3c0-0.6,0.2-1.1,0.5-1.5
		c0.3-0.4,0.8-0.8,1.5-1.2c-0.8-0.4-1.5-0.9-2-1.7c-0.5-0.8-0.8-1.7-0.8-2.8c0-1.7,0.5-3,1.6-4c1.1-0.9,2.6-1.4,4.6-1.4
		c0.4,0,0.9,0,1.4,0.1c0.5,0.1,0.9,0.1,1.1,0.2H338.9z M326.5,220.8c0,0.7,0.3,1.3,1,1.7c0.7,0.4,1.6,0.6,2.7,0.6
		c1.8,0,3.2-0.3,4.1-0.8c0.9-0.5,1.3-1.2,1.3-2.1c0-0.7-0.2-1.2-0.7-1.5c-0.5-0.3-1.4-0.4-2.7-0.4h-2.5c-1,0-1.7,0.2-2.3,0.7
		C326.8,219.4,326.5,220,326.5,220.8z M328,207.7c0,1,0.3,1.7,0.8,2.3c0.5,0.5,1.2,0.8,2.2,0.8c1.9,0,2.9-1,2.9-3.1
		c0-1-0.2-1.8-0.7-2.4c-0.5-0.6-1.2-0.8-2.2-0.8c-1,0-1.7,0.3-2.2,0.8C328.2,205.8,328,206.6,328,207.7z"/>
	<path class="st5" d="M363.4,210.4c0,2.6-0.7,4.6-2,6s-3.2,2.2-5.5,2.2c-1.5,0-2.8-0.3-3.9-1c-1.1-0.7-2-1.6-2.6-2.9
		c-0.6-1.2-0.9-2.7-0.9-4.3c0-2.6,0.7-4.6,2-6c1.3-1.4,3.2-2.2,5.5-2.2c2.3,0,4.1,0.7,5.4,2.2C362.8,206,363.4,207.9,363.4,210.4z
		 M351.9,210.4c0,3.6,1.3,5.5,4,5.5c2.7,0,4-1.8,4-5.5c0-3.6-1.3-5.4-4-5.4c-1.4,0-2.4,0.5-3.1,1.4
		C352.3,207.4,351.9,208.7,351.9,210.4z"/>
	<path class="st5" d="M381.1,218.3h-3.4v-9.7c0-1.2-0.2-2.1-0.7-2.7c-0.5-0.6-1.3-0.9-2.3-0.9c-1.4,0-2.5,0.4-3.1,1.3
		c-0.7,0.8-1,2.2-1,4.2v7.9h-3.4v-15.8h2.6l0.5,2.1h0.2c0.5-0.8,1.2-1.3,2-1.7c0.9-0.4,1.8-0.6,2.9-0.6c3.8,0,5.7,1.9,5.7,5.8V218.3
		z"/>
	<path class="st5" d="M411.1,218.3h-4.2l-10.3-16.6h-0.1l0.1,0.9c0.1,1.8,0.2,3.4,0.2,4.8v10.8h-3.1v-20.8h4.1l10.2,16.5h0.1
		c0-0.2-0.1-1-0.1-2.4c-0.1-1.4-0.1-2.4-0.1-3.2v-10.9h3.1V218.3z"/>
	<path class="st5" d="M430.3,210.4c0,2.6-0.7,4.6-2,6s-3.2,2.2-5.5,2.2c-1.5,0-2.8-0.3-3.9-1c-1.1-0.7-2-1.6-2.6-2.9
		c-0.6-1.2-0.9-2.7-0.9-4.3c0-2.6,0.7-4.6,2-6s3.2-2.2,5.5-2.2c2.3,0,4.1,0.7,5.4,2.2S430.3,207.9,430.3,210.4z M418.8,210.4
		c0,3.6,1.3,5.5,4,5.5c2.7,0,4-1.8,4-5.5c0-3.6-1.3-5.4-4-5.4c-1.4,0-2.4,0.5-3.1,1.4C419.1,207.4,418.8,208.7,418.8,210.4z"/>
	<path class="st5" d="M437.7,218.3l-6-15.8h3.5l3.2,9.2c0.6,1.5,0.9,2.8,1,3.7h0.1c0.1-0.7,0.4-1.9,1-3.7l3.2-9.2h3.6l-6,15.8H437.7
		z"/>
	<path class="st5" d="M456.6,218.6c-2.5,0-4.4-0.7-5.8-2.1s-2.1-3.4-2.1-5.9c0-2.6,0.6-4.6,1.9-6.1s3-2.2,5.3-2.2
		c2.1,0,3.7,0.6,4.9,1.9c1.2,1.3,1.8,3,1.8,5.2v1.8h-10.5c0,1.5,0.5,2.7,1.2,3.5c0.8,0.8,1.9,1.2,3.3,1.2c0.9,0,1.8-0.1,2.6-0.3
		c0.8-0.2,1.7-0.5,2.6-0.9v2.7c-0.8,0.4-1.6,0.7-2.5,0.8C458.6,218.5,457.7,218.6,456.6,218.6z M456,204.8c-1.1,0-1.9,0.3-2.6,1
		c-0.6,0.7-1,1.7-1.1,3h7.2c0-1.3-0.3-2.3-0.9-3C457.9,205.2,457.1,204.8,456,204.8z"/>
	<path class="st5" d="M479.8,218.3h-3.4v-9.7c0-1.2-0.2-2.1-0.7-2.7c-0.5-0.6-1.2-0.9-2.1-0.9c-1.3,0-2.2,0.4-2.8,1.3
		c-0.6,0.8-0.9,2.2-0.9,4.2v7.9h-3.4v-15.8h2.6l0.5,2.1h0.2c0.4-0.8,1.1-1.3,1.9-1.7c0.8-0.4,1.7-0.6,2.7-0.6c2.4,0,4,0.8,4.8,2.5
		h0.2c0.5-0.8,1.1-1.4,2-1.8s1.8-0.7,2.9-0.7c1.9,0,3.3,0.5,4.1,1.4s1.3,2.4,1.3,4.3v10.3h-3.4v-9.7c0-1.2-0.2-2.1-0.7-2.7
		c-0.5-0.6-1.2-0.9-2.1-0.9c-1.3,0-2.3,0.4-2.9,1.2s-0.9,2.1-0.9,3.7V218.3z"/>
	<path class="st5" d="M502.5,202.3c2,0,3.5,0.7,4.6,2.1c1.1,1.4,1.6,3.4,1.6,6c0,2.6-0.6,4.6-1.7,6c-1.1,1.4-2.7,2.2-4.6,2.2
		c-2,0-3.5-0.7-4.6-2.2h-0.2l-0.6,1.9h-2.5v-22.2h3.4v5.3c0,0.4,0,1-0.1,1.7c0,0.8-0.1,1.3-0.1,1.5h0.1
		C498.9,203.1,500.5,202.3,502.5,202.3z M501.7,205c-1.4,0-2.3,0.4-2.9,1.2c-0.6,0.8-0.9,2.1-0.9,4v0.2c0,1.9,0.3,3.3,0.9,4.2
		c0.6,0.9,1.6,1.3,3,1.3c1.2,0,2.1-0.5,2.7-1.4c0.6-0.9,0.9-2.3,0.9-4.1C505.3,206.8,504.1,205,501.7,205z"/>
	<path class="st5" d="M519.6,218.6c-2.5,0-4.4-0.7-5.8-2.1c-1.4-1.4-2.1-3.4-2.1-5.9c0-2.6,0.6-4.6,1.9-6.1s3-2.2,5.3-2.2
		c2.1,0,3.7,0.6,4.9,1.9c1.2,1.3,1.8,3,1.8,5.2v1.8h-10.5c0,1.5,0.5,2.7,1.2,3.5c0.8,0.8,1.9,1.2,3.3,1.2c0.9,0,1.8-0.1,2.6-0.3
		c0.8-0.2,1.7-0.5,2.6-0.9v2.7c-0.8,0.4-1.6,0.7-2.5,0.8C521.6,218.5,520.6,218.6,519.6,218.6z M518.9,204.8c-1.1,0-1.9,0.3-2.6,1
		c-0.6,0.7-1,1.7-1.1,3h7.2c0-1.3-0.3-2.3-0.9-3C520.8,205.2,520,204.8,518.9,204.8z"/>
	<path class="st5" d="M537.5,202.3c0.7,0,1.2,0,1.7,0.1l-0.3,3.1c-0.5-0.1-1-0.2-1.5-0.2c-1.3,0-2.4,0.4-3.3,1.3
		c-0.8,0.9-1.2,2-1.2,3.4v8.2h-3.4v-15.8h2.6l0.4,2.8h0.2c0.5-0.9,1.2-1.7,2-2.2C535.6,202.6,536.5,202.3,537.5,202.3z"/>
	<path class="st5" d="M562.7,218.3h-14.1v-2.5l5.4-5.4c1.6-1.6,2.6-2.8,3.2-3.5s0.9-1.3,1.1-1.9c0.2-0.6,0.4-1.2,0.4-1.9
		c0-0.9-0.3-1.7-0.8-2.2s-1.3-0.8-2.3-0.8c-0.8,0-1.6,0.1-2.3,0.4c-0.7,0.3-1.6,0.8-2.6,1.6l-1.8-2.2c1.2-1,2.3-1.7,3.4-2.1
		c1.1-0.4,2.3-0.6,3.5-0.6c1.9,0,3.5,0.5,4.7,1.5c1.2,1,1.8,2.4,1.8,4.1c0,0.9-0.2,1.8-0.5,2.7c-0.3,0.8-0.9,1.7-1.6,2.6
		c-0.7,0.9-1.9,2.1-3.5,3.6l-3.6,3.5v0.1h9.9V218.3z"/>
	<path class="st5" d="M579.4,218.3h-14.1v-2.5l5.4-5.4c1.6-1.6,2.6-2.8,3.2-3.5s0.9-1.3,1.1-1.9c0.2-0.6,0.4-1.2,0.4-1.9
		c0-0.9-0.3-1.7-0.8-2.2s-1.3-0.8-2.3-0.8c-0.8,0-1.6,0.1-2.3,0.4c-0.7,0.3-1.6,0.8-2.6,1.6l-1.8-2.2c1.2-1,2.3-1.7,3.4-2.1
		c1.1-0.4,2.3-0.6,3.5-0.6c1.9,0,3.5,0.5,4.7,1.5c1.2,1,1.8,2.4,1.8,4.1c0,0.9-0.2,1.8-0.5,2.7c-0.3,0.8-0.9,1.7-1.6,2.6
		c-0.7,0.9-1.9,2.1-3.5,3.6l-3.6,3.5v0.1h9.9V218.3z"/>
	<path class="st5" d="M596.9,218.3h-3.4v-9.7c0-1.2-0.2-2.1-0.7-2.7c-0.5-0.6-1.3-0.9-2.3-0.9c-1.4,0-2.5,0.4-3.1,1.3
		c-0.7,0.8-1,2.2-1,4.2v7.9H583v-15.8h2.6l0.5,2.1h0.2c0.5-0.8,1.2-1.3,2-1.7c0.9-0.4,1.8-0.6,2.9-0.6c3.8,0,5.7,1.9,5.7,5.8V218.3z
		"/>
	<path class="st5" d="M606.9,218.6c-2,0-3.5-0.7-4.6-2.1c-1.1-1.4-1.7-3.4-1.7-6c0-2.6,0.6-4.6,1.7-6c1.1-1.4,2.7-2.2,4.6-2.2
		c2.1,0,3.7,0.8,4.7,2.3h0.2c-0.2-1.1-0.2-2-0.2-2.7v-5.7h3.4v22.2h-2.6l-0.6-2.1h-0.2C610.5,217.8,608.9,218.6,606.9,218.6z
		 M607.8,215.9c1.4,0,2.4-0.4,3-1.2c0.6-0.8,1-2,1-3.8v-0.5c0-2-0.3-3.4-1-4.2s-1.7-1.3-3-1.3c-1.2,0-2.1,0.5-2.7,1.4
		c-0.6,1-1,2.3-1,4.1c0,1.8,0.3,3.1,0.9,4C605.6,215.5,606.5,215.9,607.8,215.9z"/>
	<path class="st5" d="M619.2,216.6c0-0.7,0.2-1.2,0.5-1.6s0.9-0.6,1.6-0.6c0.7,0,1.2,0.2,1.6,0.6c0.4,0.4,0.5,0.9,0.5,1.6
		c0,0.7-0.2,1.2-0.5,1.6c-0.4,0.4-0.9,0.6-1.6,0.6s-1.2-0.2-1.6-0.6C619.4,217.8,619.2,217.2,619.2,216.6z"/>
</g>
</svg>
