<svg xmlns="http://www.w3.org/2000/svg" width="286.947" height="222.085" viewBox="0, 0, 286.947, 222.085"><path d="M77.318 84.219l.085 3.189c.668 14.182 5.766 28.164 14.554 39.329l1.879 2.293-10.708 12.017-2.618-2.945C35.211 84.142 71.21 4.341 142.252.081L146.751 0l4.415.081c71.086 4.293 107.041 84.017 61.74 138.021l-2.613 2.945-10.715-12.017 1.882-2.293 1.797-2.37c24.834-35.272 12.336-83.817-26.494-102.7l-3.031-1.388-3.185-1.225C128.092 3.51 82.319 32.168 77.728 77.107l-.244 3.513-.166 3.599m80.584 127.952h8.95v-3.223h-8.95v-9.099h-3.488v9.099h-8.95v3.223h8.95v9.1h3.488z" fill="#00C5F5"/><path d="M232.768 197.511c4.262.491 7.38 2.798 8.713 6.849l.113.455.075.493h-6.066l-.227-.607-.304-.569c-2.29-3.529-7.669-1.686-8.076 2.958l-.115.683-.077.643c-.539 6.159 2.395 10.542 8.799 8.19l.342-.151.264-.189v-3.376h-3.868v-4.396h9.595v10.274l-.533.418-.72.53c-10.87 5.895-21.518.435-19.756-12.436l.114-.606.113-.57c.877-4.184 4.076-7.39 8.278-8.339 1.088-.246 2.224-.17 3.336-.254zm-203.721.783h-5.991v13.572c-1.494 13.491 21.472 13.474 20.022 0v-13.572h-5.991v13.99l-.039.531c-.041 2.3-1.044 3.772-3.45 3.905l-.531.038-.531-.038c-2.402-.106-3.404-1.632-3.489-3.905v-14.521zm177.698 6.066l2.882 8.189h-5.842l2.96-8.189zm3.338-6.066h-6.333l-9.217 22.977h6.144l1.517-4.286h8.987l1.517 4.286h6.637l-9.252-22.977zm66.473 0h-5.953v22.977h16.344v-4.929h-10.391v-18.048zm-173.412 0h-6.143v22.977h5.612v-14.445l8.077 14.445h6.105v-22.977h-5.612v14.257l-8.039-14.257zm-26.581 0h-5.992v22.977h5.992v-9.554h7.85v9.554h5.992v-22.977h-5.992v8.455h-7.85v-8.455zm63.669 0h-16.837v22.977h17.329v-4.929h-11.338v-4.589h9.444v-4.662h-9.444v-4.096h10.846v-4.701zm124.456 0h-16.837v22.977h17.331v-4.929h-11.339v-4.589h9.443v-4.662h-9.443v-4.096h10.845v-4.701zm-86.612 0h-6.143v22.977h5.612v-14.445l8.077 14.445h6.143v-22.977h-5.65v14.257l-8.039-14.257zm-171.971 0H0v22.977h6.105v-6.522l2.239-2.692 5.119 9.214h7.242l-8.57-13.802 7.546-9.175h-6.863l-6.713 9.023v-9.023zm59.385-.228H48.653v22.976h17.292v-4.89H54.643v-4.626h9.443V206.9h-9.443v-4.095H65.49v-4.739zm80.338-149.157c.838.039 1.694-.055 2.514.119 3.295.696 5.4 3.325 5.854 6.571l.077.819-.077.734c-1.012 8.623-12.975 9.173-14.887.735l-.081-.735-.081-.734.081-.819.081-.735c1.038-3.275 3.022-5.389 6.519-5.955zm1.904-11.626h-2.044c-18.526 1.17-25.643 24.251-9.811 34.995l1.144.739 1.226.572v1.717h-13.495v10.301h13.495v67.377l-2.455-.329c-11.169-1.679-21.785-6.363-30.828-13.081l-1.882-1.472-10.14 11.855 2.779 2.126c30.356 21.692 71.629 21.704 101.978 0l2.783-2.126-10.144-11.855-1.878 1.472c-9.025 6.755-19.677 11.383-30.835 13.081l-2.452.329V85.607h13.495V75.306h-13.495v-1.717l1.226-.572 1.148-.739c15.861-10.715 8.704-33.825-9.815-34.995z" fill="#033A65"/></svg>