<?xml version="1.0" encoding="utf-8"?>
<!-- Generator: Adobe Illustrator 22.0.1, SVG Export Plug-In . SVG Version: 6.00 Build 0)  -->
<svg version="1.1" id="Ebene_1" xmlns="http://www.w3.org/2000/svg" xmlns:xlink="http://www.w3.org/1999/xlink" x="0px" y="0px"
	 viewBox="0 0 154.7 48.7" style="enable-background:new 0 0 154.7 48.7;" xml:space="preserve">
<style type="text/css">
	.st0{fill:#FF8F00;}
</style>
<g>
	<path class="st0" d="M124.4,39.9l4.4-4.8h-4.6l-3.6,4.2v-8.9h-3.9v17.3h3.9v-4l1.1-1.1l2.9,5.1h4.8L124.4,39.9z M109.6,33.6h3.9
		v-3.2h-3.9V33.6z M110.4,47.7h3.9V35.1h-3.9V47.7z M103.7,34.7c-1.4,0-3,0.8-3.7,2.1h-0.1v-1.7h-3.8v12.6h3.9v-6.9
		c0-1.4,0.6-2.7,2.1-2.7c2.1,0,2,1.7,2,3.5v6.1h3.9v-8.1C108,37.8,107.7,34.7,103.7,34.7 M89.3,34.7c-1.4,0-3,0.8-3.6,2v-6.4h-3.9
		v17.4h3.9v-6.9c0-1.4,0.6-2.7,2.1-2.7c2.1,0,2.1,1.7,2.1,3.5v6.1h3.9v-8.2C93.8,37.7,93.3,34.7,89.3,34.7 M74.7,44.9
		c-1.7,0-2.6-1.7-2.6-3.3c0-1.8,0.7-3.8,2.9-3.8c1,0,1.9,0.8,1.9,1.8h3.9c-0.3-3.3-2.9-5-5.9-5c-3.9,0-6.6,2.9-6.6,7
		c0,3.9,3,6.4,6.6,6.4c3.2,0,5.7-1.9,6-5.3H77C76.7,44.1,76.1,44.9,74.7,44.9 M58.5,40.2c0.2-1.6,1.1-2.6,2.5-2.6
		c1.4,0,2.3,1.2,2.3,2.6H58.5z M61,34.8c-3.5,0-6.4,2.8-6.4,6.7c0,4.2,2.6,6.7,6.6,6.7c2.6,0,5.2-1.3,5.9-4.2h-3.7
		c-0.3,0.9-1.2,1.4-2.2,1.4c-1.7,0-2.6-1.1-2.6-2.9h8.8C67.4,38.2,65.3,34.8,61,34.8 M52.2,47.7V34.3h4.9v-3.9H42.6v3.9h5.1v13.5
		L52.2,47.7L52.2,47.7z M148,19.1c-0.8,0-1.6-0.5-1.6-1.4c0-1,0.8-1.4,1.6-1.6c0.8-0.3,1.9-0.3,2.4-0.7
		C150.5,17.9,149.9,19.1,148,19.1 M154.2,12.5c0-3.6-2.7-4.2-5.6-4.2c-1.4,0-2.7,0.2-3.8,0.8c-1.1,0.7-1.8,1.7-1.9,3.5h3.7
		c0.1-1.1,0.9-1.7,2-1.7c0.8,0,1.9,0.4,1.9,1.4c0,0.8-0.4,1-1.1,1.1c-2.7,0.6-7,0.3-7,4.4c0,2.6,1.8,3.8,4.1,3.8
		c1.4,0,2.9-0.4,3.9-1.5c0.1,0.4,0.1,0.8,0.2,1.2h3.9c-0.5-1.1-0.5-2.2-0.5-3.2L154.2,12.5L154.2,12.5z M137.8,13.7
		c-1.8-0.5-4.5-0.7-4.5-1.8c0-0.9,1.1-1,1.7-1c0.5,0,0.9,0.1,1.3,0.3c0.3,0.2,0.5,0.6,0.5,1.1h3.6c-0.1-3.3-2.9-4.1-5.5-4.1
		c-2.3,0-5.4,0.8-5.4,3.9c0,3.4,3.1,3.5,5.6,4.2c0.7,0.2,1.9,0.4,1.9,1.4c0,1-1.1,1.4-1.8,1.4c-0.6,0-1.1-0.2-1.5-0.5
		c-0.4-0.4-0.6-0.8-0.6-1.4h-3.8c0.1,3.6,3,4.5,5.9,4.5c2.7,0,5.7-1.1,5.7-4.5C140.8,16,140.2,14.2,137.8,13.7 M119.5,14.3
		c0-1.4,0.7-2.7,2.1-2.7c2.1,0,2.1,2,2.1,3.7l0.1,6h3.9v-7.9c0-1.8-0.6-5.1-4.5-5.1c-1.4,0-3,0.8-3.8,2.1V8.6h-3.9v12.6h3.9
		L119.5,14.3L119.5,14.3z M107.3,16c0.8-0.2,1.8-0.3,2.4-0.7c0.1,2.6-0.5,3.7-2.4,3.7c-0.8,0-1.6-0.4-1.6-1.4
		C105.7,16.6,106.4,16.3,107.3,16 M109.8,20.1c0,0.4,0.1,0.8,0.2,1.1h3.9c-0.5-1-0.5-2.1-0.5-3.2v-5.5c0-3.6-2.8-4.3-5.6-4.3
		c-1.4,0-2.7,0.2-3.8,0.9c-1.1,0.6-1.8,1.7-1.9,3.4h3.7c0.2-1.1,0.8-1.7,1.9-1.7c0.8,0,1.9,0.4,1.9,1.4c0,0.8-0.4,1.1-1,1.2
		c-2.7,0.6-7,0.3-7,4.4c0,2.6,1.8,3.8,4.1,3.8C107.3,21.6,108.8,21.2,109.8,20.1 M96,8.3c-1.4,0-3,0.8-3.6,2h-0.1V3.9h-3.9v17.3h3.9
		v-6.9c0-1.4,0.7-2.7,2.1-2.7c2.1,0,2,1.8,2,3.6v6h3.9v-8.1C100.3,11.3,100,8.3,96,8.3 M80.3,16.9c0,3.4,0.9,4.5,4.2,4.5
		c0.7,0,1.4-0.2,2.1-0.2v-3c-0.3,0-0.7,0.1-1,0.1c-0.8,0-1.4-0.2-1.4-1.3v-5.7h2.4V8.6h-2.4V4.9h-3.9v3.8h-2v2.6h2L80.3,16.9
		L80.3,16.9z M75.6,21.2v-10h2.3V8.6h-2.3V8.1c0-1.1,0.5-1.3,1.4-1.3c0.3,0,0.7,0.1,1.1,0.1V4c-0.6-0.1-1.3-0.1-1.9-0.1
		c-3.3,0-4.5,1.1-4.5,4.7h-1.9v2.6h1.9v10L75.6,21.2L75.6,21.2z M61.3,21.6c1.4,0,2.9-0.8,3.6-2H65v1.7h4V8.6h-4.1v6.7
		c0,2.3-1.4,2.9-2.2,2.9c-1.3,0-2-0.6-2-2.3V8.6h-3.9v7.6C56.8,19.5,57.8,21.6,61.3,21.6 M55.8,17.4h-7.4V3.9h-4.3v17.3h11.7V17.4z
		 M13.2,25.3c-6.7,0-12-5.4-12-12.1c0-6.6,5.4-12,11.9-12c6.8,0,12.2,5.3,12.2,12.1C25.3,19.9,19.9,25.3,13.2,25.3 M13.5,0
		C5.9,0,0,5.9,0,13.3c0,7.3,5.9,13.2,13.2,13.2c7.4,0,13.3-5.9,13.3-13.2C26.5,6,20.6,0,13.5,0 M15.1,10.1c-1,2.3-2.7,3.7-4.6,3.7
		c-0.8,0-1.6-0.2-2.7-0.8l-1.1-0.6l-0.4-0.2l0.1-0.2c1,0.4,1.3,0.6,1.6,0.7c0.4,0.2,0.9,0.3,1.6,0.6l0.1-0.2L4,10.5L3.8,11
		c-0.5-0.2-0.7-0.3-1.6-0.6L2,10.9c2.3,0.8,3.4,1.4,6.4,3.2c3.7,2.3,6.1,3.4,10.9,4.6l0.7-0.9c-2.3,0.1-5.1-1.1-6.8-2.7
		c2-1.1,3.7-1.5,6.1-1.5c0.6,0,1,0,1.8,0.1l0.6-0.6c-1.3-0.1-2-0.2-2.9-0.2c-1.1,0-2,0-2.8,0.2l0.2-0.4c0.9-0.1,1.5-0.1,2.4-0.1
		c1.2,0,1.8,0,3.4,0.2l0.6-0.6C21.5,12.1,19.8,12,18,12c-0.5,0-0.7,0-1.3,0.1l0.2-0.4c0.6-0.1,1-0.1,1.5-0.1c1.5,0,3,0.1,4.4,0.4
		l0.6-0.6c-1.7-0.3-3.5-0.4-5-0.4c-0.5,0-0.6,0-1.1,0l0.2-0.3c0.6,0,0.8,0,1.1,0c1.5,0,3.1,0.1,5.1,0.4l0.6-0.6
		c-2.6-0.4-4.3-0.6-5.9-0.6C17.3,9.9,16.2,9.9,15.1,10.1"/>
</g>
</svg>
