<?xml version="1.0" encoding="utf-8"?>
<!-- Generator: Adobe Illustrator 22.0.1, SVG Export Plug-In . SVG Version: 6.00 Build 0)  -->
<svg version="1.1"
	 id="svg4359" inkscape:version="0.91 r13725" sodipodi:docname="24 hr fitness.svg" xmlns:cc="http://creativecommons.org/ns#" xmlns:dc="http://purl.org/dc/elements/1.1/" xmlns:inkscape="http://www.inkscape.org/namespaces/inkscape" xmlns:rdf="http://www.w3.org/1999/02/22-rdf-syntax-ns#" xmlns:sodipodi="http://sodipodi.sourceforge.net/DTD/sodipodi-0.dtd" xmlns:svg="http://www.w3.org/2000/svg"
	 xmlns="http://www.w3.org/2000/svg" xmlns:xlink="http://www.w3.org/1999/xlink" x="0px" y="0px" viewBox="0 0 220.7 211.9"
	 style="enable-background:new 0 0 220.7 211.9;" xml:space="preserve">
<style type="text/css">
	.st0{fill:#04256C;}
</style>
<sodipodi:namedview  bordercolor="#666666" borderopacity="1.0" id="base" inkscape:current-layer="layer1" inkscape:cx="111" inkscape:cy="25.75" inkscape:document-units="px" inkscape:pageopacity="0.0" inkscape:pageshadow="2" inkscape:window-height="744" inkscape:window-maximized="1" inkscape:window-width="1280" inkscape:window-x="-4" inkscape:window-y="-4" inkscape:zoom="4.119527" pagecolor="#ffffff" showgrid="false" units="px">
	</sodipodi:namedview>
<g id="layer1" transform="translate(-157.0337,-25.948529)">
	<g id="g2476" transform="matrix(1.1858,0,0,1.1858,4.61306,-328.857)">
		<g id="g1988" transform="translate(3.5356,3.53494)">
			<path id="path26" class="st0" d="M125.8,371.3c0,40.9,29.7,74.8,72.8,74.8c42.9,0,72.6-33.9,72.6-74.8
				c0-43.4-29.2-74.8-72.6-74.8C155,296.5,125.8,327.9,125.8,371.3 M153.9,371.3c0-27.2,16.5-53.5,44.8-53.5
				c28,0,44.6,26.3,44.6,53.5c0,25.5-13.7,53.5-44.6,53.5C167.6,424.8,153.9,396.8,153.9,371.3"/>
			<path id="path28" class="st0" d="M310.7,474.1v-10h-25.8c10.3-10.2,23.8-22.5,23.8-35.9c0-12.4-7.8-18.5-19.8-18.5
				c-6.4,0-13,1.6-18.8,4.5l1,10.5c4.1-2.7,9.3-5.1,14.6-5.1c5.1,0,10.3,2.7,10.3,8.5c0,11.6-21.5,29.6-27.4,35.3v10.6L310.7,474.1"
				/>
		</g>
	</g>
</g>
</svg>
