<?xml version="1.0" encoding="utf-8"?>
<!-- Generator: Adobe Illustrator 22.0.1, SVG Export Plug-In . SVG Version: 6.00 Build 0)  -->
<svg version="1.1" id="Layer_1" xmlns:svg="http://www.w3.org/2000/svg"
	 xmlns="http://www.w3.org/2000/svg" xmlns:xlink="http://www.w3.org/1999/xlink" x="0px" y="0px" viewBox="0 0 185.6 30"
	 style="enable-background:new 0 0 185.6 30;" xml:space="preserve">
<path id="path23367" d="M0.5,28.9V0.6h11.9c4,0,7.9,0.3,10.5,3.9c0.8,1,1.8,2.9,1.8,6c0,3.9-1.7,6.3-2.9,7.4
	c-2.1,2.1-4.9,2.3-7.7,2.5H8.9v8.6H0.5z M12.1,13.8c1.4,0,3-0.1,4-1.1c0.3-0.3,0.8-0.9,0.8-1.9c0-1-0.5-1.6-0.7-1.9
	c-1.2-1.3-3.2-1.2-4.8-1.2H9v6.1H12.1"/>
<path id="path23369" d="M38.3,28.9L38,27c-1.1,0.8-3,2.5-6.6,2.5c-0.6,0-3.3-0.1-5.1-1.6c-0.8-0.7-2.1-2.3-2.1-5
	c0-0.6,0.2-1.7,1.2-3.1c1.5-2,3.2-2.5,5.5-3l3.8-0.5c0.4-0.1,0.9-0.2,1.4-0.3c0.1,0,0.7-0.1,1-0.4c0.3-0.2,0.6-1.2,0.6-1.6
	c0-0.8-1-1.5-2.6-1.5c-1.4,0-2.1,0.5-2.5,1c-0.2,0.3-0.3,0.5-0.3,1.2l-7.2,0c0.3-1.6,0.6-3,1.8-4.3c1.5-1.6,3.8-2.7,8.3-2.7
	c0.9,0,4.4-0.4,6.9,1.4c1,0.7,1.7,1.5,2.2,2.6c0.8,1.7,0.6,3.7,0.6,5.5v5.6c0,3.5,0.2,4.2,0.9,6.2H38.3z M37.6,19.8
	c-1,0.4-2.1,0.7-3.2,1l-0.8,0.2C33.2,21.2,32,21.5,32,23c0,0.7,0.4,1.9,2,1.9c0.2,0,1.2-0.1,1.7-0.3c1.4-0.4,1.5-1.3,1.9-1.7V19.8"
	/>
<path id="path23371" d="M60,28.9v-10c0,1.2,0.3-3.9-0.8-4.4c-0.4-0.2-1-0.5-1.9-0.5c-0.9,0-2,0.5-2.3,1.3c-0.4,1-0.5,1.9-0.5,4v9.6
	h-7.7V8.2h7.3l0.1,2.4c1-1.2,2.2-2.8,6.5-2.8c3.1,0,5.5,1.1,6.5,4.3c0.2,0.8,0.3,1.6,0.4,3.2v13.6H60"/>
<path id="path23373" d="M102.9,14.2c-0.1-0.8-0.7-2.1-2.7-2.1c-0.9,0-1.5,0.2-1.8,0.4c-0.2,0.1-0.5,0.6-0.5,1.2
	c0,0.2,0.1,0.6,0.6,0.9c0.3,0.2,1,0.4,1.8,0.4l3,0.8c2.1,0.5,4,0.9,5.5,2.4c0.8,0.7,1.1,1.6,1.3,2c0.4,1.1,0.2,1.9,0.2,2.3
	c0,2.4-1.2,3.9-1.9,4.6c-1.5,1.3-3.8,2.4-8,2.4c-3.5,0-5.8-0.9-7.1-1.7c-2.8-1.6-3-4.7-3.1-5.6l7.4,0c0.1,0.7,0.2,1.2,0.8,1.8
	c0.5,0.4,1,0.7,2.3,0.7c1.6,0,2.5-0.8,2.5-1.4c0-0.1,0-0.6-0.2-0.9c-0.4-0.6-1.3-0.8-2.7-1.2c0,0-4.3-0.9-4.6-1.1
	c-1-0.4-4.9-1.3-4.9-5.7c0-2.4,1.3-3.8,2-4.4c1.3-1.1,3.5-2.2,7.4-2.2c0.9,0,4.5,0,7.2,1.8c0.8,0.5,1.4,1.1,1.8,1.9
	c0.6,1.1,0.8,2.3,0.8,2.8H102.9"/>
<path id="path23381" d="M129.4,26.6c-1.3,1.3-3.8,2.9-8.1,2.9c-1.4,0-5.1-0.1-7.9-3.3c-1.1-1.4-2.5-3.7-2.5-7.8c0-0.7,0-2.3,0.7-4.1
	c1.5-4.5,5.7-6.6,10.1-6.5c1.2,0,4.9,0.1,7.5,2.8c1.3,1.3,3,3.8,3,8.2C132.2,19.7,132.1,23.8,129.4,26.6z M123.7,14
	c-0.7-0.6-1.7-0.8-2.1-0.8c-0.9,0-1.5,0.5-1.8,0.7c-0.9,0.8-1.6,1.9-1.6,4.5c0,2,0.5,5.4,3.3,5.4c0.8,0,1.6-0.2,2.1-0.8
	c0.7-0.8,1.4-2.1,1.4-4.5C125.1,18.4,125.1,15.5,123.7,14"/>
<path id="path23383" d="M155.6,8.1h7.6V29h-7.6V8.1z M155.6,0.4h7.6v5.4h-7.6V0.4z"/>
<path id="path23385" d="M177.8,16.1c-0.6-2.5-1.8-2.6-3.1-2.6c-1.1,0-1.5,0.4-1.8,0.7c-1,0.8-1.3,1.8-1.3,4.4c0,0.2-0.1,3.6,1.8,4.9
	c0.5,0.4,0.8,0.4,1.4,0.4c0.2,0,0.9,0,1.4-0.3c0.8-0.4,1.5-1,1.7-2.8l7.3-0.1c-0.1,0.5-0.4,2.1-1.1,3.5c-1.8,3.6-5.5,5.2-9.3,5.2
	c-1.5,0-2.6-0.2-3.3-0.4c-3-0.7-5.6-2.8-6.7-5.8c-0.3-0.9-0.8-2.3-0.8-4.5c0-0.9,0-3.4,1.4-5.8c0.2-0.4,0.8-1.4,1.6-2.3
	c2.8-2.7,6.9-2.8,7.9-2.8c3.9,0,6.3,1.4,7.4,2.5c0.4,0.4,1.1,1.3,1.6,2.6c0.5,1.1,0.7,2,0.9,3.1H177.8"/>
<path id="path23387" d="M89.4,22.9v-5.6c0-1.8,0-4.1-0.8-5.8c-0.5-1.1-0.9-1.7-1.9-2.4c-2.6-1.7-6.4-1.4-7.2-1.4
	c-4.5,0-6.9,1.2-8.3,2.8c-1.2,1.4-1.4,2.7-1.8,4.3h7.2c0-0.6,0.1-0.9,0.3-1.2c0.4-0.5,1-1.2,2.4-1.2c1.6,0,2.6,0.8,2.6,1.6
	c0,0.4,0,1.2-0.4,1.4c-0.3,0.2-1.1,0.5-1.3,0.6c-0.4,0.1-0.8,0.2-1.4,0.3l-3.8,0.5c-2.3,0.5-4,1-5.5,2.9c-1.1,1.4-1.1,2.6-1.1,3.2
	c0,2.7,1.2,4.3,2,5c1.8,1.5,4.4,1.5,5.1,1.5c3.5,0,5.4-1.6,6.5-2.4l0.3,2h7.8C89.8,27.7,89.3,27,89.4,22.9z M79.9,24.8
	c-0.5,0.2-1.4,0.1-1.6,0.1c-1.3-0.1-2-1.3-2-1.9c0-1.5,1.2-1.8,1.6-1.8l0.8-0.2c1-0.4,2.1-0.7,3.1-1l0,2.6
	C81.7,23.1,81.3,24.4,79.9,24.8"/>
<path id="path23389" d="M146.5,28.9V18.8c0,1.2,0.4-3.9-0.7-4.4c-0.4-0.2-1-0.5-1.8-0.5c-0.9,0-2,0.5-2.3,1.3
	c-0.4,1-0.6,1.7-0.6,3.8l-0.1,9.9l-7.5,0V8.2h7.3l0.1,2.4c1-1.2,2.2-2.8,6.5-2.8c3.1,0,5.5,1.3,6.5,4.5c0.2,0.8,0.3,1.3,0.4,3v13.7
	L146.5,28.9"/>
</svg>
