<?xml version="1.0" encoding="UTF-8" standalone="no"?>
<!-- Created with Inkscape (http://www.inkscape.org/) -->
<svg
   xmlns:dc="http://purl.org/dc/elements/1.1/"
   xmlns:cc="http://web.resource.org/cc/"
   xmlns:rdf="http://www.w3.org/1999/02/22-rdf-syntax-ns#"
   xmlns:svg="http://www.w3.org/2000/svg"
   xmlns="http://www.w3.org/2000/svg"
   xmlns:sodipodi="http://sodipodi.sourceforge.net/DTD/sodipodi-0.dtd"
   xmlns:inkscape="http://www.inkscape.org/namespaces/inkscape"
   width="744.09448"
   height="926.92914"
   id="svg2319"
   sodipodi:version="0.32"
   inkscape:version="0.45.1"
   version="1.0"
   sodipodi:docbase="K:\Logos\Vektor\[--Convertme!--]\[--!fertig--]"
   sodipodi:docname="Total Logo.svg"
   inkscape:output_extension="org.inkscape.output.svg.inkscape">
  <defs
     id="defs2321" />
  <sodipodi:namedview
     id="base"
     pagecolor="#ffffff"
     bordercolor="#666666"
     borderopacity="1.0"
     inkscape:pageopacity="0.0"
     inkscape:pageshadow="2"
     inkscape:zoom="0.35"
     inkscape:cx="350"
     inkscape:cy="520"
     inkscape:document-units="px"
     inkscape:current-layer="layer1"
     width="21cm"
     height="26.16cm"
     units="cm"
     inkscape:window-width="797"
     inkscape:window-height="573"
     inkscape:window-x="183"
     inkscape:window-y="104" />
  <metadata
     id="metadata2324">
    <rdf:RDF>
      <cc:Work
         rdf:about="">
        <dc:format>image/svg+xml</dc:format>
        <dc:type
           rdf:resource="http://purl.org/dc/dcmitype/StillImage" />
      </cc:Work>
    </rdf:RDF>
  </metadata>
  <g
     inkscape:label="Ebene 1"
     inkscape:groupmode="layer"
     id="layer1"
     transform="translate(-9.1806686,-22.499566)">
    <g
       id="g2337"
       transform="translate(17.716511,17.670892)">
      <path
         style="fill:#f68b11;fill-rule:nonzero;stroke:none"
         d="M 624.87712,366.12626 C 624.42598,364.83602 623.94348,363.55617 623.45042,362.26584 C 579.39113,412.59831 471.24672,445.11825 373.88623,437.90087 C 316.51486,433.6523 210.36352,403.9543 156.81055,371.18258 C 213.39523,425.38596 279.67295,466.58136 354.63661,488.84181 C 443.77261,515.3193 538.81469,513.49397 592.40959,485.60026 C 631.64328,459.1018 640.54954,411.79056 624.87712,366.12626"
         class="ps01"
         id="path16" />
      <path
         style="fill:#1d59ae;fill-rule:nonzero;stroke:none"
         d="M 502.23504,49.69702 C 677.75863,153.36214 573.35924,479.31659 433.74392,584.03075 C 303.85301,681.44365 165.67488,636.53468 135.69357,546.72722 C 161.82493,585.64624 213.80435,599.79761 259.93018,584.31397 C 388.14261,532.90102 454.21049,300.60387 462.76005,219.93349 C 468.47726,150.4668 459.38221,103.79548 435.28594,74.31773 C 407.67555,45.13369 365.29474,30.9928 303.41244,50.42082 C 345.99253,15.42521 437.20571,11.28156 502.23504,49.69702"
         class="ps02"
         id="path20" />
      <path
         style="fill:#ee2b3e;fill-rule:nonzero;stroke:none"
         d="M 600.41375,481.03701 C 601.12706,480.59644 601.82989,480.14531 602.54328,479.67329 C 602.67965,479.58934 602.81602,479.50538 602.94191,479.41103 C 606.52959,477.02973 610.10671,474.35471 613.37971,471.40687 C 614.96375,469.98025 616.52683,468.45911 618.05837,466.89604 C 686.29783,397.63911 700.79533,205.02679 532.60441,113.68779 C 472.69439,81.15736 333.56157,35.69243 194.74351,105.87251 C 148.80647,129.09804 101.43233,177.33244 75.961859,242.79184 C 94.749949,211.68812 127.32232,190.64461 191.52293,181.56004 C 255.53475,173.51395 343.75816,183.45876 430.09325,213.89111 C 485.81769,234.44164 530.87351,259.77565 566.0475,288.47711 C 595.10566,313.41257 613.83076,337.08916 623.45042,362.26584 C 623.94348,363.55617 624.42598,364.83602 624.87712,366.12626 C 640.54954,411.79056 631.64328,459.1018 592.40959,485.60026 C 592.35717,485.64219 592.46209,485.56881 592.40959,485.60026 C 594.22444,484.65614 596.02881,483.67009 597.96946,482.52661 C 598.2422,482.35879 598.50446,482.20145 598.77721,482.04403 C 599.32269,481.70838 599.86818,481.38314 600.41375,481.03701"
         class="ps03"
         id="path24" />
      <path
         style="fill:#f68b11;fill-rule:nonzero;stroke:none"
         d="M 97.676739,353.60087 C 100.86579,358.73066 108.16704,367.39563 112.95062,372.88203 C 146.64549,293.61738 331.3376,242.06805 385.77179,242.73942 C 263.44439,203.35888 143.45644,222.13648 95.253499,263.96132 C 77.734689,283.49426 72.279739,312.73072 97.676739,353.60087"
         class="ps01"
         id="path28" />
      <path
         style="fill:#5a8ed2;fill-rule:nonzero;stroke:none"
         d="M 457.85059,533.40457 C 359.51454,527.9076 216.25904,489.97472 114.81789,375.02204 C 114.26192,374.38212 113.63248,373.66881 112.95062,372.88203 C 108.16704,367.39563 100.86579,358.73066 97.676739,353.60087 C 72.279739,312.73072 77.734689,283.49426 95.253499,263.96132 C 95.253499,263.96132 95.253499,263.96132 95.263989,263.96132 C 95.253499,263.97181 95.243019,263.97181 95.232539,263.98229 C 92.053969,266.80416 88.204029,270.43378 83.798109,276.11954 C 57.740219,309.77239 54.635129,364.26948 72.405629,422.0186 C 111.02045,547.49303 280.13449,622.94968 417.40004,602.22093 C 505.14086,588.97166 560.01562,539.61485 582.86349,519.46295 C 533.23385,533.59336 496.50735,535.56555 457.85059,533.40457"
         class="ps04"
         id="path32" />
      <path
         style="fill:#ee2b3e;fill-rule:nonzero;stroke:none"
         d="M 220.23487,804.83048 C 173.72089,804.83048 147.04412,824.74108 147.04412,859.46394 C 147.04412,894.17632 173.72089,914.08692 220.23487,914.08692 C 266.75933,914.08692 293.43618,894.17632 293.43618,859.46394 C 293.43618,824.74108 266.75933,804.83048 220.23487,804.83048 M 220.23487,888.82629 C 194.80641,888.82629 181.91384,878.94438 181.91384,859.46394 C 181.91384,839.99391 194.80641,830.11208 220.23487,830.11208 C 245.68437,830.11208 258.57694,839.99391 258.57694,859.46394 C 258.57694,878.94438 245.68437,888.82629 220.23487,888.82629"
         class="ps03"
         id="path36" />
      <path
         style="fill:#ee2b3e;fill-rule:nonzero;stroke:none"
         d="M 302.90889,807.34816 L 302.90889,830.82539 C 302.90889,830.82539 344.76518,830.82539 346.97866,830.82539 C 346.97866,833.08081 346.96818,903.15597 346.96818,903.15597 C 346.96818,910.12157 357.43751,912.59732 366.39619,912.59732 C 375.38641,912.59732 385.86614,910.14254 385.86614,903.1875 C 385.86614,903.1875 385.86614,840.39254 385.86614,830.82539 C 388.05866,830.82539 429.98833,830.82539 429.98833,830.82539 L 429.98833,807.34816 L 302.90889,807.34816"
         class="ps03"
         id="path40" />
      <path
         style="fill:#ee2b3e;fill-rule:nonzero;stroke:none"
         d="M 664.46743,887.29467 C 653.78833,887.29467 646.32974,885.56377 642.30149,882.12294 C 637.09832,877.70655 636.44791,871.10812 636.32202,866.03084 L 636.33251,814.93264 C 636.33251,808.22929 626.3247,805.85847 617.76466,805.85847 C 609.13114,805.85847 599.06043,808.22929 599.06043,814.90119 L 599.07092,831.12967 L 599.07092,864.35244 C 599.07092,883.2769 605.16579,896.54714 617.20869,903.75396 C 632.12587,912.35602 659.16993,912.0728 685.32213,911.78949 L 717.77913,911.64263 L 717.84213,906.89059 L 717.84213,887.29467 L 664.46743,887.29467"
         class="ps03"
         id="path44" />
      <path
         style="fill:#ee2b3e;fill-rule:nonzero;stroke:none"
         d="M 62.219599,879.62624 C 62.219599,898.07868 77.776709,910.54117 104.03388,912.77562 L 104.03388,801.47361 L 163.14672,801.47361 L 163.14672,775.7933 L 9.1806686,775.7933 L 9.1806686,801.47361 L 62.219599,801.47361 L 62.219599,879.62624"
         class="ps03"
         id="path48" />
      <path
         style="fill:#ee2b3e;fill-rule:nonzero;stroke:none"
         d="M 583.91244,911.78949 L 582.99986,907.59341 C 574.35578,864.78252 525.71235,815.90821 515.71504,808.74333 C 512.4526,806.41453 508.99081,805.92146 504.38554,805.84799 C 499.79083,805.92146 496.32896,806.41453 493.06652,808.74333 C 483.0588,815.90821 434.42578,864.78252 425.78178,907.59341 L 424.85863,911.78949 L 459.25633,911.78949 L 459.91722,908.79979 C 461.27045,902.63153 463.54683,896.08552 466.54701,889.39274 L 542.22406,889.39274 C 545.22424,896.08552 547.50062,902.63153 548.86442,908.79979 L 549.51483,911.78949 L 583.91244,911.78949 M 478.71579,867.38407 C 485.93309,856.41127 494.68201,845.67967 504.38554,836.14397 C 514.08906,845.67967 522.84846,856.41127 530.06576,867.38407 L 478.71579,867.38407"
         class="ps03"
         id="path52" />
    </g>
  </g>
</svg>
