<?xml version="1.0" encoding="utf-8"?>
<!-- Generator: Adobe Illustrator 22.0.1, SVG Export Plug-In . SVG Version: 6.00 Build 0)  -->
<svg version="1.1" id="Layer_1" xmlns:svg="http://www.w3.org/2000/svg"
	 xmlns="http://www.w3.org/2000/svg" xmlns:xlink="http://www.w3.org/1999/xlink" x="0px" y="0px" viewBox="0 0 185.6 71.1"
	 style="enable-background:new 0 0 185.6 71.1;" xml:space="preserve">
<style type="text/css">
	.st0{fill:#231F20;}
</style>
<g>
	<path class="st0" d="M93.3,16.3c0.2-0.2,0.6-0.1,1-0.1c0.4,0,0.3,0.7,1,0.5c0.6-0.1,0.6,0.6,1.5,0.6c0.9,0-0.2,0.3-0.2,0.3
		s-0.5-0.3-0.9-0.1c-0.2,0.1,0.1-0.1-0.2-0.3c-0.5-0.4-0.4,0.1-1.2-0.6C93.6,16.2,93.1,16.7,93.3,16.3"/>
	<path class="st0" d="M86.7,17.2c-0.5-0.8-0.1-1.9,0.5-2.9c0.4-0.7,1.6-1.1,2.6-0.7c1.1-0.9,1.4,0.1,2.4-0.4c1.3-0.6,0.6,1.5,1.9,2
		c0.5-1.4-1.2-2.5-0.1-3.1c0.8-0.5,1.4-0.8,1.7-1.4c0.5-0.9,0.6-1.6,1-1.7c0.8-0.3,0.6-1,0.6-1s0.9,0.2,1.5-0.4
		c-0.5-0.3-1.2-0.5-1.1-1.1c0.2-0.6,1.9,0.7,2.5-0.4c-1-0.4-2.1-1.4-2.7-1.6c-0.4,0.5-0.7,0.3-1.2-0.2c-0.9-0.7-1,0-1.6-0.5
		C94.1,4.9,94.8,4.8,95,5c0.6,0.7-0.6-0.6-0.5,1.1c0,0.4-0.6,0.5-1.1-0.4c-0.2-0.5-2.2-0.4-2.5-0.9c0.3-0.5,2.6-2.5,6.2-2
		c-5.2-2-12.2,0.2-12.3,1c-0.7,0.4-0.5,0.9-0.8,1.1c-0.6,0.2-1.3,2.1-1.3,2.1s0.4,0.3-0.8,1.6c-1,1.1-1.3,2.7-1.3,2.7
		s0.6,1.2,0.5,2.5c-0.1,1-0.1,0.3,0.3,1c0.3,0.4,0.5,2,0.7,1.4c0.3-1.1-0.6-2.2-0.4-3.3c0,0.1,0.4-0.4,0.3,0.1
		c0,1.4,1.7,4.1,1.7,4.1s-0.7,0.7,0,0.7L83.7,18c0,0,0.5,0,0.8,0.2c0.3,0.3,0.6,0.6,0.9,0.6h5c0,0,0.4-1.5,0.7-1.8
		c0.3-0.3-0.6,0-0.8-0.3c-0.3-0.3-0.4,0.2-0.6,0.5c-0.1,0.3-0.3,0.7-0.7,0.8c-0.4,0.1-1.3,0.2-1.5,0.2
		C87.3,18.4,86.7,17.2,86.7,17.2"/>
	<path class="st0" d="M110.3,33.6c-0.2-0.3,0-0.7,0-0.7H96.1l1.6,1.4c0.3,0.1,0.8,0.5,1,1c0.5,1.3-0.2,0.2-0.2,2.1
		c0,1.7-0.5,1.5-0.5,1.5s-0.1,2.1-1.2,3.3c-0.7,0.7-0.2,1.2-0.2,1.2s-0.2,0.1-0.6,1.6c-0.1,0.5,0.5,1.2,1.1,1c0.4-0.1-1-0.3,0.5-0.9
		c0.6-0.2,0.1-0.7,0.1-0.7s1-0.1,1.5-1.5c1,0.1,0.6-0.5,2.6-0.9c0.5-0.1,0.6-0.3,0.6-0.8c-0.1-0.5,0.6,0.1,2.6-1.9
		c1.6-1.6,1-1.9,2.1-2.5c1.1-0.6,1.2,0.1,1.6-0.4c0.9-1.1,0.6-1.1,0.9-1.8l0.3-0.4C110,34.3,110.5,33.9,110.3,33.6"/>
</g>
<polygon class="st0" points="100.4,18.4 100.1,18.6 100,18.3 "/>
<g>
	<path class="st0" d="M99.3,18.2c-0.5,0.1-1,0-1.5,0.4l-0.3-0.3h-0.2c0.4-0.4-0.3-0.7,0.5-0.8C98.3,17.6,98.7,18,99.3,18.2"/>
	<path class="st0" d="M116.9,34.2c-3.3,10.2-12.5,18.1-24.1,18.1c-12.3,0-20.6-7.8-24-17.9c3.5,9.4,12.9,16.1,24,16.1
		C104,50.5,113.5,43.7,116.9,34.2 M68.7,18.6c3.3-10.2,11.1-18,24-18c12.1,0,20.9,7.9,24.1,18.2C113.6,9.3,104,2.4,92.8,2.4
		C81.6,2.4,72.1,9.2,68.7,18.6"/>
	<path class="st0" d="M49.3,21.1h-4l0.6,0.7V27c0,1.2-0.8,1.7-1.9,1.7c-1.2,0-1.9-0.5-1.9-1.7v-5.2l0.6-0.7h-4l0.6,0.7v5.3
		c0,2.6,1.5,3.6,4.7,3.6c3.3,0,4.7-1,4.7-3.6v-5.3L49.3,21.1z"/>
</g>
<polygon class="st0" points="63.1,21.1 59.7,21.1 60.3,21.8 60.3,26.6 55.5,21.1 52.5,21.1 53.1,21.8 53.1,29.8 52.5,30.5 
	55.9,30.5 55.3,29.8 55.3,25 60.4,30.5 62.5,30.5 62.5,21.8 "/>
<polygon class="st0" points="70.8,30.5 70.2,29.8 70.2,21.8 70.8,21.1 66.8,21.1 67.4,21.8 67.4,29.8 66.8,30.5 "/>
<polygon class="st0" points="83.9,21.1 80.6,21.1 81.1,21.8 78.8,27 76.5,21.8 77.1,21.1 73.1,21.1 77.5,30.5 79.5,30.5 "/>
<polygon class="st0" points="95.1,30.5 95.1,28 94.4,28.6 89.6,28.6 89.6,26.8 92.6,26.8 93.3,27.4 93.3,24.3 92.6,24.9 89.6,24.9 
	89.6,23.1 94.4,23.1 95.1,23.7 95.1,21.1 86.3,21.1 86.9,21.8 86.9,29.8 86.3,30.5 "/>
<g>
	<path class="st0" d="M108.6,30.5l-2.5-3.7c1.3-0.5,2.1-1.5,2.1-2.8c0-1.6-1-2.8-3.6-2.8h-5.9l0.6,0.7v8l-0.6,0.7h3.9l-0.6-0.7v-2.7
		h1.2l1.8,2.7l-0.6,0.7H108.6z M105.3,24.2c0,0.7-0.6,1.2-1.6,1.2H102v-2.3h2.1C104.7,23.1,105.3,23.4,105.3,24.2"/>
	<path class="st0" d="M120.5,27.8c0-1.5-1.2-2.3-2.9-2.9c-1.1-0.4-2.7-0.6-2.7-1.4c0-0.4,0.4-0.6,1.2-0.6c1,0,2.7,0.4,4,1v-3.1
		l-0.7,0.7c-0.8-0.3-2.2-0.7-3.1-0.7c-3.2,0-4.2,1.4-4.2,2.7c0,1.7,1.2,2.5,3,3.1c1.4,0.5,2.6,0.5,2.6,1.3c0,0.7-0.8,0.7-1.2,0.7
		c-1,0-2.8-0.4-4.4-1.4v3.5l0.7-0.8c0.7,0.3,2.4,0.8,3.7,0.8C119.2,30.8,120.5,29.6,120.5,27.8"/>
</g>
<path class="st0" d="M134.5,30.5l-4.6-9.4h-3.2l0.3,0.7l-4.2,8.7h3.4l-0.6-0.7l0.5-1h4.5l0.5,1l-0.6,0.7H134.5z M130,27.1h-3.1
	l1.6-3.4L130,27.1z"/>
<polygon class="st0" points="145.7,30.5 145.7,28 145,28.6 140.4,28.6 140.4,21.8 141,21.1 137.1,21.1 137.7,21.8 137.7,29.8 
	137.1,30.5 "/>
<g>
	<path class="st0" d="M143.9,23.2c0,0.9,0.8,1.7,1.7,1.7c0.9,0,1.7-0.8,1.7-1.7c0-0.9-0.8-1.7-1.7-1.7
		C144.6,21.5,143.9,22.2,143.9,23.2 M143.7,23.2c0-1,0.8-1.9,1.9-1.9c1,0,1.9,0.8,1.9,1.9c0,1-0.8,1.9-1.9,1.9
		C144.5,25,143.7,24.2,143.7,23.2"/>
	<path class="st0" d="M146.3,22.4c-0.2-0.2-0.4-0.2-0.6-0.2c-0.6,0-1,0.4-1,1c0,0.5,0.4,1,1,1c0.2,0,0.5-0.1,0.7-0.3v-0.2
		c-0.2,0.2-0.4,0.3-0.7,0.3c-0.4,0-0.8-0.4-0.8-0.8c0-0.4,0.3-0.8,0.8-0.8c0.3,0,0.5,0.1,0.7,0.3V22.4z"/>
	<path class="st0" d="M6.7,64.6v3.6c0,1.7-1,2.4-3.2,2.4c-2.2,0-3.2-0.7-3.2-2.4v-3.6L0,64.1h2.7l-0.4,0.5v3.5
		c0,0.8,0.5,1.1,1.3,1.1c0.8,0,1.3-0.3,1.3-1.1v-3.5l-0.4-0.5h2.7L6.7,64.6z"/>
</g>
<polygon class="st0" points="15.1,64.1 15.5,64.6 15.5,67.8 12.3,64.1 10.3,64.1 10.7,64.6 10.7,70 10.3,70.5 12.5,70.5 12.1,70 
	12.1,66.8 15.5,70.5 17,70.5 17,64.6 17.4,64.1 "/>
<polygon class="st0" points="20.8,64.1 21.2,64.6 21.2,70 20.8,70.5 23.5,70.5 23.1,70 23.1,64.6 23.5,64.1 "/>
<polygon class="st0" points="31.1,64.1 31.5,64.6 29.9,68.1 28.4,64.6 28.8,64.1 26.1,64.1 29.1,70.5 30.4,70.5 33.4,64.1 "/>
<polygon class="st0" points="35.9,64.1 36.3,64.6 36.3,70 35.9,70.5 41.9,70.5 41.9,68.8 41.4,69.2 38.2,69.2 38.2,67.9 40.2,67.9 
	40.7,68.3 40.7,66.3 40.2,66.7 38.2,66.7 38.2,65.5 41.4,65.5 41.9,65.9 41.9,64.1 "/>
<g>
	<path class="st0" d="M49.1,70.5l0.4-0.5l-1.2-1.8h-0.8V70l0.4,0.5h-2.6l0.4-0.5v-5.4l-0.4-0.5h3.9c1.8,0,2.4,0.9,2.4,1.9
		c0,0.9-0.6,1.6-1.4,1.9l1.7,2.5H49.1z M48.9,65.5h-1.4V67h1.2c0.6,0,1-0.4,1-0.8C49.7,65.7,49.3,65.5,48.9,65.5"/>
	<path class="st0" d="M58.2,70.6c-0.9,0-2-0.3-2.5-0.5l-0.5,0.5v-2.3c1.1,0.7,2.3,0.9,2.9,0.9c0.3,0,0.8-0.1,0.8-0.5
		c0-0.5-0.8-0.6-1.8-0.9c-1.2-0.4-2-0.9-2-2.1c0-0.9,0.7-1.8,2.8-1.8c0.6,0,1.6,0.2,2.1,0.4l0.5-0.5v2.1c-0.9-0.4-2-0.7-2.7-0.7
		c-0.5,0-0.8,0.2-0.8,0.4c0,0.5,1.1,0.7,1.8,0.9c1.2,0.4,2,0.9,2,1.9C60.9,69.8,60.1,70.6,58.2,70.6"/>
</g>
<path class="st0" d="M67.2,65.9l1.1,2.3h-2.1L67.2,65.9z M66.1,64.1l0.2,0.5l-2.8,5.9h2.3L65.4,70l0.3-0.7h3l0.3,0.7l-0.4,0.5h2.7
	l-3.1-6.3H66.1z"/>
<polygon class="st0" points="74,64.1 74.4,64.6 74.4,70 74,70.5 79.8,70.5 79.8,68.8 79.3,69.2 76.3,69.2 76.3,64.6 76.7,64.1 "/>
<polygon class="st0" points="94.3,64.1 92.5,68 90.4,64.1 88.2,64.1 88.6,64.6 88.6,70 88.2,70.5 90.4,70.5 90,70 90,66.9 
	91.9,70.5 92.8,70.5 94.4,67 94.4,70 94,70.5 96.6,70.5 96.2,70 96.2,64.6 96.6,64.1 "/>
<g>
	<path class="st0" d="M106.5,64.6v3.6c0,1.7-1,2.4-3.2,2.4c-2.2,0-3.2-0.7-3.2-2.4v-3.6l-0.4-0.5h2.7l-0.4,0.5v3.5
		c0,0.8,0.5,1.1,1.3,1.1c0.8,0,1.3-0.3,1.3-1.1v-3.5l-0.4-0.5h2.7L106.5,64.6z"/>
	<path class="st0" d="M113,70.6c-0.9,0-2-0.3-2.5-0.5l-0.5,0.5v-2.3c1.1,0.7,2.3,0.9,2.9,0.9c0.3,0,0.8-0.1,0.8-0.5
		c0-0.5-0.8-0.6-1.8-0.9c-1.2-0.4-2-0.9-2-2.1c0-0.9,0.7-1.8,2.8-1.8c0.6,0,1.6,0.2,2.1,0.4l0.5-0.5v2.1c-0.9-0.4-2-0.7-2.7-0.7
		c-0.5,0-0.8,0.2-0.8,0.4c0,0.5,1.1,0.7,1.8,0.9c1.2,0.4,2,0.9,2,1.9C115.7,69.8,114.8,70.6,113,70.6"/>
</g>
<polygon class="st0" points="119,64.1 119.4,64.6 119.4,70 119,70.5 121.7,70.5 121.3,70 121.3,64.6 121.7,64.1 "/>
<g>
	<path class="st0" d="M128.5,70.6c-1.9,0-3.7-0.9-3.7-3.3c0-1.8,1.3-3.3,3.7-3.3c0.7,0,1.5,0.2,2,0.3l0.4-0.4v2.1
		c-0.7-0.4-1.4-0.7-2.3-0.7c-1.3,0-1.9,0.9-1.9,1.9c0,1.1,0.8,1.9,1.9,1.9c1.2,0,1.9-0.5,2.2-0.7V70
		C130.5,70.3,129.5,70.6,128.5,70.6"/>
	<path class="st0" d="M143.9,67.3h2.3v2.5c-0.6,0.4-1.8,0.7-2.9,0.7c-1.9,0-3.7-0.9-3.7-3.3c0-2.4,2-3.3,3.7-3.3
		c1,0,1.7,0.3,2.1,0.4l0.5-0.5v2.2c-0.7-0.4-1.5-0.7-2.5-0.7c-1.2,0-1.8,0.8-1.8,1.9c0,1.1,0.7,1.9,1.8,1.9c0.3,0,0.6,0,0.9-0.1
		v-1.3L143.9,67.3z"/>
	<path class="st0" d="M153.1,70.5l0.4-0.5l-1.2-1.8h-0.8V70l0.4,0.5h-2.6l0.4-0.5v-5.4l-0.4-0.5h3.9c1.8,0,2.4,0.9,2.4,1.9
		c0,0.9-0.6,1.6-1.4,1.9l1.7,2.5H153.1z M152.9,65.5h-1.4V67h1.2c0.6,0,1-0.4,1-0.8C153.7,65.7,153.3,65.5,152.9,65.5"/>
	<path class="st0" d="M162.5,70.6c-1.8,0-3.7-0.9-3.7-3.3c0-2.4,1.9-3.3,3.7-3.3c1.8,0,3.6,0.9,3.6,3.3
		C166.2,69.7,164.3,70.6,162.5,70.6 M162.5,65.4c-1.2,0-1.7,0.8-1.7,2c0,1.2,0.5,2,1.7,2c1.2,0,1.7-0.8,1.7-2
		C164.2,66.1,163.7,65.4,162.5,65.4"/>
	<path class="st0" d="M175.7,64.6v3.6c0,1.7-1,2.4-3.2,2.4c-2.2,0-3.2-0.7-3.2-2.4v-3.6l-0.4-0.5h2.7l-0.4,0.5v3.5
		c0,0.8,0.5,1.1,1.3,1.1c0.8,0,1.3-0.3,1.3-1.1v-3.5l-0.4-0.5h2.7L175.7,64.6z"/>
	<path class="st0" d="M182.5,68.6h-1.1V70l0.4,0.5h-2.6l0.4-0.5v-5.4l-0.4-0.5h3.4c1.3,0,3,0.4,3,2.1
		C185.6,68.2,184.1,68.6,182.5,68.6 M182.5,65.5h-1.1v1.9h0.9c0.9,0,1.3-0.2,1.3-1C183.7,65.7,183.2,65.5,182.5,65.5"/>
</g>
</svg>
