<?xml version="1.0" encoding="utf-8"?>
<!-- Generator: Adobe Illustrator 24.0.1, SVG Export Plug-In . SVG Version: 6.00 Build 0)  -->
<svg version="1.1"
	 id="svg4841" sodipodi:docname="Viacom.svg" xmlns:cc="http://creativecommons.org/ns#" xmlns:dc="http://purl.org/dc/elements/1.1/" xmlns:inkscape="http://www.inkscape.org/namespaces/inkscape" xmlns:rdf="http://www.w3.org/1999/02/22-rdf-syntax-ns#" xmlns:sodipodi="http://sodipodi.sourceforge.net/DTD/sodipodi-0.dtd" xmlns:svg="http://www.w3.org/2000/svg"
	 xmlns="http://www.w3.org/2000/svg" xmlns:xlink="http://www.w3.org/1999/xlink" x="0px" y="0px" viewBox="0 0 1000 154.5"
	 style="enable-background:new 0 0 1000 154.5;" xml:space="preserve">
<style type="text/css">
	.st0{fill:#1CB6EA;}
</style>
<sodipodi:namedview  bordercolor="#666666" borderopacity="1" gridtolerance="10" guidetolerance="10" id="namedview23" inkscape:current-layer="svg4841" inkscape:cx="515.99551" inkscape:cy="53.589115" inkscape:pageopacity="0" inkscape:pageshadow="2" inkscape:window-height="705" inkscape:window-maximized="1" inkscape:window-width="1366" inkscape:window-x="-8" inkscape:window-y="-8" inkscape:zoom="0.7170963" objecttolerance="10" pagecolor="#ffffff" showgrid="false" units="px">
	</sodipodi:namedview>
<g id="layer1" transform="matrix(0.8565265,0,0,0.8565265,526.91946,-136.19704)">
	<g id="g4168" transform="matrix(1.8201514,0,0,-1.8201514,-711.76988,999.1852)">
		<g>
			<g id="g4170">
				<g id="g4176" transform="matrix(8.9087,0,0,1.3761,53.066,362.52)">
					<g id="g4178" transform="scale(0.19532,1.2666)">
						<g>
							<g id="g4180">
								<g id="g4186">
									<g id="g4188">
										<g id="g4190">
										</g>
									</g>
									<g id="g4192">
										<g>
											<g id="g4194">
												<path id="path4200" inkscape:connector-curvature="0" class="st0" d="M70.1,56.3L70.1,56.3V7.2c0-3.8,2.3-6.6,7.2-6.6
													h7.8v55.7H70.1L70.1,56.3z M329.4,16.4L329.4,16.4c0,0-9.5,27.1-11.3,32.2c-1.1,3.5-2.8,7.7-10.5,7.7H290V0.6h5.9
													c4.6,0,7.4,2,7.4,6.8v38.9h0.2l17.2-45.6h16.1L354,46.3h0.2V7.3c0-3.9,2.1-6.7,7.4-6.7h7.4v55.7h-16.6
													c-5.9,0-9.5-1.7-11.3-6.8c-1.2-3.5-11.5-33.1-11.5-33.1L329.4,16.4L329.4,16.4z M32,15.9L32,15.9
													c0,0-12.9,33.8-13.7,35.7c-1,2.6-2.3,4.7-7.3,4.7L0,56.3L22.9,0.6h16.7l23.7,55.7h-9.8c-4.2,0-5.9-1.8-6.9-4.5
													L32.3,15.9L32,15.9L32,15.9z M196.2,44.6L196.2,44.6h7.7c5.5,0,8.7,2,8.7,7v4.7h-21.8c-18.2,0-26.9-10.7-26.9-27.8
													c0-21.3,13.3-27.8,26.9-27.8h21.8v4.8c0,4.9-3.4,6.9-8.3,6.9h-8c-8.6,0-16.7,3.1-16.7,16.1
													C179.5,39.8,185.6,44.6,196.2,44.6z M137.9,21.5L137.9,21.5c0-5.6-2.6-9.9-10.1-9.9H120c-5.5,0-8.7,1.5-8.7,5.9
													c0,4.3,3,6,8.7,6h17.9V21.5z M130.6,56.3L130.6,56.3H99.9V52c0-3.8,1.9-7.4,7.3-7.4c2.3,0,19.6,0,19.6,0
													c8.3,0,11.1-2.7,11.1-9.2v-1h-20.7c-15.5,0-21.1-7.1-21.1-16.8c0-11.8,7.9-17,21.1-17H131c18.1,0,22,9.1,22,21v13.8
													C153,48.4,148.2,56.3,130.6,56.3z M247.6,11.7L247.6,11.7c9.8,0,15.5,6.8,15.5,16.7c0,10.6-6.1,16.7-15.5,16.7
													c-10,0-15.6-6.7-15.6-16.7C232,18.9,237.5,11.7,247.6,11.7z M247.6,56.9L247.6,56.9c18.2,0,31.2-9.9,31.2-28.4
													c0-17.7-12-28.5-31.2-28.5c-18.8,0-31.3,10.4-31.3,28.5C216.4,46.4,228.7,56.9,247.6,56.9L247.6,56.9z"/>
											</g>
										</g>
									</g>
								</g>
							</g>
						</g>
					</g>
				</g>
			</g>
		</g>
	</g>
</g>
</svg>
