<?xml version="1.0" encoding="utf-8"?>
<!-- Generator: Adobe Illustrator 22.0.1, SVG Export Plug-In . SVG Version: 6.00 Build 0)  -->
<svg version="1.1" id="Layer_1" xmlns:svg="http://www.w3.org/2000/svg"
	 xmlns="http://www.w3.org/2000/svg" xmlns:xlink="http://www.w3.org/1999/xlink" x="0px" y="0px" viewBox="0 0 188.9 118.7"
	 style="enable-background:new 0 0 188.9 118.7;" xml:space="preserve">
<style type="text/css">
	.st0{fill:#1B1B19;}
	.st1{fill:#1C1C1A;}
	.st2{fill:#4765AC;}
</style>
<g>
	<path class="st0" d="M14.9,112.1c0.4-1.2,0.7-2.1,1-3c0.7-2.2,1.4-4.5,2.1-6.7c0.2-0.6,0.4-1.1,1.2-1.2c0.9-0.1,1.5,0.8,1.2,1.8
		c-0.9,3-1.9,5.9-2.8,8.9c-0.4,1.3-0.8,2.7-1.3,4c-0.2,0.7-0.5,1.2-1.3,1.3c-0.8,0-1.1-0.6-1.3-1.3c-0.8-3-1.7-6.1-2.5-9.1
		c-0.3,0.1-0.3,0.4-0.3,0.6c-0.8,2.9-1.6,5.7-2.4,8.6c-0.2,0.6-0.4,1.2-1.2,1.2c-0.8,0-1.1-0.5-1.3-1.2c-1.4-4.3-2.7-8.6-4.1-12.9
		c-0.3-1,0-1.8,0.9-1.9c0.8-0.1,1.2,0.4,1.4,1.1c0.9,2.9,1.9,5.9,2.8,8.8c0.1,0.2,0.2,0.5,0.3,0.8c0.9-3.3,1.8-6.4,2.7-9.5
		c0.2-0.7,0.4-1.3,1.2-1.3c0.9,0,1,0.7,1.2,1.3C13.1,105.6,14,108.7,14.9,112.1z"/>
	<path class="st0" d="M115.7,107.8c0,2.7,0,5.3,0,8c0,0.7-0.2,1.3-1,1.4c-0.8,0.1-1.3-0.4-1.3-1.4c0-3.9,0-7.7,0-11.6
		c0-0.6,0-1.1,0-1.7c0-0.6,0.2-1.1,0.8-1.3c0.7-0.2,1.2,0.2,1.4,0.8c1,2,1.9,4,2.9,6c0.8,1.8,1.7,3.5,2.6,5.5
		c0.3-0.7,0.6-1.3,0.9-1.8c1.5-3.1,2.9-6.2,4.4-9.3c0.3-0.7,0.7-1.3,1.5-1.1c0.8,0.2,0.9,0.9,0.9,1.6c0,4.3,0,8.5,0,12.8
		c0,0,0,0.1,0,0.1c0,1-0.4,1.5-1.2,1.5c-0.8,0-1.2-0.5-1.2-1.5c0-2.3,0-4.7,0-7c0-0.3,0-0.6,0-0.9c-0.4,0-0.4,0.4-0.5,0.5
		c-1.3,2.6-2.5,5.2-3.7,7.9c-0.2,0.5-0.5,1-1.2,1c-0.7,0-1-0.5-1.2-1c-1.3-2.8-2.7-5.6-4-8.4C115.8,107.8,115.8,107.8,115.7,107.8z"
		/>
	<path class="st0" d="M66.8,112.7c0-0.8,0-1.3,0-1.9c0-2.7,0-5.4,0-8.1c0-1,0.5-1.6,1.2-1.6c0.7,0,1.2,0.6,1.2,1.5
		c0,4.4,0,8.7,0,13.1c0,0.6-0.2,1.2-0.8,1.4c-0.7,0.2-1.1-0.1-1.5-0.6c-2.4-3.3-4.9-6.6-7.3-9.9c-0.2-0.2-0.4-0.5-0.7-0.9
		c0,0.6,0,1,0,1.3c0,2.9,0,5.8,0,8.7c0,1-0.5,1.5-1.2,1.4c-0.9,0-1.2-0.6-1.2-1.4c0-4.4,0-8.8,0-13.1c0-0.7,0.2-1.2,0.9-1.4
		c0.7-0.2,1.1,0.1,1.5,0.7c2.4,3.3,4.8,6.5,7.2,9.8C66.2,112,66.5,112.3,66.8,112.7z"/>
	<path class="st0" d="M156,101.1c1.6,0,3.1,0.3,4.6,0.9c0.9,0.3,1.2,0.9,0.9,1.6c-0.3,0.8-1,0.8-1.7,0.6c-1.8-0.7-3.6-1-5.5-0.6
		c-0.8,0.2-1.6,0.5-1.8,1.4c-0.2,1,0.5,1.5,1.3,1.9c1.3,0.7,2.8,1,4.2,1.5c0.8,0.3,1.5,0.5,2.2,0.9c2.7,1.5,2.8,5.2,0.2,6.9
		c-1.6,1-3.4,1.2-5.2,1.1c-1.5-0.1-3-0.4-4.4-1.1c-0.9-0.5-1.3-1.2-0.9-1.9c0.5-0.8,1.2-0.6,1.9-0.3c1.7,0.8,3.6,1.1,5.5,0.9
		c0.4-0.1,0.7-0.1,1.1-0.3c0.8-0.3,1.4-0.8,1.5-1.7c0.1-0.9-0.5-1.4-1.3-1.8c-1.3-0.6-2.7-0.9-4.1-1.4c-0.7-0.3-1.5-0.5-2.2-0.9
		c-1.7-0.8-2.5-2.2-2.3-4.1c0.2-1.8,1.3-2.7,2.8-3.2C153.9,101.2,154.9,101.1,156,101.1z"/>
	<path class="st0" d="M74.1,109.1c0-2.1,0-4.1,0-6.2c0-1.1,0.4-1.5,1.5-1.5c2.7,0,5.4,0,8.2,0c0.8,0,1.4,0.3,1.4,1.1
		c0,0.8-0.5,1.2-1.4,1.2c-2.1,0-4.2,0-6.3,0c-0.7,0-1,0.1-0.9,0.9c0.1,0.8,0,1.7,0,2.5c0,0.6,0.1,0.8,0.7,0.8c1.1,0,2.1,0,3.2,0
		c0.9,0,1.5,0.5,1.4,1.2c-0.1,0.8-0.6,1.1-1.4,1.1c-1.1,0-2.1,0-3.2,0c-0.5,0-0.7,0.1-0.7,0.7c0,1.1,0,2.1,0,3.2
		c0,0.6,0.2,0.7,0.7,0.7c2.3,0,4.5,0,6.8,0c1,0,1.5,0.4,1.5,1.1c0,0.8-0.5,1.2-1.5,1.2c-2.8,0-5.6,0-8.4,0c-1.1,0-1.5-0.4-1.5-1.6
		C74.1,113.3,74.1,111.2,74.1,109.1z"/>
	<path class="st0" d="M133.1,107.1c0-1.5,0-2.9,0-4.4c0-1,0.4-1.5,1.2-1.5c0.8,0,1.3,0.5,1.3,1.5c0,2.7,0,5.4,0,8.1
		c0,3.1,2,4.7,5,4.1c1.6-0.3,2.8-1.5,2.9-3.2c0.1-2.7,0.1-5.4,0.1-8.2c0-0.3,0-0.6,0-0.9c0-0.8,0.4-1.3,1.2-1.4
		c0.8,0,1.3,0.5,1.3,1.4c0,1.7,0,3.4,0,5.2c0,1.5,0.1,3.1-0.2,4.6c-0.6,3.3-3.3,5.2-7,5c-3.3-0.2-5.6-2.5-5.8-5.8
		C133,110.1,133.1,108.6,133.1,107.1C133.1,107.1,133.1,107.1,133.1,107.1z"/>
	<path class="st0" d="M172.9,108.5c0.1-2.6,1.5-5.2,4.5-6.6c2.8-1.3,5.6-1.1,8.1,0.8c0.3,0.2,0.5,0.5,0.7,0.7c0.3,0.5,0.2,1-0.2,1.4
		c-0.4,0.4-0.8,0.4-1.3,0.2c-0.2-0.1-0.4-0.2-0.5-0.4c-1.9-1.5-4-1.7-6.1-0.5c-2.2,1.2-3,3.3-2.8,5.6c0.2,2.3,1.3,4.2,3.7,5
		c2.3,0.8,4.3,0.1,5.9-1.7c0.5-0.6,1.1-0.9,1.8-0.4c0.6,0.4,0.5,1.2-0.1,1.9c-2,2.4-5.6,3.4-8.6,2.3
		C175,115.8,172.9,112.7,172.9,108.5z"/>
	<path class="st1" d="M169,109.2c0,2.2,0,4.3,0,6.5c0,1-0.5,1.5-1.3,1.5c-0.8,0-1.2-0.5-1.3-1.5c0-2.3,0-4.7,0-7c0-1.9,0-3.9,0-5.8
		c0-1.1,0.5-1.6,1.3-1.6c0.8,0,1.3,0.6,1.3,1.6C169,105,169,107.1,169,109.2z"/>
	<path class="st2" d="M139.3,28.9c-0.8-4.1-1.9-8.2-4-11.8c-4.5-7.5-11.3-11.8-19.7-13.9c-6.7-1.7-13.5-2-20.3-2.1
		c-3.2,0-6.4,0.1-9.6,0.4c-4.9,0.4-9.8,1.2-14.5,2.8c-9.2,3.3-15.6,9.5-18.6,18.9c-1.3,4.2-2,8.5-2.4,12.8c-0.8,8.5-0.3,17,1.8,25.3
		c2.5,10.5,9,17.5,19,21.1c5.6,2,11.5,2.8,17.4,3.1c5.4,0.3,10.8,0.3,16.1-0.2c5.2-0.4,10.3-1.2,15.1-3c9.1-3.4,15.4-9.6,18.3-19
		c1.7-5.7,2.4-11.6,2.7-17.5C140.8,40.2,140.4,34.5,139.3,28.9z M86.8,66.9c-3.8,1.3-8.2-0.5-10-4.2c-1.1-2.3-2-4.7-2.9-7
		c-2.7-6.6-5.5-13.2-8.2-19.9c-2.1-5.1,0.7-10.5,6-11.6c0.5-0.1,1.1-0.1,1.6-0.2c3.8,0.2,6.4,2,7.8,5.5c3.1,7.5,6.1,14.9,9.2,22.4
		c0.8,1.8,1.7,3.6,2.1,5.6C93.1,61.6,90.7,65.6,86.8,66.9z M107,67.3c-2.8,0.4-6.9-0.9-8.7-5.4c-3.2-7.9-6.5-15.8-9.8-23.8
		c-0.6-1.4-1.3-2.8-1.5-4.4c-0.8-5,3.1-9.7,8.8-9.6c2.9,0.2,5.6,1.7,7,5.1c3.7,8.8,7.4,17.7,11,26.6C115.9,61.1,112.6,66.6,107,67.3
		z M119.4,47.3c-3-0.2-5.7-1.7-7.1-5c-1-2.2-1.9-4.4-2.8-6.7c-1.7-4.4,0.4-9.2,4.6-10.9c4.2-1.7,9,0.3,10.8,4.7
		c0.9,2.2,1.8,4.3,2.7,6.5C129.7,41.4,125.7,47.3,119.4,47.3z"/>
	<path class="st0" d="M49.5,110.6c-0.2-0.4-0.2-0.5,0.2-0.8c1.9-1.1,2.6-2.7,2.2-4.9c-0.3-1.8-1.6-3-3.7-3.4
		c-2.4-0.4-4.9-0.1-7.3-0.2c-1.1,0-1.6,0.4-1.6,1.6c0,2.1,0,4.2,0,6.3s0,4.2,0,6.3c0,1.1,0.4,1.6,1.2,1.6c0.8,0,1.3-0.5,1.3-1.6
		c0-1.5,0-2.9,0-4.4c0-0.6,0.1-0.8,0.7-0.8c1.1,0,2.3,0,3.4,0c0.6,0,0.8,0.2,1.1,0.7c0.8,1.6,1.6,3.3,2.3,4.9
		c0.5,1.1,1.2,1.5,1.9,1.1c0.7-0.3,0.8-1.1,0.3-2.1C50.9,113.5,50.2,112.1,49.5,110.6z M47,108.3c-0.7,0-1.4,0-2.2,0
		c-0.8,0-1.5,0-2.3,0c-0.6,0-0.7-0.2-0.7-0.7c0-1.1,0-2.2,0-3.3c0-0.5,0.1-0.7,0.6-0.7c1.5,0,3,0,4.5,0c1.6,0,2.5,0.9,2.5,2.3
		C49.5,107.4,48.5,108.3,47,108.3z"/>
	<path class="st0" d="M99.5,110.6c-0.2-0.4-0.2-0.5,0.2-0.8c1.8-1,2.6-2.7,2.3-4.7c-0.3-2-1.6-3.2-3.7-3.6c-2.4-0.4-4.8-0.1-7.2-0.2
		c-1.3,0-1.7,0.4-1.7,1.7c0,2,0,4.1,0,6.1c0,2.2,0,4.3,0,6.5c0,1,0.5,1.5,1.3,1.5c0.8,0,1.2-0.5,1.2-1.5c0-1.5,0-3,0-4.5
		c0-0.6,0.2-0.7,0.7-0.7c1.1,0,2.3,0,3.4,0c0.6,0,0.8,0.2,1,0.7c0.8,1.7,1.6,3.4,2.4,5.1c0.5,0.9,1.1,1.3,1.8,0.9
		c0.6-0.3,0.8-1.1,0.4-2C101,113.6,100.3,112.1,99.5,110.6z M97.2,108.3c-0.8,0-1.6,0-2.5,0c-0.8-0.1-2.1,0.4-2.6-0.2
		c-0.5-0.5-0.1-1.8-0.1-2.7c0-1.7,0-1.7,1.7-1.7c1.1,0,2.3,0,3.4,0c1.3,0,2.1,0.6,2.4,1.6C100,106.8,99,108.2,97.2,108.3z"/>
	<path class="st0" d="M35.7,115.2c-1.9-4.3-3.9-8.6-5.8-13c-0.2-0.5-0.5-1-1.2-1c-0.7,0-1,0.5-1.3,1c-0.8,1.7-1.6,3.5-2.3,5.2
		c-1.2,2.6-2.4,5.3-3.6,7.9c-0.4,0.8-0.1,1.5,0.5,1.8c0.6,0.3,1.3,0,1.6-0.8c0.4-0.8,0.8-1.6,1.1-2.5c0.2-0.5,0.4-0.7,1-0.7
		c2,0,3.9,0,5.9,0c0.5,0,0.7,0.1,0.9,0.6c0.4,1,0.8,1.9,1.3,2.8c0.3,0.6,0.8,0.7,1.4,0.5c0.6-0.2,0.7-0.6,0.8-1.2
		C35.9,115.7,35.8,115.4,35.7,115.2z M30.7,111c-1.5,0-3.1,0-4.7,0c0.9-2,1.7-3.8,2.6-5.9c0.9,1.9,1.7,3.7,2.4,5.5
		C31.2,111,31,111,30.7,111z"/>
</g>
</svg>
