<?xml version="1.0" encoding="utf-8"?>
<!-- Generator: Adobe Illustrator 22.1.0, SVG Export Plug-In . SVG Version: 6.00 Build 0)  -->
<svg version="1.1"
	 id="svg4359" inkscape:version="0.91 r13725" sodipodi:docname="24 hr fitness.svg" xmlns:cc="http://creativecommons.org/ns#" xmlns:dc="http://purl.org/dc/elements/1.1/" xmlns:inkscape="http://www.inkscape.org/namespaces/inkscape" xmlns:rdf="http://www.w3.org/1999/02/22-rdf-syntax-ns#" xmlns:sodipodi="http://sodipodi.sourceforge.net/DTD/sodipodi-0.dtd" xmlns:svg="http://www.w3.org/2000/svg"
	 xmlns="http://www.w3.org/2000/svg" xmlns:xlink="http://www.w3.org/1999/xlink" x="0px" y="0px" viewBox="0 0 222 276"
	 style="enable-background:new 0 0 222 276;" xml:space="preserve">
<sodipodi:namedview  bordercolor="#666666" borderopacity="1.0" id="base" inkscape:current-layer="layer1" inkscape:cx="111" inkscape:cy="25.75" inkscape:document-units="px" inkscape:pageopacity="0.0" inkscape:pageshadow="2" inkscape:window-height="744" inkscape:window-maximized="1" inkscape:window-width="1280" inkscape:window-x="-4" inkscape:window-y="-4" inkscape:zoom="4.119527" pagecolor="#ffffff" showgrid="false" units="px">
	</sodipodi:namedview>
<g>
	<g>
		<rect x="0.8" y="0.7" width="220.4" height="44.1"/>
		<rect x="0.8" y="88.9" transform="matrix(0.9231 -0.3845 0.3845 0.9231 -34.1021 51.2005)" width="220.4" height="44.1"/>
		<rect x="0.8" y="177" width="220.4" height="44.1"/>
	</g>
</g>
<polygon points="0.8,243.2 15.8,243.2 15.8,243.3 0.8,260.1 0.8,265.1 23,265.1 23,260.3 8.1,260.3 8.1,260.2 23,243.4 23,238.4 
	0.8,238.4 "/>
<path d="M37.9,258.3h-0.1l-6.7-19.9h-6.4l9.8,27c-0.8,3.5-2.3,3.9-4.8,3.9c-1.2,0-1.8,0-1.8,0s0,0,0,0v4.8c0,0,2.3,0,3.4,0
	c5.1,0,6.5-1.1,8.6-6.2L51,238.4h-6.2L37.9,258.3z"/>
<path d="M83.2,237.7c-4.1,0-6.6,1.8-8.6,4.8c-1.4-3.2-4.2-4.8-7.9-4.8c-3.2,0-5.5,1.3-7.4,3.8h-0.1v-3.2h-5.7v26.8h6v-14.3
	c0-5.2,2.1-8.2,5.6-8.2c3.1,0,4.8,2.2,4.8,6v16.5h6v-14.4c0-5.1,2.1-8.1,5.6-8.1c3,0,4.8,1.9,4.8,6.6v15.9h6v-16.5
	C92.4,241.4,88.9,237.7,83.2,237.7z"/>
<path d="M211.4,237.7c-3.5,0-6.3,1.7-8,4.1h-0.1v-3.5h-5.7v26.8h6v-14.9c0-5.1,2.7-7.7,6.1-7.7c3.4,0,5.4,1.9,5.4,6.7v15.9h6v-16.4
	C221.2,241.4,217.5,237.7,211.4,237.7z"/>
<path d="M139.8,238.3v5.3c-0.7-0.2-1.4-0.2-2.1-0.2c-4.8,0-7.4,3.1-7.4,8.6v13.1h-6v-26.8h5.6v4h0.1c1.8-2.9,4.3-4.3,7.6-4.3
	C138.2,238,139.1,238.1,139.8,238.3z"/>
<path d="M152.2,237.6c-6.8,0-11.2,5.3-11.2,13.6c0,8.3,4.3,13.6,11.1,13.6c3.3,0,5.8-1.4,7.7-4.2h0.1v2.6c0,5.6-2.2,7.6-6.2,7.6
	c-2.8,0-4.6-1-5.3-2.8l-5.4,2.3c1.5,3.1,5.2,5,10.6,5c7.5,0,12.2-3.8,12.2-11.8v-25.1h-5.7v3.7H160
	C158,239.1,155.5,237.6,152.2,237.6L152.2,237.6z M153.6,242.6c4.1,0,6.6,3.4,6.6,8.6c0,5.3-2.5,8.6-6.6,8.6c-3.8,0-6.3-3.4-6.3-8.6
	C147.2,246,149.7,242.6,153.6,242.6z"/>
<path d="M114.5,257.9c-0.9,2.5-3,3.4-6.1,3.4c-3.9,0-7.2-2.6-7.3-7.5h20.2c0-3.3-0.2-5-0.7-6.7c-1.5-5.5-6.2-9.3-12.3-9.3
	c-8,0-13.1,5.8-13.1,13.6c0,8.6,5.1,14.3,13.2,14.3c6.4,0,10.9-2.8,12.3-7.8H114.5z M108.3,242.7c3.8,0,6.6,2.8,7,6.9h-14.1
	C101.7,245.5,104.5,242.7,108.3,242.7z"/>
<path d="M188.1,257.9c-0.9,2.5-3,3.4-6.1,3.4c-3.9,0-7.2-2.6-7.3-7.5h20.2c0-3.3-0.2-5-0.7-6.7c-1.5-5.5-6.2-9.3-12.3-9.3
	c-8,0-13.1,5.8-13.1,13.6c0,8.6,5.1,14.3,13.2,14.3c6.4,0,10.9-2.8,12.3-7.8H188.1z M181.9,242.7c3.8,0,6.6,2.8,7,6.9h-14.1
	C175.3,245.5,178.1,242.7,181.9,242.7z"/>
</svg>
