<?xml version="1.0" encoding="utf-8"?>
<!-- Generator: Adobe Illustrator 24.0.2, SVG Export Plug-In . SVG Version: 6.00 Build 0)  -->
<svg version="1.1" id="Layer_1" xmlns="http://www.w3.org/2000/svg" xmlns:xlink="http://www.w3.org/1999/xlink" x="0px" y="0px"
	 viewBox="0 0 864 864" style="enable-background:new 0 0 864 864;" xml:space="preserve">
<style type="text/css">
	.st0{fill:#F58020;}
	.st1{fill:#F47421;}
	.st2{fill:#F26723;}
	.st3{fill:#EC404E;}
	.st4{fill:#F15A2F;}
	.st5{fill:#F04C3E;}
	.st6{fill:#E9335D;}
	.st7{fill:#EB286E;}
</style>
<g>
	<g>
		<polygon class="st0" points="548.4,218.9 651.66,2.37 861.78,2.37 		"/>
		<polygon class="st1" points="445.13,276.98 548.4,218.9 446.16,171.18 		"/>
		<polygon class="st2" points="675.05,276.98 548.4,218.9 445.13,276.98 		"/>
		<polygon class="st0" points="566.14,499.64 675.05,276.98 445.13,276.98 		"/>
		<polygon class="st3" points="348.32,491.58 227.31,218.9 34.5,456.89 111.94,599.68 		"/>
		<polygon class="st2" points="445.13,276.98 432.33,431.82 566.14,499.64 		"/>
		<polygon class="st4" points="399.95,269.72 227.31,218.9 374.94,340.72 		"/>
		<polygon class="st5" points="348.32,491.58 374.94,340.72 227.31,218.9 		"/>
		<polygon class="st1" points="432.33,431.82 374.94,340.72 348.32,491.58 		"/>
		<polygon class="st4" points="399.95,269.72 367.68,110.63 227.31,218.9 		"/>
		<polygon class="st6" points="111.14,165.65 227.31,218.9 34.5,456.89 2.88,380.25 		"/>
		<polygon class="st5" points="367.68,110.63 287.01,64 227.31,218.9 		"/>
		<polygon class="st4" points="432.33,64 287.01,64 367.68,110.63 		"/>
		<polygon class="st1" points="584.12,143.98 474.17,36.57 446.16,171.18 		"/>
		<polygon class="st2" points="651.66,2.37 541.13,2.37 474.17,36.57 584.12,143.98 		"/>
		<polygon class="st1" points="861.78,2.37 548.4,218.9 675.05,276.98 		"/>
		<polygon class="st0" points="861.78,443.98 861.78,2.37 675.05,276.98 651.66,491.58 		"/>
		<polygon class="st3" points="287.01,64 111.14,165.65 227.31,218.9 		"/>
		<polygon class="st4" points="334.61,2.37 287.01,64 432.33,64 416.9,2.37 		"/>
		<polygon class="st0" points="432.33,431.82 566.14,499.64 484.66,499.64 		"/>
		<polygon class="st2" points="348.32,491.58 432.33,431.82 484.66,499.64 470.14,560.15 		"/>
		<polygon class="st2" points="367.68,654.54 470.14,560.15 348.32,491.58 		"/>
		<polygon class="st1" points="508.86,674.71 612.93,861.27 331.23,861.27 317.67,717.47 		"/>
		<polygon class="st1" points="638.75,739.52 508.86,674.71 612.93,861.27 		"/>
		<polygon class="st1" points="726.69,861.27 638.75,739.52 632.3,861.27 		"/>
		<polygon class="st2" points="612.93,861.27 638.75,739.52 632.3,861.27 		"/>
		<polygon class="st5" points="111.94,599.68 279.75,739.52 175.68,806.21 157.12,773.13 		"/>
		<polygon class="st5" points="348.32,491.58 347.74,495.83 317.67,717.47 367.68,654.54 		"/>
		<polygon class="st5" points="111.94,599.68 328.04,641.03 348.32,491.58 		"/>
		<polygon class="st4" points="279.75,739.52 317.67,717.47 111.94,599.68 		"/>
		<polygon class="st4" points="328.04,641.03 111.94,599.68 317.67,717.47 		"/>
		<polygon class="st3" points="111.14,165.65 76.45,81.75 24.01,185.01 2.88,380.25 		"/>
		<polygon class="st6" points="287.01,64 76.45,81.75 111.14,165.65 		"/>
		<polygon class="st5" points="248.29,2.37 287.01,64 334.61,2.37 		"/>
		<polygon class="st6" points="76.45,81.75 144.21,2.37 248.29,2.37 287.01,64 		"/>
		<polygon class="st7" points="63.54,2.37 57.01,36.57 2.88,176.14 2.88,2.37 		"/>
		<polygon class="st7" points="144.21,2.37 63.54,2.37 57.01,36.57 76.45,81.75 		"/>
		<polygon class="st6" points="24.01,185.01 2.88,176.14 2.88,380.25 		"/>
		<polygon class="st6" points="76.45,81.75 24.01,185.01 2.88,176.14 57.01,36.57 		"/>
		<polygon class="st4" points="399.95,269.72 445.13,276.98 432.33,431.82 374.94,340.72 		"/>
		<polygon class="st2" points="446.16,171.18 399.95,269.72 445.13,276.98 		"/>
		<polygon class="st1" points="432.33,64 446.16,171.18 399.95,269.72 367.68,110.63 		"/>
		<polygon class="st1" points="651.66,491.58 566.14,499.64 625.84,641.03 		"/>
		<polygon class="st2" points="474.17,36.57 432.33,64 446.16,171.18 		"/>
		<polygon class="st1" points="451.65,2.37 474.17,36.57 541.13,2.37 		"/>
		<polygon class="st1" points="432.33,64 416.9,2.37 452.1,2.37 474.17,36.57 		"/>
		<polygon class="st5" points="111.94,599.68 72.1,666.12 157.12,773.13 		"/>
		<polygon class="st6" points="2.88,593.03 111.94,599.68 72.1,666.12 2.88,634.46 		"/>
		<polygon class="st3" points="2.88,593.03 111.94,599.68 34.5,456.89 2.88,488.15 		"/>
		<polygon class="st6" points="2.88,380.25 34.5,456.89 2.88,447.32 		"/>
		<polygon class="st7" points="2.88,488.15 34.5,456.89 2.88,447.32 		"/>
		<polygon class="st7" points="72.1,666.12 21.84,811.26 2.88,780.06 2.88,634.46 		"/>
		<path class="st7" d="M21.56,861.27c0.14-1.58,0.27-50.01,0.27-50.01l-18.95-31.2v81.2H21.56z"/>
		<polygon class="st6" points="157.12,773.13 21.84,811.26 95.63,836.08 		"/>
		<polygon class="st3" points="72.1,666.12 157.12,773.13 21.84,811.26 		"/>
		<polygon class="st7" points="95.63,836.08 95.63,861.27 21.56,861.27 22.03,810.69 		"/>
		<polygon class="st3" points="175.68,806.21 95.63,836.08 157.12,773.13 		"/>
		<polygon class="st6" points="227.89,861.27 175.68,806.21 95.63,836.08 95.63,861.27 		"/>
		<polygon class="st3" points="279.75,739.52 308.88,861.27 227.89,861.27 175.68,806.21 		"/>
		<polygon class="st5" points="317.67,717.47 331.23,861.27 308.88,861.27 279.75,739.52 		"/>
		<polygon class="st4" points="508.86,674.71 367.68,654.54 317.67,717.47 		"/>
		<polygon class="st1" points="470.14,560.15 508.86,674.71 367.68,654.54 		"/>
		<polygon class="st1" points="566.14,499.64 470.14,560.15 484.66,499.64 		"/>
		<polygon class="st2" points="560.09,660.59 625.84,641.03 566.14,499.64 470.14,560.15 		"/>
		<polygon class="st0" points="508.86,674.71 560.09,660.59 470.14,560.15 		"/>
		<polygon class="st1" points="861.78,861.27 861.78,708.42 781.97,861.27 		"/>
		<polygon class="st0" points="838.01,509.5 861.78,518.58 861.78,571.47 		"/>
		<polygon class="st1" points="861.78,652.77 625.84,641.03 838.01,509.5 861.78,571.47 		"/>
		<polygon class="st2" points="638.75,739.52 560.09,660.59 508.86,674.71 		"/>
		<polygon class="st2" points="838.01,509.5 651.66,491.58 625.84,641.03 		"/>
		<polygon class="st1" points="675.05,276.98 651.66,491.58 566.14,499.64 		"/>
		<polygon class="st1" points="861.78,443.98 651.66,491.58 838.01,509.5 861.78,518.58 		"/>
		<polygon class="st1" points="861.78,652.77 625.84,641.03 638.75,739.52 861.78,665.8 		"/>
		<polygon class="st1" points="560.09,660.59 625.84,641.03 638.75,739.52 		"/>
		<polygon class="st2" points="861.78,665.8 638.75,739.52 726.69,861.27 781.97,861.27 861.78,708.42 		"/>
		<polygon class="st0" points="446.16,171.18 584.12,143.98 548.4,218.9 		"/>
	</g>
</g>
</svg>
