<svg id="Layer_1" data-name="Layer 1" xmlns="http://www.w3.org/2000/svg" viewBox="0 0 114.85 118.3"><defs><style>.cls-1{fill:#e62744;}</style></defs><title>RGB_Logo_All</title><path class="cls-1" d="M42.82,110a23.88,23.88,0,0,1-34.37.51A25.34,25.34,0,0,1,8,75.31a23.88,23.88,0,0,1,34.36-.51A25.32,25.32,0,0,1,42.82,110"/><path class="cls-1" d="M112.25,35.59A24.5,24.5,0,0,1,80,49.33C67.37,44,61.39,29.15,66.63,16.21A24.51,24.51,0,0,1,98.92,2.47c12.61,5.36,18.58,20.18,13.33,33.12"/><polygon class="cls-1" points="54.04 73.65 54.4 73.15 54.04 73.65 54.04 73.65"/><polygon class="cls-1" points="54.4 73.14 54.4 73.14 54.4 73.15 54.4 73.14"/><polygon class="cls-1" points="61.22 5.33 57.48 4.36 61.21 5.33 61.22 5.33"/><polygon class="cls-1" points="57.47 4.36 57.47 4.36 57.48 4.36 57.47 4.36"/><polygon class="cls-1" points="109.22 54.96 109.22 54.96 109.23 55.01 109.22 54.96"/><polygon class="cls-1" points="109.23 55.01 109.23 55.01 109.23 55.01 109.23 55.01"/><path class="cls-1" d="M109.21,54.93v0h0v0h0l2.58,10.42-11.24,4.8L95.19,61h0l-.06-.1a33.61,33.61,0,0,1-11.75,0L78,70.14,66.76,65.38l2.56-10.33.05-.21-.17-.12a34.92,34.92,0,0,1-8.09-8.46h0l-10.2,2.68L46.23,37.41l8.91-5.47h0l.23-.14h0v-.06a36.29,36.29,0,0,1,.06-12l-9-5.51L51,2.69l6.45,1.67h0l3.74,1h0l.09,0A34.81,34.81,0,0,1,65.88,0H7.54A7.64,7.64,0,0,0,0,7.74V58.23L6.49,63l.51.39a33.78,33.78,0,0,1,10.65-4.65v0h0L19,48.22,31,48,32.59,58.5h0l0,.1A33.7,33.7,0,0,1,43.35,63l8.2-6.47,8.58,8.54L54.4,73.14h0l-.36.5h0l0,.06a35,35,0,0,1,4.52,11v0L68.79,86,69,98.25l-1,.16L58.63,100a35.08,35.08,0,0,1-4.31,11l5.5,7.32h47.5a7.63,7.63,0,0,0,7.53-7.74V49.89A34.9,34.9,0,0,1,109.21,54.93Z"/></svg>