<?xml version="1.0" encoding="utf-8"?>
<!-- Generator: Adobe Illustrator 24.0.3, SVG Export Plug-In . SVG Version: 6.00 Build 0)  -->
<svg version="1.1" id="Layer_1" xmlns="http://www.w3.org/2000/svg" xmlns:xlink="http://www.w3.org/1999/xlink" x="0px" y="0px"
	 viewBox="0 0 350 350" style="enable-background:new 0 0 350 350;" xml:space="preserve">
<style type="text/css">
	.st0{fill:#FFFFFF;}
	.st1{opacity:0.75;fill:#FFFFFF;}
</style>
<g>
	<path class="st0" d="M276.9,182.2c-5.2-19.9-23.3-34.6-44.8-34.6c-3.4,0-6.8,0.4-10,1.1c-6.9-10-17.5-17.1-29.9-19.3
		c-2.7-0.5-5.5-0.8-8.3-0.8c-6.8,0-13.2,1.5-19,4.1c-14.4,6.5-24.9,20.1-27,36.4c-19.8,2.6-36.1,16.2-42.5,34.5
		c-1.9,5.4-3,11.3-3,17.4c0,2.5,0.2,4.9,0.5,7.3c3.6,25.5,25.4,45.1,51.9,45.1h120.4c25.6,0,46.3-20.7,46.3-46.3
		C311.5,205.5,296.8,187.4,276.9,182.2z"/>
	<path class="st1" d="M95.4,203.5c-10.3-9.1-16.7-22.4-16.7-37.2c0-27.5,22.3-49.7,49.7-49.7c14.4,0,27.4,6.2,36.5,16
		c5.8-2.6,12.2-4.1,19-4.1c2.8,0,5.6,0.3,8.3,0.8l13.2-13l-26.6-26.7L164.3,104c-2.7-1.5-5.4-2.9-8.2-4.1c-2.8-1.2-5.7-2.2-8.7-3
		l0.1-20.3h-38l0.1,20.1c-5.9,1.6-11.6,3.9-16.9,6.9L78.7,89.5l-26.8,26.4L65.9,130c-1.5,2.6-2.9,5.4-4.1,8.1
		c-1.2,2.7-2.2,5.6-3,8.6l-20.4-0.1v37.5l20.2,0.1c1.6,5.9,3.9,11.5,6.9,16.8l-14.9,14.6l26.6,26.7l14.8-14.6
		c0.3,0.2,0.6,0.3,0.9,0.5c-0.3-2.4-0.5-4.8-0.5-7.3C92.4,214.8,93.5,209,95.4,203.5z"/>
</g>
</svg>
