<?xml version="1.0" encoding="utf-8"?>
<!-- Generator: Adobe Illustrator 23.0.6, SVG Export Plug-In . SVG Version: 6.00 Build 0)  -->
<svg version="1.1" id="Ebene_1" xmlns="http://www.w3.org/2000/svg" xmlns:xlink="http://www.w3.org/1999/xlink" x="0px" y="0px"
	 viewBox="0 0 133 132.5" style="enable-background:new 0 0 133 132.5;" xml:space="preserve">
<style type="text/css">
	.st0{clip-path:url(#SVGID_2_);fill:none;stroke:#999999;stroke-miterlimit:10;}
	.st1{clip-path:url(#SVGID_4_);fill:none;stroke:#999999;stroke-miterlimit:10;}
	.st2{fill:none;stroke:#999999;stroke-miterlimit:10;}
	.st3{fill:#00A8FF;}
</style>
<g>
	<g>
		<g>
			<g>
				<g>
					<defs>
						<path id="SVGID_1_" d="M66.2,3.6C31.7,3.6,3.5,31.7,3.5,66.2s28.1,62.7,62.7,62.7S129,100.8,129,66.2S100.8,3.6,66.2,3.6z"/>
					</defs>
					<clipPath id="SVGID_2_">
						<use xlink:href="#SVGID_1_"  style="overflow:visible;"/>
					</clipPath>
					<circle class="st0" cx="66.2" cy="66.2" r="62.7"/>
				</g>
			</g>
		</g>
		<g>
			<g>
				<g>
					<defs>
						<path id="SVGID_3_" d="M66.2,3.6C31.7,3.6,3.5,31.7,3.5,66.2s28.1,62.7,62.7,62.7S129,100.8,129,66.2S100.8,3.6,66.2,3.6z"/>
					</defs>
					<clipPath id="SVGID_4_">
						<use xlink:href="#SVGID_3_"  style="overflow:visible;"/>
					</clipPath>
					<circle class="st1" cx="66.2" cy="66.2" r="62"/>
				</g>
			</g>
		</g>
		<g>
			<path id="SVGID_8_" class="st2" d="M66.2,3.6C31.7,3.6,3.5,31.7,3.5,66.2s28.1,62.7,62.7,62.7S129,100.8,129,66.2
				S100.8,3.6,66.2,3.6z"/>
		</g>
		<g transform="translate(-18.7 -48.8)">
		</g>
	</g>
</g>
<g>
	<g>
		<path class="st3" d="M90.4,86.7H45.7c-9.6,0-17.5-7.8-17.5-17.5S36,51.8,45.7,51.8c1.6,0,3.3,0.2,4.8,0.7
			c2.6-6.5,9-10.9,16.2-10.9c4.4,0,8.5,1.6,11.7,4.5c1.6-0.6,3.3-0.9,5.1-0.9c8.4,0,15.2,6.8,15.2,15.2c0,0,0,0,0,0
			c3.9,2.7,6.2,7.1,6.2,11.9C104.8,80.2,98.3,86.7,90.4,86.7z M45.7,55.7c-7.5,0-13.5,6.1-13.5,13.5s6.1,13.5,13.5,13.5h44.7
			c5.8,0,10.5-4.7,10.5-10.5c0-3.7-2-7.2-5.3-9.1l-1.1-0.6l0.1-1.2c0-0.3,0-0.6,0-0.9c0-6.2-5.1-11.3-11.3-11.3
			c-1.6,0-3.2,0.3-4.7,1l-1.3,0.6l-1-1c-2.6-2.7-6.1-4.2-9.8-4.2c-6.1,0-11.5,4.1-13,10L53,57.7l-2.1-0.9
			C49.3,56.1,47.5,55.7,45.7,55.7z"/>
	</g>
</g>
</svg>
