<?xml version="1.0" encoding="utf-8"?>
<!-- Generator: Adobe Illustrator 23.0.6, SVG Export Plug-In . SVG Version: 6.00 Build 0)  -->
<svg version="1.1" id="Layer_1" xmlns="http://www.w3.org/2000/svg" xmlns:xlink="http://www.w3.org/1999/xlink" x="0px" y="0px"
	 viewBox="0 0 36.7 21.6" style="enable-background:new 0 0 36.7 21.6;" xml:space="preserve">
<style type="text/css">
	.st0{fill:#FFFFFF;}
</style>
<g>
	<path class="st0" d="M29.8,21.6H8.4c-4.6,0-8.4-3.8-8.4-8.4s3.8-8.4,8.4-8.4c0.8,0,1.6,0.1,2.3,0.3C11.9,2.1,15,0,18.4,0
		c2.1,0,4,0.8,5.6,2.1c0.8-0.3,1.6-0.4,2.4-0.4c4,0,7.3,3.3,7.3,7.3c0,0,0,0,0,0c1.9,1.3,3,3.4,3,5.7C36.7,18.5,33.6,21.6,29.8,21.6
		z M8.4,6.8c-3.6,0-6.5,2.9-6.5,6.5s2.9,6.5,6.5,6.5h21.4c2.8,0,5-2.3,5-5c0-1.8-1-3.5-2.5-4.4L31.8,10l0-0.6c0-0.1,0-0.3,0-0.4
		c0-3-2.4-5.4-5.4-5.4c-0.8,0-1.5,0.2-2.3,0.5l-0.6,0.3l-0.5-0.5c-1.2-1.3-2.9-2-4.7-2c-2.9,0-5.5,2-6.2,4.8l-0.3,1l-1-0.4
		C10.1,7,9.2,6.8,8.4,6.8z"/>
</g>
</svg>
