<?xml version="1.0" encoding="utf-8"?>
<!-- Generator: Adobe Illustrator 23.0.6, SVG Export Plug-In . SVG Version: 6.00 Build 0)  -->
<svg version="1.1" id="Layer_1" xmlns="http://www.w3.org/2000/svg" xmlns:xlink="http://www.w3.org/1999/xlink" x="0px" y="0px"
	 viewBox="0 0 73 48" style="enable-background:new 0 0 73 48;" xml:space="preserve">
<style type="text/css">
	.st0{fill:#1CAAFC;}
</style>
<title>ICON-megaphone</title>
<desc>Created with Sketch.</desc>
<g>
	<path class="st0" d="M59,45.5H16.6C7.4,45.5,0,38.1,0,28.9s7.4-16.6,16.6-16.6c1.6,0,3.1,0.2,4.6,0.6c2.5-6.2,8.6-10.3,15.3-10.3
		c4.1,0,8,1.5,11.1,4.2C49.1,6.3,50.8,6,52.4,6c8,0,14.4,6.5,14.4,14.4l0,0c3.7,2.5,5.9,6.8,5.9,11.3C72.7,39.3,66.5,45.5,59,45.5z
		 M16.6,16.1c-7.1,0-12.8,5.8-12.8,12.8s5.8,12.8,12.8,12.8H59c5.5,0,10-4.5,10-10c0-3.6-1.9-6.9-5-8.6l-1-0.6l0.1-1.2
		c0-0.3,0-0.6,0-0.9c0-5.9-4.8-10.7-10.7-10.7c-1.6,0-3.1,0.3-4.5,1l-1.2,0.6l-0.9-1c-2.4-2.6-5.7-4-9.3-4c-5.8,0-10.9,3.9-12.4,9.5
		l-0.6,2.1l-2-0.8C20,16.4,18.3,16.1,16.6,16.1z"/>
</g>
</svg>
