<?xml version="1.0" encoding="utf-8"?>
<!-- Generator: Adobe Illustrator 22.0.0, SVG Export Plug-In . SVG Version: 6.00 Build 0)  -->
<svg version="1.1" id="Ebene_1" xmlns="http://www.w3.org/2000/svg" xmlns:xlink="http://www.w3.org/1999/xlink" x="0px" y="0px"
	 viewBox="0 0 454.4 195.7" style="enable-background:new 0 0 454.4 195.7;" xml:space="preserve">
<style type="text/css">
	.st0{enable-background:new    ;}
	.st1{fill:#00A8FF;}
</style>
<g>
	<path d="M39.4,27.5c0,2.6-0.7,4.6-2.2,5.9c-1.4,1.4-3.5,2.1-6.2,2.1h-4.4V19.8h4.9c2.5,0,4.4,0.7,5.8,2
		C38.7,23.1,39.4,25,39.4,27.5z M36.7,27.5c0-3.8-1.8-5.6-5.3-5.6h-2.2v11.4H31C34.8,33.3,36.7,31.4,36.7,27.5z"/>
	<path d="M47.7,35.7c-1.8,0-3.3-0.5-4.3-1.6s-1.6-2.6-1.6-4.5s0.5-3.5,1.5-4.6s2.3-1.7,4-1.7c1.6,0,2.8,0.5,3.7,1.4
		c0.9,1,1.4,2.3,1.4,3.9V30h-7.9c0,1.2,0.3,2,0.9,2.7c0.6,0.6,1.4,0.9,2.5,0.9c0.7,0,1.4-0.1,2-0.2c0.6-0.1,1.3-0.4,1.9-0.7v2.1
		c-0.6,0.3-1.2,0.5-1.9,0.6C49.2,35.6,48.5,35.7,47.7,35.7z M47.2,25.3c-0.8,0-1.4,0.3-1.9,0.8s-0.8,1.2-0.9,2.2h5.4
		c0-1-0.3-1.7-0.7-2.2C48.7,25.5,48,25.3,47.2,25.3z"/>
	<path d="M60,35.7c-1.8,0-3.2-0.5-4.1-1.6c-0.9-1-1.4-2.6-1.4-4.5c0-2,0.5-3.5,1.5-4.6s2.4-1.6,4.2-1.6c1.3,0,2.4,0.2,3.4,0.7
		l-0.8,2c-1.1-0.4-1.9-0.6-2.6-0.6c-2.1,0-3.1,1.4-3.1,4.1c0,1.3,0.3,2.3,0.8,3c0.5,0.7,1.3,1,2.3,1c1.1,0,2.2-0.3,3.2-0.8V35
		c-0.5,0.3-0.9,0.5-1.4,0.6C61.3,35.6,60.7,35.7,60,35.7z"/>
	<path d="M65.9,20.4c0-0.5,0.1-0.8,0.4-1c0.2-0.2,0.6-0.4,1.1-0.4c0.4,0,0.8,0.1,1,0.4c0.2,0.2,0.4,0.6,0.4,1s-0.1,0.8-0.4,1
		c-0.2,0.2-0.6,0.4-1,0.4c-0.5,0-0.8-0.1-1.1-0.4C66,21.2,65.9,20.9,65.9,20.4z M68.6,35.5h-2.5V23.6h2.5V35.5z"/>
	<path d="M80.2,32.1c0,1.2-0.4,2.1-1.3,2.7c-0.8,0.6-2.1,0.9-3.6,0.9c-1.6,0-2.9-0.2-3.8-0.7v-2.2c1.4,0.6,2.7,1,3.9,1
		c1.6,0,2.3-0.5,2.3-1.4c0-0.3-0.1-0.6-0.3-0.8c-0.2-0.2-0.5-0.4-0.8-0.6s-0.9-0.5-1.6-0.7c-1.4-0.5-2.3-1.1-2.8-1.6
		s-0.7-1.2-0.7-2.1c0-1,0.4-1.8,1.2-2.4c0.8-0.6,1.9-0.8,3.3-0.8s2.7,0.3,4,0.8l-0.8,1.9c-1.3-0.5-2.4-0.8-3.2-0.8
		c-1.3,0-2,0.4-2,1.1c0,0.4,0.2,0.7,0.5,0.9c0.3,0.3,1.1,0.6,2.3,1.1c1,0.4,1.7,0.7,2.1,1s0.8,0.7,1,1.1
		C80.1,31,80.2,31.5,80.2,32.1z"/>
	<path d="M82.8,20.4c0-0.5,0.1-0.8,0.4-1c0.2-0.2,0.6-0.4,1.1-0.4c0.4,0,0.8,0.1,1,0.4c0.2,0.2,0.4,0.6,0.4,1s-0.1,0.8-0.4,1
		c-0.2,0.2-0.6,0.4-1,0.4c-0.5,0-0.8-0.1-1.1-0.4C82.9,21.2,82.8,20.9,82.8,20.4z M85.4,35.5h-2.5V23.6h2.5V35.5z"/>
	<path d="M99.6,29.5c0,1.9-0.5,3.5-1.5,4.5c-1,1.1-2.4,1.6-4.2,1.6c-1.1,0-2.1-0.3-2.9-0.8c-0.9-0.5-1.5-1.2-2-2.2
		c-0.5-0.9-0.7-2-0.7-3.3c0-1.9,0.5-3.4,1.5-4.5s2.4-1.6,4.2-1.6c1.7,0,3.1,0.6,4.1,1.7S99.6,27.6,99.6,29.5z M90.9,29.5
		c0,2.7,1,4.1,3,4.1s3-1.4,3-4.1s-1-4.1-3-4.1c-1.1,0-1.8,0.4-2.3,1.1C91.2,27.2,90.9,28.2,90.9,29.5z"/>
	<path d="M112.9,35.5h-2.5v-7.3c0-0.9-0.2-1.6-0.6-2.1s-1-0.7-1.8-0.7c-1.1,0-1.8,0.3-2.3,0.9S105,28,105,29.5v5.9h-2.5V23.6h2
		l0.4,1.6h0.1c0.4-0.6,0.9-1,1.5-1.3c0.7-0.3,1.4-0.5,2.2-0.5c2.9,0,4.3,1.5,4.3,4.4L112.9,35.5L112.9,35.5z"/>
	<path d="M127.9,35.5h-2.6V22h-4.6v-2.2h11.8V22h-4.6L127.9,35.5L127.9,35.5z"/>
	<path d="M142,35.5l-0.5-1.7h-0.1c-0.6,0.7-1.1,1.2-1.7,1.5s-1.3,0.4-2.2,0.4c-1.2,0-2.1-0.3-2.7-0.9c-0.7-0.6-1-1.5-1-2.7
		c0-1.2,0.5-2.1,1.4-2.8s2.3-1,4.2-1l2.1-0.1v-0.6c0-0.8-0.2-1.3-0.5-1.7c-0.4-0.4-0.9-0.6-1.6-0.6c-0.6,0-1.2,0.1-1.8,0.3
		c-0.6,0.2-1.1,0.4-1.6,0.6l-0.8-1.8c0.6-0.3,1.3-0.6,2.1-0.8c0.8-0.2,1.5-0.3,2.2-0.3c1.5,0,2.7,0.3,3.4,1c0.8,0.7,1.2,1.7,1.2,3.1
		v8L142,35.5L142,35.5z M138.3,33.7c0.9,0,1.7-0.3,2.2-0.8c0.6-0.5,0.8-1.2,0.8-2.2v-1l-1.5,0.1c-1.2,0-2.1,0.2-2.6,0.6
		c-0.5,0.4-0.8,0.9-0.8,1.6c0,0.5,0.2,0.9,0.5,1.2S137.7,33.7,138.3,33.7z"/>
	<path d="M153.4,23.4c1.5,0,2.6,0.5,3.5,1.6c0.8,1.1,1.2,2.6,1.2,4.5s-0.4,3.5-1.3,4.5s-2,1.6-3.5,1.6s-2.7-0.5-3.5-1.6h-0.2
		l-0.5,1.4h-1.9V18.8h2.5v4c0,0.3,0,0.7,0,1.3s0,0.9-0.1,1.1h0.1C150.7,24,151.9,23.4,153.4,23.4z M152.8,25.4c-1,0-1.7,0.3-2.2,0.9
		c-0.4,0.6-0.7,1.6-0.7,3v0.2c0,1.4,0.2,2.5,0.7,3.1c0.5,0.6,1.2,1,2.2,1c0.9,0,1.6-0.4,2-1.1c0.5-0.7,0.7-1.7,0.7-3.1
		C155.6,26.8,154.6,25.4,152.8,25.4z"/>
	<path d="M163.6,35.5h-2.5V18.8h2.5V35.5z"/>
	<path d="M172.4,35.7c-1.8,0-3.3-0.5-4.3-1.6s-1.6-2.6-1.6-4.5s0.5-3.5,1.5-4.6s2.3-1.7,4-1.7c1.6,0,2.8,0.5,3.7,1.4
		c0.9,1,1.4,2.3,1.4,3.9V30h-8c0,1.2,0.3,2,0.9,2.7c0.6,0.6,1.4,0.9,2.5,0.9c0.7,0,1.4-0.1,2-0.2c0.6-0.1,1.3-0.4,1.9-0.7v2.1
		c-0.6,0.3-1.2,0.5-1.9,0.6S173.2,35.7,172.4,35.7z M171.9,25.3c-0.8,0-1.4,0.3-1.9,0.8s-0.8,1.2-0.9,2.2h5.4c0-1-0.3-1.7-0.7-2.2
		S172.7,25.3,171.9,25.3z"/>
</g>
<g>
	<path d="M134.1,78.5V65.7h2.1v12.8C136.2,78.5,134.1,78.5,134.1,78.5z"/>
	<path d="M147.9,78.5h-2.1v-6c0-0.8-0.2-1.3-0.5-1.7s-0.7-0.5-1.3-0.5c-0.9,0-1.5,0.3-1.9,0.8s-0.6,1.4-0.6,2.6v4.8h-2.1v-9.7h1.6
		l0.3,1.3h0.1c0.3-0.5,0.7-0.8,1.2-1.1s1.1-0.4,1.8-0.4c2.3,0,3.5,1.2,3.5,3.6L147.9,78.5L147.9,78.5z"/>
	<path d="M155.7,78.7c-1.2,0-2.2-0.4-2.9-1.3h-0.1c0.1,0.8,0.1,1.3,0.1,1.5v4h-2.1v-14h1.7c0,0.2,0.1,0.6,0.3,1.3h0.1
		c0.6-1,1.6-1.5,2.9-1.5c1.2,0,2.2,0.4,2.8,1.3s1,2.1,1,3.7s-0.3,2.8-1,3.7S157,78.7,155.7,78.7z M155.2,70.3
		c-0.8,0-1.4,0.2-1.8,0.7s-0.6,1.2-0.6,2.3v0.3c0,1.2,0.2,2,0.6,2.6s1,0.8,1.8,0.8c0.7,0,1.3-0.3,1.7-0.9s0.6-1.4,0.6-2.5
		s-0.2-1.9-0.6-2.5S156,70.3,155.2,70.3z"/>
	<path d="M168.9,78.5l-0.3-1.3h-0.1c-0.3,0.5-0.7,0.8-1.2,1.1s-1.1,0.4-1.8,0.4c-1.2,0-2.1-0.3-2.6-0.9s-0.9-1.5-0.9-2.7v-6.4h2.1v6
		c0,0.7,0.2,1.3,0.5,1.7s0.8,0.6,1.4,0.6c0.9,0,1.5-0.3,1.9-0.8s0.6-1.4,0.6-2.6v-4.8h2.1v9.7L168.9,78.5L168.9,78.5z"/>
	<path d="M177.1,77c0.5,0,1-0.1,1.5-0.2v1.5c-0.2,0.1-0.5,0.2-0.9,0.3c-0.4,0.1-0.7,0.1-1.1,0.1c-2,0-2.9-1-2.9-3.1v-5.2h-1.3v-0.9
		l1.4-0.8l0.7-2.1h1.3v2.2h2.8v1.6h-2.8v5.2c0,0.5,0.1,0.9,0.4,1.1S176.7,77,177.1,77z"/>
</g>
<g class="st0">
	<path class="st1" d="M191.1,73.6h-3.5V72h3.5v-3.6h1.6V72h3.5v1.6h-3.5v3.6h-1.6V73.6z"/>
</g>
<g class="st0">
	<path class="st1" d="M400.7,73.6h-3.5V72h3.5v-3.6h1.6V72h3.5v1.6h-3.5v3.6h-1.6V73.6z"/>
</g>
<g>
	<path d="M140.9,114.4h-1.5l-2.6-8.6c-0.1-0.4-0.3-0.9-0.4-1.4s-0.2-0.9-0.2-1c-0.1,0.8-0.3,1.6-0.6,2.5l-2.5,8.6h-1.5l-3.4-12.8
		h1.6l2,7.9c0.3,1.1,0.5,2.1,0.6,3c0.2-1.1,0.4-2.1,0.7-3.1l2.3-7.8h1.6l2.4,7.9c0.3,0.9,0.5,1.9,0.7,3.1c0.1-0.8,0.3-1.8,0.6-3
		l2-7.9h1.6L140.9,114.4z"/>
	<path d="M150.2,114.6c-1.4,0-2.5-0.4-3.4-1.3s-1.2-2.1-1.2-3.6c0-1.6,0.4-2.8,1.1-3.7s1.8-1.4,3.1-1.4c1.2,0,2.2,0.4,2.9,1.2
		s1.1,1.8,1.1,3.1v0.9h-6.6c0,1.1,0.3,2,0.9,2.6s1.3,0.9,2.3,0.9s2.1-0.2,3.1-0.7v1.3c-0.5,0.2-1,0.4-1.5,0.5
		S150.9,114.6,150.2,114.6z M149.8,105.8c-0.8,0-1.4,0.3-1.9,0.8s-0.7,1.2-0.8,2.1h5c0-0.9-0.2-1.6-0.6-2.1S150.6,105.8,149.8,105.8
		z"/>
	<path d="M162.2,114.4l-0.3-1.4h-0.1c-0.5,0.6-1,1-1.4,1.2s-1.1,0.3-1.8,0.3c-1,0-1.7-0.2-2.2-0.7s-0.8-1.2-0.8-2.1
		c0-1.9,1.6-3,4.7-3.1l1.6-0.1v-0.6c0-0.8-0.2-1.3-0.5-1.7s-0.8-0.5-1.6-0.5s-1.7,0.2-2.7,0.7l-0.4-1.1c0.5-0.3,1-0.5,1.6-0.6
		s1.1-0.2,1.7-0.2c1.1,0,2,0.3,2.6,0.8s0.8,1.3,0.8,2.5v6.6L162.2,114.4L162.2,114.4z M158.9,113.4c0.9,0,1.6-0.2,2.1-0.7
		s0.8-1.2,0.8-2.1v-0.9l-1.5,0.1c-1.2,0-2,0.2-2.5,0.5s-0.8,0.8-0.8,1.5c0,0.5,0.2,0.9,0.5,1.2S158.3,113.4,158.9,113.4z"/>
	<path d="M169.4,113.4c0.3,0,0.5,0,0.7-0.1s0.4-0.1,0.6-0.1v1.1c-0.2,0.1-0.4,0.1-0.7,0.2c-0.3,0-0.6,0.1-0.8,0.1
		c-1.9,0-2.8-1-2.8-2.9V106H165v-0.7l1.4-0.6l0.6-2.1h0.8v2.2h2.8v1.1h-2.8v5.7c0,0.6,0.1,1,0.4,1.3S168.9,113.4,169.4,113.4z"/>
	<path d="M179.2,114.4v-6.2c0-0.8-0.2-1.4-0.5-1.8s-0.9-0.6-1.7-0.6c-1,0-1.8,0.3-2.2,0.8c-0.5,0.6-0.7,1.5-0.7,2.7v5h-1.5v-13.7
		h1.5v4.1c0,0.5,0,0.9-0.1,1.2h0.1c0.3-0.5,0.7-0.8,1.2-1.1c0.5-0.3,1.1-0.4,1.8-0.4c1.2,0,2.1,0.3,2.7,0.8c0.6,0.6,0.9,1.4,0.9,2.7
		v6.3h-1.5V114.4z"/>
	<path d="M187.7,114.6c-1.4,0-2.5-0.4-3.4-1.3c-0.8-0.9-1.2-2.1-1.2-3.6c0-1.6,0.4-2.8,1.1-3.7c0.8-0.9,1.8-1.4,3.1-1.4
		c1.2,0,2.2,0.4,2.9,1.2s1.1,1.8,1.1,3.1v0.9h-6.6c0,1.1,0.3,2,0.9,2.6s1.3,0.9,2.3,0.9s2.1-0.2,3.1-0.7v1.3c-0.5,0.2-1,0.4-1.5,0.5
		S188.4,114.6,187.7,114.6z M187.3,105.8c-0.8,0-1.4,0.3-1.8,0.8c-0.5,0.5-0.7,1.2-0.8,2.1h5c0-0.9-0.2-1.6-0.6-2.1
		S188.1,105.8,187.3,105.8z"/>
	<path d="M198.1,104.6c0.4,0,0.8,0,1.2,0.1l-0.2,1.4c-0.4-0.1-0.8-0.1-1.1-0.1c-0.8,0-1.4,0.3-2,0.9s-0.8,1.4-0.8,2.4v5.2h-1.5v-9.6
		h1.2l0.2,1.8h0.1c0.4-0.6,0.8-1.1,1.3-1.5S197.5,104.6,198.1,104.6z"/>
</g>
<g>
	<path d="M69.1,137.4l-0.4,4.6h-0.9l-0.4-4.6H69.1z M72.4,137.4L72,142h-0.9l-0.4-4.6H72.4z"/>
	<path d="M82.6,146.9c0,1.1-0.4,2-1.2,2.6s-1.9,0.9-3.3,0.9c-1.5,0-2.7-0.2-3.5-0.6v-1.4c0.5,0.2,1.1,0.4,1.7,0.5s1.2,0.2,1.8,0.2
		c1,0,1.7-0.2,2.2-0.6s0.8-0.9,0.8-1.6c0-0.4-0.1-0.8-0.3-1.1s-0.5-0.5-0.9-0.8s-1.1-0.5-1.9-0.8c-1.2-0.4-2-0.9-2.6-1.5
		s-0.8-1.4-0.8-2.3c0-1,0.4-1.8,1.1-2.4s1.7-0.9,3-0.9s2.5,0.2,3.5,0.7l-0.5,1.3c-1.1-0.4-2.1-0.7-3.1-0.7c-0.8,0-1.4,0.2-1.9,0.5
		s-0.7,0.8-0.7,1.4c0,0.4,0.1,0.8,0.2,1.1s0.4,0.5,0.8,0.8s1,0.5,1.8,0.8c1.3,0.5,2.3,1,2.8,1.5S82.6,146,82.6,146.9z"/>
	<path d="M86.3,140.6v6.2c0,0.8,0.2,1.4,0.5,1.8s0.9,0.6,1.7,0.6c1,0,1.7-0.3,2.2-0.8s0.7-1.5,0.7-2.7v-5.1h1.5v9.6h-1.2l-0.2-1.3
		h-0.1c-0.3,0.5-0.7,0.8-1.2,1.1s-1.1,0.4-1.8,0.4c-1.2,0-2-0.3-2.6-0.8s-0.9-1.4-0.9-2.7v-6.3H86.3z"/>
	<path d="M102.6,150.3v-6.2c0-0.8-0.2-1.4-0.5-1.8s-0.9-0.6-1.7-0.6c-1,0-1.7,0.3-2.2,0.8s-0.7,1.4-0.7,2.7v5.1H96v-9.6h1.2l0.2,1.3
		h0.1c0.3-0.5,0.7-0.8,1.3-1.1s1.1-0.4,1.8-0.4c1.2,0,2,0.3,2.6,0.8s0.9,1.5,0.9,2.7v6.3H102.6z"/>
	<path d="M113.7,150.3v-6.2c0-0.8-0.2-1.4-0.5-1.8s-0.9-0.6-1.7-0.6c-1,0-1.7,0.3-2.2,0.8s-0.7,1.4-0.7,2.7v5.1h-1.5v-9.6h1.2
		l0.2,1.3h0.1c0.3-0.5,0.7-0.8,1.3-1.1s1.1-0.4,1.8-0.4c1.2,0,2,0.3,2.6,0.8s0.9,1.5,0.9,2.7v6.3H113.7z"/>
	<path d="M116.6,140.6h1.6l2.1,5.5c0.5,1.3,0.8,2.2,0.9,2.7h0.1c0.1-0.3,0.2-0.8,0.5-1.5c0.3-0.7,1-2.9,2.4-6.7h1.6l-4.1,11
		c-0.4,1.1-0.9,1.9-1.4,2.3c-0.5,0.5-1.2,0.7-2,0.7c-0.4,0-0.9,0-1.3-0.1v-1.2c0.3,0.1,0.7,0.1,1.1,0.1c1,0,1.7-0.6,2.1-1.7l0.5-1.4
		L116.6,140.6z"/>
	<path d="M128.4,137.4L128,142h-0.9l-0.4-4.6H128.4z M131.7,137.4l-0.4,4.6h-0.9l-0.4-4.6H131.7z"/>
</g>
<g>
	<path d="M69.1,171.9l-0.4,4.6h-0.9l-0.4-4.6H69.1z M72.4,171.9l-0.4,4.6h-0.9l-0.4-4.6H72.4z"/>
	<path d="M76.8,179.4v5.3h-1.5v-12.8h3.5c1.6,0,2.7,0.3,3.5,0.9s1.1,1.5,1.1,2.7c0,1.7-0.9,2.8-2.6,3.4l3.5,5.8h-1.8l-3.1-5.3
		L76.8,179.4L76.8,179.4z M76.8,178.2h2c1.1,0,1.8-0.2,2.3-0.6s0.7-1,0.7-1.9c0-0.8-0.3-1.5-0.8-1.8s-1.3-0.6-2.4-0.6h-1.9v4.9H76.8
		z"/>
	<path d="M92.1,184.8l-0.3-1.4h-0.1c-0.5,0.6-1,1-1.4,1.2s-1.1,0.3-1.8,0.3c-1,0-1.7-0.2-2.2-0.7s-0.8-1.2-0.8-2.1
		c0-1.9,1.6-3,4.7-3.1l1.6-0.1v-0.6c0-0.8-0.2-1.3-0.5-1.7s-0.8-0.5-1.6-0.5c-0.8,0-1.7,0.2-2.7,0.7l-0.4-1.1c0.5-0.3,1-0.5,1.6-0.6
		s1.1-0.2,1.7-0.2c1.1,0,2,0.3,2.6,0.8s0.8,1.3,0.8,2.5v6.6L92.1,184.8L92.1,184.8z M88.9,183.8c0.9,0,1.6-0.2,2.1-0.7
		s0.8-1.2,0.8-2.1v-0.9l-1.5,0.1c-1.2,0-2,0.2-2.5,0.5s-0.8,0.8-0.8,1.5c0,0.5,0.2,0.9,0.5,1.2S88.3,183.8,88.9,183.8z"/>
	<path d="M96.1,172.5c0-0.3,0.1-0.6,0.2-0.7s0.4-0.2,0.6-0.2s0.4,0.1,0.6,0.2s0.3,0.4,0.3,0.7s-0.1,0.6-0.3,0.7s-0.4,0.2-0.6,0.2
		s-0.5-0.1-0.6-0.2S96.1,172.9,96.1,172.5z M97.7,184.8h-1.5v-9.6h1.5V184.8z"/>
	<path d="M107.4,184.8v-6.2c0-0.8-0.2-1.4-0.5-1.8s-0.9-0.6-1.7-0.6c-1,0-1.7,0.3-2.2,0.8s-0.7,1.4-0.7,2.7v5.1h-1.5v-9.6h1.2
		l0.2,1.3h0.1c0.3-0.5,0.7-0.8,1.3-1.1s1.1-0.4,1.8-0.4c1.2,0,2,0.3,2.6,0.8s0.9,1.5,0.9,2.7v6.3H107.4z"/>
	<path d="M110.3,175.1h1.6l2.1,5.5c0.5,1.3,0.8,2.2,0.9,2.7h0.1c0.1-0.3,0.2-0.8,0.5-1.5s1-2.9,2.4-6.7h1.6l-4.1,11
		c-0.4,1.1-0.9,1.9-1.4,2.3c-0.5,0.5-1.2,0.7-2,0.7c-0.4,0-0.9,0-1.3-0.1v-1.2c0.3,0.1,0.7,0.1,1.1,0.1c1,0,1.7-0.6,2.1-1.7l0.5-1.4
		L110.3,175.1z"/>
	<path d="M122.2,171.9l-0.4,4.6h-0.9l-0.4-4.6H122.2z M125.4,171.9l-0.4,4.6h-0.9l-0.4-4.6H125.4z"/>
</g>
<g>
	<path d="M290.6,137.4l-0.4,4.6h-0.9l-0.4-4.6H290.6z M293.9,137.4l-0.4,4.6h-0.9l-0.4-4.6H293.9z"/>
	<path d="M300.8,150.3h-1.5v-11.5h-4.1v-1.3h9.6v1.3h-4.1v11.5H300.8z"/>
	<path d="M305.7,146.1v-1.3h4.3v1.3H305.7z"/>
	<path d="M319.8,146.9c0,1.1-0.4,2-1.2,2.6s-1.9,0.9-3.3,0.9c-1.5,0-2.7-0.2-3.5-0.6v-1.4c0.5,0.2,1.1,0.4,1.7,0.5s1.2,0.2,1.8,0.2
		c1,0,1.7-0.2,2.2-0.6s0.8-0.9,0.8-1.6c0-0.4-0.1-0.8-0.3-1.1s-0.5-0.5-0.9-0.8s-1.1-0.5-1.9-0.8c-1.2-0.4-2-0.9-2.6-1.5
		s-0.8-1.4-0.8-2.3c0-1,0.4-1.8,1.1-2.4s1.7-0.9,3-0.9s2.5,0.2,3.5,0.7l-0.5,1.3c-1.1-0.4-2.1-0.7-3.1-0.7c-0.8,0-1.4,0.2-1.9,0.5
		s-0.7,0.8-0.7,1.4c0,0.4,0.1,0.8,0.2,1.1s0.4,0.5,0.8,0.8s1,0.5,1.8,0.8c1.3,0.5,2.3,1,2.8,1.5S319.8,146,319.8,146.9z"/>
	<path d="M328.8,150.3v-6.2c0-0.8-0.2-1.4-0.5-1.8s-0.9-0.6-1.7-0.6c-1,0-1.8,0.3-2.2,0.8s-0.7,1.5-0.7,2.7v5h-1.5v-13.7h1.5v4.1
		c0,0.5,0,0.9-0.1,1.2h0.1c0.3-0.5,0.7-0.8,1.2-1.1s1.1-0.4,1.8-0.4c1.2,0,2.1,0.3,2.7,0.8c0.6,0.6,0.9,1.4,0.9,2.7v6.3h-1.5V150.3z
		"/>
	<path d="M333.1,138c0-0.3,0.1-0.6,0.2-0.7s0.4-0.2,0.6-0.2s0.4,0.1,0.6,0.2s0.3,0.4,0.3,0.7s-0.1,0.6-0.3,0.7s-0.4,0.2-0.6,0.2
		s-0.5-0.1-0.6-0.2S333.1,138.4,333.1,138z M334.7,150.3h-1.5v-9.6h1.5V150.3z"/>
	<path d="M342.2,140.5c0.4,0,0.8,0,1.2,0.1l-0.2,1.4c-0.4-0.1-0.8-0.1-1.1-0.1c-0.8,0-1.4,0.3-2,0.9c-0.6,0.6-0.8,1.4-0.8,2.4v5.2
		h-1.5v-9.6h1.2l0.2,1.8h0.1c0.4-0.6,0.8-1.1,1.3-1.5S341.6,140.5,342.2,140.5z"/>
	<path d="M348.3,149.2c0.3,0,0.5,0,0.7-0.1s0.4-0.1,0.6-0.1v1.1c-0.2,0.1-0.4,0.1-0.7,0.2c-0.3,0-0.6,0.1-0.8,0.1
		c-1.9,0-2.8-1-2.8-2.9v-5.7h-1.4v-0.7l1.4-0.6l0.6-2.1h0.8v2.2h2.8v1.1h-2.8v5.7c0,0.6,0.1,1,0.4,1.3S347.8,149.2,348.3,149.2z"/>
	<path d="M352.8,137.4l-0.4,4.6h-0.9l-0.4-4.6H352.8z M356,137.4l-0.4,4.6h-0.9l-0.4-4.6H356z"/>
</g>
<g>
	<path d="M290.6,171.9l-0.4,4.6h-0.9l-0.4-4.6H290.6z M293.9,171.9l-0.4,4.6h-0.9l-0.4-4.6H293.9z"/>
	<path d="M298.3,179.4v5.3h-1.5v-12.8h3.5c1.6,0,2.7,0.3,3.5,0.9s1.1,1.5,1.1,2.7c0,1.7-0.9,2.8-2.6,3.4l3.5,5.8H304l-3.1-5.3
		L298.3,179.4L298.3,179.4z M298.3,178.2h2c1.1,0,1.8-0.2,2.3-0.6s0.7-1,0.7-1.9c0-0.8-0.3-1.5-0.8-1.8s-1.3-0.6-2.4-0.6h-1.9
		L298.3,178.2L298.3,178.2z"/>
	<path d="M313.6,184.8l-0.3-1.4h-0.1c-0.5,0.6-1,1-1.4,1.2s-1.1,0.3-1.8,0.3c-1,0-1.7-0.2-2.2-0.7s-0.8-1.2-0.8-2.1
		c0-1.9,1.6-3,4.7-3.1l1.6-0.1v-0.6c0-0.8-0.2-1.3-0.5-1.7s-0.8-0.5-1.6-0.5c-0.8,0-1.7,0.2-2.7,0.7l-0.4-1.1c0.5-0.3,1-0.5,1.6-0.6
		s1.1-0.2,1.7-0.2c1.1,0,2,0.3,2.6,0.8s0.8,1.3,0.8,2.5v6.6L313.6,184.8L313.6,184.8z M310.4,183.8c0.9,0,1.6-0.2,2.1-0.7
		s0.8-1.2,0.8-2.1v-0.9l-1.5,0.1c-1.2,0-2,0.2-2.5,0.5s-0.8,0.8-0.8,1.5c0,0.5,0.2,0.9,0.5,1.2S309.8,183.8,310.4,183.8z"/>
	<path d="M317.6,172.5c0-0.3,0.1-0.6,0.2-0.7s0.4-0.2,0.6-0.2s0.4,0.1,0.6,0.2s0.3,0.4,0.3,0.7s-0.1,0.6-0.3,0.7s-0.4,0.2-0.6,0.2
		s-0.5-0.1-0.6-0.2S317.6,172.9,317.6,172.5z M319.2,184.8h-1.5v-9.6h1.5V184.8z"/>
	<path d="M328.9,184.8v-6.2c0-0.8-0.2-1.4-0.5-1.8s-0.9-0.6-1.7-0.6c-1,0-1.7,0.3-2.2,0.8s-0.7,1.4-0.7,2.7v5.1h-1.5v-9.6h1.2
		l0.2,1.3h0.1c0.3-0.5,0.7-0.8,1.3-1.1s1.1-0.4,1.8-0.4c1.2,0,2,0.3,2.6,0.8s0.9,1.5,0.9,2.7v6.3H328.9z"/>
	<path d="M337.2,185c-1.4,0-2.5-0.4-3.2-1.3c-0.8-0.9-1.1-2.1-1.1-3.6c0-1.6,0.4-2.9,1.2-3.7c0.8-0.9,1.9-1.3,3.3-1.3
		c0.5,0,0.9,0,1.4,0.1s0.8,0.2,1.1,0.4l-0.4,1.2c-0.3-0.1-0.7-0.2-1.1-0.3s-0.7-0.1-1-0.1c-2,0-2.9,1.2-2.9,3.7
		c0,1.2,0.2,2.1,0.7,2.7s1.2,0.9,2.1,0.9c0.8,0,1.6-0.2,2.5-0.5v1.3C339,184.8,338.2,185,337.2,185z"/>
	<path d="M350.2,180c0,1.6-0.4,2.8-1.2,3.7s-1.9,1.3-3.3,1.3c-0.9,0-1.6-0.2-2.3-0.6s-1.2-1-1.5-1.7s-0.5-1.6-0.5-2.7
		c0-1.6,0.4-2.8,1.2-3.7s1.9-1.3,3.3-1.3c1.3,0,2.4,0.4,3.2,1.3S350.2,178.4,350.2,180z M342.9,180c0,1.2,0.2,2.2,0.7,2.8
		s1.2,1,2.2,1s1.7-0.3,2.2-1c0.5-0.6,0.7-1.6,0.7-2.8s-0.2-2.2-0.7-2.8s-1.2-1-2.2-1s-1.7,0.3-2.2,0.9S342.9,178.7,342.9,180z"/>
	<path d="M358.7,184.8l-0.3-1.4h-0.1c-0.5,0.6-1,1-1.4,1.2c-0.5,0.2-1.1,0.3-1.8,0.3c-1,0-1.7-0.2-2.2-0.7s-0.8-1.2-0.8-2.1
		c0-1.9,1.6-3,4.7-3.1l1.6-0.1v-0.6c0-0.8-0.2-1.3-0.5-1.7s-0.8-0.5-1.6-0.5c-0.8,0-1.7,0.2-2.7,0.7l-0.4-1.1c0.5-0.3,1-0.5,1.6-0.6
		s1.1-0.2,1.7-0.2c1.1,0,2,0.3,2.6,0.8s0.8,1.3,0.8,2.5v6.6L358.7,184.8L358.7,184.8z M355.4,183.8c0.9,0,1.6-0.2,2.1-0.7
		s0.8-1.2,0.8-2.1v-0.9l-1.5,0.1c-1.2,0-2,0.2-2.5,0.5s-0.8,0.8-0.8,1.5c0,0.5,0.2,0.9,0.5,1.2S354.8,183.8,355.4,183.8z"/>
	<path d="M365.9,183.8c0.3,0,0.5,0,0.7-0.1s0.4-0.1,0.6-0.1v1.1c-0.2,0.1-0.4,0.1-0.7,0.2c-0.3,0-0.6,0.1-0.8,0.1
		c-1.9,0-2.8-1-2.8-2.9v-5.8h-1.4v-0.7l1.4-0.6l0.6-2.1h0.8v2.2h2.8v1.1h-2.8v5.7c0,0.6,0.1,1,0.4,1.3S365.4,183.8,365.9,183.8z"/>
	<path d="M370.4,171.9l-0.4,4.6h-0.9l-0.4-4.6H370.4z M373.6,171.9l-0.4,4.6h-0.9l-0.4-4.6H373.6z"/>
</g>
<g>
	<path d="M28.6,150.3h-1.4v-9.2c0-0.8,0-1.5,0.1-2.2c-0.1,0.1-0.3,0.3-0.4,0.4s-0.8,0.7-2.1,1.7l-0.8-1l3.4-2.6h1.2
		C28.6,137.4,28.6,150.3,28.6,150.3z"/>
</g>
<g>
	<path d="M32.8,66.7V75c0,1.5-0.4,2.6-1.3,3.5c-0.9,0.9-2.1,1.3-3.6,1.3s-2.7-0.4-3.6-1.3S23,76.5,23,75v-8.3h1.5v8.4
		c0,1.1,0.3,1.9,0.9,2.5c0.6,0.6,1.4,0.9,2.6,0.9c1.1,0,1.9-0.3,2.5-0.9s0.9-1.4,0.9-2.5v-8.4H32.8z"/>
</g>
<g>
	<path d="M31.7,184.8h-8.4v-1.3l3.4-3.4c1-1,1.7-1.8,2-2.2s0.6-0.9,0.7-1.3s0.2-0.9,0.2-1.4c0-0.7-0.2-1.2-0.6-1.6s-1-0.6-1.7-0.6
		c-0.5,0-1,0.1-1.5,0.3s-1,0.5-1.6,1l-0.8-1c1.2-1,2.5-1.5,3.9-1.5c1.2,0,2.2,0.3,2.8,0.9s1,1.4,1,2.5c0,0.8-0.2,1.6-0.7,2.4
		s-1.3,1.8-2.6,3l-2.8,2.8v0.1h6.6L31.7,184.8L31.7,184.8z"/>
</g>
<g>
	<path d="M320.6,114.4h-1.5v-6h-6.8v6h-1.5v-12.8h1.5v5.5h6.8v-5.5h1.5V114.4z"/>
	<path d="M332.2,109.6c0,1.6-0.4,2.8-1.2,3.7s-1.9,1.3-3.3,1.3c-0.9,0-1.6-0.2-2.3-0.6s-1.2-1-1.5-1.7s-0.5-1.6-0.5-2.7
		c0-1.6,0.4-2.8,1.2-3.7s1.9-1.3,3.3-1.3c1.3,0,2.4,0.4,3.2,1.3S332.2,108,332.2,109.6z M324.9,109.6c0,1.2,0.2,2.2,0.7,2.8
		s1.2,1,2.2,1s1.7-0.3,2.2-1s0.7-1.6,0.7-2.8c0-1.2-0.2-2.2-0.7-2.8s-1.2-1-2.2-1s-1.7,0.3-2.2,0.9S324.9,108.3,324.9,109.6z"/>
	<path d="M342.6,114.4l-1.8-5.7c-0.1-0.3-0.3-1.1-0.6-2.4h-0.1c-0.2,1-0.4,1.8-0.6,2.4l-1.8,5.6H336l-2.6-9.6h1.5
		c0.6,2.4,1.1,4.3,1.4,5.5s0.5,2.1,0.6,2.6h0.1c0.1-0.3,0.2-0.8,0.3-1.3s0.3-1,0.4-1.3l1.8-5.5h1.6l1.7,5.5c0.3,1,0.6,1.9,0.7,2.5
		h0.1c0-0.2,0.1-0.5,0.2-1s0.7-2.8,1.8-7.1h1.5l-2.7,9.6h-1.8V114.4z"/>
	<path d="M356.5,113.4c0.3,0,0.5,0,0.7-0.1s0.4-0.1,0.6-0.1v1.1c-0.2,0.1-0.4,0.1-0.7,0.2c-0.3,0-0.6,0.1-0.8,0.1
		c-1.9,0-2.8-1-2.8-2.9V106h-1.4v-0.7l1.4-0.6l0.6-2.1h0.8v2.2h2.8v1.1H355v5.7c0,0.6,0.1,1,0.4,1.3S356.1,113.4,356.5,113.4z"/>
	<path d="M368.1,109.6c0,1.6-0.4,2.8-1.2,3.7s-1.9,1.3-3.3,1.3c-0.9,0-1.6-0.2-2.3-0.6s-1.2-1-1.5-1.7s-0.5-1.6-0.5-2.7
		c0-1.6,0.4-2.8,1.2-3.7s1.9-1.3,3.3-1.3c1.3,0,2.4,0.4,3.2,1.3S368.1,108,368.1,109.6z M360.8,109.6c0,1.2,0.2,2.2,0.7,2.8
		s1.2,1,2.2,1s1.7-0.3,2.2-1c0.5-0.6,0.7-1.6,0.7-2.8c0-1.2-0.2-2.2-0.7-2.8c-0.5-0.6-1.2-1-2.2-1s-1.7,0.3-2.2,0.9
		S360.8,108.3,360.8,109.6z"/>
	<path d="M381.9,113.1L381.9,113.1c-0.8,1-1.8,1.5-3.1,1.5c-1.3,0-2.2-0.4-2.9-1.3s-1-2.1-1-3.7s0.4-2.8,1.1-3.7s1.7-1.3,2.9-1.3
		c1.3,0,2.3,0.5,3,1.4h0.1l-0.1-0.7v-0.7v-3.9h1.5v13.7h-1.2L381.9,113.1z M379,113.4c1,0,1.7-0.3,2.2-0.8c0.4-0.5,0.7-1.4,0.7-2.6
		v-0.3c0-1.4-0.2-2.3-0.7-2.9s-1.2-0.9-2.2-0.9c-0.9,0-1.5,0.3-2,1s-0.7,1.6-0.7,2.8c0,1.2,0.2,2.2,0.7,2.8S378.1,113.4,379,113.4z"
		/>
	<path d="M390.8,104.6c0.4,0,0.8,0,1.2,0.1l-0.2,1.4c-0.4-0.1-0.8-0.1-1.1-0.1c-0.8,0-1.4,0.3-2,0.9s-0.8,1.4-0.8,2.4v5.2h-1.5v-9.6
		h1.2l0.2,1.8h0.1c0.4-0.6,0.8-1.1,1.3-1.5S390.2,104.6,390.8,104.6z"/>
	<path d="M397.8,114.6c-1.4,0-2.5-0.4-3.4-1.3c-0.8-0.9-1.2-2.1-1.2-3.6c0-1.6,0.4-2.8,1.1-3.7c0.8-0.9,1.8-1.4,3.1-1.4
		c1.2,0,2.2,0.4,2.9,1.2s1.1,1.8,1.1,3.1v0.9h-6.6c0,1.1,0.3,2,0.9,2.6s1.3,0.9,2.3,0.9s2.1-0.2,3.1-0.7v1.3c-0.5,0.2-1,0.4-1.5,0.5
		S398.4,114.6,397.8,114.6z M397.4,105.8c-0.8,0-1.4,0.3-1.8,0.8c-0.5,0.5-0.7,1.2-0.8,2.1h5c0-0.9-0.2-1.6-0.6-2.1
		S398.2,105.8,397.4,105.8z"/>
	<path d="M410,111.8c0,0.9-0.3,1.6-1,2.1s-1.6,0.7-2.8,0.7c-1.3,0-2.3-0.2-3-0.6v-1.4c0.5,0.2,1,0.4,1.5,0.6s1,0.2,1.5,0.2
		c0.8,0,1.3-0.1,1.8-0.4s0.6-0.6,0.6-1.1c0-0.4-0.2-0.7-0.5-1s-1-0.6-1.9-0.9s-1.5-0.6-1.9-0.9c-0.4-0.2-0.7-0.5-0.8-0.8
		c-0.2-0.3-0.3-0.7-0.3-1.1c0-0.8,0.3-1.4,1-1.9s1.5-0.7,2.6-0.7c1,0,2.1,0.2,3,0.6l-0.5,1.2c-1-0.4-1.8-0.6-2.6-0.6
		c-0.7,0-1.2,0.1-1.6,0.3s-0.5,0.5-0.5,0.9c0,0.3,0.1,0.5,0.2,0.7s0.3,0.4,0.6,0.5s0.9,0.4,1.7,0.7c1.1,0.4,1.9,0.8,2.3,1.3
		S410,111.1,410,111.8z"/>
	<path d="M418.6,111.8c0,0.9-0.3,1.6-1,2.1s-1.6,0.7-2.8,0.7c-1.3,0-2.3-0.2-3-0.6v-1.4c0.5,0.2,1,0.4,1.5,0.6s1,0.2,1.5,0.2
		c0.8,0,1.3-0.1,1.8-0.4s0.6-0.6,0.6-1.1c0-0.4-0.2-0.7-0.5-1s-1-0.6-1.9-0.9s-1.5-0.6-1.9-0.9c-0.4-0.2-0.7-0.5-0.8-0.8
		c-0.2-0.3-0.3-0.7-0.3-1.1c0-0.8,0.3-1.4,1-1.9s1.5-0.7,2.6-0.7c1,0,2.1,0.2,3,0.6l-0.5,1.2c-1-0.4-1.8-0.6-2.6-0.6
		c-0.7,0-1.2,0.1-1.6,0.3s-0.5,0.5-0.5,0.9c0,0.3,0.1,0.5,0.2,0.7s0.3,0.4,0.6,0.5s0.9,0.4,1.7,0.7c1.1,0.4,1.9,0.8,2.3,1.3
		S418.6,111.1,418.6,111.8z"/>
</g>
<g>
	<path d="M341.2,72.1c0,2.1-0.5,3.7-1.6,4.9s-2.5,1.7-4.4,1.7s-3.4-0.6-4.5-1.7s-1.6-2.8-1.6-4.9s0.5-3.8,1.6-4.9s2.5-1.7,4.5-1.7
		c1.9,0,3.4,0.6,4.4,1.7S341.2,70,341.2,72.1z M331.4,72.1c0,1.6,0.3,2.8,1,3.6s1.6,1.2,2.8,1.2c1.2,0,2.2-0.4,2.8-1.2s1-2,1-3.6
		s-0.3-2.8-0.9-3.6s-1.6-1.2-2.8-1.2c-1.3,0-2.2,0.4-2.9,1.2S331.4,70.5,331.4,72.1z"/>
	<path d="M350.6,78.5l-0.3-1.3h-0.1c-0.3,0.5-0.7,0.8-1.2,1.1s-1.1,0.4-1.8,0.4c-1.2,0-2.1-0.3-2.6-0.9s-0.9-1.5-0.9-2.7v-6.4h2.1v6
		c0,0.7,0.2,1.3,0.5,1.7s0.8,0.6,1.4,0.6c0.9,0,1.5-0.3,1.9-0.8s0.6-1.4,0.6-2.6v-4.8h2.1v9.7L350.6,78.5L350.6,78.5z"/>
	<path d="M358.7,77c0.5,0,1-0.1,1.5-0.2v1.5c-0.2,0.1-0.5,0.2-0.9,0.3s-0.7,0.1-1.1,0.1c-2,0-2.9-1-2.9-3.1v-5.2H354v-0.9l1.4-0.8
		l0.7-2.1h1.3v2.2h2.8v1.6h-2.8v5.2c0,0.5,0.1,0.9,0.4,1.1S358.3,77,358.7,77z"/>
	<path d="M367.1,78.7c-1.2,0-2.2-0.4-2.9-1.3h-0.1c0.1,0.8,0.1,1.3,0.1,1.5v4h-2.1v-14h1.7c0,0.2,0.1,0.6,0.3,1.3h0.1
		c0.6-1,1.6-1.5,2.9-1.5c1.2,0,2.2,0.4,2.8,1.3c0.7,0.9,1,2.1,1,3.7s-0.3,2.8-1,3.7C369.3,78.2,368.3,78.7,367.1,78.7z M366.6,70.3
		c-0.8,0-1.4,0.2-1.8,0.7s-0.6,1.2-0.6,2.3v0.3c0,1.2,0.2,2,0.6,2.6s1,0.8,1.8,0.8c0.7,0,1.3-0.3,1.7-0.9s0.6-1.4,0.6-2.5
		s-0.2-1.9-0.6-2.5S367.4,70.3,366.6,70.3z"/>
	<path d="M380.3,78.5l-0.3-1.3h-0.1c-0.3,0.5-0.7,0.8-1.2,1.1c-0.5,0.3-1.1,0.4-1.8,0.4c-1.2,0-2.1-0.3-2.6-0.9s-0.9-1.5-0.9-2.7
		v-6.4h2.1v6c0,0.7,0.2,1.3,0.5,1.7s0.8,0.6,1.4,0.6c0.9,0,1.5-0.3,1.9-0.8s0.6-1.4,0.6-2.6v-4.8h2.1v9.7L380.3,78.5L380.3,78.5z"/>
	<path d="M388.5,77c0.5,0,1-0.1,1.5-0.2v1.5c-0.2,0.1-0.5,0.2-0.9,0.3c-0.4,0.1-0.7,0.1-1.1,0.1c-2,0-2.9-1-2.9-3.1v-5.2h-1.3v-0.9
		l1.4-0.8l0.7-2.1h1.3v2.2h2.8v1.6h-2.8v5.2c0,0.5,0.1,0.9,0.4,1.1S388.1,77,388.5,77z"/>
</g>
<path class="st1" d="M454.3,53.2h-1.5v0H223.6h-0.4h-19.6v-53H0.1v53v1.5v33.7v1.5v33.7v1.5v33.7v1.5v33.7v0v1.5v0l0,0h453.5v-0.1
	h0.8V53.2z M1.6,147.4v-20.8h52.7v32.1H1.6V147.4z M1.6,123.6h52.5v1.5h0.2v0H1.6V125V123.6z M274.7,89.9v33.7h-1.5V89.9H274.7z
	 M273.2,88.4V54.7h1.5v33.7H273.2z M274.7,125.1v33.6h-1.5v-33.6H274.7z M271.7,123.6h-48.1h-0.4H55.7V89.9h167.5h0.4h48.1V123.6z
	 M55.7,125.1h167.5h0.4h48.1v33.6h-48.1v0H55.7V125.1z M223.2,160.2L223.2,160.2l48.5,0v33.7h-216v-33.8H223.2z M273.2,160.2h1.5
	v33.7h-1.5V160.2z M276.2,160.2h176.6v33.7H276.2V160.2z M276.2,158.7v-33.6h176.6v33.6H276.2z M276.2,123.6V89.9h176.6v33.7H276.2z
	 M276.2,88.4V54.7h176.6v33.7H276.2z M223.2,54.7h0.4h48.1v33.7h-48.1h-0.4H55.7V54.7H223.2z M1.6,1.7h200.5v51.5H1.6V1.7z
	 M1.6,88.4V71.6V54.7h52.7v67.4H1.6V89.9V88.4z M1.6,193.9v-33.7h52.7v33.8L1.6,193.9L1.6,193.9z"/>
</svg>
