<?xml version="1.0" encoding="UTF-8"?>
<svg width="127px" height="127px" viewBox="0 0 127 127" version="1.1" xmlns="http://www.w3.org/2000/svg" xmlns:xlink="http://www.w3.org/1999/xlink">
    <!-- Generator: Sketch 47.1 (45422) - http://www.bohemiancoding.com/sketch -->
    <title>SVGID_1_-link</title>
    <desc>Created with Sketch.</desc>
    <defs></defs>
    <g id="Review-3" stroke="none" stroke-width="1" fill="none" fill-rule="evenodd">
        <g id="-Home-1" transform="translate(-1538.000000, -683.000000)">
            <g id="enjoy-more" transform="translate(1538.000000, 683.000000)">
                <g id="Group">
                    <g id="SVGID_1_-link">
                        <circle id="SVGID_1_" stroke="#999999" cx="63.4" cy="63.3" r="62.7"></circle>
                        <path d="M93.4771839,54.9829255 C85.7144139,59.1418678 77.9882855,63.4367147 70.4401302,68.0033706 C67.7561381,65.3195861 65.5314737,63.1833781 64.9582955,60.6434149 C64.9897025,60.4916769 64.8588399,58.9241567 64.8666917,58.7024872 C64.8967901,57.9055325 64.9360489,57.1085778 65.0198009,56.3142621 C65.2618968,54.077775 65.6623363,51.855802 66.0235171,49.6338291 C66.6097816,46.0119075 65.0813064,42.4084585 61.3006856,41.3871954 C59.9567266,41.0243435 58.4269427,41.1615675 57.0515767,41.6959493 C56.5490643,41.4188624 55.9719602,41.2262211 55.3137212,41.1523312 C49.7559862,40.5308649 44.3003241,39.2971685 39.0671283,37.3021429 C33.8417844,35.3110756 31.606651,43.7384756 36.7691809,45.707112 C41.8728227,47.6533175 47.1557462,48.7880543 52.5328908,49.5216748 C52.51457,49.6245928 52.4975579,49.7275108 52.4779285,49.8304288 C46.1978319,51.0456527 40.0394375,52.762272 33.9765728,54.8681324 C28.7381426,56.6863502 30.9889795,65.1097917 36.2745203,63.2731015 C41.2603857,61.5406487 46.3077565,60.0720881 51.4349535,58.9281151 C51.429719,60.8307784 51.6207784,62.7057331 52.1272167,64.5081173 C53.3311527,68.7805333 55.9627998,72.2216886 58.9189861,75.3857571 C57.1156994,76.6207729 55.3019436,77.8333579 53.396584,78.8796908 C50.0124769,80.7388119 46.2462511,83.212802 44.9441681,87.0972964 C42.5271357,94.3094723 49.987613,97.1674257 53.7760856,101.570468 C57.4336955,105.824412 63.5227327,99.6321796 59.888678,95.4059448 C58.0709964,93.2934871 55.6003103,91.9938176 53.6740127,90.0185839 C52.7475055,89.0646133 52.8692077,89.9262216 53.8820843,88.9986402 C55.35298,87.6488312 57.0594284,86.8571544 58.7645682,85.8543637 C64.1181576,82.7087678 69.1419731,78.957539 74.4811676,75.7578452 C82.1614941,71.1608417 89.9491279,66.7380071 97.837526,62.5078139 C102.763195,59.8688911 98.397618,52.3453222 93.4771839,54.9829255 Z" id="Shape" fill="#00A2FF" fill-rule="nonzero"></path>
                        <circle id="Oval" fill="#00A2FF" fill-rule="nonzero" cx="70" cy="36" r="7"></circle>
                    </g>
                </g>
            </g>
        </g>
    </g>
</svg>