<?xml version="1.0" encoding="utf-8"?>
<!-- Generator: Adobe Illustrator 22.0.1, SVG Export Plug-In . SVG Version: 6.00 Build 0)  -->
<svg version="1.1" id="Ebene_1" xmlns="http://www.w3.org/2000/svg" xmlns:xlink="http://www.w3.org/1999/xlink" x="0px" y="0px"
	 viewBox="0 0 129.3 130" style="enable-background:new 0 0 129.3 130;" xml:space="preserve">
<style type="text/css">
	.st0{clip-path:url(#SVGID_2_);fill:none;stroke:#999999;stroke-miterlimit:10;}
	.st1{fill:none;}
	.st2{fill:#00A8FF;}
</style>
<g>
	<g>
		<defs>
			<circle id="SVGID_1_" cx="64.7" cy="64.8" r="62.7"/>
		</defs>
		<clipPath id="SVGID_2_">
			<use xlink:href="#SVGID_1_"  style="overflow:visible;"/>
		</clipPath>
		<circle class="st0" cx="64.7" cy="64.8" r="62.7"/>
		<circle class="st0" cx="64.7" cy="64.8" r="62"/>
		<use xlink:href="#SVGID_1_"  style="overflow:visible;fill:none;stroke:#999999;stroke-miterlimit:10;"/>
	</g>
</g>
<path class="st1" d="M183.7-240.8c2.6,0,4.8-2.2,4.8-4.8c0-2.6-2.2-4.8-4.8-4.8c-2.6,0-4.8,2.2-4.8,4.8
	C178.9-243,181-240.8,183.7-240.8z"/>
<g>
	<path class="st2" d="M103.1,40.4c-0.3-0.8-1.2-1.1-1.9-0.8c-9.8,3.9-19,5.6-27.6,5c-1.8-0.1-3.5-0.3-5.3-0.6
		c-5.4-0.9-10.6-2.8-15.4-5.7c-10.3-6-15.2-14.4-15.3-14.5c-0.4-0.7-1.3-1-2.1-0.5c-0.7,0.4-1,1.3-0.5,2
		c0.1,0.3,10.6,17.7,32.9,21.5c0,0.1,0.1,0.2,0.1,0.2c0.1,0.2,9.4,18.1-8.6,34.5C43,72.4,23.9,62.2,20.4,60.3
		c-0.7-0.4-1.6-0.1-2,0.6c-0.4,0.7-0.1,1.6,0.6,2c11.8,6.3,26.7,14.4,39,21.4c1.5,0.9,3.1,1.7,4.5,2.6c10.1,5.8,17.7,10.5,19,12
		c1.7,2.1,2.2,4,1.7,5.7c-0.7,2.3-3.9,5.6-14.6,8.6c-0.8,0.2-1.3,1-1,1.8c0.2,0.7,0.8,1.1,1.4,1.1c0.1,0,0.3,0,0.4-0.1
		c9.8-2.7,15.2-6.2,16.6-10.5c0.9-2.7,0.1-5.6-2.2-8.5c-1.5-1.8-9.3-6.7-19-12.3c15-14.7,12.1-30.5,9.8-37.2c0.7,0,1.4,0.1,2.1,0.1
		c7.4,0,15.9-1.5,25.4-5.3C103,42,103.4,41.2,103.1,40.4z"/>
	<path class="st2" d="M68.3,36.8c4.3,0,7.8-3.5,7.8-7.8c0-4.3-3.5-7.8-7.8-7.8c-4.3,0-7.8,3.5-7.8,7.8C60.5,33.3,64,36.8,68.3,36.8z
		 M68.3,24.2c2.6,0,4.8,2.2,4.8,4.8c0,2.6-2.2,4.8-4.8,4.8c-2.6,0-4.8-2.2-4.8-4.8C63.5,26.3,65.6,24.2,68.3,24.2z"/>
</g>
</svg>
