<?xml version="1.0" encoding="UTF-8"?>
<svg width="73px" height="48px" viewBox="0 0 73 48" version="1.1" xmlns="http://www.w3.org/2000/svg" xmlns:xlink="http://www.w3.org/1999/xlink">
    <!-- Generator: Sketch 47.1 (45422) - http://www.bohemiancoding.com/sketch -->
    <title>ICON-megaphone</title>
    <desc>Created with Sketch.</desc>
    <defs></defs>
    <g id="Review-3" stroke="none" stroke-width="1" fill="none" fill-rule="evenodd">
        <g id="headsup" transform="translate(-285.000000, -508.000000)" fill-rule="nonzero">
            <g id="ICON-megaphone" transform="translate(285.000000, 508.000000)">
                <path d="M6.00154245,27 L15,27 L15,45.0014937 C15,46.6575029 13.6561869,48 12.000457,48 L8.99954298,48 C7.34381308,48 6,46.6575029 6,45.0014937 L6,27 L6.00154245,27 Z" id="Shape" fill="#DAE1E1"></path>
                <polygon id="Shape" fill="#B8C5C5" points="6 27 6 36 15 27"></polygon>
                <path d="M15,27 L21,27 L21,30 C21,31.6575249 19.6559438,33 17.9999143,33 L15,33 L15,27 Z" id="Shape" fill="#676767"></path>
                <path d="M3.00004897,9 L21,9 L21,27 L3.00004897,27 C1.34403977,27 0,25.6574993 0,24.0001143 L0,12.0000571 C0,10.3440434 1.34403977,9 3.00004897,9 Z" id="Shape" fill="#E2574C"></path>
                <path d="M46.2450814,0 C37.4026093,8.84247215 30,9 30,9 L21,9 L21,27 L30,27 C30,27 37.3859823,27.1410723 46.2450814,36 L48,36 L48,0 L46.2450814,0 Z" id="Shape" fill="#DAE1E1"></path>
                <path d="M45.6600194,0 C45.1021085,0.418415301 44.5499114,0.801005614 44,1.18205322 L44,34.8179468 C44.5499114,35.1989944 45.1000514,35.5814133 45.6600194,36 L48,36 L48,0 L45.6600194,0 Z" id="Shape" fill="#B8C5C5"></path>
                <path d="M44.7671191,34.1902018 C36.5541938,26.152279 29.9126272,26 29.9126272,26 L21,26 L21,27.5714542 L29.9126272,27.5714542 C29.9126272,27.5714542 37.2269058,27.7192438 46,37 C45.584117,36.5616593 45.1755332,36.1608495 44.7671191,35.761656 L44.7671191,34.1902018 Z" id="Shape" fill="#B8C5C5"></path>
                <path d="M44,33 L44,34.6778296 C44.5499114,35.1040455 45.1000514,35.5317952 45.6600194,36 L48,36 L48,34.3221704 L45.6600194,34.3221704 C45.1000514,33.8539656 44.5499114,33.4262159 44,33 Z" id="Shape" fill="#BCC0C1"></path>
                <path d="M2.625,23.4900858 L2.625,10.4113344 C2.625,9.94180386 3.00004897,9.05836016 4.375,9.05836016 C3.61924938,9.05836016 2.71608671,8.9270498 2.1875,9.05836016 C0.268118505,9.53516871 0,10.9559754 0,11.9749801 L0,24.7949594 C0,26.5657709 1.34403977,28 3.00004897,28 L21,28 L21,25.2940515 L4.375,25.2940515 C3.5,25.2940515 2.625,24.3920686 2.625,23.4900858 Z" id="Shape" fill="#B5202A"></path>
                <path d="M65.1423267,10.7142857 C60.5953618,10.7142857 56.3018416,12.7222989 53.3608706,16.2238473 C52.8139348,16.8750635 52.8980491,17.8467326 53.5497009,18.3941821 C53.8380141,18.6365617 54.1889586,18.7557667 54.5389115,18.7557667 C54.9781017,18.7557667 55.4142622,18.5687991 55.7179991,18.206222 C58.0709963,15.4031969 61.5066277,13.7956946 65.1423818,13.7956946 C68.7781359,13.7956946 72.2137122,15.4031969 74.567756,18.206222 C74.8725395,18.5698467 75.3086449,18.7557667 75.7467884,18.7557667 C76.0967414,18.7557667 76.4476859,18.6376093 76.7360542,18.3941821 C77.3876509,17.8467326 77.4717652,16.874071 76.9248845,16.2238473 C73.9828118,12.722354 69.6892915,10.7142857 65.1423267,10.7142857 Z M65.1423267,19.8771036 C62.4127156,19.8771036 59.8359645,21.0819445 58.0730344,23.1824215 C57.5260435,23.8336377 57.6102129,24.8053067 58.2618647,25.3527562 C58.5501779,25.5951359 58.9011224,25.7142857 59.2510753,25.7142857 C59.6902655,25.7142857 60.126426,25.5273733 60.4301629,25.1647962 C61.6072123,23.7627322 63.324973,22.9584573 65.1423267,22.9584573 C66.9596804,22.9584573 68.6774961,23.7627322 69.8544905,25.1647962 C70.159274,25.5284209 70.5953794,25.7142857 71.033578,25.7142857 C71.383531,25.7142857 71.7344755,25.5961835 72.0227887,25.3527562 C72.6744405,24.8052516 72.7585548,23.8335825 72.211619,23.1824215 C70.4486338,21.0819445 67.8718827,19.8771036 65.1423267,19.8771036 Z" id="Shape" fill="#DAE1E1" transform="translate(65.142857, 18.214286) rotate(-270.000000) translate(-65.142857, -18.214286) "></path>
            </g>
        </g>
    </g>
</svg>