<?xml version="1.0" encoding="utf-8"?>
<!-- Generator: Adobe Illustrator 24.0.2, SVG Export Plug-In . SVG Version: 6.00 Build 0)  -->
<svg version="1.1" id="Capa_1" xmlns="http://www.w3.org/2000/svg" xmlns:xlink="http://www.w3.org/1999/xlink" x="0px" y="0px"
	 viewBox="0 0 959.6 959.6" style="enable-background:new 0 0 959.6 959.6;" xml:space="preserve">
<style type="text/css">
	.st0{fill:#FFFFFF;}
</style>
<g>
	<g>
		<path class="st0" d="M424.4,321.8v5.8c15-12.6,34.3-20.2,55.4-20.2c21.1,0,40.4,7.6,55.4,20.2v-5.8c0-10.4-2.9-20.2-7.9-28.5
			c0-0.1-0.1-0.1-0.1-0.2l0,0c0,0-0.1-0.1-0.2-0.2c-2.1-3.5-4.6-6.7-7.4-9.6c-5.4-8.3-12.8-22.3-19.4-44.3
			c-5.5-18.6-8.6-37.9-9.4-57.3l-7.1-174c-0.6-10.4-7.4-10.4-7.9,0l-7.1,174c-0.8,19.4-3.8,38.7-9.4,57.3c-6.5,22-14,36.1-19.4,44.3
			c-2.8,2.9-5.3,6.1-7.4,9.6c-0.1,0.1-0.2,0.2-0.2,0.2l0,0c0,0.1-0.1,0.1-0.1,0.2C427.3,301.7,424.4,311.4,424.4,321.8z"/>
		<path class="st0" d="M408.5,393.8v12.4c4.7-5.3,10.1-10.2,15.9-14.3c15.6-11.2,34.8-17.8,55.4-17.8s39.8,6.6,55.4,17.8
			c5.8,4.2,11.2,9,15.9,14.3v-12.4c0-17-6-32.6-15.9-44.9c-13.1-16.1-33-26.4-55.4-26.4c-22.4,0-42.3,10.3-55.4,26.4
			C414.5,361.1,408.5,376.7,408.5,393.8z"/>
		<path class="st0" d="M401,453.6c-1,5.1-1.6,10.4-1.6,15.7V513v31.3h18.8V513v-6.8c0-0.2,0-0.5,0-0.7c0-2.5,0.2-5,0.5-7.5
			c4-30.1,29.8-53.3,61-53.3s57,23.3,61,53.3c0.3,2.5,0.5,5,0.5,7.5c0,0.3,0,0.5,0,0.7v6.8v31.3h18.8V513v-43.6
			c0-5.4-0.5-10.7-1.6-15.7c-1.5-7.5-4.1-14.7-7.5-21.3c-6.2-11.9-15.2-22-26.2-29.5c-12.9-8.7-28.4-13.8-45.1-13.8
			s-32.2,5.1-45.1,13.8c-11,7.5-20.1,17.6-26.2,29.5C405.1,438.9,402.5,446.1,401,453.6z"/>
		<path class="st0" d="M392.7,563.7v2.9V830h-3.1c-1.6,0-3.2,0.5-4.4,1.5c-1.8,1.4-3,3.5-3,6v23.9h-4.5h-6.6c-4.1,0-7.5,3.3-7.5,7.5
			v83.4c0,4.1,3.3,7.5,7.5,7.5h217.4c4.1,0,7.5-3.3,7.5-7.5v-83.4c0-4.1-3.3-7.5-7.5-7.5h-6.6h-4.5v-23.9c0-2.5-1.2-4.6-3-6
			c-1.2-0.9-2.8-1.5-4.4-1.5h-3.1V566.6v-2.8c0-2.4-1.9-4.4-4.3-4.4h-36.2v-0.2v-7.5V513v-6.8c0-0.2,0-0.5,0-0.7
			c0-2.6-0.3-5.1-0.7-7.5c-3.9-21.8-22.9-38.3-45.8-38.3S437.9,476.2,434,498c-0.4,2.4-0.7,4.9-0.7,7.5c0,0.2,0,0.5,0,0.7v6.8v38.6
			v7.5v0.2H397C394.6,559.3,392.7,561.3,392.7,563.7z M518.9,589.1c0-2.1,1.7-3.7,3.7-3.7h15.7c2.1,0,3.7,1.7,3.7,3.7V605
			c0,2.1-1.7,3.7-3.7,3.7h-15.7c-2.1,0-3.7-1.7-3.7-3.7V589.1z M518.9,640.5c0-2.1,1.7-3.7,3.7-3.7h15.7c2.1,0,3.7,1.7,3.7,3.7v15.9
			c0,2.1-1.7,3.7-3.7,3.7h-15.7c-2.1,0-3.7-1.7-3.7-3.7V640.5z M518.9,691.2c0-2.1,1.7-3.7,3.7-3.7h15.7c2.1,0,3.7,1.7,3.7,3.7V707
			c0,2.1-1.7,3.7-3.7,3.7h-15.7c-2.1,0-3.7-1.7-3.7-3.7V691.2z M518.9,741.8c0-2.1,1.7-3.7,3.7-3.7h15.7c2.1,0,3.7,1.7,3.7,3.7v15.9
			c0,2.1-1.7,3.7-3.7,3.7h-15.7c-2.1,0-3.7-1.7-3.7-3.7V741.8z M518.9,792.5c0-2.1,1.7-3.7,3.7-3.7h15.7c2.1,0,3.7,1.7,3.7,3.7v15.8
			c0,2.1-1.7,3.7-3.7,3.7h-15.7c-2.1,0-3.7-1.7-3.7-3.7V792.5z M468.2,593.7L468.2,593.7v-27.1v-7.5v-7.5V513v-7.5v-2.1
			c0-2,0.5-3.8,1.4-5.4c2-3.5,5.8-5.9,10.2-5.9c4.4,0,8.2,2.4,10.2,5.9c0.9,1.6,1.4,3.5,1.4,5.4v2.1v7.5v38.6v7.5v7.5v27.1
			c0,0.5,0,0.9-0.1,1.4v9.9c0,2.1-1.7,3.7-3.7,3.7h-15.7c-2.1,0-3.7-1.7-3.7-3.7L468.2,593.7L468.2,593.7z M468.2,640.5
			c0-2.1,1.7-3.7,3.7-3.7h15.7c2.1,0,3.7,1.7,3.7,3.7v15.9c0,2.1-1.7,3.7-3.7,3.7h-15.7c-2.1,0-3.7-1.7-3.7-3.7V640.5z M468.2,691.2
			c0-2.1,1.7-3.7,3.7-3.7h15.7c2.1,0,3.7,1.7,3.7,3.7V707c0,2.1-1.7,3.7-3.7,3.7h-15.7c-2.1,0-3.7-1.7-3.7-3.7V691.2z M468.2,741.8
			c0-2.1,1.7-3.7,3.7-3.7h15.7c2.1,0,3.7,1.7,3.7,3.7v15.9c0,2.1-1.7,3.7-3.7,3.7h-15.7c-2.1,0-3.7-1.7-3.7-3.7V741.8z M468.2,792.5
			c0-2.1,1.7-3.7,3.7-3.7h15.7c2.1,0,3.7,1.7,3.7,3.7v15.8c0,2.1-1.7,3.7-3.7,3.7h-15.7c-2.1,0-3.7-1.7-3.7-3.7V792.5z M417.5,589.1
			c0-2.1,1.7-3.7,3.7-3.7H437c2.1,0,3.7,1.7,3.7,3.7V605c0,2.1-1.7,3.7-3.7,3.7h-15.7c-2.1,0-3.7-1.7-3.7-3.7V589.1z M417.5,640.5
			c0-2.1,1.7-3.7,3.7-3.7H437c2.1,0,3.7,1.7,3.7,3.7v15.9c0,2.1-1.7,3.7-3.7,3.7h-15.7c-2.1,0-3.7-1.7-3.7-3.7V640.5z M417.5,691.2
			c0-2.1,1.7-3.7,3.7-3.7H437c2.1,0,3.7,1.7,3.7,3.7V707c0,2.1-1.7,3.7-3.7,3.7h-15.7c-2.1,0-3.7-1.7-3.7-3.7V691.2z M417.5,741.8
			c0-2.1,1.7-3.7,3.7-3.7H437c2.1,0,3.7,1.7,3.7,3.7v15.9c0,2.1-1.7,3.7-3.7,3.7h-15.7c-2.1,0-3.7-1.7-3.7-3.7V741.8z M417.5,792.5
			c0-2.1,1.7-3.7,3.7-3.7H437c2.1,0,3.7,1.7,3.7,3.7v15.8c0,2.1-1.7,3.7-3.7,3.7h-15.7c-2.1,0-3.7-1.7-3.7-3.7V792.5z"/>
	</g>
</g>
</svg>
