<?xml version="1.0" encoding="utf-8"?>
<!-- Generator: Adobe Illustrator 22.0.1, SVG Export Plug-In . SVG Version: 6.00 Build 0)  -->
<svg version="1.1" id="Ebene_1" xmlns="http://www.w3.org/2000/svg" xmlns:xlink="http://www.w3.org/1999/xlink" x="0px" y="0px"
	 viewBox="0 0 295 166" style="enable-background:new 0 0 295 166;" xml:space="preserve">
<style type="text/css">
	.st0{fill:#B3B3B3;}
</style>
<g>
	<path class="st0" d="M285,0h-9v3h9V0L285,0L285,0z M267,0h-9v3h9V0L267,0z M249,0h-9v3h9V0L249,0z M231,0h-9v3h9V0L231,0z M213,0
		h-9v3h9V0L213,0z M195,0h-9v3h9V0L195,0z M177,0h-9v3h9V0L177,0z M159,0h-9v3h9V0L159,0z M141,0h-9v3h9V0L141,0z M123,0h-9v3h9V0
		L123,0z M105,0h-9v3h9V0L105,0z M87,0h-9v3h9V0L87,0z M69,0h-9v3h9V0L69,0z M51,0h-9v3h9V0L51,0z M33,0h-9v3h9V0L33,0z M15,0h-5
		c0,0,0,0,0,0c0,0,0,0-0.1,0c0,0-0.1,0-0.1,0c0,0,0,0,0,0c0,0-0.1,0-0.1,0c0,0,0,0,0,0c0,0,0,0,0,0c0,0,0,0,0,0c0,0,0,0,0,0
		c0,0,0,0,0,0c0,0,0,0,0,0c0,0,0,0,0,0c0,0,0,0,0,0c0,0,0,0,0,0c0,0,0,0,0,0c0,0,0,0,0,0c0,0,0,0,0,0c0,0,0,0,0,0c0,0,0,0,0,0
		c0,0,0,0,0,0c0,0,0,0,0,0c0,0,0,0,0,0c0,0,0,0,0,0c0,0,0,0,0,0c0,0,0,0,0,0c0,0,0,0,0,0c0,0,0,0,0,0c0,0,0,0,0,0c0,0,0,0,0,0
		c0,0,0,0,0,0c0,0,0,0,0,0c0,0,0,0,0,0c0,0,0,0,0,0c0,0,0,0,0,0c0,0,0,0,0,0c0,0,0,0,0,0c0,0,0,0,0,0c0,0,0,0,0,0c0,0,0,0,0,0
		c0,0,0,0,0,0c0,0,0,0,0,0c0,0,0,0,0,0c0,0,0,0,0,0c0,0,0,0,0,0c0,0,0,0,0,0c0,0,0,0,0,0c0,0,0,0,0,0c0,0,0,0,0,0c0,0,0,0,0,0
		c0,0,0,0,0,0c0,0,0,0,0,0c0,0,0,0,0,0c0,0,0,0,0,0c0,0,0,0,0,0c0,0,0,0,0,0c0,0,0,0,0,0c0,0,0,0,0,0c0,0,0,0,0,0c0,0,0,0,0,0
		c0,0,0,0,0,0c0,0,0,0,0,0c0,0,0,0,0,0c0,0,0,0,0,0c0,0,0,0,0,0c0,0,0,0,0,0c0,0,0,0,0,0c0,0,0,0,0,0c0,0,0,0,0,0c0,0,0,0,0,0
		c0,0,0,0,0,0c0,0,0,0,0,0c0,0,0,0,0,0l0,0c0,0,0,0,0,0c0,0,0,0,0,0c0,0,0,0,0,0c0,0,0,0,0,0c0,0,0,0,0,0c0,0,0,0,0,0c0,0,0,0,0,0
		c0,0,0,0,0,0c0,0,0,0,0,0l0,0c0,0,0,0,0,0c0,0,0,0,0,0c0,0,0,0,0,0l0,0c0,0,0,0,0,0l0,0c0,0,0,0,0,0c0,0,0,0,0,0c0,0,0,0,0,0
		c0,0,0,0,0,0c0,0,0,0,0,0c0,0,0,0,0,0c0,0,0,0,0,0c0,0,0,0,0,0c0,0,0,0,0,0c0,0,0,0,0,0c0,0,0,0,0,0c0,0,0,0,0,0c0,0,0,0-0.1,0l0,0
		c0,0-0.1,0-0.1,0c0,0,0,0,0,0c0,0,0,0,0,0c0,0,0,0,0,0c0,0,0,0,0,0c0,0,0,0,0,0c0,0,0,0,0,0c0,0,0,0,0,0c0,0,0,0,0,0l0,0
		c0,0-0.1,0-0.1,0c0,0,0,0,0,0c0,0,0,0,0,0c0,0,0,0,0,0c0,0,0,0,0,0c0,0,0,0,0,0c0,0,0,0,0,0c0,0,0,0,0,0c0,0,0,0,0,0c0,0,0,0,0,0
		c0,0,0,0,0,0l0,0c0,0,0,0,0,0c0,0,0,0,0,0c-0.1,0-0.1,0-0.2,0l0,0c0,0-0.1,0-0.1,0c0,0,0,0,0,0C7.5,0.3,6.8,0.5,6.1,0.8l1.2,2.8
		C8.1,3.2,9,3,10,3h5V0L15,0z M0.4,7.3C0.4,7.3,0.4,7.3,0.4,7.3C0.4,7.3,0.4,7.3,0.4,7.3C0.4,7.4,0.4,7.4,0.4,7.3
		C0.3,7.4,0.3,7.4,0.4,7.3C0.3,7.4,0.3,7.4,0.4,7.3C0.3,7.4,0.3,7.4,0.4,7.3C0.3,7.4,0.3,7.4,0.4,7.3C0.3,7.4,0.3,7.4,0.4,7.3
		C0.3,7.4,0.3,7.4,0.4,7.3C0.3,7.4,0.3,7.4,0.4,7.3C0.3,7.4,0.3,7.4,0.4,7.3C0.3,7.4,0.3,7.4,0.4,7.3c0,0.1,0,0.1,0,0.1c0,0,0,0,0,0
		c0,0,0,0,0,0c0,0,0,0,0,0c0,0,0,0,0,0c0,0,0,0,0,0c0,0,0,0,0,0c0,0,0,0,0,0c0,0,0,0,0,0c0,0,0,0,0,0c0,0,0,0,0,0
		C0.2,8,0.1,8.4,0.1,8.9v0c0,0,0,0,0,0c0,0,0,0,0,0c0,0,0,0,0,0c0,0,0,0,0,0c0,0,0,0,0,0c0,0,0,0,0,0c0,0,0,0,0,0c0,0,0,0,0,0
		c0,0,0,0,0,0c0,0,0,0,0,0c0,0,0,0,0,0v0c0,0,0,0,0,0c0,0,0,0,0,0c0,0,0,0,0,0c0,0,0,0,0,0c0,0,0,0,0,0c0,0,0,0,0,0c0,0,0,0,0,0
		c0,0,0,0,0,0c0,0,0,0,0,0c0,0,0,0,0,0c0,0,0,0,0,0c0,0,0,0,0,0c0,0,0,0,0,0c0,0,0,0,0,0c0,0,0,0,0,0c0,0,0,0,0,0c0,0,0,0,0,0
		c0,0,0,0,0,0c0,0,0,0,0,0c0,0,0,0,0,0c0,0,0,0,0,0c0,0,0,0,0,0c0,0,0,0,0,0c0,0,0,0,0,0c0,0,0,0,0,0c0,0,0,0,0,0c0,0,0,0,0,0
		c0,0,0,0,0,0c0,0,0,0,0,0c0,0,0,0,0,0c0,0,0,0,0,0c0,0,0,0,0,0c0,0,0,0,0,0c0,0,0,0,0,0c0,0,0,0,0,0c0,0,0,0,0,0c0,0,0,0,0,0
		c0,0,0,0,0,0c0,0,0,0,0,0c0,0,0,0,0,0c0,0,0,0,0,0c0,0,0,0,0,0c0,0,0,0,0,0c0,0,0,0,0,0c0,0,0,0,0,0c0,0,0,0,0,0c0,0,0,0,0,0
		c0,0,0,0,0,0c0,0,0,0,0,0c0,0,0,0,0,0c0,0,0,0,0,0c0,0,0,0,0,0c0,0,0,0,0,0c0,0,0,0,0,0c0,0,0,0,0,0c0,0,0,0,0,0c0,0,0,0,0,0
		c0,0,0,0,0,0c0,0,0,0,0,0c0,0,0,0,0,0c0,0,0,0,0,0c0,0,0,0,0,0c0,0,0,0,0,0c0,0,0,0,0,0c0,0,0,0,0,0c0,0,0,0,0,0c0,0,0,0,0,0
		c0,0,0,0,0,0c0,0,0,0,0,0c0,0,0,0,0,0c0,0,0,0,0,0c0,0,0,0,0,0c0,0,0,0,0,0c0,0,0,0,0,0c0,0,0,0,0,0c0,0,0,0,0,0c0,0,0,0,0,0
		c0,0,0,0,0,0c0,0,0,0,0,0c0,0,0,0,0,0c0,0,0,0,0,0c0,0,0,0,0,0c0,0,0,0,0,0c0,0,0,0,0,0c0,0,0,0,0,0c0,0,0,0,0,0c0,0,0,0,0,0
		c0,0,0,0,0,0c0,0,0,0,0,0c0,0,0,0,0,0c0,0,0,0,0,0c0,0,0,0,0,0c0,0,0,0,0,0c0,0,0,0,0,0c0,0,0,0,0,0c0,0,0,0,0,0c0,0,0,0,0,0
		c0,0,0,0,0,0c0,0,0,0,0,0c0,0,0,0,0,0c0,0,0,0,0,0c0,0,0,0,0,0c0,0,0,0,0,0c0,0,0,0,0,0c0,0,0,0,0,0c0,0,0,0,0,0c0,0,0,0,0,0
		c0,0,0,0,0,0c0,0,0,0,0,0c0,0,0,0,0,0c0,0,0,0,0,0c0,0,0,0,0,0c0,0,0,0,0,0c0,0,0,0,0,0v6.3h3V10c0-0.6,0.1-1.3,0.3-1.9L0.4,7.3
		L0.4,7.3z M3,25.3H0v9h3V25.3L3,25.3z M3,43.3H0v9h3V43.3L3,43.3z M3,61.3H0v9h3V61.3L3,61.3z M3,79.3H0v9h3V79.3L3,79.3z M3,97.3
		H0v9h3V97.3L3,97.3z M3,115.3H0v9h3V115.3L3,115.3z M3,133.3H0v9h3V133.3L3,133.3z M3,151.3H0v4.7c0,0,0,0,0,0c0,0,0,0,0,0
		c0,0,0,0,0,0c0,0,0,0,0,0c0,0,0,0,0,0c0,0,0,0,0,0c0,0,0,0,0,0c0,0,0,0,0,0c0,0,0,0,0,0c0,0,0,0,0,0c0,0,0,0,0,0c0,0,0,0,0,0
		c0,0,0,0,0,0c0,0,0,0,0,0c0,0,0,0,0,0c0,0,0,0,0,0c0,0,0,0,0,0c0,0,0,0,0,0c0,0,0,0,0,0c0,0,0,0,0,0c0,0,0,0,0,0c0,0,0,0,0,0
		c0,0,0,0,0,0c0,0,0,0,0,0c0,0,0,0,0,0c0,0,0,0,0,0c0,0,0,0,0,0c0,0,0,0,0,0c0,0,0,0,0,0c0,0,0,0,0,0c0,0,0,0,0,0c0,0,0,0,0,0
		c0,0,0,0,0,0c0,0,0,0,0,0c0,0,0,0,0,0c0,0,0,0,0,0c0,0,0,0,0,0c0,0,0,0,0,0c0,0,0,0,0,0c0,0,0,0,0,0c0,0,0,0,0,0c0,0,0,0,0,0
		c0,0,0,0,0,0c0,0,0,0,0,0c0,0,0,0,0,0c0,0,0,0,0,0c0,0,0,0,0,0c0,0,0,0,0,0c0,0,0,0,0,0c0,0,0,0,0,0c0,0,0,0,0,0c0,0,0,0,0,0
		c0,0,0,0,0,0c0,0,0,0,0,0c0,0,0,0,0,0c0,0,0,0,0,0c0,0,0,0,0,0c0,0,0,0,0,0c0,0,0,0,0,0c0,0,0,0,0,0c0,0,0,0,0,0c0,0,0,0,0,0
		c0,0,0,0,0,0c0,0,0,0,0,0c0,0,0,0,0,0c0,0,0,0,0,0c0,0,0,0,0,0c0,0,0,0,0,0c0,0,0,0,0,0c0,0,0,0,0,0c0,0,0,0,0,0c0,0,0,0,0,0
		c0,0,0,0,0,0c0,0,0,0,0,0c0,0,0,0,0,0c0,0,0,0,0,0c0,0,0,0,0,0c0,0,0,0,0,0c0,0,0,0,0,0c0,0,0,0,0,0c0,0,0,0,0,0c0,0,0,0,0,0
		c0,0,0,0,0,0c0,0,0,0,0,0c0,0,0,0,0,0c0,0,0,0,0,0c0,0,0,0,0,0c0,0,0,0,0,0c0,0,0,0,0,0c0,0,0,0,0,0c0,0,0,0,0,0c0,0,0,0,0,0
		c0,0,0,0,0,0c0,0,0,0,0,0c0,0,0,0,0,0c0,0,0,0,0,0c0,0,0,0,0,0c0,0,0,0,0,0c0,0,0,0,0,0.1c0,0,0,0,0,0c0,0,0,0,0,0c0,0,0,0,0,0
		c0,0,0,0,0,0c0,0,0,0,0,0c0,0,0,0,0,0c0,0,0,0,0,0c0,0,0,0,0,0c0,0,0,0,0,0c0,0,0,0,0,0c0,0,0,0,0,0c0,0,0,0,0,0c0,0,0,0,0,0
		c0,0,0,0,0,0c0,0,0,0,0,0c0,0,0,0,0,0c0,0,0,0,0,0c0,0,0,0,0,0c0,0,0,0,0,0c0,0,0,0.1,0,0.1l0,0c0,0,0,0,0,0c0,0,0,0,0,0
		c0,0,0,0,0,0c0,0,0,0,0,0c0,0,0,0,0,0c0,0,0,0,0,0c0,0,0,0,0,0c0,0,0,0,0,0c0,0,0,0,0,0c0,0,0,0,0,0c0,0,0,0,0,0c0,0,0,0,0,0
		c0,0,0,0,0,0c0,0,0,0,0,0c0,0,0,0.1,0,0.1l0,0c0,0,0,0,0,0v0c0,0,0,0,0,0c0,0,0,0,0,0c0,0,0,0,0,0c0,0,0,0,0,0c0,0,0,0,0,0l0,0
		c0.1,0.9,0.4,1.8,0.8,2.7l2.7-1.2C3.2,158,3,157,3,156V151.3L3,151.3z M8.3,162.8l-0.7,2.9c0.1,0,0.2,0.1,0.3,0.1c0,0,0,0,0,0
		c0,0,0,0,0,0c0,0,0,0,0,0c0,0,0,0,0,0c0,0,0,0,0,0c0,0,0,0,0,0c0,0,0,0,0,0c0,0,0,0,0,0c0,0,0,0,0,0c0,0,0,0,0,0c0,0,0,0,0,0
		c0,0,0,0,0,0c0,0,0,0,0,0c0,0,0,0,0,0c0,0,0,0,0,0c0,0,0,0,0,0c0,0,0,0,0,0c0,0,0,0,0,0c0,0,0,0,0,0c0,0,0,0,0,0c0,0,0,0,0,0
		c0,0,0,0,0,0c0,0,0,0,0.1,0c0,0,0,0,0,0c0,0,0,0,0,0c0,0,0,0,0,0c0.3,0.1,0.6,0.1,0.9,0.1c0,0,0,0,0,0c0,0,0.1,0,0.1,0c0,0,0,0,0,0
		c0,0,0,0,0,0c0,0,0,0,0,0c0,0,0,0,0.1,0c0,0,0,0,0,0c0,0,0,0,0,0c0,0,0,0,0,0c0,0,0,0,0,0c0,0,0,0,0,0c0,0,0,0,0,0c0,0,0,0,0,0
		c0,0,0,0,0,0c0,0,0,0,0,0c0,0,0,0,0,0c0,0,0,0,0,0c0,0,0,0,0,0c0,0,0,0,0,0c0,0,0,0,0,0c0,0,0,0,0,0c0,0,0,0,0,0c0,0,0,0,0,0
		c0,0,0,0,0,0c0,0,0,0,0,0c0,0,0,0,0,0c0,0,0,0,0,0c0,0,0,0,0,0c0,0,0,0,0,0c0,0,0,0,0,0c0,0,0,0,0,0c0,0,0,0,0,0c0,0,0,0,0,0
		c0,0,0,0,0,0c0,0,0,0,0,0c0,0,0,0,0,0c0,0,0,0,0,0c0,0,0,0,0,0c0,0,0,0,0,0c0,0,0,0,0,0c0,0,0,0,0,0c0,0,0,0,0,0c0,0,0,0,0,0
		c0,0,0,0,0,0c0,0,0,0,0,0c0,0,0,0,0,0c0,0,0,0,0,0c0,0,0,0,0,0c0,0,0,0,0,0c0,0,0,0,0,0c0,0,0,0,0,0c0,0,0,0,0,0c0,0,0,0,0,0
		c0,0,0,0,0,0c0,0,0,0,0,0c0,0,0,0,0,0c0,0,0,0,0,0c0,0,0,0,0,0c0,0,0,0,0,0c0,0,0,0,0,0c0,0,0,0,0,0c0,0,0,0,0,0c0,0,0,0,0,0
		c0,0,0,0,0,0c0,0,0,0,0,0c0,0,0,0,0,0c0,0,0,0,0,0c0,0,0,0,0,0c0,0,0,0,0,0c0,0,0,0,0,0c0,0,0,0,0,0h6.6v-3H10
		C9.4,163,8.9,162.9,8.3,162.8L8.3,162.8z M34.6,163h-9v3h9V163L34.6,163z M52.6,163h-9v3h9V163L52.6,163z M70.6,163h-9v3h9V163
		L70.6,163z M88.6,163h-9v3h9V163L88.6,163z M106.6,163h-9v3h9V163L106.6,163z M124.6,163h-9v3h9V163L124.6,163z M142.6,163h-9v3h9
		V163L142.6,163z M160.6,163h-9v3h9V163L160.6,163z M178.6,163h-9v3h9V163L178.6,163z M196.6,163h-9v3h9V163L196.6,163z M214.6,163
		h-9v3h9V163L214.6,163z M232.6,163h-9v3h9V163L232.6,163z M250.6,163h-9v3h9V163L250.6,163z M268.6,163h-9v3h9V163L268.6,163z
		 M286.1,162.9c-0.4,0.1-0.7,0.1-1.1,0.1h-7.4v3h7.4l0,0c0,0,0,0,0,0c0,0,0,0,0,0c0,0,0,0,0,0c0,0,0,0,0,0c0,0,0,0,0,0c0,0,0,0,0,0
		c0,0,0,0,0,0c0,0,0,0,0,0c0,0,0,0,0,0c0,0,0,0,0,0c0,0,0,0,0,0c0,0,0,0,0,0c0,0,0,0,0,0c0,0,0,0,0,0c0,0,0,0,0,0c0,0,0,0,0,0
		c0,0,0,0,0,0c0,0,0,0,0,0c0,0,0,0,0,0c0,0,0,0,0,0c0,0,0,0,0,0c0,0,0,0,0,0c0,0,0,0,0,0c0,0,0,0,0,0c0,0,0,0,0,0c0,0,0,0,0,0
		c0,0,0,0,0,0c0,0,0,0,0,0c0,0,0,0,0,0c0,0,0,0,0,0c0.4,0,0.9-0.1,1.3-0.1L286.1,162.9L286.1,162.9z M295,152.1h-3v3.9
		c0,1.2-0.3,2.4-0.9,3.4l2.6,1.5c0.5-0.8,0.8-1.8,1-2.7v0c0-0.1,0-0.2,0.1-0.3c0,0,0,0,0,0c0,0,0,0,0-0.1c0,0,0,0,0,0c0,0,0,0,0-0.1
		c0,0,0,0,0,0c0,0,0,0,0,0l0,0c0,0,0,0,0-0.1c0,0,0,0,0,0c0,0,0,0,0,0v0c0,0,0,0,0,0c0,0,0,0,0,0c0,0,0,0,0,0c0,0,0,0,0,0
		c0,0,0,0,0,0c0,0,0,0,0,0c0,0,0,0,0,0c0,0,0,0,0,0c0,0,0,0,0-0.1c0,0,0,0,0,0c0,0,0,0,0,0c0,0,0,0,0,0c0,0,0,0,0,0c0,0,0,0,0,0
		c0,0,0,0,0,0c0,0,0,0,0,0c0,0,0,0,0,0l0,0c0,0,0,0,0,0c0,0,0,0,0,0c0,0,0,0,0,0c0,0,0,0,0,0c0,0,0,0,0,0c0,0,0,0,0,0c0,0,0,0,0,0
		c0,0,0,0,0,0c0,0,0,0,0,0c0,0,0,0,0,0c0,0,0,0,0,0c0,0,0,0,0,0c0,0,0,0,0,0c0,0,0,0,0,0c0,0,0,0,0,0c0,0,0,0,0,0c0,0,0,0,0,0
		c0,0,0,0,0,0c0,0,0,0,0,0c0,0,0,0,0,0c0,0,0,0,0,0c0,0,0,0,0,0c0,0,0,0,0,0c0,0,0,0,0,0c0,0,0,0,0,0l0,0c0,0,0,0,0,0c0,0,0,0,0,0
		c0,0,0,0,0,0c0,0,0,0,0,0c0,0,0,0,0,0c0,0,0,0,0,0c0,0,0,0,0,0c0,0,0,0,0,0c0,0,0,0,0,0c0,0,0,0,0,0c0,0,0,0,0,0c0,0,0,0,0,0
		c0,0,0,0,0,0c0,0,0,0,0,0c0,0,0,0,0,0c0,0,0,0,0,0c0,0,0,0,0,0c0,0,0,0,0,0c0,0,0,0,0,0c0,0,0,0,0,0c0,0,0,0,0,0c0,0,0,0,0,0
		c0,0,0,0,0,0c0,0,0,0,0,0c0,0,0,0,0,0c0,0,0,0,0,0c0,0,0,0,0,0c0,0,0,0,0,0c0,0,0,0,0,0c0,0,0,0,0,0c0,0,0,0,0,0c0,0,0,0,0,0
		c0,0,0,0,0,0c0,0,0,0,0,0c0,0,0,0,0,0v0c0,0,0,0,0,0c0,0,0,0,0,0c0,0,0,0,0,0c0,0,0,0,0,0c0,0,0,0,0,0c0,0,0,0,0,0c0,0,0,0,0,0
		c0,0,0,0,0,0c0,0,0,0,0,0c0,0,0,0,0,0c0,0,0,0,0,0c0,0,0,0,0,0c0,0,0,0,0,0c0,0,0,0,0,0c0,0,0,0,0,0c0,0,0,0,0,0c0,0,0,0,0,0
		c0,0,0,0,0,0c0,0,0,0,0,0c0,0,0,0,0,0c0,0,0,0,0,0c0,0,0,0,0,0c0,0,0,0,0,0c0,0,0,0,0,0c0,0,0,0,0,0c0,0,0,0,0,0c0,0,0,0,0,0
		c0,0,0,0,0,0c0,0,0,0,0,0c0,0,0,0,0,0c0,0,0,0,0,0c0,0,0,0,0,0c0,0,0,0,0,0c0,0,0,0,0,0c0,0,0,0,0,0c0,0,0,0,0,0c0,0,0,0,0,0
		c0,0,0,0,0,0c0,0,0,0,0,0c0,0,0,0,0,0c0,0,0,0,0,0c0,0,0,0,0,0c0,0,0,0,0,0c0,0,0,0,0,0c0,0,0,0,0,0c0,0,0,0,0,0c0,0,0,0,0,0
		c0,0,0,0,0,0c0,0,0,0,0,0c0,0,0,0,0,0c0,0,0,0,0,0c0,0,0,0,0,0c0,0,0,0,0,0c0,0,0,0,0,0c0,0,0,0,0,0c0,0,0,0,0,0c0,0,0,0,0,0
		c0,0,0,0,0,0c0,0,0,0,0,0V152.1L295,152.1z M295,134.1h-3v9h3V134.1L295,134.1z M295,116.1h-3v9h3V116.1L295,116.1z M295,98.1h-3v9
		h3V98.1L295,98.1z M295,80.1h-3v9h3V80.1L295,80.1z M295,62.1h-3v9h3V62.1L295,62.1z M295,44.1h-3v9h3V44.1L295,44.1z M295,26.1h-3
		v9h3V26.1L295,26.1z M294.8,8.2l-2.9,0.6C292,9.1,292,9.6,292,10v7.1h3V10c0,0,0,0,0,0c0,0,0,0,0,0c0,0,0,0,0,0c0,0,0,0,0,0
		c0,0,0,0,0,0c0,0,0,0,0,0c0,0,0,0,0,0c0,0,0,0,0,0c0,0,0,0,0,0c0,0,0,0,0,0c0,0,0,0,0,0c0,0,0,0,0,0c0,0,0,0,0,0c0,0,0,0,0,0
		c0,0,0,0,0,0c0,0,0,0,0,0c0,0,0,0,0,0c0,0,0,0,0,0c0,0,0,0,0,0c0,0,0,0,0,0c0,0,0,0,0,0c0,0,0,0,0,0c0,0,0,0,0,0c0,0,0,0,0,0
		c0,0,0,0,0,0c0,0,0,0,0,0c0,0,0,0,0,0c0,0,0,0,0,0c0,0,0,0,0,0c0,0,0,0,0,0c0,0,0,0,0,0c0,0,0,0,0,0c0,0,0,0,0,0c0,0,0,0,0,0
		c0,0,0,0,0,0c0,0,0,0,0,0c0,0,0,0,0,0c0,0,0,0,0,0c0,0,0,0,0,0c0,0,0,0,0,0c0,0,0,0,0,0c0,0,0,0,0,0c0,0,0,0,0,0c0,0,0,0,0,0
		c0,0,0,0,0,0c0,0,0,0,0,0c0,0,0,0,0,0c0,0,0,0,0,0c0,0,0,0,0,0c0,0,0,0,0,0c0,0,0,0,0,0c0,0,0,0,0,0c0,0,0,0,0,0c0,0,0,0,0,0
		c0,0,0,0,0,0c0,0,0,0,0,0c0,0,0,0,0,0c0,0,0,0,0,0c0,0,0,0,0,0c0,0,0,0,0,0c0,0,0,0,0,0c0,0,0,0,0,0v0C295,9,294.9,8.6,294.8,8.2
		L294.8,8.2z M285,0v3c1.2,0,2.2,0.3,3.3,0.8l1.4-2.7c-1-0.5-2-0.9-3.2-1c0,0,0,0,0,0c0,0-0.1,0-0.1,0c0,0,0,0,0,0c0,0,0,0,0,0
		c0,0,0,0,0,0c0,0,0,0-0.1,0c0,0,0,0,0,0c0,0,0,0,0,0c0,0,0,0,0,0c0,0,0,0,0,0l0,0c0,0,0,0-0.1,0c0,0,0,0,0,0c0,0,0,0,0,0
		c0,0,0,0,0,0c0,0,0,0-0.1,0c0,0,0,0,0,0c0,0,0,0,0,0c0,0,0,0,0,0c0,0,0,0-0.1,0c0,0,0,0,0,0c0,0,0,0,0,0c0,0,0,0,0,0c0,0,0,0,0,0
		c0,0,0,0,0,0c0,0,0,0,0,0c0,0,0,0,0,0c0,0,0,0,0,0c0,0,0,0,0,0c0,0,0,0,0,0c0,0,0,0,0,0c0,0,0,0,0,0c0,0,0,0,0,0c0,0,0,0,0,0
		c0,0,0,0,0,0c0,0,0,0,0,0c0,0,0,0,0,0c0,0,0,0,0,0c0,0,0,0,0,0c0,0,0,0,0,0c0,0,0,0,0,0c0,0,0,0,0,0c0,0,0,0,0,0c0,0,0,0,0,0
		c0,0,0,0,0,0c0,0,0,0,0,0c0,0,0,0,0,0c0,0,0,0,0,0c0,0,0,0,0,0c0,0,0,0,0,0c0,0,0,0,0,0c0,0,0,0,0,0c0,0,0,0,0,0c0,0,0,0,0,0
		c0,0,0,0,0,0c0,0,0,0,0,0c0,0,0,0,0,0c0,0,0,0,0,0c0,0,0,0,0,0c0,0,0,0,0,0c0,0,0,0,0,0c0,0,0,0,0,0c0,0,0,0,0,0c0,0,0,0,0,0
		c0,0,0,0,0,0c0,0,0,0,0,0c0,0,0,0,0,0c0,0,0,0,0,0c0,0,0,0,0,0c0,0,0,0,0,0c0,0,0,0,0,0c0,0,0,0,0,0c0,0,0,0,0,0c0,0,0,0,0,0
		c0,0,0,0,0,0c0,0,0,0,0,0c0,0,0,0,0,0c0,0,0,0,0,0c0,0,0,0,0,0c0,0,0,0,0,0c0,0,0,0,0,0c0,0,0,0,0,0c0,0,0,0,0,0c0,0,0,0,0,0
		c0,0,0,0,0,0c0,0,0,0,0,0c0,0,0,0,0,0c0,0,0,0,0,0c0,0,0,0,0,0c0,0,0,0,0,0c0,0,0,0,0,0c0,0,0,0,0,0c0,0,0,0,0,0c0,0,0,0,0,0
		c0,0,0,0,0,0c0,0,0,0,0,0c0,0,0,0,0,0c0,0,0,0,0,0c0,0,0,0,0,0c0,0,0,0,0,0c0,0,0,0,0,0c0,0,0,0,0,0c0,0,0,0,0,0c0,0,0,0,0,0
		c0,0,0,0,0,0c0,0,0,0,0,0c0,0,0,0,0,0c0,0,0,0,0,0c0,0,0,0,0,0c0,0,0,0,0,0C285.1,0,285.1,0,285,0C285.1,0,285.1,0,285,0
		C285.1,0,285.1,0,285,0C285.1,0,285.1,0,285,0C285.1,0,285.1,0,285,0C285,0,285,0,285,0C285,0,285,0,285,0C285,0,285,0,285,0
		C285,0,285,0,285,0C285,0,285,0,285,0L285,0L285,0z"/>
</g>
<g>
	<g>
		<g>
			<path class="st0" d="M159,134.5h-24c-2.5,0-4.5-2-4.5-4.5V96.6c0-2.5,2-4.5,4.5-4.5h24c2.5,0,4.5,2,4.5,4.5V130
				C163.5,132.5,161.4,134.5,159,134.5z M135,95.1c-0.8,0-1.5,0.7-1.5,1.5V130c0,0.8,0.7,1.5,1.5,1.5h24c0.8,0,1.5-0.7,1.5-1.5V96.6
				c0-0.8-0.7-1.5-1.5-1.5H135z"/>
		</g>
		<g>
			<g>
				<path class="st0" d="M152.3,123.6l-5.7-5.7l20.2-20.2c0.8-0.8,2-0.8,2.8,0l2.8,2.8c0.8,0.8,0.8,2,0,2.8L152.3,123.6z"/>
			</g>
			<g>
				<polygon class="st0" points="143.9,126.3 145.6,119 151.2,124.6 				"/>
			</g>
		</g>
	</g>
	<g>
		<path class="st0" d="M89.2,63.8c0,2.9-1,5.1-3.1,6.7c-2.1,1.6-4.9,2.4-8.5,2.4c-3.9,0-6.8-0.5-8.9-1.5v-3.7c1.3,0.6,2.8,1,4.4,1.3
			c1.6,0.3,3.1,0.5,4.7,0.5c2.5,0,4.4-0.5,5.7-1.4c1.3-1,1.9-2.3,1.9-4c0-1.1-0.2-2.1-0.7-2.8c-0.5-0.7-1.2-1.4-2.3-2
			c-1.1-0.6-2.7-1.3-4.8-2.1c-3-1.1-5.2-2.4-6.5-3.9c-1.3-1.5-1.9-3.4-1.9-5.8c0-2.5,0.9-4.5,2.8-6c1.9-1.5,4.4-2.2,7.5-2.2
			c3.2,0,6.2,0.6,8.9,1.8l-1.2,3.3c-2.7-1.1-5.3-1.7-7.8-1.7c-2,0-3.6,0.4-4.7,1.3c-1.1,0.9-1.7,2.1-1.7,3.6c0,1.1,0.2,2.1,0.6,2.8
			c0.4,0.7,1.1,1.4,2.1,2c1,0.6,2.5,1.3,4.5,2c3.4,1.2,5.8,2.5,7,3.9C88.5,59.8,89.2,61.6,89.2,63.8z"/>
		<path class="st0" d="M95,41.5c0-0.8,0.2-1.5,0.6-1.9c0.4-0.4,0.9-0.6,1.6-0.6c0.6,0,1.1,0.2,1.5,0.6c0.4,0.4,0.6,1,0.6,1.8
			c0,0.8-0.2,1.5-0.6,1.9c-0.4,0.4-0.9,0.6-1.5,0.6c-0.6,0-1.1-0.2-1.6-0.6C95.2,42.9,95,42.3,95,41.5z M99,72.5h-3.7V48.1H99V72.5z
			"/>
		<path class="st0" d="M126.8,48.1v2.3l-4.5,0.5c0.4,0.5,0.8,1.2,1.1,2c0.3,0.8,0.5,1.8,0.5,2.8c0,2.4-0.8,4.3-2.4,5.7
			c-1.6,1.4-3.9,2.1-6.7,2.1c-0.7,0-1.4-0.1-2-0.2c-1.6,0.8-2.4,1.9-2.4,3.1c0,0.7,0.3,1.2,0.8,1.5c0.5,0.3,1.5,0.5,2.8,0.5h4.3
			c2.6,0,4.7,0.6,6.1,1.7c1.4,1.1,2.1,2.7,2.1,4.9c0,2.7-1.1,4.8-3.3,6.2c-2.2,1.4-5.3,2.1-9.5,2.1c-3.2,0-5.7-0.6-7.4-1.8
			c-1.7-1.2-2.6-2.9-2.6-5c0-1.5,0.5-2.8,1.4-3.9c0.9-1.1,2.3-1.8,4-2.2c-0.6-0.3-1.1-0.7-1.6-1.3c-0.4-0.6-0.6-1.3-0.6-2.1
			c0-0.9,0.2-1.7,0.7-2.3c0.5-0.7,1.2-1.3,2.2-1.9c-1.3-0.5-2.3-1.4-3.1-2.6c-0.8-1.2-1.2-2.7-1.2-4.3c0-2.7,0.8-4.7,2.4-6.2
			s3.9-2.2,6.8-2.2c1.3,0,2.4,0.1,3.5,0.4H126.8z M107.3,76.6c0,1.3,0.6,2.3,1.7,3c1.1,0.7,2.7,1,4.8,1c3.1,0,5.4-0.5,6.9-1.4
			c1.5-0.9,2.2-2.2,2.2-3.8c0-1.3-0.4-2.2-1.2-2.7c-0.8-0.5-2.4-0.8-4.6-0.8h-4.4c-1.7,0-3,0.4-3.9,1.2
			C107.8,73.9,107.3,75.1,107.3,76.6z M109.3,55.9c0,1.7,0.5,3,1.4,3.9c1,0.9,2.3,1.3,4,1.3c3.6,0,5.4-1.8,5.4-5.3
			c0-3.7-1.8-5.5-5.5-5.5c-1.7,0-3.1,0.5-4,1.4C109.8,52.7,109.3,54.1,109.3,55.9z"/>
		<path class="st0" d="M148.5,72.5V56.7c0-2-0.5-3.5-1.4-4.5c-0.9-1-2.3-1.5-4.3-1.5c-2.6,0-4.4,0.7-5.6,2.1
			c-1.2,1.4-1.8,3.7-1.8,6.8v12.8h-3.7V48.1h3l0.6,3.3h0.2c0.8-1.2,1.8-2.1,3.2-2.8c1.4-0.7,2.9-1,4.6-1c2.9,0,5.2,0.7,6.6,2.1
			c1.5,1.4,2.2,3.7,2.2,6.8v15.9H148.5z"/>
		<path class="st0" d="M196.8,39.9V61c0,3.7-1.1,6.6-3.4,8.8c-2.2,2.1-5.3,3.2-9.2,3.2c-3.9,0-7-1.1-9.1-3.2
			c-2.1-2.1-3.2-5.1-3.2-8.8v-21h3.8v21.2c0,2.7,0.7,4.8,2.2,6.3c1.5,1.5,3.7,2.2,6.5,2.2c2.7,0,4.9-0.7,6.3-2.2
			c1.5-1.5,2.2-3.6,2.2-6.3V39.9H196.8z"/>
		<path class="st0" d="M216.2,72.9c-1.6,0-3-0.3-4.4-0.9c-1.3-0.6-2.4-1.5-3.3-2.7h-0.3c0.2,1.4,0.3,2.8,0.3,4.1v10h-3.7V48.1h3
			l0.5,3.3h0.2c0.9-1.3,2.1-2.3,3.3-2.9c1.3-0.6,2.7-0.9,4.3-0.9c3.2,0,5.7,1.1,7.5,3.3c1.8,2.2,2.6,5.3,2.6,9.3
			c0,4-0.9,7.1-2.7,9.3C221.8,71.8,219.3,72.9,216.2,72.9z M215.6,50.8c-2.5,0-4.3,0.7-5.4,2.1c-1.1,1.4-1.7,3.6-1.7,6.6v0.8
			c0,3.4,0.6,5.9,1.7,7.4c1.1,1.5,3,2.2,5.5,2.2c2.1,0,3.8-0.9,5-2.6c1.2-1.7,1.8-4.1,1.8-7.1c0-3-0.6-5.4-1.8-7
			C219.5,51.6,217.8,50.8,215.6,50.8z"/>
	</g>
</g>
</svg>
