<svg id="_1" data-name="1" xmlns="http://www.w3.org/2000/svg" xmlns:xlink="http://www.w3.org/1999/xlink" viewBox="0 0 512 512"><defs><style>.cls-1{fill:#939598;}.cls-2{fill:url(#redmunda);}</style><linearGradient id="redmunda" x1="127.48" y1="256" x2="384.52" y2="256" gradientUnits="userSpaceOnUse"><stop offset="0.11" stop-color="#ff1e00"/><stop offset="0.25" stop-color="#ff2700"/><stop offset="0.48" stop-color="#ff3f00"/><stop offset="0.77" stop-color="#ff6700"/><stop offset="1" stop-color="#ff8b00"/></linearGradient></defs><title>best-practices-workshop</title><path class="cls-1" d="M256,10a246.06,246.06,0,0,1,95.75,472.67A246.06,246.06,0,0,1,160.25,29.33,244.37,244.37,0,0,1,256,10m0-10C114.61,0,0,114.62,0,256S114.61,512,256,512,512,397.39,512,256,397.39,0,256,0Z"/><path class="cls-2" d="M127.48,290.26v87.05h257V290.26Zm240,70h-223V307.31H160v23.12h17V307.31h18v35.12h17V307.31h18v23.12h17V307.31h18v35.12h17V307.31h18v23.12h17V307.31h18v35.12h17V307.31h15.46Zm17-107.14L352,265.5H127.48V240.73H352ZM156,161.7l10.58,15.44,17.95,5.29-11.41,14.83.51,18.71L156,209.7,138.38,216l.51-18.71-11.41-14.83,18-5.29Zm100-27,10.58,15.44,17.95,5.29-11.41,14.84.51,18.7L256,182.69,238.37,189l.51-18.7-11.41-14.84,17.95-5.29Zm100,27,10.58,15.44,17.95,5.29-11.41,14.83.51,18.71L356,209.7,338.36,216l.51-18.71-11.41-14.83,18-5.29Z"/></svg>