<?xml version="1.0" encoding="utf-8"?>
<!-- Generator: Adobe Illustrator 22.0.1, SVG Export Plug-In . SVG Version: 6.00 Build 0)  -->
<svg version="1.1" id="Ebene_1" xmlns="http://www.w3.org/2000/svg" xmlns:xlink="http://www.w3.org/1999/xlink" x="0px" y="0px"
	 viewBox="0 0 192.7 192.7" style="enable-background:new 0 0 192.7 192.7;" xml:space="preserve">
<style type="text/css">
	.st0{fill:#1D1D1B;}
	.st1{fill:#333333;}
	.st2{fill:#449ED8;}
	.st3{fill:none;stroke:#449ED8;stroke-width:2;stroke-miterlimit:10;}
</style>
<g>
	<path class="st0" d="M61.7,138.2l-9.3-4.1v-0.9l9.3-4.6v1.4l-7.5,3.6l7.5,3.2V138.2z"/>
	<path class="st0" d="M67,135.1l-3.7-5.1h1.8l2.8,4l2.8-4h1.8l-3.7,5.1l3.9,5.4h-1.8l-3-4.3l-3,4.3h-1.8L67,135.1z"/>
	<path class="st0" d="M88.2,140.5v-6.9c0-0.8-0.2-1.5-0.5-1.9c-0.4-0.4-0.9-0.6-1.7-0.6c-1,0-1.7,0.3-2.2,0.9
		c-0.5,0.6-0.7,1.4-0.7,2.6v5.9h-1.6v-6.9c0-0.8-0.2-1.5-0.5-1.9c-0.4-0.4-0.9-0.6-1.7-0.6c-1,0-1.7,0.3-2.2,0.9
		c-0.5,0.6-0.7,1.6-0.7,3v5.5h-1.6v-10.6h1.3l0.3,1.4h0.1c0.3-0.5,0.7-0.9,1.3-1.2c0.5-0.3,1.2-0.4,1.8-0.4c1.6,0,2.7,0.6,3.2,1.8
		h0.1c0.3-0.6,0.8-1,1.4-1.3c0.6-0.3,1.3-0.5,2-0.5c1.2,0,2.1,0.3,2.7,0.9c0.6,0.6,0.9,1.6,0.9,2.9v6.9H88.2z"/>
	<path class="st0" d="M94.7,140.5h-1.6v-15h1.6V140.5z"/>
	<path class="st0" d="M97.4,136.7l7.5-3.1l-7.5-3.6v-1.4l9.3,4.6v0.9l-9.3,4.1V136.7z"/>
	<path class="st0" d="M76.3,161.8l-9.3-4.1v-0.9l9.3-4.6v1.4l-7.5,3.6l7.5,3.2V161.8z"/>
	<path class="st0" d="M78.8,163.1c0-0.4,0.1-0.8,0.3-1c0.2-0.2,0.5-0.3,0.8-0.3c0.4,0,0.7,0.1,0.9,0.3c0.2,0.2,0.3,0.5,0.3,1
		c0,0.4-0.1,0.7-0.3,1c-0.2,0.2-0.5,0.3-0.9,0.3c-0.3,0-0.6-0.1-0.8-0.3C78.9,163.9,78.8,163.6,78.8,163.1z M83.9,163.1
		c0-0.4,0.1-0.8,0.3-1c0.2-0.2,0.5-0.3,0.8-0.3c0.4,0,0.7,0.1,0.9,0.3c0.2,0.2,0.3,0.5,0.3,1c0,0.4-0.1,0.7-0.3,1
		c-0.2,0.2-0.5,0.3-0.9,0.3c-0.3,0-0.6-0.1-0.8-0.3C84,163.9,83.9,163.6,83.9,163.1z M89,163.1c0-0.4,0.1-0.8,0.3-1
		c0.2-0.2,0.5-0.3,0.8-0.3c0.4,0,0.7,0.1,0.9,0.3c0.2,0.2,0.3,0.5,0.3,1c0,0.4-0.1,0.7-0.3,1c-0.2,0.2-0.5,0.3-0.9,0.3
		c-0.3,0-0.6-0.1-0.8-0.3C89.2,163.9,89,163.6,89,163.1z"/>
	<path class="st0" d="M93.8,160.4l7.5-3.1l-7.5-3.6v-1.4l9.3,4.6v0.9l-9.3,4.1V160.4z"/>
	<path class="st0" d="M114.4,161.8l-9.3-4.1v-0.9l9.3-4.6v1.4l-7.5,3.6l7.5,3.2V161.8z"/>
	<path class="st0" d="M122.4,150.1l-5.2,14.1h-1.6l5.2-14.1H122.4z"/>
	<path class="st0" d="M124.1,163.1c0-0.4,0.1-0.8,0.3-1c0.2-0.2,0.5-0.3,0.8-0.3c0.4,0,0.7,0.1,0.9,0.3c0.2,0.2,0.3,0.5,0.3,1
		c0,0.4-0.1,0.7-0.3,1c-0.2,0.2-0.5,0.3-0.9,0.3c-0.3,0-0.6-0.1-0.8-0.3C124.2,163.9,124.1,163.6,124.1,163.1z M129.2,163.1
		c0-0.4,0.1-0.8,0.3-1c0.2-0.2,0.5-0.3,0.8-0.3c0.4,0,0.7,0.1,0.9,0.3c0.2,0.2,0.3,0.5,0.3,1c0,0.4-0.1,0.7-0.3,1
		c-0.2,0.2-0.5,0.3-0.9,0.3c-0.3,0-0.6-0.1-0.8-0.3C129.3,163.9,129.2,163.6,129.2,163.1z M134.3,163.1c0-0.4,0.1-0.8,0.3-1
		c0.2-0.2,0.5-0.3,0.8-0.3c0.4,0,0.7,0.1,0.9,0.3c0.2,0.2,0.3,0.5,0.3,1c0,0.4-0.1,0.7-0.3,1c-0.2,0.2-0.5,0.3-0.9,0.3
		c-0.3,0-0.6-0.1-0.8-0.3C134.4,163.9,134.3,163.6,134.3,163.1z"/>
	<path class="st0" d="M139.1,160.4l7.5-3.1l-7.5-3.6v-1.4l9.3,4.6v0.9l-9.3,4.1V160.4z"/>
	<path class="st0" d="M61.7,185.5l-9.3-4.1v-0.9l9.3-4.6v1.4l-7.5,3.6l7.5,3.2V185.5z"/>
	<path class="st0" d="M69.8,173.7l-5.2,14.1h-1.6l5.2-14.1H69.8z"/>
	<path class="st0" d="M74.2,182.4l-3.7-5.1h1.8l2.8,4l2.8-4h1.8l-3.7,5.1l3.9,5.4h-1.8l-3-4.3l-3,4.3h-1.8L74.2,182.4z"/>
	<path class="st0" d="M95.4,187.8v-6.9c0-0.8-0.2-1.5-0.5-1.9c-0.4-0.4-0.9-0.6-1.7-0.6c-1,0-1.7,0.3-2.2,0.9
		c-0.5,0.6-0.7,1.4-0.7,2.6v5.9h-1.6v-6.9c0-0.8-0.2-1.5-0.5-1.9c-0.4-0.4-0.9-0.6-1.7-0.6c-1,0-1.7,0.3-2.2,0.9
		c-0.5,0.6-0.7,1.6-0.7,3v5.5H82v-10.6h1.3l0.3,1.4h0.1c0.3-0.5,0.7-0.9,1.3-1.2c0.5-0.3,1.2-0.4,1.8-0.4c1.6,0,2.7,0.6,3.2,1.8h0.1
		c0.3-0.6,0.8-1,1.4-1.3c0.6-0.3,1.3-0.5,2-0.5c1.2,0,2.1,0.3,2.7,0.9c0.6,0.6,0.9,1.6,0.9,2.9v6.9H95.4z"/>
	<path class="st0" d="M101.9,187.8h-1.6v-15h1.6V187.8z"/>
	<path class="st0" d="M104.6,184l7.5-3.1l-7.5-3.6v-1.4l9.3,4.6v0.9l-9.3,4.1V184z"/>
</g>
<g id="modeler_1_">
	<path id="modeler-y-line_1_" class="st1" d="M105.3,110.8h-1.8v-4.6h1.8V110.8z M105.3,101.4h-1.8v-4.6h1.8V101.4z M105.3,36.6
		h-1.8V32h1.8V36.6z M105.3,27.4h-1.8v-4.6h1.8V27.4z M105.3,18.1h-1.8v-4.6h1.8V18.1z M105.3,8.9V7.4c-0.6-0.1-1.2-0.2-1.8-0.4v1.8
		H105.3z M103.5,115.3v1.8c0.6-0.1,1.2-0.2,1.8-0.4v-1.5H103.5z"/>
	<path id="modeler-x-line_1_" class="st1" d="M70.7,46.5h-4.4v-1.8h4.4V46.5z M61.9,46.5h-4.4v-1.8h4.4V46.5z M53.1,46.5h-4.4v-1.8
		h4.4V46.5z M44.2,46.5h-2.3v-1.8h2.3V46.5z M144.6,46.5h-4.4v-1.8h4.4V46.5z M135.8,46.5h-4.4v-1.8h4.4V46.5z M127,46.5h-4.4v-1.8
		h4.4V46.5z M118.2,46.5h-4.4v-1.8h4.4V46.5z"/>
	<path id="modeler-hand_1_" d="M110.2,74.3c-0.3-0.9-0.6-1.9-1.5-2.6c-0.5-0.4-0.9-0.7-1.6-0.9c-0.5,0-0.9,0-1.5,0
		c0-0.5-0.5-1.5-0.9-1.9s-1.2-0.9-2.5-0.9c-0.5,0-0.9,0-1.5,0.3c-0.3-0.5-0.5-0.7-0.7-1.2c-0.5-0.5-1.2-0.9-2.5-0.9
		c-1.9,0-2.8,1.2-3.3,2.4c-0.3,0-0.7-0.3-1.2-0.3c-1.2,0-1.9,0.5-2.5,0.9c-1.2,1.5-1.2,3.3-1.2,3.5v0.9c-1.5,0-2.5,0.5-3.3,1.2
		c-1.1,1.2-1.4,2.6-1.5,4.4c0,0.6,0,1.4,0,2.2c0,0.2,0,0.5,0,0.7c0,0.4,0,0.6,0,0.9c0,3.3,1.6,4.9,3.3,6.5l0.7,0.9
		c3.1,2.8,5.9,3.7,12,3.7c6.8,0,9.9-3.7,9.9-12v-5.9C110.4,75.9,110.4,75.1,110.2,74.3z M107.9,76.9v5.6c0,8-3.1,9.6-7.5,9.6
		c-5.6,0-7.7-0.7-10.1-3.1c-0.3-0.3-0.5-0.5-0.9-0.9c-1.6-1.6-2.5-2.5-2.5-4.9c0-0.2,0-0.3,0-0.5c0-0.3,0-0.5,0-1c0-0.6,0-1.3,0-1.8
		c0-1.5,0.2-2.6,0.7-3.1c0.3-0.5,0.9-0.7,1.6-0.7V78l-0.6,2.3l-0.1,0.5c0,0.3,0,0.3,0.3,0.3c0.3,0.3,0.5,0,0.5,0l0.5-0.6l1.8-2.2V78
		v-4.7c0-0.3,0-1.5,0.5-1.9c0.3-0.3,0.5-0.5,0.9-0.5c0.7,0,0.9,0.5,0.9,0.9v0.9c0,0.5,0.5,1.2,1.2,1.2s1.2-0.7,1.2-1.2v-3.1
		c0-0.3,0-1.2,1.2-1.2c0.7,0,1.2,0.5,1.2,1.2v2.8c0,0.7,0.5,1.5,1.2,1.5s1.2-0.7,1.2-1.2v-1.2c0.1-0.7,0.5-1.2,1.2-1.2
		c0.9,0,1.2,0.9,1.2,1.5v1.9c0,0.7,0.5,1.2,0.9,1.2c0.7,0,1.2-0.3,1.2-0.9c0,0,0-0.9,0.9-0.7c0.3,0.1,0.5,0.3,0.7,0.5
		c0.7,0.8,0.9,2.2,0.9,2.5L107.9,76.9L107.9,76.9z"/>
	<path id="modeler-blue-circle_1_" class="st2" d="M84.6,79.2c-7.7-2.9-13.2-10.4-13.2-19.1c0-11.3,9.2-20.5,20.5-20.5
		s20.5,9.2,20.5,20.5c0,4.4-1.4,8.3-3.6,11.7c0.8,0.7,1.2,1.7,1.5,2.6c3.1-3.9,4.9-8.9,4.9-14.2c0-12.8-10.4-23.2-23.2-23.2
		S68.7,47.4,68.7,60.2c0,10.2,6.7,18.9,16,22c0-0.3,0-0.5,0-0.7C84.6,80.7,84.6,79.9,84.6,79.2z"/>
	<path class="st3" d="M105.3,116.8c-0.6,0.1-1.2,0.2-1.8,0.4c-2.9,0.5-5.9,0.7-9,0.7c-30.7,0-55.8-25-55.8-55.8s25-55.8,55.8-55.8
		c3.1,0,6.1,0.3,9,0.7c0.6,0.1,1.2,0.2,1.8,0.4c25.6,5.1,45,27.7,45,54.7S130.8,111.8,105.3,116.8z"/>
</g>
</svg>
