<svg id="_1" data-name="1" xmlns="http://www.w3.org/2000/svg" xmlns:xlink="http://www.w3.org/1999/xlink" viewBox="0 0 512 512"><defs><style>.cls-1{fill:#939598;}.cls-2{fill:url(#redmunda);}</style><linearGradient id="redmunda" x1="98.47" y1="268.3" x2="413.53" y2="268.3" gradientUnits="userSpaceOnUse"><stop offset="0.11" stop-color="#ff1e00"/><stop offset="0.25" stop-color="#ff2700"/><stop offset="0.48" stop-color="#ff3f00"/><stop offset="0.77" stop-color="#ff6700"/><stop offset="1" stop-color="#ff8b00"/></linearGradient></defs><title>modeling-workshop</title><path class="cls-1" d="M256,10a246.06,246.06,0,0,1,95.75,472.67A246.06,246.06,0,0,1,160.25,29.33,244.37,244.37,0,0,1,256,10m0-10C114.61,0,0,114.62,0,256S114.61,512,256,512,512,397.39,512,256,397.39,0,256,0Z"/><path class="cls-2" d="M413.53,334.13H329.86v24.61H311l24.61,66.45H322.49l-24.6-66.45H214.17l-24.61,66.45H176.43L201,358.74H182.2V334.13H98.47V137.26H203.73V111.42H308.32v25.84H413.53ZM216,136h80V123.72H216Zm101.51,198.1h-123v12.31H317.55Zm83.67-184.57H110.83V321.83H401.22Zm-232.87,106a19.83,19.83,0,1,0-19.82-19.82A19.82,19.82,0,0,0,168.35,255.52Zm175.35,0a19.83,19.83,0,1,0-19.82-19.82A19.83,19.83,0,0,0,343.7,255.52ZM242.93,215.87H203.28v39.65h39.65Zm68.22,19.83-28-28-28,28,28,28Z"/></svg>