<svg id="_1" data-name="1" xmlns="http://www.w3.org/2000/svg" xmlns:xlink="http://www.w3.org/1999/xlink" viewBox="0 0 512 512"><defs><style>.cls-1{fill:#939598;}.cls-2{fill:url(#redmunda);}</style><linearGradient id="redmunda" x1="103.95" y1="252" x2="404.05" y2="252" gradientUnits="userSpaceOnUse"><stop offset="0.11" stop-color="#ff1e00"/><stop offset="0.25" stop-color="#ff2700"/><stop offset="0.48" stop-color="#ff3f00"/><stop offset="0.77" stop-color="#ff6700"/><stop offset="1" stop-color="#ff8b00"/></linearGradient></defs><title>technical-review</title><path class="cls-1" d="M256,10a246.06,246.06,0,0,1,95.75,472.67A246.06,246.06,0,0,1,160.25,29.33,244.37,244.37,0,0,1,256,10m0-10C114.61,0,0,114.61,0,256S114.61,512,256,512,512,397.38,512,256,397.38,0,256,0Z"/><path class="cls-2" d="M334.58,308.43a128.65,128.65,0,1,0-24.15,24.15l69.47,69.47,24.15-24.15ZM232.47,342A111.48,111.48,0,1,1,344,230.47,111.61,111.61,0,0,1,232.47,342ZM145,230.6V216.21l48.63-31v19.1l-31.26,18.85v.5l31.26,18.85v19.11Zm99.15-54.08h17.62L220.81,284.43H203.2Zm27.21,66,31.25-18.85v-.5L271.34,204.3V185.2l48.62,31V230.6l-48.62,31Z"/></svg>