<svg id="_1" data-name="1" xmlns="http://www.w3.org/2000/svg" xmlns:xlink="http://www.w3.org/1999/xlink" viewBox="0 0 512 512"><defs><style>.cls-1{fill:#939598;}.cls-2{fill:url(#redmunda);}</style><linearGradient id="redmunda" x1="97.43" y1="256" x2="414.57" y2="256" gradientUnits="userSpaceOnUse"><stop offset="0.11" stop-color="#ff1e00"/><stop offset="0.25" stop-color="#ff2700"/><stop offset="0.48" stop-color="#ff3f00"/><stop offset="0.77" stop-color="#ff6700"/><stop offset="1" stop-color="#ff8b00"/></linearGradient></defs><title>upgrade</title><path class="cls-1" d="M256,10a246.06,246.06,0,0,1,95.75,472.67A246.06,246.06,0,0,1,160.25,29.33,244.37,244.37,0,0,1,256,10m0-10C114.61,0,0,114.61,0,256S114.61,512,256,512,512,397.39,512,256,397.39,0,256,0Z"/><path class="cls-2" d="M256,414.57c-2.45,0-5-.06-7.68-.19-.64,0-1.26-.08-1.89-.12l-.87-.07c-1.68-.11-3.2-.21-4.78-.36-.94-.09-1.88-.2-2.82-.31l-.63-.08c-1.31-.15-2.62-.31-3.91-.49s-2.6-.4-3.89-.62c-1.09-.18-2.18-.37-3.25-.58-1.44-.27-2.88-.56-4.32-.88-.84-.18-1.67-.38-2.51-.58-1.9-.45-3.45-.83-4.86-1.22l-.89-.25-.48-.13A159.42,159.42,0,0,1,103.54,299.56l-.2-.7c-.64-2.26-1.23-4.59-1.77-6.93l-.13-.55c-.14-.6-.28-1.19-.41-1.79-.25-1.14-.48-2.27-.7-3.41-.28-1.46-.56-3-.81-4.57-.17-1-.32-2-.46-3-.24-1.69-.46-3.43-.66-5.19l-.06-.55-.15-1.37c-.21-2.17-.38-4.44-.51-6.73,0-.37,0-.73-.05-1.1l0-.42c-.13-2.76-.18-5.07-.18-7.28,0-2.71.07-5.45.2-8.14A158.41,158.41,0,0,1,256,97.43h.62c2.43,0,4.8.07,7.06.18.8,0,1.59.1,2.39.16l1.75.12c1.13.08,2.25.16,3.37.27,1.28.12,2.55.28,3.82.43l1.22.15c.75.09,1.5.18,2.24.29,1.84.26,3.64.57,5,.81l.47.08,1.56.28c1.81.34,3.67.73,5.65,1.17l1.05.25A158.79,158.79,0,0,1,406,204.62l.09.26q1.27,3.75,2.32,7.42l.34,1.18c.6,2.16,1.17,4.39,1.69,6.63l.11.49c.1.45.21.89.31,1.34.41,1.89.81,3.9,1.21,6.17l.13.73c.1.52.19,1,.28,1.57.35,2.17.63,4.3.83,5.92l.1.82c.08.58.16,1.17.22,1.75.21,1.92.35,3.8.51,6,0,.29,0,.57.07.86,0,.55.09,1.09.12,1.65.14,2.73.22,5.48.23,8.18v.76c0,2.69-.09,5.44-.23,8.18,0,.56-.08,1.1-.12,1.65,0,.28-.05.57-.07.85-.13,1.81-.28,3.92-.51,6-.06.59-.14,1.18-.22,1.76l-.1.82c-.3,2.37-.55,4.19-.83,5.91-.09.55-.18,1.07-.28,1.6l-.13.7c-.4,2.26-.8,4.28-1.21,6.16l-.33,1.44-.1.41c-.52,2.25-1.08,4.48-1.68,6.62-.11.41-.23.81-.34,1.21-.7,2.45-1.47,4.92-2.29,7.31l-.12.35A158.44,158.44,0,0,1,298.78,408.69l-.46.13-.89.25c-1.43.39-3,.77-4.9,1.22-.82.2-1.65.4-2.48.58-1.45.32-2.89.61-4.33.88-1.07.21-2.16.4-3.24.58-1.3.22-2.6.43-3.9.62s-2.6.34-3.91.49l-.63.08c-.94.11-1.88.22-2.82.31-1.58.15-3.1.25-4.78.36l-.87.07-1.88.12C261,414.51,258.45,414.57,256,414.57Zm0-300.1A141.37,141.37,0,0,0,114.66,248.72c-.13,2.41-.19,4.86-.19,7.28,0,1.95,0,4,.17,6.5l.06,1.36c.11,2.05.27,4.08.46,6,0,.37.08.74.12,1.11l.07.6c.17,1.56.37,3.13.59,4.64.12.89.26,1.77.4,2.65.22,1.36.46,2.72.73,4.08.2,1,.4,2,.62,3,.1.48.22,1,.34,1.48l.14.6c.48,2.1,1,4.18,1.58,6.18l.18.64a142.29,142.29,0,0,0,97.88,97.38l1.24.35c1.22.33,2.6.68,4.33,1.09.75.17,1.49.35,2.24.51,1.27.28,2.55.54,3.85.79,1,.18,1.92.35,2.89.51,1.15.2,2.31.39,3.47.55s2.33.31,3.49.44l.66.08c.8.1,1.61.2,2.42.27,1.35.13,2.73.22,4.27.33l1,.07,1.44.09a131.19,131.19,0,0,0,13.74,0l1.44-.09,1-.07c1.54-.11,2.92-.2,4.27-.33.81-.07,1.62-.17,2.42-.27l.66-.08c1.17-.13,2.33-.27,3.48-.44s2.33-.35,3.49-.55l2.88-.51c1.3-.25,2.58-.51,3.86-.79l2.22-.51c1.74-.41,3.12-.76,4.36-1.09l.62-.18.59-.17a141.42,141.42,0,0,0,95.71-90.41l.1-.31c.73-2.14,1.42-4.34,2.05-6.54.1-.37.2-.71.3-1.06.53-1.9,1-3.89,1.5-5.92l.1-.44c.1-.4.19-.8.28-1.2.36-1.65.72-3.45,1.08-5.49l.14-.8c.08-.42.16-.84.23-1.26.24-1.49.47-3.11.73-5.27l.13-1c.06-.45.12-.89.16-1.33.2-1.82.34-3.73.45-5.39l.09-1.09c0-.38.07-.76.09-1.15.13-2.48.2-5,.2-7.41v-.49c0-2.42-.07-4.92-.21-7.39,0-.38-.05-.76-.08-1.13l-.09-1.12c-.14-2-.27-3.72-.45-5.37,0-.44-.1-.89-.16-1.33l-.13-1c-.18-1.47-.43-3.4-.73-5.28-.07-.41-.15-.82-.22-1.23l-.15-.82c-.37-2-.72-3.85-1.08-5.5-.08-.36-.17-.73-.26-1.11l-.12-.53c-.47-2-1-4-1.5-5.91L392,217c-.63-2.2-1.31-4.39-2.05-6.55l-.09-.26a142.48,142.48,0,0,0-101.59-92l-.93-.21c-1.77-.4-3.42-.75-5-1.05l-1.34-.24-.48-.09c-1.22-.21-2.84-.49-4.45-.71-.64-.1-1.27-.17-1.9-.25l-1.24-.15c-1.12-.14-2.23-.28-3.36-.38-1-.1-1.94-.16-2.92-.23l-1.87-.14c-.64,0-1.27-.09-1.91-.12-2-.1-4.14-.15-6.31-.16ZM414.57,256.24v0ZM256,178.88,208,262h28v71.11h40V262h28Z"/></svg>