<?xml version="1.0" encoding="utf-8"?>
<!-- Generator: Adobe Illustrator 24.0.1, SVG Export Plug-In . SVG Version: 6.00 Build 0)  -->
<svg version="1.1"
	 id="svg4359" sodipodi:docname="24 hr fitness.svg" xmlns:cc="http://creativecommons.org/ns#" xmlns:dc="http://purl.org/dc/elements/1.1/" xmlns:inkscape="http://www.inkscape.org/namespaces/inkscape" xmlns:rdf="http://www.w3.org/1999/02/22-rdf-syntax-ns#" xmlns:sodipodi="http://sodipodi.sourceforge.net/DTD/sodipodi-0.dtd" xmlns:svg="http://www.w3.org/2000/svg"
	 xmlns="http://www.w3.org/2000/svg" xmlns:xlink="http://www.w3.org/1999/xlink" x="0px" y="0px" viewBox="0 0 225 52"
	 style="enable-background:new 0 0 225 52;" xml:space="preserve">
<style type="text/css">
	.st0{fill-rule:evenodd;clip-rule:evenodd;fill:#0068B3;}
</style>
<sodipodi:namedview  bordercolor="#666666" borderopacity="1.0" id="base" inkscape:current-layer="layer1" inkscape:cx="111" inkscape:cy="25.75" inkscape:document-units="px" inkscape:pageopacity="0.0" inkscape:pageshadow="2" inkscape:window-height="744" inkscape:window-maximized="1" inkscape:window-width="1280" inkscape:window-x="-4" inkscape:window-y="-4" inkscape:zoom="4.119527" pagecolor="#ffffff" showgrid="false" units="px">
	</sodipodi:namedview>
<g>
	<path class="st0" d="M55.4,10.4c-2.6-4.9-7.5-8.1-13.8-8.8C28.1-0.3,11.7,8.9,5.4,22.4C2,29.1,1.8,36.3,4.6,41.5
		c2.6,4.9,7.5,8.1,13.9,9c13.7,1.9,30-7.5,36.4-21C58.1,22.8,58.3,15.8,55.4,10.4z M26,47.5c-5.6,0-10.1-2.1-12.9-6
		c-3-4.1-3.4-9.8-1.3-15.8C15.9,14,29,4.2,40.8,4.2c5.6,0,10.1,2.1,12.9,6c3,4.1,3.4,9.8,1.3,15.8C50.9,37.8,37.8,47.5,26,47.5z"/>
	<path id="path4217" inkscape:connector-curvature="0" class="st0" d="M78.5,13c-11.4,0-14.1,1.3-16.1,7.3L57,34.9h6.2l3.4-8.8h13.1
		l1.7-4.3H68l0.6-1.3c0.9-2.6,2.4-3.2,6.2-3.2h9.6l1.7-4.3H78.5L78.5,13z M88.8,13l-8.3,21.9h6.4L95,13C95,13,88.8,13,88.8,13z
		 M119.4,13h-22l-1.5,4.3h7.7L97,34.9h6.4l6.6-17.6h7.7L119.4,13z M131,17.3c3.2,0,5.4-0.2,4.5,2.6c-0.4,0.9-2.1,5.8-2.1,5.8
		l-3.4,9.2h6.2c0,0,5.1-13.7,5.6-15c1.7-5.1-2.4-7.1-9.2-7.1h-0.1c-6.8,0-11.3,1.5-13.5,6c-0.6,1.1-6,16.1-6,16.1h6.2l3.4-9.2
		c0,0,1.9-4.9,2.4-5.8C126.1,17.9,127.8,17.3,131,17.3L131,17.3z M160.3,13c-11.3,0-14.1,2.8-15.6,7.1l-2.8,7.5
		c-0.8,1.9-0.8,3.4,0.2,4.5c1.3,1.7,4.7,2.8,9.6,2.8h7.9l1.5-4.3h-9c-2.1,0-3.6-0.4-3.9-0.9c-0.2-0.4-0.2-0.6-0.2-0.9s0-0.8,0.2-1.3
		c0,0,0.4-0.9,0.6-1.3c0.8,0,14.1,0,14.1,0l1.7-4.3h-14.1l0.6-1.3c0.9-2.6,3.6-3.2,8.8-3.2h6.4l1.5-4.3L160.3,13L160.3,13z M176,13
		c-3.9,0-6.4,2.8-7.7,5.6l-0.8,1.9c-0.6,1.5-0.4,3.2,0.4,4.3c0.8,1.1,2.1,1.3,3.6,1.3h9.2c1.3,0,1.9,0.2,1.7,1.1
		c-0.4,1.1-1.1,3.2-3.4,3.4h-15.2l-1.7,4.3h17.1c3.2,0,6.4-1.3,7.9-5.3l0.8-1.9c0.6-1.5,0.6-3.2-0.2-4.3c-0.9-1.1-2.6-1.7-4.1-1.7
		h-7.5c-1.9,0-3.6,0.4-2.3-2.4c0.8-1.3,1.7-2.1,3.4-2.1h12.9l1.7-4.3H176V13z M200.8,13c-3.9,0-6.4,2.8-7.7,5.6l-0.8,1.9
		c-0.6,1.5-0.6,3.2,0.4,4.3c0.8,1.1,2.1,1.3,3.6,1.3h9.2c1.3,0,1.9,0.2,1.7,1.1c-0.4,1.1-1.1,3.2-3.4,3.4h-15.2l-1.7,4.3H204
		c3.2,0,6.4-1.3,7.9-5.3l0.8-1.9c0.6-1.5,0.6-3.2-0.4-4.3c-0.8-1.1-2.4-1.7-3.9-1.7h-7.5c-1.9,0-3.6,0.4-2.3-2.4
		c0.8-1.3,1.7-2.1,3.4-2.1h12.9l1.7-4.3h-15.8V13z M220.1,13c-1.3,0-2.4,0.9-2.4,2.1c0,1.3,1.1,2.3,2.4,2.3c1.3,0,2.3-0.9,2.3-2.3
		C222.3,14,221.4,13,220.1,13L220.1,13z M219.9,13.4c0.2,0,0.2,0,0.2,0c0.9,0,1.9,0.8,1.9,1.7c0,1.1-0.9,1.9-1.9,1.9
		c-1.1,0-1.9-0.8-1.9-1.9C218.2,14.1,219,13.4,219.9,13.4L219.9,13.4z M219.2,14v2.4h0.4v-1.1h0.6l0.6,1.1h0.6l-0.9-1.1
		c0.4,0,0.6-0.2,0.6-0.8c0-0.4-0.2-0.6-0.9-0.6L219.2,14L219.2,14z M219.5,14.9v-0.8h0.6c0.4,0,0.6,0.2,0.6,0.4
		c0,0.4-0.2,0.4-0.4,0.4L219.5,14.9L219.5,14.9z"/>
	<path id="path4295" inkscape:connector-curvature="0" class="st0" d="M31.8,30.3l-1.3,3.3c0,0.2-0.2,0.6-0.6,0.6h-1.7
		c0,0,0,0-0.2-0.2v-0.2l1.3-3.6h-1.1l-1.3,3.6c0,0.2,0,0.6,0.2,0.8C27.3,35,27.5,35,28,35h1.7c0.9,0,1.7-0.6,1.9-0.9l1.3-3.8
		C32.9,30.3,31.8,30.3,31.8,30.3z"/>
	<path id="path4293" inkscape:connector-curvature="0" class="st0" d="M23.6,30.3c-0.8,0-1.5,0.6-1.7,0.9l-1.1,2.6
		c0,0.2,0,0.6,0.2,0.8c0.2,0.4,0.6,0.4,0.9,0.4h1.9c0.8,0,1.5-0.4,1.7-0.9l0.9-2.6c0.2-0.2,0.2-0.6,0-0.8c-0.2-0.2-0.6-0.4-0.9-0.4
		h-1H23.6z M23.6,31.2h1.5h0.2v0.2l-0.9,2.3c0,0.2-0.2,0.6-0.6,0.6h-1.5h-0.2c-0.2-0.2-0.2-0.2,0-0.4l0.2-0.6l0.6-1.7
		C23,31.6,23,31.2,23.6,31.2z"/>
	<path id="path4289" inkscape:connector-curvature="0" class="st0" d="M36.1,30.3c-0.8,0-1.7,0.2-1.7,0.8L32.7,35H34
		c0,0,0.6-1.3,0.6-1.5h1.3c0.2,0,0.8,0,1.1,0.4l0.8,1.1h1.5l-0.4-0.4c0,0-0.4-0.9-0.8-1.1L38,33.3c0.6,0,1.1-0.4,1.1-0.6l0.8-1.7
		c0,0,0-0.2-0.2-0.4c-0.2-0.1-0.8-0.3-1.3-0.3h-0.9H36.1z M36.1,31H38c0.6,0,0.6,0.2,0.6,0.2L38,32.3c0,0-0.2,0.2-0.6,0.2h-2.1
		c-0.4,0-0.4-0.2-0.4-0.2l0.4-0.9C35.6,31.2,35.7,31,36.1,31z"/>
	<path id="path4285" inkscape:connector-curvature="0" class="st0" d="M38.6,32.5L38.6,32.5z"/>
	<path id="path4223" inkscape:connector-curvature="0" class="st0" d="M19.4,30.3l-0.8,1.9H16l0.6-1.9h-1.1L13.6,35h1.3l0.8-1.9h2.6
		L17.7,35h1.1l1.9-4.7H19.4L19.4,30.3z"/>
	<path class="st0" d="M35.8,17l-0.4,1.3c-0.6,1.1-1.5,2.3-2.6,3.2c-1.1,0.8-2.3,0.8-3.4,0.8H23c-1.9,0-3.4,3.2-1.5,3.2h12.4
		l-0.8,1.8l-0.6,1.3H19.4c-1.3,0-2.4-0.4-2.8-1.3c-0.2-0.6-0.2-1.3,0.2-2.4l0.6-1.3c0.4-1.1,1.3-2.3,2.4-3c1.3-0.9,2.4-1.3,3.6-1.3
		h5.8c1.3,0,2.4-0.2,2.8-1.3c0.2-0.8,1.1-1.9-1.3-1.9h-8.8l1.3-3H33C35.8,13,36.7,14.9,35.8,17z"/>
	<path class="st0" d="M53.6,23.9l-0.9,3.2h-4.9v0.2l-3,7.7H41l3-7.7v-0.2h-4.3c-1.7,0-3-0.6-3.6-1.5c-0.6-0.6-0.8-1.5-0.4-2.3L40,13
		h3.9l-4.1,9.6c0,0-0.4,1.3,1.7,1.3h3.8l1.9-4.9H51l-1.9,4.9C49.1,23.9,53.6,23.9,53.6,23.9z"/>
</g>
</svg>
