<svg id="_1" data-name="1" xmlns="http://www.w3.org/2000/svg" xmlns:xlink="http://www.w3.org/1999/xlink" viewBox="0 0 512 512"><defs><style>.cls-1{fill:url(#peach);}.cls-2{fill:#939598;}</style><linearGradient id="peach" x1="106" y1="256" x2="406" y2="256" gradientUnits="userSpaceOnUse"><stop offset="0.11" stop-color="#eb256d"/><stop offset="0.25" stop-color="#ed2c64"/><stop offset="0.48" stop-color="#f1414c"/><stop offset="0.77" stop-color="#f86224"/><stop offset="1" stop-color="#ff8000"/></linearGradient></defs><title>replace-legacy</title><path class="cls-1" d="M379.63,106A26.19,26.19,0,0,0,361,113.72l-12.43,12.43a26.44,26.44,0,0,0-5.16,30L327.67,171.9a26.4,26.4,0,0,0-30,5.14l-12.43,12.43a26.19,26.19,0,0,0-7.72,18.65v.19A26.25,26.25,0,0,0,262,215.83l-10.23,10.22a96.15,96.15,0,0,0-50.47-13.4c-52.57.75-95.18,43.91-95.28,96.49A96.79,96.79,0,0,0,202.89,406c52.25-.11,95.25-42.2,96.44-94.44a96.16,96.16,0,0,0-11.16-47.34l11.09-11.1A26.16,26.16,0,0,0,307,234.48c0-.07,0-.13,0-.2a26.25,26.25,0,0,0,15.55-7.52L335,214.33a26.35,26.35,0,0,0,5.15-30l15.73-15.73a26.41,26.41,0,0,0,30-5.15L398,151.29a26.84,26.84,0,0,0,7.79-15.58A26.4,26.4,0,0,0,379.63,106ZM281.76,311.1a79.1,79.1,0,1,1-80.86-80.86A79.31,79.31,0,0,1,281.76,311.1Zm5.08-70.41-8.51,8.51a96.78,96.78,0,0,0-12.15-12.72l8.06-8a9,9,0,0,1,11.83-.85A8.8,8.8,0,0,1,286.84,240.69Zm35.69-38.79L310.1,214.33a8.79,8.79,0,1,1-12.43-12.43l12.43-12.43a8.79,8.79,0,0,1,12.43,12.43Zm63.32-63.32L373.42,151A8.79,8.79,0,0,1,361,138.58l12.43-12.43a8.71,8.71,0,0,1,6.21-2.57A8.8,8.8,0,0,1,385.85,138.58Z"/><path class="cls-2" d="M256,10a246.06,246.06,0,0,1,95.75,472.67A246.06,246.06,0,0,1,160.25,29.33,244.37,244.37,0,0,1,256,10m0-10C114.61,0,0,114.61,0,256S114.61,512,256,512,512,397.39,512,256,397.39,0,256,0Z"/></svg>