<svg id="_1" data-name="1" xmlns="http://www.w3.org/2000/svg" xmlns:xlink="http://www.w3.org/1999/xlink" viewBox="0 0 512 512"><defs><style>.cls-1{fill:url(#peach);}.cls-2{fill:#939598;}</style><linearGradient id="peach" x1="106" y1="256" x2="406" y2="256" gradientUnits="userSpaceOnUse"><stop offset="0.11" stop-color="#eb256d"/><stop offset="0.25" stop-color="#ed2c64"/><stop offset="0.48" stop-color="#f1414c"/><stop offset="0.77" stop-color="#f86224"/><stop offset="1" stop-color="#ff8000"/></linearGradient></defs><title>replace-homegrown-tech</title><path class="cls-1" d="M400.25,171.83a9,9,0,0,0-14.82-3.35l-53.26,53.26-41.91-41.91,53.26-53.26a9,9,0,0,0-3.35-14.83A99.11,99.11,0,0,0,211.76,232.9L120,324.72a47.61,47.61,0,1,0,67.33,67.33l91.82-91.81a100,100,0,0,0,27.78,3.94,99.06,99.06,0,0,0,93.37-132.35ZM174.57,379.34a29.63,29.63,0,1,1-41.91-41.91L219,251.06a97.4,97.4,0,0,0,5,8.53.86.86,0,0,0,.07.1c.42.65.86,1.29,1.3,1.92.1.16.21.31.32.46q1,1.47,2.13,2.91c.27.35.53.7.81,1l1,1.3q.72.89,1.47,1.77l.83,1c.59.68,1.2,1.35,1.81,2l.65.7c.76.81,1.53,1.62,2.32,2.41s1.6,1.56,2.41,2.32l.71.66c.66.6,1.32,1.2,2,1.78.33.3.67.58,1,.87q.87.74,1.74,1.44l1.3,1,1.05.8q1.44,1.09,2.91,2.13c.15.1.3.22.46.32.63.44,1.27.88,1.91,1.3l.12.08c2.76,1.81,5.59,3.5,8.52,5ZM364.26,262.49a81.26,81.26,0,0,1-106.95,6.86l-.1-.08-1.44-1.14-.36-.3-1.2-1-.65-.57-.9-.79-1.12-1-.44-.41c-.53-.51-1.06-1-1.58-1.54s-1-1.06-1.55-1.59l-.42-.45c-.34-.37-.68-.73-1-1.11s-.54-.6-.81-.91l-.56-.64c-.34-.4-.68-.81-1-1.22l-.28-.33c-.39-.48-.78-1-1.16-1.46l-.06-.08a81.12,81.12,0,0,1,77-129.69l-48.15,48.14-.15.17-.17.15a9,9,0,0,0,0,12.72l54.62,54.62a9,9,0,0,0,12.72,0L387,192.34A81.6,81.6,0,0,1,364.26,262.49Z"/><path class="cls-2" d="M256,10a246.06,246.06,0,0,1,95.75,472.67A246.06,246.06,0,0,1,160.25,29.33,244.37,244.37,0,0,1,256,10m0-10C114.61,0,0,114.61,0,256S114.61,512,256,512,512,397.39,512,256,397.39,0,256,0Z"/></svg>