<?xml version="1.0" encoding="utf-8"?>
<!-- Generator: Adobe Illustrator 22.1.0, SVG Export Plug-In . SVG Version: 6.00 Build 0)  -->
<svg version="1.1" id="Ebene_1" xmlns="http://www.w3.org/2000/svg" xmlns:xlink="http://www.w3.org/1999/xlink" x="0px" y="0px"
	 viewBox="0 0 129.2 129.7" style="enable-background:new 0 0 129.2 129.7;" xml:space="preserve">
<style type="text/css">
	.st0{fill:#FFFFFF;}
	.st1{fill:#00A8FF;}
	.st2{fill:#B61F29;}
	.st3{fill:#B51F29;}
</style>
<g>
	<path class="st0" d="M45.7,113.8c-2.6,0-4.6-2.1-4.6-4.6V70.5c0-2.6,2.1-4.6,4.6-4.6h11.1c-0.5,1.3-1.2,2.4-1.7,3.4
		C54,71.3,53,73,53,75.2c0,6.7,5.4,12.1,12.1,12.1s12.1-5.4,12.1-12.1c0-2.2-1-3.9-2.1-5.9c-0.6-1-1.2-2.1-1.7-3.4h11.1
		c2.6,0,4.6,2.1,4.6,4.6v13.8l1.4-0.5c1.8-0.7,3.2-1.5,4.5-2.2c1.8-1,3.3-1.8,5-1.8c5.6,0,10.1,4.5,10.1,10.1S105.6,100,100,100
		c-1.7,0-3.1-0.8-5-1.8c-1.3-0.7-2.7-1.5-4.5-2.2l-1.4-0.5v13.8c0,2.6-2.1,4.6-4.6,4.6L45.7,113.8L45.7,113.8z"/>
	<g>
		<path class="st1" d="M84.4,66.8c2,0,3.6,1.6,3.6,3.6v12.3v2.9l2.7-1c1.8-0.7,3.3-1.5,4.6-2.2c1.8-1,3-1.7,4.5-1.7
			c5,0,9.1,4.1,9.1,9.1s-4.1,9.1-9.1,9.1c-1.4,0-2.7-0.7-4.5-1.7c-1.3-0.7-2.7-1.5-4.6-2.2L88,94v2.9v12.3c0,2-1.6,3.6-3.6,3.6H45.7
			c-2,0-3.6-1.6-3.6-3.6V70.5c0-2,1.6-3.6,3.6-3.6h9.5c-0.3,0.7-0.7,1.3-1,1.9c-1.1,2-2.2,3.9-2.2,6.4c0,7.2,5.9,13.1,13.1,13.1
			s13.1-5.9,13.1-13.1c0-2.5-1.1-4.4-2.2-6.4c-0.3-0.6-0.7-1.2-1-1.9L84.4,66.8 M84.4,64.8H71.9c1.6,4.7,4.3,6.9,4.3,10.3
			c0,6.1-5,11.1-11.1,11.1S54,81.3,54,75.1c0-3.4,2.6-5.6,4.3-10.3H45.7c-3.1,0-5.6,2.5-5.6,5.6v38.7c0,3.1,2.5,5.6,5.6,5.6h38.7
			c3.1,0,5.6-2.5,5.6-5.6V96.9c4.3,1.6,6.5,4.1,9.8,4.1c6.1,0,11.1-5,11.1-11.1s-5-11.1-11.1-11.1c-3.2,0-5.5,2.4-9.8,4.1V70.5
			C90.1,67.4,87.5,64.8,84.4,64.8L84.4,64.8z"/>
	</g>
</g>
<g>
	<path class="st0" d="M65.1,85.4c-5.6,0-10.2-4.6-10.2-10.2c0-1.7,0.8-3.2,1.8-5c0.7-1.3,1.6-2.8,2.2-4.6l0.5-1.3H45.6
		c-2.6,0-4.7-2.1-4.7-4.7v-14l-1.3,0.5c-2,0.7-3.6,1.6-4.9,2.4c-1.8,1-3.3,1.8-5,1.8c-5.6,0-10.2-4.6-10.2-10.2S24.1,30,29.7,30
		c1.7,0,3.2,0.8,5,1.8c1.4,0.8,2.9,1.6,4.9,2.4l1.3,0.5v-14c0-2.6,2.1-4.7,4.7-4.7h38.9c2.6,0,4.7,2.1,4.7,4.7v38.9
		c0,2.6-2.1,4.7-4.7,4.7H70.6l0.5,1.3c0.7,1.9,1.5,3.3,2.2,4.6c1,1.8,1.8,3.3,1.8,5C75.2,80.8,70.7,85.4,65.1,85.4z"/>
	<path class="st2" d="M84.5,17c2,0,3.7,1.6,3.7,3.7v38.9c0,2-1.6,3.7-3.7,3.7H72.1h-2.9l1,2.7c0.7,1.9,1.6,3.4,2.3,4.8
		c1,1.8,1.7,3.1,1.7,4.5c0,5-4.1,9.2-9.2,9.2s-9.2-4.1-9.2-9.2c0-1.5,0.7-2.7,1.7-4.5c0.7-1.3,1.6-2.9,2.3-4.8l1-2.7H58H45.6
		c-2,0-3.7-1.6-3.7-3.7V47v-2.8l-2.7,0.9c-2.1,0.7-3.7,1.6-5.1,2.4c-1.8,1-3.1,1.7-4.5,1.7c-5,0-9.2-4.1-9.2-9.2
		c0-5,4.1-9.2,9.2-9.2c1.4,0,2.7,0.7,4.5,1.7c1.4,0.8,3,1.7,5.1,2.4l2.7,0.9V33V20.6c0-2,1.6-3.7,3.7-3.7h38.9 M84.5,15H45.6
		c-3.1,0-5.7,2.5-5.7,5.7v12.6C35.3,31.6,33,29,29.7,29c-6.2,0-11.2,5-11.2,11.2s5,11.2,11.2,11.2c3.4,0,5.6-2.6,10.3-4.2v12.6
		c0,3.1,2.5,5.7,5.7,5.7H58c-1.6,4.4-4.1,6.7-4.1,10c0,6.2,5,11.2,11.2,11.2s11.2-5,11.2-11.2c0-3.3-2.5-5.6-4.1-10h12.5
		c3.1,0,5.7-2.5,5.7-5.7V20.6C90.2,17.5,87.7,15,84.5,15L84.5,15z"/>
</g>
<g>
	<g>
		<path class="st3" d="M62.4,49.3c-1.8,1.9-4.8,1.9-6.5,0.1c-1.9-1.8-1.9-4.8-0.1-6.5c1.8-1.9,4.8-1.9,6.5-0.1
			C64.1,44.6,64.2,47.5,62.4,49.3z"/>
		<path class="st3" d="M75.1,39.1L75.1,39.1l0.5,1.9l-2.2,0.9l-1-1.7h0.1c-0.7,0.1-1.6,0.1-2.3,0l-1,1.7L67,41l0.5-1.9h0.1
			c-0.7-0.4-1.2-1-1.6-1.6l0,0L64.1,38l-0.9-2.2l1.7-1v0.1c-0.1-0.7-0.1-1.6,0-2.3l-1.7-1l0.9-2.2l1.9,0.5V30c0.3-0.4,0.6-0.7,0.9-1
			H55.7c-0.8,0-1.4,0.7-1.4,1.4v9.4l1.3,1h-0.1c0.7-0.4,1.3-0.7,2.1-0.9l0,0l0.2-1.9h2.3l0.3,1.9h-0.1c0.7,0.1,1.5,0.4,2.2,0.8
			l1.6-1.2l1.6,1.6l-1.2,1.6l-0.1-0.1c0.4,0.7,0.7,1.3,0.9,2.1l0,0l1.9,0.2v2.3l-1.8,0.3v-0.1c-0.1,0.7-0.4,1.5-0.8,2.2l1,1.3h9.1
			c0.8,0,1.4-0.7,1.4-1.4V38.1C75.9,38.5,75.5,38.8,75.1,39.1z"/>
		<path class="st3" d="M75.7,35.5c-1,2.4-3.8,3.6-6.2,2.5c-2.4-1-3.6-3.8-2.5-6.2c1-2.5,3.8-3.6,6.2-2.5S76.8,33.1,75.7,35.5z"/>
	</g>
</g>
<g>
	<path class="st1" d="M58.8,105.4l-0.8-2.5h-3.9l-0.8,2.5h-2.4l3.8-10.8h2.8l3.8,10.8H58.8z M57.4,101c-0.7-2.3-1.1-3.6-1.2-3.9
		c-0.1-0.3-0.2-0.5-0.2-0.7c-0.2,0.6-0.6,2.2-1.4,4.6H57.4z"/>
	<path class="st1" d="M70,98c0,1.2-0.4,2-1.1,2.6s-1.7,0.9-3.1,0.9h-1v3.8h-2.3V94.7H66c1.3,0,2.3,0.3,3,0.8
		C69.6,96.1,70,96.9,70,98z M64.8,99.7h0.7c0.7,0,1.2-0.1,1.6-0.4c0.3-0.3,0.5-0.7,0.5-1.2s-0.1-0.9-0.4-1.2
		c-0.3-0.3-0.7-0.4-1.4-0.4h-1C64.8,96.5,64.8,99.7,64.8,99.7z"/>
	<path class="st1" d="M79.4,98c0,1.2-0.4,2-1.1,2.6s-1.7,0.9-3.1,0.9h-1v3.8H72V94.7h3.4c1.3,0,2.3,0.3,3,0.8
		C79,96.1,79.4,96.9,79.4,98z M74.2,99.7H75c0.7,0,1.2-0.1,1.6-0.4c0.3-0.3,0.5-0.7,0.5-1.2s-0.1-0.9-0.4-1.2
		c-0.3-0.3-0.7-0.4-1.4-0.4h-1L74.2,99.7L74.2,99.7z"/>
</g>
</svg>
