<svg id="_1" data-name="1" xmlns="http://www.w3.org/2000/svg" xmlns:xlink="http://www.w3.org/1999/xlink" viewBox="0 0 512 512"><defs><style>.cls-1{fill:url(#peach);}.cls-2{fill:#939598;}</style><linearGradient id="peach" x1="116" y1="256" x2="396" y2="256" gradientUnits="userSpaceOnUse"><stop offset="0.11" stop-color="#eb256d"/><stop offset="0.25" stop-color="#ed2c64"/><stop offset="0.48" stop-color="#f1414c"/><stop offset="0.77" stop-color="#f86224"/><stop offset="1" stop-color="#ff8000"/></linearGradient></defs><title>add-to-product</title><path class="cls-1" d="M370.33,308.11l25.67.08V261.87l-25.39-.05a88.64,88.64,0,0,0-8.5-20.7L380,223.41l-32.74-32.9-17.94,17.7a86.15,86.15,0,0,0-20.79-8.68l.07-21.34,13.17-13-32.74-32.9L271.11,150A90.85,90.85,0,0,0,261,145a88.85,88.85,0,0,0-10.71-3.67l.08-25H203.6l.14,24.76a88.36,88.36,0,0,0-20.81,8.45l-17.34-17.41-33.1,32.56,17.36,17.42a88.36,88.36,0,0,0-5,10,86.18,86.18,0,0,0-3.68,10.58L116,202.54v46.28l24.87.15a87.55,87.55,0,0,0,8.5,20.75l-18.31,18,32.76,32.89,13.76-13.56,21.52.14A87.9,87.9,0,0,0,207.6,328l-18.31,18,32.76,32.89,18.3-18a91.57,91.57,0,0,0,10.13,5,88.61,88.61,0,0,0,10.68,3.67v26.16l46.52,0,0-25.88a88.29,88.29,0,0,0,20.88-8.49l18.3,18.2L380,347,361.64,328.7a87.16,87.16,0,0,0,5-10A85,85,0,0,0,370.33,308.11ZM190.72,222.9l17.36,17.42a89.2,89.2,0,0,0-5,10,86.15,86.15,0,0,0-3.67,10.58l-23.57-.13a61.27,61.27,0,0,1,86-84.21L262,199.3a88.78,88.78,0,0,0-20.81,8.45l-17.34-17.41Zm94.4,123.51a61.3,61.3,0,1,1,61.29-61.29A61.3,61.3,0,0,1,285.12,346.41Z"/><path class="cls-2" d="M256,10a246.06,246.06,0,0,1,95.75,472.67A246.06,246.06,0,0,1,160.25,29.33,244.37,244.37,0,0,1,256,10m0-10C114.61,0,0,114.61,0,256S114.61,512,256,512,512,397.39,512,256,397.39,0,256,0Z"/></svg>