<?xml version="1.0" encoding="utf-8"?>
<!-- Generator: Adobe Illustrator 22.1.0, SVG Export Plug-In . SVG Version: 6.00 Build 0)  -->
<svg version="1.1" id="Ebene_1" xmlns="http://www.w3.org/2000/svg" xmlns:xlink="http://www.w3.org/1999/xlink" x="0px" y="0px"
	 viewBox="0 0 172.1 129.7" style="enable-background:new 0 0 172.1 129.7;" xml:space="preserve">
<style type="text/css">
	.st0{fill:#989898;}
	.st1{fill:none;stroke:#B51F29;stroke-width:3;stroke-miterlimit:10;}
	.st2{fill:#B51F29;}
	.st3{fill:#FFFFFF;}
</style>
<path class="st0" d="M18.5,90.6l16.1,9.3v18.5l-16.1,9.3l-16.1-9.3V99.9L18.5,90.6 M18.5,89.4L18,89.7L1.9,99l-0.5,0.3v0.6v18.5v0.6
	l0.5,0.3l16.1,9.3l0.5,0.3l0.5-0.3l16.1-9.3l0.5-0.3v-0.6V99.9v-0.6L35.1,99L19,89.7L18.5,89.4L18.5,89.4z"/>
<path class="st0" d="M35.4,61.1l16.1,9.2v18.5l-16.1,9.3l-16.1-9.3V70.3L35.4,61.1 M35.4,59.9l-0.5,0.3l-16.1,9.3l-0.5,0.3v0.6v18.5
	v0.6l0.5,0.3L34.9,99l0.5,0.3l0.5-0.3L52,89.7l0.5-0.3v-0.6V70.3v-0.6L52,69.4l-16.1-9.3L35.4,59.9L35.4,59.9z"/>
<path class="st0" d="M18.5,31.5l16.1,9.3v18.5l-16.1,9.3L2.4,59.3V40.8L18.5,31.5 M18.5,30.4L18,30.7L1.9,40l-0.5,0.3v0.6v18.5V60
	l0.5,0.3L18,69.6l0.5,0.3l0.5-0.3l16.1-9.3l0.5-0.3v-0.6V40.8v-0.6l-0.5-0.3L19,30.6L18.5,30.4L18.5,30.4z"/>
<path class="st0" d="M103,2l16.1,9.3v18.5L103,39.1l-16.1-9.3V11.3L103,2 M103,0.9l-0.5,0.3l-16.1,9.3l-0.5,0.3v0.6v18.5v0.6
	l0.5,0.3l16.1,9.2l0.5,0.3l0.5-0.3l16.1-9.3l0.5-0.3v-0.6V11.3v-0.6l-0.5-0.3l-16.1-9.2L103,0.9L103,0.9z"/>
<path class="st0" d="M119.9,31.5l16.1,9.3v18.5l-16.1,9.3l-16.1-9.3V40.8L119.9,31.5 M119.9,30.4l-0.5,0.3L103.3,40l-0.5,0.3v0.6
	v18.5V60l0.5,0.3l16.1,9.3l0.5,0.3l0.5-0.3l16.1-9.3L137,60v-0.6V40.8v-0.6l-0.5-0.3l-16.1-9.3L119.9,30.4L119.9,30.4z"/>
<path class="st0" d="M52.3,31.5l16.1,9.3v18.5l-16.1,9.3l-16.1-9.3V40.8L52.3,31.5 M52.3,30.4l-0.5,0.3L35.7,40l-0.5,0.3v0.6v18.5
	V60l0.5,0.3l16.1,9.3l0.5,0.3l0.5-0.3l16.1-9.3l0.5-0.3v-0.6V40.8v-0.6l-0.5-0.3l-16.1-9.3L52.3,30.4L52.3,30.4z"/>
<path class="st0" d="M35.4,2l16.1,9.3v18.5l-16.1,9.3l-16.1-9.3V11.3L35.4,2 M35.4,0.9l-0.5,0.3l-16.1,9.3l-0.5,0.3v0.6v18.5v0.6
	l0.5,0.3L34.9,40l0.5,0.3l0.5-0.3L52,30.7l0.5-0.3v-0.6V11.3v-0.6L52,10.4L35.9,1.2L35.4,0.9L35.4,0.9z"/>
<path class="st0" d="M69.2,2l16.1,9.3v18.5l-16.1,9.3l-16.1-9.3V11.3L69.2,2 M69.2,0.9l-0.5,0.3l-16.1,9.3l-0.5,0.3v0.6v18.5v0.6
	l0.5,0.3L68.7,40l0.5,0.3l0.5-0.3l16.1-9.3l0.5-0.3v-0.6V11.3v-0.6l-0.5-0.3L69.7,1.2L69.2,0.9L69.2,0.9z"/>
<polygon class="st1" points="36.2,99.9 36.2,118.4 52.3,127.7 68.4,118.4 68.4,99.9 52.3,90.6 "/>
<polygon class="st1" points="70,99.9 70,118.4 86.1,127.7 102.2,118.4 102.2,99.9 86.1,90.6 "/>
<polygon class="st2" points="51.6,69.5 51.6,89.8 69.2,99.9 86.8,89.8 86.8,69.5 69.2,59.3 "/>
<polygon class="st1" points="86.9,70.3 86.9,88.9 103,98.2 119.1,88.9 119.1,70.3 103,61.1 "/>
<polygon class="st1" points="70,40.8 70,59.4 86.1,68.6 102.2,59.4 102.2,40.8 86.1,31.5 "/>
<path class="st0" d="M153.7,31.5l16.1,9.3v18.5l-16.1,9.3l-16.1-9.3V40.8L153.7,31.5 M153.7,30.4l-0.5,0.3L137.1,40l-0.5,0.3v0.6
	v18.5V60l0.5,0.3l16.1,9.3l0.5,0.3l0.5-0.3l16.1-9.3l0.5-0.3v-0.6V40.8v-0.6l-0.5-0.3l-16.1-9.3L153.7,30.4L153.7,30.4z"/>
<path class="st0" d="M136.8,2l16.1,9.3v18.5l-16.1,9.3l-16.1-9.3V11.3L136.8,2 M136.8,0.9l-0.5,0.3l-16.1,9.3l-0.5,0.3v0.6v18.5v0.6
	l0.5,0.3l16.1,9.3l0.5,0.3l0.5-0.3l16.1-9.3l0.5-0.3v-0.6V11.3v-0.6l-0.5-0.3l-16.1-9.3L136.8,0.9L136.8,0.9z"/>
<path class="st0" d="M153.7,90.6l16.1,9.3v18.5l-16.1,9.3l-16.1-9.3V99.9L153.7,90.6 M153.7,89.4l-0.5,0.3L137.1,99l-0.5,0.3v0.6
	v18.5v0.6l0.5,0.3l16.1,9.3l0.5,0.3l0.5-0.3l16.1-9.3l0.5-0.3v-0.6V99.9v-0.6l-0.5-0.3l-16.1-9.3L153.7,89.4L153.7,89.4z"/>
<polygon class="st1" points="120.7,70.3 120.7,88.9 136.8,98.2 152.9,88.9 152.9,70.3 136.8,61.1 "/>
<polygon class="st1" points="103.8,99.9 103.8,118.4 119.9,127.7 136,118.4 136,99.9 119.9,90.6 "/>
<path class="st3" d="M67.2,88.5c-1.6,1.7-4.2,1.7-5.8,0.1c-1.7-1.6-1.7-4.2-0.1-5.8c1.6-1.7,4.2-1.7,5.8-0.1
	C68.7,84.3,68.8,86.9,67.2,88.5z"/>
<path class="st3" d="M78.5,79.4L78.5,79.4l0.5,1.7l-1.9,0.8l-0.9-1.5h0.1c-0.7,0.1-1.4,0.1-2,0l-0.9,1.5l-1.9-0.8l0.5-1.7h0.1
	c-0.6-0.4-1.1-0.9-1.5-1.5l0,0l-1.7,0.5l-0.8-1.9l1.5-0.9v0.1c-0.1-0.7-0.1-1.4,0-2l-1.5-0.9l0.8-1.9l1.7,0.5v0.1
	c0.3-0.3,0.5-0.7,0.8-0.9h-10c-0.7,0-1.3,0.6-1.3,1.3V80l1.2,0.9h-0.1c0.6-0.4,1.2-0.7,1.8-0.8l0,0l0.2-1.7h2l0.3,1.7h-0.1
	c0.7,0.1,1.3,0.4,1.9,0.7l1.4-1.1l1.5,1.4l-1.1,1.5L69,82.5c0.4,0.6,0.7,1.2,0.8,1.8l0,0l1.7,0.2v2l-1.6,0.3v-0.1
	c-0.1,0.7-0.4,1.3-0.7,1.9l0.9,1.2h8.1c0.7,0,1.3-0.6,1.3-1.3v-9.9C79.2,78.9,78.8,79.1,78.5,79.4z"/>
<path class="st3" d="M79,76.2c-0.9,2.1-3.4,3.2-5.5,2.2c-2.1-0.9-3.2-3.4-2.2-5.5c0.9-2.2,3.4-3.2,5.5-2.2
	C78.9,71.6,79.9,74.1,79,76.2z"/>
</svg>
