<svg id="_1" data-name="1" xmlns="http://www.w3.org/2000/svg" xmlns:xlink="http://www.w3.org/1999/xlink" viewBox="0 0 512 512"><defs><style>.cls-1{fill:#939598;}.cls-2{fill:url(#peach);}</style><linearGradient id="peach" x1="71.56" y1="256" x2="440.44" y2="256" gradientUnits="userSpaceOnUse"><stop offset="0.11" stop-color="#eb256d"/><stop offset="0.25" stop-color="#ed2c64"/><stop offset="0.48" stop-color="#f1414c"/><stop offset="0.77" stop-color="#f86224"/><stop offset="1" stop-color="#ff8000"/></linearGradient></defs><title>microservices-orchestration</title><path class="cls-1" d="M256,10a246.06,246.06,0,0,1,95.75,472.67A246.06,246.06,0,0,1,160.25,29.33,244.37,244.37,0,0,1,256,10m0-10C114.61,0,0,114.61,0,256S114.61,512,256,512,512,397.39,512,256,397.39,0,256,0Z"/><path class="cls-2" d="M366.85,384l3.48-6h0l4-6.91a2,2,0,0,0,0-2l-4-6.9-8.7-15.06-8.11-14.06a2,2,0,0,1,0-2L361.63,317l8.12-14.06a2,2,0,0,1,1.73-1h41.6a2,2,0,0,0,1.73-1L440.17,257a2,2,0,0,0,0-2l-25.36-43.93a2,2,0,0,0-1.73-1H371.48a2,2,0,0,1-1.73-1L361.63,195,353.52,181a2,2,0,0,1,0-2l8.11-14.06,8.7-15.06,4-6.89a2,2,0,0,0,0-2l-4-6.92h0L349,97a2,2,0,0,0-1.73-1H296.5a2,2,0,0,0-1.73,1L274,133a2,2,0,0,1-1.73,1H239.76a2,2,0,0,1-1.73-1l-20.8-36a2,2,0,0,0-1.73-1H164.78a2,2,0,0,0-1.73,1l-25.37,43.93a2,2,0,0,0,0,2l4,6.9,8.7,15.06L158.48,179a2,2,0,0,1,0,2L150.37,195l-8.12,14.06a2,2,0,0,1-1.73,1H98.92a2,2,0,0,0-1.73,1l-4,6.91h0L71.83,255a2,2,0,0,0,0,2L93.2,294h0L97.36,301a2,2,0,0,0,1.71,1h41.45a2,2,0,0,1,1.73,1L150.37,317l8.11,14.06a2,2,0,0,1,0,2l-8.11,14.06-8.7,15.06-4,6.94a2,2,0,0,0,0,2L163.05,415a2,2,0,0,0,1.73,1H215.5a2,2,0,0,0,1.73-1l4-6.9L229.91,393,238,379a2,2,0,0,1,1.73-1h32.48a2,2,0,0,1,1.73,1L282.09,393l8.69,15.06,4,6.9a2,2,0,0,0,1.73,1h50.72a2,2,0,0,0,1.73-1ZM348,309.08l-8.12,14.07a2,2,0,0,1-1.73,1H305.62a2,2,0,0,1-1.73-1L287.66,295a2,2,0,0,1,0-2L295.77,279l8.12-14.06a2,2,0,0,1,1.73-1H338.1a2,2,0,0,1,1.73,1L348,279,356.06,293a2,2,0,0,1,0,2Zm23.53-83.2H404a2,2,0,0,1,1.73,1L421.92,255a2,2,0,0,1,0,2l-16.23,28.12a2,2,0,0,1-1.73,1H371.48a2,2,0,0,1-1.73-1l-8.12-14.06L353.52,257a2,2,0,0,1,0-2l8.11-14.06,8.12-14.06A2,2,0,0,1,371.48,225.88ZM356.06,217a2,2,0,0,1,0,2L348,233l-8.12,14.06a2,2,0,0,1-1.73,1H305.62a2,2,0,0,1-1.73-1L295.77,233,287.66,219a2,2,0,0,1,0-2l8.11-14.06,8.12-14.07a2,2,0,0,1,1.73-1H338.1a2,2,0,0,1,1.73,1L348,202.92ZM305.62,111.81H338.1a2,2,0,0,1,1.73,1l16.23,28.12a2,2,0,0,1,0,2L348,157l-8.12,14.06a2,2,0,0,1-1.73,1H305.62a2,2,0,0,1-1.73-1L295.77,157l-8.11-14.06a2,2,0,0,1,0-2l16.23-28.12A2,2,0,0,1,305.62,111.81Zm-65.86,38h32.48a2,2,0,0,1,1.73,1l8.12,14.06L290.2,179a2,2,0,0,1,0,2L282.09,195,274,209.07a2,2,0,0,1-1.73,1H239.76a2,2,0,0,1-1.73-1L229.91,195,221.8,181a2,2,0,0,1,0-2l8.11-14.06L238,150.83A2,2,0,0,1,239.76,149.83Zm-83.82-8.9,16.23-28.12a2,2,0,0,1,1.73-1h32.48a2,2,0,0,1,1.73,1l16.23,28.12a2,2,0,0,1,0,2L216.23,157l-8.12,14.06a2,2,0,0,1-1.73,1H173.9a2,2,0,0,1-1.73-1L164.05,157l-8.11-14.06A2,2,0,0,1,155.94,140.93Zm8.11,62,8.12-14.07a2,2,0,0,1,1.73-1h32.48a2,2,0,0,1,1.73,1l8.12,14.07L224.34,217a2,2,0,0,1,0,2L216.23,233l-8.12,14.06a2,2,0,0,1-1.73,1H173.9a2,2,0,0,1-1.73-1L164.05,233,155.94,219a2,2,0,0,1,0-2Zm-23.53,83.2H108a2,2,0,0,1-1.73-1L90.08,257a2,2,0,0,1,0-2l16.23-28.12a2,2,0,0,1,1.73-1h32.48a2,2,0,0,1,1.73,1l8.12,14.06L158.48,255a2,2,0,0,1,0,2l-8.11,14.06-8.12,14.06A2,2,0,0,1,140.52,286.12Zm75.71,99-8.12,14.06a2,2,0,0,1-1.73,1H173.9a2,2,0,0,1-1.73-1l-8.12-14.06-8.11-14.06a2,2,0,0,1,0-2L164.05,355,172.17,341a2,2,0,0,1,1.73-1h32.48a2,2,0,0,1,1.73,1l16.23,28.12a2,2,0,0,1,0,2Zm56-23H239.76a2,2,0,0,1-1.73-1l-8.12-14.06-8.11-14.06a2,2,0,0,1,0-2L229.91,317,238,302.93a2,2,0,0,1,1.73-1h32.48a2,2,0,0,1,1.73,1L282.09,317l8.11,14.06a2,2,0,0,1,0,2L274,361.17A2,2,0,0,1,272.24,362.17Zm0-76.05H239.76a2,2,0,0,1-1.73-1l-8.12-14.06L221.8,257a2,2,0,0,1,0-2l8.11-14.06L238,226.88a2,2,0,0,1,1.73-1h32.48a2,2,0,0,1,1.73,1l8.12,14.06L290.2,255a2,2,0,0,1,0,2l-8.11,14.06L274,285.12A2,2,0,0,1,272.24,286.12ZM338.1,400.19H305.62a2,2,0,0,1-1.73-1l-8.12-14.06-8.11-14.06a2,2,0,0,1,0-2L303.89,341a2,2,0,0,1,1.73-1H338.1a2,2,0,0,1,1.73,1L348,355l8.11,14.06a2,2,0,0,1,0,2L348,385.13l-8.12,14.06A2,2,0,0,1,338.1,400.19Z"/></svg>