<svg id="_1" data-name="1" xmlns="http://www.w3.org/2000/svg" xmlns:xlink="http://www.w3.org/1999/xlink" viewBox="0 0 512 512"><defs><style>.cls-1{fill:#939598;}.cls-2{fill:url(#redmunda);}</style><linearGradient id="redmunda" x1="96.97" y1="257.77" x2="415.03" y2="257.77" gradientUnits="userSpaceOnUse"><stop offset="0.11" stop-color="#ff1e00"/><stop offset="0.25" stop-color="#ff2700"/><stop offset="0.48" stop-color="#ff3f00"/><stop offset="0.77" stop-color="#ff6700"/><stop offset="1" stop-color="#ff8b00"/></linearGradient></defs><title>05-rpa-robot-confused-top</title><path class="cls-1" d="M256,11.77a246.07,246.07,0,0,1,95.75,472.68A246.07,246.07,0,0,1,160.25,31.1,244.54,244.54,0,0,1,256,11.77m0-10c-141.39,0-256,114.62-256,256s114.61,256,256,256,256-114.61,256-256-114.61-256-256-256Z"/><path class="cls-2" d="M385.08,131.31c0,15.19-11.65,23.55-23.55,25.7v11.15h-13.3V148.53c13.68-.51,22.16-5.19,22.16-15.83v-1.77c0-8.36-5.44-12.41-13.67-12.41-8.74,0-14.18,5.57-16.21,13.17l-12-4.82c3.17-10.63,12-20.38,28.74-20.38S385.08,116.37,385.08,131.31Zm-36.85,66.35h13.3v-13.3h-13.3ZM296.19,344H215.82V328.14h80.38Zm22.44-96.41a30.7,30.7,0,1,0,0,61.4h0a30.7,30.7,0,0,0,0-61.4Zm0,48.11a17.41,17.41,0,1,1,0-34.82h0a17.41,17.41,0,1,1,0,34.82ZM193.37,247.57h0a30.7,30.7,0,1,0,30.7,30.69h0A30.73,30.73,0,0,0,193.37,247.57Zm0,48.11h0a17.41,17.41,0,1,1,17.41-17.41A17.43,17.43,0,0,1,193.37,295.68Zm191.7-54.82V210H275.31V186a42.08,42.08,0,1,0-57.06-18.8A42.3,42.3,0,0,0,236.69,186v24H126.93v30.87l-30-.19V346.05h30v30.88h75.6l0,32.13H309.47V376.93h75.6V346.05h30V240.68ZM129.49,332.77H110.26V254.14h19.23ZM227.2,148.65h0a28.8,28.8,0,1,1,28.8,28.8A28.83,28.83,0,0,1,227.2,148.65Zm34.82,39v24.86H250V187.7l1.44.18a36,36,0,0,0,9.16,0Zm34.17,209.41H215.81V374.37h80.38Zm75.59-33.47H140.22V223.27H371.78Zm30-30.87H382.51V254.14h19.23Z"/></svg>