<svg id="_1" data-name="1" xmlns="http://www.w3.org/2000/svg" xmlns:xlink="http://www.w3.org/1999/xlink" viewBox="0 0 512 512"><defs><style>.cls-1{fill:#939598;}.cls-2{fill:url(#redmunda);}</style><linearGradient id="redmunda" x1="96.97" y1="256" x2="415.03" y2="256" gradientUnits="userSpaceOnUse"><stop offset="0.11" stop-color="#ff1e00"/><stop offset="0.25" stop-color="#ff2700"/><stop offset="0.48" stop-color="#ff3f00"/><stop offset="0.77" stop-color="#ff6700"/><stop offset="1" stop-color="#ff8b00"/></linearGradient></defs><title>05-rpa-high-five-middle</title><path class="cls-1" d="M256,10a246.06,246.06,0,0,1,95.75,472.67A246.06,246.06,0,0,1,160.25,29.33,244.37,244.37,0,0,1,256,10m0-10C114.61,0,0,114.61,0,256S114.61,512,256,512,512,397.39,512,256,397.39,0,256,0Z"/><path class="cls-2" d="M318.63,307.4h0a30.7,30.7,0,1,0-30.7-30.69A30.73,30.73,0,0,0,318.63,307.4Zm0-48.11h0a17.42,17.42,0,1,1-17.41,17.41A17.43,17.43,0,0,1,318.63,259.29Zm66.44-20V208.43H275.31V184.9a42.5,42.5,0,1,0-38.62-.08v23.61H126.93V239.3l-30-.19V344.48h30v30.88h75.6l0,32.13H309.47V375.36h75.6V344.48h30V239.11ZM256.24,124.88c-2,0-3.15,1-3.15,3.77v20.79c0,2.75,1.24,3.73,3.15,3.73s3.15-1,3.15-3.73V144h5.72V149c0,6.17-3.1,9.67-9.05,9.67s-9-3.5-9-9.62v-20c0-6.16,3.11-9.67,9.05-9.67s9,3.51,9,9.67v3.73h-5.71v-4.12C259.39,125.94,258.15,124.88,256.24,124.88Zm-9.19,49.56V164.39H265.1v10l-.56.19H247.49Zm9,15.07a43,43,0,0,0,5.94-.43V211H250V189.06A42.21,42.21,0,0,0,256.08,189.51ZM129.49,331.2H110.26V252.57h19.23Zm166.7,64.34H215.81V372.8h80.38Zm75.59-33.46H140.22V221.7H371.78Zm30-30.88H382.51V252.57h19.23ZM193.37,307.4a30.77,30.77,0,0,0,30.7-30.7h0A30.72,30.72,0,0,0,193.37,246h0a30.7,30.7,0,0,0,0,61.39Zm0-48.11a17.42,17.42,0,0,1,0,34.83h0a17.42,17.42,0,0,1,0-34.83Zm22.44,67.28h80.38v15.85H215.82Z"/></svg>