<svg id="_1" data-name="1" xmlns="http://www.w3.org/2000/svg" xmlns:xlink="http://www.w3.org/1999/xlink" viewBox="0 0 512 512"><defs><style>.cls-1{fill:#939598;}.cls-2{fill:url(#peach);}</style><linearGradient id="peach" x1="96.97" y1="240.22" x2="415.03" y2="240.22" gradientUnits="userSpaceOnUse"><stop offset="0.11" stop-color="#eb256d"/><stop offset="0.25" stop-color="#ed2c64"/><stop offset="0.48" stop-color="#f1414c"/><stop offset="0.77" stop-color="#f86224"/><stop offset="1" stop-color="#ff8000"/></linearGradient></defs><title>rpa</title><path class="cls-1" d="M256,10a246.06,246.06,0,0,1,95.75,472.67A246.06,246.06,0,0,1,160.25,29.33,244.37,244.37,0,0,1,256,10m0-10C114.62,0,0,114.61,0,256S114.62,512,256,512,512,397.39,512,256,397.39,0,256,0Z"/><path class="cls-2" d="M295.38,326.43H216.62a7.92,7.92,0,0,1,0-15.84h78.76a7.92,7.92,0,0,1,0,15.84ZM318.63,230a30.7,30.7,0,1,0,0,61.4h0a30.7,30.7,0,0,0,0-61.4Zm0,48.11a17.41,17.41,0,1,1,0-34.82h0a17.41,17.41,0,1,1,0,34.82ZM193.37,230h0a30.7,30.7,0,1,0,30.7,30.69h0A30.73,30.73,0,0,0,193.37,230Zm0,48.11h0a17.41,17.41,0,1,1,17.41-17.41A17.43,17.43,0,0,1,193.37,278.13Zm213.74-54.82h-22v-.18a30.79,30.79,0,0,0-30.7-30.68H275.31v-24a42.08,42.08,0,1,0-57.06-18.8,42.38,42.38,0,0,0,18.44,18.8v24H157.63a30.78,30.78,0,0,0-30.7,30.69v.18h-22A7.94,7.94,0,0,0,97,231.24v89.34a7.94,7.94,0,0,0,7.92,7.92h22v.18a30.78,30.78,0,0,0,30.7,30.7h44.9l0,32.13H309.47V359.38h44.9a30.78,30.78,0,0,0,30.7-30.7v-.18h22a7.94,7.94,0,0,0,7.92-7.92V231.23A7.94,7.94,0,0,0,407.11,223.31ZM129.49,315.22H110.26V236.59h19.23ZM227.2,131.1h0A28.8,28.8,0,1,1,256,159.9,28.83,28.83,0,0,1,227.2,131.1ZM262,170.15V195H250V170.15l1.45.18a36,36,0,0,0,9.16,0Zm34.17,209.41H215.81V356.82h80.38Zm75.59-50.88a17.46,17.46,0,0,1-17.41,17.41H157.63a17.46,17.46,0,0,1-17.41-17.41V223.13a17.46,17.46,0,0,1,17.41-17.41H354.37a17.46,17.46,0,0,1,17.41,17.41Zm30-13.46H382.51V236.59h19.23Z"/></svg>