<svg id="_1" data-name="1" xmlns="http://www.w3.org/2000/svg" xmlns:xlink="http://www.w3.org/1999/xlink" viewBox="0 0 512 512"><defs><style>.cls-1{fill:#939598;}.cls-2{fill:url(#redmunda);}</style><linearGradient id="redmunda" x1="71.25" y1="256" x2="440.75" y2="256" gradientUnits="userSpaceOnUse"><stop offset="0.11" stop-color="#ff1e00"/><stop offset="0.25" stop-color="#ff2700"/><stop offset="0.48" stop-color="#ff3f00"/><stop offset="0.77" stop-color="#ff6700"/><stop offset="1" stop-color="#ff8b00"/></linearGradient></defs><title>microservices-orchestration</title><path class="cls-1" d="M256,10a246.06,246.06,0,0,1,95.75,472.67A246.06,246.06,0,0,1,160.25,29.33,244.37,244.37,0,0,1,256,10m0-10C114.61,0,0,114.61,0,256S114.61,512,256,512,512,397.39,512,256,397.39,0,256,0Z"/><path class="cls-2" d="M366.85,384l3.48-6h0l4.56-7.91-4.56-7.9-8.7-15.06-8.69-15.06L361.63,317l8.7-15.06h43.9L440.75,256l-26.5-45.93H370.33L361.63,195,352.94,180l8.69-15.06,8.7-15.06,4.57-7.89L370.33,134h0L348.38,96h-53l-21.95,38H238.61l-22-38h-53l-26.51,45.93,4.56,7.9,8.7,15.06L159.06,180,150.37,195l-8.7,15.06H97.76L93.2,218h0l-22,38,22,38h0l4.74,7.91h43.73l8.7,15.06,8.69,15.06-8.69,15.06-8.7,15.06-4.54,7.94L163.62,416h53l4.56-7.9L229.91,393l8.7-15.06h34.78l8.7,15.06,8.69,15.06,4.56,7.9h53ZM348,309.08l-8.7,15.07H304.47L287.08,294,295.77,279l8.7-15.06h34.78L348,279,356.64,294Zm22.38-83.2h34.78L422.5,256l-17.39,30.12H370.33l-8.7-15.06L352.94,256l8.69-15.06ZM356.64,218,348,233l-8.7,15.06H304.47L295.77,233,287.08,218l8.69-15.06,8.7-15.07h34.78l8.7,15.07ZM304.47,111.81h34.78l17.39,30.12L348,157l-8.7,15.06H304.47L295.77,157l-8.69-15.06Zm-65.86,38h34.78l8.7,15.06L290.78,180,282.09,195l-8.7,15.06H238.61L229.91,195,221.22,180l8.69-15.06Zm-83.25-7.9,17.39-30.12h34.78l17.39,30.12L216.23,157l-8.7,15.06H172.75L164.05,157Zm8.69,61,8.7-15.07h34.78l8.7,15.07L224.92,218,216.23,233l-8.7,15.06H172.75L164.05,233,155.36,218Zm-22.38,83.2H106.89L89.5,256l17.39-30.12h34.78l8.7,15.06L159.06,256l-8.69,15.06Zm74.56,99-8.7,15.06H172.75l-8.7-15.06-8.69-15.06L164.05,355l8.7-15.06h34.78l17.39,30.12Zm57.16-23H238.61l-8.7-15.06-8.69-15.06L229.91,317l8.7-15.06h34.78l8.7,15.06,8.69,15.06Zm0-76.05H238.61l-8.7-15.06L221.22,256l8.69-15.06,8.7-15.06h34.78l8.7,15.06L290.78,256l-8.69,15.06Zm65.86,114.07H304.47l-8.7-15.06-8.69-15.06L304.47,340h34.78L348,355l8.69,15.06L348,385.13Z"/></svg>