<svg id="_1" data-name="1" xmlns="http://www.w3.org/2000/svg" xmlns:xlink="http://www.w3.org/1999/xlink" viewBox="0 0 512 512"><defs><style>.cls-1{fill:#939598;}.cls-2{fill:url(#redmunda);}</style><linearGradient id="redmunda" x1="148.5" y1="256" x2="363.5" y2="256" gradientUnits="userSpaceOnUse"><stop offset="0.11" stop-color="#ff1e00"/><stop offset="0.25" stop-color="#ff2700"/><stop offset="0.48" stop-color="#ff3f00"/><stop offset="0.77" stop-color="#ff6700"/><stop offset="1" stop-color="#ff8b00"/></linearGradient></defs><title>rocket</title><path class="cls-1" d="M256,10a246.06,246.06,0,0,1,95.75,472.67A246.06,246.06,0,0,1,160.25,29.33,244.37,244.37,0,0,1,256,10m0-10C114.61,0,0,114.61,0,256S114.61,512,256,512,512,397.38,512,256,397.39,0,256,0Z"/><path class="cls-2" d="M237.47,229.81C237.56,217.16,243.84,210,256,210s18.47,7.19,18.47,19.84v7.64H262.79V229c0-5.64-2.55-7.83-6.46-7.83s-6.47,2.09-6.47,7.74v42.66c0,5.65,2.55,7.65,6.47,7.65s6.46-2,6.46-7.65V260.3h11.73v10.46c-.08,12.65-6.36,19.84-18.56,19.84s-18.47-7.19-18.47-19.75Zm37,93.36h-37V302.25h37Zm45.74-85V179L255.92,53.36,191.75,179v59.15L148.5,286.41V364.3h215V286.41ZM255.94,90.71l41.91,81.87H214.14ZM191.75,347.3H165.5V292.92l26.25-29.27Zm111.5,0h-94.5V189.58h94.5V347.3Zm43.25,0H320.25V263.65l26.25,29.27ZM208.81,436.64h17v-44h-17Zm38.8,22h16.78v-66H247.61Zm38.58-22h17v-44h-17Zm38.68-22h17v-22h-17Zm-154.74,0h17v-22h-17Z"/></svg>