<?xml version="1.0" encoding="utf-8"?>
<!-- Generator: Adobe Illustrator 24.0.2, SVG Export Plug-In . SVG Version: 6.00 Build 0)  -->
<svg version="1.1" id="Ebene_1" xmlns="http://www.w3.org/2000/svg" xmlns:xlink="http://www.w3.org/1999/xlink" x="0px" y="0px"
	 viewBox="0 0 280 165.2" style="enable-background:new 0 0 280 165.2;" xml:space="preserve">
<style type="text/css">
	.st0{fill:url(#SVGID_1_);}
	.st1{fill:#FFFFFF;}
	.st2{enable-background:new    ;}
</style>
<title>Camunda_Certified_Advanced_Partner_Icon</title>
<linearGradient id="SVGID_1_" gradientUnits="userSpaceOnUse" x1="0" y1="1524.48" x2="280" y2="1524.48" gradientTransform="matrix(1 0 0 1 0 -1441.89)">
	<stop  offset="0.12" style="stop-color:#EB256D"/>
	<stop  offset="0.26" style="stop-color:#EC2A67"/>
	<stop  offset="0.44" style="stop-color:#EF3957"/>
	<stop  offset="0.65" style="stop-color:#F4513D"/>
	<stop  offset="0.87" style="stop-color:#FB7318"/>
	<stop  offset="1" style="stop-color:#FF8A00"/>
</linearGradient>
<rect class="st0" width="280" height="165.2"/>
<path class="st1" d="M52.1,77.5c7.3,0,11.2-4.3,11.2-12v-6.3h-7.1V66c0,3.4-1.5,4.6-3.8,4.6s-3.8-1.2-3.8-4.6V40.3
	c0-3.4,1.5-4.7,3.8-4.7s3.8,1.2,3.8,4.7v5.1h7.1v-4.6c0-7.5-3.8-12-11.2-12s-11.2,4.3-11.2,12v24.6C40.9,73.1,44.8,77.5,52.1,77.5z"
	/>
<path class="st1" d="M74,68.4h9.1l1.2,8.7h7.6l-7.6-47.6H73.4l-7.7,47.6h6.9L74,68.4z M78.6,37.8l3.6,24H75L78.6,37.8z"/>
<polygon class="st1" points="101.9,43.4 107.4,77.1 114.6,77.1 119.7,42.9 119.6,77.1 126.7,77.1 126.8,29.5 116.4,29.5 111.3,63.2 
	105.8,29.5 95.4,29.5 95.4,76.9 101.9,77.1 "/>
<path class="st1" d="M143,77.6c7.3,0,11.2-4.3,11.2-11.9V29.5H147v36.6c0,3.4-1.5,4.6-3.8,4.6s-3.8-1.2-3.8-4.6V29.5h-7.4v36.2
	C131.8,73.3,135.6,77.6,143,77.6z"/>
<polygon class="st1" points="165.8,42.7 175.2,77.1 182.9,77.1 182.9,29.5 176.2,29.5 176.2,58 168.6,29.5 159.2,29.5 159.2,77.1 
	165.8,77.1 "/>
<path class="st1" d="M211.2,65.3v-24c0-7.6-3.6-11.7-11.2-11.7h-11.8v47.6H200C207.6,77.1,211.2,73,211.2,65.3z M195.7,70.3v-34h4.2
	c2.4,0,3.8,1.2,3.8,4.6v24.7c0,3.4-1.5,4.6-3.8,4.6L195.7,70.3z"/>
<path class="st1" d="M222.1,68.5h9.1l1.2,8.7h7.5l-7.5-47.6h-10.9l-7.7,47.6h6.9L222.1,68.5z M226.7,37.9l3.6,24h-7.2L226.7,37.9z"
	/>
<rect x="40.9" y="84.5" class="st1" width="199.2" height="12.6"/>
<g class="st2">
	<path class="st1" d="M54.1,134.3l-1.7-5.1h-7l-1.7,5.1h-2.1l6.1-17.4h2.7l6.1,17.4H54.1z M48.9,118.9h-0.1l-2.9,8.5h6L48.9,118.9z"
		/>
	<path class="st1" d="M67.2,132.3L67.2,132.3c-0.9,1.6-2.1,2.4-3.9,2.4c-3.2,0-5.2-2.6-5.2-6.7s2-6.7,5.2-6.7c1.8,0,3.1,0.8,3.8,2.4
		h0.1v-7.7h2v18.4h-2V132.3z M67.2,130.2v-4.8c0-1.4-1.5-2.5-3.3-2.5c-2.2,0-3.6,1.5-3.6,3.8v2.2c0,2.3,1.4,3.8,3.6,3.8
		C65.7,132.8,67.2,131.9,67.2,130.2z"/>
</g>
<g class="st2">
	<path class="st1" d="M76.3,134.3l-4.5-12.8h2l2.2,6.4l1.4,4.4h0.1l1.4-4.4l2.3-6.4h1.9l-4.5,12.8H76.3z"/>
</g>
<g class="st2">
	<path class="st1" d="M94.8,134.3c-1.5,0-2.1-0.9-2.2-2.1h-0.1c-0.5,1.6-1.9,2.4-3.7,2.4c-2.7,0-4.3-1.5-4.3-3.9
		c0-2.4,1.7-3.8,5.5-3.8h2.5v-1.3c0-1.8-1-2.8-3-2.8c-1.5,0-2.6,0.7-3.3,1.9l-1.2-1.1c0.7-1.4,2.2-2.5,4.6-2.5
		c3.1,0,4.9,1.6,4.9,4.3v7.1h1.5v1.7H94.8z M92.4,130.6v-2.1h-2.6c-2.3,0-3.3,0.7-3.3,1.9v0.5c0,1.3,1,2,2.5,2
		C91,132.9,92.4,131.9,92.4,130.6z"/>
	<path class="st1" d="M98.7,134.3v-12.8h2v2.1h0.1c0.6-1.4,1.7-2.4,3.6-2.4c2.6,0,4.3,1.8,4.3,4.9v8.2h-2v-7.9c0-2.3-1-3.5-2.9-3.5
		c-1.6,0-3.1,0.8-3.1,2.4v8.9H98.7z"/>
</g>
<g class="st2">
	<path class="st1" d="M111.9,127.9c0-4.1,2.1-6.7,5.7-6.7c2.5,0,4.1,1.2,4.8,3l-1.7,0.8c-0.5-1.3-1.6-2.1-3.1-2.1
		c-2.4,0-3.6,1.6-3.6,3.9v2.2c0,2.2,1.2,3.9,3.6,3.9c1.6,0,2.8-0.8,3.5-2.2l1.4,1c-0.8,1.8-2.5,3-4.9,3
		C114,134.6,111.9,132,111.9,127.9z"/>
</g>
<g class="st2">
	<path class="st1" d="M124.3,127.9c0-4.1,2.3-6.7,5.8-6.7c3.4,0,5.5,2.6,5.5,6.3v0.9h-9.2v0.6c0,2.2,1.4,3.9,3.8,3.9
		c1.6,0,2.9-0.8,3.5-2.2l1.4,1c-0.8,1.7-2.7,2.9-5.1,2.9C126.6,134.6,124.3,132,124.3,127.9z M126.4,126.8v0.2h7.1v-0.3
		c0-2.3-1.4-3.8-3.4-3.8C127.9,122.9,126.4,124.5,126.4,126.8z"/>
	<path class="st1" d="M147.1,132.3L147.1,132.3c-0.9,1.6-2.1,2.4-3.9,2.4c-3.2,0-5.2-2.6-5.2-6.7s2-6.7,5.2-6.7
		c1.8,0,3.1,0.8,3.8,2.4h0.1v-7.7h2v18.4h-2V132.3z M147.1,130.2v-4.8c0-1.4-1.5-2.5-3.3-2.5c-2.2,0-3.6,1.5-3.6,3.8v2.2
		c0,2.3,1.4,3.8,3.6,3.8C145.6,132.8,147.1,131.9,147.1,130.2z"/>
</g>
<g class="st2">
	<path class="st1" d="M159.4,134.3V117h6.9c3.1,0,4.9,1.9,4.9,5c0,3.1-1.7,5-4.9,5h-4.8v7.4H159.4z M161.5,125.1h4.8
		c1.6,0,2.6-0.9,2.6-2.5v-1.3c0-1.6-1-2.5-2.6-2.5h-4.8V125.1z"/>
</g>
<g class="st2">
	<path class="st1" d="M183.3,134.3c-1.5,0-2.1-0.9-2.2-2.1H181c-0.5,1.6-1.9,2.4-3.7,2.4c-2.7,0-4.3-1.5-4.3-3.9
		c0-2.4,1.7-3.8,5.5-3.8h2.5v-1.3c0-1.8-1-2.8-3-2.8c-1.5,0-2.6,0.7-3.3,1.9l-1.2-1.1c0.7-1.4,2.2-2.5,4.6-2.5
		c3.1,0,4.9,1.6,4.9,4.3v7.1h1.5v1.7H183.3z M181,130.6v-2.1h-2.6c-2.3,0-3.3,0.7-3.3,1.9v0.5c0,1.3,1,2,2.5,2
		C179.6,132.9,181,131.9,181,130.6z"/>
</g>
<g class="st2">
	<path class="st1" d="M187.3,134.3v-12.8h2v2.4h0.1c0.4-1.2,1.6-2.4,3.7-2.4h0.8v2h-1.2c-2.1,0-3.4,0.9-3.4,2.1v8.7H187.3z"/>
</g>
<g class="st2">
	<path class="st1" d="M199.3,134.3c-1.4,0-2.1-0.9-2.1-2.1v-9h-2.1v-1.7h1.2c0.8,0,1.1-0.3,1.1-1.2v-2.4h1.8v3.6h2.8v1.7h-2.8v9.4
		h2.6v1.7H199.3z"/>
	<path class="st1" d="M205.2,134.3v-12.8h2v2.1h0.1c0.6-1.4,1.7-2.4,3.6-2.4c2.6,0,4.3,1.8,4.3,4.9v8.2h-2v-7.9c0-2.3-1-3.5-2.9-3.5
		c-1.6,0-3.1,0.8-3.1,2.4v8.9H205.2z"/>
	<path class="st1" d="M218.4,127.9c0-4.1,2.3-6.7,5.8-6.7c3.4,0,5.5,2.6,5.5,6.3v0.9h-9.2v0.6c0,2.2,1.4,3.9,3.8,3.9
		c1.6,0,2.9-0.8,3.5-2.2l1.4,1c-0.8,1.7-2.7,2.9-5.1,2.9C220.7,134.6,218.4,132,218.4,127.9z M220.5,126.8v0.2h7.1v-0.3
		c0-2.3-1.4-3.8-3.4-3.8C222,122.9,220.5,124.5,220.5,126.8z"/>
	<path class="st1" d="M233,134.3v-12.8h2v2.4h0.1c0.4-1.2,1.6-2.4,3.7-2.4h0.8v2h-1.2c-2.1,0-3.4,0.9-3.4,2.1v8.7H233z"/>
</g>
</svg>
