<svg id="Ebene_1" data-name="Ebene 1" xmlns="http://www.w3.org/2000/svg" xmlns:xlink="http://www.w3.org/1999/xlink" viewBox="0 0 280 165.18"><defs><style>.cls-1{fill:url(#linear-gradient);}.cls-2{fill:#fff;}</style><linearGradient id="linear-gradient" y1="-1479.48" x2="280" y2="-1479.48" gradientTransform="matrix(1, 0, 0, -1, 0, -1396.89)" gradientUnits="userSpaceOnUse"><stop offset="0.12" stop-color="#eb256d"/><stop offset="0.26" stop-color="#ec2a67"/><stop offset="0.44" stop-color="#ef3957"/><stop offset="0.65" stop-color="#f4513d"/><stop offset="0.87" stop-color="#fb7318"/><stop offset="1" stop-color="#ff8a00"/></linearGradient></defs><title>Camunda_Certified_Partner_Icon_4</title><rect class="cls-1" width="280" height="165.18"/><path class="cls-2" d="M52.1,77.51c7.32,0,11.16-4.28,11.16-12V59.25h-7.1V66c0,3.38-1.47,4.62-3.84,4.62S48.49,69.4,48.49,66V40.31c0-3.38,1.47-4.73,3.83-4.73s3.84,1.24,3.84,4.73v5.08h7.1V40.76c0-7.55-3.84-11.95-11.16-11.95s-11.16,4.29-11.16,12V65.45C40.94,73.12,44.77,77.51,52.1,77.51Z"/><path class="cls-2" d="M74,68.38H83.1l1.24,8.68h7.55L84.34,29.49H73.4L65.74,77.06h6.87Zm4.62-30.55,3.61,24H75Z"/><polygon class="cls-2" points="101.92 43.36 107.45 77.06 114.55 77.06 119.74 42.91 119.63 77.06 126.73 77.06 126.84 29.49 116.36 29.49 111.28 63.2 105.76 29.49 95.39 29.49 95.39 76.95 101.92 77.06 101.92 43.36"/><path class="cls-2" d="M143,77.63c7.33,0,11.16-4.29,11.16-11.95V29.49H147V66.13c0,3.38-1.47,4.62-3.83,4.62s-3.84-1.24-3.84-4.62V29.49h-7.44V65.68C131.8,73.34,135.63,77.63,143,77.63Z"/><polygon class="cls-2" points="165.84 42.68 175.2 77.06 182.87 77.06 182.87 29.49 176.22 29.49 176.22 58.01 168.55 29.49 159.19 29.49 159.19 77.06 165.84 77.06 165.84 42.68"/><path class="cls-2" d="M211.16,65.34v-24c0-7.56-3.6-11.73-11.16-11.73H188.17V77.18H200C207.56,77.06,211.16,73,211.16,65.34Zm-15.44,5V36.37h4.17c2.37,0,3.83,1.24,3.83,4.62V65.68c0,3.38-1.46,4.62-3.83,4.62Z"/><path class="cls-2" d="M222.1,68.5h9.13l1.24,8.68H240L232.47,29.6H221.54l-7.67,47.58h6.88Zm4.62-30.56,3.61,24h-7.22Z"/><rect class="cls-2" x="40.94" y="84.5" width="199.2" height="12.63"/><path class="cls-2" d="M41.43,126.61c0-6.29,2.84-9.86,7.59-9.86a6.66,6.66,0,0,1,6.48,4.13L53.66,122A4.72,4.72,0,0,0,49,118.78c-3.24,0-5.16,2.56-5.16,6.42V128c0,3.86,1.92,6.21,5.16,6.21a4.9,4.9,0,0,0,4.81-3.4L55.64,132A7,7,0,0,1,49,136.25C44.27,136.25,41.43,132.9,41.43,126.61Z"/><path class="cls-2" d="M57.91,129c0-4.43,2.48-7.29,6.26-7.29s6,2.86,6,6.8v1h-10v.65a3.94,3.94,0,0,0,4.13,4.21,4,4,0,0,0,3.83-2.4l1.54,1.1a5.85,5.85,0,0,1-5.51,3.19C60.39,136.25,57.91,133.39,57.91,129Zm2.27-1.27v.19h7.69v-.3c0-2.46-1.48-4.11-3.7-4.11A4,4,0,0,0,60.18,127.69Z"/><path class="cls-2" d="M73.76,135.93V122h2.16v2.57h.14a4,4,0,0,1,4-2.57h.84v2.16H79.65c-2.32,0-3.73,1-3.73,2.32v9.46Z"/><path class="cls-2" d="M86.86,135.93a2.13,2.13,0,0,1-2.29-2.3v-9.75h-2.3V122h1.3c.92,0,1.21-.32,1.21-1.27v-2.59h2V122h3v1.89h-3V134h2.83v1.89Z"/><path class="cls-2" d="M93,117.51v-.35c0-.73.41-1.22,1.33-1.22s1.32.49,1.32,1.22v.35c0,.73-.41,1.21-1.32,1.21S93,118.24,93,117.51Zm.25,4.48h2.16v13.94H93.27Z"/><path class="cls-2" d="M100.78,123.88H98.51V122h2.27v-2.81c0-1.92,1-3.24,3-3.24h2.1v1.89h-3V122h7.8v13.94h-2.16V123.88h-5.64v12.05h-2.16Zm7.56-6.37v-.35c0-.73.4-1.22,1.32-1.22s1.32.49,1.32,1.22v.35c0,.73-.4,1.21-1.32,1.21S108.34,118.24,108.34,117.51Z"/><path class="cls-2" d="M114.31,129c0-4.43,2.48-7.29,6.26-7.29s6,2.86,6,6.8v1h-10v.65a4,4,0,0,0,4.13,4.21,4,4,0,0,0,3.83-2.4l1.54,1.1a5.85,5.85,0,0,1-5.51,3.19C116.79,136.25,114.31,133.39,114.31,129Zm2.27-1.27v.19h7.69v-.3c0-2.46-1.48-4.11-3.7-4.11A4,4,0,0,0,116.58,127.69Z"/><path class="cls-2" d="M139.08,133.66H139a4.2,4.2,0,0,1-4.08,2.59c-3.48,0-5.67-2.84-5.67-7.29s2.19-7.29,5.67-7.29a4.06,4.06,0,0,1,4.08,2.59h.11v-8.32h2.16v20h-2.16Zm0-2.19v-5.19c0-1.54-1.62-2.67-3.59-2.67-2.44,0-4,1.67-4,4.16v2.38c0,2.48,1.51,4.16,4,4.16C137.46,134.31,139.08,133.28,139.08,131.47Z"/><path class="cls-2" d="M152.42,135.93V117.07h7.51c3.38,0,5.27,2.08,5.27,5.41s-1.89,5.4-5.27,5.4h-5.24v8.05Zm2.27-10.05h5.24a2.53,2.53,0,0,0,2.84-2.7v-1.41a2.53,2.53,0,0,0-2.84-2.7h-5.24Z"/><path class="cls-2" d="M178.43,135.93a2.25,2.25,0,0,1-2.4-2.27h-.14a3.92,3.92,0,0,1-4,2.59c-2.94,0-4.67-1.62-4.67-4.21s1.89-4.08,5.94-4.08h2.75v-1.38c0-2-1.08-3-3.29-3a3.89,3.89,0,0,0-3.54,2.08l-1.29-1.22a5.29,5.29,0,0,1,4.94-2.72c3.35,0,5.35,1.75,5.35,4.7V134h1.59v1.89Zm-2.54-4.06v-2.29H173c-2.46,0-3.56.75-3.56,2.11v.56c0,1.38,1.08,2.16,2.75,2.16C174.36,134.41,175.89,133.31,175.89,131.87Z"/><path class="cls-2" d="M182.73,135.93V122h2.16v2.57H185a4,4,0,0,1,4-2.57h.84v2.16h-1.27c-2.33,0-3.73,1-3.73,2.32v9.46Z"/><path class="cls-2" d="M195.83,135.93a2.13,2.13,0,0,1-2.29-2.3v-9.75h-2.3V122h1.3c.91,0,1.21-.32,1.21-1.27v-2.59h1.95V122h3.05v1.89H195.7V134h2.83v1.89Z"/><path class="cls-2" d="M202.23,135.93V122h2.16v2.27h.11a4,4,0,0,1,3.95-2.59c2.86,0,4.67,1.94,4.67,5.32v8.94H211v-8.57c0-2.48-1.08-3.75-3.16-3.75-1.73,0-3.41.86-3.41,2.65v9.67Z"/><path class="cls-2" d="M216.55,129c0-4.43,2.48-7.29,6.27-7.29s6,2.86,6,6.8v1h-10v.65a4,4,0,0,0,4.13,4.21,4,4,0,0,0,3.84-2.4l1.54,1.1a5.86,5.86,0,0,1-5.51,3.19C219,136.25,216.55,133.39,216.55,129Zm2.27-1.27v.19h7.7v-.3c0-2.46-1.49-4.11-3.7-4.11A4,4,0,0,0,218.82,127.69Z"/><path class="cls-2" d="M232.41,135.93V122h2.16v2.57h.13a4,4,0,0,1,4-2.57h.83v2.16h-1.27c-2.32,0-3.72,1-3.72,2.32v9.46Z"/></svg>