<?xml version="1.0" encoding="utf-8"?>
<!-- Generator: Adobe Illustrator 21.1.0, SVG Export Plug-In . SVG Version: 6.00 Build 0)  -->
<svg version="1.1" id="Ebene_1" xmlns="http://www.w3.org/2000/svg" xmlns:xlink="http://www.w3.org/1999/xlink" x="0px" y="0px"
	 viewBox="0 0 133 132.5" style="enable-background:new 0 0 133 132.5;" xml:space="preserve">
<style type="text/css">
	.st0{clip-path:url(#SVGID_1_);fill:none;stroke:#999999;stroke-miterlimit:10;}
	.st1{clip-path:url(#SVGID_2_);fill:none;stroke:#999999;stroke-miterlimit:10;}
	.st2{fill:none;stroke:#999999;stroke-miterlimit:10;}
	.st3{fill:url(#SVGID_3_);}
	.st4{fill:none;stroke:#00A8FF;stroke-width:3;stroke-miterlimit:10;}
</style>
<g>
	<g>
		<g>
			<g>
				<defs>
					<path id="SVGID_7_" d="M66.2,3.6C31.7,3.6,3.5,31.7,3.5,66.2s28.1,62.7,62.7,62.7S129,100.8,129,66.2S100.8,3.6,66.2,3.6z"/>
				</defs>
				<clipPath id="SVGID_1_">
					<use xlink:href="#SVGID_7_"  style="overflow:visible;"/>
				</clipPath>
				<circle class="st0" cx="66.2" cy="66.2" r="62.7"/>
			</g>
		</g>
		<g>
			<g>
				<defs>
					<path id="SVGID_10_" d="M66.2,3.6C31.7,3.6,3.5,31.7,3.5,66.2s28.1,62.7,62.7,62.7S129,100.8,129,66.2S100.8,3.6,66.2,3.6z"/>
				</defs>
				<clipPath id="SVGID_2_">
					<use xlink:href="#SVGID_10_"  style="overflow:visible;"/>
				</clipPath>
				<circle class="st1" cx="66.2" cy="66.2" r="62"/>
			</g>
		</g>
		<g>
			<path id="SVGID_8_" class="st2" d="M66.2,3.6C31.7,3.6,3.5,31.7,3.5,66.2s28.1,62.7,62.7,62.7S129,100.8,129,66.2
				S100.8,3.6,66.2,3.6z"/>
		</g>
	</g>
	<g>
		<g>
			
				<linearGradient id="SVGID_3_" gradientUnits="userSpaceOnUse" x1="79.79" y1="-38.34" x2="94.7037" y2="-53.2537" gradientTransform="matrix(1 0 0 1 0 92)">
				<stop  offset="0" style="stop-color:#333333"/>
				<stop  offset="1" style="stop-color:#808080"/>
			</linearGradient>
			<path class="st3" d="M85.2,48.2H78v-3.2h7.2v-7.4h3.2v7.4h7.2v3.2h-7.2v7.3h-3.2V48.2z"/>
		</g>
		<g>
			<path class="st4" d="M67.3,45.2c3.8,2.2,5.9,6.4,5.9,11.9c0,9.3-5.7,18.5-11.4,18.5c-5.8,0-11.4-9.2-11.4-18.5
				c0-5.5,2.1-9.7,5.9-11.9c1.7-1,3.6-1.5,5.5-1.5S65.7,44.2,67.3,45.2z"/>
			<path class="st4" d="M85.8,85.1l1.4,4.4c0.2,0.6,0.1,1.3-0.2,1.9c-0.4,0.5-0.9,0.9-1.5,0.9h-47c-0.6,0-1.2-0.3-1.5-0.9
				c-0.3-0.5-0.4-1.2-0.3-1.9l1.4-4.4c2.1-6.8,7.5-11.8,14-12.8c2.9,3.1,6.3,4.7,9.9,4.7c3.6,0,7-1.6,9.9-4.7
				C78.2,73.2,83.7,78.2,85.8,85.1z"/>
		</g>
	</g>
</g>
</svg>
