<?xml version="1.0" encoding="utf-8"?>
<!-- Generator: Adobe Illustrator 24.1.1, SVG Export Plug-In . SVG Version: 6.00 Build 0)  -->
<svg version="1.1" id="Camunda_Stack" xmlns="http://www.w3.org/2000/svg" xmlns:xlink="http://www.w3.org/1999/xlink" x="0px"
	 y="0px" viewBox="0 0 1366 461" style="enable-background:new 0 0 1366 461;" xml:space="preserve">
<style type="text/css">
	.st0{fill:#808082;}
	.st1{clip-path:url(#SVGID_2_);fill:url(#SVGID_3_);}
	.st2{fill:#FFFFFF;}
	.st3{fill:url(#SVGID_4_);}
	.st4{fill:url(#SVGID_5_);}
	.st5{clip-path:url(#SVGID_7_);fill:url(#SVGID_8_);}
	.st6{clip-path:url(#SVGID_10_);fill:url(#SVGID_11_);}
	.st7{clip-path:url(#SVGID_13_);fill:url(#SVGID_14_);}
	.st8{clip-path:url(#SVGID_16_);fill:url(#SVGID_17_);}
	.st9{clip-path:url(#SVGID_19_);fill:url(#SVGID_20_);}
	.st10{clip-path:url(#SVGID_22_);fill:url(#SVGID_23_);}
	.st11{opacity:0.75;}
	.st12{fill:#D9DADB;}
</style>
<path d="M180.5,21.6h6.4c4.5,0,7.5,2.9,7.5,8.5s-3,8.5-7.5,8.5h-6.4V21.6z M186.9,35.4c2.2,0,3.6-1.2,3.6-3.9v-2.6
	c0-2.7-1.4-3.9-3.6-3.9h-2.7v10.4H186.9z"/>
<path d="M197.6,38.7v-17h11.6V25h-7.9v3.5h6.8v3.3h-6.8v3.7h7.9v3.3L197.6,38.7z"/>
<path d="M211.5,36.2l2.4-2.5c1.1,1.3,2.6,2,4.3,2c1.8,0,2.7-0.8,2.7-2c0-0.9-0.4-1.6-2-1.8l-1.7-0.2c-3.6-0.5-5.2-2.2-5.2-5.1
	c0-3,2.4-5.2,6.4-5.2c2.2-0.1,4.4,0.8,5.9,2.4l-2.5,2.5c-0.9-1.1-2.3-1.7-3.7-1.6c-1.7,0-2.5,0.6-2.5,1.7c0,1.2,0.6,1.6,2,1.8
	l1.7,0.3c3.5,0.6,5.2,2.1,5.2,5c0,3.3-2.4,5.5-6.7,5.5C215.5,39.1,213.1,38,211.5,36.2z"/>
<path d="M227.1,38.7v-2.9h2.2V24.6h-2.2v-3h8.1v3H233v11.1h2.2v3H227.1z"/>
<path d="M249.1,36H249c-0.2,1.7-1.8,3-4.4,3c-3.9,0-7-3-7-8.7s3.1-8.9,7.7-8.9c2.8-0.1,5.4,1.4,6.6,4l-3,1.7c-0.5-1.5-2-2.5-3.6-2.4
	c-2.3,0-3.8,1.3-3.8,4.1v2.7c0,2.8,1.5,4.2,3.8,4.2c1.9,0,3.4-0.9,3.4-2.5v-0.9h-3.2v-3.1h6.7v9.5h-3.1L249.1,36z"/>
<path d="M261.1,30.6l-1.6-3.4h-0.1v11.5h-3.5v-17h4.1l4.7,8l1.6,3.4h0.1V21.6h3.5v17h-4.1L261.1,30.6z"/>
<path d="M631.5,38.7l-1.2-4h-5.7l-1.2,4h-3.8l5.6-17h4.6l5.6,17H631.5z M627.5,25L627.5,25l-2,6.5h3.9L627.5,25z"/>
<path d="M640.7,21.6V32c0,2.4,0.9,3.6,3.1,3.6s3.1-1.2,3.1-3.6V21.6h3.6v10.1c0,5-1.8,7.3-6.7,7.3s-6.7-2.2-6.7-7.3V21.6H640.7z"/>
<path d="M661.3,24.9v13.7h-3.7V24.9H653v-3.3h13v3.3H661.3z"/>
<path d="M667.2,30.2c0-5.8,3-8.8,7.5-8.8s7.5,3,7.5,8.8s-3,8.8-7.5,8.8S667.2,36,667.2,30.2z M678.3,31.4v-2.5
	c0-2.7-1.3-4.3-3.6-4.3s-3.6,1.5-3.6,4.3v2.5c0,2.7,1.3,4.3,3.6,4.3S678.3,34.2,678.3,31.4z"/>
<path d="M698.2,27.5L698.2,27.5l-1.3,2.5l-3.3,6l-3.3-6l-1.3-2.7h-0.1v11.4h-3.5v-17h3.9l4.2,8l0,0l4.1-8h4v17h-3.5L698.2,27.5z"/>
<path d="M716,38.7l-1.2-4h-5.7l-1.2,4h-3.8l5.6-17h4.6l5.6,17H716z M712,25L712,25l-2,6.5h3.9L712,25z"/>
<path d="M727.8,24.9v13.7H724V24.9h-4.6v-3.3h13v3.3H727.8z"/>
<path d="M734.9,38.7v-17h11.6V25h-7.9v3.5h6.8v3.3h-6.8v3.7h7.9v3.3L734.9,38.7z"/>
<path d="M1090.8,38.7v-2.9h2.2V24.6h-2.2v-3h8.1v3h-2.2v11.1h2.2v3H1090.8z"/>
<path d="M1114.8,27.5L1114.8,27.5l-1.3,2.5l-3.3,6l-3.3-6l-1.3-2.7h-0.1v11.4h-3.5v-17h4l4.2,8l0,0l4.1-8h4v17h-3.5L1114.8,27.5z"/>
<path d="M1122.1,38.7v-17h8.1c3.2,0,5.2,2.2,5.2,5.4s-2,5.4-5.2,5.4h-4.4v6.2H1122.1z M1125.8,29.3h3.9c0.9,0.1,1.7-0.5,1.8-1.4
	c0-0.1,0-0.2,0-0.3v-1.1c0.1-0.9-0.6-1.6-1.5-1.7c-0.1,0-0.2,0-0.3,0h-3.9V29.3z"/>
<path d="M1141.9,38.7h-3.7v-17h8.1c3.2,0,5.2,2.2,5.2,5.4c0.2,2.1-1.1,4.1-3.1,4.9l3.3,6.7h-4.1l-3-6.3h-2.7L1141.9,38.7z
	 M1145.8,29.3c0.9,0.1,1.7-0.5,1.8-1.4c0-0.1,0-0.2,0-0.3v-1.1c0.1-0.9-0.6-1.6-1.5-1.7c-0.1,0-0.2,0-0.3,0h-3.9v4.4L1145.8,29.3z"
	/>
<path d="M1153.8,30.2c0-5.8,3-8.8,7.5-8.8s7.5,3,7.5,8.8s-3,8.8-7.5,8.8S1153.8,36,1153.8,30.2z M1164.8,31.4v-2.5
	c0-2.7-1.3-4.3-3.6-4.3s-3.6,1.5-3.6,4.3v2.5c0,2.7,1.3,4.3,3.6,4.3S1164.8,34.2,1164.8,31.4z"/>
<path d="M1175.1,38.7l-5.5-17h3.8l2.5,8.2l1.3,5.3h0.1l1.3-5.3l2.6-8.2h3.7l-5.6,17H1175.1z"/>
<path d="M1187.1,38.7v-17h11.6V25h-7.9v3.5h6.8v3.3h-6.8v3.7h7.9v3.3L1187.1,38.7z"/>
<path class="st0" d="M621.8,439.1v9.9c0,2.5-1.7,4.2-4.6,4.2c-2.3,0.2-4.4-1.6-4.6-3.9l2.8-0.5c0.2,1.2,0.8,1.8,1.7,1.8
	c0.8,0,1.6-0.6,1.6-1.5c0-0.1,0-0.2,0-0.3v-7.3h-4.2v-2.4L621.8,439.1z"/>
<path class="st0" d="M632.9,453l-1-3.3h-4.6l-1,3.3h-3.1l4.6-13.9h3.7L636,453H632.9z M629.6,441.9L629.6,441.9l-1.6,5.3h3.2
	L629.6,441.9z"/>
<path class="st0" d="M640.1,453l-4.5-13.9h3.1l2.1,6.6l1.1,4.4h0.1l1.1-4.4l2.1-6.6h3l-4.6,13.9H640.1z"/>
<path class="st0" d="M657.3,453l-1-3.3h-4.6l-1,3.3h-3l4.6-13.9h3.7l4.5,13.9H657.3z M654,441.9L654,441.9l-1.6,5.3h3.2L654,441.9z"
	/>
<path class="st0" d="M660.9,456l5.9-17.7h2.4l-5.9,17.7H660.9z"/>
<path class="st0" d="M674.5,453h-3v-13.9h6.6c2.6,0,4.2,1.8,4.2,4.4c0.1,1.7-0.9,3.4-2.5,4l2.7,5.4h-3.4l-2.4-5.1h-2.2L674.5,453z
	 M677.7,445.4c0.7,0.1,1.3-0.4,1.4-1.1c0-0.1,0-0.2,0-0.3v-0.9c0-0.7-0.5-1.3-1.2-1.4c-0.1,0-0.2,0-0.3,0h-3.2v3.6L677.7,445.4
	L677.7,445.4z"/>
<path class="st0" d="M684.9,453v-13.9h9.5v2.7H688v2.8h5.5v2.7H688v3h6.4v2.7L684.9,453L684.9,453z"/>
<path class="st0" d="M696.2,451l2-2c0.9,1,2.1,1.6,3.5,1.6c1.5,0,2.2-0.6,2.2-1.7c0-0.8-0.3-1.3-1.6-1.5l-1.4-0.2
	c-2.9-0.4-4.3-1.8-4.3-4.1c0-2.5,2-4.2,5.2-4.2c1.8-0.1,3.6,0.6,4.8,2l-2,2c-0.7-0.9-1.8-1.4-3-1.3c-1.3,0-2,0.5-2,1.4
	s0.5,1.3,1.7,1.5l1.4,0.2c2.8,0.5,4.2,1.7,4.2,4.1c0,2.7-2,4.5-5.4,4.5C699.5,453.3,697.6,452.5,696.2,451z"/>
<path class="st0" d="M714.8,441.8V453h-3v-11.2H708v-2.7h10.5v2.7H714.8z"/>
<path class="st0" d="M733.8,453l-1-3.3h-4.6l-1,3.3h-3.1l4.6-13.9h3.7L737,453H733.8z M730.6,441.9L730.6,441.9l-1.6,5.3h3.2
	L730.6,441.9z"/>
<path class="st0" d="M738.9,453v-13.9h6.6c2.4,0.1,4.3,2.2,4.2,4.6c-0.1,2.3-1.9,4.1-4.2,4.2H742v5L738.9,453L738.9,453z
	 M741.9,445.4h3.2c0.7,0.1,1.4-0.4,1.4-1.1c0-0.1,0-0.2,0-0.3v-0.9c0-0.7-0.5-1.3-1.2-1.4c-0.1,0-0.2,0-0.3,0h-3L741.9,445.4z"/>
<path class="st0" d="M751.5,453v-2.4h1.8v-9h-1.8v-2.4h6.6v2.4h-1.8v9h1.8v2.4H751.5z"/>
<g>
	<a id="Modeler_2_" xlink:href="#product-optimize" >
		<g>
			<g>
				<g>
					<defs>
						
							<ellipse id="SVGID_1_" transform="matrix(7.088678e-02 -0.9975 0.9975 7.088678e-02 859.9713 1330.1913)" cx="1144" cy="203.5" rx="40.4" ry="40.4"/>
					</defs>
					<clipPath id="SVGID_2_">
						<use xlink:href="#SVGID_1_"  style="overflow:visible;"/>
					</clipPath>
					
						<linearGradient id="SVGID_3_" gradientUnits="userSpaceOnUse" x1="1101.6" y1="-212.5498" x2="1187.7" y2="-212.5498" gradientTransform="matrix(1 0 0 1 -3.030800e-05 415.9997)">
						<stop  offset="0.11" style="stop-color:#FF1E00"/>
						<stop  offset="0.25" style="stop-color:#FF2700"/>
						<stop  offset="0.48" style="stop-color:#FF3F00"/>
						<stop  offset="0.77" style="stop-color:#FF6700"/>
						<stop  offset="1" style="stop-color:#FF8B00"/>
					</linearGradient>
					<rect x="1101.6" y="161" class="st1" width="86.1" height="84.9"/>
				</g>
			</g>
		</g>
	</a>
	<path class="st0" d="M1097.6,271.3c0-4.7,2.4-7.2,6.1-7.2s6.1,2.5,6.1,7.2s-2.4,7.2-6.1,7.2S1097.6,276,1097.6,271.3z
		 M1106.6,272.3v-2.1c0-2.2-1.1-3.5-2.9-3.5s-2.9,1.3-2.9,3.5v2.1c0,2.2,1.1,3.5,2.9,3.5S1106.6,274.6,1106.6,272.3L1106.6,272.3z"
		/>
	<path class="st0" d="M1112.3,278.3v-13.9h6.6c2.4,0.1,4.3,2.2,4.2,4.6c-0.1,2.3-1.9,4.1-4.2,4.2h-3.5v5L1112.3,278.3L1112.3,278.3z
		 M1115.3,270.6h3.2c0.7,0.1,1.4-0.4,1.4-1.1c0-0.1,0-0.2,0-0.3v-0.9c0.1-0.7-0.5-1.3-1.2-1.4c-0.1,0-0.2,0-0.3,0h-3.2L1115.3,270.6
		L1115.3,270.6z"/>
	<path class="st0" d="M1131.2,267.1v11.2h-3v-11.2h-3.8v-2.7h10.5v2.7H1131.2z"/>
	<path class="st0" d="M1136.4,278.3v-2.4h1.8v-9.1h-1.8v-2.4h6.6v2.4h-1.8v9h1.8v2.4L1136.4,278.3z"/>
	<path class="st0" d="M1155.9,269.2L1155.9,269.2l-1.1,2l-2.7,4.9l-2.7-4.9l-1-2.2h-0.1v9.2h-2.8v-13.8h3.2l3.4,6.5l0,0l3.4-6.5h3.2
		v13.9h-2.8V269.2z"/>
	<path class="st0" d="M1161.3,278.3v-2.4h1.8v-9.1h-1.8v-2.4h6.6v2.4h-1.8v9h1.8v2.4L1161.3,278.3z"/>
	<path class="st0" d="M1180.2,278.3h-10.5v-2.7l6.8-8.5h-6.5v-2.7h10v2.7l-6.9,8.5h7L1180.2,278.3z"/>
	<path class="st0" d="M1182.5,278.3v-13.9h9.4v2.7h-6.4v2.8h5.5v2.7h-5.5v3h6.4v2.7L1182.5,278.3z"/>
	<polygon class="st2" points="1169.8,182.3 1150.9,183.8 1154.6,189.1 1145.9,195.6 1144.7,196.6 1144.8,197.8 1146.4,217.3 
		1136,216.1 1135.7,216.1 1135.4,216.2 1119.8,224.7 1135.8,217.9 1147.8,220.4 1149.5,220.8 1149.5,218.9 1149.9,199.1 1158,194.1 
		1161.7,199.4 	"/>
</g>
<g>
	
		<linearGradient id="SVGID_4_" gradientUnits="userSpaceOnUse" x1="3924.8801" y1="1802.2" x2="4509.1802" y2="1802.2" gradientTransform="matrix(-1 0 0 1 5289.7803 -1359.7)">
		<stop  offset="0.11" style="stop-color:#FF1E00"/>
		<stop  offset="0.25" style="stop-color:#FF2700"/>
		<stop  offset="0.48" style="stop-color:#FF3F00"/>
		<stop  offset="0.77" style="stop-color:#FF6700"/>
		<stop  offset="1" style="stop-color:#FF8B00"/>
	</linearGradient>
	<rect x="780.6" y="440.6" class="st3" width="584.3" height="3.8"/>
</g>
<g>
	
		<linearGradient id="SVGID_5_" gradientUnits="userSpaceOnUse" x1="5.1" y1="434.5" x2="594.7" y2="434.5" gradientTransform="matrix(1 0 0 -1 0 877)">
		<stop  offset="0.11" style="stop-color:#FF1E00"/>
		<stop  offset="0.25" style="stop-color:#FF2700"/>
		<stop  offset="0.48" style="stop-color:#FF3F00"/>
		<stop  offset="0.77" style="stop-color:#FF6700"/>
		<stop  offset="1" style="stop-color:#FF8B00"/>
	</linearGradient>
	<rect x="5.1" y="440.6" class="st4" width="589.6" height="3.8"/>
</g>
<g>
	<a id="Tasklist" xlink:href="#product-tasklist" >
		<g>
			<g>
				<g>
					<defs>
						
							<ellipse id="SVGID_6_" transform="matrix(7.088675e-02 -0.9975 0.9975 7.088675e-02 594.767 906.2044)" cx="783.8" cy="133.8" rx="40.4" ry="40.4"/>
					</defs>
					<clipPath id="SVGID_7_">
						<use xlink:href="#SVGID_6_"  style="overflow:visible;"/>
					</clipPath>
					
						<linearGradient id="SVGID_8_" gradientUnits="userSpaceOnUse" x1="741.5" y1="-282.2499" x2="827.6" y2="-282.2499" gradientTransform="matrix(1 0 0 1 -2.956618e-05 416)">
						<stop  offset="0.11" style="stop-color:#FF1E00"/>
						<stop  offset="0.25" style="stop-color:#FF2700"/>
						<stop  offset="0.48" style="stop-color:#FF3F00"/>
						<stop  offset="0.77" style="stop-color:#FF6700"/>
						<stop  offset="1" style="stop-color:#FF8B00"/>
					</linearGradient>
					<rect x="741.5" y="91.3" class="st5" width="86.1" height="84.9"/>
				</g>
			</g>
		</g>
	</a>
	<path class="st0" d="M744.7,197.7v11.2h-3v-11.2h-3.8V195h10.5v2.7H744.7z"/>
	<path class="st0" d="M757.8,208.9l-1-3.3h-4.6l-1,3.3h-3.1l4.6-13.9h3.7l4.5,13.9H757.8z M754.5,197.7L754.5,197.7l-1.6,5.3h3.2
		L754.5,197.7z"/>
	<path class="st0" d="M762.1,206.8l2-2c0.9,1,2.1,1.6,3.5,1.6c1.5,0,2.2-0.7,2.2-1.7c0-0.8-0.3-1.3-1.6-1.5l-1.4-0.2
		c-2.9-0.4-4.3-1.8-4.3-4.1c0-2.5,2-4.2,5.2-4.2c1.8-0.1,3.6,0.6,4.8,1.9l-2,2c-0.7-0.9-1.8-1.4-3-1.3c-1.3,0-2,0.5-2,1.4
		s0.5,1.3,1.7,1.5l1.4,0.2c2.8,0.5,4.2,1.7,4.2,4.1c0,2.7-2,4.5-5.4,4.5C765.3,209.1,763.4,208.3,762.1,206.8z"/>
	<path class="st0" d="M780.1,202.8l-1.8,2.2v3.9h-3V195h3v6.6h0.1l2-2.7l3.1-3.9h3.4l-4.7,5.7l5.1,8.2h-3.6L780.1,202.8z"/>
	<path class="st0" d="M789.1,208.9V195h3v11.2h5.3v2.7H789.1z"/>
	<path class="st0" d="M799.1,208.9v-2.4h1.8v-9h-1.8V195h6.6v2.4h-1.8v9h1.8v2.4L799.1,208.9z"/>
	<path class="st0" d="M807.5,206.8l2-2c0.9,1,2.1,1.6,3.5,1.6c1.5,0,2.2-0.7,2.2-1.7c0-0.8-0.3-1.3-1.6-1.5l-1.4-0.2
		c-2.9-0.4-4.3-1.8-4.3-4.1c0-2.5,2-4.2,5.2-4.2c1.8-0.1,3.6,0.6,4.8,1.9l-2,2c-0.7-0.9-1.8-1.4-3-1.3c-1.4,0-2,0.5-2,1.4
		s0.5,1.3,1.7,1.5l1.4,0.2c2.8,0.5,4.2,1.7,4.2,4.1c0,2.7-2,4.5-5.4,4.5C810.8,209.1,808.8,208.3,807.5,206.8z"/>
	<path class="st0" d="M826,197.7v11.2h-3v-11.2h-3.8V195h10.5v2.7H826z"/>
	<polygon class="st2" points="806.2,125.1 799.5,118.4 778.9,139.1 771.4,131.6 764.7,138.3 778.9,152.5 778.9,152.5 778.9,152.5 	
		"/>
</g>
<g>
	<a id="Cockpit" xlink:href="#product-cockpit" >
		<g>
			<g>
				<g>
					<defs>
						
							<ellipse id="SVGID_9_" transform="matrix(7.088680e-02 -0.9975 0.9975 7.088680e-02 411.5906 708.8251)" cx="586.3" cy="133.5" rx="40.4" ry="40.4"/>
					</defs>
					<clipPath id="SVGID_10_">
						<use xlink:href="#SVGID_9_"  style="overflow:visible;"/>
					</clipPath>
					
						<linearGradient id="SVGID_11_" gradientUnits="userSpaceOnUse" x1="543.9" y1="-282.55" x2="630" y2="-282.55" gradientTransform="matrix(1 0 0 1 -4.489162e-05 416)">
						<stop  offset="0.11" style="stop-color:#FF1E00"/>
						<stop  offset="0.25" style="stop-color:#FF2700"/>
						<stop  offset="0.48" style="stop-color:#FF3F00"/>
						<stop  offset="0.77" style="stop-color:#FF6700"/>
						<stop  offset="1" style="stop-color:#FF8B00"/>
					</linearGradient>
					<rect x="543.9" y="91" class="st6" width="86.1" height="84.9"/>
				</g>
			</g>
		</g>
	</a>
	<path class="st0" d="M544.8,202c0-4.7,2.4-7.3,6.2-7.3c2.3-0.2,4.4,1.1,5.2,3.3l-2.6,1.4c-0.3-1.2-1.4-2-2.6-1.9
		c-1.8,0-3,1.2-3,3.4v2.2c0,2.2,1.2,3.4,3,3.4c1.3,0,2.4-0.8,2.8-2.1l2.5,1.4c-0.9,2.1-3,3.4-5.2,3.3
		C547.3,209.1,544.8,206.7,544.8,202z"/>
	<path class="st0" d="M557.5,201.9c0-4.7,2.4-7.2,6.1-7.2s6.1,2.5,6.1,7.2s-2.4,7.2-6.1,7.2S557.5,206.6,557.5,201.9z M566.5,202.9
		v-2.1c0-2.2-1.1-3.4-2.9-3.4s-2.9,1.3-2.9,3.4v2.1c0,2.2,1.1,3.5,2.9,3.5S566.5,205.2,566.5,202.9L566.5,202.9z"/>
	<path class="st0" d="M571.8,202c0-4.7,2.4-7.3,6.2-7.3c2.3-0.2,4.4,1.1,5.2,3.3l-2.6,1.4c-0.3-1.2-1.4-2-2.6-1.9
		c-1.8,0-3,1.2-3,3.4v2.2c0,2.2,1.2,3.4,3,3.4c1.3,0,2.4-0.8,2.8-2.1l2.5,1.4c-0.9,2.1-3,3.4-5.2,3.3
		C574.2,209.1,571.8,206.7,571.8,202z"/>
	<path class="st0" d="M590.1,202.8l-1.8,2.2v3.9h-3V195h3v6.6h0.1l2-2.7l3.1-3.9h3.4l-4.7,5.7l5.1,8.2h-3.6L590.1,202.8z"/>
	<path class="st0" d="M599.1,208.9V195h6.6c2.4,0.1,4.3,2.2,4.2,4.6c-0.1,2.3-1.9,4.1-4.2,4.2h-3.5v5L599.1,208.9L599.1,208.9z
		 M602.1,201.2h3.2c0.7,0.1,1.4-0.4,1.4-1.1c0-0.1,0-0.2,0-0.3V199c0.1-0.7-0.5-1.3-1.2-1.4c-0.1,0-0.2,0-0.3,0H602L602.1,201.2
		L602.1,201.2z"/>
	<path class="st0" d="M611.6,208.9v-2.4h1.8v-9h-1.8V195h6.6v2.4h-1.8v9h1.8v2.4L611.6,208.9z"/>
	<path class="st0" d="M626.5,197.7v11.2h-3v-11.2h-3.8V195h10.5v2.7H626.5z"/>
	<polygon class="st2" points="552.1,135.5 573.4,134.5 580.3,114.8 586.4,140.9 590.6,131.9 622.5,135.4 592.3,136.8 585,152.2 
		579.5,128.1 575.8,138.4 	"/>
</g>
<a xlink:href="#product-modeler" >
	<g>
		<path class="st0" d="M99.4,269.2L99.4,269.2l-1.1,2l-2.7,4.9l-2.6-4.9l-1-2.2h-0.1v9.2H89v-13.9h3.2l3.4,6.5l0,0l3.4-6.5h3.2v13.9
			h-2.8C99.4,278.2,99.4,269.2,99.4,269.2z"/>
		<path class="st0" d="M104.8,271.3c0-4.7,2.4-7.2,6.1-7.2s6.1,2.5,6.1,7.2s-2.4,7.2-6.1,7.2S104.8,276,104.8,271.3z M113.8,272.3
			v-2.1c0-2.2-1.1-3.5-2.9-3.5s-2.9,1.3-2.9,3.5v2.1c0,2.2,1.1,3.5,2.9,3.5S113.8,274.6,113.8,272.3L113.8,272.3z"/>
		<path class="st0" d="M119.5,264.4h5.2c3.7,0,6.1,2.3,6.1,6.9s-2.4,6.9-6.1,6.9h-5.2C119.5,278.2,119.5,264.4,119.5,264.4z
			 M124.8,275.6c1.8,0,2.9-1,2.9-3.2v-2.1c0-2.2-1.1-3.2-2.9-3.2h-2.2v8.5L124.8,275.6z"/>
		<path class="st0" d="M133.4,278.3v-13.8h9.4v2.7h-6.4v2.8h5.5v2.7h-5.5v3h6.4v2.7h-9.4V278.3z"/>
		<path class="st0" d="M145.5,278.3v-13.8h3v11.2h5.3v2.7L145.5,278.3z"/>
		<path class="st0" d="M156,278.3v-13.8h9.4v2.7H159v2.8h5.5v2.7H159v3h6.4v2.7H156V278.3z"/>
		<path class="st0" d="M171.1,278.3h-3v-13.8h6.6c2.6,0,4.2,1.8,4.2,4.4c0.1,1.7-0.9,3.4-2.5,4l2.7,5.4h-3.4l-2.4-5.1h-2.2
			L171.1,278.3z M174.3,270.6c0.7,0.1,1.4-0.4,1.4-1.1c0-0.1,0-0.2,0-0.3v-0.9c0-0.7-0.5-1.3-1.2-1.4c-0.1,0-0.2,0-0.3,0H171v3.6
			L174.3,270.6L174.3,270.6z"/>
		<a id="Modeler" xlink:href="#product-modeler" >
			<g>
				<g>
					<g>
						<defs>
							<circle id="SVGID_12_" cx="133.4" cy="203.5" r="40.4"/>
						</defs>
						<clipPath id="SVGID_13_">
							<use xlink:href="#SVGID_12_"  style="overflow:visible;"/>
						</clipPath>
						
							<linearGradient id="SVGID_14_" gradientUnits="userSpaceOnUse" x1="91" y1="-212.55" x2="177.1" y2="-212.55" gradientTransform="matrix(1 0 0 1 5.246597e-06 416)">
							<stop  offset="0.11" style="stop-color:#FF1E00"/>
							<stop  offset="0.25" style="stop-color:#FF2700"/>
							<stop  offset="0.48" style="stop-color:#FF3F00"/>
							<stop  offset="0.77" style="stop-color:#FF6700"/>
							<stop  offset="1" style="stop-color:#FF8B00"/>
						</linearGradient>
						<rect x="91" y="161" class="st7" width="86.1" height="84.9"/>
					</g>
				</g>
			</g>
		</a>
		<circle class="st2" cx="108.3" cy="203.7" r="5.8"/>
		<circle class="st2" cx="159.2" cy="203.7" r="5.8"/>
		<rect x="118.4" y="197.9" class="st2" width="11.5" height="11.5"/>
		
			<rect x="135.8" y="197.9" transform="matrix(0.7071 -0.7071 0.7071 0.7071 -102.5592 159.7147)" class="st2" width="11.5" height="11.5"/>
	</g>
	<a xlink:href="#product-cawemo" >
		<g>
			<a id="Cawemo" xlink:href="#product-cawemo" >
				<g>
					<g>
						<g>
							<defs>
								<circle id="SVGID_15_" cx="307.6" cy="203.5" r="40.4"/>
							</defs>
							<clipPath id="SVGID_16_">
								<use xlink:href="#SVGID_15_"  style="overflow:visible;"/>
							</clipPath>
							
								<linearGradient id="SVGID_17_" gradientUnits="userSpaceOnUse" x1="265.3" y1="-212.55" x2="351.4" y2="-212.55" gradientTransform="matrix(1 0 0 1 0 416)">
								<stop  offset="0.11" style="stop-color:#FF1E00"/>
								<stop  offset="0.25" style="stop-color:#FF2700"/>
								<stop  offset="0.48" style="stop-color:#FF3F00"/>
								<stop  offset="0.77" style="stop-color:#FF6700"/>
								<stop  offset="1" style="stop-color:#FF8B00"/>
							</linearGradient>
							<rect x="265.3" y="161" class="st8" width="86.1" height="84.9"/>
						</g>
					</g>
				</g>
			</a>
			<path class="st0" d="M264.9,271.4c0-4.7,2.4-7.3,6.1-7.3c2.3-0.2,4.4,1.1,5.2,3.3l-2.6,1.4c-0.3-1.2-1.4-2-2.6-1.9
				c-1.8,0-3,1.2-3,3.4v2.2c0,2.2,1.2,3.4,3,3.4c1.3,0,2.4-0.8,2.8-2.1l2.5,1.4c-0.9,2.1-3,3.4-5.2,3.3
				C267.4,278.5,264.9,276.1,264.9,271.4z"/>
			<path class="st0" d="M286.8,278.3l-1-3.3h-4.6l-1,3.3h-3.1l4.6-13.9h3.7l4.5,13.9H286.8z M283.5,267.2h-0.1l-1.5,5.3h3.2
				L283.5,267.2z"/>
			<path class="st0" d="M293.6,278.3l-3.1-13.9h3l1.3,6.6l0.7,3.9h0.1l0.9-3.9l1.5-6.6h3.3l1.5,6.6l0.9,3.9h0.1l0.7-3.9l1.3-6.6h2.9
				l-3.2,13.9H302l-1.8-7.5l-0.7-3h-0.1l-0.7,3l-1.8,7.5H293.6z"/>
			<path class="st0" d="M310.7,278.3v-13.8h9.5v2.7h-6.4v2.8h5.5v2.7h-5.5v3h6.4v2.7h-9.5V278.3z"/>
			<path class="st0" d="M333.2,269.2L333.2,269.2l-1.1,2l-2.7,4.9l-2.6-4.9l-1-2.2h-0.1v9.2h-2.9v-13.8h3.1l3.4,6.5l0,0l3.4-6.5h3.2
				v13.9h-2.8v-9.1H333.2z"/>
			<path class="st0" d="M338.6,271.3c0-4.7,2.4-7.2,6.1-7.2s6.1,2.5,6.1,7.2s-2.4,7.2-6.1,7.2S338.6,276,338.6,271.3z M347.6,272.3
				v-2.1c0-2.2-1.1-3.5-2.9-3.5s-2.9,1.3-2.9,3.5v2.1c0,2.2,1.1,3.5,2.9,3.5S347.6,274.6,347.6,272.3L347.6,272.3z"/>
			<circle class="st2" cx="282.4" cy="203.5" r="5.8"/>
			<circle class="st2" cx="333.3" cy="203.5" r="5.8"/>
			<rect x="292.5" y="197.7" class="st2" width="11.5" height="11.5"/>
			
				<rect x="310" y="197.7" transform="matrix(0.7071 -0.7071 0.7071 0.7071 -51.3643 282.8325)" class="st2" width="11.5" height="11.5"/>
			<path class="st2" d="M283.6,215.6c2.6,5.1,6.7,9.2,11.7,11.8l0.9-2.1c-4.5-2.3-8.2-6-10.5-10.5L283.6,215.6z"/>
			<path class="st2" d="M300.1,180.1c4.9-1.6,10.1-1.6,15,0l0.9-2.1c-5.4-1.8-11.3-1.8-16.7,0L300.1,180.1z"/>
			<path class="st2" d="M300.1,226.9l-0.9,2.1c5.4,1.8,11.2,1.8,16.6,0.1l-0.9-2.1C310.1,228.5,304.9,228.5,300.1,226.9z"/>
			<path class="st2" d="M318.9,181.7c4.5,2.4,8.2,6.1,10.5,10.6l2.1-0.9c-2.6-5.1-6.7-9.3-11.8-11.9L318.9,181.7z"/>
			<path class="st2" d="M326,219.8c-2,2.3-4.5,4.2-7.2,5.6l0.9,2.1c3.3-1.6,6.2-3.9,8.5-6.8c1.3-1.5,2.4-3.2,3.3-4.9l-2.1-0.9
				C328.5,216.7,327.3,218.3,326,219.8z"/>
			<path class="st2" d="M289.2,187.2c2-2.3,4.4-4.1,7.1-5.5l-0.9-2.1c-3.2,1.6-6.1,3.9-8.5,6.7c-1.3,1.6-2.4,3.3-3.4,5.1l2.1,0.9
				C286.7,190.4,287.8,188.7,289.2,187.2z"/>
		</g>
		<a xlink:href="#product-decision-engine" >
			<g>
				<a id="DMN" xlink:href="#product-decision-engine" >
					<g>
						<g>
							<g>
								<defs>
									
										<ellipse id="SVGID_18_" transform="matrix(7.088677e-02 -0.9975 0.9975 7.088677e-02 454.6245 1036.7539)" cx="783.8" cy="274.3" rx="40.4" ry="40.4"/>
								</defs>
								<clipPath id="SVGID_19_">
									<use xlink:href="#SVGID_18_"  style="overflow:visible;"/>
								</clipPath>
								
									<linearGradient id="SVGID_20_" gradientUnits="userSpaceOnUse" x1="741.5" y1="-141.75" x2="827.6" y2="-141.75" gradientTransform="matrix(1 0 0 1 1.986408e-05 416)">
									<stop  offset="0.11" style="stop-color:#FF1E00"/>
									<stop  offset="0.25" style="stop-color:#FF2700"/>
									<stop  offset="0.48" style="stop-color:#FF3F00"/>
									<stop  offset="0.77" style="stop-color:#FF6700"/>
									<stop  offset="1" style="stop-color:#FF8B00"/>
								</linearGradient>
								<rect x="741.5" y="231.8" class="st9" width="86.1" height="84.9"/>
							</g>
						</g>
					</g>
				</a>
				<path class="st0" d="M736.8,335.8h5.2c3.7,0,6.1,2.3,6.1,6.9s-2.4,6.9-6.1,6.9h-5.2V335.8z M742,347c1.8,0,2.9-1,2.9-3.2v-2.1
					c0-2.2-1.1-3.2-2.9-3.2h-2.2v8.5L742,347L742,347z"/>
				<path class="st0" d="M750.7,349.7v-13.9h9.5v2.7h-6.4v2.8h5.5v2.7h-5.5v3h6.4v2.7L750.7,349.7z"/>
				<path class="st0" d="M762.2,342.8c0-4.7,2.4-7.3,6.2-7.3c2.3-0.2,4.4,1.1,5.2,3.3l-2.6,1.4c-0.3-1.2-1.4-2-2.6-1.9
					c-1.8,0-3,1.2-3,3.4v2.2c0,2.2,1.2,3.4,3,3.4c1.3,0,2.4-0.8,2.8-2.1l2.5,1.4c-0.9,2.1-3,3.4-5.2,3.3
					C764.6,349.9,762.2,347.5,762.2,342.8z"/>
				<path class="st0" d="M775.2,349.7v-2.4h1.8v-9h-1.8v-2.4h6.6v2.4H780v9h1.8v2.4H775.2z"/>
				<path class="st0" d="M783.5,347.7l2-2c0.9,1,2.2,1.6,3.5,1.6c1.5,0,2.2-0.6,2.2-1.7c0-0.8-0.3-1.3-1.6-1.5l-1.4-0.2
					c-2.9-0.4-4.3-1.8-4.3-4.1c0-2.5,2-4.2,5.2-4.2c1.8-0.1,3.6,0.6,4.8,1.9l-2,2c-0.7-0.9-1.8-1.4-3-1.3c-1.4,0-2,0.5-2,1.4
					s0.5,1.3,1.7,1.5l1.4,0.2c2.8,0.5,4.2,1.7,4.2,4.1c0,2.7-2,4.5-5.4,4.5C786.8,350,784.9,349.1,783.5,347.7z"/>
				<path class="st0" d="M796.2,349.7v-2.4h1.8v-9h-1.8v-2.4h6.6v2.4H801v9h1.8v2.4H796.2z"/>
				<path class="st0" d="M804.8,342.7c0-4.7,2.4-7.2,6.1-7.2s6.1,2.4,6.1,7.2s-2.4,7.2-6.1,7.2S804.8,347.4,804.8,342.7z
					 M813.8,343.7v-2.1c0-2.2-1.1-3.5-2.9-3.5s-2.9,1.3-2.9,3.5v2.1c0,2.2,1.1,3.5,2.9,3.5S813.8,346,813.8,343.7L813.8,343.7z"/>
				<path class="st0" d="M823.8,343.1l-1.3-2.8h-0.1v9.3h-2.8v-13.9h3.3l3.8,6.5l1.3,2.8l0,0v-9.3h2.8v13.9h-3.3L823.8,343.1z"/>
				<path class="st0" d="M747.4,373.5v-13.9h9.5v2.7h-6.4v2.8h5.6v2.7h-5.5v3h6.4v2.7L747.4,373.5L747.4,373.5z"/>
				<path class="st0" d="M763.7,366.9l-1.3-2.8h-0.1v9.3h-2.8v-13.8h3.3l3.8,6.5l1.3,2.8h0.1v-9.3h2.8v13.9h-3.3L763.7,366.9z"/>
				<path class="st0" d="M782.7,371.3L782.7,371.3c-0.3,1.4-1.6,2.5-3.7,2.5c-3.2,0-5.7-2.5-5.7-7.1s2.5-7.2,6.3-7.2
					c2.3-0.1,4.4,1.1,5.4,3.2l-2.5,1.4c-0.4-1.2-1.6-2-2.9-1.9c-1.9,0-3.1,1.1-3.1,3.4v2.2c0,2.3,1.2,3.4,3.1,3.4
					c1.5,0,2.7-0.7,2.7-2.1v-0.7h-2.6v-2.5h5.5v7.7h-2.5V371.3z"/>
				<path class="st0" d="M787.7,373.5v-2.4h1.8V362h-1.8v-2.4h6.6v2.4h-1.8v9h1.8v2.4L787.7,373.5z"/>
				<path class="st0" d="M801,366.9l-1.3-2.8h-0.1v9.3h-2.8v-13.8h3.3l3.8,6.5l1.3,2.8h0.1v-9.3h2.8v13.9h-3.3L801,366.9z"/>
				<path class="st0" d="M811.2,373.5v-13.9h9.5v2.7h-6.4v2.8h5.5v2.7h-5.5v3h6.4v2.7L811.2,373.5L811.2,373.5z"/>
				<path class="st2" d="M761.4,259.8v32.5h44.8v-32.5H761.4z M802.4,263.6v5.9h-37.2v-5.9H802.4z M776.7,273.4h25.7v5.6h-25.7
					V273.4z M772.9,279h-7.7v-5.6h7.7V279z M765.2,282.8h7.7v5.7h-7.7V282.8z M776.7,288.5v-5.7h25.7v5.7H776.7z"/>
			</g>
			<a xlink:href="#product-workflow-engine" >
				<g>
					<a id="BPMN" xlink:href="#product-workflow-engine" >
						<g>
							<g>
								<g>
									<defs>
										
											<ellipse id="SVGID_21_" transform="matrix(7.088677e-02 -0.9975 0.9975 7.088677e-02 271.5739 840.0825)" cx="586.7" cy="274.3" rx="40.4" ry="40.4"/>
									</defs>
									<clipPath id="SVGID_22_">
										<use xlink:href="#SVGID_21_"  style="overflow:visible;"/>
									</clipPath>
									
										<linearGradient id="SVGID_23_" gradientUnits="userSpaceOnUse" x1="544.4" y1="-141.75" x2="630.5" y2="-141.75" gradientTransform="matrix(1 0 0 1 -1.957452e-05 416.0001)">
										<stop  offset="0.11" style="stop-color:#FF1E00"/>
										<stop  offset="0.25" style="stop-color:#FF2700"/>
										<stop  offset="0.48" style="stop-color:#FF3F00"/>
										<stop  offset="0.77" style="stop-color:#FF6700"/>
										<stop  offset="1" style="stop-color:#FF8B00"/>
									</linearGradient>
									<rect x="544.4" y="231.8" class="st10" width="86.1" height="84.9"/>
								</g>
							</g>
						</g>
					</a>
					<path class="st0" d="M533.6,349.7l-3.2-13.9h3l1.3,6.6l0.7,3.9h0.1l0.9-3.9l1.5-6.6h3.3l1.5,6.6l0.9,3.9h0.1l0.7-3.9l1.3-6.6
						h2.9l-3.2,13.9H542l-1.8-7.5l-0.7-3h-0.1l-0.7,3l-1.8,7.5H533.6z"/>
					<path class="st0" d="M549.8,342.7c0-4.7,2.4-7.2,6.1-7.2s6.1,2.4,6.1,7.2s-2.4,7.2-6.1,7.2S549.8,347.4,549.8,342.7z
						 M558.8,343.7v-2.1c0-2.2-1.1-3.5-2.9-3.5s-2.9,1.3-2.9,3.5v2.1c0,2.2,1.1,3.5,2.9,3.5S558.8,346,558.8,343.7L558.8,343.7z"/>
					<path class="st0" d="M567.5,349.7h-3v-13.9h6.6c2.6,0,4.2,1.8,4.2,4.4c0.1,1.7-0.9,3.4-2.5,4l2.7,5.4h-3.4l-2.4-5.1h-2.2
						L567.5,349.7z M570.7,342c0.7,0.1,1.4-0.4,1.5-1.1c0-0.1,0-0.2,0-0.3v-0.9c0.1-0.7-0.5-1.3-1.2-1.4c-0.1,0-0.2,0-0.3,0h-3.2
						v3.6L570.7,342z"/>
					<path class="st0" d="M582.8,343.6l-1.8,2.2v3.9h-3v-13.9h3v6.6h0.1l2-2.7l3.1-3.9h3.4l-4.7,5.7l5.1,8.1h-3.6L582.8,343.6z"/>
					<path class="st0" d="M591.8,349.7v-13.9h9.2v2.7h-6.2v2.8h5.3v2.7h-5.3v5.7L591.8,349.7z"/>
					<path class="st0" d="M603.4,349.7v-13.9h3V347h5.3v2.7H603.4z"/>
					<path class="st0" d="M612.6,342.7c0-4.7,2.4-7.2,6.1-7.2s6.1,2.5,6.1,7.2s-2.4,7.2-6.1,7.2S612.6,347.4,612.6,342.7z
						 M621.6,343.7v-2.1c0-2.2-1.1-3.5-2.9-3.5s-2.9,1.3-2.9,3.5v2.1c0,2.2,1.1,3.5,2.9,3.5S621.6,346,621.6,343.7L621.6,343.7z"/>
					<path class="st0" d="M629.1,349.7l-3.1-13.9h3l1.3,6.6l0.7,3.9h0.1l0.9-3.9l1.5-6.6h3.3l1.5,6.6l0.8,3.9h0.1l0.7-3.9l1.3-6.6
						h2.9l-3.2,13.9h-3.5l-1.8-7.5l-0.7-3h0.1l-0.7,3l-1.8,7.5H629.1z"/>
					<path class="st0" d="M550.9,373.5v-13.9h9.5v2.7H554v2.8h5.5v2.7H554v3h6.4v2.7L550.9,373.5L550.9,373.5z"/>
					<path class="st0" d="M567.2,366.9l-1.3-2.8h-0.1v9.3H563v-13.8h3.3l3.8,6.5l1.3,2.8h0.1v-9.3h2.8v13.9H571L567.2,366.9z"/>
					<path class="st0" d="M586.2,371.3L586.2,371.3c-0.3,1.4-1.6,2.5-3.7,2.5c-3.2,0-5.7-2.5-5.7-7.1s2.5-7.2,6.3-7.2
						c2.3-0.1,4.4,1.1,5.3,3.2L586,364c-0.4-1.2-1.6-2-2.9-1.9c-1.9,0-3.1,1.1-3.1,3.4v2.2c0,2.3,1.2,3.4,3.1,3.4
						c1.5,0,2.7-0.7,2.7-2.1v-0.7h-2.6v-2.5h5.5v7.7h-2.5V371.3z"/>
					<path class="st0" d="M591.2,373.5v-2.4h1.8V362h-1.8v-2.4h6.6v2.4H596v9h1.8v2.4L591.2,373.5z"/>
					<path class="st0" d="M604.5,366.9l-1.3-2.8h-0.1v9.3h-2.8v-13.8h3.3l3.8,6.5l1.3,2.8h0.1v-9.3h2.8v13.9h-3.3L604.5,366.9z"/>
					<path class="st0" d="M614.7,373.5v-13.9h9.5v2.7h-6.4v2.8h5.5v2.7h-5.5v3h6.4v2.7L614.7,373.5L614.7,373.5z"/>
					<g class="st11">
						<path class="st2" d="M596.2,268.2l4.3,1l-0.9-2.1l-4-1.2c-0.4-1.4,1.3-3.2,0.7-4.4l3.4-3.3l-6.1-6.2l-3.4,3.3
							c-0.6-0.3-1.2-0.7-1.9-0.9c-0.7-0.3-1.3-0.5-2-0.7V249h-8.8v4.6c-1.4,0.4-2.7,0.9-3.9,1.6l-3.3-3.3l-6.2,6.1l3.3,3.3
							c-0.4,0.6-0.7,1.2-0.9,1.9c-0.3,0.7-0.5,1.3-0.7,2h-4.7v8.7h4.7c0.4,1.4,0.9,2.7,1.6,3.9l-3.4,3.4l6.1,6.2l3.4-3.4
							c0.6,0.4,2.8-3.5,3.4-3.3s2,4.9,2.7,5l0.3,2.7l2.4,2.1l-2.5-10.7c1.4-0.4,1.8-3.9,3-4.6l2.5-4.8l4.5-2.2h3.1
							c0.3-0.6,1.7,0.6,2,0S596,268.9,596.2,268.2z M579.2,277.3c-2.2,0-1.6,3.4-3.3,2.4c-5.4-3.3-7.2-10.3-4-15.8
							c3.3-5.4,10.3-7.2,15.8-4c1.9,1.1,3.4,2.7,4.3,4.6c0.8,1.6-0.8,0.7-0.8,2.5c0,3.2-6.4,1.3-8.5,3.4S582.4,277.3,579.2,277.3
							L579.2,277.3z"/>
					</g>
					<path class="st2" d="M608.7,285.1h4.8v-8.7h-4.8c-0.4-1.4-0.9-2.7-1.6-3.9l3.4-3.3l-6.1-6.2l-3.4,3.3c-0.6-0.4-1.2-0.7-1.9-0.9
						c-0.7-0.3-1.3-0.5-2-0.7V260h-8.8v4.6c-1.4,0.4-2.7,0.9-3.9,1.6l-3.2-3.2l-6.2,6.1l3.3,3.3c-0.4,0.6-0.7,1.2-0.9,1.9
						c-0.3,0.7-0.5,1.3-0.7,2H572v8.7h4.7c0.4,1.4,0.9,2.7,1.6,3.9l-3.4,3.4l6.1,6.2l3.4-3.4c0.6,0.4,1.2,0.7,1.9,0.9
						c0.6,0.3,1.3,0.5,2,0.7v4.9h8.7v-4.9c1.4-0.4,2.7-0.9,3.9-1.6l3.4,3.4l6.2-6.1l-3.4-3.4c0.4-0.6,0.7-1.2,0.9-1.9
						C608.3,286.4,608.5,285.7,608.7,285.1z M592.7,292.2c-6.3,0-11.5-5.1-11.5-11.5c0-6.3,5.1-11.5,11.5-11.5
						c6.3,0,11.5,5.1,11.5,11.5l0,0C604.2,287.1,599.1,292.2,592.7,292.2L592.7,292.2z"/>
				</g>
				<path class="st12" d="M1366,408.8H923.6v-176l29.1-29.1l-29.1-29.1V0.2H1366V408.8z M925.9,406.5h437.8V2.5H925.9v171.2l30,30
					l-30,30V406.5z"/>
				<path class="st12" d="M446.4,408.8H4V0.2h442.4v153.5l50,50l-50,50V408.8z M6.3,406.5h437.8V252.8l49.1-49.1l-49.1-49.1V2.5H6.3
					V406.5z"/>
				<path class="st12" d="M905.9,408.8H463.5V233.4l29.7-29.7L463.5,174V0.2h442.4v153.5l50,50l-50,50V408.8z M465.8,406.5h437.8
					V252.8l49.1-49.1l-49.1-49.1V2.5H465.8v170.6l30.6,30.6l-30.6,30.6V406.5z"/>
			</a>
		</a>
	</a>
</a>
</svg>
