<?xml version="1.0" encoding="utf-8"?>
<!-- Generator: Adobe Illustrator 24.1.1, SVG Export Plug-In . SVG Version: 6.00 Build 0)  -->
<svg version="1.1" id="Camunda_Stack" xmlns="http://www.w3.org/2000/svg" xmlns:xlink="http://www.w3.org/1999/xlink" x="0px"
	 y="0px" viewBox="0 0 1362 455.8" style="enable-background:new 0 0 1362 455.8;" xml:space="preserve">
<style type="text/css">
	.st0{fill:#808082;}
	.st1{clip-path:url(#SVGID_2_);}
	.st2{fill:url(#SVGID_3_);}
	.st3{fill:#FFFFFF;}
	.st4{fill:url(#SVGID_4_);}
	.st5{fill:url(#SVGID_5_);}
	.st6{clip-path:url(#SVGID_7_);}
	.st7{fill:url(#SVGID_8_);}
	.st8{clip-path:url(#SVGID_10_);}
	.st9{fill:url(#SVGID_11_);}
	.st10{clip-path:url(#SVGID_13_);}
	.st11{fill:url(#SVGID_14_);}
	.st12{clip-path:url(#SVGID_16_);}
	.st13{fill:url(#SVGID_17_);}
	.st14{clip-path:url(#SVGID_19_);}
	.st15{fill:url(#SVGID_20_);}
	.st16{clip-path:url(#SVGID_22_);}
	.st17{fill:url(#SVGID_23_);}
	.st18{opacity:0.75;}
	.st19{fill:#D9DADB;}
</style>
<path d="M176.5,21.4h6.4c4.5,0,7.5,2.9,7.5,8.5s-3,8.5-7.5,8.5h-6.4V21.4z M182.9,35.2c2.2,0,3.6-1.2,3.6-3.9v-2.6
	c0-2.7-1.4-3.9-3.6-3.9h-2.7v10.4H182.9z"/>
<path d="M193.6,38.5v-17h11.6v3.3h-7.9v3.5h6.8v3.3h-6.8v3.7h7.9v3.3L193.6,38.5z"/>
<path d="M207.5,36l2.4-2.5c1.1,1.3,2.6,2,4.3,2c1.8,0,2.7-0.8,2.7-2c0-0.9-0.4-1.6-2-1.8l-1.7-0.2c-3.6-0.5-5.2-2.2-5.2-5.1
	s2.4-5.2,6.4-5.2c2.2-0.1,4.4,0.8,5.9,2.4l-2.5,2.5c-0.9-1.1-2.3-1.7-3.7-1.6c-1.7,0-2.5,0.6-2.5,1.7s0.6,1.6,2,1.8l1.7,0.3
	c3.5,0.6,5.2,2.1,5.2,5c0,3.3-2.4,5.5-6.7,5.5C211.4,38.8,209.1,37.8,207.5,36z"/>
<path d="M223.1,38.5v-2.9h2.2V24.4h-2.2v-3h8.1v3H229v11.1h2.2v3H223.1z"/>
<path d="M245.1,35.8H245c-0.2,1.7-1.8,3-4.4,3c-3.9,0-7-3-7-8.7s3.1-8.9,7.7-8.9c2.8-0.1,5.4,1.4,6.6,4l-3,1.7
	c-0.5-1.5-2-2.5-3.6-2.4c-2.3,0-3.8,1.3-3.8,4.1v2.7c0,2.8,1.5,4.2,3.8,4.2c1.9,0,3.4-0.9,3.4-2.5v-0.9h-3.2V29h6.7v9.5h-3.1
	L245.1,35.8z"/>
<path d="M257.1,30.4l-1.6-3.4h-0.1v11.5h-3.5v-17h4.1l4.7,8l1.6,3.4h0.1V21.4h3.5v17h-4.1L257.1,30.4z"/>
<path d="M627.5,38.5l-1.2-4h-5.7l-1.2,4h-3.8l5.6-17h4.6l5.6,17H627.5z M623.5,24.8L623.5,24.8l-2,6.5h3.9L623.5,24.8z"/>
<path d="M636.7,21.4v10.4c0,2.4,0.9,3.6,3.1,3.6s3.1-1.2,3.1-3.6V21.4h3.6v10.1c0,5-1.8,7.3-6.7,7.3s-6.7-2.2-6.7-7.3V21.4H636.7z"
	/>
<path d="M657.3,24.7v13.7h-3.7V24.7H649v-3.3h13v3.3L657.3,24.7z"/>
<path d="M663.2,30c0-5.8,3-8.8,7.5-8.8s7.5,3,7.5,8.8s-3,8.8-7.5,8.8S663.2,35.8,663.2,30z M674.3,31.2v-2.5c0-2.7-1.3-4.3-3.6-4.3
	s-3.6,1.5-3.6,4.3v2.5c0,2.7,1.3,4.3,3.6,4.3S674.3,34,674.3,31.2z"/>
<path d="M694.2,27.3L694.2,27.3l-1.3,2.5l-3.3,6l-3.3-6l-1.3-2.7h-0.1v11.4h-3.5v-17h3.9l4.2,8l0,0l4.1-8h4v17h-3.5L694.2,27.3z"/>
<path d="M712,38.5l-1.2-4h-5.7l-1.2,4h-3.8l5.6-17h4.6l5.6,17H712z M708,24.8L708,24.8l-2,6.5h3.9L708,24.8z"/>
<path d="M723.8,24.7v13.7H720V24.7h-4.6v-3.3h13v3.3L723.8,24.7z"/>
<path d="M730.9,38.5v-17h11.6v3.3h-7.9v3.5h6.8v3.3h-6.8v3.7h7.9v3.3L730.9,38.5z"/>
<path d="M1086.8,38.5v-2.9h2.2V24.4h-2.2v-3h8.1v3h-2.2v11.1h2.2v3H1086.8z"/>
<path d="M1110.8,27.3L1110.8,27.3l-1.3,2.5l-3.3,6l-3.3-6l-1.3-2.7h-0.1v11.4h-3.5v-17h4l4.2,8l0,0l4.1-8h4v17h-3.5L1110.8,27.3z"/>
<path d="M1118.1,38.5v-17h8.1c3.2,0,5.2,2.2,5.2,5.4s-2,5.4-5.2,5.4h-4.4v6.2H1118.1z M1121.8,29.1h3.9c0.9,0.1,1.7-0.5,1.8-1.4
	v-1.4c0.1-0.9-0.6-1.6-1.4-1.7h-4.3L1121.8,29.1z"/>
<path d="M1137.9,38.5h-3.7v-17h8.1c3.2,0,5.2,2.2,5.2,5.4c0.2,2.1-1.1,4.1-3.1,4.9l3.3,6.7h-4.1l-3-6.3h-2.7L1137.9,38.5z
	 M1141.8,29.1c0.9,0.1,1.7-0.5,1.8-1.4v-1.4c0.1-0.9-0.6-1.6-1.4-1.7h-4.3V29L1141.8,29.1z"/>
<path d="M1149.8,30c0-5.8,3-8.8,7.5-8.8s7.5,3,7.5,8.8s-3,8.8-7.5,8.8S1149.8,35.8,1149.8,30z M1160.8,31.2v-2.5
	c0-2.7-1.3-4.3-3.6-4.3s-3.6,1.5-3.6,4.3v2.5c0,2.7,1.3,4.3,3.6,4.3S1160.8,34,1160.8,31.2z"/>
<path d="M1171.1,38.5l-5.5-17h3.8l2.5,8.2l1.3,5.3h0.1l1.3-5.3l2.6-8.2h3.7l-5.6,17H1171.1z"/>
<path d="M1183.1,38.5v-17h11.6v3.3h-7.9v3.5h6.8v3.3h-6.8v3.7h7.9v3.3L1183.1,38.5z"/>
<path class="st0" d="M617.8,438.9v9.9c0,2.5-1.7,4.2-4.6,4.2c-2.3,0.2-4.4-1.6-4.6-3.9l2.8-0.5c0.2,1.2,0.8,1.8,1.7,1.8
	c0.9,0,1.6-0.6,1.6-1.5v-7.6h-4.2v-2.4H617.8z"/>
<path class="st0" d="M628.9,452.8l-1-3.3h-4.6l-1,3.3h-3.1l4.6-13.9h3.7l4.5,13.9H628.9z M625.6,441.7L625.6,441.7L624,447h3.2
	L625.6,441.7z"/>
<path class="st0" d="M636.1,452.8l-4.5-13.9h3.1l2.1,6.6l1.1,4.4h0.1l1.1-4.4l2.1-6.6h3l-4.6,13.9H636.1z"/>
<path class="st0" d="M653.3,452.8l-1-3.3h-4.6l-1,3.3h-3l4.6-13.9h3.7l4.5,13.9H653.3z M650,441.7L650,441.7l-1.6,5.3h3.2L650,441.7
	z"/>
<path class="st0" d="M656.9,455.8l5.9-17.7h2.4l-5.9,17.7H656.9z"/>
<path class="st0" d="M670.5,452.8h-3v-13.9h6.6c2.4,0.1,4.3,2.2,4.2,4.6c-0.1,1.6-1,3.1-2.5,3.8l2.7,5.4h-3.4l-2.4-5.1h-2.2
	L670.5,452.8z M673.7,445.2c0.7,0.1,1.3-0.4,1.4-1.1v-1.2c0-0.7-0.5-1.3-1.2-1.4h-3.5v3.6L673.7,445.2L673.7,445.2z"/>
<path class="st0" d="M680.9,452.8v-13.9h9.5v2.7H684v2.8h5.5v2.7H684v3h6.4v2.7L680.9,452.8z"/>
<path class="st0" d="M692.2,450.8l2-2c0.9,1,2.2,1.6,3.5,1.6c1.5,0,2.2-0.6,2.2-1.7c0-0.8-0.3-1.3-1.6-1.5l-1.4-0.2
	c-2.9-0.4-4.3-1.8-4.3-4.1c0-2.5,2-4.2,5.2-4.2c1.8-0.1,3.6,0.6,4.8,2l-2,2c-0.7-0.9-1.8-1.4-3-1.3c-1.3,0-2,0.5-2,1.4
	s0.5,1.3,1.7,1.5l1.4,0.2c2.8,0.5,4.2,1.7,4.2,4.1c0,2.7-2,4.5-5.4,4.5C695.5,453.1,693.6,452.3,692.2,450.8z"/>
<path class="st0" d="M710.8,441.6v11.2h-3v-11.2H704v-2.7h10.5v2.7H710.8z"/>
<path class="st0" d="M729.8,452.8l-1-3.3h-4.6l-1,3.3h-3.1l4.6-13.9h3.7l4.6,13.9H729.8z M726.6,441.7L726.6,441.7L725,447h3.2
	L726.6,441.7z"/>
<path class="st0" d="M734.9,452.8v-13.9h6.6c2.4,0.1,4.3,2.2,4.2,4.6c-0.1,2.3-1.9,4.1-4.2,4.2H738v5L734.9,452.8L734.9,452.8z
	 M737.9,445.2h3.2c0.6,0.1,1.3-0.3,1.4-0.9c0,0,0,0,0,0l0,0c0,0,0-0.1,0-0.1v-1.2c0-0.7-0.5-1.3-1.2-1.4H738L737.9,445.2z"/>
<path class="st0" d="M747.5,452.8v-2.4h1.8v-9h-1.8V439h6.6v2.4h-1.8v9h1.8v2.4H747.5z"/>
<a xlink:href="#product-optimize" >
	<g>
		<g id="Modeler">
			<g>
				<defs>
					<circle id="SVGID_1_" cx="1139.4" cy="200.2" r="40.5"/>
				</defs>
				<clipPath id="SVGID_2_">
					<use xlink:href="#SVGID_1_"  style="overflow:visible;"/>
				</clipPath>
				<g class="st1">
					
						<linearGradient id="SVGID_3_" gradientUnits="userSpaceOnUse" x1="1101.6" y1="-625.5499" x2="1187.7" y2="-625.5499" gradientTransform="matrix(1 0 0 1 -4 825.8)">
						<stop  offset="0.11" style="stop-color:#FF1E00"/>
						<stop  offset="0.25" style="stop-color:#FF2700"/>
						<stop  offset="0.48" style="stop-color:#FF3F00"/>
						<stop  offset="0.77" style="stop-color:#FF6700"/>
						<stop  offset="1" style="stop-color:#FF8B00"/>
					</linearGradient>
					<rect x="1097.6" y="157.8" class="st2" width="86.1" height="84.9"/>
				</g>
			</g>
		</g>
		<path class="st0" d="M1093.6,271.1c0-4.7,2.4-7.2,6.1-7.2s6.1,2.5,6.1,7.2s-2.4,7.2-6.1,7.2S1093.6,275.8,1093.6,271.1z
			 M1102.6,272.1V270c0-2.2-1.1-3.5-2.9-3.5s-2.9,1.3-2.9,3.5v2.1c0,2.2,1.1,3.5,2.9,3.5S1102.6,274.4,1102.6,272.1z"/>
		<path class="st0" d="M1108.3,278.1v-13.9h6.6c2.4,0.1,4.3,2.2,4.2,4.6c-0.1,2.3-1.9,4.1-4.2,4.2h-3.5v5L1108.3,278.1L1108.3,278.1
			z M1111.3,270.4h3.2c0.6,0.1,1.3-0.3,1.4-0.9c0,0,0,0,0,0l0,0c0,0,0-0.1,0-0.1v-1.2c0.1-0.7-0.5-1.3-1.2-1.4h-3.5v3.7
			L1111.3,270.4z"/>
		<path class="st0" d="M1127.2,266.9v11.2h-3v-11.2h-3.8v-2.7h10.5v2.7H1127.2z"/>
		<path class="st0" d="M1132.4,278.1v-2.4h1.8v-9.1h-1.8v-2.4h6.6v2.4h-1.8v9h1.8v2.4L1132.4,278.1z"/>
		<path class="st0" d="M1151.9,269L1151.9,269l-1.1,2l-2.7,4.9l-2.7-4.9l-1-2.2h-0.1v9.2h-2.8v-13.8h3.2l3.4,6.5l0,0l3.4-6.5h3.2
			v13.9h-2.8V269z"/>
		<path class="st0" d="M1157.3,278.1v-2.4h1.8v-9.1h-1.8v-2.4h6.6v2.4h-1.8v9h1.8v2.4L1157.3,278.1z"/>
		<path class="st0" d="M1176.2,278.1h-10.5v-2.7l6.8-8.5h-6.5v-2.7h10v2.7l-6.9,8.5h7L1176.2,278.1z"/>
		<path class="st0" d="M1178.5,278.1v-13.9h9.4v2.7h-6.4v2.8h5.5v2.7h-5.5v3h6.4v2.7L1178.5,278.1z"/>
		<polygon class="st3" points="1165.8,182.1 1146.9,183.6 1150.6,188.9 1141.9,195.4 1140.7,196.4 1140.8,197.6 1142.4,217.1 
			1132,215.9 1131.7,215.9 1131.4,216 1115.8,224.5 1131.8,217.7 1143.8,220.2 1145.5,220.6 1145.5,218.7 1145.9,198.9 1154,193.9 
			1157.7,199.2 		"/>
	</g>
</a>
<linearGradient id="SVGID_4_" gradientUnits="userSpaceOnUse" x1="6552.8799" y1="1392.2" x2="7137.1797" y2="1392.2" gradientTransform="matrix(-1 0 0 1 7913.7798 -949.9)">
	<stop  offset="0.11" style="stop-color:#FF1E00"/>
	<stop  offset="0.25" style="stop-color:#FF2700"/>
	<stop  offset="0.48" style="stop-color:#FF3F00"/>
	<stop  offset="0.77" style="stop-color:#FF6700"/>
	<stop  offset="1" style="stop-color:#FF8B00"/>
</linearGradient>
<rect x="776.6" y="440.4" class="st4" width="584.3" height="3.8"/>
<linearGradient id="SVGID_5_" gradientUnits="userSpaceOnUse" x1="5.1" y1="838.5" x2="594.7" y2="838.5" gradientTransform="matrix(1 0 0 -1 -4 1280.8)">
	<stop  offset="0.11" style="stop-color:#FF1E00"/>
	<stop  offset="0.25" style="stop-color:#FF2700"/>
	<stop  offset="0.48" style="stop-color:#FF3F00"/>
	<stop  offset="0.77" style="stop-color:#FF6700"/>
	<stop  offset="1" style="stop-color:#FF8B00"/>
</linearGradient>
<rect x="1.1" y="440.4" class="st5" width="589.6" height="3.8"/>
<a xlink:href="#product-tasklist" >
	<g>
		<g id="Tasklist">
			<g>
				<defs>
					<circle id="SVGID_6_" cx="779.4" cy="131.5" r="40.5"/>
				</defs>
				<clipPath id="SVGID_7_">
					<use xlink:href="#SVGID_6_"  style="overflow:visible;"/>
				</clipPath>
				<g class="st6">
					
						<linearGradient id="SVGID_8_" gradientUnits="userSpaceOnUse" x1="741.5" y1="-692.25" x2="827.6" y2="-692.25" gradientTransform="matrix(1 0 0 1 -4 825.8001)">
						<stop  offset="0.11" style="stop-color:#FF1E00"/>
						<stop  offset="0.25" style="stop-color:#FF2700"/>
						<stop  offset="0.48" style="stop-color:#FF3F00"/>
						<stop  offset="0.77" style="stop-color:#FF6700"/>
						<stop  offset="1" style="stop-color:#FF8B00"/>
					</linearGradient>
					<rect x="737.5" y="91.1" class="st7" width="86.1" height="84.9"/>
				</g>
			</g>
		</g>
		<path class="st0" d="M740.7,197.5v11.2h-3v-11.2h-3.8v-2.7h10.5v2.7H740.7z"/>
		<path class="st0" d="M753.8,208.7l-1-3.3h-4.6l-1,3.3h-3.1l4.6-13.9h3.7l4.5,13.9H753.8z M750.5,197.5L750.5,197.5l-1.6,5.3h3.2
			L750.5,197.5z"/>
		<path class="st0" d="M758.1,206.6l2-2c0.9,1,2.2,1.6,3.5,1.6c1.5,0,2.2-0.7,2.2-1.7c0-0.8-0.3-1.3-1.6-1.5l-1.4-0.2
			c-2.9-0.4-4.3-1.8-4.3-4.1c0-2.5,2-4.2,5.2-4.2c1.8-0.1,3.6,0.6,4.8,1.9l-2,2c-0.7-0.9-1.8-1.4-3-1.3c-1.3,0-2,0.5-2,1.4
			s0.5,1.3,1.7,1.5l1.4,0.2c2.8,0.5,4.2,1.7,4.2,4.1c0,2.7-2,4.5-5.4,4.5C761.4,208.9,759.4,208.1,758.1,206.6z"/>
		<path class="st0" d="M776.1,202.6l-1.8,2.2v3.9h-3v-13.9h3v6.6h0.1l2-2.7l3.1-3.9h3.4l-4.7,5.7l5.1,8.2h-3.6L776.1,202.6z"/>
		<path class="st0" d="M785.1,208.7v-13.9h3V206h5.3v2.7H785.1z"/>
		<path class="st0" d="M795.1,208.7v-2.4h1.8v-9h-1.8v-2.5h6.6v2.4h-1.8v9h1.8v2.4L795.1,208.7z"/>
		<path class="st0" d="M803.5,206.6l2-2c0.9,1,2.2,1.6,3.5,1.6c1.5,0,2.2-0.7,2.2-1.7c0-0.8-0.3-1.3-1.6-1.5l-1.4-0.2
			c-2.9-0.4-4.3-1.8-4.3-4.1c0-2.5,2-4.2,5.2-4.2c1.8-0.1,3.6,0.6,4.8,1.9l-2,2c-0.7-0.9-1.8-1.4-3-1.3c-1.4,0-2,0.5-2,1.4
			s0.5,1.3,1.7,1.5l1.4,0.2c2.8,0.5,4.2,1.7,4.2,4.1c0,2.7-2,4.5-5.4,4.5C806.8,208.9,804.8,208.1,803.5,206.6z"/>
		<path class="st0" d="M822,197.5v11.2h-3v-11.2h-3.8v-2.7h10.5v2.7H822z"/>
		<polygon class="st3" points="802.2,124.9 795.5,118.2 774.9,138.9 767.4,131.4 760.7,138.1 774.9,152.3 774.9,152.3 774.9,152.3 
					"/>
	</g>
</a>
<a xlink:href="#product-cockpit" >
	<g>
		<g id="Cockpit">
			<g>
				<defs>
					
						<ellipse id="SVGID_9_" transform="matrix(7.080103e-02 -0.9975 0.9975 7.080103e-02 408.1758 704.6227)" cx="582.3" cy="133.2" rx="40.4" ry="40.4"/>
				</defs>
				<clipPath id="SVGID_10_">
					<use xlink:href="#SVGID_9_"  style="overflow:visible;"/>
				</clipPath>
				<g class="st8">
					
						<linearGradient id="SVGID_11_" gradientUnits="userSpaceOnUse" x1="543.9" y1="-692.55" x2="630" y2="-692.55" gradientTransform="matrix(1 0 0 1 -4 825.8)">
						<stop  offset="0.11" style="stop-color:#FF1E00"/>
						<stop  offset="0.25" style="stop-color:#FF2700"/>
						<stop  offset="0.48" style="stop-color:#FF3F00"/>
						<stop  offset="0.77" style="stop-color:#FF6700"/>
						<stop  offset="1" style="stop-color:#FF8B00"/>
					</linearGradient>
					<rect x="539.9" y="90.8" class="st9" width="86.1" height="84.9"/>
				</g>
			</g>
		</g>
		<path class="st0" d="M540.8,201.8c0-4.7,2.4-7.3,6.2-7.3c2.3-0.2,4.4,1.1,5.2,3.3l-2.6,1.4c-0.3-1.2-1.4-2-2.6-1.9
			c-1.8,0-3,1.2-3,3.4v2.2c0,2.2,1.2,3.4,3,3.4c1.3,0,2.4-0.8,2.8-2.1l2.5,1.4c-0.9,2.1-3,3.4-5.2,3.3
			C543.3,208.9,540.8,206.5,540.8,201.8z"/>
		<path class="st0" d="M553.5,201.7c0-4.7,2.4-7.2,6.1-7.2s6.1,2.5,6.1,7.2s-2.4,7.2-6.1,7.2S553.5,206.4,553.5,201.7z M562.5,202.7
			v-2.1c0-2.2-1.1-3.4-2.9-3.4s-2.9,1.3-2.9,3.4v2.1c0,2.2,1.1,3.5,2.9,3.5S562.5,205,562.5,202.7z"/>
		<path class="st0" d="M567.8,201.8c0-4.7,2.4-7.3,6.2-7.3c2.3-0.2,4.4,1.1,5.2,3.3l-2.6,1.4c-0.3-1.2-1.4-2-2.6-1.9
			c-1.8,0-3,1.2-3,3.4v2.2c0,2.2,1.2,3.4,3,3.4c1.3,0,2.4-0.8,2.8-2.1l2.5,1.4c-0.9,2.1-3,3.4-5.2,3.3
			C570.2,208.9,567.8,206.5,567.8,201.8z"/>
		<path class="st0" d="M586.1,202.6l-1.8,2.2v3.9h-3v-13.9h3v6.6h0.1l2-2.7l3.1-3.9h3.4l-4.7,5.7l5.1,8.2h-3.6L586.1,202.6z"/>
		<path class="st0" d="M595.1,208.7v-13.9h6.6c2.4,0.1,4.3,2.2,4.2,4.6c-0.1,2.3-1.9,4.1-4.2,4.2h-3.5v5L595.1,208.7L595.1,208.7z
			 M598.1,201h3.2c0.6,0.1,1.3-0.3,1.4-0.9c0,0,0,0,0,0l0-0.1c0,0,0-0.1,0-0.1v-1.1c0.1-0.7-0.5-1.3-1.2-1.4H598L598.1,201
			L598.1,201z"/>
		<path class="st0" d="M607.6,208.7v-2.4h1.8v-9h-1.8v-2.5h6.6v2.4h-1.8v9h1.8v2.4L607.6,208.7z"/>
		<path class="st0" d="M622.5,197.5v11.2h-3v-11.2h-3.8v-2.7h10.5v2.7H622.5z"/>
		<polygon class="st3" points="548.1,135.3 569.4,134.3 576.3,114.6 582.4,140.7 586.6,131.7 618.5,135.2 588.3,136.6 581,152 
			575.5,127.9 571.8,138.2 		"/>
	</g>
</a>
<a xlink:href="#product-modeler" >
	<g>
		<path class="st0" d="M95.4,269L95.4,269l-1.1,2l-2.7,4.9L89,271l-1-2.2h-0.1v9.2H85v-13.9h3.2l3.4,6.5l0,0l3.4-6.5h3.2V278h-2.8
			V269z"/>
		<path class="st0" d="M100.8,271.1c0-4.7,2.4-7.2,6.1-7.2s6.1,2.5,6.1,7.2s-2.4,7.2-6.1,7.2S100.8,275.8,100.8,271.1z M109.8,272.1
			V270c0-2.2-1.1-3.5-2.9-3.5s-2.9,1.3-2.9,3.5v2.1c0,2.2,1.1,3.5,2.9,3.5S109.8,274.4,109.8,272.1z"/>
		<path class="st0" d="M115.5,264.2h5.2c3.7,0,6.1,2.3,6.1,6.9s-2.4,6.9-6.1,6.9h-5.2V264.2z M120.8,275.4c1.8,0,2.9-1,2.9-3.2v-2.1
			c0-2.2-1.1-3.2-2.9-3.2h-2.2v8.5L120.8,275.4z"/>
		<path class="st0" d="M129.4,278.1v-13.8h9.4v2.7h-6.4v2.8h5.5v2.7h-5.5v3h6.4v2.7h-9.4V278.1z"/>
		<path class="st0" d="M141.5,278.1v-13.8h3v11.2h5.3v2.7L141.5,278.1z"/>
		<path class="st0" d="M152,278.1v-13.8h9.4v2.7H155v2.8h5.5v2.7H155v3h6.4v2.7H152V278.1z"/>
		<path class="st0" d="M167.1,278.1h-3v-13.8h6.6c2.4,0.1,4.3,2.2,4.2,4.6c-0.1,1.6-1,3.1-2.5,3.8l2.7,5.4h-3.4l-2.4-5.1h-2.2
			L167.1,278.1z M170.3,270.4c0.6,0.1,1.3-0.3,1.4-0.9v0l0,0c0,0,0-0.1,0-0.1v-1.2c0-0.7-0.5-1.3-1.2-1.4H167v3.6h3.3V270.4z"/>
		<g id="Modeler-2">
			<g>
				<defs>
					<circle id="SVGID_12_" cx="129.4" cy="203.3" r="40.4"/>
				</defs>
				<clipPath id="SVGID_13_">
					<use xlink:href="#SVGID_12_"  style="overflow:visible;"/>
				</clipPath>
				<g class="st10">
					
						<linearGradient id="SVGID_14_" gradientUnits="userSpaceOnUse" x1="91" y1="-622.55" x2="177.1" y2="-622.55" gradientTransform="matrix(1 0 0 1 -4 825.8)">
						<stop  offset="0.11" style="stop-color:#FF1E00"/>
						<stop  offset="0.25" style="stop-color:#FF2700"/>
						<stop  offset="0.48" style="stop-color:#FF3F00"/>
						<stop  offset="0.77" style="stop-color:#FF6700"/>
						<stop  offset="1" style="stop-color:#FF8B00"/>
					</linearGradient>
					<rect x="87" y="160.8" class="st11" width="86.1" height="84.9"/>
				</g>
			</g>
		</g>
		<circle class="st3" cx="104.3" cy="203.5" r="5.8"/>
		<circle class="st3" cx="155.2" cy="203.5" r="5.8"/>
		<rect x="114.4" y="197.7" class="st3" width="11.5" height="11.5"/>
		
			<rect x="131.8" y="197.8" transform="matrix(0.7071 -0.7071 0.7071 0.7071 -103.6118 156.8607)" class="st3" width="11.5" height="11.5"/>
	</g>
</a>
<a xlink:href="#product-cawemo" >
	<g>
		<g id="Cawemo">
			<g>
				<defs>
					<circle id="SVGID_15_" cx="303.6" cy="203.3" r="40.4"/>
				</defs>
				<clipPath id="SVGID_16_">
					<use xlink:href="#SVGID_15_"  style="overflow:visible;"/>
				</clipPath>
				<g class="st12">
					
						<linearGradient id="SVGID_17_" gradientUnits="userSpaceOnUse" x1="265.3" y1="-622.55" x2="351.4" y2="-622.55" gradientTransform="matrix(1 0 0 1 -4 825.8)">
						<stop  offset="0.11" style="stop-color:#FF1E00"/>
						<stop  offset="0.25" style="stop-color:#FF2700"/>
						<stop  offset="0.48" style="stop-color:#FF3F00"/>
						<stop  offset="0.77" style="stop-color:#FF6700"/>
						<stop  offset="1" style="stop-color:#FF8B00"/>
					</linearGradient>
					<rect x="261.3" y="160.8" class="st13" width="86.1" height="84.9"/>
				</g>
			</g>
		</g>
		<path class="st0" d="M260.9,271.2c0-4.7,2.4-7.3,6.1-7.3c2.3-0.2,4.4,1.1,5.2,3.3l-2.6,1.4c-0.3-1.2-1.4-2-2.6-1.9
			c-1.8,0-3,1.2-3,3.4v2.2c0,2.2,1.2,3.4,3,3.4c1.3,0,2.4-0.8,2.8-2.1l2.5,1.4c-0.9,2.1-3,3.4-5.2,3.3
			C263.4,278.3,260.9,275.9,260.9,271.2z"/>
		<path class="st0" d="M282.8,278.1l-1-3.3h-4.6l-1,3.3h-3.1l4.6-13.9h3.7l4.5,13.9H282.8z M279.5,267h-0.1l-1.5,5.3h3.2L279.5,267z
			"/>
		<path class="st0" d="M289.6,278.1l-3.1-13.9h3l1.3,6.6l0.7,3.9h0.1l0.9-3.9l1.5-6.6h3.3l1.5,6.6l0.9,3.9h0.1l0.7-3.9l1.3-6.6h2.9
			l-3.2,13.9H298l-1.8-7.5l-0.7-3h-0.1l-0.7,3l-1.8,7.5H289.6z"/>
		<path class="st0" d="M306.7,278.1v-13.8h9.5v2.7h-6.4v2.8h5.5v2.7h-5.5v3h6.4v2.7h-9.5V278.1z"/>
		<path class="st0" d="M329.2,269L329.2,269l-1.1,2l-2.7,4.9l-2.6-4.9l-1-2.2h-0.1v9.2h-2.9v-13.8h3.1l3.4,6.5l0,0l3.4-6.5h3.2v13.9
			h-2.8V269H329.2z"/>
		<path class="st0" d="M334.6,271.1c0-4.7,2.4-7.2,6.1-7.2s6.1,2.5,6.1,7.2s-2.4,7.2-6.1,7.2S334.6,275.8,334.6,271.1z M343.6,272.1
			V270c0-2.2-1.1-3.5-2.9-3.5s-2.9,1.3-2.9,3.5v2.1c0,2.2,1.1,3.5,2.9,3.5S343.6,274.4,343.6,272.1z"/>
		<circle class="st3" cx="278.4" cy="203.3" r="5.8"/>
		<circle class="st3" cx="329.3" cy="203.3" r="5.8"/>
		<rect x="288.5" y="197.5" class="st3" width="11.5" height="11.5"/>
		
			<rect x="306" y="197.5" transform="matrix(0.7071 -0.7071 0.7071 0.7071 -52.4322 279.9402)" class="st3" width="11.5" height="11.5"/>
		<path class="st3" d="M279.6,215.4c2.6,5.1,6.7,9.2,11.7,11.8l0.9-2.1c-4.5-2.3-8.2-6-10.5-10.5L279.6,215.4z"/>
		<path class="st3" d="M296.1,179.9c4.9-1.6,10.1-1.6,15,0l0.9-2.1c-5.4-1.8-11.3-1.8-16.7,0L296.1,179.9z"/>
		<path class="st3" d="M296.1,226.7l-0.9,2.1c5.4,1.8,11.2,1.8,16.6,0.1l-0.9-2.1C306.1,228.3,300.9,228.3,296.1,226.7z"/>
		<path class="st3" d="M314.9,181.5c4.5,2.4,8.2,6.1,10.5,10.6l2.1-0.9c-2.6-5.1-6.7-9.3-11.8-11.9L314.9,181.5z"/>
		<path class="st3" d="M322,219.6c-2,2.3-4.5,4.2-7.2,5.6l0.9,2.1c3.3-1.6,6.2-3.9,8.5-6.8c1.3-1.5,2.4-3.1,3.3-4.9l-2.1-0.9
			C324.5,216.5,323.3,218.1,322,219.6z"/>
		<path class="st3" d="M285.2,187c2-2.3,4.4-4.1,7.1-5.5l-0.9-2.1c-3.3,1.6-6.1,3.9-8.5,6.7c-1.3,1.6-2.4,3.3-3.4,5.1l2.1,0.9
			C282.6,190.3,283.8,188.6,285.2,187z"/>
	</g>
</a>
<a xlink:href="#product-decision-engine" >
	<g>
		<g id="DMN">
			<g>
				<defs>
					
						<ellipse id="SVGID_18_" transform="matrix(7.080103e-02 -0.9975 0.9975 7.080103e-02 451.1879 1032.4919)" cx="779.8" cy="274.1" rx="40.4" ry="40.4"/>
				</defs>
				<clipPath id="SVGID_19_">
					<use xlink:href="#SVGID_18_"  style="overflow:visible;"/>
				</clipPath>
				<g class="st14">
					
						<linearGradient id="SVGID_20_" gradientUnits="userSpaceOnUse" x1="741.5" y1="-551.75" x2="827.6" y2="-551.75" gradientTransform="matrix(1 0 0 1 -4 825.8)">
						<stop  offset="0.11" style="stop-color:#FF1E00"/>
						<stop  offset="0.25" style="stop-color:#FF2700"/>
						<stop  offset="0.48" style="stop-color:#FF3F00"/>
						<stop  offset="0.77" style="stop-color:#FF6700"/>
						<stop  offset="1" style="stop-color:#FF8B00"/>
					</linearGradient>
					<rect x="737.5" y="231.6" class="st15" width="86.1" height="84.9"/>
				</g>
			</g>
		</g>
		<path class="st0" d="M732.8,335.6h5.2c3.7,0,6.1,2.3,6.1,6.9s-2.4,6.9-6.1,6.9h-5.2V335.6z M738,346.8c1.8,0,2.9-1,2.9-3.2v-2.1
			c0-2.2-1.1-3.2-2.9-3.2h-2.2v8.5L738,346.8z"/>
		<path class="st0" d="M746.7,349.5v-13.9h9.5v2.7h-6.4v2.8h5.5v2.7h-5.5v3h6.4v2.7L746.7,349.5z"/>
		<path class="st0" d="M758.2,342.6c0-4.7,2.4-7.3,6.2-7.3c2.3-0.2,4.4,1.1,5.2,3.3L767,340c-0.3-1.2-1.4-2-2.6-1.9
			c-1.8,0-3,1.2-3,3.4v2.2c0,2.2,1.2,3.4,3,3.4c1.3,0,2.4-0.8,2.8-2.1l2.5,1.4c-0.9,2.1-3,3.4-5.2,3.3
			C760.6,349.7,758.2,347.3,758.2,342.6z"/>
		<path class="st0" d="M771.2,349.5v-2.4h1.8v-9h-1.8v-2.4h6.6v2.4H776v9h1.8v2.4H771.2z"/>
		<path class="st0" d="M779.5,347.5l2-2c0.9,1,2.2,1.6,3.5,1.6c1.5,0,2.2-0.6,2.2-1.7c0-0.8-0.3-1.3-1.6-1.5l-1.4-0.2
			c-2.9-0.4-4.3-1.8-4.3-4.1c0-2.5,2-4.2,5.2-4.2c1.8-0.1,3.6,0.6,4.8,1.9l-2,2c-0.7-0.9-1.8-1.4-3-1.3c-1.4,0-2,0.5-2,1.4
			s0.5,1.3,1.7,1.5l1.4,0.2c2.8,0.5,4.2,1.7,4.2,4.1c0,2.7-2,4.5-5.4,4.5C782.8,349.7,780.9,348.9,779.5,347.5z"/>
		<path class="st0" d="M792.2,349.5v-2.4h1.8v-9h-1.8v-2.4h6.6v2.4H797v9h1.8v2.4H792.2z"/>
		<path class="st0" d="M800.8,342.5c0-4.7,2.4-7.2,6.1-7.2s6.1,2.4,6.1,7.2s-2.4,7.2-6.1,7.2S800.8,347.2,800.8,342.5z M809.8,343.5
			v-2.1c0-2.2-1.1-3.5-2.9-3.5s-2.9,1.3-2.9,3.5v2.1c0,2.2,1.1,3.5,2.9,3.5S809.8,345.8,809.8,343.5z"/>
		<path class="st0" d="M819.8,342.9l-1.3-2.8h-0.1v9.3h-2.8v-13.9h3.3l3.8,6.5l1.3,2.8l0,0v-9.3h2.8v13.9h-3.3L819.8,342.9z"/>
		<path class="st0" d="M743.4,373.3v-13.9h9.5v2.7h-6.4v2.8h5.6v2.7h-5.5v3h6.4v2.7L743.4,373.3z"/>
		<path class="st0" d="M759.7,366.7l-1.3-2.8h-0.1v9.3h-2.8v-13.8h3.3l3.8,6.5l1.3,2.8h0.1v-9.3h2.8v13.9h-3.3L759.7,366.7z"/>
		<path class="st0" d="M778.7,371.1L778.7,371.1c-0.3,1.4-1.6,2.5-3.7,2.5c-3.2,0-5.7-2.5-5.7-7.1s2.5-7.2,6.3-7.2
			c2.3-0.1,4.4,1.1,5.4,3.2l-2.5,1.4c-0.4-1.2-1.6-2-2.9-1.9c-1.9,0-3.1,1.1-3.1,3.4v2.2c0,2.3,1.2,3.4,3.1,3.4
			c1.5,0,2.7-0.7,2.7-2.1v-0.7h-2.6v-2.5h5.5v7.7h-2.5V371.1z"/>
		<path class="st0" d="M783.7,373.3v-2.4h1.8v-9.1h-1.8v-2.4h6.6v2.4h-1.8v9h1.8v2.4L783.7,373.3z"/>
		<path class="st0" d="M797,366.7l-1.3-2.8h-0.1v9.3h-2.8v-13.8h3.3l3.8,6.5l1.3,2.8h0.1v-9.3h2.8v13.9h-3.3L797,366.7z"/>
		<path class="st0" d="M807.2,373.3v-13.9h9.5v2.7h-6.4v2.8h5.5v2.7h-5.5v3h6.4v2.7L807.2,373.3z"/>
		<path class="st3" d="M757.4,259.6v32.5h44.8v-32.5H757.4z M798.4,263.4v5.9h-37.2v-5.9H798.4z M772.7,273.2h25.7v5.6h-25.7V273.2z
			 M768.9,278.8h-7.7v-5.6h7.7V278.8z M761.2,282.6h7.7v5.7h-7.7V282.6z M772.7,288.3v-5.7h25.7v5.7H772.7z"/>
	</g>
</a>
<a xlink:href="#product-workflow-engine" >
	<g>
		<g id="BPMN">
			<g>
				<defs>
					
						<ellipse id="SVGID_21_" transform="matrix(7.080101e-02 -0.9975 0.9975 7.080101e-02 268.032 835.9273)" cx="582.7" cy="274.1" rx="40.4" ry="40.4"/>
				</defs>
				<clipPath id="SVGID_22_">
					<use xlink:href="#SVGID_21_"  style="overflow:visible;"/>
				</clipPath>
				<g class="st16">
					
						<linearGradient id="SVGID_23_" gradientUnits="userSpaceOnUse" x1="544.4" y1="-551.75" x2="630.5" y2="-551.75" gradientTransform="matrix(1 0 0 1 -4 825.7999)">
						<stop  offset="0.11" style="stop-color:#FF1E00"/>
						<stop  offset="0.25" style="stop-color:#FF2700"/>
						<stop  offset="0.48" style="stop-color:#FF3F00"/>
						<stop  offset="0.77" style="stop-color:#FF6700"/>
						<stop  offset="1" style="stop-color:#FF8B00"/>
					</linearGradient>
					<rect x="540.4" y="231.6" class="st17" width="86.1" height="84.9"/>
				</g>
			</g>
		</g>
		<path class="st0" d="M529.6,349.5l-3.2-13.9h3l1.3,6.6l0.7,3.9h0.1l0.9-3.9l1.5-6.6h3.3l1.5,6.6l0.9,3.9h0.1l0.7-3.9l1.3-6.6h2.9
			l-3.2,13.9H538l-1.8-7.5l-0.7-3h-0.1l-0.7,3l-1.8,7.5H529.6z"/>
		<path class="st0" d="M545.8,342.5c0-4.7,2.4-7.2,6.1-7.2s6.1,2.4,6.1,7.2s-2.4,7.2-6.1,7.2S545.8,347.2,545.8,342.5z M554.8,343.5
			v-2.1c0-2.2-1.1-3.5-2.9-3.5s-2.9,1.3-2.9,3.5v2.1c0,2.2,1.1,3.5,2.9,3.5S554.8,345.8,554.8,343.5z"/>
		<path class="st0" d="M563.5,349.5h-3v-13.9h6.6c2.4,0.1,4.3,2.2,4.2,4.6c-0.1,1.6-1,3.1-2.5,3.8l2.7,5.4h-3.4l-2.4-5.1h-2.2
			L563.5,349.5z M566.7,341.8c0.7,0.1,1.4-0.4,1.5-1.1v-1.2c0.1-0.7-0.5-1.3-1.2-1.4h-3.5v3.6L566.7,341.8z"/>
		<path class="st0" d="M578.8,343.4l-1.8,2.2v3.9h-3v-13.9h3v6.6h0.1l2-2.7l3.1-3.9h3.4l-4.7,5.7l5.1,8.1h-3.6L578.8,343.4z"/>
		<path class="st0" d="M587.8,349.5v-13.9h9.2v2.7h-6.2v2.8h5.3v2.7h-5.3v5.7L587.8,349.5z"/>
		<path class="st0" d="M599.4,349.5v-13.9h3v11.2h5.3v2.7L599.4,349.5z"/>
		<path class="st0" d="M608.6,342.5c0-4.7,2.4-7.2,6.1-7.2s6.1,2.5,6.1,7.2s-2.4,7.2-6.1,7.2S608.6,347.2,608.6,342.5z M617.6,343.5
			v-2.1c0-2.2-1.1-3.5-2.9-3.5s-2.9,1.3-2.9,3.5v2.1c0,2.2,1.1,3.5,2.9,3.5S617.6,345.8,617.6,343.5z"/>
		<path class="st0" d="M625.1,349.5l-3.1-13.9h3l1.3,6.6l0.7,3.9h0.1l0.9-3.9l1.5-6.6h3.3l1.5,6.6l0.8,3.9h0.1l0.7-3.9l1.3-6.6h2.9
			l-3.2,13.9h-3.5l-1.8-7.5l-0.7-3h0.1l-0.7,3l-1.8,7.5H625.1z"/>
		<path class="st0" d="M546.9,373.3v-13.9h9.5v2.7H550v2.8h5.5v2.7H550v3h6.4v2.7L546.9,373.3z"/>
		<path class="st0" d="M563.2,366.7l-1.3-2.8h-0.1v9.3H559v-13.8h3.3l3.8,6.5l1.3,2.8h0.1v-9.3h2.8v13.9H567L563.2,366.7z"/>
		<path class="st0" d="M582.2,371.1L582.2,371.1c-0.3,1.4-1.6,2.5-3.7,2.5c-3.2,0-5.7-2.5-5.7-7.1s2.5-7.2,6.3-7.2
			c2.3-0.2,4.4,1.1,5.3,3.2l-2.4,1.3c-0.4-1.2-1.6-2-2.9-1.9c-1.9,0-3.1,1.1-3.1,3.4v2.2c0,2.3,1.2,3.4,3.1,3.4
			c1.5,0,2.7-0.7,2.7-2.1v-0.7h-2.6v-2.5h5.5v7.7h-2.5L582.2,371.1z"/>
		<path class="st0" d="M587.2,373.3v-2.4h1.8v-9.1h-1.8v-2.4h6.6v2.4H592v9h1.8v2.4L587.2,373.3z"/>
		<path class="st0" d="M600.5,366.7l-1.3-2.8h-0.1v9.3h-2.8v-13.8h3.3l3.8,6.5l1.3,2.8h0.1v-9.3h2.8v13.9h-3.3L600.5,366.7z"/>
		<path class="st0" d="M610.7,373.3v-13.9h9.5v2.7h-6.4v2.8h5.5v2.7h-5.5v3h6.4v2.7L610.7,373.3z"/>
		<g class="st18">
			<path class="st3" d="M592.2,268l4.3,1l-0.9-2.1l-4-1.2c-0.4-1.4,1.3-3.2,0.7-4.4l3.4-3.3l-6.1-6.2l-3.4,3.3
				c-0.6-0.4-1.2-0.7-1.9-0.9c-0.7-0.3-1.3-0.5-2-0.7v-4.7h-8.8v4.6c-1.4,0.4-2.7,0.9-3.9,1.6l-3.3-3.3l-6.2,6.1l3.3,3.3
				c-0.4,0.6-0.7,1.2-0.9,1.9c-0.3,0.7-0.5,1.3-0.7,2h-4.7v8.7h4.7c0.4,1.4,0.9,2.7,1.6,3.9L560,281l6.1,6.2l3.4-3.4
				c0.6,0.4,2.8-3.5,3.4-3.3s2,4.9,2.7,5l0.3,2.7l2.4,2.1l-2.5-10.7c1.4-0.4,1.8-3.9,3-4.6l2.5-4.8l4.5-2.2h3.1c0.3-0.6,1.7,0.6,2,0
				S592,268.7,592.2,268z M575.2,277.1c-2.2,0-1.6,3.4-3.3,2.4c-5.5-3.2-7.3-10.3-4-15.8c3.2-5.5,10.3-7.3,15.8-4c0,0,0,0,0.1,0
				c1.9,1.1,3.4,2.7,4.3,4.6c0.8,1.6-0.8,0.7-0.8,2.5c0,3.2-6.4,1.3-8.5,3.4S578.4,277.1,575.2,277.1z"/>
		</g>
		<path class="st3" d="M604.7,284.9h4.8v-8.7h-4.8c-0.4-1.4-0.9-2.7-1.6-3.9l3.4-3.3l-6.1-6.2l-3.4,3.3c-0.6-0.4-1.2-0.7-1.9-0.9
			c-0.7-0.3-1.3-0.5-2-0.7v-4.7h-8.8v4.6c-1.4,0.4-2.7,0.9-3.9,1.6l-3.2-3.2l-6.2,6.1l3.3,3.3c-0.4,0.6-0.7,1.2-0.9,1.9
			c-0.3,0.7-0.5,1.3-0.7,2H568v8.7h4.7c0.4,1.4,0.9,2.7,1.6,3.9l-3.4,3.4l6.1,6.2l3.4-3.4c0.6,0.4,1.2,0.7,1.9,0.9
			c0.6,0.3,1.3,0.5,2,0.7v4.9h8.7v-4.9c1.4-0.4,2.7-0.9,3.9-1.6l3.4,3.4l6.2-6.1l-3.4-3.4c0.4-0.6,0.7-1.2,0.9-1.9
			C604.3,286.2,604.5,285.5,604.7,284.9z M588.7,292c-6.4,0-11.5-5.1-11.5-11.5s5.1-11.5,11.5-11.5s11.5,5.1,11.5,11.5l0,0l0,0
			c0,6.3-5.1,11.5-11.4,11.5c0,0,0,0,0,0H588.7z"/>
	</g>
</a>
<path class="st19" d="M1362,408.6H919.6v-176l29.1-29.1l-29.1-29.1V0H1362V408.6z M921.9,406.3h437.8V2.3H921.9v171.2l30,30l-30,30
	V406.3z"/>
<path class="st19" d="M442.4,408.6H0V0h442.4v153.5l50,50l-50,50V408.6z M2.3,406.3h437.8V252.6l49.1-49.1l-49.1-49.1V2.3H2.3V406.3
	z"/>
<path class="st19" d="M901.9,408.6H459.5V233.2l29.7-29.7l-29.7-29.7V0h442.4v153.5l50,50l-50,50V408.6z M461.8,406.3h437.8V252.6
	l49.1-49.1l-49.1-49.1V2.3H461.8v170.6l30.6,30.6l-30.6,30.6L461.8,406.3z"/>
</svg>
