<svg id="_1" data-name="1" xmlns="http://www.w3.org/2000/svg" xmlns:xlink="http://www.w3.org/1999/xlink" viewBox="0 0 512 512"><defs><style>.cls-1{fill:url(#redmunda);}.cls-2{fill:#fff;}</style><linearGradient id="redmunda" y1="256" x2="512" y2="256" gradientUnits="userSpaceOnUse"><stop offset="0.11" stop-color="#ff1e00"/><stop offset="0.25" stop-color="#ff2700"/><stop offset="0.48" stop-color="#ff3f00"/><stop offset="0.77" stop-color="#ff6700"/><stop offset="1" stop-color="#ff8b00"/></linearGradient></defs><title>Camunda-cawemo-gradient</title><circle class="cls-1" cx="256" cy="256" r="256"/><circle class="cls-2" cx="94.82" cy="256" r="36.44"/><circle class="cls-2" cx="417.18" cy="256" r="36.44"/><rect class="cls-2" x="159.04" y="219.56" width="72.88" height="72.88"/><rect class="cls-2" x="269.35" y="219.56" width="72.88" height="72.88" transform="translate(270.58 -141.25) rotate(45)"/><path class="cls-2" d="M102.52,332.92a169.34,169.34,0,0,0,74.21,74.55l5.59-13.41a155,155,0,0,1-66.38-66.66Z"/><path class="cls-2" d="M207.06,107.73a154.94,154.94,0,0,1,94.69.09l5.6-13.41a169.35,169.35,0,0,0-105.81-.1Z"/><path class="cls-2" d="M206.59,404.18,201,417.59a169.44,169.44,0,0,0,105.19.31l-5.52-13.43A154.94,154.94,0,0,1,206.59,404.18Z"/><path class="cls-2" d="M326,117.94a154.9,154.9,0,0,1,66.67,67.24l13.43-5.52a169.37,169.37,0,0,0-74.5-75.13Z"/><path class="cls-2" d="M370.58,359.26A155.58,155.58,0,0,1,325,394.51l5.52,13.43a170,170,0,0,0,74.92-74.09L392,328.26A155.24,155.24,0,0,1,370.58,359.26Z"/><path class="cls-2" d="M137.79,152.75a155.6,155.6,0,0,1,45-35l-5.53-13.42A169.92,169.92,0,0,0,102.49,179l13.41,5.6A154.54,154.54,0,0,1,137.79,152.75Z"/></svg>