<svg version="1.1" viewBox="0.0 0.0 169.40944881889763 150.16010498687663" fill="none" stroke="none" stroke-linecap="square" stroke-miterlimit="10" xmlns:xlink="http://www.w3.org/1999/xlink" xmlns="http://www.w3.org/2000/svg"><clipPath id="p.0"><path d="m0 0l169.40945 0l0 150.16011l-169.40945 0l0 -150.16011z" clip-rule="nonzero"/></clipPath><g clip-path="url(#p.0)"><path fill="#000000" fill-opacity="0.0" d="m0 0l169.40945 0l0 150.16011l-169.40945 0z" fill-rule="evenodd"/><path fill="#000000" fill-opacity="0.0" d="m20.799213 75.080055l0 0c0 -33.545864 28.611473 -60.740158 63.905514 -60.740158l0 0c16.948792 0 33.203407 6.399391 45.18802 17.79038c11.984604 11.390987 18.717484 26.840485 18.717484 42.94978l0 0c0 33.54586 -28.611465 60.74015 -63.905502 60.74015l0 0c-35.29404 0 -63.905514 -27.19429 -63.905514 -60.74015z" fill-rule="evenodd"/><path stroke="#000000" stroke-width="1.0" stroke-linejoin="round" stroke-linecap="butt" d="m20.799213 75.080055l0 0c0 -33.545864 28.611473 -60.740158 63.905514 -60.740158l0 0c16.948792 0 33.203407 6.399391 45.18802 17.79038c11.984604 11.390987 18.717484 26.840485 18.717484 42.94978l0 0c0 33.54586 -28.611465 60.74015 -63.905502 60.74015l0 0c-35.29404 0 -63.905514 -27.19429 -63.905514 -60.74015z" fill-rule="evenodd"/><path fill="#cfe2f3" d="m44.839905 62.431763l0 0c-0.78448105 -6.095989 1.7911224 -12.13065 6.6338806 -15.543251c4.842762 -3.4126015 11.103363 -3.6046486 16.125206 -0.49464798l0 0c1.7788925 -3.5444603 5.034775 -5.9916687 8.782822 -6.601387c3.7480392 -0.6097183 7.548012 0.68966675 10.250504 3.5051117l0 0c1.5153885 -3.2136345 4.4908676 -5.3727875 7.870598 -5.711281c3.3797302 -0.33848953 6.6853867 1.1915894 8.74395 4.047283l0 0c2.73777 -3.4064445 7.0936203 -4.840702 11.182762 -3.6821556c4.089134 1.1585464 7.1771164 4.701809 7.9277496 9.096596l0 0c3.3542252 0.9674454 6.148224 3.4268188 7.6601105 6.7426987c1.5119019 3.3158798 1.5933685 7.162983 0.22337341 10.547344l0 0c3.3029327 4.5455627 4.075577 10.602478 2.0295868 15.9104c-2.04599 5.3079224 -6.6032257 9.069412 -11.971024 9.88073c-0.037834167 4.981682 -2.6216125 9.552811 -6.755432 11.951477c-4.1338196 2.3986588 -9.172173 2.2503052 -13.173058 -0.38789368c-1.7041702 5.966423 -6.500824 10.356461 -12.317635 11.273453c-5.8168106 0.9169922 -11.611 -1.8034515 -14.879272 -6.9859924c-4.0062103 2.5544968 -8.813332 3.2903595 -13.336967 2.0416107c-4.5236397 -1.2487564 -8.382751 -4.376938 -10.706791 -8.678894l0 0c-4.0938454 0.5065613 -8.052029 -1.736229 -9.910114 -5.6152954c-1.8580894 -3.8790665 -1.2205391 -8.568642 1.5962296 -11.74131l0 0c-3.6518135 -2.2727432 -5.51519 -6.782631 -4.61845 -11.177925c0.89673996 -4.395294 4.350395 -7.680004 8.560013 -8.141289z" fill-rule="evenodd"/><path fill="#000000" fill-opacity="0.0" d="m40.817417 81.98592l0 0c1.7233047 1.0725174 3.7141228 1.5590363 5.705158 1.3942337m2.6078262 15.962761c0.85622025 -0.1059494 1.6954765 -0.330307 2.496128 -0.6672821m21.546436 7.304291c-0.60220337 -0.95493317 -1.1064072 -1.975357 -1.5040054 -3.043892m28.70195 -1.2437515l0 0c0.31069183 -1.0877686 0.51200104 -2.2073135 0.6005478 -3.3399658m19.327194 -8.223198c0.040275574 -5.3037643 -2.8085938 -10.159943 -7.3229446 -12.482666m17.264282 -13.307907c-0.7310791 1.8060303 -1.847168 3.4081345 -3.2607346 4.680702m-4.6220703 -21.971218l0 0c0.124572754 0.7293167 0.18222046 1.4695969 0.17215729 2.210575m-19.282333 -7.624794l0 0c-0.6829376 0.8497391 -1.2455826 1.7993126 -1.670433 2.819149m-14.944275 -1.1555214l0 0c-0.363945 0.7718086 -0.6357193 1.58852 -0.8090515 2.4313126m-18.224556 0.6650238l0 0c1.0626221 0.6580734 2.0456848 1.4501381 2.9276047 2.3587875m-25.686394 13.679199l0 0c0.108119965 0.84018326 0.27895737 1.6700134 0.51091385 2.4817123" fill-rule="evenodd"/><path stroke="#000000" stroke-width="1.0" stroke-linejoin="round" stroke-linecap="butt" d="m44.839905 62.431763l0 0c-0.78448105 -6.095989 1.7911224 -12.13065 6.6338806 -15.543251c4.842762 -3.4126015 11.103363 -3.6046486 16.125206 -0.49464798l0 0c1.7788925 -3.5444603 5.034775 -5.9916687 8.782822 -6.601387c3.7480392 -0.6097183 7.548012 0.68966675 10.250504 3.5051117l0 0c1.5153885 -3.2136345 4.4908676 -5.3727875 7.870598 -5.711281c3.3797302 -0.33848953 6.6853867 1.1915894 8.74395 4.047283l0 0c2.73777 -3.4064445 7.0936203 -4.840702 11.182762 -3.6821556c4.089134 1.1585464 7.1771164 4.701809 7.9277496 9.096596l0 0c3.3542252 0.9674454 6.148224 3.4268188 7.6601105 6.7426987c1.5119019 3.3158798 1.5933685 7.162983 0.22337341 10.547344l0 0c3.3029327 4.5455627 4.075577 10.602478 2.0295868 15.9104c-2.04599 5.3079224 -6.6032257 9.069412 -11.971024 9.88073c-0.037834167 4.981682 -2.6216125 9.552811 -6.755432 11.951477c-4.1338196 2.3986588 -9.172173 2.2503052 -13.173058 -0.38789368c-1.7041702 5.966423 -6.500824 10.356461 -12.317635 11.273453c-5.8168106 0.9169922 -11.611 -1.8034515 -14.879272 -6.9859924c-4.0062103 2.5544968 -8.813332 3.2903595 -13.336967 2.0416107c-4.5236397 -1.2487564 -8.382751 -4.376938 -10.706791 -8.678894l0 0c-4.0938454 0.5065613 -8.052029 -1.736229 -9.910114 -5.6152954c-1.8580894 -3.8790665 -1.2205391 -8.568642 1.5962296 -11.74131l0 0c-3.6518135 -2.2727432 -5.51519 -6.782631 -4.61845 -11.177925c0.89673996 -4.395294 4.350395 -7.680004 8.560013 -8.141289z" fill-rule="evenodd"/><path stroke="#000000" stroke-width="1.0" stroke-linejoin="round" stroke-linecap="butt" d="m40.817417 81.98592l0 0c1.7233047 1.0725174 3.7141228 1.5590363 5.705158 1.3942337m2.6078262 15.962761c0.85622025 -0.1059494 1.6954765 -0.330307 2.496128 -0.6672821m21.546436 7.304291c-0.60220337 -0.95493317 -1.1064072 -1.975357 -1.5040054 -3.043892m28.70195 -1.2437515l0 0c0.31069183 -1.0877686 0.51200104 -2.2073135 0.6005478 -3.3399658m19.327194 -8.223198c0.040275574 -5.3037643 -2.8085938 -10.159943 -7.3229446 -12.482666m17.264282 -13.307907c-0.7310791 1.8060303 -1.847168 3.4081345 -3.2607346 4.680702m-4.6220703 -21.971218l0 0c0.124572754 0.7293167 0.18222046 1.4695969 0.17215729 2.210575m-19.282333 -7.624794l0 0c-0.6829376 0.8497391 -1.2455826 1.7993126 -1.670433 2.819149m-14.944275 -1.1555214l0 0c-0.363945 0.7718086 -0.6357193 1.58852 -0.8090515 2.4313126m-18.224556 0.6650238l0 0c1.0626221 0.6580734 2.0456848 1.4501381 2.9276047 2.3587875m-25.686394 13.679199l0 0c0.108119965 0.84018326 0.27895737 1.6700134 0.51091385 2.4817123" fill-rule="evenodd"/></g></svg>