<svg id="_1" data-name="1" xmlns="http://www.w3.org/2000/svg" xmlns:xlink="http://www.w3.org/1999/xlink" viewBox="0 0 512 512"><defs><style>.cls-1{fill:url(#redmunda);}.cls-2,.cls-3{fill:#fff;}.cls-2{opacity:0.75;}</style><linearGradient id="redmunda" y1="256" x2="512" y2="256" gradientUnits="userSpaceOnUse"><stop offset="0.11" stop-color="#ff1e00"/><stop offset="0.25" stop-color="#ff2700"/><stop offset="0.48" stop-color="#ff3f00"/><stop offset="0.77" stop-color="#ff6700"/><stop offset="1" stop-color="#ff8b00"/></linearGradient></defs><title>Camunda-cloud-gradient</title><circle class="cls-1" cx="256" cy="256" r="256"/><path class="cls-2" d="M139.71,297.69A72.61,72.61,0,1,1,241.26,194.15a65.19,65.19,0,0,1,39.78-4.8l19.38-19.16-38.82-39-21.27,21a101.8,101.8,0,0,0-24.66-10.3l.1-29.63h-55.5l.16,29.36a105.32,105.32,0,0,0-24.67,10L115.19,131,76,169.59l20.58,20.66a104.49,104.49,0,0,0-6,11.87,101.37,101.37,0,0,0-4.36,12.55l-29.82-.17v54.89l29.49.18A103.9,103.9,0,0,0,96,294.16L74.25,315.54l38.85,39,21.7-21.38c.44.26.89.47,1.33.72a77.24,77.24,0,0,1-.83-10.71A76.25,76.25,0,0,1,139.71,297.69Z"/><path class="cls-3" d="M405,266.55a67.75,67.75,0,0,0-80.19-49,67.73,67.73,0,0,0-122.94,29.72,76.6,76.6,0,0,0,10,152.52H387.93A67.69,67.69,0,0,0,405,266.55Z"/></svg>