<?xml version="1.0" encoding="utf-8"?>
<!-- Generator: Adobe Illustrator 21.1.0, SVG Export Plug-In . SVG Version: 6.00 Build 0)  -->
<svg version="1.1" id="Ebene_1" xmlns="http://www.w3.org/2000/svg" xmlns:xlink="http://www.w3.org/1999/xlink" x="0px" y="0px"
	 viewBox="0 0 133 132.5" style="enable-background:new 0 0 133 132.5;" xml:space="preserve">
<style type="text/css">
	.st0{clip-path:url(#SVGID_1_);fill:none;stroke:#999999;stroke-miterlimit:10;}
	.st1{clip-path:url(#SVGID_2_);fill:none;stroke:#999999;stroke-miterlimit:10;}
	.st2{fill:none;stroke:#999999;stroke-miterlimit:10;}
	.st3{fill:#00A8FF;}
	.st4{fill:none;stroke:#033333;stroke-width:2;stroke-linecap:round;stroke-miterlimit:10;}
	.st5{fill:#033333;}
</style>
<g>
	<g>
		<g>
			<g>
				<defs>
					<path id="SVGID_7_" d="M66.2,3.6C31.6,3.6,3.5,31.7,3.5,66.2s28.1,62.7,62.7,62.7S129,100.8,129,66.2S100.8,3.6,66.2,3.6z"/>
				</defs>
				<clipPath id="SVGID_1_">
					<use xlink:href="#SVGID_7_"  style="overflow:visible;"/>
				</clipPath>
				<circle class="st0" cx="66.2" cy="66.2" r="62.7"/>
			</g>
		</g>
		<g>
			<g>
				<defs>
					<path id="SVGID_9_" d="M66.2,3.6C31.6,3.6,3.5,31.7,3.5,66.2s28.1,62.7,62.7,62.7S129,100.8,129,66.2S100.8,3.6,66.2,3.6z"/>
				</defs>
				<clipPath id="SVGID_2_">
					<use xlink:href="#SVGID_9_"  style="overflow:visible;"/>
				</clipPath>
				<circle class="st1" cx="66.2" cy="66.2" r="62"/>
			</g>
		</g>
		<g>
			<path id="SVGID_4_" class="st2" d="M66.2,3.6C31.6,3.6,3.5,31.7,3.5,66.2s28.1,62.7,62.7,62.7S129,100.8,129,66.2
				S100.8,3.6,66.2,3.6z"/>
		</g>
	</g>
	<g>
		<g>
			<path class="st3" d="M66.2,36.4C82.7,36.4,96,49.8,96,66.2S82.6,96.1,66.2,96.1S36.5,82.7,36.5,66.2S49.9,36.4,66.2,36.4
				 M66.2,33.4c-18.1,0-32.8,14.7-32.8,32.8s14.7,32.8,32.8,32.8S99,84.4,99,66.2S84.3,33.4,66.2,33.4L66.2,33.4z"/>
		</g>
	</g>
	<path class="st3" d="M63.8,68.6c-1.3-1.3-1.3-3.4,0-4.7c1.3-1.3,3.4-1.3,4.7,0S79.3,76.8,78,78.1S65.2,69.8,63.8,68.6z"/>
	<line class="st4" x1="66.2" y1="44.2" x2="66.2" y2="40.2"/>
	<line class="st4" x1="66.5" y1="88.6" x2="66.5" y2="92.6"/>
	<line class="st4" x1="44.1" y1="66.6" x2="40.1" y2="66.6"/>
	<line class="st4" x1="88.7" y1="66.2" x2="92.7" y2="66.2"/>
	<line class="st4" x1="50.5" y1="50.8" x2="47.8" y2="47.9"/>
	<line class="st4" x1="82.2" y1="82.1" x2="85.2" y2="84.9"/>
	<line class="st4" x1="50.8" y1="82.2" x2="48" y2="85.1"/>
	<line class="st4" x1="82" y1="50.6" x2="84.8" y2="47.8"/>
	<circle class="st5" cx="66.2" cy="66.2" r="4"/>
</g>
</svg>
