<?xml version="1.0" encoding="utf-8"?>
<!-- Generator: Adobe Illustrator 21.1.0, SVG Export Plug-In . SVG Version: 6.00 Build 0)  -->
<svg version="1.1" id="Ebene_1" xmlns="http://www.w3.org/2000/svg" xmlns:xlink="http://www.w3.org/1999/xlink" x="0px" y="0px"
	 viewBox="0 0 133 132.5" style="enable-background:new 0 0 133 132.5;" xml:space="preserve">
<style type="text/css">
	.st0{clip-path:url(#SVGID_1_);fill:none;stroke:#999999;stroke-miterlimit:10;}
	.st1{clip-path:url(#SVGID_2_);fill:none;stroke:#999999;stroke-miterlimit:10;}
	.st2{fill:none;stroke:#999999;stroke-miterlimit:10;}
	.st3{fill:none;stroke:#00A8FF;stroke-width:2;stroke-linecap:round;stroke-miterlimit:10;}
	.st4{fill:none;stroke:#00A8FF;stroke-width:5;stroke-linecap:round;stroke-miterlimit:10;}
	.st5{fill:#333333;}
	.st6{fill:#FFFFFF;}
</style>
<g>
	<g>
		<g>
			<g>
				<defs>
					<path id="SVGID_7_" d="M66.2,3.5C31.6,3.5,3.5,31.6,3.5,66.2S31.6,129,66.2,129S129,100.9,129,66.2S100.8,3.5,66.2,3.5z"/>
				</defs>
				<clipPath id="SVGID_1_">
					<use xlink:href="#SVGID_7_"  style="overflow:visible;"/>
				</clipPath>
				<circle class="st0" cx="66.2" cy="66.2" r="62.7"/>
			</g>
		</g>
		<g>
			<g>
				<defs>
					<path id="SVGID_9_" d="M66.2,3.5C31.6,3.5,3.5,31.6,3.5,66.2S31.6,129,66.2,129S129,100.9,129,66.2S100.8,3.5,66.2,3.5z"/>
				</defs>
				<clipPath id="SVGID_2_">
					<use xlink:href="#SVGID_9_"  style="overflow:visible;"/>
				</clipPath>
				<circle class="st1" cx="66.2" cy="66.2" r="62"/>
			</g>
		</g>
		<g>
			<path id="SVGID_6_" class="st2" d="M66.2,3.5C31.6,3.5,3.5,31.6,3.5,66.2S31.6,129,66.2,129S129,100.9,129,66.2
				S100.8,3.5,66.2,3.5z"/>
		</g>
	</g>
	<line class="st3" x1="42.1" y1="84.2" x2="91.2" y2="84.2"/>
	<line class="st3" x1="42.1" y1="79.8" x2="91.2" y2="79.8"/>
	<line class="st3" x1="42.1" y1="75.2" x2="91.2" y2="75.2"/>
	<line class="st3" x1="42.1" y1="70.8" x2="91.2" y2="70.8"/>
	<line class="st3" x1="42.1" y1="66.2" x2="91.2" y2="66.2"/>
	<line class="st3" x1="42.1" y1="61.8" x2="91.2" y2="61.8"/>
	<line class="st3" x1="42.1" y1="57.2" x2="91.2" y2="57.2"/>
	<line class="st3" x1="42.1" y1="52.8" x2="91.2" y2="52.8"/>
	<line class="st3" x1="42.1" y1="48.2" x2="91.2" y2="48.2"/>
	<line class="st4" x1="43.5" y1="42.1" x2="90" y2="42.1"/>
	<line class="st4" x1="43.5" y1="90.4" x2="90" y2="90.4"/>
	<g>
		<circle class="st5" cx="66.2" cy="66.2" r="14.4"/>
		<g>
			<g>
				
					<ellipse transform="matrix(0.6973 -0.7168 0.7168 0.6973 -31.1338 65.9736)" class="st6" cx="62.5" cy="69.8" rx="2.7" ry="2.7"/>
				<path class="st6" d="M71.8,65.9L71.8,65.9l0.3,1.1l-1.2,0.5l-0.6-1l0,0c-0.4,0.1-0.9,0.1-1.4,0l-0.6,1L67.1,67l0.3-1.1l0,0
					c-0.4-0.3-0.7-0.6-0.9-1l0,0l-1.1,0.3l-0.5-1.2l1-0.6l0,0c-0.1-0.4-0.1-0.9,0-1.4l-1-0.6l0.5-1.2l1.1,0.3l0,0
					c0.2-0.2,0.3-0.4,0.5-0.6h-6.5c-0.5,0-0.8,0.4-0.8,0.8v5.5l0.8,0.6l0,0c0.4-0.3,0.8-0.4,1.2-0.5l0,0l0.2-1.1h1.3l0.2,1.1l0,0
					c0.4,0.1,0.9,0.2,1.2,0.5l0.9-0.7l1,0.9l-0.7,0.9l0,0c0.2,0.4,0.4,0.8,0.5,1.2l0,0l1.1,0.1v1.3l-1.1,0.2l0,0
					c-0.1,0.4-0.2,0.9-0.5,1.2l0.6,0.8h5.3c0.5,0,0.8-0.4,0.8-0.8v-6.6C72.3,65.5,72,65.6,71.8,65.9z"/>
				
					<ellipse transform="matrix(0.3828 -0.9238 0.9238 0.3828 -14.9332 102.9843)" class="st6" cx="69.6" cy="62.7" rx="2.7" ry="2.7"/>
			</g>
		</g>
	</g>
</g>
</svg>
