<?xml version="1.0" encoding="utf-8"?>
<!-- Generator: Adobe Illustrator 22.0.1, SVG Export Plug-In . SVG Version: 6.00 Build 0)  -->
<svg version="1.1" id="Ebene_1" xmlns="http://www.w3.org/2000/svg" xmlns:xlink="http://www.w3.org/1999/xlink" x="0px" y="0px"
	 viewBox="0 0 1072 536.2" style="enable-background:new 0 0 1072 536.2;" xml:space="preserve">
<style type="text/css">
	.st0{clip-path:url(#SVGID_5_);fill:none;stroke:#999999;stroke-miterlimit:10;}
	.st1{clip-path:url(#SVGID_9_);fill:none;stroke:#999999;stroke-miterlimit:10;}
	.st2{fill:none;stroke:#999999;stroke-miterlimit:10;}
	.st3{fill:none;stroke:#333333;stroke-width:2;stroke-miterlimit:10;}
	.st4{fill:none;stroke:#333333;stroke-width:2;stroke-miterlimit:10;stroke-dasharray:5.1075,5.1075;}
	.st5{fill:none;stroke:#333333;stroke-width:2;stroke-miterlimit:10;stroke-dasharray:4.8539,4.8539;}
	.st6{fill:#FFFFFF;stroke:#00A8FF;stroke-width:3;stroke-miterlimit:10;}
	.st7{fill:#FFFFFF;}
	.st8{clip-path:url(#SVGID_12_);fill:none;stroke:#999999;stroke-miterlimit:10;}
	.st9{clip-path:url(#SVGID_14_);fill:none;stroke:#999999;stroke-miterlimit:10;}
	.st10{fill:url(#SVGID_15_);}
	.st11{fill:none;stroke:#00A8FF;stroke-width:3;stroke-miterlimit:10;}
	.st12{clip-path:url(#SVGID_17_);fill:none;stroke:#999999;stroke-miterlimit:10;}
	.st13{clip-path:url(#SVGID_19_);fill:none;stroke:#999999;stroke-miterlimit:10;}
	.st14{fill:#00A8FF;}
	.st15{fill:#333333;}
	.st16{clip-path:url(#SVGID_21_);fill:none;}
	.st17{clip-path:url(#SVGID_23_);}
	.st18{clip-path:url(#SVGID_25_);fill:none;stroke:#4D4D4D;stroke-width:3;stroke-linecap:round;stroke-miterlimit:10;}
	.st19{clip-path:url(#SVGID_27_);}
	.st20{clip-path:url(#SVGID_29_);fill:none;stroke:#999999;stroke-miterlimit:10;}
	.st21{clip-path:url(#SVGID_31_);fill:none;stroke:#999999;stroke-miterlimit:10;}
	.st22{fill:none;stroke:#999999;stroke-miterlimit:10;stroke-dasharray:5;}
	.st23{fill:none;stroke:#999999;stroke-miterlimit:10;stroke-dasharray:4.8667,4.8667;}
	.st24{clip-path:url(#SVGID_33_);fill:none;stroke:#989898;stroke-miterlimit:10;}
	.st25{clip-path:url(#SVGID_35_);fill:none;stroke:#989898;stroke-miterlimit:10;}
	.st26{fill:none;stroke:#989898;stroke-miterlimit:10;}
	.st27{fill:#1D1D1B;}
	.st28{clip-path:url(#SVGID_37_);fill:none;stroke:#999999;stroke-miterlimit:10;}
	.st29{clip-path:url(#SVGID_39_);fill:none;stroke:#999999;stroke-miterlimit:10;}
	.st30{clip-path:url(#SVGID_42_);fill:none;stroke:#999999;stroke-miterlimit:10;}
	.st31{clip-path:url(#SVGID_44_);fill:none;stroke:#999999;stroke-miterlimit:10;}
	.st32{fill:none;stroke:#999999;stroke-miterlimit:10;stroke-dasharray:5.1451,5.1451;}
	.st33{fill:none;stroke:#999999;stroke-width:1.9278;stroke-linecap:round;stroke-miterlimit:10;}
</style>
<g>
	<g>
		<g>
			<g>
				<g>
					<g>
						<g>
							<defs>
								<circle id="SVGID_4_" cx="85" cy="113" r="62.7"/>
							</defs>
							<clipPath id="SVGID_5_">
								<use xlink:href="#SVGID_4_"  style="overflow:visible;"/>
							</clipPath>
							<circle class="st0" cx="85" cy="113" r="62.7"/>
						</g>
					</g>
				</g>
			</g>
		</g>
	</g>
	<g>
		<g>
			<g>
				<g>
					<g>
						<g>
							<defs>
								<circle id="SVGID_7_" cx="85" cy="113" r="62.7"/>
							</defs>
							<clipPath id="SVGID_9_">
								<use xlink:href="#SVGID_7_"  style="overflow:visible;"/>
							</clipPath>
							<circle class="st1" cx="85" cy="113" r="62"/>
						</g>
					</g>
				</g>
			</g>
		</g>
	</g>
	<g>
		<path id="SVGID_1_" class="st2" d="M85,50.3c-34.6,0-62.7,28.1-62.7,62.7s28.1,62.7,62.7,62.7s62.7-28.1,62.7-62.7
			S119.6,50.3,85,50.3z"/>
	</g>
</g>
<g>
	<g>
		<line class="st3" x1="95.9" y1="51.8" x2="95.9" y2="54.3"/>
		<line class="st4" x1="95.9" y1="59.4" x2="95.9" y2="169.2"/>
		<line class="st3" x1="95.9" y1="171.7" x2="95.9" y2="174.2"/>
	</g>
</g>
<g>
	<g>
		<line class="st3" x1="27" y1="94.8" x2="29.5" y2="94.8"/>
		<line class="st5" x1="34.4" y1="94.8" x2="138.8" y2="94.8"/>
		<line class="st3" x1="141.2" y1="94.8" x2="143.7" y2="94.8"/>
	</g>
</g>
<circle class="st6" cx="82.1" cy="110.8" r="24.1"/>
<g>
	<g>
		<path class="st7" d="M77.4,128c-0.6-0.1-1,1.4-1.3,1.9s-0.4,1.1-0.5,1.7c-0.1,0.8-0.1,1.7,0,2.5c0.1,0.7,0.2,1.5,0.4,2.2
			c0.1,0.7,0.3,1.3,0.4,2c0.2,1.2,0.5,2.4,1.2,3.4c0.5,0.7,1.2,1.3,2,1.8c1.9,1.4,4,2.5,6.3,3.1c1.7,0.4,3.5,0.4,5.3,0.4
			c2.3,0,4.7-0.1,6.6-1.5c1-0.8,1.7-1.9,2.4-2.9c0.4-0.6,0.7-1.2,0.9-1.9c0.5-1.5,0.2-3,0.1-4.6c-0.2-3.5,0.4-7.3-1.3-10.5
			c-0.2-0.3-0.4-0.7-0.8-0.6c-0.4,0-0.3,0.5-0.4,0.2c-0.2-1-0.9-0.1-1.7-0.6c-0.5-0.3-1.7,0.9-1.9,0.4c-0.2-0.8-0.3-1.7-0.2-2.5
			c0-0.3,0-0.7-0.2-0.9c-0.3-0.3-1.8,0-2.2,0.3c-1.3,0.7-0.6-0.5-0.6,2.2c0,0.6-0.1,1-0.9,1c-1,0-0.7-1.1-0.8-2.2
			c-0.1-1-0.1-1.9-0.6-2.8c-0.2-0.4-1.5-1.1-2-1c-0.7,0.2-2,0.9-1.9,1.6c0.1,1.1,1.1,2.5,0.7,3.6c-0.2,0.6-1.4,0.6-1.3,1.2
			c0,0.1-0.2-0.7,0-1.4c0.3-1,1-2.7-2.6-2c-0.7,0.1-1.3,0.5-1.4,1.1s0,1.3,0.1,2c0.1,0.9,0,1.9,0,2.8c-0.1,1.3,0.3,2.9-0.7,3.7
			c-0.9,0.7-0.3,1.3-1.5,1.8c0-1.8,1-3.8,1.1-5.6h-2.7V128z"/>
	</g>
	<path d="M98.9,122.7c-0.5,0-1,0-1.6,0c0-0.5-0.5-1.6-1-2.1s-1.3-1-2.8-1c-0.5,0-1,0-1.6,0.3c-0.3-0.5-0.5-0.8-0.8-1.3
		c-0.5-0.5-1.3-1-2.8-1c-2.1,0-3.1,1.3-3.6,2.6c-0.3,0-0.8-0.3-1.3-0.3c-1.3,0-2.1,0.5-2.8,1c-1.3,1.6-1.3,3.6-1.3,3.9v1
		c-1.6,0-2.8,0.5-3.6,1.3c-1.6,1.8-1.6,4.1-1.6,7.2c0,0.5,0,1.3,0,1.8c0,3.6,1.8,5.4,3.6,7.2l0.8,1c3.4,3.1,6.5,4.1,13.2,4.1
		c7.5,0,10.9-4.1,10.9-13.2v-6.5C102.5,127.1,102,123.5,98.9,122.7z M93.4,122.2c1,0,1.3,1,1.3,1.6v2.1c0,0.8,0.5,1.3,1,1.3
		c0.8,0,1.3-0.3,1.3-1c0,0,0-1,1-0.8c1.6,0.5,1.8,2.8,1.8,3.4l0,0v6.7c0,8.8-3.4,10.6-8.3,10.6c-6.2,0-8.5-0.8-11.1-3.4
		c-0.3-0.3-0.5-0.5-1-1c-1.8-1.8-2.8-2.8-2.8-5.4c0-0.5,0-0.8,0-1.6c0-2.6,0-4.7,0.8-5.4c0.3-0.5,1-0.8,1.8-0.8v2.1l-0.8,3.1
		c0,0.3,0,0.3,0.3,0.3c0.3,0.3,0.5,0,0.5,0l2.6-3.1v-0.3v-5.2c0-0.3,0-1.6,0.5-2.1c0.3-0.3,0.5-0.5,1-0.5c0.8,0,1,0.5,1,1v1
		c0,0.5,0.5,1.3,1.3,1.3s1.3-0.8,1.3-1.3v-3.4c0-0.3,0-1.3,1.3-1.3c0.8,0,1.3,0.5,1.3,1.3v3.1c0,0.8,0.5,1.6,1.3,1.6
		s1.3-0.8,1.3-1.3v-1.3C92.2,122.7,92.7,122.2,93.4,122.2z"/>
</g>
<g>
	<g>
		<g>
			<g>
				<g>
					<g>
						<g>
							<g>
								<defs>
									<circle id="SVGID_10_" cx="742" cy="113" r="62.7"/>
								</defs>
								<clipPath id="SVGID_12_">
									<use xlink:href="#SVGID_10_"  style="overflow:visible;"/>
								</clipPath>
								<circle class="st8" cx="742" cy="113" r="62.7"/>
							</g>
						</g>
					</g>
				</g>
			</g>
		</g>
		<g>
			<g>
				<g>
					<g>
						<g>
							<g>
								<defs>
									<circle id="SVGID_13_" cx="742" cy="113" r="62.7"/>
								</defs>
								<clipPath id="SVGID_14_">
									<use xlink:href="#SVGID_13_"  style="overflow:visible;"/>
								</clipPath>
								<circle class="st9" cx="742" cy="113" r="62"/>
							</g>
						</g>
					</g>
				</g>
			</g>
		</g>
		<g>
			<path id="SVGID_8_" class="st2" d="M742,50.3c-34.6,0-62.7,28.1-62.7,62.7s28.1,62.7,62.7,62.7s62.7-28.1,62.7-62.7
				S776.6,50.3,742,50.3z"/>
		</g>
	</g>
	<g>
		<g>
			
				<linearGradient id="SVGID_15_" gradientUnits="userSpaceOnUse" x1="755.54" y1="148.41" x2="770.4537" y2="133.4963" gradientTransform="matrix(1 0 0 1 0 -48)">
				<stop  offset="0" style="stop-color:#333333"/>
				<stop  offset="1" style="stop-color:#808080"/>
			</linearGradient>
			<path class="st10" d="M761,95h-7.2v-3.2h7.2v-7.4h3.2v7.4h7.2V95h-7.2v7.3H761V95z"/>
		</g>
		<g>
			<path class="st11" d="M743.1,92c3.8,2.2,5.9,6.4,5.9,11.9c0,9.3-5.7,18.5-11.4,18.5c-5.8,0-11.4-9.2-11.4-18.5
				c0-5.5,2.1-9.7,5.9-11.9c1.7-1,3.6-1.5,5.5-1.5S741.4,91,743.1,92z"/>
			<path class="st11" d="M761.5,131.8l1.4,4.4c0.2,0.6,0.1,1.3-0.2,1.9c-0.4,0.5-0.9,0.9-1.5,0.9h-47c-0.6,0-1.2-0.3-1.5-0.9
				c-0.3-0.5-0.4-1.2-0.3-1.9l1.4-4.4c2.1-6.8,7.5-11.8,14-12.8c2.9,3.1,6.3,4.7,9.9,4.7c3.6,0,7-1.6,9.9-4.7
				C754,120,759.4,124.9,761.5,131.8z"/>
		</g>
	</g>
</g>
<g>
	<g>
		<g>
			<g>
				<g>
					<g>
						<g>
							<g>
								<defs>
									
										<ellipse id="SVGID_16_" transform="matrix(0.7071 -0.7071 0.7071 0.7071 201.7564 713.3524)" cx="962" cy="113.1" rx="62.7" ry="62.7"/>
								</defs>
								<clipPath id="SVGID_17_">
									<use xlink:href="#SVGID_16_"  style="overflow:visible;"/>
								</clipPath>
								
									<ellipse transform="matrix(0.7071 -0.7071 0.7071 0.7071 201.8668 713.3157)" class="st12" cx="962" cy="113" rx="62.7" ry="62.7"/>
							</g>
						</g>
					</g>
				</g>
			</g>
		</g>
		<g>
			<g>
				<g>
					<g>
						<g>
							<g>
								<defs>
									
										<ellipse id="SVGID_18_" transform="matrix(0.7071 -0.7071 0.7071 0.7071 201.8586 713.3236)" cx="962" cy="113" rx="62.7" ry="62.7"/>
								</defs>
								<clipPath id="SVGID_19_">
									<use xlink:href="#SVGID_18_"  style="overflow:visible;"/>
								</clipPath>
								<circle class="st13" cx="962" cy="113" r="62"/>
							</g>
						</g>
					</g>
				</g>
			</g>
		</g>
		<g>
			<path id="SVGID_11_" class="st2" d="M962,50.3c-34.6,0-62.7,28.1-62.7,62.7s28.1,62.7,62.7,62.7s62.7-28.1,62.7-62.7
				S996.6,50.3,962,50.3z"/>
		</g>
	</g>
	<g>
		<polygon class="st14" points="929.2,140.8 949.7,129.6 950,129.5 950.4,129.5 966.5,131.3 964.3,133.2 962,105.5 961.9,103.9 
			963.5,102.7 977.7,92 982.4,98.8 967.2,108.2 968.7,105.3 968.1,133.1 968.1,135.6 965.9,135.1 950,131.8 950.7,131.7 		"/>
		<g>
			<g>
				<polygon class="st15" points="984.1,107.7 994.8,85.2 970,87.2 				"/>
			</g>
		</g>
	</g>
</g>
<g>
	<g>
		<g>
			<g>
				<g>
					<g>
						<g>
							<g>
								<defs>
									<circle id="SVGID_20_" cx="302" cy="113" r="62.7"/>
								</defs>
								<clipPath id="SVGID_21_">
									<use xlink:href="#SVGID_20_"  style="overflow:visible;"/>
								</clipPath>
								<circle class="st16" cx="302" cy="113" r="62"/>
							</g>
						</g>
					</g>
				</g>
			</g>
		</g>
		<g>
			<g>
				<g>
					<g>
						<g>
							<g>
								<defs>
									<circle id="SVGID_22_" cx="302" cy="113" r="62.7"/>
								</defs>
								<clipPath id="SVGID_23_">
									<use xlink:href="#SVGID_22_"  style="overflow:visible;"/>
								</clipPath>
								<g class="st17">
									<g>
										<path class="st14" d="M296.4,97.3c1.1,0,2,0.9,2,2v27.3c0,1.1-0.9,2-2,2h-27.3c-1.1,0-2-0.9-2-2V99.3c0-1.1,0.9-2,2-2
											H296.4 M296.4,94.3h-27.3c-2.8,0-5,2.2-5,5v27.3c0,2.8,2.2,5,5,5h27.3c2.8,0,5-2.2,5-5V99.3
											C301.4,96.6,299.2,94.3,296.4,94.3L296.4,94.3z"/>
									</g>
								</g>
							</g>
						</g>
					</g>
				</g>
			</g>
		</g>
		<g>
			<g>
				<g>
					<g>
						<g>
							<g>
								<defs>
									<circle id="SVGID_24_" cx="302" cy="113" r="62.7"/>
								</defs>
								<clipPath id="SVGID_25_">
									<use xlink:href="#SVGID_24_"  style="overflow:visible;"/>
								</clipPath>
								<polyline class="st18" points="274.3,114 282.8,120 305.8,98 								"/>
							</g>
						</g>
					</g>
				</g>
			</g>
		</g>
		<g>
			<g>
				<g>
					<g>
						<g>
							<g>
								<defs>
									<circle id="SVGID_26_" cx="302" cy="113" r="62.7"/>
								</defs>
								<clipPath id="SVGID_27_">
									<use xlink:href="#SVGID_26_"  style="overflow:visible;"/>
								</clipPath>
								<g class="st19">
									<g>
										<path class="st14" d="M480.7,97.3c1.1,0,2,0.9,2,2v27.3c0,1.1-0.9,2-2,2H319.3c-1.1,0-2-0.9-2-2V99.3c0-1.1,0.9-2,2-2
											H480.7 M480.7,94.3H319.3c-2.8,0-5,2.2-5,5v27.3c0,2.8,2.2,5,5,5h161.4c2.8,0,5-2.2,5-5V99.3
											C485.7,96.6,483.5,94.3,480.7,94.3L480.7,94.3z"/>
									</g>
								</g>
							</g>
						</g>
					</g>
				</g>
			</g>
		</g>
	</g>
	<g>
		<g>
			<g>
				<g>
					<g>
						<g>
							<g>
								<defs>
									<circle id="SVGID_28_" cx="302" cy="113" r="62.7"/>
								</defs>
								<clipPath id="SVGID_29_">
									<use xlink:href="#SVGID_28_"  style="overflow:visible;"/>
								</clipPath>
								<circle class="st20" cx="302" cy="113" r="62.7"/>
							</g>
						</g>
					</g>
				</g>
			</g>
		</g>
		<g>
			<g>
				<g>
					<g>
						<g>
							<g>
								<defs>
									<circle id="SVGID_30_" cx="302" cy="113" r="62.7"/>
								</defs>
								<clipPath id="SVGID_31_">
									<use xlink:href="#SVGID_30_"  style="overflow:visible;"/>
								</clipPath>
								<circle class="st21" cx="302" cy="113" r="62"/>
							</g>
						</g>
					</g>
				</g>
			</g>
		</g>
		<g>
			<path id="SVGID_3_" class="st2" d="M302,50.3c-34.6,0-62.7,28.1-62.7,62.7s28.1,62.7,62.7,62.7s62.7-28.1,62.7-62.7
				S336.6,50.3,302,50.3z"/>
		</g>
	</g>
</g>
<g>
	<line class="st22" x1="769.8" y1="228" x2="962" y2="228"/>
	<line class="st22" x1="85" y1="228" x2="274.8" y2="228"/>
</g>
<g>
	<g>
		<line class="st2" x1="302" y1="176" x2="302" y2="178.5"/>
		<line class="st23" x1="302" y1="183.4" x2="302" y2="211.7"/>
	</g>
</g>
<g>
	<g>
		<line class="st2" x1="522" y1="176" x2="522" y2="178.5"/>
		<line class="st23" x1="522" y1="183.4" x2="522" y2="211.7"/>
	</g>
</g>
<g>
	<g>
		<line class="st2" x1="85" y1="176" x2="85" y2="178.5"/>
		<line class="st23" x1="85" y1="183.4" x2="85" y2="228.1"/>
	</g>
</g>
<g>
	<g>
		<line class="st2" x1="742" y1="176" x2="742" y2="178.5"/>
		<line class="st23" x1="742" y1="183.4" x2="742" y2="211.7"/>
	</g>
</g>
<g>
	<g>
		<line class="st2" x1="962" y1="176" x2="962" y2="178.5"/>
		<line class="st23" x1="962" y1="183.4" x2="962" y2="228.1"/>
	</g>
</g>
<g>
	<g>
		<g>
			<g>
				<g>
					<defs>
						<circle id="SVGID_32_" cx="522" cy="113" r="62.7"/>
					</defs>
					<clipPath id="SVGID_33_">
						<use xlink:href="#SVGID_32_"  style="overflow:visible;"/>
					</clipPath>
					<circle class="st24" cx="522" cy="113" r="62.7"/>
				</g>
			</g>
		</g>
		<g>
			<g>
				<g>
					<defs>
						<circle id="SVGID_34_" cx="522" cy="113" r="62.7"/>
					</defs>
					<clipPath id="SVGID_35_">
						<use xlink:href="#SVGID_34_"  style="overflow:visible;"/>
					</clipPath>
					<circle class="st25" cx="522" cy="113" r="62"/>
				</g>
			</g>
		</g>
		<g>
			<circle id="SVGID_40_" class="st26" cx="522" cy="113" r="62.7"/>
		</g>
	</g>
	<g>
		<path class="st14" d="M537.2,89.1c4.3,0,8.3,1.7,11.3,4.7s4.7,7,4.7,11.3s-1.7,8.3-4.7,11.3L522,142.9l-26.5-26.5
			c-3-3-4.7-7-4.7-11.3s1.7-8.3,4.7-11.3s7-4.7,11.3-4.7s8.3,1.7,11.3,4.7l1.8,1.8l2.1,2.1l2.1-2.1l1.8-1.8
			C528.9,90.7,532.9,89.1,537.2,89.1 M537.2,86.1c-5.1,0-9.8,2-13.4,5.6l-1.8,1.8l-1.8-1.8c-3.6-3.6-8.4-5.6-13.4-5.6
			c-5.1,0-9.8,2-13.4,5.6c-7.4,7.4-7.4,19.5,0,26.9l26.5,26.5c0.4,0.4,1,0.7,1.5,0.8c0.2,0,0.4,0.1,0.6,0.1c0.8,0,1.5-0.3,2.1-0.9
			l26.5-26.5c7.4-7.4,7.4-19.5,0-26.9C547,88.1,542.3,86.1,537.2,86.1L537.2,86.1z"/>
	</g>
	<path class="st27" d="M543.2,115.2c-2.7-0.1-5.4-0.2-8.1-0.3c-2.7-0.1-5.4-0.2-8.1-0.2h-0.7l-0.4,0.6l-3.3,4.9l-1.4,2.2
		c-0.7-2.5-1.3-5-2-7.5c-1-3.5-1.9-7.1-3-10.6l-1-3.3l-1.6,3l-3,5.8l-2.7,5.2c-1.7,0-3.4,0.1-5.1,0.2c-1.9,0.1-3.8,0.1-5.8,0.2
		c-3.8,0.2-7.7,0.4-11.5,0.7c3.8,0.3,7.7,0.5,11.5,0.7c1.9,0.1,3.8,0.2,5.8,0.2c1.9,0.1,3.8,0.1,5.8,0.2h0.6l0.3-0.6l3.3-5.6
		l1.5-2.7c0.6,2.5,1.3,4.9,2,7.4c0.9,3.6,1.9,7.1,2.9,10.6l0.9,3.2l1.8-2.8l3.2-4.9l2.7-4.4c2.5,0,4.9-0.1,7.4-0.2
		c2.7-0.1,5.4-0.2,8.1-0.3c5.4-0.2,10.8-0.5,16.2-0.9C554,115.7,548.6,115.4,543.2,115.2z"/>
</g>
<g>
	<path class="st27" d="M54.3,23.9l-4.8-12.7h-0.1c0.1,1,0.1,2.2,0.1,3.6v9.1H48V9.6h2.5L55,21.4h0.1l4.6-11.8h2.5v14.3h-1.7v-9.2
		c0-1.1,0-2.2,0.1-3.4h-0.1l-4.9,12.6H54.3z"/>
	<path class="st27" d="M75,18.5c0,1.7-0.4,3.1-1.3,4.1s-2.1,1.5-3.6,1.5c-1,0-1.8-0.2-2.5-0.7s-1.3-1.1-1.7-1.9s-0.6-1.8-0.6-2.9
		c0-1.7,0.4-3.1,1.3-4.1s2.1-1.5,3.6-1.5s2.7,0.5,3.6,1.5S75,16.8,75,18.5z M66.9,18.5c0,1.4,0.3,2.4,0.8,3.1s1.4,1.1,2.4,1.1
		s1.9-0.4,2.4-1.1s0.8-1.8,0.8-3.1c0-1.4-0.3-2.4-0.8-3.1s-1.4-1.1-2.4-1.1c-1.1,0-1.9,0.3-2.4,1C67.2,16,66.9,17.2,66.9,18.5z"/>
	<path class="st27" d="M85.2,22.5L85.2,22.5c-0.8,1.1-2,1.6-3.4,1.6s-2.5-0.5-3.3-1.4s-1.2-2.3-1.2-4.1c0-1.8,0.4-3.1,1.2-4.1
		s1.9-1.5,3.3-1.5c1.5,0,2.6,0.5,3.3,1.6h0.1l-0.1-0.8V13V8.7h1.6v15.2h-1.3L85.2,22.5z M81.9,22.7c1.1,0,1.9-0.3,2.4-0.9
		s0.7-1.6,0.7-2.9v-0.3c0-1.5-0.3-2.6-0.8-3.2s-1.3-1-2.4-1c-1,0-1.7,0.4-2.2,1.1c-0.5,0.7-0.6,1.7-0.6,3.1s0.3,2.4,0.8,3.1
		S81,22.7,81.9,22.7z"/>
	<path class="st27" d="M94.7,24.1c-1.6,0-2.8-0.5-3.7-1.4s-1.4-2.3-1.4-4s0.4-3.1,1.3-4.1s2-1.5,3.4-1.5c1.3,0,2.4,0.4,3.2,1.3
		s1.2,2,1.2,3.5v1h-7.4c0,1.3,0.4,2.2,1,2.9s1.5,1,2.5,1c1.2,0,2.3-0.2,3.4-0.7v1.4c-0.6,0.2-1.1,0.4-1.6,0.5S95.4,24.1,94.7,24.1z
		 M94.2,14.4c-0.9,0-1.5,0.3-2.1,0.8s-0.8,1.3-0.9,2.3h5.6c0-1-0.2-1.8-0.7-2.3S95.1,14.4,94.2,14.4z"/>
	<path class="st27" d="M103,23.9h-1.6V8.7h1.6V23.9z"/>
	<path class="st27" d="M110.9,24.1c-1.6,0-2.8-0.5-3.7-1.4s-1.4-2.3-1.4-4s0.4-3.1,1.3-4.1s2-1.5,3.4-1.5c1.3,0,2.4,0.4,3.2,1.3
		s1.2,2,1.2,3.5v1h-7.4c0,1.3,0.4,2.2,1,2.9s1.5,1,2.5,1c1.2,0,2.3-0.2,3.4-0.7v1.4c-0.6,0.2-1.1,0.4-1.6,0.5S111.7,24.1,110.9,24.1
		z M110.5,14.4c-0.9,0-1.5,0.3-2.1,0.8s-0.8,1.3-0.9,2.3h5.6c0-1-0.2-1.8-0.7-2.3S111.3,14.4,110.5,14.4z"/>
	<path class="st27" d="M122.5,13c0.5,0,0.9,0,1.3,0.1l-0.2,1.5c-0.4-0.1-0.8-0.1-1.2-0.1c-0.9,0-1.6,0.4-2.2,1.1s-0.9,1.6-0.9,2.6
		v5.7h-1.6V13.2h1.3l0.2,2h0.1c0.4-0.7,0.9-1.2,1.4-1.6S121.8,13,122.5,13z"/>
</g>
<g>
	<path class="st27" d="M273.9,23.9h-1.7V11.1h-4.5V9.6h10.7v1.5h-4.5V23.9z"/>
	<path class="st27" d="M286.9,23.9l-0.3-1.5h-0.1c-0.5,0.7-1.1,1.1-1.6,1.4s-1.2,0.4-2,0.4c-1.1,0-1.9-0.3-2.5-0.8s-0.9-1.3-0.9-2.3
		c0-2.2,1.7-3.3,5.2-3.4l1.8-0.1v-0.7c0-0.8-0.2-1.5-0.5-1.9s-0.9-0.6-1.7-0.6c-0.9,0-1.9,0.3-3,0.8l-0.5-1.2
		c0.5-0.3,1.1-0.5,1.7-0.7s1.3-0.2,1.9-0.2c1.3,0,2.2,0.3,2.8,0.8s0.9,1.5,0.9,2.7v7.3C288.1,23.9,286.9,23.9,286.9,23.9z
		 M283.3,22.8c1,0,1.8-0.3,2.4-0.8s0.9-1.3,0.9-2.3v-1l-1.6,0.1c-1.3,0-2.2,0.2-2.8,0.6s-0.9,0.9-0.9,1.7c0,0.6,0.2,1,0.5,1.3
		S282.6,22.8,283.3,22.8z"/>
	<path class="st27" d="M298.4,21c0,1-0.4,1.8-1.1,2.3s-1.8,0.8-3.1,0.8c-1.4,0-2.5-0.2-3.3-0.7v-1.5c0.5,0.3,1.1,0.5,1.7,0.6
		s1.2,0.2,1.7,0.2c0.8,0,1.5-0.1,2-0.4s0.7-0.7,0.7-1.2c0-0.4-0.2-0.8-0.5-1.1s-1.1-0.6-2.1-1s-1.7-0.7-2.1-1s-0.7-0.6-0.9-0.9
		s-0.3-0.8-0.3-1.3c0-0.9,0.4-1.6,1.1-2.1s1.7-0.8,2.9-0.8c1.2,0,2.3,0.2,3.4,0.7l-0.6,1.3c-1.1-0.4-2-0.7-2.9-0.7
		c-0.8,0-1.3,0.1-1.7,0.4s-0.6,0.6-0.6,1c0,0.3,0.1,0.5,0.2,0.7s0.4,0.4,0.7,0.6c0.3,0.2,1,0.4,1.9,0.8c1.3,0.5,2.1,0.9,2.6,1.4
		S298.4,20.3,298.4,21z"/>
	<path class="st27" d="M302.6,18.4c0.3-0.4,0.7-0.9,1.3-1.6l3.5-3.7h1.9l-4.3,4.6l4.6,6.1h-2l-3.8-5.1l-1.2,1.1v4H301V8.7h1.6v8.1
		C302.6,17.1,302.6,17.7,302.6,18.4L302.6,18.4z"/>
	<path class="st27" d="M313.1,23.9h-1.6V8.7h1.6V23.9z"/>
	<path class="st27" d="M316.4,10.3c0-0.4,0.1-0.6,0.3-0.8s0.4-0.3,0.7-0.3c0.3,0,0.5,0.1,0.7,0.3s0.3,0.4,0.3,0.8s-0.1,0.6-0.3,0.8
		s-0.4,0.3-0.7,0.3c-0.3,0-0.5-0.1-0.7-0.3S316.4,10.7,316.4,10.3z M318.2,23.9h-1.6V13.2h1.6V23.9z"/>
	<path class="st27" d="M328.5,21c0,1-0.4,1.8-1.1,2.3s-1.8,0.8-3.1,0.8c-1.4,0-2.5-0.2-3.3-0.7v-1.5c0.5,0.3,1.1,0.5,1.7,0.6
		s1.2,0.2,1.7,0.2c0.8,0,1.5-0.1,2-0.4s0.7-0.7,0.7-1.2c0-0.4-0.2-0.8-0.5-1.1s-1.1-0.6-2.1-1s-1.7-0.7-2.1-1s-0.7-0.6-0.9-0.9
		s-0.3-0.8-0.3-1.3c0-0.9,0.4-1.6,1.1-2.1s1.7-0.8,2.9-0.8c1.2,0,2.3,0.2,3.4,0.7l-0.6,1.3c-1.1-0.4-2-0.7-2.9-0.7
		c-0.8,0-1.3,0.1-1.7,0.4s-0.6,0.6-0.6,1c0,0.3,0.1,0.5,0.2,0.7s0.4,0.4,0.7,0.6c0.3,0.2,1,0.4,1.9,0.8c1.3,0.5,2.1,0.9,2.6,1.4
		S328.5,20.3,328.5,21z"/>
	<path class="st27" d="M334.6,22.8c0.3,0,0.6,0,0.8-0.1s0.5-0.1,0.6-0.1v1.2c-0.2,0.1-0.4,0.2-0.8,0.2s-0.6,0.1-0.9,0.1
		c-2.1,0-3.1-1.1-3.1-3.3v-6.4h-1.5v-0.8l1.5-0.7l0.7-2.3h0.9v2.5h3.1v1.3h-3.1v6.3c0,0.6,0.2,1.1,0.5,1.5S334.1,22.8,334.6,22.8z"
		/>
</g>
<g>
	<path class="st27" d="M495.6,10.9c-1.6,0-2.8,0.5-3.7,1.6s-1.4,2.5-1.4,4.3c0,1.9,0.4,3.3,1.3,4.3s2.1,1.5,3.7,1.5
		c1,0,2.1-0.2,3.4-0.5v1.5c-1,0.4-2.2,0.6-3.7,0.6c-2.1,0-3.7-0.6-4.9-1.9s-1.7-3.1-1.7-5.4c0-1.5,0.3-2.8,0.8-3.9s1.3-2,2.4-2.6
		s2.3-0.9,3.7-0.9c1.5,0,2.8,0.3,3.9,0.8l-0.7,1.4C497.7,11.2,496.7,10.9,495.6,10.9z"/>
	<path class="st27" d="M511.1,18.5c0,1.7-0.4,3.1-1.3,4.1s-2.1,1.5-3.6,1.5c-1,0-1.8-0.2-2.5-0.7s-1.3-1.1-1.7-1.9s-0.6-1.8-0.6-2.9
		c0-1.7,0.4-3.1,1.3-4.1s2.1-1.5,3.6-1.5s2.7,0.5,3.6,1.5S511.1,16.8,511.1,18.5z M502.9,18.5c0,1.4,0.3,2.4,0.8,3.1
		s1.4,1.1,2.4,1.1s1.9-0.4,2.4-1.1s0.8-1.8,0.8-3.1c0-1.4-0.3-2.4-0.8-3.1s-1.4-1.1-2.4-1.1c-1.1,0-1.9,0.3-2.4,1
		C503.2,16,502.9,17.2,502.9,18.5z"/>
	<path class="st27" d="M518.2,24.1c-1.5,0-2.7-0.5-3.6-1.4s-1.3-2.3-1.3-4c0-1.8,0.4-3.2,1.3-4.2s2.1-1.5,3.7-1.5
		c0.5,0,1,0.1,1.5,0.2s0.9,0.2,1.2,0.4l-0.5,1.4c-0.4-0.1-0.7-0.3-1.2-0.4s-0.8-0.1-1.1-0.1c-2.2,0-3.3,1.4-3.3,4.2
		c0,1.3,0.3,2.3,0.8,3s1.3,1.1,2.4,1.1c0.9,0,1.8-0.2,2.7-0.6v1.4C520.2,23.9,519.3,24.1,518.2,24.1z"/>
	<path class="st27" d="M525,18.4c0.3-0.4,0.7-0.9,1.3-1.6l3.5-3.7h1.9l-4.3,4.6l4.6,6.1h-2l-3.8-5.1l-1.2,1.1v4h-1.6V8.7h1.6v8.1
		C525,17.1,525,17.7,525,18.4L525,18.4z"/>
	<path class="st27" d="M538.9,24.1c-0.7,0-1.3-0.1-1.9-0.4s-1.1-0.7-1.5-1.2h-0.1c0.1,0.6,0.1,1.2,0.1,1.8v4.4h-1.6V13.2h1.3
		l0.2,1.5h0.1c0.4-0.6,0.9-1,1.5-1.3s1.2-0.4,1.9-0.4c1.4,0,2.5,0.5,3.3,1.5s1.2,2.3,1.2,4.1c0,1.8-0.4,3.1-1.2,4.1
		C541.4,23.6,540.3,24.1,538.9,24.1z M538.7,14.4c-1.1,0-1.9,0.3-2.4,0.9c-0.5,0.6-0.7,1.6-0.8,2.9v0.4c0,1.5,0.3,2.6,0.8,3.2
		s1.3,1,2.4,1c0.9,0,1.6-0.4,2.2-1.1c0.5-0.7,0.8-1.8,0.8-3.1c0-1.3-0.3-2.4-0.8-3.1C540.4,14.7,539.6,14.4,538.7,14.4z"/>
	<path class="st27" d="M546.1,10.3c0-0.4,0.1-0.6,0.3-0.8s0.4-0.3,0.7-0.3s0.5,0.1,0.7,0.3s0.3,0.4,0.3,0.8s-0.1,0.6-0.3,0.8
		s-0.4,0.3-0.7,0.3s-0.5-0.1-0.7-0.3C546.2,10.9,546.1,10.7,546.1,10.3z M547.8,23.9h-1.6V13.2h1.6V23.9z"/>
	<path class="st27" d="M554.7,22.8c0.3,0,0.6,0,0.8-0.1c0.3,0,0.5-0.1,0.6-0.1v1.2c-0.2,0.1-0.4,0.2-0.8,0.2s-0.6,0.1-0.9,0.1
		c-2.1,0-3.1-1.1-3.1-3.3v-6.4h-1.5v-0.8l1.5-0.7l0.7-2.3h0.9v2.5h3.1v1.3h-3v6.3c0,0.6,0.2,1.1,0.5,1.5S554.2,22.8,554.7,22.8z"/>
</g>
<g>
	<path class="st27" d="M722.6,23.9l-1.8-4.5h-5.7l-1.8,4.5h-1.7l5.6-14.3h1.4l5.6,14.3H722.6z M720.3,17.9l-1.7-4.4
		c-0.2-0.6-0.4-1.2-0.7-2.1c-0.1,0.6-0.3,1.3-0.6,2.1l-1.7,4.4H720.3z"/>
	<path class="st27" d="M733.3,22.5L733.3,22.5c-0.8,1.1-2,1.6-3.4,1.6s-2.5-0.5-3.3-1.4c-0.8-1-1.2-2.3-1.2-4.1
		c0-1.8,0.4-3.1,1.2-4.1s1.9-1.5,3.3-1.5c1.5,0,2.6,0.5,3.3,1.6h0.1l-0.1-0.8V13V8.7h1.6v15.2h-1.3L733.3,22.5z M730,22.7
		c1.1,0,1.9-0.3,2.4-0.9s0.7-1.6,0.7-2.9v-0.3c0-1.5-0.3-2.6-0.8-3.2c-0.5-0.6-1.3-1-2.4-1c-1,0-1.7,0.4-2.2,1.1
		c-0.5,0.7-0.8,1.8-0.8,3.1c0,1.4,0.3,2.4,0.8,3.1C728.3,22.4,729.1,22.7,730,22.7z"/>
	<path class="st27" d="M751.9,23.9v-7c0-0.9-0.2-1.5-0.5-1.9c-0.4-0.4-0.9-0.6-1.7-0.6c-1,0-1.8,0.3-2.2,0.9
		c-0.5,0.6-0.7,1.5-0.7,2.7v6h-1.6v-7c0-0.9-0.2-1.5-0.5-1.9c-0.4-0.4-0.9-0.6-1.7-0.6c-1,0-1.8,0.3-2.2,0.9c-0.5,0.6-0.7,1.6-0.7,3
		V24h-1.6V13.2h1.3l0.3,1.5h0.1c0.3-0.5,0.7-0.9,1.3-1.2s1.2-0.4,1.9-0.4c1.7,0,2.8,0.6,3.3,1.8h0.1c0.3-0.6,0.8-1,1.4-1.3
		s1.3-0.5,2.1-0.5c1.2,0,2.1,0.3,2.7,0.9c0.6,0.6,0.9,1.6,0.9,3v7h-2L751.9,23.9L751.9,23.9z"/>
	<path class="st27" d="M756.7,10.3c0-0.4,0.1-0.6,0.3-0.8s0.4-0.3,0.7-0.3s0.5,0.1,0.7,0.3s0.3,0.4,0.3,0.8s-0.1,0.6-0.3,0.8
		s-0.4,0.3-0.7,0.3s-0.5-0.1-0.7-0.3C756.8,10.9,756.7,10.7,756.7,10.3z M758.5,23.9h-1.6V13.2h1.6V23.9z"/>
	<path class="st27" d="M769.2,23.9V17c0-0.9-0.2-1.5-0.6-2c-0.4-0.4-1-0.6-1.9-0.6c-1.1,0-1.9,0.3-2.5,0.9c-0.5,0.6-0.8,1.6-0.8,3
		v5.6h-1.6V13.2h1.3l0.3,1.5h0.1c0.3-0.5,0.8-0.9,1.4-1.2c0.6-0.3,1.3-0.4,2-0.4c1.3,0,2.3,0.3,2.9,0.9c0.7,0.6,1,1.6,1,3v7h-1.6
		L769.2,23.9L769.2,23.9z"/>
</g>
<g>
	<path class="st27" d="M934.3,16.7c0,2.3-0.6,4.1-1.7,5.4c-1.2,1.3-2.8,2-4.8,2c-2.1,0-3.7-0.6-4.9-1.9s-1.7-3.1-1.7-5.4
		s0.6-4.1,1.7-5.4c1.1-1.3,2.8-1.9,4.9-1.9c2.1,0,3.7,0.7,4.8,2S934.3,14.5,934.3,16.7z M922.9,16.7c0,1.9,0.4,3.4,1.2,4.4
		s2,1.5,3.6,1.5s2.8-0.5,3.6-1.5s1.2-2.5,1.2-4.4s-0.4-3.4-1.2-4.4s-2-1.5-3.6-1.5s-2.8,0.5-3.6,1.5
		C923.3,13.4,922.9,14.8,922.9,16.7z"/>
	<path class="st27" d="M942.2,24.1c-0.7,0-1.3-0.1-1.9-0.4s-1.1-0.7-1.4-1.2h-0.1c0.1,0.6,0.1,1.2,0.1,1.8v4.4h-1.6V13.2h1.3
		l0.2,1.5h0.1c0.4-0.6,0.9-1,1.5-1.3s1.2-0.4,1.9-0.4c1.4,0,2.5,0.5,3.3,1.5s1.2,2.3,1.2,4.1c0,1.8-0.4,3.1-1.2,4.1
		C944.7,23.6,943.6,24.1,942.2,24.1z M942,14.4c-1.1,0-1.9,0.3-2.4,0.9s-0.7,1.6-0.8,2.9v0.4c0,1.5,0.2,2.6,0.8,3.2
		c0.5,0.6,1.3,1,2.4,1c0.9,0,1.6-0.4,2.2-1.1c0.5-0.7,0.8-1.8,0.8-3.1c0-1.3-0.3-2.4-0.8-3.1C943.7,14.7,943,14.4,942,14.4z"/>
	<path class="st27" d="M953,22.8c0.3,0,0.6,0,0.8-0.1c0.3,0,0.5-0.1,0.6-0.1v1.2c-0.2,0.1-0.4,0.2-0.8,0.2s-0.6,0.1-0.9,0.1
		c-2.1,0-3.1-1.1-3.1-3.3v-6.4h-1.5v-0.8l1.5-0.7l0.7-2.3h0.9v2.5h3.1v1.3h-3.1v6.3c0,0.6,0.2,1.1,0.5,1.5S952.4,22.8,953,22.8z"/>
	<path class="st27" d="M956.4,10.3c0-0.4,0.1-0.6,0.3-0.8s0.4-0.3,0.7-0.3s0.5,0.1,0.7,0.3s0.3,0.4,0.3,0.8s-0.1,0.6-0.3,0.8
		s-0.4,0.3-0.7,0.3s-0.5-0.1-0.7-0.3C956.5,10.9,956.4,10.7,956.4,10.3z M958.2,23.9h-1.6V13.2h1.6V23.9z"/>
	<path class="st27" d="M975.3,23.9v-7c0-0.9-0.2-1.5-0.5-1.9c-0.4-0.4-0.9-0.6-1.7-0.6c-1,0-1.8,0.3-2.2,0.9
		c-0.5,0.6-0.7,1.5-0.7,2.7v6h-1.6v-7c0-0.9-0.2-1.5-0.5-1.9c-0.4-0.4-0.9-0.6-1.7-0.6c-1,0-1.8,0.3-2.2,0.9c-0.5,0.6-0.7,1.6-0.7,3
		V24h-1.6V13.2h1.3l0.3,1.5h0.1c0.3-0.5,0.7-0.9,1.3-1.2s1.2-0.4,1.9-0.4c1.7,0,2.8,0.6,3.3,1.8h0.1c0.3-0.6,0.8-1,1.4-1.3
		s1.3-0.5,2.1-0.5c1.2,0,2.1,0.3,2.7,0.9c0.6,0.6,0.9,1.6,0.9,3v7h-2L975.3,23.9L975.3,23.9z"/>
	<path class="st27" d="M980.1,10.3c0-0.4,0.1-0.6,0.3-0.8s0.4-0.3,0.7-0.3s0.5,0.1,0.7,0.3s0.3,0.4,0.3,0.8s-0.1,0.6-0.3,0.8
		s-0.4,0.3-0.7,0.3s-0.5-0.1-0.7-0.3C980.2,10.9,980.1,10.7,980.1,10.3z M981.9,23.9h-1.6V13.2h1.6V23.9z"/>
	<path class="st27" d="M992.1,23.9h-7.8v-1.1l5.8-8.3h-5.5v-1.3h7.3v1.3l-5.8,8.2h5.9L992.1,23.9L992.1,23.9z"/>
	<path class="st27" d="M999.2,24.1c-1.6,0-2.8-0.5-3.7-1.4c-0.9-1-1.4-2.3-1.4-4s0.4-3.1,1.3-4.1s2-1.5,3.4-1.5
		c1.3,0,2.4,0.4,3.2,1.3s1.2,2,1.2,3.5v1h-7.4c0,1.3,0.3,2.2,1,2.9c0.6,0.7,1.5,1,2.5,1c1.2,0,2.3-0.2,3.4-0.7v1.4
		c-0.6,0.2-1.1,0.4-1.6,0.5C1000.5,24,999.9,24.1,999.2,24.1z M998.7,14.4c-0.9,0-1.5,0.3-2.1,0.8c-0.5,0.6-0.8,1.3-0.9,2.3h5.6
		c0-1-0.2-1.8-0.7-2.3C1000.2,14.6,999.6,14.4,998.7,14.4z"/>
</g>
<g>
	<path class="st27" d="M358.4,446.2h-1.6l-2.9-9.6c-0.1-0.4-0.3-1-0.5-1.6s-0.3-1-0.3-1.2c-0.1,0.9-0.4,1.8-0.7,2.8l-2.8,9.5H348
		l-3.8-14.3h1.8l2.3,8.8c0.3,1.2,0.5,2.4,0.7,3.4c0.2-1.2,0.4-2.4,0.8-3.5l2.6-8.7h1.8l2.7,8.8c0.3,1,0.6,2.1,0.8,3.4
		c0.1-0.9,0.4-2.1,0.7-3.4l2.2-8.8h1.8L358.4,446.2z"/>
	<path class="st27" d="M373.5,440.8c0,1.7-0.4,3.1-1.3,4.1s-2.1,1.5-3.6,1.5c-1,0-1.8-0.2-2.5-0.7s-1.3-1.1-1.7-1.9
		s-0.6-1.8-0.6-2.9c0-1.7,0.4-3.1,1.3-4.1s2.1-1.5,3.6-1.5s2.7,0.5,3.6,1.5S373.5,439.1,373.5,440.8z M365.3,440.8
		c0,1.4,0.3,2.4,0.8,3.1s1.4,1.1,2.4,1.1s1.9-0.4,2.4-1.1s0.8-1.8,0.8-3.1c0-1.4-0.3-2.4-0.8-3.1c-0.6-0.7-1.4-1.1-2.4-1.1
		c-1.1,0-1.9,0.3-2.4,1C365.6,438.4,365.3,439.4,365.3,440.8z"/>
	<path class="st27" d="M381.2,435.3c0.5,0,0.9,0,1.3,0.1l-0.2,1.5c-0.4-0.1-0.8-0.1-1.2-0.1c-0.9,0-1.6,0.4-2.2,1.1
		s-0.9,1.6-0.9,2.6v5.7h-1.6v-10.7h1.3l0.2,2h0.1c0.4-0.7,0.9-1.2,1.4-1.6C379.9,435.4,380.5,435.3,381.2,435.3z"/>
	<path class="st27" d="M386.1,440.7c0.3-0.4,0.7-0.9,1.3-1.6l3.5-3.7h1.9l-4.3,4.6l4.6,6.1h-2l-3.8-5.1l-1.2,1.1v4h-1.6V431h1.6v8.1
		C386.1,439.4,386,439.9,386.1,440.7L386.1,440.7z"/>
	<path class="st27" d="M399.8,436.7h-2.7v9.4h-1.6v-9.4h-1.9V436l1.9-0.6v-0.6c0-2.6,1.1-3.9,3.4-3.9c0.6,0,1.2,0.1,2,0.3l-0.4,1.3
		c-0.6-0.2-1.2-0.3-1.6-0.3c-0.6,0-1.1,0.2-1.4,0.6s-0.4,1.1-0.4,2v0.7h2.7V436.7z M403.4,446.2h-1.6V431h1.6V446.2z"/>
	<path class="st27" d="M416,440.8c0,1.7-0.4,3.1-1.3,4.1s-2.1,1.5-3.6,1.5c-1,0-1.8-0.2-2.5-0.7s-1.3-1.1-1.7-1.9s-0.6-1.8-0.6-2.9
		c0-1.7,0.4-3.1,1.3-4.1s2.1-1.5,3.6-1.5s2.7,0.5,3.6,1.5S416,439.1,416,440.8z M407.9,440.8c0,1.4,0.3,2.4,0.8,3.1s1.4,1.1,2.4,1.1
		s1.9-0.4,2.4-1.1s0.8-1.8,0.8-3.1c0-1.4-0.3-2.4-0.8-3.1c-0.6-0.7-1.4-1.1-2.4-1.1c-1.1,0-1.9,0.3-2.4,1
		C408.1,438.4,407.9,439.4,407.9,440.8z"/>
	<path class="st27" d="M427.6,446.2l-2-6.3c-0.1-0.4-0.4-1.3-0.7-2.6h-0.1c-0.3,1.1-0.5,2-0.7,2.6l-2,6.3h-1.9l-2.9-10.7h1.7
		c0.7,2.7,1.2,4.7,1.6,6.1s0.6,2.4,0.6,2.8h0.1c0.1-0.4,0.2-0.9,0.3-1.4s0.3-1.1,0.4-1.4l2-6.1h1.8l1.9,6.1c0.4,1.1,0.6,2.1,0.7,2.8
		h0.1c0-0.2,0.1-0.6,0.2-1.1s0.8-3.1,2-7.9h1.7l-3,10.7h-1.8L427.6,446.2L427.6,446.2z"/>
	<path class="st27" d="M447.8,446.2h-8v-14.3h8v1.5h-6.3v4.6h5.9v1.5h-5.9v5.3h6.3V446.2z"/>
	<path class="st27" d="M458.1,446.2v-6.9c0-0.9-0.2-1.5-0.6-2s-1-0.6-1.9-0.6c-1.1,0-1.9,0.3-2.5,0.9s-0.8,1.6-0.8,3v5.6h-1.6v-10.7
		h1.3l0.3,1.5h0.1c0.3-0.5,0.8-0.9,1.4-1.2c0.6-0.3,1.3-0.4,2-0.4c1.3,0,2.3,0.3,2.9,0.9c0.7,0.6,1,1.6,1,3v7L458.1,446.2
		L458.1,446.2z"/>
	<path class="st27" d="M471.8,435.4v1l-2,0.2c0.2,0.2,0.3,0.5,0.5,0.9c0.1,0.4,0.2,0.8,0.2,1.2c0,1-0.4,1.9-1.1,2.5
		s-1.7,0.9-2.9,0.9c-0.3,0-0.6,0-0.9-0.1c-0.7,0.4-1,0.8-1,1.4c0,0.3,0.1,0.5,0.4,0.6s0.7,0.2,1.2,0.2h1.9c1.2,0,2,0.2,2.7,0.7
		s0.9,1.2,0.9,2.1c0,1.2-0.5,2.1-1.4,2.7s-2.3,0.9-4.2,0.9c-1.4,0-2.5-0.3-3.2-0.8s-1.1-1.3-1.1-2.2c0-0.7,0.2-1.2,0.6-1.7
		s1-0.8,1.8-1c-0.3-0.1-0.5-0.3-0.7-0.6s-0.3-0.6-0.3-0.9c0-0.4,0.1-0.7,0.3-1s0.5-0.6,1-0.8c-0.6-0.2-1-0.6-1.4-1.2
		s-0.5-1.2-0.5-1.9c0-1.2,0.4-2.1,1.1-2.7s1.7-1,3-1c0.6,0,1.1,0.1,1.5,0.2h3.6V435.4z M463.2,447.9c0,0.6,0.2,1,0.7,1.3
		s1.2,0.4,2.1,0.4c1.4,0,2.4-0.2,3-0.6s1-1,1-1.7c0-0.6-0.2-1-0.5-1.2s-1-0.3-2-0.3h-1.9c-0.7,0-1.3,0.2-1.7,0.5
		S463.2,447.3,463.2,447.9z M464.1,438.9c0,0.7,0.2,1.3,0.6,1.7s1,0.6,1.8,0.6c1.6,0,2.4-0.8,2.4-2.3c0-1.6-0.8-2.4-2.4-2.4
		c-0.8,0-1.3,0.2-1.8,0.6S464.1,438.1,464.1,438.9z"/>
	<path class="st27" d="M473.8,432.5c0-0.4,0.1-0.6,0.3-0.8c0.2-0.2,0.4-0.3,0.7-0.3c0.3,0,0.5,0.1,0.7,0.3s0.3,0.4,0.3,0.8
		s-0.1,0.6-0.3,0.8c-0.2,0.2-0.4,0.3-0.7,0.3c-0.3,0-0.5-0.1-0.7-0.3C473.9,433.2,473.8,432.9,473.8,432.5z M475.6,446.2H474v-10.7
		h1.6V446.2z"/>
	<path class="st27" d="M486.4,446.2v-6.9c0-0.9-0.2-1.5-0.6-2s-1-0.6-1.9-0.6c-1.1,0-1.9,0.3-2.5,0.9s-0.8,1.6-0.8,3v5.6H479v-10.7
		h1.3l0.3,1.5h0.1c0.3-0.5,0.8-0.9,1.4-1.2c0.6-0.3,1.3-0.4,2-0.4c1.3,0,2.3,0.3,2.9,0.9c0.7,0.6,1,1.6,1,3v7L486.4,446.2
		L486.4,446.2z"/>
	<path class="st27" d="M495.8,446.3c-1.6,0-2.8-0.5-3.7-1.4s-1.4-2.3-1.4-4s0.4-3.1,1.3-4.1s2-1.5,3.4-1.5c1.3,0,2.4,0.4,3.2,1.3
		c0.8,0.9,1.2,2,1.2,3.5v1h-7.4c0,1.3,0.4,2.2,1,2.9s1.5,1,2.5,1c1.2,0,2.3-0.2,3.4-0.7v1.4c-0.6,0.2-1.1,0.4-1.6,0.5
		S496.6,446.3,495.8,446.3z M495.4,436.6c-0.9,0-1.5,0.3-2.1,0.8c-0.5,0.6-0.8,1.3-0.9,2.3h5.6c0-1-0.2-1.8-0.7-2.3
		C496.9,436.9,496.2,436.6,495.4,436.6z"/>
</g>
<g>
	<path class="st27" d="M562.3,438.9c0,2.4-0.6,4.2-1.9,5.4s-3.1,1.9-5.5,1.9h-4v-14.3h4.4c2.2,0,3.9,0.6,5.2,1.8
		S562.3,436.7,562.3,438.9z M560.6,438.9c0-1.9-0.5-3.3-1.4-4.2c-0.9-0.9-2.3-1.4-4.2-1.4h-2.4v11.4h2c2,0,3.5-0.5,4.5-1.5
		S560.6,440.8,560.6,438.9z"/>
	<path class="st27" d="M569.8,446.3c-1.6,0-2.8-0.5-3.7-1.4c-0.9-1-1.4-2.3-1.4-4s0.4-3.1,1.3-4.1s2-1.5,3.4-1.5
		c1.3,0,2.4,0.4,3.2,1.3s1.2,2,1.2,3.5v1h-7.4c0,1.3,0.3,2.2,1,2.9c0.6,0.7,1.5,1,2.5,1c1.2,0,2.3-0.2,3.4-0.7v1.4
		c-0.6,0.2-1.1,0.4-1.6,0.5C571.1,446.3,570.5,446.3,569.8,446.3z M569.4,436.6c-0.9,0-1.5,0.3-2.1,0.8c-0.5,0.6-0.8,1.3-0.9,2.3
		h5.6c0-1-0.2-1.8-0.7-2.3C570.9,436.9,570.2,436.6,569.4,436.6z"/>
	<path class="st27" d="M580.8,446.3c-1.5,0-2.7-0.5-3.6-1.4s-1.3-2.3-1.3-4c0-1.8,0.4-3.2,1.3-4.2c0.9-1,2.1-1.5,3.7-1.5
		c0.5,0,1,0.1,1.5,0.2s0.9,0.2,1.2,0.4l-0.5,1.4c-0.4-0.1-0.7-0.3-1.2-0.4c-0.4-0.1-0.8-0.1-1.1-0.1c-2.2,0-3.3,1.4-3.3,4.2
		c0,1.3,0.3,2.3,0.8,3s1.3,1.1,2.4,1.1c0.9,0,1.8-0.2,2.7-0.6v1.4C582.8,446.2,581.9,446.3,580.8,446.3z"/>
	<path class="st27" d="M585.9,432.5c0-0.4,0.1-0.6,0.3-0.8c0.2-0.2,0.4-0.3,0.7-0.3s0.5,0.1,0.7,0.3c0.2,0.2,0.3,0.4,0.3,0.8
		s-0.1,0.6-0.3,0.8c-0.2,0.2-0.4,0.3-0.7,0.3s-0.5-0.1-0.7-0.3C586,433.2,585.9,432.9,585.9,432.5z M587.6,446.2H586v-10.7h1.6
		V446.2z"/>
	<path class="st27" d="M598,443.2c0,1-0.4,1.8-1.1,2.3s-1.8,0.8-3.1,0.8c-1.4,0-2.5-0.2-3.3-0.7v-1.5c0.5,0.3,1.1,0.5,1.7,0.6
		c0.6,0.1,1.2,0.2,1.7,0.2c0.8,0,1.5-0.1,2-0.4s0.7-0.7,0.7-1.2c0-0.4-0.2-0.8-0.5-1.1s-1.1-0.6-2.1-1s-1.7-0.7-2.1-1
		s-0.7-0.6-0.9-0.9s-0.3-0.8-0.3-1.3c0-0.9,0.4-1.6,1.1-2.1c0.7-0.5,1.7-0.8,2.9-0.8s2.3,0.2,3.4,0.7l-0.6,1.3
		c-1.1-0.4-2-0.7-2.9-0.7c-0.8,0-1.3,0.1-1.7,0.4c-0.4,0.2-0.6,0.6-0.6,1c0,0.3,0.1,0.5,0.2,0.7c0.1,0.2,0.4,0.4,0.7,0.6
		s1,0.4,1.9,0.8c1.3,0.5,2.1,0.9,2.6,1.4C597.8,441.9,598,442.5,598,443.2z"/>
	<path class="st27" d="M600.5,432.5c0-0.4,0.1-0.6,0.3-0.8c0.2-0.2,0.4-0.3,0.7-0.3s0.5,0.1,0.7,0.3c0.2,0.2,0.3,0.4,0.3,0.8
		s-0.1,0.6-0.3,0.8c-0.2,0.2-0.4,0.3-0.7,0.3s-0.5-0.1-0.7-0.3C600.6,433.2,600.5,432.9,600.5,432.5z M602.2,446.2h-1.6v-10.7h1.6
		V446.2z"/>
	<path class="st27" d="M614.9,440.8c0,1.7-0.4,3.1-1.3,4.1s-2.1,1.5-3.6,1.5c-1,0-1.8-0.2-2.5-0.7s-1.3-1.1-1.7-1.9
		s-0.6-1.8-0.6-2.9c0-1.7,0.4-3.1,1.3-4.1c0.9-1,2.1-1.5,3.6-1.5s2.7,0.5,3.6,1.5C614.5,437.7,614.9,439.1,614.9,440.8z
		 M606.8,440.8c0,1.4,0.3,2.4,0.8,3.1s1.4,1.1,2.4,1.1c1.1,0,1.9-0.4,2.4-1.1s0.8-1.8,0.8-3.1c0-1.4-0.3-2.4-0.8-3.1
		c-0.6-0.7-1.4-1.1-2.4-1.1c-1.1,0-1.9,0.3-2.4,1C607,438.4,606.8,439.4,606.8,440.8z"/>
	<path class="st27" d="M625.1,446.2v-6.9c0-0.9-0.2-1.5-0.6-2c-0.4-0.4-1-0.6-1.9-0.6c-1.1,0-1.9,0.3-2.5,0.9
		c-0.5,0.6-0.8,1.6-0.8,3v5.6h-1.6v-10.7h1.3l0.3,1.5h0.1c0.3-0.5,0.8-0.9,1.4-1.2c0.6-0.3,1.3-0.4,2-0.4c1.3,0,2.3,0.3,2.9,0.9
		c0.7,0.6,1,1.6,1,3v7L625.1,446.2L625.1,446.2z"/>
	<path class="st27" d="M643.4,446.2h-8v-14.3h8v1.5h-6.3v4.6h5.9v1.5h-5.9v5.3h6.3V446.2z"/>
	<path class="st27" d="M653.7,446.2v-6.9c0-0.9-0.2-1.5-0.6-2c-0.4-0.4-1-0.6-1.9-0.6c-1.1,0-1.9,0.3-2.5,0.9
		c-0.5,0.6-0.8,1.6-0.8,3v5.6h-1.6v-10.7h1.3l0.3,1.5h0.1c0.3-0.5,0.8-0.9,1.4-1.2c0.6-0.3,1.3-0.4,2-0.4c1.3,0,2.3,0.3,2.9,0.9
		c0.7,0.6,1,1.6,1,3v7L653.7,446.2L653.7,446.2z"/>
	<path class="st27" d="M667.4,435.4v1l-2,0.2c0.2,0.2,0.3,0.5,0.5,0.9c0.1,0.4,0.2,0.8,0.2,1.2c0,1-0.4,1.9-1.1,2.5
		c-0.7,0.6-1.7,0.9-2.9,0.9c-0.3,0-0.6,0-0.9-0.1c-0.7,0.4-1,0.8-1,1.4c0,0.3,0.1,0.5,0.4,0.6c0.2,0.1,0.7,0.2,1.2,0.2h1.9
		c1.2,0,2,0.2,2.7,0.7c0.6,0.5,0.9,1.2,0.9,2.1c0,1.2-0.5,2.1-1.4,2.7c-1,0.6-2.3,0.9-4.2,0.9c-1.4,0-2.5-0.3-3.2-0.8
		c-0.8-0.5-1.1-1.3-1.1-2.2c0-0.7,0.2-1.2,0.6-1.7c0.4-0.5,1-0.8,1.8-1c-0.3-0.1-0.5-0.3-0.7-0.6s-0.3-0.6-0.3-0.9
		c0-0.4,0.1-0.7,0.3-1s0.5-0.6,1-0.8c-0.6-0.2-1-0.6-1.4-1.2c-0.3-0.5-0.5-1.2-0.5-1.9c0-1.2,0.4-2.1,1.1-2.7s1.7-1,3-1
		c0.6,0,1.1,0.1,1.5,0.2h3.6L667.4,435.4L667.4,435.4z M658.9,447.9c0,0.6,0.2,1,0.7,1.3s1.2,0.4,2.1,0.4c1.4,0,2.4-0.2,3-0.6
		s1-1,1-1.7c0-0.6-0.2-1-0.5-1.2c-0.4-0.2-1-0.3-2-0.3h-1.9c-0.7,0-1.3,0.2-1.7,0.5S658.9,447.3,658.9,447.9z M659.7,438.9
		c0,0.7,0.2,1.3,0.6,1.7c0.4,0.4,1,0.6,1.8,0.6c1.6,0,2.4-0.8,2.4-2.3c0-1.6-0.8-2.4-2.4-2.4c-0.8,0-1.3,0.2-1.8,0.6
		S659.7,438.1,659.7,438.9z"/>
	<path class="st27" d="M669.4,432.5c0-0.4,0.1-0.6,0.3-0.8c0.2-0.2,0.4-0.3,0.7-0.3s0.5,0.1,0.7,0.3c0.2,0.2,0.3,0.4,0.3,0.8
		s-0.1,0.6-0.3,0.8c-0.2,0.2-0.4,0.3-0.7,0.3s-0.5-0.1-0.7-0.3C669.5,433.2,669.4,432.9,669.4,432.5z M671.2,446.2h-1.6v-10.7h1.6
		V446.2z"/>
	<path class="st27" d="M682,446.2v-6.9c0-0.9-0.2-1.5-0.6-2c-0.4-0.4-1-0.6-1.9-0.6c-1.1,0-1.9,0.3-2.5,0.9c-0.5,0.6-0.8,1.6-0.8,3
		v5.6h-1.6v-10.7h1.3l0.3,1.5h0.1c0.3-0.5,0.8-0.9,1.4-1.2c0.6-0.3,1.3-0.4,2-0.4c1.3,0,2.3,0.3,2.9,0.9c0.7,0.6,1,1.6,1,3v7
		L682,446.2L682,446.2z"/>
	<path class="st27" d="M691.4,446.3c-1.6,0-2.8-0.5-3.7-1.4c-0.9-1-1.4-2.3-1.4-4s0.4-3.1,1.3-4.1s2-1.5,3.4-1.5
		c1.3,0,2.4,0.4,3.2,1.3s1.2,2,1.2,3.5v1H688c0,1.3,0.3,2.2,1,2.9c0.6,0.7,1.5,1,2.5,1c1.2,0,2.3-0.2,3.4-0.7v1.4
		c-0.6,0.2-1.1,0.4-1.6,0.5C692.8,446.3,692.2,446.3,691.4,446.3z M691,436.6c-0.9,0-1.5,0.3-2.1,0.8c-0.5,0.6-0.8,1.3-0.9,2.3h5.6
		c0-1-0.2-1.8-0.7-2.3C692.5,436.9,691.8,436.6,691,436.6z"/>
</g>
<g>
	<g>
		<g>
			<g>
				<g>
					<g>
						<g>
							<g>
								<defs>
									<circle id="SVGID_36_" cx="422.4" cy="342" r="62.7"/>
								</defs>
								<clipPath id="SVGID_37_">
									<use xlink:href="#SVGID_36_"  style="overflow:visible;"/>
								</clipPath>
								<ellipse class="st28" cx="422.4" cy="342" rx="62.7" ry="62.7"/>
							</g>
						</g>
					</g>
				</g>
			</g>
		</g>
		<g>
			<g>
				<g>
					<g>
						<g>
							<g>
								<defs>
									<circle id="SVGID_38_" cx="422.4" cy="342" r="62.7"/>
								</defs>
								<clipPath id="SVGID_39_">
									<use xlink:href="#SVGID_38_"  style="overflow:visible;"/>
								</clipPath>
								<circle class="st29" cx="422.4" cy="342" r="62"/>
							</g>
						</g>
					</g>
				</g>
			</g>
		</g>
		<g>
			<path id="SVGID_6_" class="st2" d="M422.4,279.3c-34.6,0-62.7,28.1-62.7,62.7s28.1,62.7,62.7,62.7s62.7-28.1,62.7-62.7
				S457,279.3,422.4,279.3z"/>
		</g>
	</g>
	<path class="st11" d="M447.8,319.8c-0.6-2.4-2.8-4.1-5.4-4.1h-40.1c-2.6,0-4.7,1.7-5.4,4.1c-0.1,0.5-1,3.5-2,7.1
		c-2.7,9.3-2.3,19.3,1.1,28.3l3.2,8.5c0.8,2.5,3.6,4.5,6.2,4.5h33.8c2.6,0,5.4-2,6.2-4.5l3.3-8.7c3.4-9,3.8-18.8,1.2-28
		C448.8,323.4,448,320.4,447.8,319.8z"/>
	<g>
		<g>
			<rect x="417.6" y="326.5" class="st15" width="9.4" height="9.4"/>
		</g>
		<g>
			<path class="st15" d="M422.3,349.7l-5.7-5.7l5.7-5.7l5.7,5.7L422.3,349.7z M417.8,344l4.5,4.5l4.5-4.5l-4.5-4.5L417.8,344z"/>
		</g>
		<g>
			<g>
				<rect x="429" y="348" class="st15" width="9.4" height="9.4"/>
			</g>
			<g>
				<rect x="406.4" y="348" class="st15" width="9.4" height="9.4"/>
			</g>
		</g>
		<g>
			<path class="st15" d="M411.1,348.5c-0.2,0-0.4-0.2-0.4-0.4V344c0-0.2,0.2-0.4,0.4-0.4c0.2,0,0.4,0.2,0.4,0.4v4.1
				C411.4,348.2,411.3,348.5,411.1,348.5z"/>
		</g>
		<g>
			<path class="st15" d="M417.1,344.4h-6c-0.2,0-0.4-0.2-0.4-0.4s0.2-0.4,0.4-0.4h6c0.2,0,0.4,0.2,0.4,0.4S417.3,344.4,417.1,344.4z
				"/>
		</g>
		<g>
			<path class="st15" d="M433.7,344.4h-6c-0.2,0-0.4-0.2-0.4-0.4s0.2-0.4,0.4-0.4h6c0.2,0,0.4,0.2,0.4,0.4S433.9,344.4,433.7,344.4z
				"/>
		</g>
		<g>
			<path class="st15" d="M433.7,348.5c-0.2,0-0.4-0.2-0.4-0.4V344c0-0.2,0.2-0.4,0.4-0.4s0.4,0.2,0.4,0.4v4.1
				C434,348.2,433.9,348.5,433.7,348.5z"/>
		</g>
		<g>
			<path class="st15" d="M422.3,339.3c-0.2,0-0.4-0.2-0.4-0.4V336c0-0.2,0.2-0.4,0.4-0.4s0.4,0.2,0.4,0.4v2.9
				C422.8,339.2,422.6,339.3,422.3,339.3z"/>
		</g>
	</g>
</g>
<g>
	<g>
		<g>
			<g>
				<g>
					<g>
						<g>
							<g>
								<defs>
									<circle id="SVGID_41_" cx="622.7" cy="342" r="62.7"/>
								</defs>
								<clipPath id="SVGID_42_">
									<use xlink:href="#SVGID_41_"  style="overflow:visible;"/>
								</clipPath>
								<circle class="st30" cx="622.7" cy="342" r="62.7"/>
							</g>
						</g>
					</g>
				</g>
			</g>
		</g>
		<g>
			<g>
				<g>
					<g>
						<g>
							<g>
								<defs>
									<circle id="SVGID_43_" cx="622.7" cy="342" r="62.7"/>
								</defs>
								<clipPath id="SVGID_44_">
									<use xlink:href="#SVGID_43_"  style="overflow:visible;"/>
								</clipPath>
								<circle class="st31" cx="622.7" cy="342" r="62"/>
							</g>
						</g>
					</g>
				</g>
			</g>
		</g>
		<g>
			<path id="SVGID_2_" class="st2" d="M622.7,279.3c-34.6,0-62.7,28.1-62.7,62.7s28.1,62.7,62.7,62.7c34.6,0,62.7-28.1,62.7-62.7
				S657.3,279.3,622.7,279.3z"/>
		</g>
	</g>
	<path class="st11" d="M648.1,319.8c-0.6-2.4-2.8-4.1-5.4-4.1h-40.1c-2.6,0-4.7,1.7-5.4,4.1c-0.1,0.5-1,3.5-2,7.1
		c-2.7,9.3-2.3,19.3,1.1,28.3l3.2,8.5c0.8,2.5,3.6,4.5,6.2,4.5h33.8c2.6,0,5.4-2,6.2-4.5l3.3-8.7c3.4-9,3.8-18.8,1.2-28
		C649.1,323.4,648.3,320.4,648.1,319.8z"/>
	<g>
		<rect x="607.3" y="331.2" class="st3" width="30.7" height="21.5"/>
		<line class="st3" x1="607.9" y1="338.5" x2="638.1" y2="338.5"/>
		<line class="st3" x1="607.4" y1="345.7" x2="638.1" y2="345.7"/>
		<line class="st3" x1="615.9" y1="338.3" x2="615.9" y2="352.7"/>
	</g>
</g>
<g>
	<g>
		<line class="st32" x1="422.4" y1="247.3" x2="422.4" y2="274.2"/>
		<line class="st2" x1="422.4" y1="276.8" x2="422.4" y2="279.3"/>
	</g>
</g>
<g>
	<g>
		<line class="st32" x1="622.7" y1="247.3" x2="622.7" y2="274.2"/>
		<line class="st2" x1="622.7" y1="276.8" x2="622.7" y2="279.3"/>
	</g>
</g>
<g>
	<path class="st27" d="M86.3,526.6L81,511.1h-0.1c0.1,2.3,0.3,4.4,0.3,6.5v9h-2.7V508h4.3l5.2,14.8h0l5.3-14.8h4.3v18.6h-2.9v-9.2
		c0-0.9,0-2.1,0.1-3.6c0-1.4,0.1-2.3,0.1-2.7h-0.1l-5.6,15.5H86.3L86.3,526.6L86.3,526.6z"/>
	<path class="st27" d="M114.5,519.5c0,2.3-0.7,4-1.8,5.3s-2.9,2-4.9,2c-1.3,0-2.5-0.3-3.5-0.9c-1-0.6-1.8-1.4-2.3-2.6
		s-0.8-2.3-0.8-3.9c0-2.3,0.5-4,1.7-5.3s2.9-2,4.9-2c2.1,0,3.6,0.7,4.8,2C113.7,515.4,114.5,517.3,114.5,519.5z M104.2,519.5
		c0,3.2,1.2,4.8,3.6,4.8c2.3,0,3.5-1.6,3.5-4.8s-1.2-4.8-3.6-4.8c-1.3,0-2.2,0.4-2.7,1.3C104.5,516.8,104.2,518,104.2,519.5z"/>
	<path class="st27" d="M122.5,526.8c-1.7,0-3.1-0.6-4.2-1.9c-1-1.3-1.4-3-1.4-5.3s0.5-4,1.4-5.3s2.3-2,4.2-2s3.2,0.7,4.2,2.1h0.1
		c-0.1-1-0.3-1.8-0.3-2.3V507h3v19.6h-2.3l-0.5-1.8h-0.1C125.8,526,124.5,526.8,122.5,526.8z M123.5,524.3c1.2,0,2.1-0.4,2.7-1
		c0.7-0.6,0.9-1.8,0.9-3.4v-0.4c0-1.8-0.3-3-0.9-3.8c-0.5-0.8-1.4-1.2-2.7-1.2c-1,0-1.8,0.4-2.5,1.3c-0.7,0.9-0.9,2.1-0.9,3.6
		s0.3,2.7,0.8,3.5S122.3,524.3,123.5,524.3z"/>
	<path class="st27" d="M140.2,526.8c-2.2,0-3.9-0.6-5.1-1.9c-1.2-1.3-1.8-3-1.8-5.2c0-2.3,0.5-4.2,1.7-5.5s2.7-2,4.7-2
		c1.8,0,3.4,0.5,4.4,1.7s1.6,2.7,1.6,4.7v1.6h-9.4c0,1.3,0.4,2.5,1,3.1c0.6,0.7,1.7,1,3,1c0.8,0,1.6-0.1,2.3-0.3
		c0.8-0.1,1.4-0.4,2.3-0.8v2.5c-0.8,0.4-1.4,0.7-2.2,0.8C142,526.7,141.1,526.8,140.2,526.8z M139.7,514.5c-0.9,0-1.7,0.3-2.3,0.9
		c-0.5,0.6-0.9,1.4-1,2.6h6.4c0-1.2-0.3-2.1-0.8-2.6C141.4,514.9,140.6,514.5,139.7,514.5z"/>
	<path class="st27" d="M152.1,526.6h-3v-19.8h3V526.6z"/>
</g>
<g>
	<path class="st27" d="M476.7,526.6h-10.5V508h10.5v2.6h-7.4v5.1h7v2.6h-7v5.9h7.4V526.6z"/>
	<path class="st27" d="M483.6,519.4l-4.7-6.9h3.4l3.2,4.9l3.2-4.9h3.4l-4.7,6.9l4.9,7.1H489l-3.5-5.2l-3.5,5.2h-3.4L483.6,519.4z"/>
	<path class="st27" d="M500.9,526.8c-2.2,0-3.9-0.6-5.1-1.9c-1.2-1.3-1.8-3-1.8-5.2c0-2.3,0.5-4.2,1.7-5.5s2.7-2,4.7-2
		c1.8,0,3.4,0.5,4.4,1.7s1.6,2.7,1.6,4.7v1.6H497c0,1.3,0.4,2.5,1,3.1c0.6,0.7,1.7,1,3,1c0.8,0,1.6-0.1,2.3-0.3
		c0.8-0.1,1.4-0.4,2.3-0.8v2.5c-0.8,0.4-1.4,0.7-2.2,0.8C502.7,526.7,501.8,526.8,500.9,526.8z M500.3,514.5c-0.9,0-1.7,0.3-2.3,0.9
		c-0.5,0.6-0.9,1.4-1,2.6h6.4c0-1.2-0.3-2.1-0.8-2.6C502,514.9,501.3,514.5,500.3,514.5z"/>
	<path class="st27" d="M515.4,526.8c-2.1,0-3.8-0.6-4.8-1.8s-1.7-3-1.7-5.3s0.5-4.2,1.7-5.5s2.9-2,5.1-2c1.4,0,2.9,0.3,4,0.8
		l-0.9,2.3c-1.3-0.5-2.3-0.8-3.1-0.8c-2.5,0-3.6,1.6-3.6,4.8c0,1.6,0.3,2.7,0.9,3.5c0.7,0.8,1.4,1.2,2.6,1.2c1.3,0,2.6-0.4,3.8-1
		v2.6c-0.5,0.3-1,0.5-1.7,0.6C517,526.4,516.2,526.8,515.4,526.8z"/>
	<path class="st27" d="M532.5,526.6l-0.4-1.8H532c-0.4,0.6-1,1.2-1.8,1.6c-0.8,0.4-1.7,0.5-2.6,0.5c-1.7,0-3-0.4-3.8-1.3
		s-1.3-2.1-1.3-3.9v-9.2h3v8.7c0,1,0.3,1.8,0.6,2.5c0.4,0.6,1.2,0.8,2.1,0.8c1.3,0,2.2-0.4,2.7-1.2s0.9-2,0.9-3.8v-7h3v14.2
		L532.5,526.6L532.5,526.6z"/>
	<path class="st27" d="M544.3,524.3c0.8,0,1.4-0.1,2.2-0.4v2.2c-0.4,0.1-0.8,0.3-1.3,0.4c-0.5,0.1-1,0.1-1.6,0.1
		c-2.9,0-4.3-1.4-4.3-4.4v-7.5h-1.9v-1.3l2.1-1l1-3h1.8v3.1h4v2.2h-4v7.5c0,0.8,0.1,1.3,0.5,1.6
		C543.2,524.2,543.8,524.3,544.3,524.3z"/>
	<path class="st27" d="M555.5,526.8c-2.2,0-3.9-0.6-5.1-1.9c-1.2-1.3-1.8-3-1.8-5.2c0-2.3,0.5-4.2,1.7-5.5s2.7-2,4.7-2
		c1.8,0,3.4,0.5,4.4,1.7s1.6,2.7,1.6,4.7v1.6h-9.4c0,1.3,0.4,2.5,1,3.1c0.7,0.8,1.7,1,3,1c0.8,0,1.6-0.1,2.3-0.3
		c0.8-0.1,1.4-0.4,2.3-0.8v2.5c-0.8,0.4-1.4,0.7-2.2,0.8C557.3,526.7,556.4,526.8,555.5,526.8z M554.9,514.5c-0.9,0-1.7,0.3-2.3,0.9
		c-0.5,0.6-0.9,1.4-1,2.6h6.4c0-1.2-0.3-2.1-0.8-2.6C556.6,514.9,555.9,514.5,554.9,514.5z"/>
</g>
<g>
	<path class="st27" d="M892.7,526.6V508h3v18.6H892.7z"/>
	<path class="st27" d="M912.1,526.6h-3v-8.7c0-1-0.3-1.8-0.6-2.5c-0.4-0.5-1-0.8-2-0.8c-1.2,0-2,0.4-2.5,1.2s-0.8,2-0.8,3.8v7h-3
		v-14h2.3l0.4,1.8h0.1c0.4-0.7,0.9-1.2,1.7-1.6c0.8-0.4,1.6-0.5,2.5-0.5c2.2,0,3.6,0.8,4.3,2.2h0.3c0.4-0.6,1-1.3,1.7-1.6
		c0.8-0.4,1.6-0.5,2.6-0.5c1.7,0,2.9,0.4,3.6,1.3s1.2,2.1,1.2,3.9v9.1h-3V518c0-1-0.3-1.8-0.7-2.5c-0.4-0.5-1-0.8-2-0.8
		c-1.2,0-1.9,0.4-2.6,1c-0.5,0.8-0.8,1.8-0.8,3.4v7.4L912.1,526.6L912.1,526.6z"/>
	<path class="st27" d="M932.2,526.8c-1.8,0-3.1-0.6-4.2-1.9h-0.1c0.1,1.2,0.1,1.9,0.1,2.2v5.7h-3v-20.3h2.5c0.1,0.3,0.3,0.9,0.4,1.8
		h0.1c0.9-1.4,2.3-2.1,4.2-2.1c1.7,0,3.1,0.6,4,1.9c0.9,1.3,1.4,3,1.4,5.3s-0.5,4-1.4,5.3C935.3,526.2,934,526.8,932.2,526.8z
		 M931.6,514.7c-1.2,0-2.1,0.4-2.6,1c-0.5,0.7-0.8,1.8-0.8,3.4v0.4c0,1.7,0.3,3,0.8,3.8s1.4,1.2,2.6,1.2c1,0,1.8-0.4,2.3-1.3
		s0.8-2.1,0.8-3.6c0-1.6-0.3-2.7-0.8-3.5C933.4,515.1,932.6,514.7,931.6,514.7z"/>
	<path class="st27" d="M948.5,512.3c0.7,0,1,0,1.4,0.1l-0.3,2.7c-0.4-0.1-0.9-0.1-1.3-0.1c-1.2,0-2.2,0.4-2.9,1.2
		c-0.8,0.8-1.2,1.8-1.2,3v7.3h-3v-14h2.3l0.4,2.5h0.1c0.5-0.8,1-1.6,1.8-1.9C946.8,512.5,947.5,512.3,948.5,512.3z"/>
	<path class="st27" d="M965,519.5c0,2.3-0.7,4-1.8,5.3c-1.2,1.3-2.9,2-4.9,2c-1.3,0-2.5-0.3-3.5-0.9c-1-0.6-1.8-1.4-2.3-2.6
		c-0.5-1.2-0.8-2.3-0.8-3.9c0-2.3,0.5-4,1.7-5.3s2.9-2,4.9-2s3.6,0.7,4.8,2C964.4,515.5,965,517.3,965,519.5z M954.8,519.5
		c0,3.2,1.2,4.8,3.6,4.8c2.3,0,3.5-1.6,3.5-4.8s-1.2-4.8-3.6-4.8c-1.3,0-2.2,0.4-2.7,1.3C955.1,516.8,954.8,518,954.8,519.5z"/>
	<path class="st27" d="M971.6,526.6l-5.3-14h3.1l2.9,8.2c0.5,1.4,0.8,2.5,0.9,3.4h0.1c0.1-0.6,0.4-1.7,0.9-3.4l2.9-8.2h3.1l-5.3,14
		H971.6z"/>
	<path class="st27" d="M988.5,526.8c-2.2,0-3.9-0.6-5.1-1.9c-1.2-1.3-1.8-3-1.8-5.2c0-2.3,0.5-4.2,1.7-5.5s2.7-2,4.7-2
		c1.8,0,3.4,0.5,4.4,1.7s1.6,2.7,1.6,4.7v1.6h-9.4c0,1.3,0.4,2.5,1,3.1c0.7,0.8,1.7,1,3,1c0.8,0,1.6-0.1,2.3-0.3
		c0.7-0.1,1.4-0.4,2.3-0.8v2.5c-0.8,0.4-1.4,0.7-2.2,0.8C990.3,526.7,989.4,526.8,988.5,526.8z M988,514.5c-0.9,0-1.7,0.3-2.3,0.9
		c-0.5,0.6-0.9,1.4-1,2.6h6.4c0-1.2-0.3-2.1-0.8-2.6C989.7,514.9,988.9,514.5,988,514.5z"/>
</g>
<polyline class="st33" points="188.8,509.9 198.2,517.8 188.8,525.6 "/>
<polyline class="st33" points="847.2,509.9 856.8,517.8 847.2,525.6 "/>
<g id="Ebene_2_1_">
	<g>
		<path class="st27" d="M450.7,239.2c-0.6,0-1.1-0.1-1.4-0.3v-1.4c0.5,0.1,0.9,0.2,1.4,0.2c0.6,0,1.1-0.2,1.5-0.6
			c0.3-0.4,0.5-1,0.5-1.7v-14.3h1.7v14.2c0,1.2-0.3,2.2-0.9,2.9C452.8,238.8,451.9,239.2,450.7,239.2z"/>
		<path class="st27" d="M464.5,235.4l-0.3-1.5h-0.1c-0.5,0.7-1.1,1.1-1.6,1.4s-1.2,0.4-2,0.4c-1.1,0-1.9-0.3-2.5-0.8
			s-0.9-1.3-0.9-2.3c0-2.2,1.7-3.3,5.2-3.4l1.8-0.1v-0.7c0-0.8-0.2-1.5-0.5-1.9c-0.4-0.4-0.9-0.6-1.7-0.6c-0.9,0-1.9,0.3-3,0.8
			l-0.5-1.2c0.5-0.3,1.1-0.5,1.7-0.7s1.3-0.2,1.9-0.2c1.3,0,2.2,0.3,2.8,0.9c0.6,0.6,0.9,1.5,0.9,2.7v7.3L464.5,235.4L464.5,235.4z
			 M460.8,234.2c1,0,1.8-0.3,2.4-0.8c0.6-0.6,0.9-1.3,0.9-2.3v-1l-1.6,0.1c-1.3,0-2.2,0.2-2.8,0.6s-0.9,0.9-0.9,1.7
			c0,0.6,0.2,1,0.5,1.3S460.2,234.2,460.8,234.2z"/>
		<path class="st27" d="M471.4,235.4l-4.1-10.7h1.7l2.3,6.4c0.5,1.5,0.8,2.5,0.9,2.9h0.1c0.1-0.3,0.3-1.1,0.7-2.2
			c0.4-1.1,1.2-3.5,2.6-7.1h1.7l-4.1,10.7L471.4,235.4L471.4,235.4z"/>
		<path class="st27" d="M485.7,235.4l-0.3-1.5h-0.1c-0.5,0.7-1.1,1.1-1.6,1.4c-0.5,0.2-1.2,0.4-2,0.4c-1.1,0-1.9-0.3-2.5-0.8
			s-0.9-1.3-0.9-2.3c0-2.2,1.7-3.3,5.2-3.4l1.8-0.1v-0.7c0-0.8-0.2-1.5-0.5-1.9c-0.4-0.4-0.9-0.6-1.7-0.6c-0.9,0-1.9,0.3-3,0.8
			l-0.5-1.2c0.5-0.3,1.1-0.5,1.7-0.7s1.3-0.2,1.9-0.2c1.3,0,2.2,0.3,2.8,0.9c0.6,0.6,0.9,1.5,0.9,2.7v7.3L485.7,235.4L485.7,235.4z
			 M482,234.2c1,0,1.8-0.3,2.4-0.8c0.6-0.6,0.9-1.3,0.9-2.3v-1l-1.6,0.1c-1.3,0-2.2,0.2-2.8,0.6c-0.6,0.4-0.9,0.9-0.9,1.7
			c0,0.6,0.2,1,0.5,1.3C480.9,234.1,481.4,234.2,482,234.2z"/>
		<path class="st27" d="M500.9,221.1l-5.3,14.3H494l5.3-14.3H500.9z"/>
		<path class="st27" d="M510,229.4v6h-1.7v-14.3h3.9c1.8,0,3.1,0.3,3.9,1c0.8,0.7,1.3,1.7,1.3,3c0,1.9-1,3.2-2.9,3.8l3.9,6.4h-2
			l-3.5-6H510V229.4z M510,228h2.3c1.2,0,2-0.2,2.6-0.7c0.5-0.5,0.8-1.2,0.8-2.1c0-0.9-0.3-1.6-0.8-2s-1.5-0.6-2.7-0.6H510V228z"/>
		<path class="st27" d="M528.7,235.4h-8v-14.3h8v1.5h-6.3v4.6h5.9v1.5h-5.9v5.3h6.3V235.4z"/>
		<path class="st27" d="M539.9,231.6c0,1.3-0.5,2.2-1.4,2.9s-2.2,1.1-3.7,1.1c-1.7,0-3-0.2-3.9-0.7v-1.6c0.6,0.2,1.2,0.4,1.9,0.6
			c0.7,0.1,1.4,0.2,2.1,0.2c1.1,0,1.9-0.2,2.5-0.6s0.8-1,0.8-1.8c0-0.5-0.1-0.9-0.3-1.2s-0.5-0.6-1-0.9c-0.5-0.3-1.2-0.6-2.1-0.9
			c-1.3-0.5-2.3-1-2.9-1.7c-0.6-0.7-0.9-1.5-0.9-2.6s0.4-2,1.2-2.6c0.8-0.7,1.9-1,3.3-1c1.4,0,2.7,0.3,3.9,0.8l-0.5,1.4
			c-1.2-0.5-2.3-0.7-3.4-0.7c-0.9,0-1.6,0.2-2.1,0.6c-0.5,0.4-0.7,0.9-0.7,1.6c0,0.5,0.1,0.9,0.3,1.2s0.5,0.6,0.9,0.9
			c0.4,0.3,1.1,0.6,2,0.9c1.5,0.5,2.5,1.1,3.1,1.7C539.6,229.8,539.9,230.6,539.9,231.6z"/>
		<path class="st27" d="M547.3,235.4h-1.7v-12.8h-4.5v-1.5h10.7v1.5h-4.5V235.4z"/>
		<path class="st27" d="M568.2,235.4l-1.8-4.6h-5.7l-1.8,4.6h-1.7l5.7-14.4h1.4l5.6,14.4H568.2z M565.9,229.3l-1.7-4.4
			c-0.2-0.6-0.4-1.3-0.7-2.1c-0.1,0.6-0.3,1.3-0.6,2.1l-1.7,4.4H565.9z"/>
		<path class="st27" d="M580.9,225.2c0,1.4-0.5,2.6-1.5,3.3c-1,0.8-2.4,1.2-4.2,1.2h-1.7v5.6h-1.7V221h3.7
			C579.2,221.1,580.9,222.5,580.9,225.2z M573.5,228.3h1.5c1.5,0,2.5-0.2,3.2-0.7s1-1.2,1-2.3c0-0.9-0.3-1.7-0.9-2.1
			c-0.6-0.5-1.6-0.7-2.9-0.7h-1.9L573.5,228.3L573.5,228.3z"/>
		<path class="st27" d="M583.9,235.4v-14.3h1.7v14.3H583.9z"/>
	</g>
	<rect x="274.8" y="208.7" class="st22" width="492.4" height="38.5"/>
</g>
</svg>
