<?xml version="1.0" encoding="utf-8"?>
<!-- Generator: Adobe Illustrator 23.0.3, SVG Export Plug-In . SVG Version: 6.00 Build 0)  -->
<svg version="1.1" id="Ebene_1" xmlns="http://www.w3.org/2000/svg" xmlns:xlink="http://www.w3.org/1999/xlink" x="0px" y="0px"
	 viewBox="0 0 1072 536.2" style="enable-background:new 0 0 1072 536.2;" xml:space="preserve">
<style type="text/css">
	.st0{fill:none;stroke:#999999;stroke-miterlimit:10;stroke-dasharray:5;}
	.st1{fill:none;stroke:#999999;stroke-miterlimit:10;}
	.st2{fill:none;stroke:#999999;stroke-miterlimit:10;stroke-dasharray:4.87,4.87;}
	.st3{fill:none;stroke:#999999;stroke-miterlimit:10;stroke-dasharray:5.15,5.15;}
	.st4{fill:none;stroke:#999999;stroke-width:1.93;stroke-linecap:round;stroke-miterlimit:10;}
	.st5{fill:#1D1D1B;}
	.st6{fill:#999999;}
	.st7{fill:#FFFFFF;}
	.st8{fill:#00A8FF;}
	.st9{fill:#333333;}
	.st10{clip-path:url(#SVGID_2_);}
	.st11{clip-path:url(#SVGID_4_);}
	.st12{enable-background:new    ;}
</style>
<filter id="shadow">
  <feGaussianBlur in="SourceAlpha" stdDeviation="7.5"/>
  <feOffset dx="0" dy="0" result="offsetblur"/>
  <feFlood flood-color="#fd7909"/>
  <feComposite in2="offsetblur" operator="in"/>
  <feMerge>
	  <feMergeNode/>
	  <feMergeNode in="SourceGraphic"/>
  </feMerge>
</filter>
<g id="lines">
	<line class="st0" x1="769.8" y1="228" x2="962" y2="228"/>
	<line class="st0" x1="85" y1="228" x2="274.8" y2="228"/>
	<line class="st1" x1="302" y1="176" x2="302" y2="178.5"/>
	<line class="st2" x1="302" y1="183.4" x2="302" y2="211.7"/>
	<line class="st1" x1="522" y1="176" x2="522" y2="178.5"/>
	<line class="st2" x1="522" y1="183.4" x2="522" y2="211.7"/>
	<line class="st1" x1="85" y1="176" x2="85" y2="178.5"/>
	<line class="st2" x1="85" y1="183.4" x2="85" y2="228.1"/>
	<line class="st1" x1="742" y1="176" x2="742" y2="178.5"/>
	<line class="st2" x1="742" y1="183.4" x2="742" y2="211.7"/>
	<line class="st1" x1="962" y1="176" x2="962" y2="178.5"/>
	<line class="st2" x1="962" y1="183.4" x2="962" y2="228.1"/>
	<line class="st3" x1="422.4" y1="247.3" x2="422.4" y2="274.2"/>
	<line class="st1" x1="422.4" y1="276.8" x2="422.4" y2="279.3"/>
	<line class="st3" x1="622.7" y1="247.3" x2="622.7" y2="274.2"/>
	<line class="st1" x1="622.7" y1="276.8" x2="622.7" y2="279.3"/>
	<rect x="274.8" y="208.7" class="st0" width="492.4" height="38.5"/>
</g>
<g id="process-arrows">
	<polyline id="process-arrow-2" class="st4" points="847.2,509.9 856.8,517.8 847.2,525.6 	"/>
	<polyline id="process-arrow-1" class="st4" points="188.8,509.9 198.2,517.8 188.8,525.6 	"/>
</g>
<g id="improve-process-label">
	<path class="st5" d="M892.7,526.6V508h3v18.6H892.7z"/>
	<path class="st5" d="M912.1,526.6h-3v-8.7c0-0.9-0.2-1.7-0.6-2.5c-0.5-0.6-1.2-0.9-2-0.8c-1-0.1-2,0.4-2.5,1.2
		c-0.6,1.2-0.9,2.5-0.8,3.8v7h-3v-14h2.3l0.4,1.8h0.1c0.4-0.7,1-1.3,1.7-1.6c0.8-0.4,1.6-0.5,2.5-0.5c2.2,0,3.6,0.8,4.3,2.2h0.3
		c0.4-0.7,1-1.2,1.7-1.6c0.8-0.4,1.7-0.5,2.6-0.5c1.7,0,2.9,0.4,3.6,1.3c0.8,1.1,1.3,2.5,1.2,3.9v9.1h-3V518c0-0.9-0.2-1.7-0.7-2.5
		c-0.5-0.6-1.2-0.9-2-0.8c-1,0-1.9,0.3-2.6,1c-0.6,1-0.9,2.2-0.8,3.4v7.4L912.1,526.6L912.1,526.6z"/>
	<path class="st5" d="M932.2,526.8c-1.6,0.1-3.2-0.6-4.2-1.9h-0.1c0.1,1.2,0.1,1.9,0.1,2.2v5.7h-3v-20.3h2.5
		c0.2,0.6,0.3,1.2,0.4,1.8h0.1c0.9-1.4,2.5-2.2,4.2-2.1c1.6-0.1,3.1,0.6,4,1.9c1.9,3.3,1.9,7.3,0,10.6
		C935.4,526.1,933.8,526.9,932.2,526.8z M931.6,514.7c-1-0.1-1.9,0.3-2.6,1c-0.6,1-0.9,2.2-0.8,3.4v0.4c-0.1,1.3,0.2,2.6,0.8,3.8
		c0.6,0.8,1.6,1.3,2.6,1.2c1,0.1,1.9-0.5,2.3-1.3c0.6-1.1,0.8-2.4,0.8-3.6c0.1-1.2-0.2-2.4-0.8-3.5
		C933.5,515.2,932.6,514.6,931.6,514.7L931.6,514.7z"/>
	<path class="st5" d="M948.5,512.3c0.5,0,0.9,0,1.4,0.1l-0.3,2.7c-0.4-0.1-0.9-0.1-1.3-0.1c-1.1-0.1-2.2,0.4-2.9,1.2
		c-0.8,0.8-1.2,1.9-1.2,3v7.3h-3v-14h2.3l0.4,2.5h0.1c0.4-0.8,1-1.5,1.8-1.9C946.6,512.6,947.5,512.3,948.5,512.3z"/>
	<path class="st5" d="M965,519.5c0.1,1.9-0.6,3.8-1.8,5.3c-1.3,1.3-3.1,2.1-4.9,2c-1.2,0-2.4-0.3-3.5-0.9c-1-0.6-1.8-1.5-2.3-2.6
		c-0.5-1.2-0.8-2.6-0.8-3.9c-0.1-1.9,0.5-3.8,1.7-5.3c1.3-1.3,3.1-2.1,4.9-2c1.8-0.1,3.6,0.7,4.8,2
		C964.4,515.6,965.1,517.5,965,519.5z M954.8,519.5c0,3.2,1.2,4.8,3.6,4.8c2.3,0,3.5-1.6,3.5-4.8s-1.2-4.8-3.6-4.8
		c-1.1-0.1-2.1,0.4-2.7,1.3C955,517.1,954.7,518.3,954.8,519.5z"/>
	<path class="st5" d="M971.6,526.6l-5.3-14h3.1l2.9,8.2c0.4,1.1,0.7,2.2,0.9,3.4h0.1c0.1-0.6,0.4-1.7,0.9-3.4l2.9-8.2h3.1l-5.3,14
		H971.6z"/>
	<path class="st5" d="M988.5,526.8c-1.9,0.1-3.8-0.6-5.1-1.9c-1.3-1.4-1.9-3.3-1.8-5.2c-0.1-2,0.5-3.9,1.7-5.5
		c1.2-1.3,2.9-2.1,4.7-2c1.6-0.1,3.3,0.5,4.4,1.7c1.1,1.3,1.7,3,1.6,4.7v1.6h-9.4c-0.1,1.1,0.3,2.2,1,3.1c0.8,0.8,1.9,1.1,3,1
		c0.8,0,1.6-0.1,2.3-0.3c0.8-0.2,1.6-0.4,2.3-0.8v2.5c-0.7,0.4-1.4,0.7-2.2,0.8C990.2,526.7,989.3,526.8,988.5,526.8z M988,514.5
		c-0.9,0-1.7,0.3-2.3,0.9c-0.6,0.7-1,1.6-1,2.6h6.4c0.3-1.6-0.8-3.2-2.5-3.5C988.4,514.5,988.2,514.5,988,514.5L988,514.5z"/>
</g>
<g id="execute-process-label">
	<path class="st5" d="M476.7,526.6h-10.5V508h10.5v2.6h-7.4v5.1h7v2.6h-7v5.9h7.4V526.6z"/>
	<path class="st5" d="M483.6,519.4l-4.7-6.9h3.4l3.2,4.9l3.2-4.9h3.4l-4.7,6.9l4.9,7.1H489l-3.5-5.2l-3.5,5.2h-3.4L483.6,519.4z"/>
	<path class="st5" d="M500.9,526.8c-1.9,0.1-3.8-0.6-5.1-1.9c-1.3-1.4-1.9-3.3-1.8-5.2c-0.1-2,0.5-3.9,1.7-5.5
		c1.2-1.3,2.9-2.1,4.7-2c1.6-0.1,3.3,0.5,4.4,1.7c1.1,1.3,1.7,3,1.6,4.7v1.6H497c-0.1,1.1,0.3,2.2,1,3.1c0.8,0.7,1.9,1.1,3,1
		c0.8,0,1.6-0.1,2.3-0.3c0.8-0.1,1.6-0.4,2.3-0.8v2.5c-0.7,0.4-1.4,0.7-2.2,0.8C502.6,526.7,501.7,526.8,500.9,526.8z M500.3,514.5
		c-0.9,0-1.7,0.3-2.3,0.9c-0.6,0.7-1,1.6-1,2.6h6.4c0.1-0.9-0.2-1.9-0.8-2.6C502,514.8,501.2,514.5,500.3,514.5z"/>
	<path class="st5" d="M515.4,526.8c-1.8,0.1-3.5-0.5-4.8-1.8c-1.2-1.5-1.8-3.4-1.7-5.3c-0.1-2,0.5-3.9,1.7-5.5
		c1.3-1.4,3.2-2.1,5.1-2c1.4,0,2.7,0.3,4,0.8l-0.9,2.3c-1-0.4-2-0.7-3.1-0.8c-2.5,0-3.6,1.6-3.6,4.8c-0.1,1.2,0.2,2.5,0.9,3.5
		c0.6,0.8,1.6,1.2,2.6,1.2c1.3,0,2.6-0.4,3.8-1v2.6c-0.5,0.3-1.1,0.5-1.7,0.6C517,526.5,516.2,526.7,515.4,526.8z"/>
	<path class="st5" d="M532.5,526.6l-0.4-1.8H532c-0.5,0.7-1.1,1.2-1.8,1.6c-0.8,0.4-1.7,0.5-2.6,0.5c-1.4,0.1-2.8-0.3-3.8-1.3
		c-0.9-1.1-1.4-2.5-1.3-3.9v-9.2h3v8.7c0,0.9,0.2,1.7,0.6,2.5c0.5,0.6,1.3,0.9,2.1,0.8c1.1,0.1,2.1-0.3,2.7-1.2
		c0.7-1.2,1-2.5,0.9-3.8v-7h3v14.2L532.5,526.6L532.5,526.6z"/>
	<path class="st5" d="M544.3,524.3c0.8,0,1.5-0.1,2.2-0.4v2.2c-0.4,0.1-0.8,0.3-1.3,0.4c-0.5,0.1-1.1,0.1-1.6,0.1
		c-2.9,0-4.3-1.4-4.3-4.4v-7.5h-1.9v-1.3l2.1-1l1-3h1.8v3.1h4v2.2h-4v7.5c0,0.8,0.1,1.3,0.5,1.6
		C543.2,524.2,543.8,524.3,544.3,524.3z"/>
	<path class="st5" d="M555.5,526.8c-1.9,0.1-3.8-0.6-5.1-1.9c-1.3-1.4-1.9-3.3-1.8-5.2c-0.1-2,0.5-3.9,1.7-5.5
		c1.2-1.3,2.9-2.1,4.7-2c1.6-0.1,3.3,0.5,4.4,1.7c1.1,1.3,1.7,3,1.6,4.7v1.6h-9.4c-0.1,1.1,0.3,2.2,1,3.1c0.8,0.8,1.9,1.1,3,1
		c0.8,0,1.6-0.1,2.3-0.3c0.8-0.1,1.6-0.4,2.3-0.8v2.5c-0.7,0.4-1.4,0.7-2.2,0.8C557.2,526.7,556.3,526.8,555.5,526.8z M554.9,514.5
		c-0.9,0-1.7,0.3-2.3,0.9c-0.6,0.7-1,1.6-1,2.6h6.4c0.1-0.9-0.2-1.9-0.8-2.6C556.6,514.8,555.8,514.5,554.9,514.5z"/>
</g>
<g id="model-process-label">
	<path class="st5" d="M86.3,526.6L81,511.1h-0.1c0.1,2.3,0.3,4.4,0.3,6.5v9h-2.7V508h4.3l5.2,14.8l0,0l5.3-14.8h4.3v18.6h-2.9v-9.2
		c0-0.9,0-2.1,0.1-3.6s0.1-2.3,0.1-2.7h-0.1l-5.6,15.5H86.3z"/>
	<path class="st5" d="M114.5,519.5c0.1,1.9-0.6,3.8-1.8,5.3c-1.3,1.4-3.1,2.1-4.9,2c-1.2,0-2.4-0.3-3.5-0.9c-1-0.6-1.8-1.5-2.3-2.6
		c-0.5-1.2-0.8-2.6-0.8-3.9c-0.1-1.9,0.5-3.8,1.7-5.3c1.3-1.3,3.1-2.1,4.9-2c1.8-0.1,3.6,0.7,4.8,2
		C113.8,515.6,114.5,517.5,114.5,519.5z M104.2,519.5c0,3.2,1.2,4.8,3.6,4.8c2.3,0,3.5-1.6,3.5-4.8s-1.2-4.8-3.6-4.8
		c-1.1-0.1-2.1,0.4-2.7,1.3C104.4,517.1,104.1,518.3,104.2,519.5z"/>
	<path class="st5" d="M122.5,526.8c-1.6,0.1-3.2-0.6-4.2-1.9c-1-1.6-1.5-3.4-1.4-5.3c-0.1-1.9,0.4-3.7,1.4-5.3
		c1.8-2.3,5.2-2.7,7.5-0.8c0.3,0.3,0.6,0.6,0.9,0.9h0.1c-0.1-1-0.3-1.8-0.3-2.3V507h3v19.6h-2.3l-0.5-1.8h-0.1
		C125.7,526.1,124.1,526.9,122.5,526.8z M123.5,524.3c1,0,2-0.3,2.7-1c0.7-0.6,0.9-1.8,0.9-3.4v-0.4c0.1-1.3-0.2-2.7-0.9-3.8
		c-0.6-0.9-1.6-1.3-2.7-1.2c-1,0-1.9,0.5-2.5,1.3c-0.7,1.1-1,2.3-0.9,3.6c-0.1,1.2,0.2,2.4,0.8,3.5
		C121.5,523.8,122.4,524.3,123.5,524.3z"/>
	<path class="st5" d="M140.2,526.8c-1.9,0.1-3.8-0.6-5.1-1.9c-1.3-1.4-1.9-3.3-1.8-5.2c-0.1-2,0.5-3.9,1.7-5.5
		c1.2-1.3,2.9-2.1,4.7-2c1.6-0.1,3.3,0.5,4.4,1.7c1.1,1.3,1.7,3,1.6,4.7v1.6h-9.4c-0.1,1.1,0.3,2.2,1,3.1c0.8,0.7,1.9,1.1,3,1
		c0.8,0,1.6-0.1,2.3-0.3c0.8-0.1,1.6-0.4,2.3-0.8v2.5c-0.7,0.4-1.4,0.7-2.2,0.8C141.9,526.7,141,526.8,140.2,526.8z M139.7,514.5
		c-0.9,0-1.7,0.3-2.3,0.9c-0.6,0.7-1,1.6-1,2.6h6.4c0.3-1.6-0.8-3.2-2.5-3.5C140.1,514.5,139.9,514.5,139.7,514.5L139.7,514.5z"/>
	<path class="st5" d="M152.1,526.6h-3v-19.8h3V526.6z"/>
</g>
<g id="java-rest-api-label">
	<path class="st5" d="M450.7,239.2c-0.5,0-1-0.1-1.4-0.3v-1.4c0.5,0.1,0.9,0.2,1.4,0.2c0.6,0,1.1-0.2,1.5-0.6
		c0.3-0.5,0.5-1.1,0.5-1.7v-14.3h1.7v14.2c0.1,1-0.3,2.1-0.9,2.9C452.7,238.9,451.7,239.2,450.7,239.2z"/>
	<path class="st5" d="M464.5,235.4l-0.3-1.5h-0.1c-0.4,0.6-1,1.1-1.6,1.4c-0.6,0.3-1.3,0.4-2,0.4c-0.9,0-1.8-0.2-2.5-0.8
		c-0.6-0.6-1-1.4-0.9-2.3c0-2.2,1.7-3.3,5.2-3.4l1.8-0.1v-0.7c0-0.7-0.1-1.3-0.5-1.9c-0.5-0.4-1.1-0.7-1.7-0.6c-1,0.1-2.1,0.3-3,0.8
		l-0.5-1.2c0.5-0.3,1.1-0.5,1.7-0.7c0.6-0.2,1.3-0.2,1.9-0.2c1-0.1,2,0.2,2.8,0.9c0.7,0.7,1,1.7,0.9,2.7v7.3L464.5,235.4
		L464.5,235.4z M460.8,234.2c0.9,0,1.7-0.3,2.4-0.8c0.6-0.6,0.9-1.4,0.9-2.3v-1l-1.6,0.1c-1-0.1-1.9,0.1-2.8,0.6
		c-0.6,0.4-0.9,1-0.9,1.7c0,0.5,0.2,1,0.5,1.3C459.7,234.1,460.3,234.2,460.8,234.2z"/>
	<path class="st5" d="M471.4,235.4l-4.1-10.7h1.7l2.3,6.4c0.5,1.5,0.8,2.5,0.9,2.9h0.1c0.1-0.3,0.3-1.1,0.7-2.2s1.2-3.5,2.6-7.1h1.7
		l-4.1,10.7L471.4,235.4z"/>
	<path class="st5" d="M485.7,235.4l-0.3-1.5h-0.1c-0.4,0.6-1,1.1-1.6,1.4c-0.6,0.3-1.3,0.4-2,0.4c-0.9,0-1.8-0.2-2.5-0.8
		c-0.6-0.6-1-1.4-0.9-2.3c0-2.2,1.7-3.3,5.2-3.4l1.8-0.1v-0.7c0-0.7-0.1-1.3-0.5-1.9c-0.5-0.4-1.1-0.7-1.7-0.6c-1,0.1-2.1,0.3-3,0.8
		l-0.5-1.2c0.5-0.3,1.1-0.5,1.7-0.7c0.6-0.2,1.3-0.2,1.9-0.2c1-0.1,2,0.2,2.8,0.9c0.7,0.7,1,1.7,0.9,2.7v7.3L485.7,235.4
		L485.7,235.4z M482,234.2c0.9,0,1.7-0.3,2.4-0.8c0.6-0.6,0.9-1.4,0.9-2.3v-1l-1.6,0.1c-1-0.1-1.9,0.1-2.8,0.6
		c-0.6,0.4-0.9,1-0.9,1.7c0,0.5,0.2,1,0.5,1.3C480.9,234.1,481.5,234.2,482,234.2z"/>
	<path class="st5" d="M500.9,221.1l-5.3,14.3H494l5.3-14.3H500.9z"/>
	<path class="st5" d="M510,229.4v6h-1.7v-14.3h3.9c1.4-0.1,2.8,0.2,3.9,1c0.9,0.8,1.3,1.9,1.3,3c0.1,1.8-1.1,3.4-2.9,3.8l3.9,6.4h-2
		l-3.5-6L510,229.4L510,229.4z M510,228h2.3c0.9,0.1,1.8-0.2,2.6-0.7c0.5-0.6,0.8-1.3,0.8-2.1c0.1-0.8-0.2-1.5-0.8-2
		c-0.8-0.5-1.8-0.7-2.7-0.6H510V228z"/>
	<path class="st5" d="M528.7,235.4h-8v-14.3h8v1.5h-6.3v4.6h5.9v1.5h-5.9v5.3h6.3V235.4z"/>
	<path class="st5" d="M539.9,231.6c0,1.1-0.5,2.2-1.4,2.9c-1.1,0.8-2.4,1.2-3.7,1.1c-1.3,0.1-2.7-0.2-3.9-0.7v-1.6
		c0.6,0.2,1.2,0.4,1.9,0.6c0.7,0.1,1.4,0.2,2.1,0.2c0.9,0.1,1.7-0.2,2.5-0.6c0.6-0.4,0.9-1.1,0.8-1.8c0-0.4-0.1-0.8-0.3-1.2
		c-0.3-0.4-0.6-0.7-1-0.9c-0.7-0.4-1.4-0.7-2.1-0.9c-1.1-0.3-2.1-0.9-2.9-1.7c-0.6-0.7-0.9-1.7-0.9-2.6c0-1,0.4-2,1.2-2.6
		c0.9-0.7,2.1-1.1,3.3-1c1.3,0,2.7,0.3,3.9,0.8l-0.5,1.4c-1.1-0.5-2.2-0.7-3.4-0.7c-0.7,0-1.5,0.2-2.1,0.6c-0.5,0.4-0.7,1-0.7,1.6
		c0,0.4,0.1,0.8,0.3,1.2c0.2,0.3,0.6,0.7,0.9,0.9c0.6,0.4,1.3,0.7,2,0.9c1.1,0.3,2.2,0.9,3.1,1.7
		C539.6,229.8,539.9,230.7,539.9,231.6z"/>
	<path class="st5" d="M547.3,235.4h-1.7v-12.8h-4.5v-1.5h10.7v1.5h-4.5V235.4z"/>
	<path class="st5" d="M568.2,235.4l-1.8-4.6h-5.7l-1.8,4.6h-1.7l5.7-14.4h1.4l5.6,14.4H568.2z M565.9,229.3l-1.7-4.4
		c-0.2-0.6-0.4-1.3-0.7-2.1c-0.1,0.7-0.3,1.4-0.6,2.1l-1.7,4.4H565.9z"/>
	<path class="st5" d="M580.9,225.2c0.1,1.3-0.5,2.5-1.5,3.3c-1.2,0.9-2.7,1.3-4.2,1.2h-1.7v5.6h-1.7V221h3.7
		C579.2,221.1,580.9,222.5,580.9,225.2z M573.5,228.3h1.5c1.1,0.1,2.2-0.1,3.2-0.7c0.7-0.5,1.1-1.4,1-2.3c0.1-0.8-0.3-1.6-0.9-2.1
		c-0.9-0.5-1.9-0.8-2.9-0.7h-1.9L573.5,228.3L573.5,228.3z"/>
	<path class="st5" d="M583.9,235.4v-14.3h1.7v14.3L583.9,235.4z"/>
</g>
<g id="decision-engine-label">
	<path class="st5" d="M562.3,438.9c0,2.4-0.6,4.2-1.9,5.4c-1.5,1.3-3.5,2-5.5,1.9h-4v-14.3h4.4c1.9-0.1,3.8,0.5,5.2,1.8
		C561.8,434.9,562.3,436.7,562.3,438.9z M560.6,438.9c0.4-2.7-1.5-5.2-4.2-5.6c-0.5-0.1-0.9-0.1-1.4,0h-2.4v11.4h2
		c1.6,0.1,3.3-0.4,4.5-1.5C560.2,442,560.7,440.5,560.6,438.9z"/>
	<path class="st5" d="M569.8,446.3c-1.4,0.1-2.7-0.4-3.7-1.4c-1-1.1-1.5-2.5-1.4-4c-0.1-1.5,0.4-2.9,1.3-4.1c0.9-1,2.1-1.5,3.4-1.5
		c1.2-0.1,2.4,0.4,3.2,1.3c0.8,1,1.3,2.2,1.2,3.5v1h-7.4c-0.1,1.1,0.3,2.1,1,2.9c0.6,0.7,1.6,1.1,2.5,1c1.2,0,2.3-0.2,3.4-0.7v1.4
		c-0.5,0.2-1.1,0.4-1.6,0.5C571.1,446.3,570.4,446.3,569.8,446.3z M569.4,436.6c-0.8,0-1.5,0.3-2.1,0.8c-0.5,0.7-0.9,1.5-0.9,2.3
		h5.6c0.1-0.8-0.2-1.7-0.7-2.3C570.8,436.9,570.1,436.6,569.4,436.6L569.4,436.6z"/>
	<path class="st5" d="M580.8,446.3c-1.3,0-2.6-0.5-3.6-1.4c-0.9-1.1-1.4-2.5-1.3-4c-0.1-1.5,0.4-3,1.3-4.2c0.9-1,2.3-1.6,3.7-1.5
		c0.5,0,1,0.1,1.5,0.2c0.4,0.1,0.8,0.2,1.2,0.4l-0.5,1.4c-0.4-0.1-0.7-0.3-1.2-0.4c-0.4-0.1-0.7-0.1-1.1-0.1c-2.2,0-3.3,1.4-3.3,4.2
		c-0.1,1.1,0.2,2.1,0.8,3c0.6,0.7,1.5,1.2,2.4,1.1c0.9,0,1.9-0.2,2.7-0.6v1.4C582.6,446.2,581.7,446.4,580.8,446.3z"/>
	<path class="st5" d="M585.9,432.5c0-0.3,0.1-0.6,0.3-0.8c0.4-0.4,1-0.4,1.4,0c0.4,0.5,0.4,1.1,0,1.6c-0.4,0.4-1,0.4-1.4,0
		C586,433.2,585.9,432.9,585.9,432.5z M587.6,446.2H586v-10.7h1.6L587.6,446.2z"/>
	<path class="st5" d="M598,443.2c0,0.9-0.4,1.8-1.1,2.3c-0.9,0.6-2,0.8-3.1,0.8c-1.1,0.1-2.3-0.2-3.3-0.7v-1.5
		c0.5,0.3,1.1,0.5,1.7,0.6c0.6,0.1,1.1,0.2,1.7,0.2c0.7,0,1.4-0.1,2-0.4c0.4-0.2,0.7-0.7,0.7-1.2c0-0.4-0.2-0.8-0.5-1.1
		c-0.6-0.4-1.4-0.8-2.1-1c-0.7-0.3-1.4-0.6-2.1-1c-0.3-0.2-0.7-0.6-0.9-0.9c-0.2-0.4-0.3-0.8-0.3-1.3c0-0.8,0.4-1.6,1.1-2.1
		c0.9-0.6,1.9-0.8,2.9-0.8c1.2,0,2.3,0.2,3.4,0.7l-0.6,1.3c-0.9-0.4-1.9-0.6-2.9-0.7c-0.6-0.1-1.2,0.1-1.7,0.4
		c-0.4,0.2-0.6,0.6-0.6,1c0,0.2,0.1,0.5,0.2,0.7c0.2,0.2,0.4,0.5,0.7,0.6c0.3,0.2,1,0.4,1.9,0.8c1,0.3,1.8,0.8,2.6,1.4
		C597.9,441.9,598,442.6,598,443.2z"/>
	<path class="st5" d="M600.5,432.5c0-0.3,0.1-0.6,0.3-0.8c0.4-0.4,1-0.4,1.4,0c0.4,0.5,0.4,1.1,0,1.6c-0.4,0.4-1,0.4-1.4,0
		C600.6,433.2,600.5,432.9,600.5,432.5z M602.2,446.2h-1.6v-10.7h1.6V446.2z"/>
	<path class="st5" d="M614.9,440.8c0.1,1.5-0.4,2.9-1.3,4.1c-0.9,1-2.2,1.6-3.6,1.5c-0.9,0-1.8-0.2-2.5-0.7
		c-0.7-0.5-1.3-1.1-1.7-1.9c-0.4-0.9-0.6-1.9-0.6-2.9c-0.1-1.5,0.4-2.9,1.3-4.1c2-2,5.2-2,7.2,0c0,0,0,0,0,0
		C614.6,437.9,615,439.4,614.9,440.8z M606.8,440.8c-0.1,1.1,0.2,2.2,0.8,3.1c0.6,0.7,1.5,1.1,2.4,1.1c0.9,0.1,1.8-0.4,2.4-1.1
		c0.6-0.9,0.8-2,0.8-3.1c0.1-1.1-0.2-2.2-0.8-3.1c-0.6-0.7-1.5-1.1-2.4-1.1c-0.9-0.1-1.8,0.3-2.4,1
		C607,438.5,606.7,439.7,606.8,440.8L606.8,440.8z"/>
	<path class="st5" d="M625.1,446.2v-6.9c0-0.7-0.2-1.4-0.6-2c-0.5-0.4-1.2-0.7-1.9-0.6c-0.9-0.1-1.8,0.3-2.5,0.9
		c-0.6,0.9-0.9,1.9-0.8,3v5.6h-1.6v-10.7h1.3l0.3,1.5h0.1c0.3-0.5,0.8-0.9,1.4-1.2c0.6-0.3,1.3-0.4,2-0.4c1-0.1,2.1,0.2,2.9,0.9
		c0.8,0.8,1.1,1.9,1,3v7L625.1,446.2L625.1,446.2z"/>
	<path class="st5" d="M643.4,446.2h-8v-14.3h8v1.5h-6.3v4.6h5.9v1.5h-5.9v5.3h6.3L643.4,446.2z"/>
	<path class="st5" d="M653.7,446.2v-6.9c0-0.7-0.2-1.4-0.6-2c-0.5-0.4-1.2-0.7-1.9-0.6c-0.9-0.1-1.8,0.3-2.5,0.9
		c-0.6,0.9-0.9,1.9-0.8,3v5.6h-1.6v-10.7h1.3l0.3,1.5h0.1c0.3-0.5,0.8-0.9,1.4-1.2c0.6-0.3,1.3-0.4,2-0.4c1-0.1,2.1,0.2,2.9,0.9
		c0.8,0.8,1.1,1.9,1,3v7L653.7,446.2L653.7,446.2z"/>
	<path class="st5" d="M667.4,435.4v1l-2,0.2c0.2,0.3,0.4,0.6,0.5,0.9c0.1,0.4,0.2,0.8,0.2,1.2c0,1-0.4,1.9-1.1,2.5
		c-0.8,0.6-1.9,1-2.9,0.9c-0.3,0-0.6,0-0.9-0.1c-0.7,0.4-1,0.8-1,1.4c0,0.3,0.1,0.5,0.4,0.6c0.4,0.1,0.8,0.2,1.2,0.2h1.9
		c1-0.1,1.9,0.2,2.7,0.7c0.6,0.5,0.9,1.3,0.9,2.1c0,1.1-0.5,2.1-1.4,2.7c-1.3,0.7-2.7,1-4.2,0.9c-1.1,0.1-2.2-0.2-3.2-0.8
		c-0.7-0.5-1.2-1.3-1.1-2.2c0-0.6,0.2-1.2,0.6-1.7c0.5-0.5,1.1-0.9,1.8-1c-0.3-0.1-0.5-0.3-0.7-0.6c-0.2-0.3-0.3-0.6-0.3-0.9
		c0-0.4,0.1-0.7,0.3-1c0.2-0.4,0.6-0.6,1-0.8c-0.6-0.2-1.1-0.6-1.4-1.2c-0.3-0.6-0.5-1.2-0.5-1.9c-0.1-1,0.3-2,1.1-2.7
		c0.8-0.7,1.9-1,3-1c0.5,0,1,0.1,1.5,0.2h3.6L667.4,435.4L667.4,435.4z M658.9,447.9c0,0.5,0.2,1,0.7,1.3c0.7,0.3,1.4,0.5,2.1,0.4
		c1,0.1,2.1-0.1,3-0.6c0.6-0.4,1-1,1-1.7c0-0.5-0.1-0.9-0.5-1.2c-0.6-0.2-1.3-0.3-2-0.3h-1.9c-0.6,0-1.2,0.2-1.7,0.5
		C659.2,446.7,658.9,447.3,658.9,447.9z M659.7,438.9c0,0.6,0.2,1.2,0.6,1.7c0.5,0.4,1.1,0.7,1.8,0.6c1.1,0.2,2.2-0.6,2.4-1.7
		c0-0.2,0-0.4,0-0.6c0.2-1.2-0.6-2.2-1.8-2.4c-0.2,0-0.4,0-0.6,0c-0.7,0-1.3,0.2-1.8,0.6C659.8,437.6,659.6,438.2,659.7,438.9z"/>
	<path class="st5" d="M669.4,432.5c0-0.3,0.1-0.6,0.3-0.8c0.4-0.4,1-0.4,1.4,0c0.4,0.5,0.4,1.1,0,1.6c-0.4,0.4-1,0.4-1.4,0
		C669.5,433.2,669.4,432.9,669.4,432.5z M671.2,446.2h-1.6v-10.7h1.6V446.2z"/>
	<path class="st5" d="M682,446.2v-6.9c0-0.7-0.2-1.4-0.6-2c-0.5-0.4-1.2-0.7-1.9-0.6c-0.9-0.1-1.8,0.3-2.5,0.9
		c-0.6,0.9-0.9,1.9-0.8,3v5.6h-1.6v-10.7h1.3l0.3,1.5h0.1c0.3-0.5,0.8-0.9,1.4-1.2c0.6-0.3,1.3-0.4,2-0.4c1-0.1,2.1,0.2,2.9,0.9
		c0.8,0.8,1.1,1.9,1,3v7L682,446.2L682,446.2z"/>
	<path class="st5" d="M691.4,446.3c-1.4,0.1-2.7-0.4-3.7-1.4c-1-1.1-1.5-2.5-1.4-4c-0.1-1.5,0.4-2.9,1.3-4.1c0.9-1,2.1-1.5,3.4-1.5
		c1.2-0.1,2.4,0.4,3.2,1.3c0.8,1,1.3,2.2,1.2,3.5v1H688c-0.1,1.1,0.3,2.1,1,2.9c0.6,0.7,1.6,1.1,2.5,1c1.2,0,2.3-0.2,3.4-0.7v1.4
		c-0.5,0.2-1.1,0.4-1.6,0.5C692.7,446.3,692,446.3,691.4,446.3z M691,436.6c-0.8,0-1.5,0.3-2.1,0.8c-0.5,0.7-0.9,1.5-0.9,2.3h5.6
		c0.1-0.8-0.2-1.7-0.7-2.3C692.4,436.9,691.7,436.6,691,436.6L691,436.6z"/>
</g>
<g id="decision-engine">
	<path id="decision-engine-grey-circle" class="st6" d="M684,326.3c-0.3-1-0.5-2-0.8-3c-10.3-33.4-45.7-52.1-79.1-41.8
		c-33.4,10.3-52.1,45.7-41.8,79.1s45.7,52.1,79.1,41.8c20-6.2,35.6-21.8,41.8-41.8c0.3-1,0.6-2,0.8-3c1.3-5.1,2-10.3,2-15.6
		C686,336.7,685.3,331.4,684,326.3z M682.2,357.6c-0.3,1-0.5,2-0.9,3c-6.8,21.4-24.7,37.4-46.7,41.7c-0.7,0.1-1.3,0.2-2,0.4
		c-3.3,0.5-6.6,0.8-9.9,0.8c-34,0-61.5-27.5-61.5-61.5s27.5-61.5,61.5-61.5c3.3,0,6.6,0.3,9.9,0.8c0.7,0.1,1.3,0.2,2,0.4
		c22,4.4,39.8,20.3,46.7,41.6l0.9,3c1.3,5.1,2,10.4,2,15.7C684.2,347.3,683.5,352.5,682.2,357.6L682.2,357.6z"/>
	<g id="decision-engine-bg">
		<path class="st7" d="M634.6,402.4c-0.7,0.1-1.3,0.2-2,0.4c-3.3,0.5-6.6,0.8-9.9,0.8c-34,0-61.5-27.5-61.5-61.5
			s27.5-61.5,61.5-61.5c3.3,0,6.6,0.3,9.9,0.8c0.7,0.1,1.3,0.2,2,0.4c33.3,6.5,55,38.8,48.5,72.1
			C678.3,378.4,659.1,397.6,634.6,402.4L634.6,402.4z"/>
	</g>
	<path id="decision-engine-body" class="st8" d="M639.5,369.7h-33.8c-3.4-0.1-6.4-2.3-7.6-5.5l-3.2-8.4c-3.5-9.4-3.9-19.6-1.1-29.2
		c0.5-1.7,0.9-3.2,1.3-4.5s0.7-2.3,0.7-2.5v-0.1c0.9-3.1,3.6-5.2,6.8-5.2h40.1c3.2-0.1,6,2.1,6.8,5.2c0.1,0.3,0.2,0.8,0.5,1.6
		c0.4,1.3,0.9,3.3,1.6,5.5c2.7,9.5,2.3,19.7-1.2,29l-3.3,8.7C645.9,367.5,642.9,369.6,639.5,369.7z M598.7,320.2
		c-0.1,0.4-0.3,1.1-0.7,2.7c-0.4,1.2-0.8,2.8-1.3,4.5c-2.6,9-2.2,18.6,1.1,27.4l3.2,8.5c0.8,2,2.6,3.4,4.8,3.5h33.8
		c2.2-0.1,4-1.5,4.8-3.5l3.3-8.8c3.3-8.7,3.7-18.2,1.2-27.1c-0.7-2.2-1.2-4.2-1.6-5.6c-0.1-0.5-0.3-1.1-0.5-1.6v-0.1
		c-0.5-1.8-2.1-3-3.9-3h-40.1C600.9,317.1,599.2,318.4,598.7,320.2z"/>
	<path id="decision-table" class="st9" d="M606.3,330.2v23.5H639v-23.5H606.3z M637,332.2v5.3h-28.7v-5.3H637z M616.9,339.5H637v5.2
		h-20.1V339.5z M614.9,344.7h-6.6v-5.2h6.6V344.7z M608.3,346.7h6.6v5h-6.6V346.7z M616.9,351.7v-5H637v5H616.9z"/>
</g>
<g id="workflow-engine-label">
	<path class="st5" d="M358.4,446.2h-1.6l-2.9-9.6c-0.1-0.4-0.3-1-0.5-1.6c-0.2-0.4-0.3-0.8-0.3-1.2c-0.2,1-0.4,1.9-0.7,2.8l-2.8,9.5
		H348l-3.8-14.3h1.8l2.3,8.8c0.3,1.2,0.5,2.4,0.7,3.4c0.2-1.2,0.4-2.4,0.8-3.5l2.6-8.7h1.8l2.7,8.8c0.3,1.1,0.6,2.2,0.8,3.4
		c0.2-1.1,0.4-2.3,0.7-3.4l2.2-8.8h1.8L358.4,446.2z"/>
	<path class="st5" d="M373.5,440.8c0.1,1.5-0.4,2.9-1.3,4.1c-0.9,1-2.2,1.6-3.6,1.5c-0.9,0-1.8-0.2-2.5-0.7
		c-0.7-0.5-1.3-1.1-1.7-1.9c-0.4-0.9-0.6-1.9-0.6-2.9c-0.1-1.5,0.4-2.9,1.3-4.1c2-2,5.2-2,7.2,0c0,0,0,0,0,0
		C373.2,437.9,373.6,439.4,373.5,440.8z M365.3,440.8c-0.1,1.1,0.2,2.2,0.8,3.1c1.1,1.3,3.1,1.5,4.5,0.3c0.1-0.1,0.2-0.2,0.3-0.3
		c0.6-0.9,0.8-2,0.8-3.1c0.1-1.1-0.2-2.2-0.8-3.1c-0.6-0.7-1.5-1.1-2.4-1.1c-0.9-0.1-1.8,0.3-2.4,1
		C365.5,438.6,365.3,439.7,365.3,440.8z"/>
	<path class="st5" d="M381.2,435.3c0.4,0,0.9,0,1.3,0.1l-0.2,1.5c-0.4-0.1-0.8-0.1-1.2-0.1c-0.9,0-1.7,0.4-2.2,1.1
		c-0.6,0.7-0.9,1.7-0.9,2.6v5.7h-1.6v-10.7h1.3l0.2,2h0.1c0.4-0.6,0.8-1.2,1.4-1.6C379.9,435.5,380.5,435.2,381.2,435.3z"/>
	<path class="st5" d="M386.1,440.7c0.3-0.4,0.7-0.9,1.3-1.6l3.5-3.7h1.9l-4.3,4.6l4.6,6.1h-2l-3.8-5.1l-1.2,1.1v4h-1.6V431h1.6v8.1
		C386,439.6,386,440.2,386.1,440.7z"/>
	<path class="st5" d="M399.8,436.7h-2.7v9.4h-1.6v-9.4h-1.9V436l1.9-0.6v-0.6c0-2.6,1.1-3.9,3.4-3.9c0.7,0,1.3,0.1,2,0.3l-0.4,1.3
		c-0.5-0.2-1.1-0.3-1.6-0.3c-0.5,0-1.1,0.2-1.4,0.6c-0.3,0.6-0.5,1.3-0.4,2v0.7h2.7V436.7z M403.4,446.2h-1.6V431h1.6V446.2z"/>
	<path class="st5" d="M416,440.8c0.1,1.5-0.4,2.9-1.3,4.1c-0.9,1-2.2,1.6-3.6,1.5c-0.9,0-1.8-0.2-2.5-0.7c-0.7-0.5-1.3-1.1-1.7-1.9
		c-0.4-0.9-0.6-1.9-0.6-2.9c-0.1-1.5,0.4-2.9,1.3-4.1c2-2,5.2-2,7.2,0c0,0,0,0,0,0C415.7,437.9,416.1,439.4,416,440.8z M407.9,440.8
		c-0.1,1.1,0.2,2.2,0.8,3.1c1.1,1.3,3.1,1.5,4.5,0.3c0.1-0.1,0.2-0.2,0.3-0.3c0.6-0.9,0.8-2,0.8-3.1c0.1-1.1-0.2-2.2-0.8-3.1
		c-0.6-0.7-1.5-1.1-2.4-1.1c-0.9-0.1-1.8,0.3-2.4,1C408.1,438.5,407.8,439.7,407.9,440.8z"/>
	<path class="st5" d="M427.6,446.2l-2-6.3c-0.1-0.4-0.4-1.3-0.7-2.6h-0.1c-0.3,1.1-0.5,2-0.7,2.6l-2,6.3h-1.9l-2.9-10.7h1.7
		c0.7,2.7,1.2,4.7,1.6,6.1c0.3,0.9,0.5,1.8,0.6,2.8h0.1c0.1-0.4,0.2-0.9,0.3-1.4c0.1-0.5,0.2-0.9,0.4-1.4l2-6.1h1.8l1.9,6.1
		c0.3,0.9,0.6,1.8,0.7,2.8h0.1c0-0.4,0.1-0.7,0.2-1.1c0.1-0.5,0.8-3.1,2-7.9h1.7l-3,10.7h-1.8L427.6,446.2L427.6,446.2z"/>
	<path class="st5" d="M447.8,446.2h-8v-14.3h8v1.5h-6.3v4.6h5.9v1.5h-5.9v5.3h6.3V446.2z"/>
	<path class="st5" d="M458.1,446.2v-6.9c0-0.7-0.2-1.4-0.6-2c-0.4-0.5-1-0.6-1.9-0.6c-0.9-0.1-1.8,0.3-2.5,0.9
		c-0.6,0.9-0.9,1.9-0.8,3v5.6h-1.6v-10.7h1.3l0.3,1.5h0.1c0.3-0.5,0.8-0.9,1.4-1.2c0.6-0.3,1.3-0.4,2-0.4c1-0.1,2.1,0.2,2.9,0.9
		c0.8,0.8,1.1,1.9,1,3v7L458.1,446.2L458.1,446.2z"/>
	<path class="st5" d="M471.8,435.4v1l-2,0.2c0.2,0.3,0.4,0.6,0.5,0.9c0.1,0.4,0.2,0.8,0.2,1.2c0,1-0.4,1.9-1.1,2.5
		c-0.8,0.6-1.9,1-2.9,0.9c-0.3,0-0.6,0-0.9-0.1c-0.7,0.4-1,0.8-1,1.4c0,0.3,0.1,0.5,0.4,0.6c0.4,0.1,0.8,0.2,1.2,0.2h1.9
		c1-0.1,1.9,0.2,2.7,0.7c0.6,0.5,1,1.3,0.9,2.1c0,1.1-0.5,2.1-1.4,2.7c-1.3,0.7-2.7,1-4.2,0.9c-1.1,0.1-2.2-0.2-3.2-0.8
		c-0.7-0.5-1.1-1.3-1.1-2.2c0-0.6,0.2-1.2,0.6-1.7c0.5-0.5,1.1-0.9,1.8-1c-0.3-0.1-0.5-0.3-0.7-0.6c-0.2-0.3-0.3-0.6-0.3-0.9
		c0-0.4,0.1-0.7,0.3-1c0.2-0.4,0.6-0.6,1-0.8c-0.6-0.2-1.1-0.6-1.4-1.2c-0.4-0.6-0.5-1.2-0.5-1.9c-0.1-1,0.3-2,1.1-2.7
		c0.8-0.7,1.9-1,3-1c0.5,0,1,0.1,1.5,0.2h3.6V435.4z M463.2,447.9c0,0.5,0.2,1,0.7,1.3c0.7,0.3,1.4,0.5,2.1,0.4c1,0.1,2.1-0.1,3-0.6
		c0.6-0.4,1-1,1-1.7c0-0.5-0.1-0.9-0.5-1.2c-0.6-0.3-1.3-0.4-2-0.3h-1.9c-0.6,0-1.2,0.2-1.7,0.5
		C463.5,446.7,463.2,447.3,463.2,447.9L463.2,447.9z M464.1,438.9c0,0.6,0.2,1.2,0.6,1.7c0.5,0.4,1.1,0.7,1.8,0.6
		c1.1,0.2,2.2-0.6,2.4-1.7c0-0.2,0-0.4,0-0.6c0.2-1.2-0.6-2.2-1.8-2.4c-0.2,0-0.4,0-0.6,0c-0.7,0-1.3,0.2-1.8,0.6
		C464.2,437.6,464,438.2,464.1,438.9L464.1,438.9z"/>
	<path class="st5" d="M473.8,432.5c0-0.3,0.1-0.6,0.3-0.8c0.4-0.4,1-0.4,1.4,0c0.4,0.5,0.4,1.1,0,1.6c-0.4,0.4-1,0.4-1.4,0
		C473.9,433.2,473.8,432.9,473.8,432.5z M475.6,446.2H474v-10.7h1.6L475.6,446.2z"/>
	<path class="st5" d="M486.4,446.2v-6.9c0-0.7-0.2-1.4-0.6-2c-0.4-0.5-1-0.6-1.9-0.6c-0.9-0.1-1.8,0.3-2.5,0.9
		c-0.6,0.9-0.9,1.9-0.8,3v5.6H479v-10.7h1.3l0.3,1.5h0.1c0.3-0.5,0.8-0.9,1.4-1.2c0.6-0.3,1.3-0.4,2-0.4c1-0.1,2.1,0.2,2.9,0.9
		c0.8,0.8,1.1,1.9,1,3v7L486.4,446.2L486.4,446.2z"/>
	<path class="st5" d="M495.8,446.3c-1.4,0.1-2.7-0.4-3.7-1.4c-1-1.1-1.5-2.5-1.4-4c-0.1-1.5,0.4-2.9,1.3-4.1c0.9-1,2.1-1.5,3.4-1.5
		c1.2-0.1,2.4,0.4,3.2,1.3c0.8,1,1.3,2.2,1.2,3.5v1h-7.4c0,1.1,0.3,2.1,1,2.9c0.6,0.7,1.6,1.1,2.5,1c1.2,0,2.3-0.2,3.4-0.7v1.4
		c-0.5,0.2-1.1,0.4-1.6,0.5C497.1,446.3,496.4,446.3,495.8,446.3z M495.4,436.6c-0.8,0-1.5,0.3-2.1,0.8c-0.5,0.7-0.9,1.5-0.9,2.3
		h5.6c0.1-0.8-0.2-1.7-0.7-2.3C496.8,436.9,496.1,436.6,495.4,436.6L495.4,436.6z"/>
</g>
<g id="workflow-engine">
	<path id="workflow-engine-grey-circle" class="st6" d="M483.6,326.3c-0.3-1-0.5-2-0.8-3c-10.3-33.4-45.7-52.1-79.1-41.8
		s-52.1,45.7-41.8,79.1c10.3,33.4,45.7,52.1,79.1,41.8c20-6.2,35.6-21.8,41.8-41.8c0.3-1,0.6-2,0.8-3c1.3-5.1,2-10.3,2-15.6
		C485.6,336.7,484.9,331.4,483.6,326.3z M481.9,357.6c-0.3,1-0.5,2-0.9,3c-6.8,21.4-24.7,37.4-46.7,41.7c-0.7,0.1-1.3,0.2-2,0.4
		c-3.3,0.5-6.6,0.8-9.9,0.8c-34,0-61.5-27.5-61.5-61.5s27.5-61.5,61.5-61.5c3.3,0,6.6,0.3,9.9,0.8c0.7,0.1,1.3,0.2,2,0.4
		c22,4.4,39.8,20.3,46.7,41.6l0.9,3c1.3,5.1,2,10.4,2,15.7C483.9,347.3,483.2,352.5,481.9,357.6L481.9,357.6z"/>
	<g id="workflow-engine-bg">
		<path class="st7" d="M434.3,402.3c-0.7,0.1-1.3,0.2-2,0.4c-3.3,0.5-6.6,0.8-9.9,0.8c-34,0-61.5-27.5-61.5-61.5
			s27.5-61.5,61.5-61.5c3.3,0,6.6,0.3,9.9,0.8c0.7,0.1,1.3,0.2,2,0.4c33.3,6.5,55,38.8,48.5,72.1C478,378.3,458.8,397.5,434.3,402.3
			L434.3,402.3z"/>
	</g>
	<path id="workflow-engine-body" class="st8" d="M439.2,369.7h-33.8c-3.4-0.1-6.4-2.3-7.6-5.5l-3.2-8.4c-3.5-9.4-3.9-19.6-1.1-29.2
		c0.5-1.7,0.9-3.2,1.3-4.5s0.7-2.3,0.7-2.5v-0.1c0.9-3.1,3.6-5.2,6.8-5.2h40.1c3.2-0.1,6,2.1,6.8,5.2c0.1,0.3,0.2,0.8,0.5,1.6
		c0.4,1.3,0.9,3.3,1.6,5.5c2.7,9.5,2.3,19.7-1.2,29l-3.3,8.7C445.6,367.5,442.6,369.6,439.2,369.7z M398.4,320.2
		c-0.1,0.4-0.3,1.1-0.7,2.7c-0.4,1.2-0.8,2.8-1.3,4.5c-2.6,9-2.2,18.6,1.1,27.4l3.2,8.5c0.8,2,2.6,3.4,4.8,3.5h33.8
		c2.2-0.1,4-1.5,4.8-3.5l3.3-8.8c3.3-8.7,3.7-18.2,1.2-27.1c-0.7-2.2-1.2-4.2-1.6-5.6c-0.1-0.5-0.3-1.1-0.5-1.6v-0.1
		c-0.5-1.8-2.1-3-3.9-3h-40.1C400.6,317.1,398.9,318.4,398.4,320.2L398.4,320.2z"/>
	<path id="workflow-engine-diagram" class="st9" d="M434.1,348v-4c0-0.2-0.2-0.4-0.4-0.4h-6.1l-4.9-4.9v-2.8h4.3v-9.4h-9.4v9.4h4.3
		v2.8l-4.9,4.9h-5.9c-0.2,0-0.4,0.2-0.4,0.4v4h-4.3v9.4h9.4V348h-4.3v-3.6h5.5l5.3,5.3l5.3-5.3h5.7v3.6H429v9.4h9.4V348H434.1z
		 M422.3,348.5l-4.5-4.5l4.5-4.5l4.5,4.5L422.3,348.5z"/>
</g>
<g id="optimize">
	<path id="optimize-grey-circle" class="st6" d="M1023.1,97.3c-0.3-1-0.5-2-0.8-3c-10.3-33.4-45.7-52.1-79.1-41.8
		c-33.4,10.3-52.1,45.7-41.8,79.1s45.7,52.1,79.1,41.8c20-6.2,35.6-21.8,41.8-41.8c0.3-1,0.6-2,0.8-3c1.3-5.1,2-10.3,2-15.6
		C1025.1,107.7,1024.4,102.4,1023.1,97.3z M1021.4,128.6c-0.3,1-0.5,2-0.9,3c-6.8,21.4-24.7,37.4-46.7,41.7c-0.7,0.1-1.3,0.2-2,0.4
		c-3.3,0.5-6.6,0.8-9.9,0.8c-34,0-61.5-27.5-61.5-61.5s27.5-61.5,61.5-61.5c3.3,0,6.6,0.3,9.9,0.8c0.7,0.1,1.3,0.2,2,0.4
		c22,4.4,39.8,20.3,46.7,41.6l0.9,3c1.3,5.1,2,10.4,2,15.7C1023.4,118.3,1022.7,123.5,1021.4,128.6L1021.4,128.6z"/>
	<g id="optimize-bg">
		<path class="st7" d="M973.8,173.3c-0.7,0.1-1.3,0.2-2,0.4c-3.3,0.5-6.6,0.8-9.9,0.8c-34,0-61.5-27.5-61.5-61.5
			s27.5-61.5,61.5-61.5c3.3,0,6.6,0.3,9.9,0.8c0.7,0.1,1.3,0.2,2,0.4c33.3,6.5,55,38.8,48.5,72.1
			C1017.5,149.3,998.3,168.5,973.8,173.3z"/>
	</g>
	<polygon id="arrow" class="st8" points="974.8,94.2 963.5,102.7 961.9,103.9 962,105.5 964.1,131 950.4,129.5 950,129.5
		949.7,129.6 929.2,140.8 950.3,131.9 965.9,135.1 968.1,135.6 968.1,133.1 968.7,107.3 979.3,100.7 	"/>
	<polygon id="arrow-head" class="st9" points="984.1,107.7 994.8,85.2 970,87.2 	"/>
</g>
<g id="optimize-label">
	<path class="st5" d="M934.3,16.7c0.1,1.9-0.5,3.9-1.7,5.4c-2.7,2.6-7,2.7-9.7,0.1c-1.2-1.5-1.8-3.4-1.7-5.4
		c-0.1-1.9,0.5-3.9,1.7-5.4c1.3-1.3,3.1-2,4.9-1.9c1.8-0.1,3.6,0.6,4.8,2C933.8,13,934.4,14.8,934.3,16.7z M922.9,16.7
		c-0.1,1.6,0.3,3.1,1.2,4.4c2,2,5.2,2,7.2,0c0,0,0,0,0,0c0.9-1.3,1.3-2.8,1.2-4.4c0.1-1.6-0.3-3.1-1.2-4.4c-2-2-5.2-2-7.2,0
		c0,0,0,0,0,0C923.2,13.6,922.8,15.1,922.9,16.7L922.9,16.7z"/>
	<path class="st5" d="M942.2,24.1c-0.7,0-1.3-0.1-1.9-0.4c-0.6-0.3-1.1-0.7-1.4-1.2h-0.1c0.1,0.6,0.1,1.2,0.1,1.8v4.4h-1.6V13.2h1.3
		l0.2,1.5h0.1c0.4-0.6,0.9-1,1.5-1.3c0.6-0.3,1.2-0.4,1.9-0.4c1.3-0.1,2.5,0.5,3.3,1.5c0.9,1.2,1.3,2.6,1.2,4.1
		c0.1,1.5-0.3,2.9-1.2,4.1C944.7,23.6,943.5,24.1,942.2,24.1z M942,14.4c-0.9-0.1-1.8,0.3-2.4,0.9c-0.5,0.9-0.8,1.9-0.8,2.9v0.4
		c0,1.5,0.2,2.6,0.8,3.2c0.6,0.7,1.5,1,2.4,1c0.9,0,1.7-0.4,2.2-1.1c0.6-0.9,0.8-2,0.8-3.1c0-1.1-0.2-2.2-0.8-3.1
		C943.7,14.7,942.9,14.3,942,14.4z"/>
	<path class="st5" d="M953,22.8c0.3,0,0.5,0,0.8-0.1c0.2,0,0.4,0,0.6-0.1v1.2c-0.2,0.1-0.5,0.2-0.8,0.2c-0.4,0-0.6,0.1-0.9,0.1
		c-2.1,0-3.1-1.1-3.1-3.3v-6.4h-1.5v-0.8l1.5-0.7l0.7-2.3h0.9v2.5h3.1v1.3h-3.1v6.3c0,0.5,0.2,1.1,0.5,1.5
		C952,22.6,952.5,22.8,953,22.8z"/>
	<path class="st5" d="M956.4,10.3c0-0.3,0.1-0.6,0.3-0.8c0.4-0.4,1-0.4,1.4,0c0.2,0.2,0.3,0.5,0.3,0.8c0,0.3-0.1,0.6-0.3,0.8
		c-0.4,0.4-1,0.4-1.4,0C956.5,10.9,956.4,10.6,956.4,10.3z M958.2,23.9h-1.6V13.2h1.6V23.9z"/>
	<path class="st5" d="M975.3,23.9v-7c0-0.7-0.1-1.3-0.5-1.9c-0.5-0.4-1.1-0.7-1.7-0.6c-0.8-0.1-1.7,0.3-2.2,0.9
		c-0.5,0.8-0.8,1.7-0.7,2.7v6h-1.6v-7c0-0.7-0.1-1.3-0.5-1.9c-0.5-0.4-1.1-0.7-1.7-0.6c-0.8-0.1-1.7,0.3-2.2,0.9
		c-0.6,0.9-0.8,1.9-0.7,3V24h-1.6V13.2h1.3l0.3,1.5h0.1c0.3-0.5,0.8-0.9,1.3-1.2c0.6-0.3,1.2-0.4,1.9-0.4c1.7,0,2.8,0.6,3.3,1.8h0.1
		c0.3-0.6,0.8-1,1.4-1.3c0.7-0.3,1.4-0.5,2.1-0.5c1-0.1,2,0.2,2.7,0.9c0.7,0.8,1,1.9,0.9,3v7h-2L975.3,23.9L975.3,23.9z"/>
	<path class="st5" d="M980.1,10.3c0-0.3,0.1-0.6,0.3-0.8c0.4-0.4,1-0.4,1.4,0c0.2,0.2,0.3,0.5,0.3,0.8c0,0.3-0.1,0.6-0.3,0.8
		c-0.4,0.4-1,0.4-1.4,0C980.2,10.9,980.1,10.6,980.1,10.3z M981.9,23.9h-1.6V13.2h1.6V23.9z"/>
	<path class="st5" d="M992.1,23.9h-7.8v-1.1l5.8-8.3h-5.5v-1.3h7.3v1.3l-5.8,8.2h5.9C992,22.7,992.1,23.9,992.1,23.9z"/>
	<path class="st5" d="M999.2,24.1c-1.4,0.1-2.7-0.4-3.7-1.4c-1-1.1-1.5-2.5-1.4-4c-0.1-1.5,0.4-2.9,1.3-4.1c0.9-1,2.1-1.5,3.4-1.5
		c1.2-0.1,2.4,0.4,3.2,1.3c0.8,1,1.3,2.2,1.2,3.5v1h-7.4c-0.1,1.1,0.3,2.1,1,2.9c0.6,0.7,1.6,1.1,2.5,1c1.2,0,2.3-0.2,3.4-0.7v1.4
		c-0.5,0.2-1.1,0.4-1.6,0.5C1000.5,24,999.9,24.1,999.2,24.1z M998.7,14.4c-0.8,0-1.5,0.3-2.1,0.8c-0.5,0.7-0.9,1.5-0.9,2.3h5.6
		c0.1-0.8-0.2-1.7-0.7-2.3C1000.2,14.6,999.4,14.3,998.7,14.4z"/>
</g>
<g id="cockpit">
	<path id="cockpit-grey-circle" class="st6" d="M583.2,97.3c-0.3-1-0.5-2-0.8-3c-10.3-33.4-45.7-52.1-79.1-41.8
		s-52.1,45.7-41.8,79.1s45.7,52.1,79.1,41.8c20-6.2,35.6-21.8,41.8-41.8c0.3-1,0.6-2,0.8-3c1.3-5.1,2-10.3,2-15.6
		C585.2,107.7,584.5,102.4,583.2,97.3z M581.5,128.6c-0.3,1-0.5,2-0.9,3c-6.8,21.4-24.7,37.4-46.7,41.7c-0.7,0.1-1.3,0.2-2,0.4
		c-3.3,0.5-6.6,0.8-9.9,0.8c-34,0-61.5-27.5-61.5-61.5S488,51.5,522,51.5c3.3,0,6.6,0.3,9.9,0.8c0.7,0.1,1.3,0.2,2,0.4
		c22,4.4,39.8,20.3,46.7,41.6l0.9,3c1.3,5.1,2,10.4,2,15.7C583.5,118.3,582.8,123.5,581.5,128.6z"/>
	<g id="cockpit-bg">
		<path class="st7" d="M533.9,173.3c-0.7,0.1-1.3,0.2-2,0.4c-3.3,0.5-6.6,0.8-9.9,0.8c-34,0-61.5-27.5-61.5-61.5S488,51.5,522,51.5
			c3.3,0,6.6,0.3,9.9,0.8c0.7,0.1,1.3,0.2,2,0.4c33.3,6.5,55,38.8,48.5,72.1C577.6,149.3,558.4,168.5,533.9,173.3z"/>
	</g>
	<path id="heart" class="st8" d="M537.2,89.1c8.8,0,16,7.2,16,16c0,4.2-1.7,8.3-4.7,11.3L522,142.9l-26.5-26.5
		c-6.5-5.9-7-16.1-1.1-22.6c5.9-6.5,16.1-7,22.6-1.1c0.4,0.4,0.8,0.7,1.1,1.1l1.8,1.8l2.1,2.1l2.1-2.1l1.8-1.8
		C528.9,90.7,532.9,89,537.2,89.1 M537.2,86.1c-5,0-9.9,2-13.4,5.6l-1.8,1.8l-1.8-1.8c-7.7-7.1-19.7-6.6-26.8,1.1
		c-6.7,7.3-6.7,18.5,0,25.8l26.5,26.5c0.4,0.4,0.9,0.7,1.5,0.8c0.2,0,0.4,0.1,0.6,0.1c0.8,0,1.6-0.3,2.1-0.9l26.5-26.5
		c7.4-7.4,7.4-19.5,0-26.9C547.1,88.1,542.2,86.1,537.2,86.1L537.2,86.1z"/>
	<path id="graph" class="st5" d="M543.2,115.2l-8.1-0.3c-2.7-0.1-5.4-0.2-8.1-0.2h-0.7l-0.4,0.6l-3.3,4.9l-1.4,2.2
		c-0.7-2.5-1.3-5-2-7.5c-1-3.5-1.9-7.1-3-10.6l-1-3.3l-1.6,3l-3,5.8l-2.7,5.2c-1.7,0-3.4,0.1-5.1,0.2c-1.9,0.1-3.8,0.1-5.8,0.2
		c-3.8,0.2-7.7,0.4-11.5,0.7c3.8,0.3,7.7,0.5,11.5,0.7c1.9,0.1,3.8,0.2,5.8,0.2s3.8,0.1,5.8,0.2h0.6l0.3-0.6l3.3-5.6l1.5-2.7
		c0.6,2.5,1.3,4.9,2,7.4c0.9,3.6,1.9,7.1,2.9,10.6l0.9,3.2l1.8-2.8l3.2-4.9l2.7-4.4c2.5,0,4.9-0.1,7.4-0.2l8.1-0.3
		c5.4-0.2,10.8-0.5,16.2-0.9C554,115.7,548.6,115.4,543.2,115.2z"/>
</g>
<g id="cockpit-label">
	<path class="st5" d="M495.6,10.9c-1.4-0.1-2.8,0.5-3.7,1.6c-1,1.2-1.5,2.7-1.4,4.3c-0.1,1.5,0.3,3.1,1.3,4.3c0.9,1,2.3,1.6,3.7,1.5
		c1.1,0,2.3-0.2,3.4-0.5v1.5c-1.2,0.4-2.4,0.6-3.7,0.6c-1.8,0.1-3.6-0.6-4.9-1.9c-1.2-1.5-1.8-3.4-1.7-5.4c0-1.3,0.3-2.7,0.8-3.9
		c0.5-1.1,1.3-2,2.4-2.6c1.1-0.6,2.4-0.9,3.7-0.9c1.3,0,2.7,0.3,3.9,0.8l-0.7,1.4C497.7,11.2,496.7,10.9,495.6,10.9z"/>
	<path class="st5" d="M511.1,18.5c0.1,1.5-0.4,2.9-1.3,4.1c-0.9,1-2.2,1.6-3.6,1.5c-0.9,0-1.8-0.2-2.5-0.7c-0.7-0.5-1.3-1.1-1.7-1.9
		c-0.4-0.9-0.6-1.9-0.6-2.9c-0.1-1.5,0.4-2.9,1.3-4.1c2-2,5.2-2,7.2,0c0,0,0,0,0,0C510.8,15.6,511.2,17.1,511.1,18.5z M502.9,18.5
		c-0.1,1.1,0.2,2.2,0.8,3.1c1.1,1.3,3.1,1.5,4.5,0.3c0.1-0.1,0.2-0.2,0.3-0.3c0.6-0.9,0.8-2,0.8-3.1c0.1-1.1-0.2-2.2-0.8-3.1
		c-0.6-0.7-1.5-1.1-2.4-1.1c-0.9-0.1-1.8,0.3-2.4,1C503.1,16.3,502.9,17.4,502.9,18.5z"/>
	<path class="st5" d="M518.2,24.1c-1.3,0-2.6-0.5-3.6-1.4c-0.9-1.1-1.4-2.5-1.3-4c-0.1-1.5,0.4-3,1.3-4.2c0.9-1,2.3-1.6,3.7-1.5
		c0.5,0,1,0.1,1.5,0.2c0.4,0.1,0.8,0.2,1.2,0.4l-0.5,1.4c-0.4-0.1-0.7-0.3-1.2-0.4c-0.4-0.1-0.7-0.1-1.1-0.1c-2.2,0-3.3,1.4-3.3,4.2
		c-0.1,1.1,0.2,2.1,0.8,3c0.6,0.7,1.5,1.2,2.4,1.1c0.9,0,1.9-0.2,2.7-0.6v1.4C520,24,519.1,24.1,518.2,24.1z"/>
	<path class="st5" d="M525,18.4c0.3-0.4,0.7-0.9,1.3-1.6l3.5-3.7h1.9l-4.3,4.6l4.6,6.1h-2l-3.8-5.1l-1.2,1.1v4h-1.6V8.7h1.6V18.4z"
		/>
	<path class="st5" d="M538.9,24.1c-0.7,0-1.3-0.1-1.9-0.4c-0.6-0.3-1.1-0.7-1.5-1.2h-0.1c0.1,0.6,0.1,1.2,0.1,1.8v4.4h-1.6V13.2h1.3
		l0.2,1.5h0.1c0.4-0.6,0.9-1,1.5-1.3c0.6-0.3,1.2-0.4,1.9-0.4c1.3-0.1,2.5,0.5,3.3,1.5c0.9,1.2,1.3,2.6,1.2,4.1
		c0.1,1.5-0.3,2.9-1.2,4.1C541.4,23.6,540.2,24.1,538.9,24.1z M538.7,14.4c-0.9-0.1-1.8,0.3-2.4,0.9c-0.5,0.9-0.8,1.9-0.8,2.9v0.4
		c-0.1,1.1,0.2,2.2,0.8,3.2c0.6,0.7,1.5,1,2.4,1c0.9,0,1.7-0.4,2.2-1.1c0.6-0.9,0.8-2,0.8-3.1c0-1.1-0.2-2.2-0.8-3.1
		C540.4,14.8,539.6,14.3,538.7,14.4z"/>
	<path class="st5" d="M546.1,10.3c0-0.3,0.1-0.6,0.3-0.8c0.4-0.4,1-0.4,1.4,0c0.2,0.2,0.3,0.5,0.3,0.8c0,0.3-0.1,0.6-0.3,0.8
		c-0.4,0.4-1,0.4-1.4,0C546.2,10.9,546.1,10.6,546.1,10.3z M547.8,23.9h-1.6V13.2h1.6V23.9z"/>
	<path class="st5" d="M554.7,22.8c0.3,0,0.5,0,0.8-0.1c0.2,0,0.4,0,0.6-0.1v1.2c-0.2,0.1-0.5,0.2-0.8,0.2c-0.4,0-0.6,0.1-0.9,0.1
		c-2.1,0-3.1-1.1-3.1-3.3v-6.4h-1.5v-0.8l1.5-0.7l0.7-2.3h0.9v2.5h3.1v1.3h-3v6.3c0,0.5,0.2,1.1,0.5,1.5
		C553.8,22.6,554.2,22.8,554.7,22.8z"/>
</g>
<g id="tasklist">
	<path id="tasklist-grey-circle" class="st6" d="M803.2,97.3c-0.3-1-0.5-2-0.8-3c-10.3-33.4-45.7-52.1-79.1-41.8
		c-33.4,10.3-52.1,45.7-41.8,79.1s45.7,52.1,79.1,41.8c20-6.2,35.6-21.8,41.8-41.8c0.3-1,0.6-2,0.8-3c1.3-5.1,2-10.3,2-15.6
		C805.2,107.7,804.5,102.4,803.2,97.3z M801.5,128.6c-0.3,1-0.5,2-0.9,3c-6.8,21.4-24.7,37.4-46.7,41.7c-0.7,0.1-1.3,0.2-2,0.4
		c-3.3,0.5-6.6,0.8-9.9,0.8c-34,0-61.5-27.5-61.5-61.5S708,51.5,742,51.5c3.3,0,6.6,0.3,9.9,0.8c0.7,0.1,1.3,0.2,2,0.4
		c22,4.4,39.8,20.3,46.7,41.6l0.9,3c1.3,5.1,2,10.4,2,15.7C803.5,118.3,802.8,123.5,801.5,128.6z"/>
	<g id="tasklist-bg">
		<path class="st7" d="M753.9,173.3c-0.7,0.1-1.3,0.2-2,0.4c-3.3,0.5-6.6,0.8-9.9,0.8c-34,0-61.5-27.5-61.5-61.5S708,51.5,742,51.5
			c3.3,0,6.6,0.3,9.9,0.8c0.7,0.1,1.3,0.2,2,0.4c33.3,6.5,55,38.8,48.5,72.1C797.6,149.3,778.4,168.5,753.9,173.3z"/>
	</g>
	<path id="checkbox" class="st8" d="M738.4,126.6c0,1.1-0.9,2-2,2l0,0h-27.3c-1.1,0-2-0.9-2-2V99.3c0-1.1,0.9-2,2-2h27.3
		c1.1,0,2,0.9,2,2v3.7l3-2.9v-0.8c0-2.8-2.2-5-5-5h-27.3c-2.8,0-5,2.2-5,5v27.3c0,2.8,2.2,5,5,5h27.3c2.8,0,5-2.2,5-5v-22.3l-3,2.9
		L738.4,126.6z"/>
	<path id="checkmark" class="st9" d="M746.9,97c-0.6-0.6-1.5-0.6-2,0c0,0,0,0,0,0l-3.4,3.2l-3,2.9l-15.7,15.1l-7.5-5.3
		c-0.7-0.5-1.6-0.3-2.1,0.4c-0.5,0.7-0.3,1.6,0.4,2.1l9.5,6.7l15.5-14.8l3-2.9l5.4-5.2C747.5,98.6,747.5,97.6,746.9,97z"/>
	<path id="task-line" class="st8" d="M757.3,126.6V99.3c0-1.1,0.9-2,2-2h42.2l-0.9-3h-41.3c-2.8,0-5,2.2-5,5v27.3c0,2.8,2.2,5,5,5
		h41.3l0.9-3h-42.2C758.2,128.6,757.3,127.7,757.3,126.6L757.3,126.6z"/>
</g>
<g id="tasklist-label">
	<path class="st5" d="M713.9,23.9h-1.7V11.1h-4.5V9.6h10.7v1.5h-4.5V23.9z"/>
	<path class="st5" d="M726.9,23.9l-0.3-1.5h-0.1c-0.4,0.6-1,1.1-1.6,1.4c-0.6,0.3-1.3,0.4-2,0.4c-0.9,0-1.8-0.2-2.5-0.8
		c-0.6-0.6-1-1.4-0.9-2.3c0-2.2,1.7-3.3,5.2-3.4l1.8-0.1v-0.7c0-0.7-0.1-1.3-0.5-1.9c-0.4-0.5-1.1-0.7-1.7-0.6c-1,0.1-2.1,0.3-3,0.8
		l-0.5-1.2c0.5-0.3,1.1-0.5,1.7-0.7c0.6-0.2,1.3-0.2,1.9-0.2c1-0.1,2,0.2,2.8,0.8c0.7,0.7,1,1.7,0.9,2.7v7.3L726.9,23.9z
		 M723.3,22.8c0.9,0,1.7-0.3,2.4-0.8c0.6-0.6,1-1.4,0.9-2.3v-1l-1.6,0.1c-1-0.1-1.9,0.1-2.8,0.6c-0.6,0.4-0.9,1-0.9,1.7
		c0,0.5,0.2,1,0.5,1.3C722.2,22.7,722.8,22.9,723.3,22.8L723.3,22.8z"/>
	<path class="st5" d="M738.4,21c0,0.9-0.4,1.8-1.1,2.3c-0.9,0.6-2,0.8-3.1,0.8c-1.1,0.1-2.3-0.2-3.3-0.7v-1.5
		c0.5,0.3,1.1,0.5,1.7,0.6c0.6,0.1,1.1,0.2,1.7,0.2c0.7,0,1.4-0.1,2-0.4c0.4-0.2,0.7-0.7,0.7-1.2c0-0.4-0.2-0.8-0.5-1.1
		c-0.6-0.4-1.4-0.8-2.1-1c-0.7-0.3-1.4-0.6-2.1-1c-0.3-0.2-0.7-0.6-0.9-0.9c-0.2-0.4-0.3-0.8-0.3-1.3c0-0.8,0.4-1.6,1.1-2.1
		c0.9-0.6,1.9-0.8,2.9-0.8c1.2,0,2.3,0.2,3.4,0.7l-0.6,1.3c-0.9-0.4-1.9-0.6-2.9-0.7c-0.6-0.1-1.2,0.1-1.7,0.4
		c-0.4,0.2-0.6,0.6-0.6,1c0,0.2,0.1,0.5,0.2,0.7c0.2,0.2,0.4,0.5,0.7,0.6c0.3,0.2,1,0.4,1.9,0.8c1,0.3,1.8,0.8,2.6,1.4
		C738.6,19.6,738.4,20.3,738.4,21z"/>
	<path class="st5" d="M742.6,18.4c0.3-0.4,0.7-0.9,1.3-1.6l3.5-3.7h1.9l-4.3,4.6l4.6,6.1h-2l-3.8-5.1l-1.2,1.1v4H741V8.7h1.6V18.4z"
		/>
	<path class="st5" d="M753.1,23.9h-1.6V8.7h1.6V23.9z"/>
	<path class="st5" d="M756.4,10.3c0-0.3,0.1-0.6,0.3-0.8c0.4-0.4,1-0.4,1.4,0c0.2,0.2,0.3,0.5,0.3,0.8c0,0.3-0.1,0.6-0.3,0.8
		c-0.4,0.4-1,0.4-1.4,0C756.5,10.9,756.4,10.6,756.4,10.3z M758.2,23.9h-1.6V13.2h1.6V23.9z"/>
	<path class="st5" d="M768.5,21c0,0.9-0.4,1.8-1.1,2.3c-0.9,0.6-2,0.8-3.1,0.8c-1.1,0.1-2.3-0.2-3.3-0.7v-1.5
		c0.5,0.3,1.1,0.5,1.7,0.6c0.6,0.1,1.1,0.2,1.7,0.2c0.7,0,1.4-0.1,2-0.4c0.4-0.2,0.7-0.7,0.7-1.2c0-0.4-0.2-0.8-0.5-1.1
		c-0.6-0.4-1.4-0.8-2.1-1c-0.7-0.3-1.4-0.6-2.1-1c-0.3-0.2-0.7-0.6-0.9-0.9c-0.2-0.4-0.3-0.8-0.3-1.3c0-0.8,0.4-1.6,1.1-2.1
		c0.9-0.6,1.9-0.8,2.9-0.8c1.2,0,2.3,0.2,3.4,0.7l-0.6,1.3c-0.9-0.4-1.9-0.6-2.9-0.7c-0.6-0.1-1.2,0.1-1.7,0.4
		c-0.4,0.2-0.6,0.6-0.6,1c0,0.2,0.1,0.5,0.2,0.7c0.2,0.2,0.4,0.5,0.7,0.6c0.3,0.2,1,0.4,1.9,0.8c1,0.3,1.8,0.8,2.6,1.4
		C768.7,19.6,768.5,20.3,768.5,21z"/>
	<path class="st5" d="M774.6,22.8c0.3,0,0.5,0,0.8-0.1c0.2-0.1,0.4-0.1,0.6-0.1v1.2c-0.2,0.1-0.5,0.2-0.8,0.2
		c-0.4,0-0.6,0.1-0.9,0.1c-2.1,0-3.1-1.1-3.1-3.3v-6.4h-1.5v-0.8l1.5-0.7l0.7-2.3h0.9v2.5h3.1v1.3h-3.1v6.3c0,0.5,0.2,1.1,0.5,1.5
		C773.6,22.6,774.1,22.8,774.6,22.8z"/>
</g>
<g id="modeler">
	<g id="modeler-grey-circle">
		<path class="st6" d="M302.2,49.8c-34.9,0-63.2,28.3-63.2,63.2c0,34.9,28.3,63.2,63.2,63.2c34.9,0,63.2-28.3,63.2-63.2c0,0,0,0,0,0
			C365.3,78.1,337.1,49.9,302.2,49.8z M314.1,173.3c-0.7,0.1-1.3,0.2-2,0.4c-3.3,0.5-6.6,0.8-9.9,0.8c-34,0-61.5-27.5-61.5-61.5
			s27.5-61.5,61.5-61.5c3.3,0,6.6,0.3,9.9,0.8c0.7,0.1,1.3,0.2,2,0.4c33.3,6.5,55,38.8,48.5,72.1
			C357.8,149.3,338.6,168.5,314.1,173.3z"/>
	</g>
	<g id="modeler-bg">
		<path class="st7" d="M314.1,173.3c-0.7,0.1-1.3,0.2-2,0.4c-3.3,0.5-6.6,0.8-9.9,0.8c-34,0-61.5-27.5-61.5-61.5
			s27.5-61.5,61.5-61.5c3.3,0,6.6,0.3,9.9,0.8c0.7,0.1,1.3,0.2,2,0.4c33.3,6.5,55,38.8,48.5,72.1
			C357.8,149.3,338.6,168.5,314.1,173.3z"/>
	</g>
	<path id="modeler-y-line" class="st9" d="M314.1,166.7h-2v-5.1h2V166.7z M314.1,156.4h-2v-5.1h2V156.4z M314.1,84.9h-2v-5.1h2V84.9
		z M314.1,74.7h-2v-5.1h2V74.7z M314.1,64.5h-2v-5.1h2V64.5z M314.1,54.3v-1.6c-0.7-0.1-1.3-0.2-2-0.4v2H314.1z M312.1,171.7v2
		c0.7-0.1,1.3-0.2,2-0.4v-1.6H312.1z"/>
	<path id="modeler-x-line" class="st9" d="M275.9,95.8H271v-2h4.9V95.8z M266.2,95.8h-4.9v-2h4.9V95.8z M256.5,95.8h-4.9v-2h4.9
		V95.8z M246.7,95.8h-2.5v-2h2.5V95.8z M357.5,95.8h-4.9v-2h4.9V95.8z M347.8,95.8h-4.9v-2h4.9V95.8z M338.1,95.8h-4.9v-2h4.9V95.8z
		 M328.4,95.8h-4.9v-2h4.9V95.8z"/>
	<path id="modeler-hand" d="M319.5,126.5c-0.3-1.1-0.8-2.1-1.6-2.9c-0.5-0.5-1.1-0.8-1.8-1h-1.6c-0.1-0.8-0.5-1.5-1-2.1
		c-0.8-0.7-1.8-1.1-2.8-1c-0.6,0-1.1,0.1-1.6,0.3c-0.3-0.5-0.5-0.8-0.8-1.3c-1.7-1.5-4.2-1.3-5.6,0.3c-0.3,0.4-0.6,0.8-0.8,1.3
		c-0.4-0.1-0.9-0.2-1.3-0.3c-1,0-2,0.4-2.8,1c-0.8,1.1-1.3,2.5-1.3,3.9v1c-1.3-0.1-2.6,0.4-3.6,1.3c-1.1,1.4-1.7,3.1-1.6,4.8v4.2
		c0,3.6,1.8,5.4,3.6,7.2l0.8,1c3.4,3.1,6.5,4.1,13.2,4.1c7.5,0,10.9-4.1,10.9-13.2v-6.5C319.8,127.9,319.7,127.2,319.5,126.5z
		 M317,129.3v6.2c0,8.8-3.4,10.6-8.3,10.6c-6.2,0-8.5-0.8-11.1-3.4l-1-1c-1.8-1.8-2.8-2.8-2.8-5.4v-3.6c0-1.7,0.2-2.9,0.8-3.4
		c0.4-0.6,1.1-0.9,1.8-0.8v2.1l-0.7,2.5l-0.1,0.6c0,0.3,0,0.3,0.3,0.3c0.3,0.3,0.5,0,0.5,0l0.6-0.7l2-2.4v-5.5
		c-0.1-0.7,0.1-1.5,0.5-2.1c0.2-0.3,0.6-0.5,1-0.5c0.5-0.1,0.9,0.3,1,0.8c0,0.1,0,0.2,0,0.2v1c0,0.7,0.6,1.3,1.3,1.3
		c0.7,0,1.3-0.6,1.3-1.3v-3.4c-0.1-0.6,0.4-1.2,1-1.3c0.1,0,0.2,0,0.3,0c0.7-0.1,1.2,0.4,1.3,1.1c0,0.1,0,0.1,0,0.2v3.1
		c-0.1,0.8,0.5,1.5,1.3,1.6c0.7,0,1.3-0.6,1.3-1.3v-1.3c0-0.7,0.6-1.3,1.3-1.3c1,0,1.3,1,1.3,1.6v2.1c0,0.8,0.5,1.3,1,1.3
		c0.8,0,1.3-0.3,1.3-1c0-0.4,0.3-0.8,0.7-0.8c0.1,0,0.2,0,0.3,0c0.3,0.1,0.6,0.3,0.8,0.6c0.6,0.8,1,1.8,1,2.8L317,129.3L317,129.3z"
		/>
	<path id="modeler-blue-circle" class="st8" d="M291.3,131.9c-11.7-4.4-17.5-17.5-13.1-29.1c4.4-11.7,17.5-17.5,29.1-13.1
		c8.8,3.3,14.6,11.8,14.6,21.1c0,4.6-1.4,9.1-4,12.9c0.8,0.8,1.3,1.8,1.6,2.9c3.5-4.5,5.4-10,5.4-15.7c0-14.1-11.4-25.6-25.6-25.6
		c-14.1,0-25.6,11.4-25.6,25.6c0,11.1,7.1,20.9,17.6,24.3V131.9z"/>
</g>
<g id="modeler-label">
	<path class="st5" d="M271.5,23.9l-4.8-12.7h-0.1c0.1,1,0.1,2.2,0.1,3.6v9.1h-1.5V9.6h2.5l4.5,11.8h0.1l4.6-11.8h2.5v14.3h-1.7v-9.2
		c0-1.1,0-2.2,0.1-3.4h-0.1l-4.9,12.6H271.5z"/>
	<path class="st5" d="M292.2,18.5c0.1,1.5-0.4,2.9-1.3,4.1c-0.9,1-2.2,1.6-3.6,1.5c-0.9,0-1.8-0.2-2.5-0.7c-0.7-0.5-1.3-1.1-1.7-1.9
		c-0.4-0.9-0.6-1.9-0.6-2.9c-0.1-1.5,0.4-2.9,1.3-4.1c2-2,5.2-2,7.2,0c0,0,0,0,0,0C291.9,15.6,292.3,17.1,292.2,18.5z M284.1,18.5
		c-0.1,1.1,0.2,2.2,0.8,3.1c1.1,1.3,3.1,1.5,4.5,0.3c0.1-0.1,0.2-0.2,0.3-0.3c0.6-0.9,0.8-2,0.8-3.1c0.1-1.1-0.2-2.2-0.8-3.1
		c-0.6-0.7-1.5-1.1-2.4-1.1c-0.9-0.1-1.8,0.3-2.4,1C284.3,16.3,284.1,17.4,284.1,18.5z"/>
	<path class="st5" d="M302.4,22.5L302.4,22.5c-0.8,1.1-2.1,1.7-3.4,1.6c-1.3,0-2.5-0.5-3.3-1.4c-0.9-1.2-1.3-2.6-1.2-4.1
		c-0.1-1.5,0.3-2.9,1.2-4.1c0.8-1,2-1.6,3.3-1.5c1.3-0.1,2.6,0.5,3.3,1.6h0.1l-0.1-0.8V8.7h1.6v15.2h-1.3L302.4,22.5z M299.1,22.7
		c0.9,0.1,1.8-0.3,2.4-0.9c0.5-0.9,0.8-1.9,0.7-2.9v-0.3c0.1-1.1-0.2-2.2-0.8-3.2c-0.6-0.7-1.5-1-2.4-1c-0.9,0-1.7,0.4-2.2,1.1
		c-0.5,0.9-0.7,2-0.6,3.1c-0.1,1.1,0.2,2.2,0.8,3.1C297.5,22.4,298.3,22.8,299.1,22.7z"/>
	<path class="st5" d="M311.9,24.1c-1.4,0.1-2.7-0.4-3.7-1.4c-1-1.1-1.5-2.5-1.4-4c-0.1-1.5,0.4-2.9,1.3-4.1c0.9-1,2.1-1.5,3.4-1.5
		c1.2-0.1,2.4,0.4,3.2,1.3c0.8,1,1.3,2.2,1.2,3.5v1h-7.4c0,1.1,0.3,2.1,1,2.9c0.6,0.7,1.6,1.1,2.5,1c1.2,0,2.3-0.2,3.4-0.7v1.4
		c-0.5,0.2-1.1,0.4-1.6,0.5C313.2,24.1,312.5,24.1,311.9,24.1z M311.4,14.4c-0.8,0-1.5,0.3-2.1,0.8c-0.6,0.6-0.9,1.4-0.9,2.3h5.6
		c0.1-0.8-0.2-1.7-0.7-2.3C312.8,14.7,312.1,14.4,311.4,14.4z"/>
	<path class="st5" d="M320.2,23.9h-1.6V8.7h1.6V23.9z"/>
	<path class="st5" d="M328.1,24.1c-1.4,0.1-2.7-0.4-3.7-1.4c-1-1.1-1.5-2.5-1.4-4c-0.1-1.5,0.4-2.9,1.3-4.1c0.9-1,2.1-1.5,3.4-1.5
		c1.2-0.1,2.4,0.4,3.2,1.3c0.8,1,1.3,2.2,1.2,3.5v1h-7.4c0,1.1,0.3,2.1,1,2.9c0.6,0.7,1.6,1.1,2.5,1c1.2,0,2.3-0.2,3.4-0.7v1.4
		c-0.5,0.2-1.1,0.4-1.6,0.5C329.4,24.1,328.7,24.1,328.1,24.1z M327.7,14.4c-0.8,0-1.5,0.3-2.1,0.8c-0.6,0.6-0.9,1.4-0.9,2.3h5.6
		c0.1-0.8-0.2-1.7-0.7-2.3C329.1,14.7,328.4,14.4,327.7,14.4z"/>
	<path class="st5" d="M339.7,13c0.4,0,0.9,0,1.3,0.1l-0.2,1.5c-0.4-0.1-0.8-0.1-1.2-0.1c-0.9,0-1.7,0.4-2.2,1.1
		c-0.6,0.7-0.9,1.7-0.9,2.6v5.7h-1.6V13.2h1.3l0.2,2h0.1c0.4-0.6,0.8-1.2,1.4-1.6C338.4,13.2,339,13,339.7,13z"/>
</g>
<g id="cawemo">
	<g id="cawemo-grey-circle" transform="translate(-217 0)">
		<path class="st6" d="M302.2,49.8c-34.9,0-63.2,28.3-63.2,63.2c0,34.9,28.3,63.2,63.2,63.2c34.9,0,63.2-28.3,63.2-63.2c0,0,0,0,0,0
			C365.3,78.1,337.1,49.9,302.2,49.8z M314.1,173.3c-0.7,0.1-1.3,0.2-2,0.4c-3.3,0.5-6.6,0.8-9.9,0.8c-34,0-61.5-27.5-61.5-61.5
			s27.5-61.5,61.5-61.5c3.3,0,6.6,0.3,9.9,0.8c0.7,0.1,1.3,0.2,2,0.4c33.3,6.5,55,38.8,48.5,72.1
			C357.8,149.3,338.6,168.5,314.1,173.3z"/>
	</g>
	<g id="cawemo-bg" transform="translate(-217 0)">
		<path class="st7" d="M314.1,173.3c-0.7,0.1-1.3,0.2-2,0.4c-3.3,0.5-6.6,0.8-9.9,0.8c-34,0-61.5-27.5-61.5-61.5
			s27.5-61.5,61.5-61.5c3.3,0,6.6,0.3,9.9,0.8c0.7,0.1,1.3,0.2,2,0.4c33.3,6.5,55,38.8,48.5,72.1
			C357.8,149.3,338.6,168.5,314.1,173.3z"/>
	</g>
	<path class="st9" d="M119.8,115.4h-3V115c0-11.5-6.2-22.2-16.3-27.8l1.5-2.6c11,6.2,17.8,17.8,17.8,30.4c0,0.1,0,0.2,0,0.3
		L119.8,115.4z"/>
	<path class="st9" d="M85,149.7c-6.3,0-12.4-1.7-17.8-4.9l1.5-2.6c10,6,22.5,6,32.5,0l1.5,2.6C97.4,148,91.3,149.8,85,149.7z"/>
	<path class="st9" d="M50.2,115.4v-0.2c0-0.1,0-0.2,0-0.3c0-12.6,6.8-24.2,17.8-30.4l1.5,2.6c-10.1,5.6-16.3,16.3-16.3,27.8v0.4H50.2
		z"/>
	<path class="st8" d="M84.8,84.6c-3.4,0-6-4.6-6-8.7c0-3.4,1.7-5.2,3-6c0.9-0.5,1.9-0.8,3-0.8c1.1,0,2.1,0.3,3,0.8c1.4,0.8,3,2.6,3,6
		C90.8,80.1,88.3,84.6,84.8,84.6z M84.8,72.1c-0.5,0-1,0.1-1.5,0.4c-1.1,0.8-1.7,2.1-1.5,3.4c0,3.1,1.8,5.7,3,5.7s3-2.6,3-5.7
		c0.1-1.3-0.5-2.7-1.6-3.4h-0.1C85.8,72.3,85.3,72.2,84.8,72.1z"/>
	<path class="st8" d="M94.2,91.1H75.8c-0.9,0-1.7-0.5-2-1.3c-0.3-0.6-0.3-1.2-0.1-1.8l0.5-1.6c0.9-3.2,3.5-5.5,6.7-6.1l0.8-0.1
		l0.6,0.6c0.7,0.8,1.7,1.3,2.8,1.3c1.1,0,2.1-0.5,2.8-1.4l0.5-0.5l0.7,0.1c3.2,0.6,5.7,2.9,6.6,6v0.1l0.5,1.6
		c0.2,0.6,0.1,1.3-0.2,1.9l-0.1,0.2l-0.2,0.2C95.4,90.8,94.8,91.1,94.2,91.1z M76.7,88.8L76.7,88.8z M76.8,88.1h16.3l-0.2-0.8
		c-0.5-1.8-1.8-3.2-3.5-3.8c-2.5,2.2-6.2,2.2-8.7,0c-1.8,0.6-3.1,2-3.6,3.8L76.8,88.1z"/>
	<path class="st8" d="M115.7,135.3c-3.4,0-6-4.6-6-8.7c0-3.4,1.7-5.2,3-6c0.9-0.5,1.9-0.8,3-0.8c1.1,0,2.1,0.3,3,0.8
		c1.4,0.8,3,2.6,3,6C121.7,130.7,119.1,135.3,115.7,135.3z M115.7,122.8c-0.5,0-1,0.1-1.5,0.4c-1.1,0.8-1.7,2.1-1.5,3.4
		c0,3.1,1.8,5.7,3,5.7s3-2.6,3-5.7c0.1-1.3-0.5-2.7-1.6-3.4H117C116.6,122.9,116.1,122.8,115.7,122.8z"/>
	<path class="st8" d="M125,141.8h-18.3c-0.9,0-1.7-0.5-2-1.3c-0.3-0.6-0.3-1.2-0.1-1.8l0.5-1.6c0.9-3.2,3.5-5.5,6.7-6.1l0.8-0.1
		l0.6,0.6c0.7,0.8,1.7,1.3,2.8,1.3c1.1,0,2.1-0.5,2.8-1.4l0.5-0.5l0.7,0.1c3.2,0.6,5.7,2.9,6.6,6v0.1l0.5,1.6
		c0.2,0.6,0.1,1.3-0.2,1.9l-0.1,0.2l-0.2,0.2C126.2,141.4,125.6,141.7,125,141.8z M107.5,139.4L107.5,139.4z M107.7,138.8H124
		l-0.2-0.9c-0.5-1.8-1.8-3.2-3.5-3.8c-2.5,2.2-6.2,2.2-8.7,0c-1.8,0.6-3.1,2-3.6,3.8L107.7,138.8z"/>
	<path class="st8" d="M54,135.3c-3.4,0-6-4.6-6-8.7c0-3.4,1.7-5.2,3-6c0.9-0.5,1.9-0.8,3-0.8c1.1,0,2.1,0.3,3,0.8c1.4,0.8,3,2.6,3,6
		C60,130.7,57.5,135.3,54,135.3z M54,122.8c-0.5,0-1,0.1-1.5,0.4c-1.1,0.8-1.7,2.1-1.5,3.4c0,3.1,1.8,5.7,3,5.7s3-2.6,3-5.7
		c0.1-1.3-0.5-2.7-1.6-3.4h-0.1C55,122.9,54.5,122.8,54,122.8z"/>
	<path class="st8" d="M63.3,141.8H45c-0.9,0-1.7-0.5-2-1.3c-0.3-0.6-0.3-1.2-0.1-1.8l0.5-1.6c0.9-3.2,3.5-5.5,6.7-6.1l0.8-0.1
		l0.5,0.6c0.7,0.8,1.7,1.3,2.8,1.3c1.1,0,2.1-0.5,2.8-1.4l0.5-0.5l0.7,0.1c3.2,0.6,5.8,2.9,6.7,6v0.1l0.5,1.6
		c0.2,0.6,0.1,1.3-0.2,1.9l-0.1,0.2l-0.2,0.2C64.6,141.4,64,141.7,63.3,141.8z M45.9,139.4L45.9,139.4z M46,138.8h16.3l-0.2-0.9
		c-0.5-1.8-1.8-3.2-3.5-3.8c-2.5,2.2-6.2,2.2-8.7,0c-1.8,0.6-3.1,2-3.6,3.8L46,138.8z"/>
</g>
<g id="cawemo-label" class="st12">
	<path d="M52.3,10.9c-1.6,0-2.8,0.5-3.7,1.6s-1.4,2.5-1.4,4.3c0,1.9,0.4,3.3,1.3,4.3s2.1,1.5,3.7,1.5c1,0,2.1-0.2,3.4-0.5v1.5
		c-1,0.4-2.2,0.6-3.7,0.6c-2.1,0-3.7-0.6-4.9-1.9s-1.7-3.1-1.7-5.4c0-1.5,0.3-2.8,0.8-3.9s1.3-2,2.4-2.6s2.3-0.9,3.7-0.9
		c1.5,0,2.8,0.3,3.9,0.8l-0.7,1.4C54.5,11.2,53.4,10.9,52.3,10.9z"/>
	<path d="M65.2,23.9l-0.3-1.5h-0.1c-0.5,0.7-1.1,1.1-1.6,1.4s-1.2,0.4-2,0.4c-1.1,0-1.9-0.3-2.5-0.8S57.8,22,57.8,21
		c0-2.2,1.7-3.3,5.2-3.4l1.8-0.1v-0.7c0-0.8-0.2-1.5-0.5-1.9s-0.9-0.6-1.7-0.6c-0.9,0-1.9,0.3-3,0.8L59,13.9
		c0.5-0.3,1.1-0.5,1.7-0.7S62,13,62.6,13c1.3,0,2.2,0.3,2.8,0.8s0.9,1.5,0.9,2.7v7.3H65.2z M61.5,22.8c1,0,1.8-0.3,2.4-0.8
		s0.9-1.3,0.9-2.3v-1l-1.6,0.1c-1.3,0-2.2,0.2-2.8,0.6s-0.9,0.9-0.9,1.7c0,0.6,0.2,1,0.5,1.3S60.9,22.8,61.5,22.8z"/>
	<path d="M78.4,23.9l-2-6.3c-0.1-0.4-0.4-1.3-0.7-2.6h-0.1c-0.3,1.1-0.5,2-0.7,2.6l-2,6.3h-1.9l-2.9-10.7h1.7
		c0.7,2.7,1.2,4.7,1.6,6.1s0.6,2.4,0.6,2.8h0.1c0.1-0.4,0.2-0.9,0.3-1.4s0.3-1.1,0.4-1.4l2-6.1h1.8l1.9,6.1c0.4,1.1,0.6,2.1,0.7,2.8
		h0.1c0-0.2,0.1-0.6,0.2-1.1s0.8-3.1,2-7.9h1.7l-3,10.7H78.4z"/>
	<path d="M89.8,24.1c-1.6,0-2.8-0.5-3.7-1.4s-1.4-2.3-1.4-4c0-1.7,0.4-3.1,1.3-4.1s2-1.5,3.4-1.5c1.3,0,2.4,0.4,3.2,1.3
		s1.2,2,1.2,3.5v1h-7.4c0,1.3,0.4,2.2,1,2.9s1.5,1,2.5,1c1.2,0,2.3-0.2,3.4-0.7v1.4c-0.6,0.2-1.1,0.4-1.6,0.5S90.5,24.1,89.8,24.1z
		 M89.3,14.4c-0.9,0-1.5,0.3-2.1,0.8s-0.8,1.3-0.9,2.3H92c0-1-0.2-1.8-0.7-2.3S90.2,14.4,89.3,14.4z"/>
	<path d="M110.1,23.9v-7c0-0.9-0.2-1.5-0.5-1.9s-0.9-0.6-1.7-0.6c-1,0-1.8,0.3-2.2,0.9s-0.7,1.5-0.7,2.7v6h-1.6v-7
		c0-0.9-0.2-1.5-0.5-1.9s-0.9-0.6-1.7-0.6c-1,0-1.8,0.3-2.2,0.9s-0.7,1.6-0.7,3v5.6h-1.6V13.2h1.3l0.3,1.5h0.1
		c0.3-0.5,0.7-0.9,1.3-1.2s1.2-0.4,1.9-0.4c1.7,0,2.8,0.6,3.3,1.8h0.1c0.3-0.6,0.8-1,1.4-1.3s1.3-0.5,2.1-0.5c1.2,0,2.1,0.3,2.7,0.9
		s0.9,1.6,0.9,3v7H110.1z"/>
	<path d="M124.3,18.5c0,1.7-0.4,3.1-1.3,4.1s-2.1,1.5-3.6,1.5c-1,0-1.8-0.2-2.5-0.7s-1.3-1.1-1.7-1.9s-0.6-1.8-0.6-2.9
		c0-1.7,0.4-3.1,1.3-4.1s2.1-1.5,3.6-1.5c1.5,0,2.7,0.5,3.6,1.5S124.3,16.8,124.3,18.5z M116.2,18.5c0,1.4,0.3,2.4,0.8,3.1
		s1.4,1.1,2.4,1.1s1.9-0.4,2.4-1.1s0.8-1.8,0.8-3.1c0-1.4-0.3-2.4-0.8-3.1c-0.6-0.7-1.4-1.1-2.4-1.1c-1.1,0-1.9,0.3-2.4,1
		C116.4,16.1,116.2,17.2,116.2,18.5z"/>
</g>
</svg>
