<?xml version="1.0" encoding="utf-8"?>
<!-- Generator: Adobe Illustrator 22.0.1, SVG Export Plug-In . SVG Version: 6.00 Build 0)  -->
<svg version="1.1" id="Ebene_1" xmlns="http://www.w3.org/2000/svg" xmlns:xlink="http://www.w3.org/1999/xlink" x="0px" y="0px"
	 viewBox="0 0 1072 556" style="enable-background:new 0 0 1072 556;" xml:space="preserve">
<style type="text/css">
	.st0{clip-path:url(#SVGID_5_);fill:none;stroke:#999999;stroke-miterlimit:10;}
	.st1{clip-path:url(#SVGID_9_);fill:none;stroke:#999999;stroke-miterlimit:10;}
	.st2{fill:none;stroke:#999999;stroke-miterlimit:10;}
	.st3{fill:none;stroke:#333333;stroke-width:2;stroke-miterlimit:10;}
	.st4{fill:none;stroke:#333333;stroke-width:2;stroke-miterlimit:10;stroke-dasharray:5.1075,5.1075;}
	.st5{fill:none;stroke:#333333;stroke-width:2;stroke-miterlimit:10;stroke-dasharray:4.8539,4.8539;}
	.st6{fill:#FFFFFF;stroke:#00A8FF;stroke-width:3;stroke-miterlimit:10;}
	.st7{fill:#FFFFFF;}
	.st8{clip-path:url(#SVGID_12_);fill:none;stroke:#999999;stroke-miterlimit:10;}
	.st9{clip-path:url(#SVGID_14_);fill:none;stroke:#999999;stroke-miterlimit:10;}
	.st10{fill:none;stroke:#00A8FF;stroke-width:3;stroke-miterlimit:10;}
	.st11{fill:#333333;}
	.st12{clip-path:url(#SVGID_16_);fill:none;stroke:#999999;stroke-miterlimit:10;}
	.st13{clip-path:url(#SVGID_18_);fill:none;stroke:#999999;stroke-miterlimit:10;}
	.st14{clip-path:url(#SVGID_20_);fill:none;stroke:#999999;stroke-miterlimit:10;}
	.st15{clip-path:url(#SVGID_22_);fill:none;stroke:#999999;stroke-miterlimit:10;}
	.st16{fill:url(#SVGID_23_);}
	.st17{clip-path:url(#SVGID_25_);fill:none;stroke:#999999;stroke-miterlimit:10;}
	.st18{clip-path:url(#SVGID_27_);fill:none;stroke:#999999;stroke-miterlimit:10;}
	.st19{fill:#00A8FF;}
	.st20{clip-path:url(#SVGID_29_);fill:none;}
	.st21{clip-path:url(#SVGID_31_);}
	.st22{clip-path:url(#SVGID_33_);fill:none;stroke:#4D4D4D;stroke-width:3;stroke-linecap:round;stroke-miterlimit:10;}
	.st23{clip-path:url(#SVGID_35_);}
	.st24{clip-path:url(#SVGID_37_);fill:none;stroke:#999999;stroke-miterlimit:10;}
	.st25{clip-path:url(#SVGID_39_);fill:none;stroke:#999999;stroke-miterlimit:10;}
	.st26{fill:none;stroke:#999999;stroke-miterlimit:10;stroke-dasharray:5;}
	.st27{fill:none;stroke:#999999;stroke-miterlimit:10;stroke-dasharray:4.8571,4.8571;}
	.st28{fill:none;stroke:#999999;stroke-miterlimit:10;stroke-dasharray:4.8667,4.8667;}
	.st29{clip-path:url(#SVGID_42_);fill:none;stroke:#989898;stroke-miterlimit:10;}
	.st30{clip-path:url(#SVGID_44_);fill:none;stroke:#989898;stroke-miterlimit:10;}
	.st31{fill:none;stroke:#989898;stroke-miterlimit:10;}
	.st32{fill:#1D1D1B;}
	.st33{fill:none;stroke:#999999;stroke-miterlimit:10;stroke-dasharray:5.1451,5.1451;}
	.st34{fill:none;stroke:#999999;stroke-width:1.7525;stroke-linecap:round;stroke-miterlimit:10;}
</style>
<g>
	<g>
		<g>
			<g>
				<g>
					<defs>
						<circle id="SVGID_4_" cx="85" cy="113" r="62.7"/>
					</defs>
					<clipPath id="SVGID_5_">
						<use xlink:href="#SVGID_4_"  style="overflow:visible;"/>
					</clipPath>
					<circle class="st0" cx="85" cy="113" r="62.7"/>
				</g>
			</g>
		</g>
	</g>
	<g>
		<g>
			<g>
				<g>
					<defs>
						<circle id="SVGID_7_" cx="85" cy="113" r="62.7"/>
					</defs>
					<clipPath id="SVGID_9_">
						<use xlink:href="#SVGID_7_"  style="overflow:visible;"/>
					</clipPath>
					<circle class="st1" cx="85" cy="113" r="62"/>
				</g>
			</g>
		</g>
	</g>
	<g>
		<path id="SVGID_1_" class="st2" d="M85,50.3c-34.6,0-62.7,28.1-62.7,62.7s28.1,62.7,62.7,62.7s62.7-28.1,62.7-62.7
			S119.6,50.3,85,50.3z"/>
	</g>
</g>
<g>
	<g>
		<line class="st3" x1="95.9" y1="51.8" x2="95.9" y2="54.3"/>
		<line class="st4" x1="95.9" y1="59.4" x2="95.9" y2="169.2"/>
		<line class="st3" x1="95.9" y1="171.7" x2="95.9" y2="174.2"/>
	</g>
</g>
<g>
	<g>
		<line class="st3" x1="27" y1="94.8" x2="29.5" y2="94.8"/>
		<line class="st5" x1="34.4" y1="94.8" x2="138.8" y2="94.8"/>
		<line class="st3" x1="141.2" y1="94.8" x2="143.7" y2="94.8"/>
	</g>
</g>
<circle class="st6" cx="82.1" cy="110.8" r="24.1"/>
<g>
	<g>
		<path class="st7" d="M77.4,128c-0.6-0.1-1,1.4-1.3,1.9s-0.4,1.1-0.5,1.7c-0.1,0.8-0.1,1.7,0,2.5c0.1,0.7,0.2,1.5,0.4,2.2
			c0.1,0.7,0.3,1.3,0.4,2c0.2,1.2,0.5,2.4,1.2,3.4c0.5,0.7,1.2,1.3,2,1.8c1.9,1.4,4,2.5,6.3,3.1c1.7,0.4,3.5,0.4,5.3,0.4
			c2.3,0,4.7-0.1,6.6-1.5c1-0.8,1.7-1.9,2.4-2.9c0.4-0.6,0.7-1.2,0.9-1.9c0.5-1.5,0.2-3,0.1-4.6c-0.2-3.5,0.4-7.3-1.3-10.5
			c-0.2-0.3-0.4-0.7-0.8-0.6c-0.4,0-0.3,0.5-0.4,0.2c-0.2-1-0.9-0.1-1.7-0.6c-0.5-0.3-1.7,0.9-1.9,0.4c-0.2-0.8-0.3-1.7-0.2-2.5
			c0-0.3,0-0.7-0.2-0.9c-0.3-0.3-1.8,0-2.2,0.3c-1.3,0.7-0.6-0.5-0.6,2.2c0,0.6-0.1,1-0.9,1c-1,0-0.7-1.1-0.8-2.2
			c-0.1-1-0.1-1.9-0.6-2.8c-0.2-0.4-1.5-1.1-2-1c-0.7,0.2-2,0.9-1.9,1.6c0.1,1.1,1.1,2.5,0.7,3.6c-0.2,0.6-1.4,0.6-1.3,1.2
			c0,0.1-0.2-0.7,0-1.4c0.3-1,1-2.7-2.6-2c-0.7,0.1-1.3,0.5-1.4,1.1s0,1.3,0.1,2c0.1,0.9,0,1.9,0,2.8c-0.1,1.3,0.3,2.9-0.7,3.7
			c-0.9,0.7-0.3,1.3-1.5,1.8c0-1.8,1-3.8,1.1-5.6h-2.7V128z"/>
	</g>
	<path d="M98.9,122.7c-0.5,0-1,0-1.6,0c0-0.5-0.5-1.6-1-2.1s-1.3-1-2.8-1c-0.5,0-1,0-1.6,0.3c-0.3-0.5-0.5-0.8-0.8-1.3
		c-0.5-0.5-1.3-1-2.8-1c-2.1,0-3.1,1.3-3.6,2.6c-0.3,0-0.8-0.3-1.3-0.3c-1.3,0-2.1,0.5-2.8,1c-1.3,1.6-1.3,3.6-1.3,3.9v1
		c-1.6,0-2.8,0.5-3.6,1.3c-1.6,1.8-1.6,4.1-1.6,7.2c0,0.5,0,1.3,0,1.8c0,3.6,1.8,5.4,3.6,7.2l0.8,1c3.4,3.1,6.5,4.1,13.2,4.1
		c7.5,0,10.9-4.1,10.9-13.2v-6.5C102.5,127.1,102,123.5,98.9,122.7z M93.4,122.2c1,0,1.3,1,1.3,1.6v2.1c0,0.8,0.5,1.3,1,1.3
		c0.8,0,1.3-0.3,1.3-1c0,0,0-1,1-0.8c1.6,0.5,1.8,2.8,1.8,3.4l0,0v6.7c0,8.8-3.4,10.6-8.3,10.6c-6.2,0-8.5-0.8-11.1-3.4
		c-0.3-0.3-0.5-0.5-1-1c-1.8-1.8-2.8-2.8-2.8-5.4c0-0.5,0-0.8,0-1.6c0-2.6,0-4.7,0.8-5.4c0.3-0.5,1-0.8,1.8-0.8v2.1l-0.8,3.1
		c0,0.3,0,0.3,0.3,0.3c0.3,0.3,0.5,0,0.5,0l2.6-3.1v-0.3v-5.2c0-0.3,0-1.6,0.5-2.1c0.3-0.3,0.5-0.5,1-0.5c0.8,0,1,0.5,1,1v1
		c0,0.5,0.5,1.3,1.3,1.3s1.3-0.8,1.3-1.3v-3.4c0-0.3,0-1.3,1.3-1.3c0.8,0,1.3,0.5,1.3,1.3v3.1c0,0.8,0.5,1.6,1.3,1.6
		s1.3-0.8,1.3-1.3v-1.3C92.2,122.7,92.7,122.2,93.4,122.2z"/>
</g>
<g>
	<g>
		<g>
			<g>
				<g>
					<g>
						<defs>
							<circle id="SVGID_10_" cx="422.4" cy="368" r="62.7"/>
						</defs>
						<clipPath id="SVGID_12_">
							<use xlink:href="#SVGID_10_"  style="overflow:visible;"/>
						</clipPath>
						
							<ellipse transform="matrix(0.7071 -0.7071 0.7071 0.7071 -136.4992 406.4628)" class="st8" cx="422.4" cy="368" rx="62.7" ry="62.7"/>
					</g>
				</g>
			</g>
		</g>
		<g>
			<g>
				<g>
					<g>
						<defs>
							
								<ellipse id="SVGID_13_" transform="matrix(0.7071 -0.7071 0.7071 0.7071 -136.4993 406.4628)" cx="422.4" cy="368" rx="62.7" ry="62.7"/>
						</defs>
						<clipPath id="SVGID_14_">
							<use xlink:href="#SVGID_13_"  style="overflow:visible;"/>
						</clipPath>
						<circle class="st9" cx="422.4" cy="368" r="62"/>
					</g>
				</g>
			</g>
		</g>
		<g>
			<path id="SVGID_6_" class="st2" d="M422.4,305.3c-34.6,0-62.7,28.1-62.7,62.7s28.1,62.7,62.7,62.7s62.7-28.1,62.7-62.7
				S457,305.3,422.4,305.3z"/>
		</g>
	</g>
	<path class="st10" d="M447.8,345.8c-0.6-2.4-2.8-4.1-5.4-4.1h-40.1c-2.6,0-4.7,1.7-5.4,4.1c-0.1,0.5-1,3.5-2,7.1
		c-2.7,9.3-2.3,19.3,1.1,28.3l3.2,8.5c0.8,2.5,3.6,4.5,6.2,4.5h33.8c2.6,0,5.4-2,6.2-4.5l3.3-8.7c3.4-9,3.8-18.8,1.2-28
		C448.8,349.4,448,346.4,447.8,345.8z"/>
	<g>
		<g>
			<rect x="417.6" y="352.5" class="st11" width="9.4" height="9.4"/>
		</g>
		<g>
			<path class="st11" d="M422.3,375.7l-5.7-5.7l5.7-5.7l5.7,5.7L422.3,375.7z M417.8,370l4.5,4.5l4.5-4.5l-4.5-4.5L417.8,370z"/>
		</g>
		<g>
			<g>
				<rect x="429" y="374" class="st11" width="9.4" height="9.4"/>
			</g>
			<g>
				<rect x="406.4" y="374" class="st11" width="9.4" height="9.4"/>
			</g>
		</g>
		<g>
			<path class="st11" d="M411.1,374.5c-0.2,0-0.4-0.2-0.4-0.4V370c0-0.2,0.2-0.4,0.4-0.4c0.2,0,0.4,0.2,0.4,0.4v4.1
				C411.4,374.2,411.3,374.5,411.1,374.5z"/>
		</g>
		<g>
			<path class="st11" d="M417.1,370.4h-6c-0.2,0-0.4-0.2-0.4-0.4s0.2-0.4,0.4-0.4h6c0.2,0,0.4,0.2,0.4,0.4S417.3,370.4,417.1,370.4z
				"/>
		</g>
		<g>
			<path class="st11" d="M433.7,370.4h-6c-0.2,0-0.4-0.2-0.4-0.4s0.2-0.4,0.4-0.4h6c0.2,0,0.4,0.2,0.4,0.4S433.9,370.4,433.7,370.4z
				"/>
		</g>
		<g>
			<path class="st11" d="M433.7,374.5c-0.2,0-0.4-0.2-0.4-0.4V370c0-0.2,0.2-0.4,0.4-0.4s0.4,0.2,0.4,0.4v4.1
				C434,374.2,433.9,374.5,433.7,374.5z"/>
		</g>
		<g>
			<path class="st11" d="M422.3,365.3c-0.2,0-0.4-0.2-0.4-0.4V362c0-0.2,0.2-0.4,0.4-0.4s0.4,0.2,0.4,0.4v2.9
				C422.8,365.2,422.6,365.3,422.3,365.3z"/>
		</g>
	</g>
</g>
<g>
	<g>
		<g>
			<g>
				<g>
					<g>
						<defs>
							<circle id="SVGID_15_" cx="622.7" cy="368" r="62.7"/>
						</defs>
						<clipPath id="SVGID_16_">
							<use xlink:href="#SVGID_15_"  style="overflow:visible;"/>
						</clipPath>
						<circle class="st12" cx="622.7" cy="368" r="62.7"/>
					</g>
				</g>
			</g>
		</g>
		<g>
			<g>
				<g>
					<g>
						<defs>
							<circle id="SVGID_17_" cx="622.7" cy="368" r="62.7"/>
						</defs>
						<clipPath id="SVGID_18_">
							<use xlink:href="#SVGID_17_"  style="overflow:visible;"/>
						</clipPath>
						<circle class="st13" cx="622.7" cy="368" r="62"/>
					</g>
				</g>
			</g>
		</g>
		<g>
			<path id="SVGID_2_" class="st2" d="M622.7,305.3c-34.6,0-62.7,28.1-62.7,62.7s28.1,62.7,62.7,62.7c34.6,0,62.7-28.1,62.7-62.7
				S657.3,305.3,622.7,305.3z"/>
		</g>
	</g>
	<path class="st10" d="M648.1,345.8c-0.6-2.4-2.8-4.1-5.4-4.1h-40.1c-2.6,0-4.7,1.7-5.4,4.1c-0.1,0.5-1,3.5-2,7.1
		c-2.7,9.3-2.3,19.3,1.1,28.3l3.2,8.5c0.8,2.5,3.6,4.5,6.2,4.5h33.8c2.6,0,5.4-2,6.2-4.5l3.3-8.7c3.4-9,3.8-18.8,1.2-28
		C649.1,349.4,648.3,346.4,648.1,345.8z"/>
	<g>
		<rect x="607.3" y="357.2" class="st3" width="30.7" height="21.5"/>
		<line class="st3" x1="607.9" y1="364.5" x2="638.1" y2="364.5"/>
		<line class="st3" x1="607.4" y1="371.7" x2="638.1" y2="371.7"/>
		<line class="st3" x1="615.9" y1="364.3" x2="615.9" y2="378.7"/>
	</g>
</g>
<g>
	<g>
		<g>
			<g>
				<g>
					<g>
						<defs>
							<circle id="SVGID_19_" cx="742" cy="113" r="62.7"/>
						</defs>
						<clipPath id="SVGID_20_">
							<use xlink:href="#SVGID_19_"  style="overflow:visible;"/>
						</clipPath>
						<circle class="st14" cx="742" cy="113" r="62.7"/>
					</g>
				</g>
			</g>
		</g>
		<g>
			<g>
				<g>
					<g>
						<defs>
							<circle id="SVGID_21_" cx="742" cy="113" r="62.7"/>
						</defs>
						<clipPath id="SVGID_22_">
							<use xlink:href="#SVGID_21_"  style="overflow:visible;"/>
						</clipPath>
						<circle class="st15" cx="742" cy="113" r="62"/>
					</g>
				</g>
			</g>
		</g>
		<g>
			<path id="SVGID_8_" class="st2" d="M742,50.3c-34.6,0-62.7,28.1-62.7,62.7s28.1,62.7,62.7,62.7s62.7-28.1,62.7-62.7
				S776.6,50.3,742,50.3z"/>
		</g>
	</g>
	<g>
		<g>
			
				<linearGradient id="SVGID_23_" gradientUnits="userSpaceOnUse" x1="755.54" y1="110.41" x2="770.4537" y2="95.4963" gradientTransform="matrix(1 0 0 1 0 -10)">
				<stop  offset="0" style="stop-color:#333333"/>
				<stop  offset="1" style="stop-color:#808080"/>
			</linearGradient>
			<path class="st16" d="M761,95h-7.2v-3.2h7.2v-7.4h3.2v7.4h7.2V95h-7.2v7.3H761V95z"/>
		</g>
		<g>
			<path class="st10" d="M743.1,92c3.8,2.2,5.9,6.4,5.9,11.9c0,9.3-5.7,18.5-11.4,18.5c-5.8,0-11.4-9.2-11.4-18.5
				c0-5.5,2.1-9.7,5.9-11.9c1.7-1,3.6-1.5,5.5-1.5S741.4,91,743.1,92z"/>
			<path class="st10" d="M761.5,131.8l1.4,4.4c0.2,0.6,0.1,1.3-0.2,1.9c-0.4,0.5-0.9,0.9-1.5,0.9h-47c-0.6,0-1.2-0.3-1.5-0.9
				c-0.3-0.5-0.4-1.2-0.3-1.9l1.4-4.4c2.1-6.8,7.5-11.8,14-12.8c2.9,3.1,6.3,4.7,9.9,4.7c3.6,0,7-1.6,9.9-4.7
				C754,120,759.4,124.9,761.5,131.8z"/>
		</g>
	</g>
</g>
<g>
	<g>
		<g>
			<g>
				<g>
					<g>
						<defs>
							
								<ellipse id="SVGID_24_" transform="matrix(0.7071 -0.7071 0.7071 0.7071 201.8298 713.335)" cx="962" cy="113" rx="62.7" ry="62.7"/>
						</defs>
						<clipPath id="SVGID_25_">
							<use xlink:href="#SVGID_24_"  style="overflow:visible;"/>
						</clipPath>
						
							<ellipse transform="matrix(0.7071 -0.7071 0.7071 0.7071 201.8347 713.3297)" class="st17" cx="962" cy="113" rx="62.7" ry="62.7"/>
					</g>
				</g>
			</g>
		</g>
		<g>
			<g>
				<g>
					<g>
						<defs>
							
								<ellipse id="SVGID_26_" transform="matrix(0.7071 -0.7071 0.7071 0.7071 201.8539 713.3302)" cx="962" cy="113" rx="62.7" ry="62.7"/>
						</defs>
						<clipPath id="SVGID_27_">
							<use xlink:href="#SVGID_26_"  style="overflow:visible;"/>
						</clipPath>
						<circle class="st18" cx="962" cy="113" r="62"/>
					</g>
				</g>
			</g>
		</g>
		<g>
			<path id="SVGID_11_" class="st2" d="M962,50.3c-34.6,0-62.7,28.1-62.7,62.7s28.1,62.7,62.7,62.7s62.7-28.1,62.7-62.7
				S996.6,50.3,962,50.3z"/>
		</g>
	</g>
	<g>
		<polygon class="st19" points="929.2,140.8 949.7,129.6 950,129.5 950.4,129.5 966.5,131.3 964.3,133.2 962,105.5 961.9,103.9 
			963.5,102.7 977.7,92 982.4,98.8 967.2,108.2 968.7,105.3 968.1,133.1 968.1,135.6 965.9,135.1 950,131.8 950.7,131.7 		"/>
		<g>
			<g>
				<polygon class="st11" points="984.1,107.7 994.8,85.2 970,87.2 				"/>
			</g>
		</g>
	</g>
</g>
<g>
	<g>
		<g>
			<g>
				<g>
					<g>
						<defs>
							<circle id="SVGID_28_" cx="302" cy="113" r="62.7"/>
						</defs>
						<clipPath id="SVGID_29_">
							<use xlink:href="#SVGID_28_"  style="overflow:visible;"/>
						</clipPath>
						<circle class="st20" cx="302" cy="113" r="62"/>
					</g>
				</g>
			</g>
		</g>
		<g>
			<g>
				<g>
					<g>
						<defs>
							<circle id="SVGID_30_" cx="302" cy="113" r="62.7"/>
						</defs>
						<clipPath id="SVGID_31_">
							<use xlink:href="#SVGID_30_"  style="overflow:visible;"/>
						</clipPath>
						<g class="st21">
							<g>
								<path class="st19" d="M296.4,97.3c1.1,0,2,0.9,2,2v27.3c0,1.1-0.9,2-2,2h-27.3c-1.1,0-2-0.9-2-2V99.3c0-1.1,0.9-2,2-2H296.4
									 M296.4,94.3h-27.3c-2.8,0-5,2.2-5,5v27.3c0,2.8,2.2,5,5,5h27.3c2.8,0,5-2.2,5-5V99.3C301.4,96.6,299.2,94.3,296.4,94.3
									L296.4,94.3z"/>
							</g>
						</g>
					</g>
				</g>
			</g>
		</g>
		<g>
			<g>
				<g>
					<g>
						<defs>
							<circle id="SVGID_32_" cx="302" cy="113" r="62.7"/>
						</defs>
						<clipPath id="SVGID_33_">
							<use xlink:href="#SVGID_32_"  style="overflow:visible;"/>
						</clipPath>
						<polyline class="st22" points="274.3,114 282.8,120 305.8,98 						"/>
					</g>
				</g>
			</g>
		</g>
		<g>
			<g>
				<g>
					<g>
						<defs>
							<circle id="SVGID_34_" cx="302" cy="113" r="62.7"/>
						</defs>
						<clipPath id="SVGID_35_">
							<use xlink:href="#SVGID_34_"  style="overflow:visible;"/>
						</clipPath>
						<g class="st23">
							<g>
								<path class="st19" d="M480.7,97.3c1.1,0,2,0.9,2,2v27.3c0,1.1-0.9,2-2,2H319.3c-1.1,0-2-0.9-2-2V99.3c0-1.1,0.9-2,2-2H480.7
									 M480.7,94.3H319.3c-2.8,0-5,2.2-5,5v27.3c0,2.8,2.2,5,5,5h161.4c2.8,0,5-2.2,5-5V99.3C485.7,96.6,483.5,94.3,480.7,94.3
									L480.7,94.3z"/>
							</g>
						</g>
					</g>
				</g>
			</g>
		</g>
	</g>
	<g>
		<g>
			<g>
				<g>
					<g>
						<defs>
							<circle id="SVGID_36_" cx="302" cy="113" r="62.7"/>
						</defs>
						<clipPath id="SVGID_37_">
							<use xlink:href="#SVGID_36_"  style="overflow:visible;"/>
						</clipPath>
						<circle class="st24" cx="302" cy="113" r="62.7"/>
					</g>
				</g>
			</g>
		</g>
		<g>
			<g>
				<g>
					<g>
						<defs>
							<circle id="SVGID_38_" cx="302" cy="113" r="62.7"/>
						</defs>
						<clipPath id="SVGID_39_">
							<use xlink:href="#SVGID_38_"  style="overflow:visible;"/>
						</clipPath>
						<circle class="st25" cx="302" cy="113" r="62"/>
					</g>
				</g>
			</g>
		</g>
		<g>
			<path id="SVGID_3_" class="st2" d="M302,50.3c-34.6,0-62.7,28.1-62.7,62.7s28.1,62.7,62.7,62.7s62.7-28.1,62.7-62.7
				S336.6,50.3,302,50.3z"/>
		</g>
	</g>
</g>
<line class="st26" x1="85.5" y1="254" x2="963" y2="254"/>
<g>
	<g>
		<line class="st2" x1="522" y1="176" x2="522" y2="178.5"/>
		<line class="st27" x1="522" y1="183.4" x2="522" y2="210.1"/>
		<line class="st2" x1="522" y1="212.5" x2="522" y2="215"/>
	</g>
</g>
<g>
	<g>
		<line class="st2" x1="302" y1="176" x2="302" y2="178.5"/>
		<line class="st28" x1="302" y1="183.4" x2="302" y2="249.1"/>
		<line class="st2" x1="302" y1="251.5" x2="302" y2="254"/>
	</g>
</g>
<g>
	<g>
		<line class="st2" x1="85" y1="176" x2="85" y2="178.5"/>
		<line class="st28" x1="85" y1="183.4" x2="85" y2="249.1"/>
		<line class="st2" x1="85" y1="251.5" x2="85" y2="254"/>
	</g>
</g>
<g>
	<g>
		<line class="st2" x1="742" y1="176" x2="742" y2="178.5"/>
		<line class="st28" x1="742" y1="183.4" x2="742" y2="249.1"/>
		<line class="st2" x1="742" y1="251.5" x2="742" y2="254"/>
	</g>
</g>
<g>
	<g>
		<line class="st2" x1="962" y1="176" x2="962" y2="178.5"/>
		<line class="st28" x1="962" y1="183.4" x2="962" y2="249.1"/>
		<line class="st2" x1="962" y1="251.5" x2="962" y2="254"/>
	</g>
</g>
<g>
	<g>
		<g>
			<defs>
				<circle id="SVGID_41_" cx="522" cy="113" r="62.7"/>
			</defs>
			<clipPath id="SVGID_42_">
				<use xlink:href="#SVGID_41_"  style="overflow:visible;"/>
			</clipPath>
			<circle class="st29" cx="522" cy="113" r="62.7"/>
		</g>
		<g>
			<defs>
				<circle id="SVGID_43_" cx="522" cy="113" r="62.7"/>
			</defs>
			<clipPath id="SVGID_44_">
				<use xlink:href="#SVGID_43_"  style="overflow:visible;"/>
			</clipPath>
			<circle class="st30" cx="522" cy="113" r="62"/>
		</g>
		<g>
			<circle id="SVGID_40_" class="st31" cx="522" cy="113" r="62.7"/>
		</g>
	</g>
	<g>
		<path class="st19" d="M537.2,89.1c4.3,0,8.3,1.7,11.3,4.7s4.7,7,4.7,11.3s-1.7,8.3-4.7,11.3L522,142.9l-26.5-26.5
			c-3-3-4.7-7-4.7-11.3s1.7-8.3,4.7-11.3s7-4.7,11.3-4.7s8.3,1.7,11.3,4.7l1.8,1.8l2.1,2.1l2.1-2.1l1.8-1.8
			C528.9,90.7,532.9,89.1,537.2,89.1 M537.2,86.1c-5.1,0-9.8,2-13.4,5.6l-1.8,1.8l-1.8-1.8c-3.6-3.6-8.4-5.6-13.4-5.6
			c-5.1,0-9.8,2-13.4,5.6c-7.4,7.4-7.4,19.5,0,26.9l26.5,26.5c0.4,0.4,1,0.7,1.5,0.8c0.2,0,0.4,0.1,0.6,0.1c0.8,0,1.5-0.3,2.1-0.9
			l26.5-26.5c7.4-7.4,7.4-19.5,0-26.9C547,88.1,542.3,86.1,537.2,86.1L537.2,86.1z"/>
	</g>
	<path class="st32" d="M543.2,115.2c-2.7-0.1-5.4-0.2-8.1-0.3c-2.7-0.1-5.4-0.2-8.1-0.2h-0.7l-0.4,0.6l-3.3,4.9l-1.4,2.2
		c-0.7-2.5-1.3-5-2-7.5c-1-3.5-1.9-7.1-3-10.6l-1-3.3l-1.6,3l-3,5.8l-2.7,5.2c-1.7,0-3.4,0.1-5.1,0.2c-1.9,0.1-3.8,0.1-5.8,0.2
		c-3.8,0.2-7.7,0.4-11.5,0.7c3.8,0.3,7.7,0.5,11.5,0.7c1.9,0.1,3.8,0.2,5.8,0.2c1.9,0.1,3.8,0.1,5.8,0.2h0.6l0.3-0.6l3.3-5.6
		l1.5-2.7c0.6,2.5,1.3,4.9,2,7.4c0.9,3.6,1.9,7.1,2.9,10.6l0.9,3.2l1.8-2.8l3.2-4.9l2.7-4.4c2.5,0,4.9-0.1,7.4-0.2
		c2.7-0.1,5.4-0.2,8.1-0.3c5.4-0.2,10.8-0.5,16.2-0.9C554,115.7,548.6,115.4,543.2,115.2z"/>
</g>
<g>
	<path class="st32" d="M54.3,23.9l-4.8-12.7h-0.1c0.1,1,0.1,2.2,0.1,3.6v9.1H48V9.6h2.5L55,21.4h0.1l4.6-11.8h2.5v14.3h-1.7v-9.2
		c0-1.1,0-2.2,0.1-3.4h-0.1l-4.9,12.6H54.3z"/>
	<path class="st32" d="M75,18.5c0,1.7-0.4,3.1-1.3,4.1s-2.1,1.5-3.6,1.5c-1,0-1.8-0.2-2.5-0.7s-1.3-1.1-1.7-1.9s-0.6-1.8-0.6-2.9
		c0-1.7,0.4-3.1,1.3-4.1s2.1-1.5,3.6-1.5c1.5,0,2.7,0.5,3.6,1.5S75,16.8,75,18.5z M66.9,18.5c0,1.4,0.3,2.4,0.8,3.1s1.4,1.1,2.4,1.1
		s1.9-0.4,2.4-1.1s0.8-1.8,0.8-3.1c0-1.4-0.3-2.4-0.8-3.1s-1.4-1.1-2.4-1.1c-1.1,0-1.9,0.3-2.4,1S66.9,17.2,66.9,18.5z"/>
	<path class="st32" d="M85.2,22.5L85.2,22.5c-0.8,1.1-2,1.6-3.4,1.6c-1.4,0-2.5-0.5-3.3-1.4s-1.2-2.3-1.2-4.1c0-1.8,0.4-3.1,1.2-4.1
		s1.9-1.5,3.3-1.5c1.5,0,2.6,0.5,3.3,1.6h0.1l-0.1-0.8l0-0.8V8.7h1.6v15.2h-1.3L85.2,22.5z M81.9,22.7c1.1,0,1.9-0.3,2.4-0.9
		s0.7-1.6,0.7-2.9v-0.3c0-1.5-0.3-2.6-0.8-3.2s-1.3-1-2.4-1c-1,0-1.7,0.4-2.2,1.1S79,17.2,79,18.6c0,1.4,0.3,2.4,0.8,3.1
		S81,22.7,81.9,22.7z"/>
	<path class="st32" d="M94.7,24.1c-1.6,0-2.8-0.5-3.7-1.4s-1.4-2.3-1.4-4c0-1.7,0.4-3.1,1.3-4.1s2-1.5,3.4-1.5
		c1.3,0,2.4,0.4,3.2,1.3s1.2,2,1.2,3.5v1h-7.4c0,1.3,0.4,2.2,1,2.9s1.5,1,2.5,1c1.2,0,2.3-0.2,3.4-0.7v1.4c-0.6,0.2-1.1,0.4-1.6,0.5
		S95.4,24.1,94.7,24.1z M94.2,14.4c-0.9,0-1.5,0.3-2.1,0.8s-0.8,1.3-0.9,2.3h5.6c0-1-0.2-1.8-0.7-2.3S95.1,14.4,94.2,14.4z"/>
	<path class="st32" d="M103,23.9h-1.6V8.7h1.6V23.9z"/>
	<path class="st32" d="M110.9,24.1c-1.6,0-2.8-0.5-3.7-1.4s-1.4-2.3-1.4-4c0-1.7,0.4-3.1,1.3-4.1s2-1.5,3.4-1.5
		c1.3,0,2.4,0.4,3.2,1.3s1.2,2,1.2,3.5v1h-7.4c0,1.3,0.4,2.2,1,2.9s1.5,1,2.5,1c1.2,0,2.3-0.2,3.4-0.7v1.4c-0.6,0.2-1.1,0.4-1.6,0.5
		S111.7,24.1,110.9,24.1z M110.5,14.4c-0.9,0-1.5,0.3-2.1,0.8s-0.8,1.3-0.9,2.3h5.6c0-1-0.2-1.8-0.7-2.3S111.3,14.4,110.5,14.4z"/>
	<path class="st32" d="M122.5,13c0.5,0,0.9,0,1.3,0.1l-0.2,1.5c-0.4-0.1-0.8-0.1-1.2-0.1c-0.9,0-1.6,0.4-2.2,1.1s-0.9,1.6-0.9,2.6
		v5.7h-1.6V13.2h1.3l0.2,2h0.1c0.4-0.7,0.9-1.2,1.4-1.6S121.8,13,122.5,13z"/>
</g>
<g>
	<path class="st32" d="M273.9,23.9h-1.7V11.1h-4.5V9.6h10.7v1.5h-4.5V23.9z"/>
	<path class="st32" d="M286.9,23.9l-0.3-1.5h-0.1c-0.5,0.7-1.1,1.1-1.6,1.4s-1.2,0.4-2,0.4c-1.1,0-1.9-0.3-2.5-0.8s-0.9-1.3-0.9-2.3
		c0-2.2,1.7-3.3,5.2-3.4l1.8-0.1v-0.7c0-0.8-0.2-1.5-0.5-1.9s-0.9-0.6-1.7-0.6c-0.9,0-1.9,0.3-3,0.8l-0.5-1.2
		c0.5-0.3,1.1-0.5,1.7-0.7s1.3-0.2,1.9-0.2c1.3,0,2.2,0.3,2.8,0.8s0.9,1.5,0.9,2.7v7.3H286.9z M283.3,22.8c1,0,1.8-0.3,2.4-0.8
		s0.9-1.3,0.9-2.3v-1l-1.6,0.1c-1.3,0-2.2,0.2-2.8,0.6s-0.9,0.9-0.9,1.7c0,0.6,0.2,1,0.5,1.3S282.6,22.8,283.3,22.8z"/>
	<path class="st32" d="M298.4,21c0,1-0.4,1.8-1.1,2.3s-1.8,0.8-3.1,0.8c-1.4,0-2.5-0.2-3.3-0.7v-1.5c0.5,0.3,1.1,0.5,1.7,0.6
		s1.2,0.2,1.7,0.2c0.8,0,1.5-0.1,2-0.4s0.7-0.7,0.7-1.2c0-0.4-0.2-0.8-0.5-1.1s-1.1-0.6-2.1-1c-1-0.4-1.7-0.7-2.1-1
		s-0.7-0.6-0.9-0.9s-0.3-0.8-0.3-1.3c0-0.9,0.4-1.6,1.1-2.1s1.7-0.8,2.9-0.8c1.2,0,2.3,0.2,3.4,0.7l-0.6,1.3c-1.1-0.4-2-0.7-2.9-0.7
		c-0.8,0-1.3,0.1-1.7,0.4s-0.6,0.6-0.6,1c0,0.3,0.1,0.5,0.2,0.7s0.4,0.4,0.7,0.6c0.3,0.2,1,0.4,1.9,0.8c1.3,0.5,2.1,0.9,2.6,1.4
		S298.4,20.3,298.4,21z"/>
	<path class="st32" d="M302.6,18.4c0.3-0.4,0.7-0.9,1.3-1.6l3.5-3.7h1.9l-4.3,4.6l4.6,6.1h-2l-3.8-5.1l-1.2,1.1v4H301V8.7h1.6v8.1
		C302.6,17.1,302.6,17.7,302.6,18.4L302.6,18.4z"/>
	<path class="st32" d="M313.1,23.9h-1.6V8.7h1.6V23.9z"/>
	<path class="st32" d="M316.4,10.3c0-0.4,0.1-0.6,0.3-0.8s0.4-0.3,0.7-0.3c0.3,0,0.5,0.1,0.7,0.3s0.3,0.4,0.3,0.8s-0.1,0.6-0.3,0.8
		s-0.4,0.3-0.7,0.3c-0.3,0-0.5-0.1-0.7-0.3S316.4,10.7,316.4,10.3z M318.2,23.9h-1.6V13.2h1.6V23.9z"/>
	<path class="st32" d="M328.5,21c0,1-0.4,1.8-1.1,2.3s-1.8,0.8-3.1,0.8c-1.4,0-2.5-0.2-3.3-0.7v-1.5c0.5,0.3,1.1,0.5,1.7,0.6
		s1.2,0.2,1.7,0.2c0.8,0,1.5-0.1,2-0.4s0.7-0.7,0.7-1.2c0-0.4-0.2-0.8-0.5-1.1s-1.1-0.6-2.1-1c-1-0.4-1.7-0.7-2.1-1
		s-0.7-0.6-0.9-0.9s-0.3-0.8-0.3-1.3c0-0.9,0.4-1.6,1.1-2.1s1.7-0.8,2.9-0.8c1.2,0,2.3,0.2,3.4,0.7l-0.6,1.3c-1.1-0.4-2-0.7-2.9-0.7
		c-0.8,0-1.3,0.1-1.7,0.4s-0.6,0.6-0.6,1c0,0.3,0.1,0.5,0.2,0.7s0.4,0.4,0.7,0.6c0.3,0.2,1,0.4,1.9,0.8c1.3,0.5,2.1,0.9,2.6,1.4
		S328.5,20.3,328.5,21z"/>
	<path class="st32" d="M334.6,22.8c0.3,0,0.6,0,0.8-0.1s0.5-0.1,0.6-0.1v1.2c-0.2,0.1-0.4,0.2-0.8,0.2s-0.6,0.1-0.9,0.1
		c-2.1,0-3.1-1.1-3.1-3.3v-6.4h-1.5v-0.8l1.5-0.7l0.7-2.3h0.9v2.5h3.1v1.3h-3.1v6.3c0,0.6,0.2,1.1,0.5,1.5S334.1,22.8,334.6,22.8z"
		/>
</g>
<g>
	<path class="st32" d="M495.6,10.9c-1.6,0-2.8,0.5-3.7,1.6s-1.4,2.5-1.4,4.3c0,1.9,0.4,3.3,1.3,4.3s2.1,1.5,3.7,1.5
		c1,0,2.1-0.2,3.4-0.5v1.5c-1,0.4-2.2,0.6-3.7,0.6c-2.1,0-3.7-0.6-4.9-1.9s-1.7-3.1-1.7-5.4c0-1.5,0.3-2.8,0.8-3.9s1.3-2,2.4-2.6
		s2.3-0.9,3.7-0.9c1.5,0,2.8,0.3,3.9,0.8l-0.7,1.4C497.7,11.2,496.7,10.9,495.6,10.9z"/>
	<path class="st32" d="M511.1,18.5c0,1.7-0.4,3.1-1.3,4.1s-2.1,1.5-3.6,1.5c-1,0-1.8-0.2-2.5-0.7s-1.3-1.1-1.7-1.9s-0.6-1.8-0.6-2.9
		c0-1.7,0.4-3.1,1.3-4.1s2.1-1.5,3.6-1.5c1.5,0,2.7,0.5,3.6,1.5S511.1,16.8,511.1,18.5z M502.9,18.5c0,1.4,0.3,2.4,0.8,3.1
		s1.4,1.1,2.4,1.1s1.9-0.4,2.4-1.1s0.8-1.8,0.8-3.1c0-1.4-0.3-2.4-0.8-3.1s-1.4-1.1-2.4-1.1c-1.1,0-1.9,0.3-2.4,1
		S502.9,17.2,502.9,18.5z"/>
	<path class="st32" d="M518.2,24.1c-1.5,0-2.7-0.5-3.6-1.4s-1.3-2.3-1.3-4c0-1.8,0.4-3.2,1.3-4.2s2.1-1.5,3.7-1.5
		c0.5,0,1,0.1,1.5,0.2s0.9,0.2,1.2,0.4l-0.5,1.4c-0.4-0.1-0.7-0.3-1.2-0.4s-0.8-0.1-1.1-0.1c-2.2,0-3.3,1.4-3.3,4.2
		c0,1.3,0.3,2.3,0.8,3s1.3,1.1,2.4,1.1c0.9,0,1.8-0.2,2.7-0.6v1.4C520.2,23.9,519.3,24.1,518.2,24.1z"/>
	<path class="st32" d="M525,18.4c0.3-0.4,0.7-0.9,1.3-1.6l3.5-3.7h1.9l-4.3,4.6l4.6,6.1h-2l-3.8-5.1l-1.2,1.1v4h-1.6V8.7h1.6v8.1
		C525,17.1,525,17.7,525,18.4L525,18.4z"/>
	<path class="st32" d="M538.9,24.1c-0.7,0-1.3-0.1-1.9-0.4s-1.1-0.7-1.5-1.2h-0.1c0.1,0.6,0.1,1.2,0.1,1.8v4.4h-1.6V13.2h1.3
		l0.2,1.5h0.1c0.4-0.6,0.9-1,1.5-1.3c0.6-0.3,1.2-0.4,1.9-0.4c1.4,0,2.5,0.5,3.3,1.5s1.2,2.3,1.2,4.1c0,1.8-0.4,3.1-1.2,4.1
		C541.4,23.6,540.3,24.1,538.9,24.1z M538.7,14.4c-1.1,0-1.9,0.3-2.4,0.9c-0.5,0.6-0.7,1.6-0.8,2.9v0.4c0,1.5,0.3,2.6,0.8,3.2
		c0.5,0.6,1.3,1,2.4,1c0.9,0,1.6-0.4,2.2-1.1c0.5-0.7,0.8-1.8,0.8-3.1c0-1.3-0.3-2.4-0.8-3.1C540.4,14.7,539.6,14.4,538.7,14.4z"/>
	<path class="st32" d="M546.1,10.3c0-0.4,0.1-0.6,0.3-0.8c0.2-0.2,0.4-0.3,0.7-0.3c0.3,0,0.5,0.1,0.7,0.3c0.2,0.2,0.3,0.4,0.3,0.8
		s-0.1,0.6-0.3,0.8c-0.2,0.2-0.4,0.3-0.7,0.3c-0.3,0-0.5-0.1-0.7-0.3C546.2,10.9,546.1,10.7,546.1,10.3z M547.8,23.9h-1.6V13.2h1.6
		V23.9z"/>
	<path class="st32" d="M554.7,22.8c0.3,0,0.6,0,0.8-0.1c0.3,0,0.5-0.1,0.6-0.1v1.2c-0.2,0.1-0.4,0.2-0.8,0.2s-0.6,0.1-0.9,0.1
		c-2.1,0-3.1-1.1-3.1-3.3v-6.4h-1.5v-0.8l1.5-0.7l0.7-2.3h0.9v2.5h3.1v1.3H553v6.3c0,0.6,0.2,1.1,0.5,1.5
		C553.8,22.6,554.2,22.8,554.7,22.8z"/>
</g>
<g>
	<path class="st32" d="M358.4,472.2h-1.6l-2.9-9.6c-0.1-0.4-0.3-1-0.5-1.6s-0.3-1-0.3-1.2c-0.1,0.9-0.4,1.8-0.7,2.8l-2.8,9.5H348
		l-3.8-14.3h1.8l2.3,8.8c0.3,1.2,0.5,2.4,0.7,3.4c0.2-1.2,0.4-2.4,0.8-3.5l2.6-8.7h1.8l2.7,8.8c0.3,1,0.6,2.1,0.8,3.4
		c0.1-0.9,0.4-2.1,0.7-3.4l2.2-8.8h1.8L358.4,472.2z"/>
	<path class="st32" d="M373.5,466.8c0,1.7-0.4,3.1-1.3,4.1s-2.1,1.5-3.6,1.5c-1,0-1.8-0.2-2.5-0.7s-1.3-1.1-1.7-1.9
		s-0.6-1.8-0.6-2.9c0-1.7,0.4-3.1,1.3-4.1c0.9-1,2.1-1.5,3.6-1.5c1.5,0,2.7,0.5,3.6,1.5S373.5,465.1,373.5,466.8z M365.3,466.8
		c0,1.4,0.3,2.4,0.8,3.1s1.4,1.1,2.4,1.1s1.9-0.4,2.4-1.1s0.8-1.8,0.8-3.1c0-1.4-0.3-2.4-0.8-3.1c-0.6-0.7-1.4-1.1-2.4-1.1
		c-1.1,0-1.9,0.3-2.4,1C365.6,464.4,365.3,465.4,365.3,466.8z"/>
	<path class="st32" d="M381.2,461.3c0.5,0,0.9,0,1.3,0.1l-0.2,1.5c-0.4-0.1-0.8-0.1-1.2-0.1c-0.9,0-1.6,0.4-2.2,1.1
		s-0.9,1.6-0.9,2.6v5.7h-1.6v-10.7h1.3l0.2,2h0.1c0.4-0.7,0.9-1.2,1.4-1.6C379.9,461.4,380.5,461.3,381.2,461.3z"/>
	<path class="st32" d="M386.1,466.7c0.3-0.4,0.7-0.9,1.3-1.6l3.5-3.7h1.9l-4.3,4.6l4.6,6.1h-2l-3.8-5.1l-1.2,1.1v4h-1.6V457h1.6v8.1
		C386.1,465.4,386,465.9,386.1,466.7L386.1,466.7z"/>
	<path class="st32" d="M399.8,462.7h-2.7v9.4h-1.6v-9.4h-1.9V462l1.9-0.6v-0.6c0-2.6,1.1-3.9,3.4-3.9c0.6,0,1.2,0.1,2,0.3l-0.4,1.3
		c-0.6-0.2-1.2-0.3-1.6-0.3c-0.6,0-1.1,0.2-1.4,0.6c-0.3,0.4-0.4,1.1-0.4,2v0.7h2.7V462.7z M403.4,472.2h-1.6V457h1.6V472.2z"/>
	<path class="st32" d="M416,466.8c0,1.7-0.4,3.1-1.3,4.1s-2.1,1.5-3.6,1.5c-1,0-1.8-0.2-2.5-0.7s-1.3-1.1-1.7-1.9s-0.6-1.8-0.6-2.9
		c0-1.7,0.4-3.1,1.3-4.1c0.9-1,2.1-1.5,3.6-1.5c1.5,0,2.7,0.5,3.6,1.5S416,465.1,416,466.8z M407.9,466.8c0,1.4,0.3,2.4,0.8,3.1
		s1.4,1.1,2.4,1.1s1.9-0.4,2.4-1.1s0.8-1.8,0.8-3.1c0-1.4-0.3-2.4-0.8-3.1c-0.6-0.7-1.4-1.1-2.4-1.1c-1.1,0-1.9,0.3-2.4,1
		C408.1,464.4,407.9,465.4,407.9,466.8z"/>
	<path class="st32" d="M427.6,472.2l-2-6.3c-0.1-0.4-0.4-1.3-0.7-2.6h-0.1c-0.3,1.1-0.5,2-0.7,2.6l-2,6.3h-1.9l-2.9-10.7h1.7
		c0.7,2.7,1.2,4.7,1.6,6.1s0.6,2.4,0.6,2.8h0.1c0.1-0.4,0.2-0.9,0.3-1.4s0.3-1.1,0.4-1.4l2-6.1h1.8l1.9,6.1c0.4,1.1,0.6,2.1,0.7,2.8
		h0.1c0-0.2,0.1-0.6,0.2-1.1s0.8-3.1,2-7.9h1.7l-3,10.7H427.6z"/>
	<path class="st32" d="M447.8,472.2h-8v-14.3h8v1.5h-6.3v4.6h5.9v1.5h-5.9v5.3h6.3V472.2z"/>
	<path class="st32" d="M458.1,472.2v-6.9c0-0.9-0.2-1.5-0.6-2s-1-0.6-1.9-0.6c-1.1,0-1.9,0.3-2.5,0.9s-0.8,1.6-0.8,3v5.6h-1.6v-10.7
		h1.3l0.3,1.5h0.1c0.3-0.5,0.8-0.9,1.4-1.2c0.6-0.3,1.3-0.4,2-0.4c1.3,0,2.3,0.3,2.9,0.9c0.7,0.6,1,1.6,1,3v7H458.1z"/>
	<path class="st32" d="M471.8,461.4v1l-2,0.2c0.2,0.2,0.3,0.5,0.5,0.9c0.1,0.4,0.2,0.8,0.2,1.2c0,1-0.4,1.9-1.1,2.5
		s-1.7,0.9-2.9,0.9c-0.3,0-0.6,0-0.9-0.1c-0.7,0.4-1,0.8-1,1.4c0,0.3,0.1,0.5,0.4,0.6s0.7,0.2,1.2,0.2h1.9c1.2,0,2,0.2,2.7,0.7
		s0.9,1.2,0.9,2.1c0,1.2-0.5,2.1-1.4,2.7s-2.3,0.9-4.2,0.9c-1.4,0-2.5-0.3-3.2-0.8s-1.1-1.3-1.1-2.2c0-0.7,0.2-1.2,0.6-1.7
		s1-0.8,1.8-1c-0.3-0.1-0.5-0.3-0.7-0.6s-0.3-0.6-0.3-0.9c0-0.4,0.1-0.7,0.3-1s0.5-0.6,1-0.8c-0.6-0.2-1-0.6-1.4-1.2
		s-0.5-1.2-0.5-1.9c0-1.2,0.4-2.1,1.1-2.7s1.7-1,3-1c0.6,0,1.1,0.1,1.5,0.2H471.8z M463.2,473.9c0,0.6,0.2,1,0.7,1.3
		s1.2,0.4,2.1,0.4c1.4,0,2.4-0.2,3-0.6s1-1,1-1.7c0-0.6-0.2-1-0.5-1.2s-1-0.3-2-0.3h-1.9c-0.7,0-1.3,0.2-1.7,0.5
		S463.2,473.3,463.2,473.9z M464.1,464.9c0,0.7,0.2,1.3,0.6,1.7s1,0.6,1.8,0.6c1.6,0,2.4-0.8,2.4-2.3c0-1.6-0.8-2.4-2.4-2.4
		c-0.8,0-1.3,0.2-1.8,0.6S464.1,464.1,464.1,464.9z"/>
	<path class="st32" d="M473.8,458.5c0-0.4,0.1-0.6,0.3-0.8c0.2-0.2,0.4-0.3,0.7-0.3c0.3,0,0.5,0.1,0.7,0.3s0.3,0.4,0.3,0.8
		c0,0.4-0.1,0.6-0.3,0.8c-0.2,0.2-0.4,0.3-0.7,0.3c-0.3,0-0.5-0.1-0.7-0.3C473.9,459.2,473.8,458.9,473.8,458.5z M475.6,472.2H474
		v-10.7h1.6V472.2z"/>
	<path class="st32" d="M486.4,472.2v-6.9c0-0.9-0.2-1.5-0.6-2s-1-0.6-1.9-0.6c-1.1,0-1.9,0.3-2.5,0.9s-0.8,1.6-0.8,3v5.6H479v-10.7
		h1.3l0.3,1.5h0.1c0.3-0.5,0.8-0.9,1.4-1.2c0.6-0.3,1.3-0.4,2-0.4c1.3,0,2.3,0.3,2.9,0.9c0.7,0.6,1,1.6,1,3v7H486.4z"/>
	<path class="st32" d="M495.8,472.3c-1.6,0-2.8-0.5-3.7-1.4s-1.4-2.3-1.4-4c0-1.7,0.4-3.1,1.3-4.1s2-1.5,3.4-1.5
		c1.3,0,2.4,0.4,3.2,1.3c0.8,0.9,1.2,2,1.2,3.5v1h-7.4c0,1.3,0.4,2.2,1,2.9s1.5,1,2.5,1c1.2,0,2.3-0.2,3.4-0.7v1.4
		c-0.6,0.2-1.1,0.4-1.6,0.5S496.6,472.3,495.8,472.3z M495.4,462.6c-0.9,0-1.5,0.3-2.1,0.8c-0.5,0.6-0.8,1.3-0.9,2.3h5.6
		c0-1-0.2-1.8-0.7-2.3C496.9,462.9,496.2,462.6,495.4,462.6z"/>
</g>
<g>
	<path class="st32" d="M562.3,464.9c0,2.4-0.6,4.2-1.9,5.4s-3.1,1.9-5.5,1.9h-4v-14.3h4.4c2.2,0,3.9,0.6,5.2,1.8
		S562.3,462.7,562.3,464.9z M560.6,464.9c0-1.9-0.5-3.3-1.4-4.2c-0.9-0.9-2.3-1.4-4.2-1.4h-2.4v11.4h2c2,0,3.5-0.5,4.5-1.5
		S560.6,466.8,560.6,464.9z"/>
	<path class="st32" d="M569.8,472.3c-1.6,0-2.8-0.5-3.7-1.4c-0.9-1-1.4-2.3-1.4-4c0-1.7,0.4-3.1,1.3-4.1s2-1.5,3.4-1.5
		c1.3,0,2.4,0.4,3.2,1.3c0.8,0.9,1.2,2,1.2,3.5v1h-7.4c0,1.3,0.3,2.2,1,2.9c0.6,0.7,1.5,1,2.5,1c1.2,0,2.3-0.2,3.4-0.7v1.4
		c-0.6,0.2-1.1,0.4-1.6,0.5C571.1,472.3,570.5,472.3,569.8,472.3z M569.4,462.6c-0.9,0-1.5,0.3-2.1,0.8c-0.5,0.6-0.8,1.3-0.9,2.3
		h5.6c0-1-0.2-1.8-0.7-2.3C570.9,462.9,570.2,462.6,569.4,462.6z"/>
	<path class="st32" d="M580.8,472.3c-1.5,0-2.7-0.5-3.6-1.4s-1.3-2.3-1.3-4c0-1.8,0.4-3.2,1.3-4.2c0.9-1,2.1-1.5,3.7-1.5
		c0.5,0,1,0.1,1.5,0.2c0.5,0.1,0.9,0.2,1.2,0.4l-0.5,1.4c-0.4-0.1-0.7-0.3-1.2-0.4c-0.4-0.1-0.8-0.1-1.1-0.1c-2.2,0-3.3,1.4-3.3,4.2
		c0,1.3,0.3,2.3,0.8,3c0.5,0.7,1.3,1.1,2.4,1.1c0.9,0,1.8-0.2,2.7-0.6v1.4C582.8,472.2,581.9,472.3,580.8,472.3z"/>
	<path class="st32" d="M585.9,458.5c0-0.4,0.1-0.6,0.3-0.8c0.2-0.2,0.4-0.3,0.7-0.3c0.3,0,0.5,0.1,0.7,0.3c0.2,0.2,0.3,0.4,0.3,0.8
		c0,0.4-0.1,0.6-0.3,0.8c-0.2,0.2-0.4,0.3-0.7,0.3c-0.3,0-0.5-0.1-0.7-0.3C586,459.2,585.9,458.9,585.9,458.5z M587.6,472.2H586
		v-10.7h1.6V472.2z"/>
	<path class="st32" d="M598,469.2c0,1-0.4,1.8-1.1,2.3s-1.8,0.8-3.1,0.8c-1.4,0-2.5-0.2-3.3-0.7v-1.5c0.5,0.3,1.1,0.5,1.7,0.6
		c0.6,0.1,1.2,0.2,1.7,0.2c0.8,0,1.5-0.1,2-0.4c0.5-0.3,0.7-0.7,0.7-1.2c0-0.4-0.2-0.8-0.5-1.1s-1.1-0.6-2.1-1c-1-0.4-1.7-0.7-2.1-1
		s-0.7-0.6-0.9-0.9s-0.3-0.8-0.3-1.3c0-0.9,0.4-1.6,1.1-2.1c0.7-0.5,1.7-0.8,2.9-0.8c1.2,0,2.3,0.2,3.4,0.7l-0.6,1.3
		c-1.1-0.4-2-0.7-2.9-0.7c-0.8,0-1.3,0.1-1.7,0.4c-0.4,0.2-0.6,0.6-0.6,1c0,0.3,0.1,0.5,0.2,0.7c0.1,0.2,0.4,0.4,0.7,0.6
		c0.3,0.2,1,0.4,1.9,0.8c1.3,0.5,2.1,0.9,2.6,1.4C597.8,467.9,598,468.5,598,469.2z"/>
	<path class="st32" d="M600.5,458.5c0-0.4,0.1-0.6,0.3-0.8c0.2-0.2,0.4-0.3,0.7-0.3c0.3,0,0.5,0.1,0.7,0.3c0.2,0.2,0.3,0.4,0.3,0.8
		c0,0.4-0.1,0.6-0.3,0.8c-0.2,0.2-0.4,0.3-0.7,0.3c-0.3,0-0.5-0.1-0.7-0.3C600.6,459.2,600.5,458.9,600.5,458.5z M602.2,472.2h-1.6
		v-10.7h1.6V472.2z"/>
	<path class="st32" d="M614.9,466.8c0,1.7-0.4,3.1-1.3,4.1s-2.1,1.5-3.6,1.5c-1,0-1.8-0.2-2.5-0.7s-1.3-1.1-1.7-1.9
		c-0.4-0.8-0.6-1.8-0.6-2.9c0-1.7,0.4-3.1,1.3-4.1c0.9-1,2.1-1.5,3.6-1.5c1.5,0,2.7,0.5,3.6,1.5
		C614.5,463.7,614.9,465.1,614.9,466.8z M606.8,466.8c0,1.4,0.3,2.4,0.8,3.1s1.4,1.1,2.4,1.1c1.1,0,1.9-0.4,2.4-1.1
		c0.5-0.7,0.8-1.8,0.8-3.1c0-1.4-0.3-2.4-0.8-3.1c-0.6-0.7-1.4-1.1-2.4-1.1c-1.1,0-1.9,0.3-2.4,1C607,464.4,606.8,465.4,606.8,466.8
		z"/>
	<path class="st32" d="M625.1,472.2v-6.9c0-0.9-0.2-1.5-0.6-2c-0.4-0.4-1-0.6-1.9-0.6c-1.1,0-1.9,0.3-2.5,0.9
		c-0.5,0.6-0.8,1.6-0.8,3v5.6h-1.6v-10.7h1.3l0.3,1.5h0.1c0.3-0.5,0.8-0.9,1.4-1.2c0.6-0.3,1.3-0.4,2-0.4c1.3,0,2.3,0.3,2.9,0.9
		c0.7,0.6,1,1.6,1,3v7H625.1z"/>
	<path class="st32" d="M643.4,472.2h-8v-14.3h8v1.5h-6.3v4.6h5.9v1.5h-5.9v5.3h6.3V472.2z"/>
	<path class="st32" d="M653.7,472.2v-6.9c0-0.9-0.2-1.5-0.6-2c-0.4-0.4-1-0.6-1.9-0.6c-1.1,0-1.9,0.3-2.5,0.9
		c-0.5,0.6-0.8,1.6-0.8,3v5.6h-1.6v-10.7h1.3l0.3,1.5h0.1c0.3-0.5,0.8-0.9,1.4-1.2c0.6-0.3,1.3-0.4,2-0.4c1.3,0,2.3,0.3,2.9,0.9
		c0.7,0.6,1,1.6,1,3v7H653.7z"/>
	<path class="st32" d="M667.4,461.4v1l-2,0.2c0.2,0.2,0.3,0.5,0.5,0.9c0.1,0.4,0.2,0.8,0.2,1.2c0,1-0.4,1.9-1.1,2.5
		c-0.7,0.6-1.7,0.9-2.9,0.9c-0.3,0-0.6,0-0.9-0.1c-0.7,0.4-1,0.8-1,1.4c0,0.3,0.1,0.5,0.4,0.6c0.2,0.1,0.7,0.2,1.2,0.2h1.9
		c1.2,0,2,0.2,2.7,0.7c0.6,0.5,0.9,1.2,0.9,2.1c0,1.2-0.5,2.1-1.4,2.7c-1,0.6-2.3,0.9-4.2,0.9c-1.4,0-2.5-0.3-3.2-0.8
		c-0.8-0.5-1.1-1.3-1.1-2.2c0-0.7,0.2-1.2,0.6-1.7c0.4-0.5,1-0.8,1.8-1c-0.3-0.1-0.5-0.3-0.7-0.6s-0.3-0.6-0.3-0.9
		c0-0.4,0.1-0.7,0.3-1c0.2-0.3,0.5-0.6,1-0.8c-0.6-0.2-1-0.6-1.4-1.2c-0.3-0.5-0.5-1.2-0.5-1.9c0-1.2,0.4-2.1,1.1-2.7s1.7-1,3-1
		c0.6,0,1.1,0.1,1.5,0.2H667.4z M658.9,473.9c0,0.6,0.2,1,0.7,1.3s1.2,0.4,2.1,0.4c1.4,0,2.4-0.2,3-0.6s1-1,1-1.7
		c0-0.6-0.2-1-0.5-1.2c-0.4-0.2-1-0.3-2-0.3h-1.9c-0.7,0-1.3,0.2-1.7,0.5S658.9,473.3,658.9,473.9z M659.7,464.9
		c0,0.7,0.2,1.3,0.6,1.7c0.4,0.4,1,0.6,1.8,0.6c1.6,0,2.4-0.8,2.4-2.3c0-1.6-0.8-2.4-2.4-2.4c-0.8,0-1.3,0.2-1.8,0.6
		S659.7,464.1,659.7,464.9z"/>
	<path class="st32" d="M669.4,458.5c0-0.4,0.1-0.6,0.3-0.8c0.2-0.2,0.4-0.3,0.7-0.3c0.3,0,0.5,0.1,0.7,0.3c0.2,0.2,0.3,0.4,0.3,0.8
		c0,0.4-0.1,0.6-0.3,0.8c-0.2,0.2-0.4,0.3-0.7,0.3c-0.3,0-0.5-0.1-0.7-0.3C669.5,459.2,669.4,458.9,669.4,458.5z M671.2,472.2h-1.6
		v-10.7h1.6V472.2z"/>
	<path class="st32" d="M682,472.2v-6.9c0-0.9-0.2-1.5-0.6-2c-0.4-0.4-1-0.6-1.9-0.6c-1.1,0-1.9,0.3-2.5,0.9c-0.5,0.6-0.8,1.6-0.8,3
		v5.6h-1.6v-10.7h1.3l0.3,1.5h0.1c0.3-0.5,0.8-0.9,1.4-1.2c0.6-0.3,1.3-0.4,2-0.4c1.3,0,2.3,0.3,2.9,0.9c0.7,0.6,1,1.6,1,3v7H682z"
		/>
	<path class="st32" d="M691.4,472.3c-1.6,0-2.8-0.5-3.7-1.4c-0.9-1-1.4-2.3-1.4-4c0-1.7,0.4-3.1,1.3-4.1s2-1.5,3.4-1.5
		c1.3,0,2.4,0.4,3.2,1.3c0.8,0.9,1.2,2,1.2,3.5v1H688c0,1.3,0.3,2.2,1,2.9c0.6,0.7,1.5,1,2.5,1c1.2,0,2.3-0.2,3.4-0.7v1.4
		c-0.6,0.2-1.1,0.4-1.6,0.5C692.8,472.3,692.2,472.3,691.4,472.3z M691,462.6c-0.9,0-1.5,0.3-2.1,0.8c-0.5,0.6-0.8,1.3-0.9,2.3h5.6
		c0-1-0.2-1.8-0.7-2.3C692.5,462.9,691.8,462.6,691,462.6z"/>
</g>
<g>
	<path class="st32" d="M517.8,240.9l-1.8-4.5h-5.7l-1.8,4.5h-1.7l5.6-14.3h1.4l5.6,14.3H517.8z M515.5,234.9l-1.7-4.4
		c-0.2-0.6-0.4-1.2-0.7-2.1c-0.1,0.6-0.3,1.3-0.6,2.1l-1.7,4.4H515.5z"/>
	<path class="st32" d="M530.5,230.8c0,1.4-0.5,2.6-1.5,3.3c-1,0.8-2.4,1.2-4.2,1.2h-1.7v5.6h-1.7v-14.3h3.7
		C528.8,226.6,530.5,228,530.5,230.8z M523.1,233.9h1.5c1.5,0,2.5-0.2,3.2-0.7s1-1.2,1-2.3c0-0.9-0.3-1.6-0.9-2.1s-1.6-0.7-2.9-0.7
		h-1.9V233.9z"/>
	<path class="st32" d="M533.5,240.9v-14.3h1.7v14.3H533.5z"/>
</g>
<g>
	<path class="st32" d="M722.6,23.9l-1.8-4.5h-5.7l-1.8,4.5h-1.7l5.6-14.3h1.4l5.6,14.3H722.6z M720.3,17.9l-1.7-4.4
		c-0.2-0.6-0.4-1.2-0.7-2.1c-0.1,0.6-0.3,1.3-0.6,2.1l-1.7,4.4H720.3z"/>
	<path class="st32" d="M733.3,22.5L733.3,22.5c-0.8,1.1-2,1.6-3.4,1.6c-1.4,0-2.5-0.5-3.3-1.4c-0.8-1-1.2-2.3-1.2-4.1
		c0-1.8,0.4-3.1,1.2-4.1s1.9-1.5,3.3-1.5c1.5,0,2.6,0.5,3.3,1.6h0.1l-0.1-0.8l0-0.8V8.7h1.6v15.2h-1.3L733.3,22.5z M730,22.7
		c1.1,0,1.9-0.3,2.4-0.9s0.7-1.6,0.7-2.9v-0.3c0-1.5-0.3-2.6-0.8-3.2c-0.5-0.6-1.3-1-2.4-1c-1,0-1.7,0.4-2.2,1.1
		c-0.5,0.7-0.8,1.8-0.8,3.1c0,1.4,0.3,2.4,0.8,3.1C728.3,22.4,729.1,22.7,730,22.7z"/>
	<path class="st32" d="M751.9,23.9v-7c0-0.9-0.2-1.5-0.5-1.9c-0.4-0.4-0.9-0.6-1.7-0.6c-1,0-1.8,0.3-2.2,0.9
		c-0.5,0.6-0.7,1.5-0.7,2.7v6h-1.6v-7c0-0.9-0.2-1.5-0.5-1.9c-0.4-0.4-0.9-0.6-1.7-0.6c-1,0-1.8,0.3-2.2,0.9c-0.5,0.6-0.7,1.6-0.7,3
		v5.6h-1.6V13.2h1.3l0.3,1.5h0.1c0.3-0.5,0.7-0.9,1.3-1.2s1.2-0.4,1.9-0.4c1.7,0,2.8,0.6,3.3,1.8h0.1c0.3-0.6,0.8-1,1.4-1.3
		s1.3-0.5,2.1-0.5c1.2,0,2.1,0.3,2.7,0.9c0.6,0.6,0.9,1.6,0.9,3v7H751.9z"/>
	<path class="st32" d="M756.7,10.3c0-0.4,0.1-0.6,0.3-0.8c0.2-0.2,0.4-0.3,0.7-0.3c0.3,0,0.5,0.1,0.7,0.3c0.2,0.2,0.3,0.4,0.3,0.8
		s-0.1,0.6-0.3,0.8c-0.2,0.2-0.4,0.3-0.7,0.3c-0.3,0-0.5-0.1-0.7-0.3C756.8,10.9,756.7,10.7,756.7,10.3z M758.5,23.9h-1.6V13.2h1.6
		V23.9z"/>
	<path class="st32" d="M769.2,23.9V17c0-0.9-0.2-1.5-0.6-2c-0.4-0.4-1-0.6-1.9-0.6c-1.1,0-1.9,0.3-2.5,0.9c-0.5,0.6-0.8,1.6-0.8,3
		v5.6h-1.6V13.2h1.3l0.3,1.5h0.1c0.3-0.5,0.8-0.9,1.4-1.2c0.6-0.3,1.3-0.4,2-0.4c1.3,0,2.3,0.3,2.9,0.9c0.7,0.6,1,1.6,1,3v7H769.2z"
		/>
</g>
<g>
	<path class="st32" d="M934.3,16.7c0,2.3-0.6,4.1-1.7,5.4c-1.2,1.3-2.8,2-4.8,2c-2.1,0-3.7-0.6-4.9-1.9s-1.7-3.1-1.7-5.4
		c0-2.3,0.6-4.1,1.7-5.4c1.1-1.3,2.8-1.9,4.9-1.9c2.1,0,3.7,0.7,4.8,2S934.3,14.5,934.3,16.7z M922.9,16.7c0,1.9,0.4,3.4,1.2,4.4
		c0.8,1,2,1.5,3.6,1.5c1.6,0,2.8-0.5,3.6-1.5c0.8-1,1.2-2.5,1.2-4.4c0-1.9-0.4-3.4-1.2-4.4c-0.8-1-2-1.5-3.6-1.5
		c-1.6,0-2.8,0.5-3.6,1.5C923.3,13.4,922.9,14.8,922.9,16.7z"/>
	<path class="st32" d="M942.2,24.1c-0.7,0-1.3-0.1-1.9-0.4s-1.1-0.7-1.4-1.2h-0.1c0.1,0.6,0.1,1.2,0.1,1.8v4.4h-1.6V13.2h1.3
		l0.2,1.5h0.1c0.4-0.6,0.9-1,1.5-1.3c0.6-0.3,1.2-0.4,1.9-0.4c1.4,0,2.5,0.5,3.3,1.5s1.2,2.3,1.2,4.1c0,1.8-0.4,3.1-1.2,4.1
		C944.7,23.6,943.6,24.1,942.2,24.1z M942,14.4c-1.1,0-1.9,0.3-2.4,0.9s-0.7,1.6-0.8,2.9v0.4c0,1.5,0.2,2.6,0.8,3.2
		c0.5,0.6,1.3,1,2.4,1c0.9,0,1.6-0.4,2.2-1.1c0.5-0.7,0.8-1.8,0.8-3.1c0-1.3-0.3-2.4-0.8-3.1C943.7,14.7,943,14.4,942,14.4z"/>
	<path class="st32" d="M953,22.8c0.3,0,0.6,0,0.8-0.1c0.3,0,0.5-0.1,0.6-0.1v1.2c-0.2,0.1-0.4,0.2-0.8,0.2s-0.6,0.1-0.9,0.1
		c-2.1,0-3.1-1.1-3.1-3.3v-6.4h-1.5v-0.8l1.5-0.7l0.7-2.3h0.9v2.5h3.1v1.3h-3.1v6.3c0,0.6,0.2,1.1,0.5,1.5
		C952,22.6,952.4,22.8,953,22.8z"/>
	<path class="st32" d="M956.4,10.3c0-0.4,0.1-0.6,0.3-0.8c0.2-0.2,0.4-0.3,0.7-0.3c0.3,0,0.5,0.1,0.7,0.3c0.2,0.2,0.3,0.4,0.3,0.8
		s-0.1,0.6-0.3,0.8c-0.2,0.2-0.4,0.3-0.7,0.3c-0.3,0-0.5-0.1-0.7-0.3C956.5,10.9,956.4,10.7,956.4,10.3z M958.2,23.9h-1.6V13.2h1.6
		V23.9z"/>
	<path class="st32" d="M975.3,23.9v-7c0-0.9-0.2-1.5-0.5-1.9c-0.4-0.4-0.9-0.6-1.7-0.6c-1,0-1.8,0.3-2.2,0.9
		c-0.5,0.6-0.7,1.5-0.7,2.7v6h-1.6v-7c0-0.9-0.2-1.5-0.5-1.9c-0.4-0.4-0.9-0.6-1.7-0.6c-1,0-1.8,0.3-2.2,0.9c-0.5,0.6-0.7,1.6-0.7,3
		v5.6h-1.6V13.2h1.3l0.3,1.5h0.1c0.3-0.5,0.7-0.9,1.3-1.2s1.2-0.4,1.9-0.4c1.7,0,2.8,0.6,3.3,1.8h0.1c0.3-0.6,0.8-1,1.4-1.3
		s1.3-0.5,2.1-0.5c1.2,0,2.1,0.3,2.7,0.9c0.6,0.6,0.9,1.6,0.9,3v7H975.3z"/>
	<path class="st32" d="M980.1,10.3c0-0.4,0.1-0.6,0.3-0.8c0.2-0.2,0.4-0.3,0.7-0.3c0.3,0,0.5,0.1,0.7,0.3c0.2,0.2,0.3,0.4,0.3,0.8
		s-0.1,0.6-0.3,0.8c-0.2,0.2-0.4,0.3-0.7,0.3c-0.3,0-0.5-0.1-0.7-0.3C980.2,10.9,980.1,10.7,980.1,10.3z M981.9,23.9h-1.6V13.2h1.6
		V23.9z"/>
	<path class="st32" d="M992.1,23.9h-7.8v-1.1l5.8-8.3h-5.5v-1.3h7.3v1.3l-5.8,8.2h5.9V23.9z"/>
	<path class="st32" d="M999.2,24.1c-1.6,0-2.8-0.5-3.7-1.4c-0.9-1-1.4-2.3-1.4-4c0-1.7,0.4-3.1,1.3-4.1s2-1.5,3.4-1.5
		c1.3,0,2.4,0.4,3.2,1.3s1.2,2,1.2,3.5v1h-7.4c0,1.3,0.3,2.2,1,2.9c0.6,0.7,1.5,1,2.5,1c1.2,0,2.3-0.2,3.4-0.7v1.4
		c-0.6,0.2-1.1,0.4-1.6,0.5C1000.5,24,999.9,24.1,999.2,24.1z M998.7,14.4c-0.9,0-1.5,0.3-2.1,0.8c-0.5,0.6-0.8,1.3-0.9,2.3h5.6
		c0-1-0.2-1.8-0.7-2.3C1000.2,14.6,999.6,14.4,998.7,14.4z"/>
</g>
<g>
	<g>
		<line class="st2" x1="422.4" y1="254" x2="422.4" y2="256.5"/>
		<line class="st33" x1="422.4" y1="261.6" x2="422.4" y2="300.2"/>
		<line class="st2" x1="422.4" y1="302.8" x2="422.4" y2="305.3"/>
	</g>
</g>
<g>
	<g>
		<line class="st2" x1="622.7" y1="254" x2="622.7" y2="256.5"/>
		<line class="st33" x1="622.7" y1="261.6" x2="622.7" y2="300.2"/>
		<line class="st2" x1="622.7" y1="302.8" x2="622.7" y2="305.3"/>
	</g>
</g>
<g>
	<g>
		<path class="st32" d="M172.4,545l-4.1-11.9h-0.1c0.1,1.8,0.2,3.4,0.2,5v6.9h-2.1v-14.3h3.3l4,11.4h0.1l4.1-11.4h3.3V545h-2.2v-7.1
			c0-0.7,0-1.6,0.1-2.8c0-1.1,0.1-1.8,0.1-2.1h-0.1l-4.3,11.9H172.4z"/>
		<path class="st32" d="M194.1,539.6c0,1.8-0.5,3.1-1.4,4.1s-2.2,1.5-3.8,1.5c-1,0-1.9-0.2-2.7-0.7s-1.4-1.1-1.8-2s-0.6-1.8-0.6-3
			c0-1.8,0.4-3.1,1.3-4.1c0.9-1,2.2-1.5,3.8-1.5c1.6,0,2.8,0.5,3.7,1.5S194.1,537.9,194.1,539.6z M186.2,539.6
			c0,2.5,0.9,3.7,2.8,3.7c1.8,0,2.7-1.2,2.7-3.7c0-2.5-0.9-3.7-2.8-3.7c-1,0-1.7,0.3-2.1,1C186.4,537.5,186.2,538.4,186.2,539.6z"/>
		<path class="st32" d="M200.3,545.2c-1.3,0-2.4-0.5-3.2-1.5s-1.1-2.3-1.1-4.1c0-1.8,0.4-3.1,1.1-4.1s1.8-1.5,3.2-1.5
			c1.4,0,2.5,0.5,3.2,1.6h0.1c-0.1-0.8-0.2-1.4-0.2-1.8v-3.9h2.3V545h-1.8l-0.4-1.4h-0.1C202.8,544.6,201.8,545.2,200.3,545.2z
			 M201,543.3c0.9,0,1.6-0.3,2.1-0.8s0.7-1.4,0.7-2.6v-0.3c0-1.4-0.2-2.3-0.7-2.9c-0.4-0.6-1.1-0.9-2.1-0.9c-0.8,0-1.4,0.3-1.9,1
			s-0.7,1.6-0.7,2.8c0,1.2,0.2,2.1,0.6,2.7S200.1,543.3,201,543.3z"/>
		<path class="st32" d="M213.9,545.2c-1.7,0-3-0.5-3.9-1.5s-1.4-2.3-1.4-4c0-1.8,0.4-3.2,1.3-4.2c0.9-1,2.1-1.5,3.6-1.5
			c1.4,0,2.6,0.4,3.4,1.3c0.8,0.9,1.2,2.1,1.2,3.6v1.2h-7.2c0,1,0.3,1.9,0.8,2.4s1.3,0.8,2.3,0.8c0.6,0,1.2-0.1,1.8-0.2
			s1.1-0.3,1.8-0.6v1.9c-0.6,0.3-1.1,0.5-1.7,0.6S214.6,545.2,213.9,545.2z M213.5,535.7c-0.7,0-1.3,0.2-1.8,0.7
			c-0.4,0.5-0.7,1.1-0.8,2h4.9c0-0.9-0.2-1.6-0.6-2S214.2,535.7,213.5,535.7z"/>
		<path class="st32" d="M223,545h-2.3v-15.2h2.3V545z"/>
	</g>
	<g>
		<path class="st32" d="M488.1,545h-8.1v-14.3h8.1v2h-5.7v3.9h5.4v2h-5.4v4.5h5.7V545z"/>
		<path class="st32" d="M493.4,539.5l-3.6-5.3h2.6l2.5,3.8l2.5-3.8h2.6l-3.6,5.3l3.8,5.5h-2.6l-2.7-4l-2.7,4h-2.6L493.4,539.5z"/>
		<path class="st32" d="M506.7,545.2c-1.7,0-3-0.5-3.9-1.5s-1.4-2.3-1.4-4c0-1.8,0.4-3.2,1.3-4.2c0.9-1,2.1-1.5,3.6-1.5
			c1.4,0,2.6,0.4,3.4,1.3c0.8,0.9,1.2,2.1,1.2,3.6v1.2h-7.2c0,1,0.3,1.9,0.8,2.4s1.3,0.8,2.3,0.8c0.6,0,1.2-0.1,1.8-0.2
			s1.1-0.3,1.8-0.6v1.9c-0.6,0.3-1.1,0.5-1.7,0.6S507.4,545.2,506.7,545.2z M506.3,535.7c-0.7,0-1.3,0.2-1.8,0.7
			c-0.4,0.5-0.7,1.1-0.8,2h4.9c0-0.9-0.2-1.6-0.6-2S507,535.7,506.3,535.7z"/>
		<path class="st32" d="M517.9,545.2c-1.6,0-2.9-0.5-3.7-1.4s-1.3-2.3-1.3-4.1c0-1.8,0.4-3.2,1.3-4.2s2.2-1.5,3.9-1.5
			c1.1,0,2.2,0.2,3.1,0.6l-0.7,1.8c-1-0.4-1.8-0.6-2.4-0.6c-1.9,0-2.8,1.2-2.8,3.7c0,1.2,0.2,2.1,0.7,2.7s1.1,0.9,2,0.9
			c1,0,2-0.3,2.9-0.8v2c-0.4,0.2-0.8,0.4-1.3,0.5S518.5,545.2,517.9,545.2z"/>
		<path class="st32" d="M531,545l-0.3-1.4h-0.1c-0.3,0.5-0.8,0.9-1.4,1.2s-1.3,0.4-2,0.4c-1.3,0-2.3-0.3-2.9-1s-1-1.6-1-3v-7.1h2.3
			v6.7c0,0.8,0.2,1.4,0.5,1.9s0.9,0.6,1.6,0.6c1,0,1.7-0.3,2.1-0.9s0.7-1.5,0.7-2.9v-5.4h2.3V545H531z"/>
		<path class="st32" d="M540.1,543.3c0.6,0,1.1-0.1,1.7-0.3v1.7c-0.3,0.1-0.6,0.2-1,0.3s-0.8,0.1-1.2,0.1c-2.2,0-3.3-1.1-3.3-3.4
			v-5.8h-1.5v-1l1.6-0.8l0.8-2.3h1.4v2.4h3.1v1.7h-3.1v5.8c0,0.6,0.1,1,0.4,1.2C539.3,543.2,539.7,543.3,540.1,543.3z"/>
		<path class="st32" d="M548.7,545.2c-1.7,0-3-0.5-3.9-1.5s-1.4-2.3-1.4-4c0-1.8,0.4-3.2,1.3-4.2c0.9-1,2.1-1.5,3.6-1.5
			c1.4,0,2.6,0.4,3.4,1.3c0.8,0.9,1.2,2.1,1.2,3.6v1.2h-7.2c0,1,0.3,1.9,0.8,2.4c0.5,0.6,1.3,0.8,2.3,0.8c0.6,0,1.2-0.1,1.8-0.2
			c0.6-0.1,1.1-0.3,1.8-0.6v1.9c-0.6,0.3-1.1,0.5-1.7,0.6C550.1,545.1,549.4,545.2,548.7,545.2z M548.3,535.7
			c-0.7,0-1.3,0.2-1.8,0.7c-0.4,0.5-0.7,1.1-0.8,2h4.9c0-0.9-0.2-1.6-0.6-2C549.6,536,549,535.7,548.3,535.7z"/>
	</g>
	<g>
		<path class="st32" d="M808.1,545v-14.3h2.3V545H808.1z"/>
		<path class="st32" d="M823,545h-2.3v-6.7c0-0.8-0.2-1.4-0.5-1.9c-0.3-0.4-0.8-0.6-1.5-0.6c-0.9,0-1.5,0.3-1.9,0.9
			c-0.4,0.6-0.6,1.5-0.6,2.9v5.4h-2.3v-10.8h1.8l0.3,1.4h0.1c0.3-0.5,0.7-0.9,1.3-1.2c0.6-0.3,1.2-0.4,1.9-0.4
			c1.7,0,2.8,0.6,3.3,1.7h0.2c0.3-0.5,0.8-1,1.3-1.2c0.6-0.3,1.2-0.4,2-0.4c1.3,0,2.2,0.3,2.8,1c0.6,0.7,0.9,1.6,0.9,3v7h-2.3v-6.7
			c0-0.8-0.2-1.4-0.5-1.9c-0.3-0.4-0.8-0.6-1.5-0.6c-0.9,0-1.5,0.3-2,0.8c-0.4,0.6-0.6,1.4-0.6,2.6V545z"/>
		<path class="st32" d="M838.5,545.2c-1.4,0-2.4-0.5-3.2-1.5h-0.1c0.1,0.9,0.1,1.5,0.1,1.7v4.4h-2.3v-15.6h1.9
			c0.1,0.2,0.2,0.7,0.3,1.4h0.1c0.7-1.1,1.8-1.6,3.2-1.6c1.3,0,2.4,0.5,3.1,1.5s1.1,2.3,1.1,4.1s-0.4,3.1-1.1,4.1
			C840.9,544.7,839.9,545.2,838.5,545.2z M838,535.9c-0.9,0-1.6,0.3-2,0.8c-0.4,0.5-0.6,1.4-0.6,2.6v0.3c0,1.3,0.2,2.3,0.6,2.9
			c0.4,0.6,1.1,0.9,2,0.9c0.8,0,1.4-0.3,1.8-1s0.6-1.6,0.6-2.8c0-1.2-0.2-2.1-0.6-2.7C839.4,536.2,838.8,535.9,838,535.9z"/>
		<path class="st32" d="M851,534c0.5,0,0.8,0,1.1,0.1l-0.2,2.1c-0.3-0.1-0.7-0.1-1-0.1c-0.9,0-1.7,0.3-2.2,0.9
			c-0.6,0.6-0.9,1.4-0.9,2.3v5.6h-2.3v-10.8h1.8l0.3,1.9h0.1c0.4-0.6,0.8-1.2,1.4-1.5C849.7,534.2,850.3,534,851,534z"/>
		<path class="st32" d="M863.7,539.6c0,1.8-0.5,3.1-1.4,4.1c-0.9,1-2.2,1.5-3.8,1.5c-1,0-1.9-0.2-2.7-0.7c-0.8-0.5-1.4-1.1-1.8-2
			c-0.4-0.9-0.6-1.8-0.6-3c0-1.8,0.4-3.1,1.3-4.1c0.9-1,2.2-1.5,3.8-1.5c1.6,0,2.8,0.5,3.7,1.5C863.3,536.5,863.7,537.9,863.7,539.6
			z M855.9,539.6c0,2.5,0.9,3.7,2.8,3.7c1.8,0,2.7-1.2,2.7-3.7c0-2.5-0.9-3.7-2.8-3.7c-1,0-1.7,0.3-2.1,1
			C856.1,537.5,855.9,538.4,855.9,539.6z"/>
		<path class="st32" d="M868.8,545l-4.1-10.8h2.4l2.2,6.3c0.4,1.1,0.6,1.9,0.7,2.6h0.1c0.1-0.5,0.3-1.3,0.7-2.6l2.2-6.3h2.4
			l-4.1,10.8H868.8z"/>
		<path class="st32" d="M881.8,545.2c-1.7,0-3-0.5-3.9-1.5s-1.4-2.3-1.4-4c0-1.8,0.4-3.2,1.3-4.2c0.9-1,2.1-1.5,3.6-1.5
			c1.4,0,2.6,0.4,3.4,1.3c0.8,0.9,1.2,2.1,1.2,3.6v1.2h-7.2c0,1,0.3,1.9,0.8,2.4c0.5,0.6,1.3,0.8,2.3,0.8c0.6,0,1.2-0.1,1.8-0.2
			c0.5-0.1,1.1-0.3,1.8-0.6v1.9c-0.6,0.3-1.1,0.5-1.7,0.6C883.2,545.1,882.5,545.2,881.8,545.2z M881.4,535.7
			c-0.7,0-1.3,0.2-1.8,0.7c-0.4,0.5-0.7,1.1-0.8,2h4.9c0-0.9-0.2-1.6-0.6-2C882.7,536,882.1,535.7,881.4,535.7z"/>
	</g>
</g>
<polyline class="st34" points="347.2,530.6 355.8,537.8 347.2,544.9 "/>
<polyline class="st34" points="676.5,530.6 685.2,537.8 676.5,544.9 "/>
</svg>
