<?xml version="1.0" encoding="utf-8"?>
<!-- Generator: Adobe Illustrator 21.1.0, SVG Export Plug-In . SVG Version: 6.00 Build 0)  -->
<svg version="1.1" id="Ebene_1" xmlns="http://www.w3.org/2000/svg" xmlns:xlink="http://www.w3.org/1999/xlink" x="0px" y="0px"
	 viewBox="0 0 1072 439.3" style="enable-background:new 0 0 1072 439.3;" xml:space="preserve">
<style type="text/css">
	.st0{clip-path:url(#SVGID_7_);fill:none;stroke:#999999;stroke-miterlimit:10;}
	.st1{clip-path:url(#SVGID_10_);fill:none;stroke:#999999;stroke-miterlimit:10;}
	.st2{fill:none;stroke:#999999;stroke-miterlimit:10;}
	.st3{fill:none;stroke:#333333;stroke-width:2;stroke-miterlimit:10;}
	.st4{fill:none;stroke:#333333;stroke-width:2;stroke-miterlimit:10;stroke-dasharray:5.1075,5.1075;}
	.st5{fill:none;stroke:#333333;stroke-width:2;stroke-miterlimit:10;stroke-dasharray:4.8539,4.8539;}
	.st6{fill:#FFFFFF;stroke:#00A8FF;stroke-width:3;stroke-miterlimit:10;}
	.st7{fill:#FFFFFF;}
	.st8{clip-path:url(#SVGID_13_);fill:none;stroke:#999999;stroke-miterlimit:10;}
	.st9{clip-path:url(#SVGID_15_);fill:none;stroke:#999999;stroke-miterlimit:10;}
	.st10{fill:#00A8FF;}
	.st11{fill:none;stroke:#033333;stroke-width:2;stroke-linecap:round;stroke-miterlimit:10;}
	.st12{fill:#033333;}
	.st13{clip-path:url(#SVGID_17_);fill:none;stroke:#999999;stroke-miterlimit:10;}
	.st14{clip-path:url(#SVGID_19_);fill:none;stroke:#999999;stroke-miterlimit:10;}
	.st15{fill:none;stroke:#00A8FF;stroke-width:3;stroke-miterlimit:10;}
	.st16{fill:#333333;}
	.st17{clip-path:url(#SVGID_21_);fill:none;stroke:#999999;stroke-miterlimit:10;}
	.st18{clip-path:url(#SVGID_23_);fill:none;stroke:#999999;stroke-miterlimit:10;}
	.st19{fill:none;stroke:#999999;stroke-miterlimit:10;stroke-dasharray:4.8571,4.8571;}
	.st20{clip-path:url(#SVGID_25_);fill:none;stroke:#999999;stroke-miterlimit:10;}
	.st21{clip-path:url(#SVGID_27_);fill:none;stroke:#999999;stroke-miterlimit:10;}
	.st22{fill:url(#SVGID_28_);}
	.st23{clip-path:url(#SVGID_30_);fill:none;stroke:#999999;stroke-miterlimit:10;}
	.st24{clip-path:url(#SVGID_32_);fill:none;stroke:#999999;stroke-miterlimit:10;}
	.st25{clip-path:url(#SVGID_34_);fill:none;}
	.st26{clip-path:url(#SVGID_36_);}
	.st27{clip-path:url(#SVGID_38_);fill:none;stroke:#4D4D4D;stroke-width:3;stroke-linecap:round;stroke-miterlimit:10;}
	.st28{clip-path:url(#SVGID_40_);}
	.st29{clip-path:url(#SVGID_42_);fill:none;stroke:#999999;stroke-miterlimit:10;}
	.st30{clip-path:url(#SVGID_44_);fill:none;stroke:#999999;stroke-miterlimit:10;}
	.st31{fill:none;stroke:#999999;stroke-miterlimit:10;stroke-dasharray:5;}
	.st32{fill:none;stroke:#999999;stroke-miterlimit:10;stroke-dasharray:4.8667,4.8667;}
	.st33{enable-background:new    ;}
</style>
<g>
	<g>
		<g>
			<defs>
				<path id="SVGID_5_" d="M85,10.3c-34.6,0-62.7,28.1-62.7,62.7s28.1,62.7,62.7,62.7s62.7-28.1,62.7-62.7S119.6,10.3,85,10.3z"/>
			</defs>
			<clipPath id="SVGID_7_">
				<use xlink:href="#SVGID_5_"  style="overflow:visible;"/>
			</clipPath>
			<circle class="st0" cx="85" cy="73" r="62.7"/>
		</g>
	</g>
	<g>
		<g>
			<defs>
				<path id="SVGID_9_" d="M85,10.3c-34.6,0-62.7,28.1-62.7,62.7s28.1,62.7,62.7,62.7s62.7-28.1,62.7-62.7S119.6,10.3,85,10.3z"/>
			</defs>
			<clipPath id="SVGID_10_">
				<use xlink:href="#SVGID_9_"  style="overflow:visible;"/>
			</clipPath>
			<circle class="st1" cx="85" cy="73" r="62"/>
		</g>
	</g>
	<g>
		<path id="SVGID_1_" class="st2" d="M85,10.3c-34.6,0-62.7,28.1-62.7,62.7s28.1,62.7,62.7,62.7s62.7-28.1,62.7-62.7
			S119.6,10.3,85,10.3z"/>
	</g>
</g>
<g>
	<g>
		<line class="st3" x1="95.9" y1="11.8" x2="95.9" y2="14.3"/>
		<line class="st4" x1="95.9" y1="19.4" x2="95.9" y2="129.2"/>
		<line class="st3" x1="95.9" y1="131.7" x2="95.9" y2="134.2"/>
	</g>
</g>
<g>
	<g>
		<line class="st3" x1="27" y1="54.8" x2="29.5" y2="54.8"/>
		<line class="st5" x1="34.4" y1="54.8" x2="138.8" y2="54.8"/>
		<line class="st3" x1="141.2" y1="54.8" x2="143.7" y2="54.8"/>
	</g>
</g>
<circle class="st6" cx="82.1" cy="70.8" r="24.1"/>
<g>
	<g>
		<path class="st7" d="M77.4,88c-0.6-0.1-1,1.4-1.3,1.9s-0.4,1.1-0.5,1.7c-0.1,0.8-0.1,1.7,0,2.5c0.1,0.7,0.2,1.5,0.4,2.2
			c0.1,0.7,0.3,1.3,0.4,2c0.2,1.2,0.5,2.4,1.2,3.4c0.5,0.7,1.2,1.3,2,1.8c1.9,1.4,4,2.5,6.3,3.1c1.7,0.4,3.5,0.4,5.3,0.4
			c2.3,0,4.7-0.1,6.6-1.5c1-0.8,1.7-1.9,2.4-2.9c0.4-0.6,0.7-1.2,0.9-1.9c0.5-1.5,0.2-3,0.1-4.6c-0.2-3.5,0.4-7.3-1.3-10.5
			c-0.2-0.3-0.4-0.7-0.8-0.6c-0.4,0-0.3,0.5-0.4,0.2c-0.2-1-0.9-0.1-1.7-0.6c-0.5-0.3-1.7,0.9-1.9,0.4c-0.2-0.8-0.3-1.7-0.2-2.5
			c0-0.3,0-0.7-0.2-0.9c-0.3-0.3-1.8,0-2.2,0.3c-1.3,0.7-0.6-0.5-0.6,2.2c0,0.6-0.1,1-0.9,1c-1,0-0.7-1.1-0.8-2.2
			c-0.1-1-0.1-1.9-0.6-2.8c-0.2-0.4-1.5-1.1-2-1c-0.7,0.2-2,0.9-1.9,1.6c0.1,1.1,1.1,2.5,0.7,3.6c-0.2,0.6-1.4,0.6-1.3,1.2
			c0,0.1-0.2-0.7,0-1.4c0.3-1,1-2.7-2.6-2c-0.7,0.1-1.3,0.5-1.4,1.1s0,1.3,0.1,2c0.1,0.9,0,1.9,0,2.8c-0.1,1.3,0.3,2.9-0.7,3.7
			c-0.9,0.7-0.3,1.3-1.5,1.8c0-1.8,1-3.8,1.1-5.6h-2.7V88z"/>
	</g>
	<path d="M98.9,82.7c-0.5,0-1,0-1.6,0c0-0.5-0.5-1.6-1-2.1s-1.3-1-2.8-1c-0.5,0-1,0-1.6,0.3c-0.3-0.5-0.5-0.8-0.8-1.3
		c-0.5-0.5-1.3-1-2.8-1c-2.1,0-3.1,1.3-3.6,2.6c-0.3,0-0.8-0.3-1.3-0.3c-1.3,0-2.1,0.5-2.8,1c-1.3,1.6-1.3,3.6-1.3,3.9v1
		c-1.6,0-2.8,0.5-3.6,1.3c-1.6,1.8-1.6,4.1-1.6,7.2c0,0.5,0,1.3,0,1.8c0,3.6,1.8,5.4,3.6,7.2l0.8,1c3.4,3.1,6.5,4.1,13.2,4.1
		c7.5,0,10.9-4.1,10.9-13.2v-6.5C102.5,87.1,102,83.5,98.9,82.7z M93.4,82.2c1,0,1.3,1,1.3,1.6v2.1c0,0.8,0.5,1.3,1,1.3
		c0.8,0,1.3-0.3,1.3-1c0,0,0-1,1-0.8c1.6,0.5,1.8,2.8,1.8,3.4l0,0v6.7c0,8.8-3.4,10.6-8.3,10.6c-6.2,0-8.5-0.8-11.1-3.4
		c-0.3-0.3-0.5-0.5-1-1c-1.8-1.8-2.8-2.8-2.8-5.4c0-0.5,0-0.8,0-1.6c0-2.6,0-4.7,0.8-5.4c0.3-0.5,1-0.8,1.8-0.8v2.1l-0.8,3.1
		c0,0.3,0,0.3,0.3,0.3c0.3,0.3,0.5,0,0.5,0l2.6-3.1v-0.3v-5.2c0-0.3,0-1.6,0.5-2.1c0.3-0.3,0.5-0.5,1-0.5c0.8,0,1,0.5,1,1v1
		c0,0.5,0.5,1.3,1.3,1.3s1.3-0.8,1.3-1.3v-3.4c0-0.3,0-1.3,1.3-1.3c0.8,0,1.3,0.5,1.3,1.3v3.1c0,0.8,0.5,1.6,1.3,1.6
		s1.3-0.8,1.3-1.3v-1.3C92.2,82.7,92.7,82.2,93.4,82.2z"/>
</g>
<g>
	<g>
		<g>
			<g>
				<defs>
					<path id="SVGID_12_" d="M522,10.3c-34.6,0-62.7,28.1-62.7,62.7s28.1,62.7,62.7,62.7s62.7-28.1,62.7-62.7S556.6,10.3,522,10.3z"
						/>
				</defs>
				<clipPath id="SVGID_13_">
					<use xlink:href="#SVGID_12_"  style="overflow:visible;"/>
				</clipPath>
				<circle class="st8" cx="522" cy="73" r="62.7"/>
			</g>
		</g>
		<g>
			<g>
				<defs>
					<path id="SVGID_14_" d="M522,10.3c-34.6,0-62.7,28.1-62.7,62.7s28.1,62.7,62.7,62.7s62.7-28.1,62.7-62.7S556.6,10.3,522,10.3z"
						/>
				</defs>
				<clipPath id="SVGID_15_">
					<use xlink:href="#SVGID_14_"  style="overflow:visible;"/>
				</clipPath>
				<circle class="st9" cx="522" cy="73" r="62"/>
			</g>
		</g>
		<g>
			<path id="SVGID_4_" class="st2" d="M522,10.3c-34.6,0-62.7,28.1-62.7,62.7s28.1,62.7,62.7,62.7s62.7-28.1,62.7-62.7
				S556.6,10.3,522,10.3z"/>
		</g>
	</g>
	<g>
		<g>
			<path class="st10" d="M522,43.2c16.4,0,29.8,13.4,29.8,29.8s-13.4,29.8-29.8,29.8S492.2,89.4,492.2,73S505.6,43.2,522,43.2
				 M522,40.2c-18.1,0-32.8,14.7-32.8,32.8s14.7,32.8,32.8,32.8s32.8-14.7,32.8-32.8S540.1,40.2,522,40.2L522,40.2z"/>
		</g>
	</g>
	<path class="st10" d="M519.6,75.3c-1.3-1.3-1.3-3.4,0-4.7c1.3-1.3,3.4-1.3,4.7,0s10.8,12.9,9.5,14.2S520.9,76.6,519.6,75.3z"/>
	<line class="st11" x1="522" y1="50.9" x2="522" y2="46.9"/>
	<line class="st11" x1="522.3" y1="95.4" x2="522.3" y2="99.4"/>
	<line class="st11" x1="499.9" y1="73.3" x2="495.9" y2="73.3"/>
	<line class="st11" x1="544.4" y1="73" x2="548.4" y2="73"/>
	<line class="st11" x1="506.3" y1="57.5" x2="503.5" y2="54.7"/>
	<line class="st11" x1="538" y1="88.8" x2="540.9" y2="91.6"/>
	<line class="st11" x1="506.5" y1="89" x2="503.7" y2="91.9"/>
	<line class="st11" x1="537.8" y1="57.3" x2="540.6" y2="54.5"/>
	<circle class="st12" cx="522" cy="73" r="4"/>
</g>
<g>
	<g>
		<g>
			<g>
				<g>
					<defs>
						<path id="SVGID_16_" d="M452.4,245.3c-34.6,0-62.7,28.1-62.7,62.7s28.1,62.7,62.7,62.7s62.7-28.1,62.7-62.7
							S487,245.3,452.4,245.3z"/>
					</defs>
					<clipPath id="SVGID_17_">
						<use xlink:href="#SVGID_16_"  style="overflow:visible;"/>
					</clipPath>
					<circle class="st13" cx="452.4" cy="308" r="62.7"/>
				</g>
			</g>
			<g>
				<g>
					<defs>
						<path id="SVGID_18_" d="M452.4,245.3c-34.6,0-62.7,28.1-62.7,62.7s28.1,62.7,62.7,62.7s62.7-28.1,62.7-62.7
							S487,245.3,452.4,245.3z"/>
					</defs>
					<clipPath id="SVGID_19_">
						<use xlink:href="#SVGID_18_"  style="overflow:visible;"/>
					</clipPath>
					<circle class="st14" cx="452.4" cy="308" r="62"/>
				</g>
			</g>
			<g>
				<path id="SVGID_6_" class="st2" d="M452.4,245.3c-34.6,0-62.7,28.1-62.7,62.7s28.1,62.7,62.7,62.7s62.7-28.1,62.7-62.7
					S487,245.3,452.4,245.3z"/>
			</g>
		</g>
		<path class="st15" d="M477.8,285.8c-0.6-2.4-2.8-4.1-5.4-4.1h-40.1c-2.6,0-4.7,1.7-5.4,4.1c-0.1,0.5-1,3.5-2,7.1
			c-2.7,9.3-2.3,19.3,1.1,28.3l3.2,8.5c0.8,2.5,3.6,4.5,6.2,4.5h33.8c2.6,0,5.4-2,6.2-4.5l3.3-8.7c3.4-9,3.8-18.8,1.2-28
			C478.8,289.4,478,286.4,477.8,285.8z"/>
		<g>
			<g>
				<rect x="447.6" y="292.5" class="st16" width="9.4" height="9.4"/>
			</g>
			<g>
				<path class="st16" d="M452.3,315.7l-5.7-5.7l5.7-5.7l5.7,5.7L452.3,315.7z M447.8,310l4.5,4.5l4.5-4.5l-4.5-4.5L447.8,310z"/>
			</g>
			<g>
				<g>
					<rect x="459" y="314" class="st16" width="9.4" height="9.4"/>
				</g>
				<g>
					<rect x="436.4" y="314" class="st16" width="9.4" height="9.4"/>
				</g>
			</g>
			<g>
				<path class="st16" d="M441.1,314.5c-0.2,0-0.4-0.2-0.4-0.4v-4.1c0-0.2,0.2-0.4,0.4-0.4c0.2,0,0.4,0.2,0.4,0.4v4.1
					C441.4,314.2,441.3,314.5,441.1,314.5z"/>
			</g>
			<g>
				<path class="st16" d="M447.1,310.4h-6c-0.2,0-0.4-0.2-0.4-0.4s0.2-0.4,0.4-0.4h6c0.2,0,0.4,0.2,0.4,0.4S447.3,310.4,447.1,310.4
					z"/>
			</g>
			<g>
				<path class="st16" d="M463.7,310.4h-6c-0.2,0-0.4-0.2-0.4-0.4s0.2-0.4,0.4-0.4h6c0.2,0,0.4,0.2,0.4,0.4S463.9,310.4,463.7,310.4
					z"/>
			</g>
			<g>
				<path class="st16" d="M463.7,314.5c-0.2,0-0.4-0.2-0.4-0.4v-4.1c0-0.2,0.2-0.4,0.4-0.4s0.4,0.2,0.4,0.4v4.1
					C464,314.2,463.9,314.5,463.7,314.5z"/>
			</g>
			<g>
				<path class="st16" d="M452.3,305.3c-0.2,0-0.4-0.2-0.4-0.4V302c0-0.2,0.2-0.4,0.4-0.4s0.4,0.2,0.4,0.4v2.9
					C452.8,305.2,452.6,305.3,452.3,305.3z"/>
			</g>
		</g>
	</g>
	<g>
		<g>
			<g>
				<g>
					<defs>
						<path id="SVGID_20_" d="M592.7,245.3c-34.6,0-62.7,28.1-62.7,62.7s28.1,62.7,62.7,62.7c34.6,0,62.7-28.1,62.7-62.7
							S627.3,245.3,592.7,245.3z"/>
					</defs>
					<clipPath id="SVGID_21_">
						<use xlink:href="#SVGID_20_"  style="overflow:visible;"/>
					</clipPath>
					<circle class="st17" cx="592.7" cy="308" r="62.7"/>
				</g>
			</g>
			<g>
				<g>
					<defs>
						<path id="SVGID_22_" d="M592.7,245.3c-34.6,0-62.7,28.1-62.7,62.7s28.1,62.7,62.7,62.7c34.6,0,62.7-28.1,62.7-62.7
							S627.3,245.3,592.7,245.3z"/>
					</defs>
					<clipPath id="SVGID_23_">
						<use xlink:href="#SVGID_22_"  style="overflow:visible;"/>
					</clipPath>
					<circle class="st18" cx="592.7" cy="308" r="62"/>
				</g>
			</g>
			<g>
				<path id="SVGID_2_" class="st2" d="M592.7,245.3c-34.6,0-62.7,28.1-62.7,62.7s28.1,62.7,62.7,62.7c34.6,0,62.7-28.1,62.7-62.7
					S627.3,245.3,592.7,245.3z"/>
			</g>
		</g>
		<path class="st15" d="M618.1,285.8c-0.6-2.4-2.8-4.1-5.4-4.1h-40.1c-2.6,0-4.7,1.7-5.4,4.1c-0.1,0.5-1,3.5-2,7.1
			c-2.7,9.3-2.3,19.3,1.1,28.3l3.2,8.5c0.8,2.5,3.6,4.5,6.2,4.5h33.8c2.6,0,5.4-2,6.2-4.5l3.3-8.7c3.4-9,3.8-18.8,1.2-28
			C619.1,289.4,618.3,286.4,618.1,285.8z"/>
		<g>
			<rect x="577.3" y="297.2" class="st3" width="30.7" height="21.5"/>
			<line class="st3" x1="577.9" y1="304.5" x2="608.1" y2="304.5"/>
			<line class="st3" x1="577.4" y1="311.7" x2="608.1" y2="311.7"/>
			<line class="st3" x1="585.9" y1="304.3" x2="585.9" y2="318.7"/>
		</g>
	</g>
	<g>
		<g>
			<line class="st2" x1="452.4" y1="214.2" x2="452.4" y2="216.7"/>
			<line class="st19" x1="452.4" y1="221.6" x2="452.4" y2="245.3"/>
		</g>
	</g>
	<g>
		<g>
			<line class="st2" x1="592.7" y1="214.2" x2="592.7" y2="216.7"/>
			<line class="st19" x1="592.7" y1="221.6" x2="592.7" y2="245.3"/>
		</g>
	</g>
</g>
<g>
	<g>
		<g>
			<g>
				<defs>
					<path id="SVGID_24_" d="M742,10.3c-34.6,0-62.7,28.1-62.7,62.7s28.1,62.7,62.7,62.7s62.7-28.1,62.7-62.7S776.6,10.3,742,10.3z"
						/>
				</defs>
				<clipPath id="SVGID_25_">
					<use xlink:href="#SVGID_24_"  style="overflow:visible;"/>
				</clipPath>
				<circle class="st20" cx="742" cy="73" r="62.7"/>
			</g>
		</g>
		<g>
			<g>
				<defs>
					<path id="SVGID_26_" d="M742,10.3c-34.6,0-62.7,28.1-62.7,62.7s28.1,62.7,62.7,62.7s62.7-28.1,62.7-62.7S776.6,10.3,742,10.3z"
						/>
				</defs>
				<clipPath id="SVGID_27_">
					<use xlink:href="#SVGID_26_"  style="overflow:visible;"/>
				</clipPath>
				<circle class="st21" cx="742" cy="73" r="62"/>
			</g>
		</g>
		<g>
			<path id="SVGID_8_" class="st2" d="M742,10.3c-34.6,0-62.7,28.1-62.7,62.7s28.1,62.7,62.7,62.7s62.7-28.1,62.7-62.7
				S776.6,10.3,742,10.3z"/>
		</g>
	</g>
	<g>
		<g>
			
				<linearGradient id="SVGID_28_" gradientUnits="userSpaceOnUse" x1="755.54" y1="-31.59" x2="770.4537" y2="-46.5037" gradientTransform="matrix(1 0 0 1 0 92)">
				<stop  offset="0" style="stop-color:#333333"/>
				<stop  offset="1" style="stop-color:#808080"/>
			</linearGradient>
			<path class="st22" d="M761,55h-7.2v-3.2h7.2v-7.4h3.2v7.4h7.2V55h-7.2v7.3H761V55z"/>
		</g>
		<g>
			<path class="st15" d="M743.1,52c3.8,2.2,5.9,6.4,5.9,11.9c0,9.3-5.7,18.5-11.4,18.5c-5.8,0-11.4-9.2-11.4-18.5
				c0-5.5,2.1-9.7,5.9-11.9c1.7-1,3.6-1.5,5.5-1.5S741.4,51,743.1,52z"/>
			<path class="st15" d="M761.5,91.8l1.4,4.4c0.2,0.6,0.1,1.3-0.2,1.9c-0.4,0.5-0.9,0.9-1.5,0.9h-47c-0.6,0-1.2-0.3-1.5-0.9
				c-0.3-0.5-0.4-1.2-0.3-1.9l1.4-4.4c2.1-6.8,7.5-11.8,14-12.8c2.9,3.1,6.3,4.7,9.9,4.7c3.6,0,7-1.6,9.9-4.7
				C754,80,759.4,84.9,761.5,91.8z"/>
		</g>
	</g>
</g>
<g>
	<g>
		<g>
			<g>
				<defs>
					<path id="SVGID_29_" d="M962,10.3c-34.6,0-62.7,28.1-62.7,62.7s28.1,62.7,62.7,62.7s62.7-28.1,62.7-62.7S996.6,10.3,962,10.3z"
						/>
				</defs>
				<clipPath id="SVGID_30_">
					<use xlink:href="#SVGID_29_"  style="overflow:visible;"/>
				</clipPath>
				<circle class="st23" cx="962" cy="73" r="62.7"/>
			</g>
		</g>
		<g>
			<g>
				<defs>
					<path id="SVGID_31_" d="M962,10.3c-34.6,0-62.7,28.1-62.7,62.7s28.1,62.7,62.7,62.7s62.7-28.1,62.7-62.7S996.6,10.3,962,10.3z"
						/>
				</defs>
				<clipPath id="SVGID_32_">
					<use xlink:href="#SVGID_31_"  style="overflow:visible;"/>
				</clipPath>
				<circle class="st24" cx="962" cy="73" r="62"/>
			</g>
		</g>
		<g>
			<path id="SVGID_11_" class="st2" d="M962,10.3c-34.6,0-62.7,28.1-62.7,62.7s28.1,62.7,62.7,62.7s62.7-28.1,62.7-62.7
				S996.6,10.3,962,10.3z"/>
		</g>
	</g>
	<g>
		<polygon class="st10" points="929.2,100.8 949.7,89.6 950,89.5 950.4,89.5 966.5,91.3 964.3,93.2 962,65.5 961.9,63.9 963.5,62.7 
			977.7,52 982.4,58.8 967.2,68.2 968.7,65.3 968.1,93.1 968.1,95.6 965.9,95.1 950,91.8 950.7,91.7 		"/>
		<g>
			<g>
				<polygon class="st16" points="984.1,67.7 994.8,45.2 970,47.2 				"/>
			</g>
		</g>
	</g>
</g>
<g>
	<g>
		<g>
			<g>
				<defs>
					<path id="SVGID_33_" d="M302,10.3c-34.6,0-62.7,28.1-62.7,62.7s28.1,62.7,62.7,62.7s62.7-28.1,62.7-62.7S336.6,10.3,302,10.3z"
						/>
				</defs>
				<clipPath id="SVGID_34_">
					<use xlink:href="#SVGID_33_"  style="overflow:visible;"/>
				</clipPath>
				<circle class="st25" cx="302" cy="73" r="62"/>
			</g>
		</g>
		<g>
			<g>
				<defs>
					<path id="SVGID_35_" d="M302,10.3c-34.6,0-62.7,28.1-62.7,62.7s28.1,62.7,62.7,62.7s62.7-28.1,62.7-62.7S336.6,10.3,302,10.3z"
						/>
				</defs>
				<clipPath id="SVGID_36_">
					<use xlink:href="#SVGID_35_"  style="overflow:visible;"/>
				</clipPath>
				<g class="st26">
					<g>
						<path class="st10" d="M296.4,57.3c1.1,0,2,0.9,2,2v27.3c0,1.1-0.9,2-2,2h-27.3c-1.1,0-2-0.9-2-2V59.3c0-1.1,0.9-2,2-2H296.4
							 M296.4,54.3h-27.3c-2.8,0-5,2.2-5,5v27.3c0,2.8,2.2,5,5,5h27.3c2.8,0,5-2.2,5-5V59.3C301.4,56.6,299.2,54.3,296.4,54.3
							L296.4,54.3z"/>
					</g>
				</g>
			</g>
		</g>
		<g>
			<g>
				<defs>
					<path id="SVGID_37_" d="M302,10.3c-34.6,0-62.7,28.1-62.7,62.7s28.1,62.7,62.7,62.7s62.7-28.1,62.7-62.7S336.6,10.3,302,10.3z"
						/>
				</defs>
				<clipPath id="SVGID_38_">
					<use xlink:href="#SVGID_37_"  style="overflow:visible;"/>
				</clipPath>
				<polyline class="st27" points="274.3,74 282.8,80 305.8,58 				"/>
			</g>
		</g>
		<g>
			<g>
				<defs>
					<path id="SVGID_39_" d="M302,10.3c-34.6,0-62.7,28.1-62.7,62.7s28.1,62.7,62.7,62.7s62.7-28.1,62.7-62.7S336.6,10.3,302,10.3z"
						/>
				</defs>
				<clipPath id="SVGID_40_">
					<use xlink:href="#SVGID_39_"  style="overflow:visible;"/>
				</clipPath>
				<g class="st28">
					<g>
						<path class="st10" d="M480.7,57.3c1.1,0,2,0.9,2,2v27.3c0,1.1-0.9,2-2,2H319.3c-1.1,0-2-0.9-2-2V59.3c0-1.1,0.9-2,2-2H480.7
							 M480.7,54.3H319.3c-2.8,0-5,2.2-5,5v27.3c0,2.8,2.2,5,5,5h161.4c2.8,0,5-2.2,5-5V59.3C485.7,56.6,483.5,54.3,480.7,54.3
							L480.7,54.3z"/>
					</g>
				</g>
			</g>
		</g>
	</g>
	<g>
		<g>
			<g>
				<defs>
					<path id="SVGID_41_" d="M302,10.3c-34.6,0-62.7,28.1-62.7,62.7s28.1,62.7,62.7,62.7s62.7-28.1,62.7-62.7S336.6,10.3,302,10.3z"
						/>
				</defs>
				<clipPath id="SVGID_42_">
					<use xlink:href="#SVGID_41_"  style="overflow:visible;"/>
				</clipPath>
				<circle class="st29" cx="302" cy="73" r="62.7"/>
			</g>
		</g>
		<g>
			<g>
				<defs>
					<path id="SVGID_43_" d="M302,10.3c-34.6,0-62.7,28.1-62.7,62.7s28.1,62.7,62.7,62.7s62.7-28.1,62.7-62.7S336.6,10.3,302,10.3z"
						/>
				</defs>
				<clipPath id="SVGID_44_">
					<use xlink:href="#SVGID_43_"  style="overflow:visible;"/>
				</clipPath>
				<circle class="st30" cx="302" cy="73" r="62"/>
			</g>
		</g>
		<g>
			<path id="SVGID_3_" class="st2" d="M302,10.3c-34.6,0-62.7,28.1-62.7,62.7s28.1,62.7,62.7,62.7s62.7-28.1,62.7-62.7
				S336.6,10.3,302,10.3z"/>
		</g>
	</g>
</g>
<line class="st31" x1="85.5" y1="214" x2="963" y2="214"/>
<g>
	<g>
		<line class="st2" x1="522" y1="136" x2="522" y2="138.5"/>
		<line class="st19" x1="522" y1="143.4" x2="522" y2="214.1"/>
	</g>
</g>
<g>
	<g>
		<line class="st2" x1="302" y1="136" x2="302" y2="138.5"/>
		<line class="st32" x1="302" y1="143.4" x2="302" y2="209.1"/>
		<line class="st2" x1="302" y1="211.5" x2="302" y2="214"/>
	</g>
</g>
<g>
	<g>
		<line class="st2" x1="85" y1="136" x2="85" y2="138.5"/>
		<line class="st32" x1="85" y1="143.4" x2="85" y2="209.1"/>
		<line class="st2" x1="85" y1="211.5" x2="85" y2="214"/>
	</g>
</g>
<g>
	<g>
		<line class="st2" x1="742" y1="136" x2="742" y2="138.5"/>
		<line class="st32" x1="742" y1="143.4" x2="742" y2="209.1"/>
		<line class="st2" x1="742" y1="211.5" x2="742" y2="214"/>
	</g>
</g>
<g>
	<g>
		<line class="st2" x1="962" y1="136" x2="962" y2="138.5"/>
		<line class="st32" x1="962" y1="143.4" x2="962" y2="209.1"/>
		<line class="st2" x1="962" y1="211.5" x2="962" y2="214"/>
	</g>
</g>
<path class="st10" d="M168.5,433H7.1c-0.8,0-1.3-1-0.8-1.6l11.2-14.3c0.3-0.4,0.3-0.9,0-1.2L6.3,401.6c-0.5-0.7,0-1.6,0.8-1.6h161.5
	c0.3,0,0.6,0.1,0.8,0.4l12.2,15.5c0.3,0.4,0.3,0.9,0,1.2l-12.2,15.5C169.1,432.9,168.8,433,168.5,433z"/>
<path class="st10" d="M1052.5,433H871.1c-0.8,0-1.3-1-0.8-1.6l11.2-14.3c0.3-0.4,0.3-0.9,0-1.2l-11.2-14.3c-0.5-0.7,0-1.6,0.8-1.6
	h181.5c0.3,0,0.6,0.1,0.8,0.4l12.2,15.5c0.3,0.4,0.3,0.9,0,1.2l-12.2,15.5C1053.1,432.9,1052.8,433,1052.5,433z"/>
<path class="st10" d="M793.5,433H240.1c-0.8,0-1.3-1-0.8-1.6l11.2-14.3c0.3-0.4,0.3-0.9,0-1.2l-11.2-14.3c-0.5-0.7,0-1.6,0.8-1.6
	h553.5c0.3,0,0.6,0.1,0.8,0.4l12.2,15.5c0.3,0.4,0.3,0.9,0,1.2l-12.2,15.5C794.1,432.9,793.8,433,793.5,433z"/>
<g class="st33">
	<path class="st7" d="M65.8,424L61,411.3h-0.1c0.1,1,0.1,2.2,0.1,3.6v9.1h-1.5v-14.3H62l4.5,11.8h0.1l4.6-11.8h2.5V424H72v-9.2
		c0-1.1,0-2.2,0.1-3.4H72L67.2,424H65.8z"/>
	<path class="st7" d="M86.6,418.6c0,1.7-0.4,3.1-1.3,4.1s-2.1,1.5-3.6,1.5c-1,0-1.8-0.2-2.5-0.7s-1.3-1.1-1.7-1.9s-0.6-1.8-0.6-2.9
		c0-1.7,0.4-3.1,1.3-4.1s2.1-1.5,3.6-1.5s2.7,0.5,3.6,1.5S86.6,416.9,86.6,418.6z M78.4,418.6c0,1.4,0.3,2.4,0.8,3.1
		s1.4,1.1,2.4,1.1s1.9-0.4,2.4-1.1s0.8-1.8,0.8-3.1c0-1.4-0.3-2.4-0.8-3.1s-1.4-1.1-2.4-1.1c-1.1,0-1.9,0.3-2.4,1
		S78.4,417.3,78.4,418.6z"/>
	<path class="st7" d="M96.7,422.6L96.7,422.6c-0.8,1.1-2,1.6-3.4,1.6s-2.5-0.5-3.3-1.4s-1.2-2.3-1.2-4.1s0.4-3.1,1.2-4.1
		s1.9-1.5,3.3-1.5c1.5,0,2.6,0.5,3.3,1.6h0.1l-0.1-0.8v-0.8v-4.4h1.6V424h-1.3L96.7,422.6z M93.5,422.8c1.1,0,1.9-0.3,2.4-0.9
		s0.7-1.6,0.7-2.9v-0.3c0-1.5-0.3-2.6-0.8-3.2s-1.3-1-2.4-1c-1,0-1.7,0.4-2.2,1.1s-0.8,1.8-0.8,3.1c0,1.4,0.3,2.4,0.8,3.1
		S92.5,422.8,93.5,422.8z"/>
	<path class="st7" d="M106.2,424.2c-1.6,0-2.8-0.5-3.7-1.4s-1.4-2.3-1.4-4s0.4-3.1,1.3-4.1s2-1.5,3.4-1.5c1.3,0,2.4,0.4,3.2,1.3
		s1.2,2,1.2,3.5v1h-7.4c0,1.3,0.4,2.2,1,2.9s1.5,1,2.5,1c1.2,0,2.3-0.2,3.4-0.7v1.4c-0.6,0.2-1.1,0.4-1.6,0.5
		S106.9,424.2,106.2,424.2z M105.8,414.5c-0.9,0-1.5,0.3-2.1,0.8s-0.8,1.3-0.9,2.3h5.6c0-1-0.2-1.8-0.7-2.3S106.6,414.5,105.8,414.5
		z"/>
	<path class="st7" d="M114.5,424h-1.6v-15.2h1.6V424z"/>
</g>
<g class="st33">
	<path class="st7" d="M496.4,424h-8v-14.3h8v1.5h-6.3v4.6h5.9v1.5h-5.9v5.3h6.3V424z"/>
	<path class="st7" d="M501.9,418.5l-3.7-5.2h1.8l2.8,4.1l2.8-4.1h1.8l-3.7,5.2l3.9,5.5h-1.8l-3-4.3l-3,4.3H498L501.9,418.5z"/>
	<path class="st7" d="M514.3,424.2c-1.6,0-2.8-0.5-3.7-1.4s-1.4-2.3-1.4-4s0.4-3.1,1.3-4.1s2-1.5,3.4-1.5c1.3,0,2.4,0.4,3.2,1.3
		s1.2,2,1.2,3.5v1h-7.4c0,1.3,0.4,2.2,1,2.9s1.5,1,2.5,1c1.2,0,2.3-0.2,3.4-0.7v1.4c-0.6,0.2-1.1,0.4-1.6,0.5S515,424.2,514.3,424.2
		z M513.8,414.5c-0.9,0-1.5,0.3-2.1,0.8s-0.8,1.3-0.9,2.3h5.6c0-1-0.2-1.8-0.7-2.3S514.7,414.5,513.8,414.5z"/>
	<path class="st7" d="M525.3,424.2c-1.5,0-2.7-0.5-3.6-1.4s-1.3-2.3-1.3-4c0-1.8,0.4-3.2,1.3-4.2s2.1-1.5,3.7-1.5
		c0.5,0,1,0.1,1.5,0.2s0.9,0.2,1.2,0.4l-0.5,1.4c-0.4-0.1-0.7-0.3-1.2-0.4s-0.8-0.1-1.1-0.1c-2.2,0-3.3,1.4-3.3,4.2
		c0,1.3,0.3,2.3,0.8,3s1.3,1.1,2.4,1.1c0.9,0,1.8-0.2,2.7-0.6v1.4C527.3,424,526.4,424.2,525.3,424.2z"/>
	<path class="st7" d="M532,413.3v6.9c0,0.9,0.2,1.5,0.6,2s1,0.6,1.9,0.6c1.1,0,1.9-0.3,2.5-0.9s0.8-1.6,0.8-3v-5.6h1.6V424H538
		l-0.2-1.4h-0.1c-0.3,0.5-0.8,0.9-1.4,1.2c-0.6,0.3-1.3,0.4-2,0.4c-1.3,0-2.3-0.3-2.9-0.9s-1-1.6-1-3v-7L532,413.3L532,413.3z"/>
	<path class="st7" d="M546.2,422.9c0.3,0,0.6,0,0.8-0.1c0.3,0,0.5-0.1,0.6-0.1v1.2c-0.2,0.1-0.4,0.2-0.8,0.2s-0.6,0.1-0.9,0.1
		c-2.1,0-3.1-1.1-3.1-3.3v-6.4h-1.5v-0.8l1.5-0.7l0.7-2.3h0.9v2.5h3.1v1.3h-3.1v6.3c0,0.6,0.2,1.1,0.5,1.5
		C545.3,422.7,545.7,422.9,546.2,422.9z"/>
	<path class="st7" d="M554.4,424.2c-1.6,0-2.8-0.5-3.7-1.4c-0.9-1-1.4-2.3-1.4-4s0.4-3.1,1.3-4.1s2-1.5,3.4-1.5
		c1.3,0,2.4,0.4,3.2,1.3s1.2,2,1.2,3.5v1H551c0,1.3,0.3,2.2,1,2.9c0.6,0.7,1.5,1,2.5,1c1.2,0,2.3-0.2,3.4-0.7v1.4
		c-0.6,0.2-1.1,0.4-1.6,0.5C555.7,424.1,555.1,424.2,554.4,424.2z M553.9,414.5c-0.9,0-1.5,0.3-2.1,0.8c-0.5,0.6-0.8,1.3-0.9,2.3
		h5.6c0-1-0.2-1.8-0.7-2.3C555.4,414.7,554.8,414.5,553.9,414.5z"/>
</g>
<g class="st33">
	<path class="st7" d="M925.9,424v-14.3h1.7V424H925.9z"/>
	<path class="st7" d="M944.9,424v-7c0-0.9-0.2-1.5-0.5-1.9c-0.4-0.4-0.9-0.6-1.7-0.6c-1,0-1.8,0.3-2.2,0.9c-0.5,0.6-0.7,1.5-0.7,2.7
		v6h-1.6v-7c0-0.9-0.2-1.5-0.5-1.9c-0.4-0.4-0.9-0.6-1.7-0.6c-1,0-1.8,0.3-2.2,0.9c-0.5,0.6-0.7,1.6-0.7,3v5.6h-1.6v-10.7h1.3
		l0.3,1.5h0.1c0.3-0.5,0.7-0.9,1.3-1.2s1.2-0.4,1.9-0.4c1.7,0,2.8,0.6,3.3,1.8h0.1c0.3-0.6,0.8-1,1.4-1.3s1.3-0.5,2.1-0.5
		c1.2,0,2.1,0.3,2.7,0.9c0.6,0.6,0.9,1.6,0.9,3v7h-2V424z"/>
	<path class="st7" d="M954.8,424.2c-0.7,0-1.3-0.1-1.9-0.4s-1.1-0.7-1.5-1.2h-0.1c0.1,0.6,0.1,1.2,0.1,1.8v4.4h-1.6v-15.5h1.3
		l0.2,1.5h0.1c0.4-0.6,0.9-1,1.5-1.3s1.2-0.4,1.9-0.4c1.4,0,2.5,0.5,3.3,1.5s1.2,2.3,1.2,4.1c0,1.8-0.4,3.1-1.2,4.1
		C957.3,423.7,956.2,424.2,954.8,424.2z M954.6,414.5c-1.1,0-1.9,0.3-2.4,0.9s-0.7,1.6-0.8,2.9v0.4c0,1.5,0.3,2.6,0.8,3.2
		s1.3,1,2.4,1c0.9,0,1.6-0.4,2.2-1.1c0.5-0.7,0.8-1.8,0.8-3.1c0-1.3-0.3-2.4-0.8-3.1C956.3,414.8,955.5,414.5,954.6,414.5z"/>
	<path class="st7" d="M967,413.1c0.5,0,0.9,0,1.3,0.1l-0.2,1.5c-0.4-0.1-0.8-0.1-1.2-0.1c-0.9,0-1.6,0.4-2.2,1.1s-0.9,1.6-0.9,2.6
		v5.7h-1.6v-10.7h1.3l0.2,2h0.1c0.4-0.7,0.9-1.2,1.4-1.6C965.7,413.3,966.3,413.1,967,413.1z"/>
	<path class="st7" d="M979.5,418.6c0,1.7-0.4,3.1-1.3,4.1s-2.1,1.5-3.6,1.5c-1,0-1.8-0.2-2.5-0.7s-1.3-1.1-1.7-1.9s-0.6-1.8-0.6-2.9
		c0-1.7,0.4-3.1,1.3-4.1c0.9-1,2.1-1.5,3.6-1.5s2.7,0.5,3.6,1.5C979.1,415.6,979.5,416.9,979.5,418.6z M971.3,418.6
		c0,1.4,0.3,2.4,0.8,3.1s1.4,1.1,2.4,1.1c1.1,0,1.9-0.4,2.4-1.1c0.6-0.7,0.8-1.8,0.8-3.1c0-1.4-0.3-2.4-0.8-3.1s-1.4-1.1-2.4-1.1
		c-1.1,0-1.9,0.3-2.4,1C971.6,416.2,971.3,417.3,971.3,418.6z"/>
	<path class="st7" d="M984.7,424l-4.1-10.7h1.7l2.3,6.3c0.5,1.5,0.8,2.4,0.9,2.9h0.1c0.1-0.3,0.3-1.1,0.7-2.1s1.2-3.4,2.6-7.1h1.7
		l-4.1,10.7L984.7,424L984.7,424z"/>
	<path class="st7" d="M996.9,424.2c-1.6,0-2.8-0.5-3.7-1.4c-0.9-1-1.4-2.3-1.4-4s0.4-3.1,1.3-4.1s2-1.5,3.4-1.5
		c1.3,0,2.4,0.4,3.2,1.3s1.2,2,1.2,3.5v1h-7.4c0,1.3,0.4,2.2,1,2.9c0.6,0.7,1.5,1,2.5,1c1.2,0,2.3-0.2,3.4-0.7v1.4
		c-0.6,0.2-1.1,0.4-1.6,0.5C998.2,424.1,997.6,424.2,996.9,424.2z M996.4,414.5c-0.9,0-1.5,0.3-2.1,0.8c-0.5,0.6-0.8,1.3-0.9,2.3
		h5.6c0-1-0.2-1.8-0.7-2.3C997.9,414.7,997.3,414.5,996.4,414.5z"/>
</g>
</svg>
