<?xml version="1.0" encoding="utf-8"?>
<!-- Generator: Adobe Illustrator 22.0.1, SVG Export Plug-In . SVG Version: 6.00 Build 0)  -->
<svg version="1.1" id="Ebene_1" xmlns="http://www.w3.org/2000/svg" xmlns:xlink="http://www.w3.org/1999/xlink" x="0px" y="0px"
	 viewBox="0 0 1072 492" style="enable-background:new 0 0 1072 492;" xml:space="preserve">
<style type="text/css">
	.st0{clip-path:url(#SVGID_5_);fill:none;stroke:#999999;stroke-miterlimit:10;}
	.st1{clip-path:url(#SVGID_9_);fill:none;stroke:#999999;stroke-miterlimit:10;}
	.st2{fill:none;stroke:#999999;stroke-miterlimit:10;}
	.st3{enable-background:new    ;}
	.st4{fill:#333333;}
	.st5{fill:none;stroke:#333333;stroke-width:2;stroke-miterlimit:10;}
	.st6{fill:none;stroke:#333333;stroke-width:2;stroke-miterlimit:10;stroke-dasharray:5.1075,5.1075;}
	.st7{fill:none;stroke:#333333;stroke-width:2;stroke-miterlimit:10;stroke-dasharray:4.8539,4.8539;}
	.st8{fill:#FFFFFF;stroke:#00A8FF;stroke-width:3;stroke-miterlimit:10;}
	.st9{fill:#FFFFFF;}
	.st10{clip-path:url(#SVGID_12_);fill:none;stroke:#999999;stroke-miterlimit:10;}
	.st11{clip-path:url(#SVGID_14_);fill:none;stroke:#999999;stroke-miterlimit:10;}
	.st12{fill:none;stroke:#00A8FF;stroke-width:3;stroke-miterlimit:10;}
	.st13{clip-path:url(#SVGID_16_);fill:none;stroke:#999999;stroke-miterlimit:10;}
	.st14{clip-path:url(#SVGID_18_);fill:none;stroke:#999999;stroke-miterlimit:10;}
	.st15{clip-path:url(#SVGID_20_);fill:none;stroke:#999999;stroke-miterlimit:10;}
	.st16{clip-path:url(#SVGID_22_);fill:none;stroke:#999999;stroke-miterlimit:10;}
	.st17{fill:url(#SVGID_23_);}
	.st18{clip-path:url(#SVGID_25_);fill:none;stroke:#999999;stroke-miterlimit:10;}
	.st19{clip-path:url(#SVGID_27_);fill:none;stroke:#999999;stroke-miterlimit:10;}
	.st20{fill:#00A8FF;}
	.st21{clip-path:url(#SVGID_29_);fill:none;}
	.st22{clip-path:url(#SVGID_31_);}
	.st23{clip-path:url(#SVGID_33_);fill:none;stroke:#4D4D4D;stroke-width:3;stroke-linecap:round;stroke-miterlimit:10;}
	.st24{clip-path:url(#SVGID_35_);}
	.st25{clip-path:url(#SVGID_37_);fill:none;stroke:#999999;stroke-miterlimit:10;}
	.st26{clip-path:url(#SVGID_39_);fill:none;stroke:#999999;stroke-miterlimit:10;}
	.st27{fill:none;stroke:#999999;stroke-miterlimit:10;stroke-dasharray:5;}
	.st28{fill:none;stroke:#999999;stroke-miterlimit:10;stroke-dasharray:4.8571,4.8571;}
	.st29{fill:none;stroke:#999999;stroke-miterlimit:10;stroke-dasharray:4.8667,4.8667;}
	.st30{clip-path:url(#SVGID_41_);fill:none;stroke:#989898;stroke-miterlimit:10;}
	.st31{fill:#1D1D1B;}
</style>
<g>
	<g>
		<g>
			<g>
				<defs>
					<circle id="SVGID_4_" cx="85" cy="113" r="62.7"/>
				</defs>
				<clipPath id="SVGID_5_">
					<use xlink:href="#SVGID_4_"  style="overflow:visible;"/>
				</clipPath>
				<circle class="st0" cx="85" cy="113" r="62.7"/>
			</g>
		</g>
	</g>
	<g>
		<g>
			<g>
				<defs>
					<circle id="SVGID_7_" cx="85" cy="113" r="62.7"/>
				</defs>
				<clipPath id="SVGID_9_">
					<use xlink:href="#SVGID_7_"  style="overflow:visible;"/>
				</clipPath>
				<circle class="st1" cx="85" cy="113" r="62"/>
			</g>
		</g>
	</g>
	<g>
		<path id="SVGID_1_" class="st2" d="M85,50.3c-34.6,0-62.7,28.1-62.7,62.7s28.1,62.7,62.7,62.7s62.7-28.1,62.7-62.7
			S119.6,50.3,85,50.3z"/>
	</g>
</g>
<g class="st3">
	<path class="st4" d="M54.3,24l-4.8-12.7h-0.1c0.1,1,0.1,2.2,0.1,3.6V24H48V9.7h2.5L55,21.5l0,0l4.6-11.8h2.5V24h-1.7v-9.2
		c0-1.1,0-2.2,0.1-3.4h-0.1L55.6,24H54.3z"/>
	<path class="st4" d="M75,18.6c0,1.7-0.4,3.1-1.3,4.1s-2.1,1.5-3.6,1.5c-1,0-1.8-0.2-2.5-0.7s-1.3-1.1-1.7-1.9s-0.6-1.8-0.6-2.9
		c0-1.7,0.4-3.1,1.3-4.1s2.1-1.5,3.6-1.5s2.7,0.5,3.6,1.5S75,16.9,75,18.6z M66.8,18.6c0,1.4,0.3,2.4,0.8,3.1s1.4,1.1,2.4,1.1
		s1.9-0.4,2.4-1.1s0.8-1.8,0.8-3.1c0-1.4-0.3-2.4-0.8-3.1S71,14.4,70,14.4c-1.1,0-1.9,0.3-2.4,1C67.1,16.1,66.8,17.3,66.8,18.6z"/>
	<path class="st4" d="M85.1,22.6L85.1,22.6c-0.8,1.1-2,1.6-3.4,1.6s-2.5-0.5-3.3-1.4s-1.2-2.3-1.2-4.1s0.4-3.1,1.2-4.1
		s1.9-1.5,3.3-1.5c1.5,0,2.6,0.5,3.3,1.6h0.1L85,13.9v-0.8V8.8h1.6V24h-1.3L85.1,22.6z M81.9,22.8c1.1,0,1.9-0.3,2.4-0.9
		S85,20.4,85,19v-0.3c0-1.5-0.3-2.6-0.8-3.2s-1.3-1-2.4-1c-1,0-1.7,0.4-2.2,1.1c-0.5,0.7-0.8,1.8-0.8,3.1c0,1.4,0.3,2.4,0.8,3.1
		S80.9,22.8,81.9,22.8z"/>
	<path class="st4" d="M94.6,24.2c-1.6,0-2.8-0.5-3.7-1.4s-1.4-2.3-1.4-4s0.4-3.1,1.3-4.1s2-1.5,3.4-1.5c1.3,0,2.4,0.4,3.2,1.3
		s1.2,2,1.2,3.5v1h-7.4c0,1.3,0.4,2.2,1,2.9s1.5,1,2.5,1c1.2,0,2.3-0.2,3.4-0.7v1.4c-0.6,0.2-1.1,0.4-1.6,0.5S95.3,24.2,94.6,24.2z
		 M94.2,14.5c-0.9,0-1.5,0.3-2.1,0.8s-0.8,1.3-0.9,2.3h5.6c0-1-0.2-1.8-0.7-2.3S95,14.5,94.2,14.5z"/>
	<path class="st4" d="M102.9,24h-1.6V8.8h1.6V24z"/>
	<path class="st4" d="M110.9,24.2c-1.6,0-2.8-0.5-3.7-1.4s-1.4-2.3-1.4-4s0.4-3.1,1.3-4.1s2-1.5,3.4-1.5c1.3,0,2.4,0.4,3.2,1.3
		s1.2,2,1.2,3.5v1h-7.4c0,1.3,0.4,2.2,1,2.9s1.5,1,2.5,1c1.2,0,2.3-0.2,3.4-0.7v1.4c-0.6,0.2-1.1,0.4-1.6,0.5S111.6,24.2,110.9,24.2
		z M110.4,14.5c-0.9,0-1.5,0.3-2.1,0.8s-0.8,1.3-0.9,2.3h5.6c0-1-0.2-1.8-0.7-2.3S111.3,14.5,110.4,14.5z"/>
	<path class="st4" d="M122.5,13.1c0.5,0,0.9,0,1.3,0.1l-0.2,1.5c-0.4-0.1-0.8-0.1-1.2-0.1c-0.9,0-1.6,0.4-2.2,1.1s-0.9,1.6-0.9,2.6
		V24h-1.6V13.3h1.3l0.2,2h0.1c0.4-0.7,0.9-1.2,1.4-1.6S121.8,13.1,122.5,13.1z"/>
</g>
<g class="st3">
	<path class="st4" d="M273.9,24h-1.7V11.2h-4.5V9.7h10.7v1.5h-4.5V24z"/>
	<path class="st4" d="M286.9,24l-0.3-1.5h-0.1c-0.5,0.7-1.1,1.1-1.6,1.4s-1.2,0.4-2,0.4c-1.1,0-1.9-0.3-2.5-0.8s-0.9-1.3-0.9-2.3
		c0-2.2,1.7-3.3,5.2-3.4l1.8-0.1V17c0-0.8-0.2-1.5-0.5-1.9s-0.9-0.6-1.7-0.6c-0.9,0-1.9,0.3-3,0.8l-0.5-1.2c0.5-0.3,1.1-0.5,1.7-0.7
		s1.3-0.2,1.9-0.2c1.3,0,2.2,0.3,2.8,0.8s0.9,1.5,0.9,2.7V24H286.9z M283.2,22.9c1,0,1.8-0.3,2.4-0.8s0.9-1.3,0.9-2.3v-1l-1.6,0.1
		c-1.3,0-2.2,0.2-2.8,0.6s-0.9,0.9-0.9,1.7c0,0.6,0.2,1,0.5,1.3S282.6,22.9,283.2,22.9z"/>
	<path class="st4" d="M298.3,21.1c0,1-0.4,1.8-1.1,2.3s-1.8,0.8-3.1,0.8c-1.4,0-2.5-0.2-3.3-0.7V22c0.5,0.3,1.1,0.5,1.7,0.6
		s1.2,0.2,1.7,0.2c0.8,0,1.5-0.1,2-0.4s0.7-0.7,0.7-1.2c0-0.4-0.2-0.8-0.5-1.1s-1.1-0.6-2.1-1s-1.7-0.7-2.1-1s-0.7-0.6-0.9-0.9
		s-0.3-0.8-0.3-1.3c0-0.9,0.4-1.6,1.1-2.1s1.7-0.8,2.9-0.8c1.2,0,2.3,0.2,3.4,0.7l-0.6,1.3c-1.1-0.4-2-0.7-2.9-0.7
		c-0.8,0-1.3,0.1-1.7,0.4s-0.6,0.6-0.6,1c0,0.3,0.1,0.5,0.2,0.7s0.4,0.4,0.7,0.6s1,0.4,1.9,0.8c1.3,0.5,2.1,0.9,2.6,1.4
		S298.3,20.4,298.3,21.1z"/>
	<path class="st4" d="M302.6,18.5c0.3-0.4,0.7-0.9,1.3-1.6l3.5-3.7h1.9l-4.3,4.6l4.6,6.1h-2l-3.8-5.1l-1.2,1.1v4H301V8.8h1.6v8.1
		C302.6,17.2,302.6,17.8,302.6,18.5L302.6,18.5z"/>
	<path class="st4" d="M313.1,24h-1.6V8.8h1.6V24z"/>
	<path class="st4" d="M316.4,10.4c0-0.4,0.1-0.6,0.3-0.8s0.4-0.3,0.7-0.3c0.3,0,0.5,0.1,0.7,0.3s0.3,0.4,0.3,0.8s-0.1,0.6-0.3,0.8
		s-0.4,0.3-0.7,0.3c-0.3,0-0.5-0.1-0.7-0.3S316.4,10.8,316.4,10.4z M318.2,24h-1.6V13.3h1.6V24z"/>
	<path class="st4" d="M328.5,21.1c0,1-0.4,1.8-1.1,2.3s-1.8,0.8-3.1,0.8c-1.4,0-2.5-0.2-3.3-0.7V22c0.5,0.3,1.1,0.5,1.7,0.6
		s1.2,0.2,1.7,0.2c0.8,0,1.5-0.1,2-0.4s0.7-0.7,0.7-1.2c0-0.4-0.2-0.8-0.5-1.1s-1.1-0.6-2.1-1s-1.7-0.7-2.1-1s-0.7-0.6-0.9-0.9
		s-0.3-0.8-0.3-1.3c0-0.9,0.4-1.6,1.1-2.1s1.7-0.8,2.9-0.8c1.2,0,2.3,0.2,3.4,0.7L328,15c-1.1-0.4-2-0.7-2.9-0.7
		c-0.8,0-1.3,0.1-1.7,0.4s-0.6,0.6-0.6,1c0,0.3,0.1,0.5,0.2,0.7s0.4,0.4,0.7,0.6s1,0.4,1.9,0.8c1.3,0.5,2.1,0.9,2.6,1.4
		S328.5,20.4,328.5,21.1z"/>
	<path class="st4" d="M334.6,22.9c0.3,0,0.6,0,0.8-0.1s0.5-0.1,0.6-0.1v1.2c-0.2,0.1-0.4,0.2-0.8,0.2s-0.6,0.1-0.9,0.1
		c-2.1,0-3.1-1.1-3.1-3.3v-6.4h-1.5v-0.8l1.5-0.7l0.7-2.3h0.9v2.5h3.1v1.3h-3.1v6.3c0,0.6,0.2,1.1,0.5,1.5S334.1,22.9,334.6,22.9z"
		/>
</g>
<g class="st3">
	<path class="st4" d="M495.5,11c-1.6,0-2.8,0.5-3.7,1.6s-1.4,2.5-1.4,4.3c0,1.9,0.4,3.3,1.3,4.3s2.1,1.5,3.7,1.5
		c1,0,2.1-0.2,3.4-0.5v1.5c-1,0.4-2.2,0.6-3.7,0.6c-2.1,0-3.7-0.6-4.9-1.9s-1.7-3.1-1.7-5.4c0-1.5,0.3-2.8,0.8-3.9s1.3-2,2.4-2.6
		s2.3-0.9,3.7-0.9c1.5,0,2.8,0.3,3.9,0.8l-0.7,1.4C497.7,11.3,496.6,11,495.5,11z"/>
	<path class="st4" d="M511,18.6c0,1.7-0.4,3.1-1.3,4.1s-2.1,1.5-3.6,1.5c-1,0-1.8-0.2-2.5-0.7s-1.3-1.1-1.7-1.9s-0.6-1.8-0.6-2.9
		c0-1.7,0.4-3.1,1.3-4.1s2.1-1.5,3.6-1.5s2.7,0.5,3.6,1.5S511,16.9,511,18.6z M502.9,18.6c0,1.4,0.3,2.4,0.8,3.1s1.4,1.1,2.4,1.1
		s1.9-0.4,2.4-1.1s0.8-1.8,0.8-3.1c0-1.4-0.3-2.4-0.8-3.1s-1.4-1.1-2.4-1.1c-1.1,0-1.9,0.3-2.4,1C503.2,16.1,502.9,17.3,502.9,18.6z
		"/>
	<path class="st4" d="M518.1,24.2c-1.5,0-2.7-0.5-3.6-1.4s-1.3-2.3-1.3-4c0-1.8,0.4-3.2,1.3-4.2s2.1-1.5,3.7-1.5
		c0.5,0,1,0.1,1.5,0.2s0.9,0.2,1.2,0.4l-0.5,1.4c-0.4-0.1-0.7-0.3-1.2-0.4s-0.8-0.1-1.1-0.1c-2.2,0-3.3,1.4-3.3,4.2
		c0,1.3,0.3,2.3,0.8,3s1.3,1.1,2.4,1.1c0.9,0,1.8-0.2,2.7-0.6v1.4C520.1,24,519.2,24.2,518.1,24.2z"/>
	<path class="st4" d="M525,18.5c0.3-0.4,0.7-0.9,1.3-1.6l3.5-3.7h1.9l-4.3,4.6L532,24h-2l-3.8-5.1L525,20v4h-1.6V8.8h1.6v8.1
		C525,17.2,525,17.8,525,18.5L525,18.5z"/>
	<path class="st4" d="M538.9,24.2c-0.7,0-1.3-0.1-1.9-0.4s-1.1-0.7-1.5-1.2h-0.1c0.1,0.6,0.1,1.2,0.1,1.8v4.4h-1.6V13.3h1.3l0.2,1.5
		h0.1c0.4-0.6,0.9-1,1.5-1.3s1.2-0.4,1.9-0.4c1.4,0,2.5,0.5,3.3,1.5s1.2,2.3,1.2,4.1c0,1.8-0.4,3.1-1.2,4.1
		C541.4,23.7,540.3,24.2,538.9,24.2z M538.6,14.5c-1.1,0-1.9,0.3-2.4,0.9c-0.5,0.6-0.7,1.6-0.8,2.9v0.4c0,1.5,0.3,2.6,0.8,3.2
		s1.3,1,2.4,1c0.9,0,1.6-0.4,2.2-1.1c0.5-0.7,0.8-1.8,0.8-3.1c0-1.3-0.3-2.4-0.8-3.1C540.3,14.8,539.6,14.5,538.6,14.5z"/>
	<path class="st4" d="M546,10.4c0-0.4,0.1-0.6,0.3-0.8s0.4-0.3,0.7-0.3s0.5,0.1,0.7,0.3s0.3,0.4,0.3,0.8s-0.1,0.6-0.3,0.8
		s-0.4,0.3-0.7,0.3s-0.5-0.1-0.7-0.3S546,10.8,546,10.4z M547.8,24h-1.6V13.3h1.6V24z"/>
	<path class="st4" d="M554.7,22.9c0.3,0,0.6,0,0.8-0.1c0.3,0,0.5-0.1,0.6-0.1v1.2c-0.2,0.1-0.4,0.2-0.8,0.2s-0.6,0.1-0.9,0.1
		c-2.1,0-3.1-1.1-3.1-3.3v-6.4h-1.5v-0.8l1.5-0.7l0.7-2.3h0.9v2.5h3.1v1.3h-3.1v6.3c0,0.6,0.2,1.1,0.5,1.5
		C553.7,22.7,554.1,22.9,554.7,22.9z"/>
</g>
<g>
	<g class="st3">
		<path class="st4" d="M495.7,281h-8v-14.3h8v1.5h-6.3v4.6h5.9v1.5h-5.9v5.3h6.3V281z"/>
		<path class="st4" d="M505.9,281v-6.9c0-0.9-0.2-1.5-0.6-2s-1-0.6-1.9-0.6c-1.1,0-1.9,0.3-2.5,0.9s-0.8,1.6-0.8,3v5.6h-1.6v-10.7
			h1.3l0.3,1.5h0.1c0.3-0.5,0.8-0.9,1.4-1.2s1.3-0.4,2-0.4c1.3,0,2.3,0.3,2.9,0.9s1,1.6,1,3v7L505.9,281L505.9,281z"/>
		<path class="st4" d="M519.7,270.3v1l-2,0.2c0.2,0.2,0.3,0.5,0.5,0.9s0.2,0.8,0.2,1.2c0,1-0.4,1.9-1.1,2.5s-1.7,0.9-2.9,0.9
			c-0.3,0-0.6,0-0.9-0.1c-0.7,0.4-1,0.8-1,1.4c0,0.3,0.1,0.5,0.4,0.6s0.7,0.2,1.2,0.2h1.9c1.2,0,2,0.2,2.7,0.7s0.9,1.2,0.9,2.1
			c0,1.2-0.5,2.1-1.4,2.7s-2.3,0.9-4.2,0.9c-1.4,0-2.5-0.3-3.2-0.8s-1.1-1.3-1.1-2.2c0-0.7,0.2-1.2,0.6-1.7s1-0.8,1.8-1
			c-0.3-0.1-0.5-0.3-0.7-0.6s-0.3-0.6-0.3-0.9c0-0.4,0.1-0.7,0.3-1s0.5-0.6,1-0.8c-0.6-0.2-1-0.6-1.4-1.2s-0.5-1.2-0.5-1.9
			c0-1.2,0.4-2.1,1.1-2.7s1.7-1,3-1c0.6,0,1.1,0.1,1.5,0.2h3.6V270.3z M511.1,282.8c0,0.6,0.2,1,0.7,1.3c0.5,0.3,1.2,0.4,2.1,0.4
			c1.4,0,2.4-0.2,3-0.6s1-1,1-1.7c0-0.6-0.2-1-0.5-1.2s-1-0.3-2-0.3h-1.9c-0.7,0-1.3,0.2-1.7,0.5S511.1,282.1,511.1,282.8z
			 M512,273.7c0,0.7,0.2,1.3,0.6,1.7s1,0.6,1.8,0.6c1.6,0,2.4-0.8,2.4-2.3c0-1.6-0.8-2.4-2.4-2.4c-0.8,0-1.3,0.2-1.8,0.6
			S512,272.9,512,273.7z"/>
		<path class="st4" d="M521.7,267.4c0-0.4,0.1-0.6,0.3-0.8s0.4-0.3,0.7-0.3s0.5,0.1,0.7,0.3s0.3,0.4,0.3,0.8s-0.1,0.6-0.3,0.8
			s-0.4,0.3-0.7,0.3s-0.5-0.1-0.7-0.3S521.7,267.8,521.7,267.4z M523.5,281h-1.6v-10.7h1.6V281z"/>
		<path class="st4" d="M534.2,281v-6.9c0-0.9-0.2-1.5-0.6-2s-1-0.6-1.9-0.6c-1.1,0-1.9,0.3-2.5,0.9s-0.8,1.6-0.8,3v5.6h-1.6v-10.7
			h1.3l0.3,1.5h0.1c0.3-0.5,0.8-0.9,1.4-1.2s1.3-0.4,2-0.4c1.3,0,2.3,0.3,2.9,0.9s1,1.6,1,3v7L534.2,281L534.2,281z"/>
		<path class="st4" d="M543.7,281.2c-1.6,0-2.8-0.5-3.7-1.4c-0.9-1-1.4-2.3-1.4-4s0.4-3.1,1.3-4.1s2-1.5,3.4-1.5
			c1.3,0,2.4,0.4,3.2,1.3s1.2,2,1.2,3.5v1h-7.4c0,1.3,0.3,2.2,1,2.9c0.6,0.7,1.5,1,2.5,1c1.2,0,2.3-0.2,3.4-0.7v1.4
			c-0.6,0.2-1.1,0.4-1.6,0.5C545,281.1,544.4,281.2,543.7,281.2z M543.3,271.5c-0.9,0-1.5,0.3-2.1,0.8c-0.5,0.6-0.8,1.3-0.9,2.3h5.6
			c0-1-0.2-1.8-0.7-2.3C544.8,271.7,544.1,271.5,543.3,271.5z"/>
		<path class="st4" d="M557.3,278.1c0,1-0.4,1.8-1.1,2.3s-1.8,0.8-3.1,0.8c-1.4,0-2.5-0.2-3.3-0.7V279c0.5,0.3,1.1,0.5,1.7,0.6
			c0.6,0.1,1.2,0.2,1.7,0.2c0.8,0,1.5-0.1,2-0.4s0.7-0.7,0.7-1.2c0-0.4-0.2-0.8-0.5-1.1s-1.1-0.6-2.1-1s-1.7-0.7-2.1-1
			s-0.7-0.6-0.9-0.9s-0.3-0.8-0.3-1.3c0-0.9,0.4-1.6,1.1-2.1c0.7-0.5,1.7-0.8,2.9-0.8s2.3,0.2,3.4,0.7l-0.6,1.3
			c-1.1-0.4-2-0.7-2.9-0.7c-0.8,0-1.3,0.1-1.7,0.4s-0.6,0.6-0.6,1c0,0.3,0.1,0.5,0.2,0.7s0.4,0.4,0.7,0.6s1,0.4,1.9,0.8
			c1.3,0.5,2.1,0.9,2.6,1.4C557.1,276.8,557.3,277.4,557.3,278.1z"/>
	</g>
</g>
<g>
	<g class="st3">
		<path class="st4" d="M454.5,244.8c-0.6,0-1.1-0.1-1.4-0.3v-1.4c0.5,0.1,0.9,0.2,1.4,0.2c0.6,0,1.1-0.2,1.5-0.6s0.5-1,0.5-1.7
			v-14.3h1.7v14.1c0,1.2-0.3,2.2-0.9,2.9S455.7,244.8,454.5,244.8z"/>
		<path class="st4" d="M468.3,241l-0.3-1.5h-0.1c-0.5,0.7-1.1,1.1-1.6,1.4s-1.2,0.4-2,0.4c-1.1,0-1.9-0.3-2.5-0.8s-0.9-1.3-0.9-2.3
			c0-2.2,1.7-3.3,5.2-3.4l1.8-0.1V234c0-0.8-0.2-1.5-0.5-1.9s-0.9-0.6-1.7-0.6c-0.9,0-1.9,0.3-3,0.8l-0.5-1.2
			c0.5-0.3,1.1-0.5,1.7-0.7s1.3-0.2,1.9-0.2c1.3,0,2.2,0.3,2.8,0.8s0.9,1.5,0.9,2.7v7.3L468.3,241L468.3,241z M464.6,239.9
			c1,0,1.8-0.3,2.4-0.8s0.9-1.3,0.9-2.3v-1l-1.6,0.1c-1.3,0-2.2,0.2-2.8,0.6s-0.9,0.9-0.9,1.7c0,0.6,0.2,1,0.5,1.3
			S464,239.9,464.6,239.9z"/>
		<path class="st4" d="M475.1,241l-4.1-10.7h1.7l2.3,6.3c0.5,1.5,0.8,2.4,0.9,2.9h0.1c0.1-0.3,0.3-1.1,0.7-2.1s1.2-3.4,2.6-7.1h1.7
			l-4,10.7L475.1,241L475.1,241z"/>
		<path class="st4" d="M489.4,241l-0.3-1.5H489c-0.5,0.7-1.1,1.1-1.6,1.4s-1.2,0.4-2,0.4c-1.1,0-1.9-0.3-2.5-0.8S482,239,482,238
			c0-2.2,1.7-3.3,5.2-3.4l1.8-0.1v-0.7c0-0.8-0.2-1.5-0.5-1.9s-0.9-0.6-1.7-0.6c-0.9,0-1.9,0.3-3,0.8l-0.5-1.2
			c0.5-0.3,1.1-0.5,1.7-0.7s1.3-0.2,1.9-0.2c1.3,0,2.2,0.3,2.8,0.8s0.9,1.5,0.9,2.7v7.3h-1.2L489.4,241L489.4,241z M485.7,239.9
			c1,0,1.8-0.3,2.4-0.8s0.9-1.3,0.9-2.3v-1l-1.6,0.1c-1.3,0-2.2,0.2-2.8,0.6s-0.9,0.9-0.9,1.7c0,0.6,0.2,1,0.5,1.3
			S485.1,239.9,485.7,239.9z"/>
		<path class="st4" d="M504.6,226.7l-5.3,14.3h-1.6l5.3-14.3H504.6z"/>
		<path class="st4" d="M513.6,235.1v5.9h-1.7v-14.3h3.9c1.8,0,3,0.3,3.9,1s1.3,1.7,1.3,3c0,1.9-1,3.2-2.9,3.8l3.9,6.4h-2l-3.5-5.9
			h-2.9V235.1z M513.6,233.6h2.3c1.2,0,2-0.2,2.6-0.7s0.8-1.2,0.8-2.1c0-0.9-0.3-1.6-0.8-2s-1.5-0.6-2.7-0.6h-2.2L513.6,233.6
			L513.6,233.6z"/>
		<path class="st4" d="M532.2,241h-8v-14.3h8v1.5h-6.3v4.6h5.9v1.5h-5.9v5.3h6.3V241z"/>
		<path class="st4" d="M543.5,237.2c0,1.3-0.5,2.2-1.4,2.9s-2.1,1.1-3.7,1.1c-1.7,0-3-0.2-3.9-0.7v-1.6c0.6,0.2,1.2,0.4,1.9,0.6
			c0.7,0.1,1.4,0.2,2.1,0.2c1.1,0,1.9-0.2,2.5-0.6c0.6-0.4,0.8-1,0.8-1.8c0-0.5-0.1-0.9-0.3-1.2s-0.5-0.6-1-0.9
			c-0.5-0.3-1.2-0.6-2.1-0.9c-1.3-0.5-2.3-1-2.8-1.7s-0.9-1.5-0.9-2.5c0-1.1,0.4-2,1.2-2.6s1.9-1,3.3-1c1.4,0,2.7,0.3,3.9,0.8
			l-0.5,1.4c-1.2-0.5-2.3-0.7-3.4-0.7c-0.9,0-1.6,0.2-2.1,0.6c-0.5,0.4-0.7,0.9-0.7,1.6c0,0.5,0.1,0.9,0.3,1.2s0.5,0.6,0.9,0.9
			c0.4,0.3,1.1,0.6,2,0.9c1.5,0.5,2.5,1.1,3.1,1.7C543.2,235.4,543.5,236.2,543.5,237.2z"/>
		<path class="st4" d="M550.8,241h-1.7v-12.8h-4.5v-1.5h10.7v1.5h-4.5V241z"/>
		<path class="st4" d="M571.6,241l-1.8-4.5h-5.7l-1.8,4.5h-1.7l5.6-14.3h1.4l5.6,14.3H571.6z M569.3,235l-1.7-4.4
			c-0.2-0.6-0.4-1.2-0.7-2.1c-0.1,0.6-0.3,1.3-0.6,2.1l-1.7,4.4H569.3z"/>
		<path class="st4" d="M584.3,230.9c0,1.4-0.5,2.6-1.5,3.3s-2.4,1.2-4.2,1.2H577v5.6h-1.7v-14.3h3.7
			C582.6,226.7,584.3,228.1,584.3,230.9z M577,234h1.5c1.5,0,2.5-0.2,3.2-0.7s1-1.2,1-2.3c0-0.9-0.3-1.6-0.9-2.1
			c-0.6-0.5-1.6-0.7-2.9-0.7H577V234z"/>
		<path class="st4" d="M587.3,241v-14.3h1.7V241H587.3z"/>
	</g>
</g>
<g class="st3">
	<path class="st4" d="M722.5,24l-1.8-4.5H715l-1.8,4.5h-1.7l5.6-14.3h1.4l5.6,14.3H722.5z M720.2,18l-1.7-4.4
		c-0.2-0.6-0.4-1.2-0.7-2.1c-0.1,0.6-0.3,1.3-0.6,2.1l-1.7,4.4H720.2z"/>
	<path class="st4" d="M733.2,22.6L733.2,22.6c-0.8,1.1-2,1.6-3.4,1.6s-2.5-0.5-3.3-1.4s-1.2-2.3-1.2-4.1s0.4-3.1,1.2-4.1
		s1.9-1.5,3.3-1.5c1.5,0,2.6,0.5,3.3,1.6h0.1l-0.1-0.8v-0.8V8.8h1.6V24h-1.3L733.2,22.6z M730,22.8c1.1,0,1.9-0.3,2.4-0.9
		s0.7-1.6,0.7-2.9v-0.3c0-1.5-0.3-2.6-0.8-3.2s-1.3-1-2.4-1c-1,0-1.7,0.4-2.2,1.1c-0.5,0.7-0.8,1.8-0.8,3.1c0,1.4,0.3,2.4,0.8,3.1
		S729,22.8,730,22.8z"/>
	<path class="st4" d="M751.8,24v-7c0-0.9-0.2-1.5-0.5-1.9s-0.9-0.6-1.7-0.6c-1,0-1.8,0.3-2.2,0.9c-0.4,0.6-0.7,1.5-0.7,2.7v6H745v-7
		c0-0.9-0.2-1.5-0.5-1.9s-0.9-0.6-1.7-0.6c-1,0-1.8,0.3-2.2,0.9c-0.4,0.6-0.7,1.6-0.7,3V24h-1.6V13.3h1.3l0.3,1.5h0.1
		c0.3-0.5,0.7-0.9,1.3-1.2s1.2-0.4,1.9-0.4c1.7,0,2.8,0.6,3.3,1.8h0.1c0.3-0.6,0.8-1,1.4-1.3s1.3-0.5,2.1-0.5c1.2,0,2.1,0.3,2.7,0.9
		s0.9,1.6,0.9,3v7h-1.9L751.8,24L751.8,24z"/>
	<path class="st4" d="M756.7,10.4c0-0.4,0.1-0.6,0.3-0.8s0.4-0.3,0.7-0.3s0.5,0.1,0.7,0.3s0.3,0.4,0.3,0.8s-0.1,0.6-0.3,0.8
		s-0.4,0.3-0.7,0.3s-0.5-0.1-0.7-0.3S756.7,10.8,756.7,10.4z M758.4,24h-1.6V13.3h1.6V24z"/>
	<path class="st4" d="M769.2,24v-6.9c0-0.9-0.2-1.5-0.6-2s-1-0.6-1.9-0.6c-1.1,0-1.9,0.3-2.5,0.9c-0.6,0.6-0.8,1.6-0.8,3V24h-1.6
		V13.3h1.3l0.3,1.5h0.1c0.3-0.5,0.8-0.9,1.4-1.2s1.3-0.4,2-0.4c1.3,0,2.3,0.3,2.9,0.9s1,1.6,1,3v7h-1.6L769.2,24L769.2,24z"/>
</g>
<g class="st3">
	<path class="st4" d="M934.3,16.8c0,2.3-0.6,4.1-1.7,5.4s-2.8,2-4.8,2c-2.1,0-3.7-0.6-4.9-1.9s-1.7-3.1-1.7-5.4s0.6-4.1,1.7-5.4
		s2.8-1.9,4.9-1.9c2.1,0,3.7,0.7,4.8,2S934.3,14.5,934.3,16.8z M922.9,16.8c0,1.9,0.4,3.4,1.2,4.4s2,1.5,3.6,1.5s2.8-0.5,3.6-1.5
		s1.2-2.5,1.2-4.4s-0.4-3.4-1.2-4.4s-2-1.5-3.6-1.5s-2.8,0.5-3.6,1.5S922.9,14.9,922.9,16.8z"/>
	<path class="st4" d="M942.2,24.2c-0.7,0-1.3-0.1-1.9-0.4s-1.1-0.7-1.5-1.2h-0.1c0.1,0.6,0.1,1.2,0.1,1.8v4.4h-1.6V13.3h1.3l0.2,1.5
		h0.1c0.4-0.6,0.9-1,1.5-1.3s1.2-0.4,1.9-0.4c1.4,0,2.5,0.5,3.3,1.5s1.2,2.3,1.2,4.1c0,1.8-0.4,3.1-1.2,4.1S943.6,24.2,942.2,24.2z
		 M941.9,14.5c-1.1,0-1.9,0.3-2.4,0.9c-0.5,0.6-0.7,1.6-0.8,2.9v0.4c0,1.5,0.3,2.6,0.8,3.2s1.3,1,2.4,1c0.9,0,1.6-0.4,2.2-1.1
		s0.8-1.8,0.8-3.1c0-1.3-0.3-2.4-0.8-3.1S942.9,14.5,941.9,14.5z"/>
	<path class="st4" d="M952.9,22.9c0.3,0,0.6,0,0.8-0.1s0.5-0.1,0.6-0.1v1.2c-0.2,0.1-0.4,0.2-0.8,0.2s-0.6,0.1-0.9,0.1
		c-2.1,0-3.1-1.1-3.1-3.3v-6.4H948v-0.8l1.5-0.7l0.7-2.3h0.9v2.5h3.1v1.3h-3.1v6.3c0,0.6,0.2,1.1,0.5,1.5S952.4,22.9,952.9,22.9z"/>
	<path class="st4" d="M956.4,10.4c0-0.4,0.1-0.6,0.3-0.8s0.4-0.3,0.7-0.3s0.5,0.1,0.7,0.3s0.3,0.4,0.3,0.8s-0.1,0.6-0.3,0.8
		s-0.4,0.3-0.7,0.3s-0.5-0.1-0.7-0.3S956.4,10.8,956.4,10.4z M958.1,24h-1.6V13.3h1.6V24z"/>
	<path class="st4" d="M975.2,24v-7c0-0.9-0.2-1.5-0.5-1.9s-0.9-0.6-1.7-0.6c-1,0-1.8,0.3-2.2,0.9c-0.4,0.6-0.8,1.4-0.8,2.6v6h-1.6
		v-7c0-0.9-0.2-1.5-0.5-1.9s-0.9-0.6-1.7-0.6c-1,0-1.8,0.3-2.2,0.9c-0.4,0.6-0.7,1.6-0.7,3V24h-1.6V13.3h1.3l0.3,1.5h0.1
		c0.3-0.5,0.7-0.9,1.3-1.2s1.2-0.4,1.9-0.4c1.7,0,2.8,0.6,3.3,1.8h0.1c0.3-0.6,0.8-1,1.4-1.3s1.3-0.5,2.1-0.5c1.2,0,2.1,0.3,2.7,0.9
		s0.9,1.6,0.9,3v7h-1.9L975.2,24L975.2,24z"/>
	<path class="st4" d="M980,10.4c0-0.4,0.1-0.6,0.3-0.8s0.4-0.3,0.7-0.3s0.5,0.1,0.7,0.3s0.3,0.4,0.3,0.8s-0.1,0.6-0.3,0.8
		s-0.4,0.3-0.7,0.3s-0.5-0.1-0.7-0.3S980,10.8,980,10.4z M981.8,24h-1.6V13.3h1.6V24z"/>
	<path class="st4" d="M992.1,24h-7.8v-1.1l5.8-8.3h-5.5v-1.3h7.3v1.3l-5.8,8.2h5.9L992.1,24L992.1,24z"/>
	<path class="st4" d="M999.1,24.2c-1.6,0-2.8-0.5-3.7-1.4s-1.4-2.3-1.4-4s0.4-3.1,1.3-4.1s2-1.5,3.4-1.5c1.3,0,2.4,0.4,3.2,1.3
		s1.2,2,1.2,3.5v1h-7.4c0,1.3,0.4,2.2,1,2.9s1.5,1,2.5,1c1.2,0,2.3-0.2,3.4-0.7v1.4c-0.6,0.2-1.1,0.4-1.6,0.5S999.8,24.2,999.1,24.2
		z M998.7,14.5c-0.9,0-1.5,0.3-2.1,0.8s-0.8,1.3-0.9,2.3h5.6c0-1-0.2-1.8-0.7-2.3S999.5,14.5,998.7,14.5z"/>
</g>
<g>
	<g>
		<line class="st5" x1="95.9" y1="51.8" x2="95.9" y2="54.3"/>
		<line class="st6" x1="95.9" y1="59.4" x2="95.9" y2="169.2"/>
		<line class="st5" x1="95.9" y1="171.7" x2="95.9" y2="174.2"/>
	</g>
</g>
<g>
	<g>
		<line class="st5" x1="27" y1="94.8" x2="29.5" y2="94.8"/>
		<line class="st7" x1="34.4" y1="94.8" x2="138.8" y2="94.8"/>
		<line class="st5" x1="141.2" y1="94.8" x2="143.7" y2="94.8"/>
	</g>
</g>
<circle class="st8" cx="82.1" cy="110.8" r="24.1"/>
<g>
	<g>
		<path class="st9" d="M77.4,128c-0.6-0.1-1,1.4-1.3,1.9s-0.4,1.1-0.5,1.7c-0.1,0.8-0.1,1.7,0,2.5c0.1,0.7,0.2,1.5,0.4,2.2
			c0.1,0.7,0.3,1.3,0.4,2c0.2,1.2,0.5,2.4,1.2,3.4c0.5,0.7,1.2,1.3,2,1.8c1.9,1.4,4,2.5,6.3,3.1c1.7,0.4,3.5,0.4,5.3,0.4
			c2.3,0,4.7-0.1,6.6-1.5c1-0.8,1.7-1.9,2.4-2.9c0.4-0.6,0.7-1.2,0.9-1.9c0.5-1.5,0.2-3,0.1-4.6c-0.2-3.5,0.4-7.3-1.3-10.5
			c-0.2-0.3-0.4-0.7-0.8-0.6c-0.4,0-0.3,0.5-0.4,0.2c-0.2-1-0.9-0.1-1.7-0.6c-0.5-0.3-1.7,0.9-1.9,0.4c-0.2-0.8-0.3-1.7-0.2-2.5
			c0-0.3,0-0.7-0.2-0.9c-0.3-0.3-1.8,0-2.2,0.3c-1.3,0.7-0.6-0.5-0.6,2.2c0,0.6-0.1,1-0.9,1c-1,0-0.7-1.1-0.8-2.2
			c-0.1-1-0.1-1.9-0.6-2.8c-0.2-0.4-1.5-1.1-2-1c-0.7,0.2-2,0.9-1.9,1.6c0.1,1.1,1.1,2.5,0.7,3.6c-0.2,0.6-1.4,0.6-1.3,1.2
			c0,0.1-0.2-0.7,0-1.4c0.3-1,1-2.7-2.6-2c-0.7,0.1-1.3,0.5-1.4,1.1s0,1.3,0.1,2c0.1,0.9,0,1.9,0,2.8c-0.1,1.3,0.3,2.9-0.7,3.7
			c-0.9,0.7-0.3,1.3-1.5,1.8c0-1.8,1-3.8,1.1-5.6h-2.7V128z"/>
	</g>
	<path d="M98.9,122.7c-0.5,0-1,0-1.6,0c0-0.5-0.5-1.6-1-2.1s-1.3-1-2.8-1c-0.5,0-1,0-1.6,0.3c-0.3-0.5-0.5-0.8-0.8-1.3
		c-0.5-0.5-1.3-1-2.8-1c-2.1,0-3.1,1.3-3.6,2.6c-0.3,0-0.8-0.3-1.3-0.3c-1.3,0-2.1,0.5-2.8,1c-1.3,1.6-1.3,3.6-1.3,3.9v1
		c-1.6,0-2.8,0.5-3.6,1.3c-1.6,1.8-1.6,4.1-1.6,7.2c0,0.5,0,1.3,0,1.8c0,3.6,1.8,5.4,3.6,7.2l0.8,1c3.4,3.1,6.5,4.1,13.2,4.1
		c7.5,0,10.9-4.1,10.9-13.2v-6.5C102.5,127.1,102,123.5,98.9,122.7z M93.4,122.2c1,0,1.3,1,1.3,1.6v2.1c0,0.8,0.5,1.3,1,1.3
		c0.8,0,1.3-0.3,1.3-1c0,0,0-1,1-0.8c1.6,0.5,1.8,2.8,1.8,3.4l0,0v6.7c0,8.8-3.4,10.6-8.3,10.6c-6.2,0-8.5-0.8-11.1-3.4
		c-0.3-0.3-0.5-0.5-1-1c-1.8-1.8-2.8-2.8-2.8-5.4c0-0.5,0-0.8,0-1.6c0-2.6,0-4.7,0.8-5.4c0.3-0.5,1-0.8,1.8-0.8v2.1l-0.8,3.1
		c0,0.3,0,0.3,0.3,0.3c0.3,0.3,0.5,0,0.5,0l2.6-3.1v-0.3v-5.2c0-0.3,0-1.6,0.5-2.1c0.3-0.3,0.5-0.5,1-0.5c0.8,0,1,0.5,1,1v1
		c0,0.5,0.5,1.3,1.3,1.3s1.3-0.8,1.3-1.3v-3.4c0-0.3,0-1.3,1.3-1.3c0.8,0,1.3,0.5,1.3,1.3v3.1c0,0.8,0.5,1.6,1.3,1.6
		s1.3-0.8,1.3-1.3v-1.3C92.2,122.7,92.7,122.2,93.4,122.2z"/>
</g>
<g>
	<g>
		<g>
			<g>
				<g>
					<g>
						<defs>
							
								<ellipse id="SVGID_10_" transform="matrix(0.7071 -0.7071 0.7071 0.7071 -127.7104 427.6798)" cx="452.4" cy="368" rx="62.7" ry="62.7"/>
						</defs>
						<clipPath id="SVGID_12_">
							<use xlink:href="#SVGID_10_"  style="overflow:visible;"/>
						</clipPath>
						
							<ellipse transform="matrix(0.7071 -0.7071 0.7071 0.7071 -127.7104 427.6798)" class="st10" cx="452.4" cy="368" rx="62.7" ry="62.7"/>
					</g>
				</g>
			</g>
			<g>
				<g>
					<g>
						<defs>
							
								<ellipse id="SVGID_13_" transform="matrix(0.7071 -0.7071 0.7071 0.7071 -127.7104 427.6798)" cx="452.4" cy="368" rx="62.7" ry="62.7"/>
						</defs>
						<clipPath id="SVGID_14_">
							<use xlink:href="#SVGID_13_"  style="overflow:visible;"/>
						</clipPath>
						<circle class="st11" cx="452.4" cy="368" r="62"/>
					</g>
				</g>
			</g>
			<g>
				<path id="SVGID_6_" class="st2" d="M452.4,305.3c-34.6,0-62.7,28.1-62.7,62.7s28.1,62.7,62.7,62.7s62.7-28.1,62.7-62.7
					S487,305.3,452.4,305.3z"/>
			</g>
		</g>
		<path class="st12" d="M477.8,345.8c-0.6-2.4-2.8-4.1-5.4-4.1h-40.1c-2.6,0-4.7,1.7-5.4,4.1c-0.1,0.5-1,3.5-2,7.1
			c-2.7,9.3-2.3,19.3,1.1,28.3l3.2,8.5c0.8,2.5,3.6,4.5,6.2,4.5h33.8c2.6,0,5.4-2,6.2-4.5l3.3-8.7c3.4-9,3.8-18.8,1.2-28
			C478.8,349.4,478,346.4,477.8,345.8z"/>
		<g>
			<g>
				<rect x="447.6" y="352.5" class="st4" width="9.4" height="9.4"/>
			</g>
			<g>
				<path class="st4" d="M452.3,375.7l-5.7-5.7l5.7-5.7l5.7,5.7L452.3,375.7z M447.8,370l4.5,4.5l4.5-4.5l-4.5-4.5L447.8,370z"/>
			</g>
			<g>
				<g>
					<rect x="459" y="374" class="st4" width="9.4" height="9.4"/>
				</g>
				<g>
					<rect x="436.4" y="374" class="st4" width="9.4" height="9.4"/>
				</g>
			</g>
			<g>
				<path class="st4" d="M441.1,374.5c-0.2,0-0.4-0.2-0.4-0.4V370c0-0.2,0.2-0.4,0.4-0.4c0.2,0,0.4,0.2,0.4,0.4v4.1
					C441.4,374.2,441.3,374.5,441.1,374.5z"/>
			</g>
			<g>
				<path class="st4" d="M447.1,370.4h-6c-0.2,0-0.4-0.2-0.4-0.4s0.2-0.4,0.4-0.4h6c0.2,0,0.4,0.2,0.4,0.4S447.3,370.4,447.1,370.4z
					"/>
			</g>
			<g>
				<path class="st4" d="M463.7,370.4h-6c-0.2,0-0.4-0.2-0.4-0.4s0.2-0.4,0.4-0.4h6c0.2,0,0.4,0.2,0.4,0.4S463.9,370.4,463.7,370.4z
					"/>
			</g>
			<g>
				<path class="st4" d="M463.7,374.5c-0.2,0-0.4-0.2-0.4-0.4V370c0-0.2,0.2-0.4,0.4-0.4s0.4,0.2,0.4,0.4v4.1
					C464,374.2,463.9,374.5,463.7,374.5z"/>
			</g>
			<g>
				<path class="st4" d="M452.3,365.3c-0.2,0-0.4-0.2-0.4-0.4V362c0-0.2,0.2-0.4,0.4-0.4s0.4,0.2,0.4,0.4v2.9
					C452.8,365.2,452.6,365.3,452.3,365.3z"/>
			</g>
		</g>
	</g>
	<g>
		<g>
			<g>
				<g>
					<g>
						<defs>
							<circle id="SVGID_15_" cx="592.7" cy="368" r="62.7"/>
						</defs>
						<clipPath id="SVGID_16_">
							<use xlink:href="#SVGID_15_"  style="overflow:visible;"/>
						</clipPath>
						<circle class="st13" cx="592.7" cy="368" r="62.7"/>
					</g>
				</g>
			</g>
			<g>
				<g>
					<g>
						<defs>
							<circle id="SVGID_17_" cx="592.7" cy="368" r="62.7"/>
						</defs>
						<clipPath id="SVGID_18_">
							<use xlink:href="#SVGID_17_"  style="overflow:visible;"/>
						</clipPath>
						<circle class="st14" cx="592.7" cy="368" r="62"/>
					</g>
				</g>
			</g>
			<g>
				<path id="SVGID_2_" class="st2" d="M592.7,305.3c-34.6,0-62.7,28.1-62.7,62.7s28.1,62.7,62.7,62.7c34.6,0,62.7-28.1,62.7-62.7
					S627.3,305.3,592.7,305.3z"/>
			</g>
		</g>
		<path class="st12" d="M618.1,345.8c-0.6-2.4-2.8-4.1-5.4-4.1h-40.1c-2.6,0-4.7,1.7-5.4,4.1c-0.1,0.5-1,3.5-2,7.1
			c-2.7,9.3-2.3,19.3,1.1,28.3l3.2,8.5c0.8,2.5,3.6,4.5,6.2,4.5h33.8c2.6,0,5.4-2,6.2-4.5l3.3-8.7c3.4-9,3.8-18.8,1.2-28
			C619.1,349.4,618.3,346.4,618.1,345.8z"/>
		<g>
			<rect x="577.3" y="357.2" class="st5" width="30.7" height="21.5"/>
			<line class="st5" x1="577.9" y1="364.5" x2="608.1" y2="364.5"/>
			<line class="st5" x1="577.4" y1="371.7" x2="608.1" y2="371.7"/>
			<line class="st5" x1="585.9" y1="364.3" x2="585.9" y2="378.7"/>
		</g>
	</g>
</g>
<g>
	<g>
		<g>
			<g>
				<g>
					<defs>
						<circle id="SVGID_19_" cx="742" cy="113" r="62.7"/>
					</defs>
					<clipPath id="SVGID_20_">
						<use xlink:href="#SVGID_19_"  style="overflow:visible;"/>
					</clipPath>
					<circle class="st15" cx="742" cy="113" r="62.7"/>
				</g>
			</g>
		</g>
		<g>
			<g>
				<g>
					<defs>
						<circle id="SVGID_21_" cx="742" cy="113" r="62.7"/>
					</defs>
					<clipPath id="SVGID_22_">
						<use xlink:href="#SVGID_21_"  style="overflow:visible;"/>
					</clipPath>
					<circle class="st16" cx="742" cy="113" r="62"/>
				</g>
			</g>
		</g>
		<g>
			<path id="SVGID_8_" class="st2" d="M742,50.3c-34.6,0-62.7,28.1-62.7,62.7s28.1,62.7,62.7,62.7s62.7-28.1,62.7-62.7
				S776.6,50.3,742,50.3z"/>
		</g>
	</g>
	<g>
		<g>
			
				<linearGradient id="SVGID_23_" gradientUnits="userSpaceOnUse" x1="755.54" y1="484.8656" x2="770.4537" y2="499.7793" gradientTransform="matrix(1 0 0 -1 0 585.2756)">
				<stop  offset="0" style="stop-color:#333333"/>
				<stop  offset="1" style="stop-color:#808080"/>
			</linearGradient>
			<path class="st17" d="M761,95h-7.2v-3.2h7.2v-7.4h3.2v7.4h7.2V95h-7.2v7.3H761V95z"/>
		</g>
		<g>
			<path class="st12" d="M743.1,92c3.8,2.2,5.9,6.4,5.9,11.9c0,9.3-5.7,18.5-11.4,18.5c-5.8,0-11.4-9.2-11.4-18.5
				c0-5.5,2.1-9.7,5.9-11.9c1.7-1,3.6-1.5,5.5-1.5S741.4,91,743.1,92z"/>
			<path class="st12" d="M761.5,131.8l1.4,4.4c0.2,0.6,0.1,1.3-0.2,1.9c-0.4,0.5-0.9,0.9-1.5,0.9h-47c-0.6,0-1.2-0.3-1.5-0.9
				c-0.3-0.5-0.4-1.2-0.3-1.9l1.4-4.4c2.1-6.8,7.5-11.8,14-12.8c2.9,3.1,6.3,4.7,9.9,4.7c3.6,0,7-1.6,9.9-4.7
				C754,120,759.4,124.9,761.5,131.8z"/>
		</g>
	</g>
</g>
<g>
	<g>
		<g>
			<g>
				<g>
					<defs>
						
							<ellipse id="SVGID_24_" transform="matrix(0.7071 -0.7071 0.7071 0.7071 201.8602 713.3337)" cx="962" cy="113" rx="62.7" ry="62.7"/>
					</defs>
					<clipPath id="SVGID_25_">
						<use xlink:href="#SVGID_24_"  style="overflow:visible;"/>
					</clipPath>
					
						<ellipse transform="matrix(0.2238 -0.9746 0.9746 0.2238 636.557 1025.3047)" class="st18" cx="962" cy="113" rx="62.7" ry="62.7"/>
				</g>
			</g>
		</g>
		<g>
			<g>
				<g>
					<defs>
						
							<ellipse id="SVGID_26_" transform="matrix(0.7071 -0.7071 0.7071 0.7071 201.8602 713.3337)" cx="962" cy="113" rx="62.7" ry="62.7"/>
					</defs>
					<clipPath id="SVGID_27_">
						<use xlink:href="#SVGID_26_"  style="overflow:visible;"/>
					</clipPath>
					<circle class="st19" cx="962" cy="113" r="62"/>
				</g>
			</g>
		</g>
		<g>
			<path id="SVGID_11_" class="st2" d="M962,50.3c-34.6,0-62.7,28.1-62.7,62.7s28.1,62.7,62.7,62.7s62.7-28.1,62.7-62.7
				S996.6,50.3,962,50.3z"/>
		</g>
	</g>
	<g>
		<polygon class="st20" points="929.2,140.8 949.7,129.6 950,129.5 950.4,129.5 966.5,131.3 964.3,133.2 962,105.5 961.9,103.9 
			963.5,102.7 977.7,92 982.4,98.8 967.2,108.2 968.7,105.3 968.1,133.1 968.1,135.6 965.9,135.1 950,131.8 950.7,131.7 		"/>
		<g>
			<g>
				<polygon class="st4" points="984.1,107.7 994.8,85.2 970,87.2 				"/>
			</g>
		</g>
	</g>
</g>
<g>
	<g>
		<g>
			<g>
				<g>
					<defs>
						<circle id="SVGID_28_" cx="302" cy="113" r="62.7"/>
					</defs>
					<clipPath id="SVGID_29_">
						<use xlink:href="#SVGID_28_"  style="overflow:visible;"/>
					</clipPath>
					<circle class="st21" cx="302" cy="113" r="62"/>
				</g>
			</g>
		</g>
		<g>
			<g>
				<g>
					<defs>
						<circle id="SVGID_30_" cx="302" cy="113" r="62.7"/>
					</defs>
					<clipPath id="SVGID_31_">
						<use xlink:href="#SVGID_30_"  style="overflow:visible;"/>
					</clipPath>
					<g class="st22">
						<g>
							<path class="st20" d="M296.4,97.3c1.1,0,2,0.9,2,2v27.3c0,1.1-0.9,2-2,2h-27.3c-1.1,0-2-0.9-2-2V99.3c0-1.1,0.9-2,2-2H296.4
								 M296.4,94.3h-27.3c-2.8,0-5,2.2-5,5v27.3c0,2.8,2.2,5,5,5h27.3c2.8,0,5-2.2,5-5V99.3C301.4,96.6,299.2,94.3,296.4,94.3
								L296.4,94.3z"/>
						</g>
					</g>
				</g>
			</g>
		</g>
		<g>
			<g>
				<g>
					<defs>
						<circle id="SVGID_32_" cx="302" cy="113" r="62.7"/>
					</defs>
					<clipPath id="SVGID_33_">
						<use xlink:href="#SVGID_32_"  style="overflow:visible;"/>
					</clipPath>
					<polyline class="st23" points="274.3,114 282.8,120 305.8,98 					"/>
				</g>
			</g>
		</g>
		<g>
			<g>
				<g>
					<defs>
						<circle id="SVGID_34_" cx="302" cy="113" r="62.7"/>
					</defs>
					<clipPath id="SVGID_35_">
						<use xlink:href="#SVGID_34_"  style="overflow:visible;"/>
					</clipPath>
					<g class="st24">
						<g>
							<path class="st20" d="M480.7,97.3c1.1,0,2,0.9,2,2v27.3c0,1.1-0.9,2-2,2H319.3c-1.1,0-2-0.9-2-2V99.3c0-1.1,0.9-2,2-2H480.7
								 M480.7,94.3H319.3c-2.8,0-5,2.2-5,5v27.3c0,2.8,2.2,5,5,5h161.4c2.8,0,5-2.2,5-5V99.3C485.7,96.6,483.5,94.3,480.7,94.3
								L480.7,94.3z"/>
						</g>
					</g>
				</g>
			</g>
		</g>
	</g>
	<g>
		<g>
			<g>
				<g>
					<defs>
						<circle id="SVGID_36_" cx="302" cy="113" r="62.7"/>
					</defs>
					<clipPath id="SVGID_37_">
						<use xlink:href="#SVGID_36_"  style="overflow:visible;"/>
					</clipPath>
					<circle class="st25" cx="302" cy="113" r="62.7"/>
				</g>
			</g>
		</g>
		<g>
			<g>
				<g>
					<defs>
						<circle id="SVGID_38_" cx="302" cy="113" r="62.7"/>
					</defs>
					<clipPath id="SVGID_39_">
						<use xlink:href="#SVGID_38_"  style="overflow:visible;"/>
					</clipPath>
					<circle class="st26" cx="302" cy="113" r="62"/>
				</g>
			</g>
		</g>
		<g>
			<path id="SVGID_3_" class="st2" d="M302,50.3c-34.6,0-62.7,28.1-62.7,62.7s28.1,62.7,62.7,62.7s62.7-28.1,62.7-62.7
				S336.6,50.3,302,50.3z"/>
		</g>
	</g>
</g>
<line class="st27" x1="85.5" y1="254" x2="963" y2="254"/>
<g>
	<g>
		<line class="st2" x1="522" y1="176" x2="522" y2="178.5"/>
		<line class="st28" x1="522" y1="183.4" x2="522" y2="210.1"/>
		<line class="st2" x1="522" y1="212.5" x2="522" y2="215"/>
	</g>
</g>
<g>
	<g>
		<line class="st2" x1="302" y1="176" x2="302" y2="178.5"/>
		<line class="st29" x1="302" y1="183.4" x2="302" y2="249.1"/>
		<line class="st2" x1="302" y1="251.5" x2="302" y2="254"/>
	</g>
</g>
<g>
	<g>
		<line class="st2" x1="85" y1="176" x2="85" y2="178.5"/>
		<line class="st29" x1="85" y1="183.4" x2="85" y2="249.1"/>
		<line class="st2" x1="85" y1="251.5" x2="85" y2="254"/>
	</g>
</g>
<g>
	<g>
		<line class="st2" x1="742" y1="176" x2="742" y2="178.5"/>
		<line class="st29" x1="742" y1="183.4" x2="742" y2="249.1"/>
		<line class="st2" x1="742" y1="251.5" x2="742" y2="254"/>
	</g>
</g>
<g>
	<g>
		<line class="st2" x1="962" y1="176" x2="962" y2="178.5"/>
		<line class="st29" x1="962" y1="183.4" x2="962" y2="249.1"/>
		<line class="st2" x1="962" y1="251.5" x2="962" y2="254"/>
	</g>
</g>
<path class="st20" d="M168.5,486H7.1c-0.8,0-1.3-1-0.8-1.6l11.2-14.3c0.3-0.4,0.3-0.9,0-1.2L6.3,454.6c-0.5-0.7,0-1.6,0.8-1.6h161.5
	c0.3,0,0.6,0.1,0.8,0.4l12.2,15.5c0.3,0.4,0.3,0.9,0,1.2l-12.2,15.5C169.1,485.9,168.8,486,168.5,486z"/>
<path class="st20" d="M1052.5,486H871.1c-0.8,0-1.3-1-0.8-1.6l11.2-14.3c0.3-0.4,0.3-0.9,0-1.2l-11.2-14.3c-0.5-0.7,0-1.6,0.8-1.6
	h181.5c0.3,0,0.6,0.1,0.8,0.4l12.2,15.5c0.3,0.4,0.3,0.9,0,1.2l-12.2,15.5C1053.1,485.9,1052.8,486,1052.5,486z"/>
<path class="st20" d="M793.5,486H240.1c-0.8,0-1.3-1-0.8-1.6l11.2-14.3c0.3-0.4,0.3-0.9,0-1.2l-11.2-14.3c-0.5-0.7,0-1.6,0.8-1.6
	h553.5c0.3,0,0.6,0.1,0.8,0.4l12.2,15.5c0.3,0.4,0.3,0.9,0,1.2l-12.2,15.5C794.1,485.9,793.8,486,793.5,486z"/>
<g class="st3">
	<path class="st9" d="M65.8,477L61,464.3h-0.1c0.1,1,0.1,2.2,0.1,3.6v9.1h-1.5v-14.3H62l4.5,11.8h0.1l4.6-11.8h2.5V477H72v-9.2
		c0-1.1,0-2.2,0.1-3.4H72L67.2,477H65.8z"/>
	<path class="st9" d="M86.6,471.6c0,1.7-0.4,3.1-1.3,4.1s-2.1,1.5-3.6,1.5c-1,0-1.8-0.2-2.5-0.7s-1.3-1.1-1.7-1.9s-0.6-1.8-0.6-2.9
		c0-1.7,0.4-3.1,1.3-4.1s2.1-1.5,3.6-1.5s2.7,0.5,3.6,1.5S86.6,469.9,86.6,471.6z M78.4,471.6c0,1.4,0.3,2.4,0.8,3.1
		s1.4,1.1,2.4,1.1s1.9-0.4,2.4-1.1s0.8-1.8,0.8-3.1c0-1.4-0.3-2.4-0.8-3.1s-1.4-1.1-2.4-1.1c-1.1,0-1.9,0.3-2.4,1
		S78.4,470.3,78.4,471.6z"/>
	<path class="st9" d="M96.7,475.6L96.7,475.6c-0.8,1.1-2,1.6-3.4,1.6s-2.5-0.5-3.3-1.4s-1.2-2.3-1.2-4.1s0.4-3.1,1.2-4.1
		s1.9-1.5,3.3-1.5c1.5,0,2.6,0.5,3.3,1.6h0.1l-0.1-0.8v-0.8v-4.4h1.6V477h-1.3L96.7,475.6z M93.5,475.8c1.1,0,1.9-0.3,2.4-0.9
		s0.7-1.6,0.7-2.9v-0.3c0-1.5-0.3-2.6-0.8-3.2s-1.3-1-2.4-1c-1,0-1.7,0.4-2.2,1.1s-0.8,1.8-0.8,3.1c0,1.4,0.3,2.4,0.8,3.1
		S92.5,475.8,93.5,475.8z"/>
	<path class="st9" d="M106.2,477.2c-1.6,0-2.8-0.5-3.7-1.4s-1.4-2.3-1.4-4s0.4-3.1,1.3-4.1s2-1.5,3.4-1.5c1.3,0,2.4,0.4,3.2,1.3
		s1.2,2,1.2,3.5v1h-7.4c0,1.3,0.4,2.2,1,2.9s1.5,1,2.5,1c1.2,0,2.3-0.2,3.4-0.7v1.4c-0.6,0.2-1.1,0.4-1.6,0.5
		S106.9,477.2,106.2,477.2z M105.8,467.5c-0.9,0-1.5,0.3-2.1,0.8s-0.8,1.3-0.9,2.3h5.6c0-1-0.2-1.8-0.7-2.3S106.6,467.5,105.8,467.5
		z"/>
	<path class="st9" d="M114.5,477h-1.6v-15.2h1.6V477z"/>
</g>
<g class="st3">
	<path class="st9" d="M496.4,477h-8v-14.3h8v1.5h-6.3v4.6h5.9v1.5h-5.9v5.3h6.3V477z"/>
	<path class="st9" d="M501.9,471.5l-3.7-5.2h1.8l2.8,4.1l2.8-4.1h1.8l-3.7,5.2l3.9,5.5h-1.8l-3-4.3l-3,4.3H498L501.9,471.5z"/>
	<path class="st9" d="M514.3,477.2c-1.6,0-2.8-0.5-3.7-1.4s-1.4-2.3-1.4-4s0.4-3.1,1.3-4.1s2-1.5,3.4-1.5c1.3,0,2.4,0.4,3.2,1.3
		s1.2,2,1.2,3.5v1h-7.4c0,1.3,0.4,2.2,1,2.9s1.5,1,2.5,1c1.2,0,2.3-0.2,3.4-0.7v1.4c-0.6,0.2-1.1,0.4-1.6,0.5S515,477.2,514.3,477.2
		z M513.8,467.5c-0.9,0-1.5,0.3-2.1,0.8s-0.8,1.3-0.9,2.3h5.6c0-1-0.2-1.8-0.7-2.3S514.7,467.5,513.8,467.5z"/>
	<path class="st9" d="M525.3,477.2c-1.5,0-2.7-0.5-3.6-1.4s-1.3-2.3-1.3-4c0-1.8,0.4-3.2,1.3-4.2s2.1-1.5,3.7-1.5
		c0.5,0,1,0.1,1.5,0.2s0.9,0.2,1.2,0.4l-0.5,1.4c-0.4-0.1-0.7-0.3-1.2-0.4s-0.8-0.1-1.1-0.1c-2.2,0-3.3,1.4-3.3,4.2
		c0,1.3,0.3,2.3,0.8,3s1.3,1.1,2.4,1.1c0.9,0,1.8-0.2,2.7-0.6v1.4C527.3,477,526.4,477.2,525.3,477.2z"/>
	<path class="st9" d="M532,466.3v6.9c0,0.9,0.2,1.5,0.6,2s1,0.6,1.9,0.6c1.1,0,1.9-0.3,2.5-0.9s0.8-1.6,0.8-3v-5.6h1.6V477H538
		l-0.2-1.4h-0.1c-0.3,0.5-0.8,0.9-1.4,1.2c-0.6,0.3-1.3,0.4-2,0.4c-1.3,0-2.3-0.3-2.9-0.9s-1-1.6-1-3v-7L532,466.3L532,466.3z"/>
	<path class="st9" d="M546.2,475.9c0.3,0,0.6,0,0.8-0.1c0.3,0,0.5-0.1,0.6-0.1v1.2c-0.2,0.1-0.4,0.2-0.8,0.2s-0.6,0.1-0.9,0.1
		c-2.1,0-3.1-1.1-3.1-3.3v-6.4h-1.5v-0.8l1.5-0.7l0.7-2.3h0.9v2.5h3.1v1.3h-3.1v6.3c0,0.6,0.2,1.1,0.5,1.5
		C545.3,475.7,545.7,475.9,546.2,475.9z"/>
	<path class="st9" d="M554.4,477.2c-1.6,0-2.8-0.5-3.7-1.4c-0.9-1-1.4-2.3-1.4-4s0.4-3.1,1.3-4.1s2-1.5,3.4-1.5
		c1.3,0,2.4,0.4,3.2,1.3s1.2,2,1.2,3.5v1H551c0,1.3,0.3,2.2,1,2.9c0.6,0.7,1.5,1,2.5,1c1.2,0,2.3-0.2,3.4-0.7v1.4
		c-0.6,0.2-1.1,0.4-1.6,0.5C555.7,477.1,555.1,477.2,554.4,477.2z M553.9,467.5c-0.9,0-1.5,0.3-2.1,0.8c-0.5,0.6-0.8,1.3-0.9,2.3
		h5.6c0-1-0.2-1.8-0.7-2.3C555.4,467.7,554.8,467.5,553.9,467.5z"/>
</g>
<g class="st3">
	<path class="st9" d="M925.9,477v-14.3h1.7V477H925.9z"/>
	<path class="st9" d="M944.9,477v-7c0-0.9-0.2-1.5-0.5-1.9c-0.4-0.4-0.9-0.6-1.7-0.6c-1,0-1.8,0.3-2.2,0.9c-0.5,0.6-0.7,1.5-0.7,2.7
		v6h-1.6v-7c0-0.9-0.2-1.5-0.5-1.9c-0.4-0.4-0.9-0.6-1.7-0.6c-1,0-1.8,0.3-2.2,0.9c-0.5,0.6-0.7,1.6-0.7,3v5.6h-1.6v-10.7h1.3
		l0.3,1.5h0.1c0.3-0.5,0.7-0.9,1.3-1.2s1.2-0.4,1.9-0.4c1.7,0,2.8,0.6,3.3,1.8h0.1c0.3-0.6,0.8-1,1.4-1.3s1.3-0.5,2.1-0.5
		c1.2,0,2.1,0.3,2.7,0.9c0.6,0.6,0.9,1.6,0.9,3v7h-2L944.9,477L944.9,477z"/>
	<path class="st9" d="M954.8,477.2c-0.7,0-1.3-0.1-1.9-0.4s-1.1-0.7-1.5-1.2h-0.1c0.1,0.6,0.1,1.2,0.1,1.8v4.4h-1.6v-15.5h1.3
		l0.2,1.5h0.1c0.4-0.6,0.9-1,1.5-1.3s1.2-0.4,1.9-0.4c1.4,0,2.5,0.5,3.3,1.5s1.2,2.3,1.2,4.1c0,1.8-0.4,3.1-1.2,4.1
		C957.3,476.7,956.2,477.2,954.8,477.2z M954.6,467.5c-1.1,0-1.9,0.3-2.4,0.9s-0.7,1.6-0.8,2.9v0.4c0,1.5,0.3,2.6,0.8,3.2
		s1.3,1,2.4,1c0.9,0,1.6-0.4,2.2-1.1c0.5-0.7,0.8-1.8,0.8-3.1c0-1.3-0.3-2.4-0.8-3.1C956.3,467.8,955.5,467.5,954.6,467.5z"/>
	<path class="st9" d="M967,466.1c0.5,0,0.9,0,1.3,0.1l-0.2,1.5c-0.4-0.1-0.8-0.1-1.2-0.1c-0.9,0-1.6,0.4-2.2,1.1s-0.9,1.6-0.9,2.6
		v5.7h-1.6v-10.7h1.3l0.2,2h0.1c0.4-0.7,0.9-1.2,1.4-1.6C965.7,466.3,966.3,466.1,967,466.1z"/>
	<path class="st9" d="M979.5,471.6c0,1.7-0.4,3.1-1.3,4.1s-2.1,1.5-3.6,1.5c-1,0-1.8-0.2-2.5-0.7s-1.3-1.1-1.7-1.9s-0.6-1.8-0.6-2.9
		c0-1.7,0.4-3.1,1.3-4.1c0.9-1,2.1-1.5,3.6-1.5s2.7,0.5,3.6,1.5C979.1,468.6,979.5,469.9,979.5,471.6z M971.3,471.6
		c0,1.4,0.3,2.4,0.8,3.1s1.4,1.1,2.4,1.1c1.1,0,1.9-0.4,2.4-1.1c0.6-0.7,0.8-1.8,0.8-3.1c0-1.4-0.3-2.4-0.8-3.1s-1.4-1.1-2.4-1.1
		c-1.1,0-1.9,0.3-2.4,1C971.6,469.2,971.3,470.3,971.3,471.6z"/>
	<path class="st9" d="M984.7,477l-4.1-10.7h1.7l2.3,6.3c0.5,1.5,0.8,2.4,0.9,2.9h0.1c0.1-0.3,0.3-1.1,0.7-2.1s1.2-3.4,2.6-7.1h1.7
		l-4.1,10.7L984.7,477L984.7,477z"/>
	<path class="st9" d="M996.9,477.2c-1.6,0-2.8-0.5-3.7-1.4c-0.9-1-1.4-2.3-1.4-4s0.4-3.1,1.3-4.1s2-1.5,3.4-1.5
		c1.3,0,2.4,0.4,3.2,1.3s1.2,2,1.2,3.5v1h-7.4c0,1.3,0.4,2.2,1,2.9c0.6,0.7,1.5,1,2.5,1c1.2,0,2.3-0.2,3.4-0.7v1.4
		c-0.6,0.2-1.1,0.4-1.6,0.5C998.2,477.1,997.6,477.2,996.9,477.2z M996.4,467.5c-0.9,0-1.5,0.3-2.1,0.8c-0.5,0.6-0.8,1.3-0.9,2.3
		h5.6c0-1-0.2-1.8-0.7-2.3C997.9,467.7,997.3,467.5,996.4,467.5z"/>
</g>
<g>
	<g>
		<defs>
			<circle id="SVGID_40_" cx="522" cy="113" r="62.7"/>
		</defs>
		<clipPath id="SVGID_41_">
			<use xlink:href="#SVGID_40_"  style="overflow:visible;"/>
		</clipPath>
		<circle class="st30" cx="522" cy="113" r="62.7"/>
		<circle class="st30" cx="522" cy="113" r="62"/>
		<use xlink:href="#SVGID_40_"  style="overflow:visible;fill:none;stroke:#989898;stroke-miterlimit:10;"/>
	</g>
	<g>
		<path class="st20" d="M537.2,89.1c4.3,0,8.3,1.7,11.3,4.7c3,3,4.7,7,4.7,11.3c0,4.3-1.7,8.3-4.7,11.3L522,142.9l-26.5-26.5
			c-3-3-4.7-7-4.7-11.3c0-4.3,1.7-8.3,4.7-11.3c3-3,7-4.7,11.3-4.7c4.3,0,8.3,1.7,11.3,4.7l1.8,1.8l2.1,2.1l2.1-2.1l1.8-1.8
			C528.9,90.7,532.9,89.1,537.2,89.1 M537.2,86.1c-5.1,0-9.8,2-13.4,5.6l-1.8,1.8l-1.8-1.8c-3.6-3.6-8.4-5.6-13.4-5.6
			c-5.1,0-9.8,2-13.4,5.6c-7.4,7.4-7.4,19.5,0,26.9l26.5,26.5c0.4,0.4,1,0.7,1.5,0.8c0.2,0,0.4,0.1,0.6,0.1c0.8,0,1.5-0.3,2.1-0.9
			l26.5-26.5c7.4-7.4,7.4-19.5,0-26.9C547,88.1,542.3,86.1,537.2,86.1L537.2,86.1z"/>
	</g>
	<path class="st31" d="M543.2,115.2c-2.7-0.1-5.4-0.2-8.1-0.3c-2.7-0.1-5.4-0.2-8.1-0.2l-0.7,0l-0.4,0.6l-3.3,4.9l-1.4,2.2
		c-0.7-2.5-1.3-5-2-7.5c-1-3.5-1.9-7.1-3-10.6l-1-3.3l-1.6,3l-3,5.8l-2.7,5.2c-1.7,0-3.4,0.1-5.1,0.2c-1.9,0.1-3.8,0.1-5.8,0.2
		c-3.8,0.2-7.7,0.4-11.5,0.7c3.8,0.3,7.7,0.5,11.5,0.7c1.9,0.1,3.8,0.2,5.8,0.2c1.9,0.1,3.8,0.1,5.8,0.2l0.6,0l0.3-0.6l3.3-5.6
		l1.5-2.7c0.6,2.5,1.3,4.9,2,7.4c0.9,3.6,1.9,7.1,2.9,10.6l0.9,3.2l1.8-2.8l3.2-4.9l2.7-4.4c2.5,0,4.9-0.1,7.4-0.2
		c2.7-0.1,5.4-0.2,8.1-0.3c5.4-0.2,10.8-0.5,16.2-0.9C554,115.7,548.6,115.4,543.2,115.2z"/>
</g>
</svg>
