<?xml version="1.0" encoding="utf-8"?>
<!-- Generator: Adobe Illustrator 21.1.0, SVG Export Plug-In . SVG Version: 6.00 Build 0)  -->
<svg version="1.1" id="Ebene_1" xmlns="http://www.w3.org/2000/svg" xmlns:xlink="http://www.w3.org/1999/xlink" x="0px" y="0px"
	 viewBox="0 0 275 132.5" style="enable-background:new 0 0 275 132.5;" xml:space="preserve">
<style type="text/css">
	.st0{clip-path:url(#SVGID_3_);fill:none;stroke:#999999;stroke-miterlimit:10;}
	.st1{clip-path:url(#SVGID_5_);fill:none;stroke:#999999;stroke-miterlimit:10;}
	.st2{fill:none;stroke:#999999;stroke-miterlimit:10;}
	.st3{fill:none;stroke:#00A8FF;stroke-width:3;stroke-miterlimit:10;}
	.st4{fill:#333333;}
	.st5{clip-path:url(#SVGID_8_);fill:none;stroke:#999999;stroke-miterlimit:10;}
	.st6{clip-path:url(#SVGID_10_);fill:none;stroke:#999999;stroke-miterlimit:10;}
	.st7{fill:none;stroke:#333333;stroke-width:2;stroke-miterlimit:10;}
</style>
<g>
	<g>
		<g>
			<g>
				<g>
					<defs>
						<path id="SVGID_1_" d="M67.4,4.3C32.8,4.3,4.7,32.4,4.7,67s28.1,62.7,62.7,62.7s62.7-28.1,62.7-62.7S102,4.3,67.4,4.3z"/>
					</defs>
					<clipPath id="SVGID_3_">
						<use xlink:href="#SVGID_1_"  style="overflow:visible;"/>
					</clipPath>
					<circle class="st0" cx="67.4" cy="67" r="62.7"/>
				</g>
			</g>
			<g>
				<g>
					<defs>
						<path id="SVGID_4_" d="M67.4,4.3C32.8,4.3,4.7,32.4,4.7,67s28.1,62.7,62.7,62.7s62.7-28.1,62.7-62.7S102,4.3,67.4,4.3z"/>
					</defs>
					<clipPath id="SVGID_5_">
						<use xlink:href="#SVGID_4_"  style="overflow:visible;"/>
					</clipPath>
					<circle class="st1" cx="67.4" cy="67" r="62"/>
				</g>
			</g>
			<g>
				<path id="SVGID_6_" class="st2" d="M67.4,4.3C32.8,4.3,4.7,32.4,4.7,67s28.1,62.7,62.7,62.7s62.7-28.1,62.7-62.7
					S102,4.3,67.4,4.3z"/>
			</g>
		</g>
		<path class="st3" d="M92.8,44.8c-0.6-2.4-2.8-4.1-5.4-4.1H47.4c-2.6,0-4.7,1.7-5.4,4.1c-0.1,0.5-1,3.5-2,7.1
			c-2.7,9.3-2.3,19.3,1.1,28.3l3.2,8.5c0.8,2.5,3.6,4.5,6.2,4.5h33.8c2.6,0,5.4-2,6.2-4.5l3.3-8.7c3.4-9,3.8-18.8,1.2-28
			C93.8,48.4,93,45.4,92.8,44.8z"/>
		<g>
			<g>
				<rect x="62.6" y="51.5" class="st4" width="9.4" height="9.4"/>
			</g>
			<g>
				<path class="st4" d="M67.3,74.7L61.7,69l5.7-5.7L73,69L67.3,74.7z M62.8,69l4.5,4.5l4.5-4.5l-4.5-4.5L62.8,69z"/>
			</g>
			<g>
				<g>
					<rect x="74" y="73" class="st4" width="9.4" height="9.4"/>
				</g>
				<g>
					<rect x="51.4" y="73" class="st4" width="9.4" height="9.4"/>
				</g>
			</g>
			<g>
				<path class="st4" d="M56.1,73.5c-0.2,0-0.4-0.2-0.4-0.4v-4.1c0-0.2,0.2-0.4,0.4-0.4c0.2,0,0.4,0.2,0.4,0.4V73
					C56.4,73.2,56.3,73.5,56.1,73.5z"/>
			</g>
			<g>
				<path class="st4" d="M62.1,69.4h-6c-0.2,0-0.4-0.2-0.4-0.4c0-0.2,0.2-0.4,0.4-0.4h6c0.2,0,0.4,0.2,0.4,0.4
					C62.5,69.2,62.3,69.4,62.1,69.4z"/>
			</g>
			<g>
				<path class="st4" d="M78.7,69.4h-6c-0.2,0-0.4-0.2-0.4-0.4c0-0.2,0.2-0.4,0.4-0.4h6c0.2,0,0.4,0.2,0.4,0.4
					C79.1,69.2,78.9,69.4,78.7,69.4z"/>
			</g>
			<g>
				<path class="st4" d="M78.7,73.5c-0.2,0-0.4-0.2-0.4-0.4v-4.1c0-0.2,0.2-0.4,0.4-0.4s0.4,0.2,0.4,0.4V73
					C79,73.2,78.9,73.5,78.7,73.5z"/>
			</g>
			<g>
				<path class="st4" d="M67.3,64.3c-0.2,0-0.4-0.2-0.4-0.4V61c0-0.2,0.2-0.4,0.4-0.4c0.2,0,0.4,0.2,0.4,0.4v2.9
					C67.8,64.2,67.6,64.3,67.3,64.3z"/>
			</g>
		</g>
	</g>
	<g>
		<g>
			<g>
				<g>
					<defs>
						<path id="SVGID_7_" d="M207.7,4.3C173.1,4.3,145,32.4,145,67s28.1,62.7,62.7,62.7s62.7-28.1,62.7-62.7S242.3,4.3,207.7,4.3z"
							/>
					</defs>
					<clipPath id="SVGID_8_">
						<use xlink:href="#SVGID_7_"  style="overflow:visible;"/>
					</clipPath>
					<circle class="st5" cx="207.7" cy="67" r="62.7"/>
				</g>
			</g>
			<g>
				<g>
					<defs>
						<path id="SVGID_9_" d="M207.7,4.3C173.1,4.3,145,32.4,145,67s28.1,62.7,62.7,62.7s62.7-28.1,62.7-62.7S242.3,4.3,207.7,4.3z"
							/>
					</defs>
					<clipPath id="SVGID_10_">
						<use xlink:href="#SVGID_9_"  style="overflow:visible;"/>
					</clipPath>
					<circle class="st6" cx="207.7" cy="67" r="62"/>
				</g>
			</g>
			<g>
				<path id="SVGID_2_" class="st2" d="M207.7,4.3C173.1,4.3,145,32.4,145,67s28.1,62.7,62.7,62.7s62.7-28.1,62.7-62.7
					S242.3,4.3,207.7,4.3z"/>
			</g>
		</g>
		<path class="st3" d="M233.1,44.8c-0.6-2.4-2.8-4.1-5.4-4.1h-40.1c-2.6,0-4.7,1.7-5.4,4.1c-0.1,0.5-1,3.5-2,7.1
			c-2.7,9.3-2.3,19.3,1.1,28.3l3.2,8.5c0.8,2.5,3.6,4.5,6.2,4.5h33.8c2.6,0,5.4-2,6.2-4.5l3.3-8.7c3.4-9,3.8-18.8,1.2-28
			C234.1,48.4,233.3,45.4,233.1,44.8z"/>
		<g>
			<rect x="192.3" y="56.2" class="st7" width="30.7" height="21.5"/>
			<line class="st7" x1="192.9" y1="63.5" x2="223.1" y2="63.5"/>
			<line class="st7" x1="192.4" y1="70.7" x2="223.1" y2="70.7"/>
			<line class="st7" x1="200.9" y1="63.3" x2="200.9" y2="77.7"/>
		</g>
	</g>
</g>
</svg>
